<svg width="26" height="26" viewBox="0 0 26 26" fill="none" xmlns="http://www.w3.org/2000/svg">
<path d="M13.4356 1.79108L16.4659 7.1675C16.68 7.54727 17.0487 7.81512 17.476 7.90135L23.5257 9.122C23.9075 9.19904 24.0585 9.66376 23.7949 9.95051L19.6181 14.494C19.323 14.8149 19.1822 15.2483 19.2323 15.6814L19.9408 21.8122C19.9855 22.1991 19.5902 22.4863 19.236 22.3242L13.6242 19.7558C13.2279 19.5744 12.7721 19.5744 12.3758 19.7558L6.76395 22.3242C6.40977 22.4863 6.01446 22.1991 6.05918 21.8122L6.76773 15.6814C6.81778 15.2483 6.67696 14.8149 6.38193 14.494L2.20509 9.95051C1.94147 9.66376 2.09247 9.19904 2.47429 9.122L8.524 7.90135C8.95132 7.81512 9.32 7.54727 9.53405 7.1675L12.5644 1.79108C12.7557 1.45176 13.2443 1.45176 13.4356 1.79108Z" stroke="white"/>
</svg>
