<svg width="12" height="12" viewBox="0 0 12 12" fill="none" xmlns="http://www.w3.org/2000/svg">
<path d="M10.9446 9.57119L7.11841 6.0001L10.9446 2.429C11.3577 2.04346 11.3577 1.42275 10.9446 1.03721C10.5315 0.65166 9.86646 0.65166 9.45337 1.03721L5.6272 4.6083L1.80103 1.03721C1.38794 0.65166 0.7229 0.65166 0.309814 1.03721C-0.103271 1.42275 -0.103271 2.04346 0.309814 2.429L4.13599 6.0001L0.309814 9.57119C-0.103271 9.95674 -0.103271 10.5774 0.309814 10.963C0.7229 11.3485 1.38794 11.3485 1.80103 10.963L5.6272 7.39189L9.45337 10.963C9.86646 11.3485 10.5315 11.3485 10.9446 10.963C11.3547 10.5774 11.3547 9.954 10.9446 9.57119Z" fill="#C4C4C4"/>
</svg>
