<svg width="19" height="26" viewBox="0 0 19 26" fill="none" xmlns="http://www.w3.org/2000/svg">
<path d="M18.087 1.25604H16.3285V0.502415C16.3285 0.224957 16.1035 0 15.8261 0H10.6763C10.3989 0 10.1739 0.224957 10.1739 0.502415V1.25604H0.502415C0.224956 1.25604 0 1.481 0 1.75845V25.4976C0 25.775 0.224956 26 0.502415 26H18.087C18.3644 26 18.5894 25.775 18.5894 25.4976V1.75845C18.5894 1.481 18.3644 1.25604 18.087 1.25604ZM11.1787 1.00483H15.3237V9.02815L13.6682 6.56513C13.5749 6.42627 13.4185 6.343 13.2512 6.343C13.0839 6.343 12.9276 6.42627 12.8342 6.56513L11.1787 9.02815V1.00483ZM1.00483 2.26087H2.82609V24.9952H1.00483V2.26087ZM17.5845 24.9952H3.83092V2.26087H10.1739V10.6763C10.1739 10.8974 10.3184 11.0925 10.5298 11.1569C10.7415 11.2213 10.9701 11.1399 11.0933 10.9566L13.2512 7.74605L15.4091 10.9566C15.5042 11.098 15.6619 11.1788 15.8261 11.1788C15.8748 11.1788 15.9242 11.1717 15.9726 11.157C16.184 11.0925 16.3285 10.8974 16.3285 10.6763V2.26087H17.5845V24.9952Z" fill="white"/>
</svg>
