<svg width="95" height="95" viewBox="0 0 95 95" fill="none" xmlns="http://www.w3.org/2000/svg">
<circle cx="47.5" cy="47.5" r="42.5" fill="#F9F9F9" stroke="white" stroke-width="10"/>
<path d="M47.3415 54.184C49.7282 54.184 51.663 52.2492 51.663 49.8625C51.663 47.4758 49.7282 45.541 47.3415 45.541C44.9548 45.541 43.02 47.4758 43.02 49.8625C43.02 52.2492 44.9548 54.184 47.3415 54.184Z" fill="#0E80A4"/>
<path d="M61.8955 38.3865H55.8694L55.4661 36.3986C55.2678 35.4216 54.7379 34.5432 53.966 33.9123C53.1942 33.2814 52.228 32.9367 51.231 32.9366H44.3359C43.3648 32.9384 42.4226 33.2672 41.6612 33.87C40.8998 34.4729 40.3637 35.3146 40.1393 36.2594L39.6351 38.3865H35.0927C35.2738 38.692 35.3944 39.0294 35.448 39.3805C36.1281 39.4852 36.7481 39.8299 37.1961 40.3522C37.644 40.8745 37.8902 41.5398 37.8902 42.2278C37.8902 42.9159 37.644 43.5812 37.1961 44.1034C36.7481 44.6257 36.1281 44.9704 35.448 45.0752C35.34 45.752 34.9942 46.3681 34.4728 46.8129C33.9514 47.2577 33.2885 47.5021 32.6031 47.5021C31.9177 47.5021 31.2548 47.2577 30.7333 46.8129C30.2119 46.3681 29.8661 45.752 29.7581 45.0752C29.4067 45.0231 29.069 44.9024 28.7642 44.7199V57.5931C28.7642 58.7392 29.2195 59.8384 30.0299 60.6488C30.8403 61.4593 31.9395 61.9146 33.0856 61.9146H61.8955C63.0416 61.9146 64.1408 61.4593 64.9512 60.6488C65.7617 59.8384 66.217 58.7392 66.217 57.5931V42.708C66.217 41.5619 65.7617 40.4627 64.9512 39.6522C64.1408 38.8418 63.0416 38.3865 61.8955 38.3865V38.3865ZM47.3417 57.0649C45.9172 57.0649 44.5247 56.6425 43.3402 55.8511C42.1558 55.0597 41.2326 53.9348 40.6875 52.6187C40.1424 51.3026 39.9997 49.8544 40.2776 48.4573C40.5556 47.0602 41.2415 45.7768 42.2488 44.7695C43.2561 43.7622 44.5394 43.0763 45.9366 42.7984C47.3337 42.5205 48.7819 42.6631 50.098 43.2082C51.4141 43.7534 52.5389 44.6765 53.3303 45.861C54.1218 47.0454 54.5442 48.4379 54.5442 49.8624C54.5442 51.7727 53.7853 53.6046 52.4346 54.9554C51.0839 56.3061 49.2519 57.0649 47.3417 57.0649ZM61.2665 44.5806H56.945C56.563 44.5806 56.1966 44.4289 55.9264 44.1587C55.6563 43.8886 55.5045 43.5222 55.5045 43.1401C55.5045 42.7581 55.6563 42.3917 55.9264 42.1216C56.1966 41.8514 56.563 41.6996 56.945 41.6996H61.2665C61.6485 41.6996 62.0149 41.8514 62.2851 42.1216C62.5552 42.3917 62.707 42.7581 62.707 43.1401C62.707 43.5222 62.5552 43.8886 62.2851 44.1587C62.0149 44.4289 61.6485 44.5806 61.2665 44.5806Z" fill="#0E80A4"/>
<path d="M35.0063 40.7873H34.046V39.827C34.046 39.4449 33.8942 39.0785 33.6241 38.8084C33.3539 38.5382 32.9875 38.3865 32.6055 38.3865C32.2234 38.3865 31.857 38.5382 31.5869 38.8084C31.3167 39.0785 31.165 39.4449 31.165 39.827V40.7873H30.2047C29.8226 40.7873 29.4562 40.9391 29.1861 41.2092C28.9159 41.4794 28.7642 41.8457 28.7642 42.2278C28.7642 42.6098 28.9159 42.9762 29.1861 43.2464C29.4562 43.5165 29.8226 43.6683 30.2047 43.6683H31.165V44.6286C31.165 45.0107 31.3167 45.377 31.5869 45.6472C31.857 45.9173 32.2234 46.0691 32.6055 46.0691C32.9875 46.0691 33.3539 45.9173 33.6241 45.6472C33.8942 45.377 34.046 45.0107 34.046 44.6286V43.6683H35.0063C35.3883 43.6683 35.7547 43.5165 36.0249 43.2464C36.295 42.9762 36.4468 42.6098 36.4468 42.2278C36.4468 41.8457 36.295 41.4794 36.0249 41.2092C35.7547 40.9391 35.3883 40.7873 35.0063 40.7873V40.7873Z" fill="#0E80A4"/>
</svg>
