<svg width="29" height="29" viewBox="0 0 29 29" fill="none" xmlns="http://www.w3.org/2000/svg">
<circle cx="14.2326" cy="14.2326" r="14.2326" fill="white"/>
<path d="M19.6385 12.693C19.9991 12.693 20.2932 12.8163 20.5209 13.063C20.7676 13.2907 20.891 13.5849 20.891 13.9454C20.891 14.306 20.7676 14.6096 20.5209 14.8563C20.2932 15.084 19.9991 15.1979 19.6385 15.1979H15.198V19.61C15.198 19.9705 15.0746 20.2742 14.8279 20.5209C14.6002 20.7676 14.306 20.8909 13.9455 20.8909C13.5849 20.8909 13.2813 20.7676 13.0346 20.5209C12.8069 20.2742 12.693 19.9705 12.693 19.61V15.1979H8.25247C7.89191 15.1979 7.58828 15.084 7.34158 14.8563C7.11386 14.6096 7 14.306 7 13.9454C7 13.5849 7.11386 13.2907 7.34158 13.063C7.58828 12.8163 7.89191 12.693 8.25247 12.693H12.693V8.2524C12.693 7.89185 12.8069 7.59771 13.0346 7.36999C13.2813 7.12329 13.5849 6.99994 13.9455 6.99994C14.306 6.99994 14.6002 7.12329 14.8279 7.36999C15.0746 7.59771 15.198 7.89185 15.198 8.2524V12.693H19.6385Z" fill="#369CB7"/>
</svg>
