<svg width="29" height="22" viewBox="0 0 29 22" fill="none" xmlns="http://www.w3.org/2000/svg">
<path d="M20.2199 12.8702L16.9503 11.0005C16.8727 10.956 16.7808 10.9431 16.6939 10.9645C16.607 10.9859 16.5316 11.04 16.4835 11.1155L14.5 14.2246L12.5177 11.1149C12.4695 11.0395 12.3942 10.9855 12.3073 10.9641C12.2204 10.9427 12.1286 10.9555 12.0509 10.9999L8.78136 12.8696C8.72805 12.9001 8.68375 12.9442 8.65292 12.9974C8.6221 13.0505 8.60583 13.1109 8.60577 13.1723V16.7845C8.60381 16.8315 8.61138 16.8784 8.628 16.9224C8.64463 16.9664 8.66998 17.0065 8.70253 17.0405C8.73508 17.0744 8.77416 17.1014 8.81741 17.1199C8.86066 17.1383 8.9072 17.1478 8.95422 17.1478C9.00124 17.1478 9.04778 17.1383 9.09103 17.1199C9.13428 17.1014 9.17336 17.0744 9.20591 17.0405C9.23846 17.0065 9.26381 16.9664 9.28044 16.9224C9.29706 16.8784 9.30463 16.8315 9.30267 16.7845V13.377L12.1096 11.7719L14.207 15.0632C14.2406 15.1097 14.2849 15.1476 14.336 15.1737C14.3872 15.1998 14.4438 15.2134 14.5012 15.2134C14.5587 15.2134 14.6153 15.1998 14.6664 15.1737C14.7176 15.1476 14.7618 15.1097 14.7955 15.0632L16.8928 11.7719L19.6986 13.377V16.787C19.6966 16.8339 19.7042 16.8808 19.7208 16.9248C19.7374 16.9688 19.7628 17.009 19.7953 17.0429C19.8279 17.0768 19.867 17.1038 19.9102 17.1223C19.9535 17.1407 20 17.1502 20.047 17.1502C20.094 17.1502 20.1406 17.1407 20.1838 17.1223C20.2271 17.1038 20.2662 17.0768 20.2987 17.0429C20.3313 17.009 20.3566 16.9688 20.3732 16.9248C20.3899 16.8808 20.3974 16.8339 20.3955 16.787V13.1729C20.3954 13.1115 20.3791 13.0511 20.3483 12.998C20.3175 12.9448 20.2732 12.9007 20.2199 12.8702V12.8702Z" fill="white"/>
<path d="M13.8012 10.2691H15.1986C15.7152 10.2687 16.2105 10.0632 16.5758 9.69793C16.9411 9.33264 17.1465 8.83734 17.147 8.32074V5.85648C17.1464 5.33993 16.9409 4.84472 16.5756 4.47946C16.2104 4.1142 15.7152 3.90872 15.1986 3.90808H13.8012C13.2846 3.90872 12.7894 4.1142 12.4242 4.47946C12.0589 4.84472 11.8534 5.33993 11.8528 5.85648V8.32074C11.8533 8.83734 12.0587 9.33264 12.424 9.69793C12.7893 10.0632 13.2846 10.2687 13.8012 10.2691V10.2691ZM12.5497 5.85648C12.55 5.52466 12.682 5.20652 12.9166 4.97189C13.1512 4.73725 13.4694 4.6053 13.8012 4.60498H15.1986C15.5304 4.6053 15.8486 4.73725 16.0832 4.97189C16.3178 5.20652 16.4498 5.52466 16.4501 5.85648V8.32074C16.4498 8.65256 16.3178 8.9707 16.0832 9.20533C15.8486 9.43996 15.5304 9.57192 15.1986 9.57224H13.8012C13.4694 9.57192 13.1512 9.43996 12.9166 9.20533C12.682 8.9707 12.55 8.65256 12.5497 8.32074V5.85648Z" fill="white"/>
<path d="M2.0012 20.7379H26.7466C27.2995 20.7379 27.7478 20.2897 27.7478 19.7367V2.0012C27.7478 1.44825 27.2995 1 26.7466 1H2.0012C1.44825 1 1 1.44825 1 2.0012V19.7367C1 20.2897 1.44825 20.7379 2.0012 20.7379Z" stroke="white" stroke-width="0.7" stroke-miterlimit="10" stroke-linecap="round" stroke-linejoin="round"/>
</svg>
