<svg width="143" height="143" fill="none" xmlns="http://www.w3.org/2000/svg"><mask id="a" maskUnits="userSpaceOnUse" x="56.882" y="22.806" width="43.521" height="50.855" fill="#000"><path fill="#fff" d="M56.882 22.806h43.521v50.855H56.882z"/><path d="M68.172 30.572a41.002 41.002 0 0120.865 3.837L71.442 71.442l-3.27-40.87z"/></mask><path d="M68.172 30.572a41.002 41.002 0 0120.865 3.837L71.442 71.442l-3.27-40.87z" fill="#4B7C61"/><path d="M68.172 30.572a41.002 41.002 0 0120.865 3.837L71.442 71.442l-3.27-40.87z" stroke="#68C2D0" stroke-width=".8" mask="url(#a)"/><mask id="b" maskUnits="userSpaceOnUse" x="39.664" y="21.98" width="52.822" height="51.522" fill="#000"><path fill="#fff" d="M39.664 21.98h52.822v51.522H39.664z"/><path d="M48.178 37.68a41 41 0 0119.988-7.107l3.276 40.869L48.178 37.68z"/></mask><path d="M48.178 37.68a41 41 0 0119.988-7.107l3.276 40.869L48.178 37.68z" fill="#ECF7F9"/><path d="M48.178 37.68a41 41 0 0119.988-7.107l3.276 40.869L48.178 37.68z" stroke="#68C2D0" stroke-width=".8" mask="url(#b)"/><mask id="c" maskUnits="userSpaceOnUse" x="30.96" y="34.397" width="47.978" height="38.396" fill="#000"><path fill="#fff" d="M30.96 34.397h47.978v38.396H30.96z"/><path d="M34.42 53.825a41.001 41.001 0 0113.76-16.146l23.26 33.763-37.02-17.617z"/></mask><path d="M34.42 53.825a41.001 41.001 0 0113.76-16.146l23.26 33.763-37.02-17.617z" fill="#ECF7F9"/><path d="M34.42 53.825a41.001 41.001 0 0113.76-16.146l23.26 33.763-37.02-17.617z" stroke="#68C2D0" stroke-width=".8" mask="url(#c)"/><mask id="d" maskUnits="userSpaceOnUse" x="22.812" y="42.476" width="50.848" height="43.508" fill="#000"><path fill="#fff" d="M22.812 42.476H73.66v43.508H22.812z"/><path d="M30.57 74.693a41 41 0 013.847-20.863l37.025 17.61-40.872 3.253z"/></mask><path d="M30.57 74.693a41 41 0 013.847-20.863l37.025 17.61-40.872 3.253z" fill="#ECF7F9"/><path d="M30.57 74.693a41 41 0 013.847-20.863l37.025 17.61-40.872 3.253z" stroke="#68C2D0" stroke-width=".8" mask="url(#d)"/><mask id="e" maskUnits="userSpaceOnUse" x="21.974" y="50.386" width="51.529" height="52.82" fill="#000"><path fill="#fff" d="M21.974 50.386h51.529v52.82H21.974z"/><path d="M37.669 94.688a41.001 41.001 0 01-7.098-19.993l40.871-3.253-33.773 23.246z"/></mask><path d="M37.669 94.688a41.001 41.001 0 01-7.098-19.993l40.871-3.253-33.773 23.246z" fill="#ECF7F9"/><path d="M37.669 94.688a41.001 41.001 0 01-7.098-19.993l40.871-3.253-33.773 23.246z" stroke="#68C2D0" stroke-width=".8" mask="url(#e)"/><mask id="f" maskUnits="userSpaceOnUse" x="34.387" y="63.936" width="38.407" height="47.985" fill="#000"><path fill="#fff" d="M34.387 63.936h38.407v47.985H34.387z"/><path d="M53.814 108.459a40.998 40.998 0 01-16.142-13.767l33.77-23.25-17.628 37.017z"/></mask><path d="M53.814 108.459a40.998 40.998 0 01-16.142-13.767l33.77-23.25-17.628 37.017z" fill="#ECF7F9"/><path d="M53.814 108.459a40.998 40.998 0 01-16.142-13.767l33.77-23.25-17.628 37.017z" stroke="#68C2D0" stroke-width=".8" mask="url(#f)"/><mask id="g" maskUnits="userSpaceOnUse" x="42.472" y="69.223" width="43.492" height="50.84" fill="#000"><path fill="#fff" d="M42.472 69.223h43.492v50.84H42.472z"/><path d="M74.671 112.314a41.004 41.004 0 01-20.861-3.857l17.632-37.016 3.23 40.873z"/></mask><path d="M74.671 112.314a41.004 41.004 0 01-20.861-3.857l17.632-37.016 3.23 40.873z" fill="#ECF7F9"/><path d="M74.671 112.314a41.004 41.004 0 01-20.861-3.857l17.632-37.016 3.23 40.873z" stroke="#68C2D0" stroke-width=".8" mask="url(#g)"/><mask id="h" maskUnits="userSpaceOnUse" x="50.376" y="69.38" width="52.818" height="51.534" fill="#000"><path fill="#fff" d="M50.376 69.38h52.818v51.534H50.376z"/><path d="M94.672 105.225a40.996 40.996 0 01-19.995 7.089l-3.235-40.872 23.23 33.783z"/></mask><path d="M94.672 105.225a40.996 40.996 0 01-19.995 7.089l-3.235-40.872 23.23 33.783z" fill="#4B7C61"/><path d="M94.672 105.225a40.996 40.996 0 01-19.995 7.089l-3.235-40.872 23.23 33.783z" stroke="#68C2D0" stroke-width=".8" mask="url(#h)"/><mask id="i" maskUnits="userSpaceOnUse" x="63.952" y="70.09" width="47.973" height="38.388" fill="#000"><path fill="#fff" d="M63.952 70.09h47.973v38.388H63.952z"/><path d="M108.468 89.05a41 41 0 01-13.758 16.149L71.442 71.442l37.026 17.608z"/></mask><path d="M108.468 89.05a41 41 0 01-13.758 16.149L71.442 71.442l37.026 17.608z" fill="#4B7C61"/><path d="M108.468 89.05a41 41 0 01-13.758 16.149L71.442 71.442l37.026 17.608z" stroke="#68C2D0" stroke-width=".8" mask="url(#i)"/><mask id="j" maskUnits="userSpaceOnUse" x="69.223" y="56.89" width="50.852" height="43.515" fill="#000"><path fill="#fff" d="M69.223 56.89h50.852v43.515H69.223z"/><path d="M112.312 68.18a41.01 41.01 0 01-3.841 20.865l-37.03-17.603 40.871-3.261z"/></mask><path d="M112.312 68.18a41.01 41.01 0 01-3.841 20.865l-37.03-17.603 40.871-3.261z" fill="#4B7C61"/><path d="M112.312 68.18a41.01 41.01 0 01-3.841 20.865l-37.03-17.603 40.871-3.261z" stroke="#68C2D0" stroke-width=".8" mask="url(#j)"/><mask id="k" maskUnits="userSpaceOnUse" x="69.38" y="39.676" width="51.528" height="52.82" fill="#000"><path fill="#fff" d="M69.38 39.676h51.528v52.82H69.38z"/><path d="M105.213 48.193a40.999 40.999 0 017.099 19.992l-40.87 3.257 33.771-23.249z"/></mask><path d="M105.213 48.193a40.999 40.999 0 017.099 19.992l-40.87 3.257 33.771-23.249z" fill="#4B7C61"/><path d="M105.213 48.193a40.999 40.999 0 017.099 19.992l-40.87 3.257 33.771-23.249z" stroke="#68C2D0" stroke-width=".8" mask="url(#k)"/><mask id="l" maskUnits="userSpaceOnUse" x="70.09" y="30.962" width="38.404" height="47.983" fill="#000"><path fill="#fff" d="M70.09 30.962h38.404v47.983H70.09z"/><path d="M89.067 34.423a40.998 40.998 0 0116.143 13.765L71.442 71.442l17.625-37.019z"/></mask><path d="M89.067 34.423a40.998 40.998 0 0116.143 13.765L71.442 71.442l17.625-37.019z" fill="#4B7C61"/><path d="M89.067 34.423a40.998 40.998 0 0116.143 13.765L71.442 71.442l17.625-37.019z" stroke="#68C2D0" stroke-width=".8" mask="url(#l)"/><circle cx="71.442" cy="71.442" r="40.5" transform="rotate(-109.397 71.442 71.442)" stroke="#68C2D0"/></svg>