<svg width="9" height="7" viewBox="0 0 9 7" fill="none" xmlns="http://www.w3.org/2000/svg">
<path d="M7.81349 1.03554L3.34452 5.50469L1.18652 3.3467C1.14566 3.30723 1.09093 3.28539 1.03412 3.28588C0.977311 3.28638 0.922968 3.30916 0.882796 3.34934C0.842624 3.38951 0.819838 3.44385 0.819344 3.50066C0.81885 3.55747 0.840689 3.6122 0.880157 3.65306L3.19134 5.96427C3.21145 5.98439 3.23533 6.00036 3.26162 6.01125C3.2879 6.02214 3.31607 6.02775 3.34452 6.02775C3.37297 6.02775 3.40115 6.02214 3.42743 6.01125C3.45372 6.00036 3.4776 5.98439 3.49771 5.96427L8.11986 1.3419C8.14055 1.32192 8.15706 1.29801 8.16841 1.27157C8.17977 1.24514 8.18574 1.21671 8.18599 1.18794C8.18624 1.15917 8.18076 1.13064 8.16987 1.10401C8.15897 1.07739 8.14288 1.05319 8.12254 1.03285C8.1022 1.01251 8.07801 0.996419 8.05138 0.985525C8.02475 0.974631 7.99622 0.969149 7.96745 0.969399C7.93868 0.969649 7.91025 0.975626 7.88382 0.986982C7.85738 0.998337 7.83348 1.01484 7.81349 1.03554V1.03554Z" fill="white" stroke="white" stroke-width="0.4"/>
</svg>
