<svg width="14" height="14" viewBox="0 0 14 14" fill="none" xmlns="http://www.w3.org/2000/svg">
<circle cx="7" cy="7" r="7" fill="#68C2D0"/>
<path d="M5.76375 8.37375C5.75458 8.31708 5.75 8.2625 5.75 8.21C5.75 8.1575 5.75 8.1025 5.75 8.045C5.7432 7.76844 5.79385 7.49348 5.89875 7.2375C5.99032 7.02148 6.11704 6.82212 6.27375 6.6475C6.42384 6.48448 6.59153 6.33859 6.77375 6.2125C6.95042 6.08833 7.11708 5.96333 7.27375 5.8375C7.41354 5.72539 7.53943 5.59698 7.64875 5.455C7.74971 5.31853 7.80208 5.15219 7.7975 4.9825C7.80017 4.86551 7.77341 4.74972 7.71968 4.64576C7.66596 4.5418 7.58698 4.45299 7.49 4.3875C7.28417 4.23917 6.96542 4.165 6.53375 4.165C6.32819 4.16265 6.12369 4.19476 5.92875 4.26C5.75209 4.32044 5.58137 4.39701 5.41875 4.48875C5.27395 4.57008 5.13562 4.66243 5.005 4.765C4.88417 4.86083 4.77792 4.94042 4.68625 5.00375L4 4.115C4.17217 3.92899 4.36654 3.76484 4.57875 3.62625C4.79384 3.48529 5.0235 3.36795 5.26375 3.27625C5.50469 3.18415 5.75368 3.11468 6.0075 3.06875C6.25497 3.02368 6.50596 3.00068 6.7575 3C7.52917 3 8.12917 3.16125 8.5575 3.48375C8.76297 3.63145 8.92901 3.82735 9.04104 4.05424C9.15307 4.28114 9.20766 4.53207 9.2 4.785C9.21017 5.09255 9.15389 5.39868 9.035 5.6825C8.93608 5.90732 8.79716 6.11232 8.625 6.2875C8.45602 6.45103 8.27138 6.59757 8.07375 6.725C7.88414 6.84863 7.7033 6.98521 7.5325 7.13375C7.3667 7.27692 7.2249 7.44573 7.1125 7.63375C6.99104 7.8582 6.93231 8.11124 6.9425 8.36625L5.76375 8.37375ZM5.55125 9.8825C5.54581 9.77317 5.56385 9.66394 5.60417 9.56216C5.64449 9.46039 5.70615 9.36844 5.785 9.2925C5.95421 9.14244 6.17533 9.0644 6.40125 9.075C6.63391 9.06212 6.86248 9.1401 7.03875 9.2925C7.11753 9.36849 7.17915 9.46045 7.21946 9.56221C7.25978 9.66397 7.27786 9.77318 7.2725 9.8825C7.27718 9.99212 7.25879 10.1015 7.21853 10.2036C7.17826 10.3056 7.11701 10.3981 7.03875 10.475C6.864 10.6305 6.6348 10.7105 6.40125 10.6975C6.28895 10.7027 6.17671 10.6858 6.07097 10.6476C5.96522 10.6094 5.86805 10.5508 5.785 10.475C5.70696 10.398 5.64595 10.3055 5.6059 10.2034C5.56585 10.1014 5.54766 9.99203 5.5525 9.8825H5.55125Z" fill="white"/>
</svg>
