<svg width="52" height="53" fill="none" xmlns="http://www.w3.org/2000/svg"><path d="M51.784 48.804v-.002L38.879.637a.86.86 0 00-1.051-.608L26.199 3.145a.84.84 0 00-.407.269V1.568a.86.86 0 00-.86-.86H.86a.86.86 0 00-.86.86v49.864c0 .475.385.86.86.86h24.072a.86.86 0 00.86-.86V4.945l12.705 47.418a.86.86 0 001.05.608l11.626-3.116a.86.86 0 00.611-1.051zm-39.748 1.768H1.72V2.428h10.317v48.144zm12.036 0H13.756V2.428h10.316v48.144zm15.863.516L27.475 4.583l9.965-2.671L49.9 48.417l-9.965 2.671z" fill="#9DD765"/><path d="M9.457 5.866H4.299a.86.86 0 000 1.72h5.158a.86.86 0 000-1.72zm0 3.439H4.299a.86.86 0 000 1.72h5.158a.86.86 0 000-1.72zm12.036-3.439h-5.158a.86.86 0 000 1.72h5.158a.86.86 0 000-1.72zm0 3.439h-5.158a.86.86 0 000 1.72h5.158a.86.86 0 100-1.72zm15.423-2.779a.86.86 0 00-1.081-.624l-4.986 1.335a.86.86 0 10.436 1.663l.008-.002 4.987-1.336a.86.86 0 00.636-1.036zm.869 3.305a.86.86 0 00-1.053-.608h-.004l-4.982 1.335a.86.86 0 00.437 1.664l.008-.002 4.986-1.336a.86.86 0 00.608-1.053zm8.447 31.554a.86.86 0 00-1.047-.605l-4.987 1.335a.86.86 0 00.223 1.69h.003c.075 0 .15-.01.223-.03l4.982-1.334a.86.86 0 00.603-1.056zm.898 3.322a.86.86 0 00-1.048-.605l-4.987 1.335a.86.86 0 10.445 1.66l4.986-1.334a.86.86 0 00.604-1.056zm-25.637-2.732h-5.158a.86.86 0 100 1.72h5.158a.86.86 0 100-1.72zm0 3.439h-5.158a.86.86 0 100 1.72h5.158a.86.86 0 100-1.72zM9.457 41.975H4.299a.86.86 0 000 1.72h5.158a.86.86 0 000-1.72zm0 3.439H4.299a.86.86 0 000 1.72h5.158a.86.86 0 000-1.72z" fill="#9DD765"/></svg>