<svg width="67" height="55" fill="none" xmlns="http://www.w3.org/2000/svg"><path d="M63.92 52.743h-1.116V23.626A9.11 9.11 0 0067 15.961a.982.982 0 00-.13-.487L59.084 1.845A3.087 3.087 0 0056.409.293H10.591a3.086 3.086 0 00-2.674 1.552L.13 15.474a.983.983 0 00-.13.486 9.11 9.11 0 004.196 7.665v29.117H3.079a.981.981 0 000 1.963h60.842a.981.981 0 100-1.963zm-61.89-35.8h3.147a.982.982 0 000-1.964H2.673L9.62 2.82a1.12 1.12 0 01.97-.563h45.818c.4 0 .771.216.97.563l6.948 12.16h-2.505a.981.981 0 100 1.963h3.147c-.48 3.479-3.472 6.167-7.08 6.167-3.609 0-6.6-2.688-7.08-6.167h6.818a.981.981 0 100-1.963H9.374a.981.981 0 100 1.963h6.816c-.48 3.479-3.47 6.167-7.079 6.167-3.608 0-6.6-2.688-7.08-6.167zm46.679 0c-.48 3.478-3.471 6.166-7.08 6.166-3.608 0-6.598-2.688-7.078-6.167h14.158zm-16.26 0c-.48 3.478-3.47 6.166-7.079 6.166-3.608 0-6.599-2.688-7.079-6.167H32.45zm23.147 35.8H44.971V49.46h10.625v3.282zm0-5.245H44.971V29.53h10.625v17.968zm5.245 5.245H57.56V28.549a.981.981 0 00-.981-.982H43.99a.981.981 0 00-.982.982v24.194H6.158V24.578c.927.319 1.92.494 2.953.494 3.546 0 6.625-2.036 8.13-5 1.505 2.964 4.584 5 8.13 5 3.545 0 6.624-2.036 8.129-5 1.505 2.964 4.584 5 8.13 5 3.545 0 6.624-2.036 8.13-5 1.504 2.964 4.583 5 8.129 5a9.069 9.069 0 002.952-.494v28.165z" fill="#9DD765"/><path d="M38.745 27.567H10.422a.981.981 0 00-.981.982v19.93c0 .543.44.982.981.982h28.323c.542 0 .982-.44.982-.981V28.549a.981.981 0 00-.982-.982zm-.981 19.931h-26.36V29.53h26.36v17.968z" fill="#9DD765"/></svg>