<svg width="46" height="53" fill="none" xmlns="http://www.w3.org/2000/svg"><path d="M42.465 1.767h-2.7V.883a.892.892 0 00-.9-.883c-.497 0-.9.395-.9.883v.884h-10.8V.883a.892.892 0 00-.9-.883c-.497 0-.9.395-.9.883v.884h-10.8V.883a.892.892 0 00-.9-.883c-.496 0-.9.395-.9.883v.884h-2.7c-1.49.001-2.698 1.187-2.7 2.65V21.2c0 .488.404.883.9.883a.89.89 0 00.9-.883V4.417a.894.894 0 01.9-.884h2.7v1.93c-1.24.43-1.983 1.674-1.76 2.946.222 1.273 1.346 2.202 2.66 2.202 1.316 0 2.44-.93 2.662-2.202.222-1.272-.522-2.516-1.762-2.946v-1.93h10.8v1.93c-1.24.43-1.983 1.674-1.76 2.946.222 1.272 1.346 2.202 2.66 2.202 1.316 0 2.44-.93 2.662-2.202.222-1.272-.522-2.516-1.762-2.946v-1.93h10.8v1.93c-1.24.43-1.983 1.674-1.76 2.946.222 1.272 1.345 2.202 2.66 2.202 1.315 0 2.44-.93 2.661-2.202.223-1.272-.52-2.516-1.76-2.946v-1.93h2.7c.496 0 .899.396.9.884V50.35a.893.893 0 01-.9.883h-32.4a.893.893 0 01-.9-.883V37.983a.892.892 0 00-.9-.883.89.89 0 00-.9.883V50.35c.001 1.463 1.209 2.648 2.7 2.65h32.4c1.49-.002 2.698-1.187 2.7-2.65V4.417c-.002-1.463-1.21-2.649-2.7-2.65zm-28.8 7.066a.892.892 0 01-.9-.883c0-.488.403-.883.9-.883.498 0 .9.395.9.883a.893.893 0 01-.9.883zm12.6 0a.892.892 0 01-.9-.883c0-.488.403-.883.9-.883.498 0 .9.395.9.883a.893.893 0 01-.9.883zm12.6 0a.892.892 0 01-.9-.883c0-.488.403-.883.9-.883.498 0 .9.395.9.883a.893.893 0 01-.9.883z" fill="#9DD765"/><path d="M13.666 18.55l.063-.002c.26-.018.5-.146.657-.351l2.7-3.534a.87.87 0 00.107-.877.908.908 0 00-1.548-.183l-2.077 2.719-1.066-1.047a.912.912 0 00-1.267.006.872.872 0 00-.006 1.243l1.8 1.767a.908.908 0 00.637.259zm-2.436 7.691l1.8 1.767a.907.907 0 00.7.257.902.902 0 00.655-.352l2.7-3.533a.873.873 0 00-.18-1.236.911.911 0 00-1.26.176l-2.077 2.719-1.066-1.047a.912.912 0 00-1.267.006.872.872 0 00-.006 1.243zm8.736-8.575h20.7c.497 0 .9-.395.9-.883a.892.892 0 00-.9-.883h-20.7c-.497 0-.9.395-.9.883s.403.883.9.883zm0 9.718h20.7c.497 0 .9-.396.9-.884a.892.892 0 00-.9-.883h-20.7c-.497 0-.9.395-.9.883s.403.884.9.884zm0 9.716h20.7c.497 0 .9-.395.9-.883a.892.892 0 00-.9-.883h-20.7c-.497 0-.9.395-.9.883s.403.883.9.883zm0 9.717h20.7c.497 0 .9-.396.9-.884a.892.892 0 00-.9-.883h-20.7c-.497 0-.9.396-.9.883 0 .488.403.884.9.884zm-6.694-10.621l.657.645c.227.226.56.315.872.234a.892.892 0 00.639-.627.872.872 0 00-.238-.856l-.64-.628a6.841 6.841 0 00-1.87-4.617l-7.818-8.314a2.797 2.797 0 00-1.851-.868c-.053-.004-.103-.017-.156-.018a2.954 2.954 0 00-1.6.455c-.16.102-.307.22-.442.352a2.712 2.712 0 00-.077 3.817l1.348 1.434 6.378 6.781a7.136 7.136 0 004.798 2.21zM2.07 24.573a.975.975 0 01-.183-1.067c.16-.36.523-.593.923-.593h.021c.274.004.535.12.72.318l.659.7-1.426 1.4-.714-.758zm3.362.658l5.938 6.314a5.105 5.105 0 011.35 2.82 5.307 5.307 0 01-2.923-1.577L4.005 26.63l1.427-1.4z" fill="#9DD765"/></svg>