<svg width="55" height="53" fill="none" xmlns="http://www.w3.org/2000/svg"><path d="M40.677 0c-6.1 0-11.14 5.957-13.177 8.768C25.462 5.957 20.424 0 14.323 0 6.425 0 0 7.633 0 17.014c0 5.118 1.933 9.888 5.315 13.153.05.089.11.171.18.245l21.196 22.236c.224.234.516.352.809.352.293 0 .586-.118.81-.353l21.9-23.014.227-.231c.179-.178.356-.358.554-.588.083-.086.15-.183.203-.287C53.651 25.365 55 21.287 55 17.014 55 7.634 48.575 0 40.677 0zm8.61 27.172c-.03.038-.06.08-.085.122-.108.13-.225.243-.342.36L27.5 50.094 7.376 28.981a1.202 1.202 0 00-.266-.359c-3.063-2.811-4.818-7.042-4.818-11.609 0-8.053 5.397-14.605 12.03-14.605 6.56 0 12.159 8.994 12.215 9.085.423.687 1.503.687 1.927 0 .055-.09 5.654-9.085 12.213-9.085 6.635 0 12.031 6.552 12.031 14.605 0 3.795-1.215 7.403-3.42 10.158z" fill="#9DD765"/></svg>