<svg width="55" height="55" fill="none" xmlns="http://www.w3.org/2000/svg"><path d="M4.435 48.772H27.5v-1.775H4.435a2.661 2.661 0 01-2.66-2.661V5.304a2.661 2.661 0 012.66-2.662h39.033a2.66 2.66 0 012.661 2.662v20.403h1.775V5.304A4.44 4.44 0 0043.468.868H4.435A4.441 4.441 0 000 5.304v39.032a4.442 4.442 0 004.435 4.436z" fill="#9DD765"/><path d="M3.549 8.852c0-.49.397-.887.887-.887h39.032a.887.887 0 010 1.774H4.436a.887.887 0 01-.887-.887zm9.131 2.921l-2.254 2.254a4.449 4.449 0 101.254 1.254l2.253-2.253-1.254-1.255zm-4.696 8.611a2.661 2.661 0 010-5.322c.395.001.785.092 1.14.266l-1.767 1.767 1.254 1.254 1.768-1.766c.174.355.265.744.266 1.14a2.661 2.661 0 01-2.661 2.661zm7.096-4.435c0-.49.398-.887.888-.887h13.306a.887.887 0 110 1.774H15.968a.887.887 0 01-.887-.887zm0 3.548c0-.49.398-.887.888-.887h4.435a.887.887 0 110 1.774h-4.435a.887.887 0 01-.887-.887zm7.985 0c0-.49.397-.887.886-.887h10.646a.887.887 0 110 1.774H23.95a.887.887 0 01-.886-.887zM12.68 22.418l-2.254 2.254a4.449 4.449 0 101.254 1.254l2.253-2.253-1.254-1.255zM7.983 31.03a2.661 2.661 0 010-5.323 2.62 2.62 0 011.14.267L7.357 27.74l1.254 1.254 1.768-1.766c.174.355.265.744.266 1.14a2.661 2.661 0 01-2.661 2.661zm7.097-4.436c0-.49.398-.888.888-.888h13.306a.887.887 0 110 1.775H15.968a.887.887 0 01-.887-.887zm-2.4 6.469l-2.254 2.254a4.449 4.449 0 101.254 1.254l2.253-2.253-1.254-1.255zm-4.696 8.612a2.661 2.661 0 010-5.323c.395.001.785.092 1.14.266l-1.767 1.768L8.61 39.64l1.768-1.767c.174.355.265.745.266 1.14a2.661 2.661 0 01-2.661 2.662zm7.096-4.435c0-.49.398-.888.888-.888h9.758a.887.887 0 110 1.775h-9.758a.887.887 0 01-.887-.888zm26.614 16.854c7.35 0 13.306-5.958 13.306-13.306 0-7.35-5.957-13.307-13.306-13.307-7.35 0-13.307 5.957-13.307 13.307.009 7.345 5.961 13.297 13.307 13.306zm0-24.839c6.369 0 11.532 5.163 11.532 11.533 0 6.369-5.163 11.532-11.532 11.532-6.37 0-11.533-5.163-11.533-11.532.008-6.366 5.166-11.526 11.533-11.533z" fill="#9DD765"/><path d="M36.678 42.073a.887.887 0 10-1.587.791l1.378 2.755a.886.886 0 001.417.231l10.017-10.018a.887.887 0 00-1.254-1.254l-8.024 8.024c-.553.552-1.484.4-1.832-.3l-.115-.23z" fill="#9DD765"/></svg>