<svg width="54" height="54" viewBox="0 0 54 54" fill="none" xmlns="http://www.w3.org/2000/svg">
<path d="M26.9999 35.8594C26.7761 35.8594 26.5615 35.7705 26.4032 35.6123C26.245 35.4541 26.1561 35.2395 26.1561 35.0157C26.1561 29.9532 28.5988 27.3544 30.7546 25.0468C32.5138 23.1652 34.0283 21.541 34.0283 18.8494C34.0283 16.9854 33.2878 15.1977 31.9697 13.8796C30.6516 12.5615 28.8639 11.821 26.9999 11.821C25.1358 11.821 23.3481 12.5615 22.03 13.8796C20.7119 15.1977 19.9714 16.9854 19.9714 18.8494C19.9714 19.0732 19.8825 19.2878 19.7243 19.446C19.5661 19.6043 19.3515 19.6932 19.1277 19.6932C18.9039 19.6932 18.6893 19.6043 18.5311 19.446C18.3728 19.2878 18.2839 19.0732 18.2839 18.8494C18.2839 16.5378 19.2022 14.3209 20.8368 12.6863C22.4713 11.0518 24.6883 10.1335 26.9999 10.1335C29.3115 10.1335 31.5284 11.0518 33.163 12.6863C34.7975 14.3209 35.7158 16.5378 35.7158 18.8494C35.7158 22.2244 33.8216 24.2368 31.9907 26.1985C29.953 28.3711 27.8436 30.624 27.8436 35.0157C27.8436 35.2395 27.7547 35.4541 27.5965 35.6123C27.4383 35.7705 27.2236 35.8594 26.9999 35.8594Z" fill="#9DD765"/>
<path d="M27 40.6097C26.8123 40.6097 26.6287 40.6654 26.4726 40.7697C26.3165 40.874 26.1949 41.0223 26.123 41.1957C26.0512 41.3692 26.0324 41.56 26.069 41.7441C26.1056 41.9283 26.1961 42.0974 26.3288 42.2302C26.4616 42.3629 26.6307 42.4533 26.8148 42.4899C26.9989 42.5266 27.1898 42.5078 27.3633 42.4359C27.5367 42.3641 27.6849 42.2424 27.7892 42.0863C27.8935 41.9302 27.9492 41.7467 27.9492 41.559C27.9492 41.3072 27.8492 41.0658 27.6712 40.8878C27.4932 40.7097 27.2517 40.6097 27 40.6097Z" fill="#9DD765"/>
<path d="M27 54C21.6599 54 16.4397 52.4165 11.9996 49.4497C7.55949 46.4829 4.09883 42.2661 2.05526 37.3325C0.0116986 32.3989 -0.522991 26.9701 0.51881 21.7326C1.56061 16.4951 4.13211 11.6841 7.90813 7.90813C11.6841 4.13211 16.4951 1.56061 21.7326 0.51881C26.9701 -0.522991 32.3989 0.0116986 37.3325 2.05526C42.2661 4.09883 46.4829 7.55949 49.4497 11.9996C52.4165 16.4397 54 21.6599 54 27C53.9922 34.1585 51.1451 41.0215 46.0833 46.0833C41.0215 51.1451 34.1585 53.9922 27 54ZM27 1.68751C21.9937 1.68751 17.0998 3.17206 12.9371 5.95344C8.77452 8.73481 5.53015 12.6881 3.61431 17.3133C1.69847 21.9386 1.1972 27.0281 2.17388 31.9382C3.15057 36.8484 5.56136 41.3586 9.10137 44.8987C12.6414 48.4387 17.1516 50.8494 22.0618 51.8261C26.9719 52.8028 32.0614 52.3016 36.6867 50.3857C41.3119 48.4699 45.2652 45.2255 48.0466 41.0629C50.828 36.9003 52.3125 32.0064 52.3125 27C52.3047 20.2891 49.6353 13.8553 44.89 9.11C40.1447 4.36468 33.7109 1.69533 27 1.68751Z" fill="#9DD765"/>
</svg>
