<svg width="53" height="55" viewBox="0 0 53 55" fill="none" xmlns="http://www.w3.org/2000/svg">
<path d="M47.4207 9.88037L42.7721 14.529V49.3098H52.0693V14.529L47.4207 9.88037ZM50.2099 47.4504H44.6316V42.8018H50.2099V47.4504ZM44.6316 40.9423V15.2913L47.4207 12.5022L50.2099 15.2913V40.9423H44.6316Z" fill="white"/>
<path d="M36.794 6.54268H36.264V2.8238C36.264 2.33064 36.0681 1.85769 35.7194 1.50897C35.3707 1.16026 34.8978 0.964355 34.4046 0.964355H32.5452C32.052 0.964355 31.5791 1.16026 31.2303 1.50897C30.8816 1.85769 30.6857 2.33064 30.6857 2.8238V6.54268H9.30216V2.8238C9.30216 2.33064 9.10625 1.85769 8.75754 1.50897C8.40882 1.16026 7.93587 0.964355 7.44271 0.964355H5.58327C5.09012 0.964355 4.61716 1.16026 4.26845 1.50897C3.91974 1.85769 3.72383 2.33064 3.72383 2.8238V6.54268H2.26417C1.62187 6.59035 1.02432 6.88952 0.601315 7.3752C0.178306 7.86088 -0.0359982 8.49384 0.00495136 9.1366V52.2942C-0.0359982 52.937 0.178306 53.57 0.601315 54.0556C1.02432 54.5413 1.62187 54.8405 2.26417 54.8881H36.794C37.4363 54.8405 38.0338 54.5413 38.4568 54.0556C38.8799 53.57 39.0942 52.937 39.0532 52.2942V9.1366C39.0942 8.49384 38.8799 7.86088 38.4568 7.3752C38.0338 6.88952 37.4363 6.59035 36.794 6.54268ZM32.5452 2.8238H34.4046V8.40212H32.5452V2.8238ZM5.58327 2.8238H7.44271V8.40212H5.58327V2.8238ZM37.1938 52.2942C37.1938 52.7312 36.952 53.0287 36.794 53.0287H2.26417C2.10612 53.0287 1.86439 52.7312 1.86439 52.2942V9.1366C1.86439 8.69963 2.10612 8.40212 2.26417 8.40212H3.72383C3.72383 8.89527 3.91974 9.36823 4.26845 9.71694C4.61716 10.0657 5.09012 10.2616 5.58327 10.2616H7.44271C7.93587 10.2616 8.40882 10.0657 8.75754 9.71694C9.10625 9.36823 9.30216 8.89527 9.30216 8.40212H30.6857C30.6857 8.89527 30.8816 9.36823 31.2303 9.71694C31.5791 10.0657 32.052 10.2616 32.5452 10.2616H34.4046C34.8978 10.2616 35.3707 10.0657 35.7194 9.71694C36.0681 9.36823 36.264 8.89527 36.264 8.40212H36.794C36.952 8.40212 37.1938 8.69963 37.1938 9.1366V52.2942Z" fill="white"/>
<path d="M33.4747 18.629H5.58307V20.4885H33.4747V18.629Z" fill="white"/>
<path d="M33.4747 24.2074H5.58307V26.0668H33.4747V24.2074Z" fill="white"/>
<path d="M33.4747 29.7857H5.58307V31.6451H33.4747V29.7857Z" fill="white"/>
<path d="M33.4747 35.364H5.58307V37.2235H33.4747V35.364Z" fill="white"/>
</svg>
