<svg width="42" height="55" viewBox="0 0 42 55" fill="none" xmlns="http://www.w3.org/2000/svg">
<path d="M33.8195 8.37823H37.7277" stroke="white" stroke-width="2" stroke-miterlimit="2.6131" stroke-linecap="round" stroke-linejoin="round"/>
<path d="M37.7277 8.37823C39.1218 8.37823 40.2499 9.51917 40.2499 10.9296" stroke="white" stroke-width="2" stroke-miterlimit="2.6131" stroke-linecap="round" stroke-linejoin="round"/>
<path d="M40.25 10.9297V51.4471" stroke="white" stroke-width="2" stroke-miterlimit="2.6131" stroke-linecap="round" stroke-linejoin="round"/>
<path d="M40.2499 51.4471C40.2499 52.8558 39.1218 54 37.7277 54" stroke="white" stroke-width="2" stroke-miterlimit="2.6131" stroke-linecap="round" stroke-linejoin="round"/>
<path d="M37.7273 54H3.52191" stroke="white" stroke-width="2" stroke-miterlimit="2.6131" stroke-linecap="round" stroke-linejoin="round"/>
<path d="M3.5222 54C2.1296 54 1.00006 52.8558 1.00006 51.4471" stroke="white" stroke-width="2" stroke-miterlimit="2.6131" stroke-linecap="round" stroke-linejoin="round"/>
<path d="M1.00006 51.4471V10.9297" stroke="white" stroke-width="2" stroke-miterlimit="2.6131" stroke-linecap="round" stroke-linejoin="round"/>
<path d="M1.00006 10.9297C1.00006 9.51936 2.1296 8.37842 3.5222 8.37842" stroke="white" stroke-width="2" stroke-miterlimit="2.6131" stroke-linecap="round" stroke-linejoin="round"/>
<path d="M3.52191 8.37823H6.89134" stroke="white" stroke-width="2" stroke-miterlimit="2.6131" stroke-linecap="round" stroke-linejoin="round"/>
<path d="M31.4239 4.64868H24.9269V4.09351" stroke="white" stroke-width="2" stroke-miterlimit="2.6131" stroke-linecap="round" stroke-linejoin="round"/>
<path d="M24.9271 4.0935C24.9271 2.75126 23.8526 1.6687 22.5349 1.6687" stroke="white" stroke-width="2" stroke-miterlimit="2.6131" stroke-linecap="round" stroke-linejoin="round"/>
<path d="M22.5348 1.6687H18.7205" stroke="white" stroke-width="2" stroke-miterlimit="2.6131" stroke-linecap="round" stroke-linejoin="round"/>
<path d="M18.7203 1.6687C17.3993 1.6687 16.3215 2.75126 16.3215 4.0935" stroke="white" stroke-width="2" stroke-miterlimit="2.6131" stroke-linecap="round" stroke-linejoin="round"/>
<path d="M16.3214 4.09351V4.64868H9.83081" stroke="white" stroke-width="2" stroke-miterlimit="2.6131" stroke-linecap="round" stroke-linejoin="round"/>
<path d="M9.83116 4.64868C8.50846 4.64868 7.43567 5.73601 7.43567 7.07662" stroke="white" stroke-width="2" stroke-miterlimit="2.6131" stroke-linecap="round" stroke-linejoin="round"/>
<path d="M7.43567 7.07666V12.2347H33.8196V7.07666" stroke="white" stroke-width="2" stroke-miterlimit="2.6131" stroke-linecap="round" stroke-linejoin="round"/>
<path d="M33.8194 7.07662C33.8194 5.73601 32.7514 4.64868 31.4238 4.64868" stroke="white" stroke-width="2" stroke-miterlimit="2.6131" stroke-linecap="round" stroke-linejoin="round"/>
<path d="M7.55408 24.4821L9.7192 26.4962" stroke="white" stroke-width="2" stroke-miterlimit="2.6131" stroke-linecap="round" stroke-linejoin="round"/>
<path d="M13.6955 22.1011L9.71899 26.4961" stroke="white" stroke-width="2" stroke-miterlimit="2.6131" stroke-linecap="round" stroke-linejoin="round"/>
<path d="M17.4705 24.7482H33.7007" stroke="white" stroke-width="2" stroke-miterlimit="2.6131" stroke-linecap="round" stroke-linejoin="round"/>
<path d="M17.4705 44.4129H33.7007" stroke="white" stroke-width="2" stroke-miterlimit="2.6131" stroke-linecap="round" stroke-linejoin="round"/>
<path d="M17.4705 34.7234H33.7007" stroke="white" stroke-width="2" stroke-miterlimit="2.6131" stroke-linecap="round" stroke-linejoin="round"/>
</svg>
