<svg width="48" height="54" viewBox="0 0 48 54" fill="none" xmlns="http://www.w3.org/2000/svg">
<path d="M44.9994 20.3607C43.8929 18.0148 42.4322 15.8902 40.6396 14.0311C39.7101 13.0574 38.6921 12.1721 37.6076 11.3754L39.5552 8.78607C39.9314 8.29918 39.8208 7.59098 39.3339 7.23689C38.847 6.86066 38.1388 6.97131 37.7847 7.4582L35.7486 10.1582C34.4429 9.36148 33.0486 8.69754 31.6101 8.18853C30.4371 7.76803 29.1978 7.43607 27.9585 7.19262C27.0732 7.0377 26.188 6.92705 25.2806 6.86066V2.21311H28.3126C28.9322 2.21311 29.4191 1.7041 29.4191 1.10656C29.4191 0.509016 28.9101 0 28.3126 0H20.0134C19.3937 0 18.9068 0.509016 18.9068 1.10656C18.9068 1.7041 19.4158 2.21311 20.0134 2.21311H23.0453V6.79426C19.8363 6.86066 16.6052 7.61311 13.6617 8.98525C11.3158 10.0697 9.16911 11.5303 7.3101 13.323C4.69862 15.8238 2.66256 18.9443 1.42321 22.3303C0.980589 23.5254 0.648622 24.7869 0.405179 26.0484C0.161737 27.3098 0.0289497 28.5934 0.00681856 29.8771C-0.081706 33.5066 0.692884 37.1803 2.2642 40.4779C3.34862 42.8016 4.80928 44.9041 6.6019 46.7631C9.10272 49.3746 12.2453 51.4107 15.6535 52.6279C16.8265 53.0484 18.0437 53.3803 19.283 53.6016C20.5224 53.823 21.7839 53.9557 23.0232 54C23.2224 54 23.4216 54 23.6208 54C27.0511 54 30.4593 53.2475 33.5798 51.7869C35.9035 50.7025 38.0281 49.2639 39.8871 47.4934C42.5429 44.9926 44.5789 41.85 45.8183 38.4197C46.2609 37.2246 46.5929 35.9631 46.8363 34.7016C47.0798 33.418 47.2126 32.1344 47.2347 30.8508C47.3011 27.2877 46.5265 23.6361 44.9994 20.3607ZM44.6453 34.3254C44.424 35.4762 44.1142 36.6049 43.738 37.6893C42.6093 40.7877 40.7503 43.6205 38.3601 45.9C36.6781 47.4934 34.7527 48.7992 32.6503 49.7951C29.6847 51.1893 26.365 51.8754 23.0896 51.7869C21.9609 51.7648 20.8101 51.632 19.6814 51.4328C18.5527 51.2115 17.4462 50.9238 16.3839 50.5475C13.3076 49.441 10.4749 47.6041 8.19534 45.2361C6.57977 43.5541 5.27403 41.6508 4.27813 39.5484C2.86174 36.5607 2.15354 33.241 2.24206 29.9434C2.2642 28.7926 2.39698 27.6197 2.59616 26.4689C2.81747 25.318 3.12731 24.1672 3.50354 23.0828C4.6101 20.0066 6.46911 17.1959 8.83715 14.9385C10.5412 13.323 12.4667 11.9951 14.5912 10.9992C17.4019 9.69344 20.5003 9.00738 23.5765 9.00738C23.7535 9.00738 23.9306 9.00738 24.1298 9.00738C25.2585 9.02951 26.4093 9.1623 27.538 9.36147C28.6667 9.58279 29.7732 9.87049 30.8355 10.2467C33.9117 11.3533 36.7445 13.1902 39.0019 15.5361C40.6175 17.218 41.9453 19.1656 42.9412 21.2902C44.3355 24.2557 45.0437 27.5533 44.9552 30.8287C44.9773 32.0016 44.8445 33.1746 44.6453 34.3254Z" fill="#FCCC53"/>
<path d="M32.3404 21.0246L26.2765 26.5131C25.9445 26.2918 25.5904 26.0926 25.2142 25.9598C24.9707 25.8713 24.7273 25.8049 24.4838 25.7606C24.2404 25.7164 23.9748 25.6942 23.7314 25.6721C23.0232 25.6721 22.2929 25.8049 21.6289 26.1147C21.1642 26.336 20.7437 26.6238 20.3675 26.9779C19.8363 27.4869 19.438 28.1065 19.1945 28.7705C19.106 29.0139 19.0396 29.2574 18.9953 29.5008C18.9511 29.7442 18.9289 30.0098 18.9068 30.2754C18.8847 31.0057 19.0396 31.736 19.3494 32.4C19.5707 32.8647 19.8584 33.2852 20.2125 33.6615C20.7216 34.1926 21.3412 34.591 22.0273 34.8344C22.2707 34.9229 22.5142 34.9893 22.7576 35.0336C23.0011 35.0779 23.2666 35.1 23.5101 35.1221C23.5543 35.1221 23.5986 35.1221 23.6207 35.1221C24.3068 35.1221 24.9929 34.9672 25.6125 34.6795C26.0773 34.4582 26.4978 34.1705 26.874 33.8164C27.4052 33.3074 27.8035 32.6877 28.0691 32.0016C28.1576 31.7582 28.224 31.5147 28.2683 31.2713C28.3125 31.0279 28.3347 30.7623 28.3568 30.4967C28.3789 29.7664 28.224 29.0582 27.9142 28.3942C27.8699 28.3057 27.8257 28.2393 27.7814 28.1729L33.8675 22.6844C34.3322 22.2639 34.3543 21.5779 33.956 21.1131C33.5134 20.6483 32.8052 20.6262 32.3404 21.0246ZM26.0552 30.8508C26.033 30.9836 25.9888 31.1164 25.9445 31.2492C25.8117 31.6033 25.5904 31.9352 25.3248 32.2008C25.1257 32.3779 24.9043 32.5328 24.6609 32.6434C24.3068 32.7983 23.9306 32.8869 23.5543 32.8647C23.4216 32.8647 23.2888 32.8426 23.156 32.8205C23.0232 32.7983 22.8904 32.7541 22.7798 32.7098C22.4257 32.577 22.0937 32.3779 21.8281 32.0901C21.6511 31.891 21.4961 31.6697 21.3634 31.4262C21.2084 31.0721 21.1199 30.6959 21.1199 30.3197C21.1199 30.1869 21.142 30.0541 21.1642 29.9213C21.1863 29.7885 21.2306 29.6557 21.2748 29.5229C21.4076 29.1688 21.6068 28.8369 21.8945 28.5713C22.0937 28.3942 22.315 28.2393 22.5584 28.1065C22.8904 27.9516 23.2445 27.8852 23.5986 27.8852C23.6207 27.8852 23.6429 27.8852 23.665 27.8852C23.7978 27.8852 23.9306 27.9074 24.0634 27.9295C24.1961 27.9516 24.3289 27.9959 24.4396 28.0401C24.7937 28.1729 25.1257 28.3721 25.3912 28.6598C25.4134 28.6819 25.4134 28.6819 25.4355 28.7041C25.4355 28.7041 25.4355 28.7262 25.4576 28.7262C25.4576 28.7262 25.4576 28.7262 25.4798 28.7262C25.6347 28.9033 25.7675 29.1024 25.8781 29.3238C26.033 29.6779 26.1216 30.0541 26.1216 30.4303C26.0994 30.5852 26.0773 30.718 26.0552 30.8508Z" fill="#FCCC53"/>
</svg>
