<svg width="7" height="17" fill="none" xmlns="http://www.w3.org/2000/svg"><path d="M.592 1.265l-.176.2-.147.22-.117.239-.086.253-.05.265L0 2.709l.091 11.66.022.28.059.278.098.267.13.253.164.234.193.209.22.182.243.152.259.12.27.08.28.044.28.008.28-.032.27-.069.257-.108.239-.14.218-.174.19-.2.16-.226.127-.248.093-.263.055-.274.017-.279-.065-8.25-.02-.226-.058-.22-.093-.212-.126-.192-.154-.17-.18-.143-.202-.114-.216-.077-.221-.043-.229-.006-.223.033-.214.07-.198.102-.18.136-.152.163-.121.188-.09.206-.055.218-.016.226.054 6.873.687.015-.054-6.872.018-.165.058-.153.093-.134.122-.107.148-.074.16-.036.166.005.16.043.147.08.125.112.096.138.058.157.024.166.065 8.247-.019.226-.054.218-.088.206-.123.186-.154.165-.178.135-.197.103-.216.069-.222.033-.228-.005-.225-.043-.215-.078-.198-.113-.182-.143-.155-.172-.125-.192-.092-.21-.058-.22-.022-.228-.09-11.66.015-.215.05-.207.08-.197.11-.182.14-.16.682-.673.162-.137.184-.108.2-.078.207-.045.811-.035.217.022.21.055.2.088.184.117.166.143.692.702.14.169.115.186.085.2.05.21.018.217.083 10.285.687.015-.083-10.285-.018-.269-.054-.266-.088-.257-.122-.244-.152-.23-.18-.205-.692-.702-.204-.184L4.357.3 4.115.175 3.86.08 3.594.024 3.324 0 2.46.034l-.266.047-.253.08-.243.115-.223.145-.2.171-.683.673z" fill="#5A5A5A"/></svg>