<svg width="18" height="18" fill="none" xmlns="http://www.w3.org/2000/svg"><path d="M9 1.375A7.625 7.625 0 111.375 9 7.633 7.633 0 019 1.375v0zM9 1a8 8 0 100 16A8 8 0 009 1v0z" fill="#5A5A5A" stroke="#5A5A5A" stroke-width=".3"/><path d="M11.696 8.666a.188.188 0 01-.187-.187V7.354a.187.187 0 11.375 0v1.125a.189.189 0 01-.188.187v0zm-5.392 0a.189.189 0 01-.188-.187V7.354a.188.188 0 01.375 0v1.125a.187.187 0 01-.187.187zM9 12.851c-.116 0-.234 0-.355-.012a5.049 5.049 0 01-2.529-.903.186.186 0 01-.085-.194.188.188 0 01.294-.117c.69.485 1.499.774 2.34.836 1.07.07 2.13-.225 3.011-.836a.185.185 0 01.145-.04.188.188 0 01.068.348c-.849.59-1.856.91-2.89.918v0z" fill="#5A5A5A" stroke="#5A5A5A" stroke-width=".3"/></svg>