<svg width="13" height="8" viewBox="0 0 13 8" fill="none" xmlns="http://www.w3.org/2000/svg">
<path d="M13 0.541718C13 0.434548 12.9713 0.329792 12.9177 0.240698C12.8641 0.151605 12.7878 0.0821751 12.6986 0.0411896C12.6095 0.000204034 12.5113 -0.0104961 12.4167 0.0104425C12.322 0.031381 12.2351 0.0830176 12.1669 0.158822L9.33189 3.30669L6.49692 6.45456L0.826977 0.158822C0.734944 0.0601228 0.61168 0.00550897 0.483735 0.00674349C0.355789 0.00797801 0.233399 0.0649622 0.142925 0.165422C0.0524501 0.265883 0.00113026 0.401781 1.84467e-05 0.543848C-0.00109336 0.685915 0.0480917 0.822783 0.13698 0.924974L6.15208 7.60397C6.24359 7.70555 6.36769 7.76261 6.49708 7.76261C6.62648 7.76261 6.75057 7.70555 6.84208 7.60397L12.8572 0.924974C12.9025 0.874636 12.9384 0.81488 12.9629 0.74912C12.9874 0.68336 13 0.612884 13 0.541718Z" fill="#5A5A5A"/>
</svg>
