<svg width="15" height="18" viewBox="0 0 15 18" fill="none" xmlns="http://www.w3.org/2000/svg">
<path d="M11.1064 1.76133H10.2381C10.0187 0.761966 8.94958 0 7.66573 0H7.33893C6.05509 0 4.98599 0.761966 4.76657 1.76133H3.89823C3.0859 1.76133 2.42764 2.30121 2.42764 2.96745V3.21634H1.8254C0.816993 3.21634 0 3.88641 0 4.71347V16.5029C0 17.3299 0.816993 18 1.8254 18H13.1746C14.183 18 15 17.3299 15 16.5029V4.71347C15 3.88641 14.183 3.21634 13.1746 3.21634H12.5724V2.96745C12.577 2.30121 11.9141 1.76133 11.1064 1.76133ZM3.36134 2.96745C3.36134 2.72623 3.60411 2.52712 3.89823 2.52712H5.19141C5.44818 2.52712 5.65826 2.35482 5.65826 2.14422C5.65826 1.38609 6.4099 0.765795 7.33893 0.765795H7.66573C8.5901 0.765795 9.34641 1.38226 9.34641 2.14422C9.34641 2.35482 9.55649 2.52712 9.81326 2.52712H11.1064C11.4006 2.52712 11.6433 2.72623 11.6433 2.96745V4.42629H3.36134V2.96745ZM13.1793 3.98213C13.6695 3.98213 14.071 4.31142 14.071 4.71347V16.5029C14.071 16.9049 13.6695 17.2342 13.1793 17.2342H1.8254C1.3352 17.2342 0.933707 16.9049 0.933707 16.5029V4.71347C0.933707 4.31142 1.3352 3.98213 1.8254 3.98213H2.42764V4.80919C2.42764 5.01978 2.63772 5.19209 2.89449 5.19209H12.1055C12.3623 5.19209 12.5724 5.01978 12.5724 4.80919V3.98213H13.1793Z" fill="#68C2D0"/>
</svg>
