<svg width="23" height="24" viewBox="0 0 23 24" fill="none" xmlns="http://www.w3.org/2000/svg">
<path d="M8.47009 21.573C6.57175 21.5689 4.67363 21.5605 2.77551 21.5482C1.37774 21.5222 0.227214 19.9433 0.789974 18.5788C1.11419 17.7925 1.9342 17.2443 2.80204 17.2387H4.10826C4.10826 15.0565 4.10174 12.8743 4.10848 10.6921C4.13479 7.92585 5.86352 5.25727 8.4329 4.09537L8.45726 4.0846C8.45726 3.35324 8.42442 2.56132 8.64818 1.96486C9.08591 0.799294 10.2343 -0.00770206 11.5394 5.54454e-05C13.1259 0.0293616 14.5352 1.38973 14.5459 3.01535V4.0846C14.5961 4.10701 14.6463 4.12985 14.6961 4.15334C17.1951 5.34002 18.8864 7.96766 18.8949 10.7367V17.2387C19.639 17.2387 20.4172 17.1355 21.0704 17.4187C22.3249 17.9626 22.7696 19.8207 21.7915 20.8617C21.3923 21.2862 20.8189 21.5373 20.2276 21.5482C18.3428 21.5605 16.4577 21.5687 14.5728 21.573C14.5463 21.8738 14.4117 22.2107 14.2945 22.4593C13.8707 23.3592 12.9195 23.9776 11.8923 23.997C11.3189 24.0007 10.7435 24.025 10.2212 23.8354C9.27096 23.4909 8.57186 22.5826 8.47009 21.573ZM13.6239 21.764H9.37925C9.57321 22.5304 10.3045 23.1196 11.1219 23.1351C11.5814 23.1381 12.0378 23.1816 12.462 23.0336C13.0298 22.8353 13.4769 22.3449 13.6239 21.764ZM11.4746 0.862C10.3447 0.882903 9.33424 1.85151 9.32706 3.01794V4.3699C9.30314 4.72868 9.1805 4.71037 8.82845 4.86423C6.5724 5.86624 5.0022 8.18853 4.97806 10.6974V17.6697C4.97806 17.6697 4.88717 18.0783 4.54316 18.1007C3.35893 18.1007 1.96942 17.9281 1.58345 18.9342C1.29141 19.6957 1.90854 20.6589 2.76964 20.6861C8.5899 20.7951 14.4132 20.7953 20.2335 20.6861C21.2159 20.6553 21.9028 19.2904 21.1439 18.5017C20.9011 18.2489 20.5551 18.1031 20.198 18.1007H18.46C18.2247 18.0854 18.0457 17.9832 18.0251 17.6697C18.0251 15.3455 18.032 13.0215 18.0248 10.6972C18.0018 8.17302 16.3777 5.74255 13.9481 4.76941C13.9481 4.76941 13.6958 4.66706 13.6761 4.3699C13.6761 3.38427 13.762 2.33291 13.1666 1.63064C12.7484 1.13761 12.168 0.857906 11.4746 0.862Z" fill="#2F2F2F"/>
</svg>
