<svg width="24" height="22" viewBox="0 0 24 22" fill="none" xmlns="http://www.w3.org/2000/svg">
<path d="M4 22H20V20.1667H24V14.6667C24 11.9928 22.0685 9.72538 19.4175 8.97371C20.6675 8.23992 21.5 6.95842 21.5 5.5C21.5 3.22575 19.4815 1.375 17 1.375C16.5725 1.375 16.1485 1.43367 15.7345 1.54596C14.818 0.600417 13.4855 0 12 0C10.5145 0 9.182 0.600417 8.2655 1.54596C7.8515 1.43367 7.4275 1.375 7 1.375C4.5185 1.375 2.5 3.22575 2.5 5.5C2.5 6.95842 3.3325 8.23992 4.5825 8.97371C1.9315 9.72538 0 11.9928 0 14.6667V20.1667H4V22ZM19 21.0833H5V20.1667V14.2083C5 14.0553 5.0105 13.904 5.025 13.7541C5.03 13.7051 5.0365 13.6565 5.0425 13.6075C5.056 13.5039 5.0735 13.4017 5.094 13.3004C5.1045 13.249 5.113 13.1973 5.125 13.1464C5.156 13.0148 5.1925 12.8856 5.234 12.7577C5.255 12.6945 5.28 12.633 5.3035 12.5707C5.3305 12.4983 5.359 12.4268 5.3895 12.3558C5.419 12.2875 5.45 12.2196 5.4825 12.1527C5.5145 12.0872 5.5495 12.023 5.5845 11.9588C5.6355 11.8653 5.6895 11.7737 5.7465 11.6834C5.7965 11.605 5.8465 11.5266 5.9005 11.451C5.9425 11.3923 5.9875 11.3355 6.032 11.2782C6.079 11.2177 6.1275 11.1581 6.1775 11.0999C6.2235 11.0463 6.2695 10.9931 6.318 10.9413C6.381 10.874 6.4465 10.8089 6.513 10.7447C6.5745 10.6851 6.6375 10.6265 6.702 10.5696C6.7815 10.5 6.862 10.4317 6.946 10.3661C7.001 10.3235 7.058 10.2827 7.115 10.2419C7.1805 10.1952 7.2465 10.1493 7.3145 10.1053C7.3775 10.0641 7.4405 10.0233 7.506 9.98433C7.572 9.94492 7.64 9.90871 7.7075 9.87204C7.835 9.80283 7.966 9.73821 8.1005 9.67817C8.168 9.64792 8.2345 9.61629 8.3035 9.58833L8.384 9.55533C9.036 9.30554 9.7505 9.16667 10.5 9.16667H13.5C14.2495 9.16667 14.964 9.30554 15.6155 9.55579L15.696 9.58879C15.765 9.61629 15.8315 9.64838 15.899 9.67863C16.0335 9.73867 16.1645 9.80329 16.292 9.8725C16.36 9.90917 16.428 9.94538 16.4935 9.98479C16.5585 10.0238 16.622 10.0645 16.685 10.1058C16.7525 10.1498 16.819 10.1956 16.8845 10.2424C16.9415 10.2832 16.9985 10.324 17.0535 10.3666C17.1375 10.4317 17.218 10.5004 17.2975 10.5701C17.3625 10.6269 17.425 10.6856 17.4865 10.7452C17.553 10.8093 17.619 10.8744 17.6815 10.9418C17.7295 10.9936 17.776 11.0468 17.822 11.1004C17.872 11.1586 17.9205 11.2182 17.9675 11.2787C18.012 11.336 18.0575 11.3923 18.099 11.4515C18.153 11.5271 18.2035 11.6055 18.253 11.6838C18.31 11.7741 18.364 11.8663 18.415 11.9593C18.45 12.0235 18.485 12.0876 18.517 12.1532C18.55 12.2201 18.5805 12.2879 18.61 12.3562C18.6405 12.4268 18.6685 12.4988 18.696 12.5712C18.7195 12.6335 18.7445 12.6954 18.7655 12.7582C18.8075 12.8856 18.844 13.0153 18.8745 13.1468C18.8865 13.1977 18.8955 13.2495 18.9055 13.3008C18.9255 13.4021 18.9435 13.5048 18.957 13.6079C18.9635 13.6565 18.97 13.7055 18.9745 13.7546C18.9895 13.904 19 14.0553 19 14.2083V20.1667V21.0833ZM23 14.6667V19.25H20V14.2083C20 13.9906 19.9855 13.7761 19.9605 13.5644C19.9545 13.5144 19.943 13.4658 19.936 13.4163C19.912 13.2527 19.884 13.09 19.846 12.931C19.8335 12.8787 19.8165 12.8283 19.8025 12.7765C19.7605 12.6211 19.714 12.4676 19.659 12.3173C19.6405 12.2664 19.619 12.2169 19.599 12.1669C19.54 12.0189 19.4755 11.8731 19.4045 11.731C19.3795 11.6811 19.353 11.6316 19.326 11.5825C19.2515 11.4437 19.1715 11.3085 19.0855 11.176C19.054 11.1274 19.0225 11.0788 18.989 11.0307C18.899 10.901 18.8035 10.7754 18.7035 10.6526C18.667 10.6077 18.632 10.5623 18.594 10.5183C18.4845 10.3913 18.368 10.2699 18.2475 10.1516C18.2135 10.1182 18.182 10.0829 18.147 10.0503C17.989 9.90183 17.824 9.75975 17.65 9.62729C20.6135 9.70017 23 11.9327 23 14.6667ZM16.3615 2.34712C16.5725 2.31046 16.7855 2.29167 17 2.29167C18.9295 2.29167 20.5 3.73083 20.5 5.5C20.5 7.26917 18.9295 8.70833 17 8.70833C16.3135 8.70833 15.653 8.525 15.087 8.184C15.0945 8.17896 15.1005 8.17254 15.1075 8.16704C15.538 7.85308 15.909 7.47542 16.207 7.04963C16.2165 7.03588 16.225 7.02213 16.2345 7.00838C16.321 6.88188 16.4005 6.75171 16.4735 6.61742C16.4855 6.59542 16.4965 6.57342 16.508 6.55142C16.5745 6.42446 16.634 6.29429 16.6875 6.16092C16.6985 6.13342 16.71 6.10592 16.7205 6.07842C16.769 5.95054 16.8105 5.81992 16.8465 5.687C16.8555 5.654 16.866 5.62146 16.874 5.58846C16.906 5.45875 16.93 5.32675 16.9495 5.19292C16.955 5.15763 16.963 5.12279 16.967 5.08704C16.988 4.92204 17 4.75383 17 4.58333C17 4.40183 16.9855 4.224 16.963 4.048C16.956 3.99208 16.9445 3.93708 16.935 3.88117C16.914 3.75833 16.889 3.63687 16.858 3.51725C16.843 3.45904 16.827 3.40129 16.8095 3.344C16.769 3.21154 16.7215 3.08183 16.6685 2.95488C16.6535 2.91958 16.6415 2.88338 16.626 2.84854C16.55 2.67896 16.4635 2.51487 16.3665 2.35583C16.364 2.35262 16.363 2.34987 16.3615 2.34712ZM15.0815 2.24813L15.112 2.28433C15.1365 2.31229 15.1585 2.34163 15.182 2.37004C15.437 2.67758 15.632 3.01262 15.769 3.366C15.778 3.38892 15.788 3.41138 15.7965 3.43475C15.856 3.59929 15.901 3.7675 15.9345 3.93892C15.9415 3.97467 15.947 4.01133 15.9525 4.04754C15.9805 4.224 16 4.40229 16 4.58333C16 4.73367 15.9875 4.88217 15.9675 5.02929C15.963 5.06367 15.956 5.09758 15.9505 5.13196C15.93 5.25342 15.9045 5.3735 15.871 5.49129C15.864 5.51604 15.8575 5.54125 15.85 5.566C15.7595 5.86117 15.6305 6.14442 15.4645 6.40842C15.4615 6.413 15.4585 6.41758 15.4555 6.42217C15.375 6.54913 15.285 6.6715 15.188 6.78883C15.179 6.79938 15.1705 6.81038 15.1615 6.82138C14.958 7.06292 14.721 7.28154 14.4545 7.47221C14.439 7.48321 14.4225 7.49375 14.407 7.50475C14.2835 7.59046 14.1545 7.67021 14.0195 7.74308C13.9955 7.75592 13.973 7.77012 13.9485 7.7825L13.8915 7.81275C13.3275 8.09142 12.684 8.25 12 8.25C11.316 8.25 10.6725 8.09142 10.109 7.81275L10.052 7.7825C10.028 7.77012 10.005 7.75592 9.981 7.74308C9.846 7.67021 9.717 7.59046 9.5935 7.50475C9.5775 7.49375 9.5615 7.48321 9.546 7.47221C9.28 7.28154 9.043 7.06292 8.839 6.82138C8.83 6.81083 8.8215 6.79983 8.8125 6.78883C8.7155 6.6715 8.626 6.54913 8.545 6.42217C8.542 6.41758 8.539 6.413 8.536 6.40842C8.3695 6.14396 8.2405 5.86071 8.15 5.56554C8.1425 5.54125 8.136 5.51604 8.129 5.49175C8.0955 5.3735 8.07 5.25342 8.0495 5.13196C8.044 5.09758 8.037 5.06412 8.0325 5.02929C8.0125 4.88217 8 4.73367 8 4.58333C8 4.40229 8.0195 4.224 8.0475 4.048C8.0535 4.01179 8.0585 3.97558 8.0655 3.93938C8.099 3.76842 8.144 3.59975 8.2035 3.43521C8.212 3.41183 8.222 3.38938 8.231 3.36646C8.368 3.01308 8.563 2.67758 8.818 2.3705C8.8415 2.34208 8.8635 2.31229 8.888 2.28479L8.9185 2.24858C9.653 1.4355 10.7615 0.916667 12 0.916667C13.2385 0.916667 14.347 1.4355 15.0815 2.24813ZM3.5 5.5C3.5 3.73083 5.0705 2.29167 7 2.29167C7.2145 2.29167 7.4275 2.31046 7.6385 2.34712C7.637 2.34987 7.6355 2.35308 7.634 2.35583C7.5375 2.51442 7.4505 2.6785 7.3745 2.84808C7.3585 2.88338 7.3465 2.91958 7.3315 2.95533C7.2785 3.08229 7.231 3.212 7.1905 3.344C7.173 3.40129 7.157 3.45904 7.142 3.51725C7.111 3.63687 7.086 3.75833 7.065 3.88117C7.0555 3.93663 7.0445 3.99162 7.037 4.048C7.0145 4.224 7 4.40183 7 4.58333C7 4.75383 7.012 4.92204 7.032 5.0875C7.0365 5.12325 7.0445 5.15763 7.0495 5.19292C7.069 5.32675 7.0935 5.45921 7.125 5.58892C7.133 5.62192 7.1435 5.654 7.1525 5.68654C7.1885 5.81946 7.23 5.95054 7.2785 6.07887C7.289 6.10683 7.3005 6.13388 7.3115 6.16183C7.365 6.29475 7.425 6.42492 7.491 6.55188C7.5025 6.57388 7.514 6.59633 7.526 6.61833C7.599 6.75262 7.6785 6.88279 7.765 7.00929C7.7745 7.02304 7.783 7.03679 7.7925 7.05054C8.0905 7.47633 8.462 7.85354 8.892 8.16796C8.899 8.17346 8.9055 8.17942 8.9125 8.18492C8.347 8.525 7.6865 8.70833 7 8.70833C5.0705 8.70833 3.5 7.26917 3.5 5.5ZM1 19.25V14.6667C1 11.9327 3.3865 9.70017 6.3505 9.62683C6.1765 9.75929 6.0115 9.90183 5.8535 10.0499C5.8185 10.0824 5.787 10.1177 5.753 10.1512C5.6325 10.2694 5.516 10.3909 5.406 10.5183C5.3685 10.5618 5.3335 10.6072 5.297 10.6521C5.1965 10.775 5.101 10.9005 5.011 11.0307C4.978 11.0788 4.9465 11.127 4.9145 11.176C4.8285 11.3085 4.7485 11.4437 4.674 11.5825C4.6475 11.632 4.621 11.6811 4.5955 11.731C4.524 11.8731 4.46 12.0189 4.401 12.1669C4.381 12.2173 4.3595 12.2664 4.341 12.3173C4.286 12.468 4.2395 12.6216 4.197 12.7774C4.183 12.8288 4.1665 12.8792 4.154 12.931C4.116 13.0905 4.088 13.2532 4.064 13.4173C4.0565 13.4668 4.0455 13.5149 4.0395 13.5648C4.0145 13.7761 4 13.9906 4 14.2083V19.25H1Z" fill="white"/>
</svg>
