<svg width="24" height="24" viewBox="0 0 24 24" fill="none" xmlns="http://www.w3.org/2000/svg">
<path d="M12.5582 11.5385L22.8656 1.23103C23.1473 0.949331 23.1473 0.492976 22.8656 0.211276C22.5839 -0.0704252 22.1276 -0.0704252 21.8459 0.211276L11.5385 10.5187L1.23103 0.211276C0.949331 -0.0704251 0.492976 -0.0704251 0.211276 0.211276C-0.0704252 0.492977 -0.0704252 0.949331 0.211276 1.23103L10.5187 11.5385L0.211276 21.8459C-0.0704251 22.1276 -0.0704251 22.5839 0.211276 22.8656C0.352126 23.0065 0.536171 23.0769 0.721154 23.0769C0.906137 23.0769 1.09018 23.0065 1.23103 22.8656L11.5385 12.5582L21.8459 22.8656C21.9867 23.0065 22.1708 23.0769 22.3558 23.0769C22.5408 23.0769 22.7248 23.0065 22.8656 22.8656C23.1473 22.5839 23.1473 22.1276 22.8656 21.8459L12.5582 11.5385Z" fill="white"/>
</svg>
