<svg width="18" height="18" viewBox="0 0 18 18" fill="none" xmlns="http://www.w3.org/2000/svg">
<path d="M9.79541 9L17.8352 0.960205C18.0549 0.740479 18.0549 0.384522 17.8352 0.164795C17.6155 -0.0549317 17.2595 -0.0549317 17.0398 0.164795L9 8.20459L0.960205 0.164795C0.740479 -0.0549316 0.384522 -0.0549316 0.164795 0.164795C-0.0549317 0.384522 -0.0549317 0.740479 0.164795 0.960205L8.20459 9L0.164795 17.0398C-0.0549316 17.2595 -0.0549316 17.6155 0.164795 17.8352C0.274658 17.9451 0.418213 18 0.5625 18C0.706787 18 0.850342 17.9451 0.960205 17.8352L9 9.79541L17.0398 17.8352C17.1497 17.9451 17.2932 18 17.4375 18C17.5818 18 17.7253 17.9451 17.8352 17.8352C18.0549 17.6155 18.0549 17.2595 17.8352 17.0398L9.79541 9Z" fill="white"/>
</svg>
