<svg width="16" height="18" viewBox="0 0 16 18" fill="none" xmlns="http://www.w3.org/2000/svg">
<path d="M4.98119 0.851654H10.8555C11.0894 0.851654 11.2813 0.659683 11.2813 0.425827C11.2813 0.191971 11.0894 0 10.8555 0H4.98119C4.74733 0 4.55536 0.191971 4.55536 0.425827C4.55536 0.659683 4.74384 0.851654 4.98119 0.851654Z" fill="#68C2D0"/>
<path d="M15.4066 1.79773H14.3385H1.4904H0.425827C0.191971 1.79773 0 1.9897 0 2.22356C0 2.45741 0.191971 2.64938 0.425827 2.64938H1.10645L1.42757 6.05251C1.42757 6.056 1.42757 6.06298 1.42757 6.06647L2.5061 17.487C2.52704 17.7069 2.70854 17.871 2.92843 17.871H12.9005C13.1204 17.871 13.3019 17.7034 13.3228 17.487L14.7225 2.64938H15.4031C15.6369 2.64938 15.8289 2.45741 15.8289 2.22356C15.8324 1.9897 15.6439 1.79773 15.4066 1.79773ZM12.5165 17.0193H3.31587L2.31762 6.44344H13.5148L12.5165 17.0193ZM13.5951 5.59178H2.23734L1.95811 2.64938H13.8708L13.5951 5.59178Z" fill="#68C2D0"/>
</svg>
