<svg width="24" height="24" viewBox="0 0 24 24" fill="none" xmlns="http://www.w3.org/2000/svg">
<path d="M14.4551 0H10.3191C9.79885 0 9.37574 0.428326 9.37574 0.954965V11.1472H7.91269C7.57152 11.1472 7.26601 11.3257 7.09556 11.6247C6.9251 11.9237 6.9251 12.2809 7.09556 12.5797L11.5699 20.4257C11.7406 20.7245 12.0459 20.9032 12.3871 20.9032C12.7282 20.9032 13.0335 20.7248 13.2042 20.4257L17.6786 12.5799C17.849 12.2809 17.849 11.9237 17.6786 11.625C17.5081 11.3262 17.2026 11.1475 16.8614 11.1475H15.3984V0.954965C15.3987 0.428326 14.9753 0 14.4551 0ZM16.7436 12.1716L12.3871 19.8103L8.03054 12.1716H9.88129C10.1605 12.1716 10.3871 11.9422 10.3871 11.6595V1.02409H14.3868V11.6595C14.3868 11.9422 14.6134 12.1716 14.8926 12.1716H16.7436Z" fill="#68C2D0"/>
<path d="M4.66205 12.6239C4.9463 12.6239 5.17699 12.3974 5.17699 12.1183C5.17699 11.8392 4.9463 11.6127 4.66205 11.6127H0.514944C0.230695 11.6127 0 11.8392 0 12.1183V23.4942C0 23.7733 0.230695 23.9998 0.514944 23.9998H23.4851C23.7693 23.9998 24 23.7733 24 23.4942V12.1183C24 11.8392 23.7693 11.6127 23.4851 11.6127H19.338C19.0537 11.6127 18.823 11.8392 18.823 12.1183C18.823 12.3974 19.0537 12.6239 19.338 12.6239H22.9701V22.9886H1.02989V12.6239H4.66205Z" fill="#68C2D0"/>
</svg>
