<svg width="23" height="23" viewBox="0 0 23 23" fill="none" xmlns="http://www.w3.org/2000/svg">
<path d="M17.0104 0C14.4592 0 12.3521 2.49104 11.5 3.66672C10.6479 2.49104 8.54077 0 5.98957 0C2.68691 0 0 3.19203 0 7.11504C0 9.25535 0.808145 11.25 2.22269 12.6151C2.24326 12.6525 2.26855 12.6869 2.29802 12.7179L11.1617 22.0165C11.2553 22.1144 11.3774 22.1636 11.5 22.1636C11.6226 22.1636 11.7452 22.1144 11.8388 22.0161L20.9972 12.3918L21.0918 12.2954C21.1666 12.2211 21.2406 12.1458 21.3234 12.0494C21.358 12.0135 21.3865 11.9732 21.4086 11.9294C22.4357 10.6071 23 8.90165 23 7.11504C23 3.19203 20.3131 0 17.0104 0ZM20.6112 11.3627C20.5981 11.3789 20.5859 11.3961 20.5752 11.4138C20.5302 11.468 20.4811 11.5157 20.4324 11.5644L11.4996 20.9481L3.08465 12.1197C3.05752 12.0636 3.0196 12.0125 2.97329 11.9697C1.69252 10.794 0.958318 9.02462 0.958318 7.11504C0.958318 3.74738 3.21519 1.00747 5.98957 1.00747C8.73263 1.00747 11.0737 4.76864 11.0971 4.80651C11.274 5.09377 11.726 5.09377 11.9029 4.80651C11.9263 4.76864 14.2674 1.00747 17.0104 1.00747C19.7848 1.00747 22.0417 3.74743 22.0417 7.11504C22.0417 8.70194 21.5335 10.2106 20.6112 11.3627Z" fill="#2F2F2F"/>
</svg>
