<svg width="18" height="18" viewBox="0 0 18 18" fill="none" xmlns="http://www.w3.org/2000/svg">
<path d="M13.3124 0.654785C11.3158 0.654785 9.66679 2.60428 8.99992 3.52437C8.33304 2.60428 6.68402 0.654785 4.68744 0.654785C2.10278 0.654785 0 3.15287 0 6.22302C0 7.89804 0.632455 9.45907 1.73948 10.5274C1.75558 10.5567 1.77537 10.5836 1.79844 10.6079L8.73516 17.885C8.80839 17.9616 8.90398 18.0001 8.99992 18.0001C9.09586 18.0001 9.1918 17.9616 9.26506 17.8846L16.4325 10.3526L16.5064 10.2772C16.5651 10.219 16.6229 10.1601 16.6877 10.0847C16.7148 10.0566 16.7371 10.025 16.7544 9.99074C17.5582 8.95594 17.9998 7.62123 17.9998 6.22302C17.9998 3.15287 15.8971 0.654785 13.3124 0.654785ZM16.1303 9.54725C16.1201 9.55997 16.1106 9.57342 16.1022 9.58728C16.067 9.62963 16.0285 9.66696 15.9905 9.7051L8.99957 17.0488L2.41405 10.1397C2.39282 10.0958 2.36315 10.0558 2.3269 10.0223C1.32457 9.10221 0.749981 7.71746 0.749981 6.22302C0.749981 3.58749 2.51621 1.44323 4.68744 1.44323C6.83417 1.44323 8.66629 4.38673 8.6846 4.41637C8.82305 4.64118 9.17679 4.64118 9.31523 4.41637C9.33355 4.38673 11.1657 1.44323 13.3124 1.44323C15.4836 1.44323 17.2499 3.58753 17.2499 6.22302C17.2499 7.46493 16.8521 8.64565 16.1303 9.54725Z" fill="#68C2D0"/>
</svg>
