<svg width="42" height="43" viewBox="0 0 42 43" fill="none" xmlns="http://www.w3.org/2000/svg">
<path d="M22.0211 38.7553H18.0172C17.083 38.7553 16.0153 37.9352 16.0153 36.2949V33.4243C16.0153 32.0574 15.348 30.8272 14.2803 29.8703C11.878 27.9567 10.6769 25.2228 10.6769 22.2156C10.8103 17.0213 14.9476 12.9205 19.8857 12.7838C22.4215 12.7838 24.8238 13.7407 26.5588 15.5177C28.2938 17.2947 29.3615 19.7551 29.3615 22.3523C29.3615 25.2228 28.1603 27.9567 25.8915 29.7337C24.6903 30.6905 24.023 32.1941 24.023 33.561V36.705C24.023 37.7985 23.0888 38.7553 22.0211 38.7553ZM20.0192 14.1507C15.7484 14.1507 12.145 17.8414 12.0115 22.2156C12.0115 24.8127 13.0792 27.2732 15.0811 28.7768C16.5492 30.007 17.3499 31.6473 17.3499 33.4243V36.2949C17.3499 36.5683 17.3499 37.3884 18.0172 37.3884H22.0211C22.4215 37.3884 22.6884 37.115 22.6884 36.705V33.561C22.6884 31.784 23.6226 29.8703 25.0907 28.6401C26.9592 27.1365 28.0268 24.8127 28.0268 22.3523C28.0268 20.1652 27.2261 18.1148 25.6245 16.4745C24.1565 14.9709 22.1545 14.1507 20.0192 14.1507Z" fill="#FFFEFC"/>
<path d="M23.3557 34.6546H16.6827C16.2823 34.6546 16.0154 34.3813 16.0154 33.9712C16.0154 33.5611 16.2823 33.2877 16.6827 33.2877H23.3557C23.7561 33.2877 24.0231 33.5611 24.0231 33.9712C24.0231 34.3813 23.7561 34.6546 23.3557 34.6546Z" fill="#FFFEFC"/>
<path d="M20.0187 10.05C19.6184 10.05 19.3514 9.7766 19.3514 9.36652V6.63268C19.3514 6.2226 19.6184 5.94922 20.0187 5.94922C20.4191 5.94922 20.686 6.2226 20.686 6.63268V9.36652C20.686 9.7766 20.4191 10.05 20.0187 10.05Z" fill="#FFFEFC"/>
<path d="M28.9609 13.8774C28.8274 13.8774 28.5605 13.8774 28.4271 13.7407C28.1601 13.4673 28.1601 13.0573 28.4271 12.7839L30.2955 10.8702C30.5624 10.5968 30.9628 10.5968 31.2297 10.8702C31.4967 11.1436 31.4967 11.5537 31.2297 11.827L29.3613 13.7407C29.3613 13.7407 29.0944 13.8774 28.9609 13.8774Z" fill="#FFFEFC"/>
<path d="M35.3672 23.0357H32.698C32.2976 23.0357 32.0307 22.7624 32.0307 22.3523C32.0307 21.9422 32.2976 21.6688 32.698 21.6688H35.3672C35.7676 21.6688 36.0345 21.9422 36.0345 22.3523C36.0345 22.7624 35.7676 23.0357 35.3672 23.0357Z" fill="#FFFEFC"/>
<path d="M30.8294 34.1078C30.6959 34.1078 30.429 34.1078 30.2955 33.9711L28.4271 32.0574C28.1601 31.784 28.1601 31.3739 28.4271 31.1005C28.694 30.8272 29.0944 30.8272 29.3613 31.1005L31.2297 33.0142C31.4967 33.2876 31.4967 33.6977 31.2297 33.9711C31.2297 34.1078 31.0963 34.1078 30.8294 34.1078Z" fill="#FFFEFC"/>
<path d="M9.20852 34.1078C9.07506 34.1078 8.80814 34.1078 8.67468 33.9711C8.40776 33.6977 8.40776 33.2876 8.67468 33.0142L10.5431 31.1005C10.8101 30.8272 11.2104 30.8272 11.4774 31.1005C11.7443 31.3739 11.7443 31.784 11.4774 32.0574L9.60891 33.9711C9.47545 34.1078 9.34199 34.1078 9.20852 34.1078Z" fill="#FFFEFC"/>
<path d="M7.34038 23.0357H4.67115C4.27077 23.0357 4.00385 22.7624 4.00385 22.3523C4.00385 21.9422 4.27077 21.6688 4.67115 21.6688H7.34038C7.74076 21.6688 8.00768 21.9422 8.00768 22.3523C8.00768 22.7624 7.74076 23.0357 7.34038 23.0357Z" fill="#FFFEFC"/>
<path d="M11.077 13.8774C10.9435 13.8774 10.6766 13.8774 10.5431 13.7407L8.67468 11.6903C8.40776 11.4169 8.40776 11.0069 8.67468 10.7335C8.9416 10.4601 9.34198 10.4601 9.60891 10.7335L11.4774 12.6472C11.7443 12.9206 11.7443 13.3306 11.4774 13.604C11.3439 13.7407 11.2104 13.8774 11.077 13.8774Z" fill="#FFFEFC"/>
<path d="M25.3572 23.0358C24.9568 23.0358 24.6899 22.7624 24.6899 22.3523C24.6899 19.7552 22.5545 17.5681 20.0187 17.5681C19.6184 17.5681 19.3514 17.2947 19.3514 16.8846C19.3514 16.4746 19.6184 16.2012 20.0187 16.2012C23.3553 16.2012 26.0245 18.935 26.0245 22.3523C26.0245 22.7624 25.7576 23.0358 25.3572 23.0358Z" fill="#FFFEFC"/>
</svg>
