<svg width="21" height="21" viewBox="0 0 21 21" fill="none" xmlns="http://www.w3.org/2000/svg">
<path d="M11.812 20.9995H9.18701C8.57451 20.9995 7.87451 20.4745 7.87451 19.4245V17.587C7.87451 16.712 7.43701 15.9245 6.73701 15.312C5.16201 14.087 4.37451 12.337 4.37451 10.412C4.46201 7.08701 7.17451 4.46201 10.412 4.37451C12.0745 4.37451 13.6495 4.98701 14.787 6.12451C15.9245 7.26201 16.6245 8.83701 16.6245 10.4995C16.6245 12.337 15.837 14.087 14.3495 15.2245C13.562 15.837 13.1245 16.7995 13.1245 17.6745V19.687C13.1245 20.387 12.512 20.9995 11.812 20.9995ZM10.4995 5.24951C7.69951 5.24951 5.33701 7.61201 5.24951 10.412C5.24951 12.0745 5.94951 13.6495 7.26201 14.612C8.22451 15.3995 8.74951 16.4495 8.74951 17.587V19.4245C8.74951 19.5995 8.74951 20.1245 9.18701 20.1245H11.812C12.0745 20.1245 12.2495 19.9495 12.2495 19.687V17.6745C12.2495 16.537 12.862 15.312 13.8245 14.5245C15.0495 13.562 15.7495 12.0745 15.7495 10.4995C15.7495 9.09951 15.2245 7.78701 14.1745 6.73701C13.212 5.77451 11.8995 5.24951 10.4995 5.24951Z" fill="#0E80A4"/>
<path d="M12.6875 18.3745H8.3125C8.05 18.3745 7.875 18.1995 7.875 17.937C7.875 17.6745 8.05 17.4995 8.3125 17.4995H12.6875C12.95 17.4995 13.125 17.6745 13.125 17.937C13.125 18.1995 12.95 18.3745 12.6875 18.3745Z" fill="#0E80A4"/>
<path d="M10.5005 2.625C10.238 2.625 10.063 2.45 10.063 2.1875V0.4375C10.063 0.175 10.238 0 10.5005 0C10.763 0 10.938 0.175 10.938 0.4375V2.1875C10.938 2.45 10.763 2.625 10.5005 2.625Z" fill="#0E80A4"/>
<path d="M16.3621 5.07554C16.2746 5.07554 16.0996 5.07554 16.0121 4.98804C15.8371 4.81304 15.8371 4.55054 16.0121 4.37554L17.2371 3.15054C17.4121 2.97554 17.6746 2.97554 17.8496 3.15054C18.0246 3.32554 18.0246 3.58804 17.8496 3.76304L16.6246 4.98804C16.6246 4.98804 16.4496 5.07554 16.3621 5.07554Z" fill="#0E80A4"/>
<path d="M20.5625 10.938H18.8125C18.55 10.938 18.375 10.763 18.375 10.5005C18.375 10.238 18.55 10.063 18.8125 10.063H20.5625C20.825 10.063 21 10.238 21 10.5005C21 10.763 20.825 10.938 20.5625 10.938Z" fill="#0E80A4"/>
<path d="M17.5871 18.0255C17.4996 18.0255 17.3246 18.0255 17.2371 17.938L16.0121 16.713C15.8371 16.538 15.8371 16.2755 16.0121 16.1005C16.1871 15.9255 16.4496 15.9255 16.6246 16.1005L17.8496 17.3255C18.0246 17.5005 18.0246 17.763 17.8496 17.938C17.8496 18.0255 17.7621 18.0255 17.5871 18.0255Z" fill="#0E80A4"/>
<path d="M3.4124 18.0255C3.3249 18.0255 3.1499 18.0255 3.0624 17.938C2.8874 17.763 2.8874 17.5005 3.0624 17.3255L4.2874 16.1005C4.4624 15.9255 4.7249 15.9255 4.8999 16.1005C5.0749 16.2755 5.0749 16.538 4.8999 16.713L3.6749 17.938C3.5874 18.0255 3.4999 18.0255 3.4124 18.0255Z" fill="#0E80A4"/>
<path d="M2.1875 10.938H0.4375C0.175 10.938 0 10.763 0 10.5005C0 10.238 0.175 10.063 0.4375 10.063H2.1875C2.45 10.063 2.625 10.238 2.625 10.5005C2.625 10.763 2.45 10.938 2.1875 10.938Z" fill="#0E80A4"/>
<path d="M4.6374 5.0749C4.5499 5.0749 4.3749 5.0749 4.2874 4.9874L3.0624 3.6749C2.8874 3.4999 2.8874 3.2374 3.0624 3.0624C3.2374 2.8874 3.4999 2.8874 3.6749 3.0624L4.8999 4.2874C5.0749 4.4624 5.0749 4.7249 4.8999 4.8999C4.8124 4.9874 4.7249 5.0749 4.6374 5.0749Z" fill="#0E80A4"/>
<path d="M14.0005 10.9375C13.738 10.9375 13.563 10.7625 13.563 10.5C13.563 8.8375 12.163 7.4375 10.5005 7.4375C10.238 7.4375 10.063 7.2625 10.063 7C10.063 6.7375 10.238 6.5625 10.5005 6.5625C12.688 6.5625 14.438 8.3125 14.438 10.5C14.438 10.7625 14.263 10.9375 14.0005 10.9375Z" fill="#0E80A4"/>
</svg>
