<svg width="13" height="13" viewBox="0 0 13 13" fill="none" xmlns="http://www.w3.org/2000/svg">
<path d="M7.31254 13H5.68754C5.30837 13 4.87504 12.675 4.87504 12.025V10.8875C4.87504 10.3459 4.60421 9.85838 4.17087 9.47921C3.19587 8.72087 2.70837 7.63754 2.70837 6.44587C2.76254 4.38754 4.44171 2.76254 6.44587 2.70837C7.47504 2.70837 8.45004 3.08754 9.15421 3.79171C9.85837 4.49587 10.2917 5.47087 10.2917 6.50004C10.2917 7.63754 9.80421 8.72087 8.88337 9.42504C8.39587 9.80421 8.12504 10.4 8.12504 10.9417V12.1875C8.12504 12.6209 7.74587 13 7.31254 13V13ZM6.50004 3.25004C4.76671 3.25004 3.30421 4.71254 3.25004 6.44587C3.25004 7.47504 3.68337 8.45004 4.49587 9.04588C5.09171 9.53338 5.41671 10.1834 5.41671 10.8875V12.025C5.41671 12.1334 5.41671 12.4584 5.68754 12.4584H7.31254C7.47504 12.4584 7.58337 12.35 7.58337 12.1875V10.9417C7.58337 10.2375 7.96254 9.47921 8.55837 8.99171C9.31671 8.39588 9.75004 7.47504 9.75004 6.50004C9.75004 5.63337 9.42504 4.82087 8.77504 4.17087C8.17921 3.57504 7.36671 3.25004 6.50004 3.25004V3.25004Z" fill="#68C2D0"/>
<path d="M7.85417 11.375H5.14583C4.98333 11.375 4.875 11.2667 4.875 11.1042C4.875 10.9417 4.98333 10.8334 5.14583 10.8334H7.85417C8.01667 10.8334 8.125 10.9417 8.125 11.1042C8.125 11.2667 8.01667 11.375 7.85417 11.375Z" fill="#68C2D0"/>
<path d="M6.49984 1.625C6.33734 1.625 6.229 1.51667 6.229 1.35417V0.270833C6.229 0.108333 6.33734 0 6.49984 0C6.66234 0 6.77067 0.108333 6.77067 0.270833V1.35417C6.77067 1.51667 6.66234 1.625 6.49984 1.625Z" fill="#68C2D0"/>
<path d="M10.1291 3.14169C10.0749 3.14169 9.96659 3.14169 9.91243 3.08752C9.80409 2.97919 9.80409 2.81669 9.91243 2.70836L10.6708 1.95002C10.7791 1.84169 10.9416 1.84169 11.0499 1.95002C11.1583 2.05836 11.1583 2.22086 11.0499 2.32919L10.2916 3.08752C10.2916 3.08752 10.1833 3.14169 10.1291 3.14169V3.14169Z" fill="#68C2D0"/>
<path d="M12.7292 6.77079H11.6458C11.4833 6.77079 11.375 6.66246 11.375 6.49996C11.375 6.33746 11.4833 6.22913 11.6458 6.22913H12.7292C12.8917 6.22913 13 6.33746 13 6.49996C13 6.66246 12.8917 6.77079 12.7292 6.77079Z" fill="#68C2D0"/>
<path d="M10.8874 11.1583C10.8333 11.1583 10.7249 11.1583 10.6708 11.1041L9.91243 10.3458C9.80409 10.2375 9.80409 10.075 9.91243 9.96663C10.0208 9.85829 10.1833 9.85829 10.2916 9.96663L11.0499 10.725C11.1583 10.8333 11.1583 10.9958 11.0499 11.1041C11.0499 11.1583 10.9958 11.1583 10.8874 11.1583Z" fill="#68C2D0"/>
<path d="M2.11237 11.1583C2.0582 11.1583 1.94987 11.1583 1.8957 11.1041C1.78737 10.9958 1.78737 10.8333 1.8957 10.725L2.65404 9.96663C2.76237 9.85829 2.92487 9.85829 3.0332 9.96663C3.14154 10.075 3.14154 10.2375 3.0332 10.3458L2.27487 11.1041C2.2207 11.1583 2.16654 11.1583 2.11237 11.1583V11.1583Z" fill="#68C2D0"/>
<path d="M1.35417 6.77079H0.270833C0.108333 6.77079 0 6.66246 0 6.49996C0 6.33746 0.108333 6.22913 0.270833 6.22913H1.35417C1.51667 6.22913 1.625 6.33746 1.625 6.49996C1.625 6.66246 1.51667 6.77079 1.35417 6.77079Z" fill="#68C2D0"/>
<path d="M2.8707 3.14166C2.81654 3.14166 2.7082 3.14166 2.65404 3.08749L1.8957 2.27499C1.78737 2.16666 1.78737 2.00416 1.8957 1.89583C2.00404 1.78749 2.16654 1.78749 2.27487 1.89583L3.0332 2.65416C3.14154 2.76249 3.14154 2.92499 3.0332 3.03332C2.97904 3.08749 2.92487 3.14166 2.8707 3.14166V3.14166Z" fill="#68C2D0"/>
<path d="M8.6665 6.77083C8.504 6.77083 8.39567 6.6625 8.39567 6.5C8.39567 5.47083 7.529 4.60417 6.49984 4.60417C6.33734 4.60417 6.229 4.49583 6.229 4.33333C6.229 4.17083 6.33734 4.0625 6.49984 4.0625C7.854 4.0625 8.93733 5.14583 8.93733 6.5C8.93733 6.6625 8.829 6.77083 8.6665 6.77083Z" fill="#68C2D0"/>
</svg>
