<svg width="21" height="24" viewBox="0 0 21 24" fill="none" xmlns="http://www.w3.org/2000/svg">
<path d="M5.27224 19.3429L7.74856 23.9995L10.5002 19.2351L13.2519 24L15.7283 19.3434L21 19.5278L16.871 12.3777L17.4893 12.1029L17.2572 9.87817L18.5699 8.06742L17.2572 6.25666L17.4898 4.03197L15.4459 3.12311L14.5368 1.0798L12.3115 1.31186L10.5002 0L8.68899 1.31235L6.46368 1.0798L5.55457 3.12311L3.51069 4.03197L3.74281 6.25666L2.43059 8.06742L3.74331 9.87817L3.51069 12.1029L4.12952 12.3782L0 19.5273L5.27224 19.3429ZM15.9579 12.7841L19.2424 18.4718L15.1417 18.3282L13.2156 21.9502L11.0738 18.2413L13.0059 14.8955L13.4806 14.9452L14.5363 15.0555L15.4454 13.0117L15.9579 12.7841ZM4.57438 11.4877L4.77121 9.60288L3.65831 8.06742L4.77121 6.53195L4.57438 4.64715L6.30761 3.87594L7.07903 2.14319L8.96435 2.33997L10.5002 1.22738L12.0361 2.33997L13.9215 2.14319L14.6929 3.87594L16.4261 4.64715L16.2293 6.53195L17.3422 8.06742L16.2293 9.60288L16.4261 11.4877L16.3714 11.512L14.6929 12.2589L13.9215 13.9916L12.0361 13.7949L10.5002 14.9074L8.96435 13.7949L7.07903 13.9916L6.30761 12.2589L4.62906 11.512L4.57438 11.4877ZM6.46368 15.055L8.68899 14.823L10.5002 16.1348L11.6052 15.3343L9.92665 18.2413L7.78485 21.9502L5.85877 18.3282L1.75857 18.4718L5.0431 12.7841L5.55507 13.0117L6.46368 15.055Z" fill="#FFBE40"/>
</svg>
