<svg width="15" height="15" viewBox="0 0 15 15" fill="none" xmlns="http://www.w3.org/2000/svg">
<path d="M7.5 0C3.36469 0 0 3.36469 0 7.5C0 11.6353 3.36469 15 7.5 15C11.6353 15 15 11.6353 15 7.5C15 3.36469 11.6353 0 7.5 0ZM7.5 14.375C3.70906 14.375 0.625 11.2909 0.625 7.5C0.625 3.70906 3.70906 0.625 7.5 0.625C11.2909 0.625 14.375 3.70906 14.375 7.5C14.375 11.2909 11.2909 14.375 7.5 14.375Z" fill="#68C2D0"/>
<path d="M8.4155 2.50024H6.89768C5.50675 2.50024 4.37518 3.63181 4.37518 5.02243V5.93774H5.00018V5.02243C5.00018 3.97649 5.85143 3.12524 6.89737 3.12524H8.41518C9.46143 3.12524 10.3127 3.97649 10.3127 5.02243C10.3127 5.52931 10.1152 6.00556 9.75706 6.36399L7.18768 8.93337V10.6252H7.81268V9.19212L10.1989 6.80587C10.6752 6.32962 10.9377 5.69618 10.9377 5.02243C10.9377 3.63181 9.80612 2.50024 8.4155 2.50024Z" fill="#68C2D0"/>
<path d="M7.81268 11.5623H7.18768V12.4998H7.81268V11.5623Z" fill="#68C2D0"/>
</svg>
