<svg width="16" height="15" viewBox="0 0 16 15" fill="none" xmlns="http://www.w3.org/2000/svg">
<path d="M12.8086 13.5692C14.6367 12.211 15.8125 10.0958 15.8125 7.72081C15.8125 3.62208 12.3262 0.306355 8.01172 0.300788C3.69141 0.295222 0.1875 3.61837 0.1875 7.72081C0.1875 10.0439 1.31055 12.1164 3.07031 13.4765C3.13867 13.5284 3.23828 13.5173 3.29297 13.4524L4.0625 12.5153C4.11523 12.4523 4.10352 12.3613 4.03906 12.3094C3.88086 12.1869 3.72852 12.0552 3.58203 11.916C3.01098 11.3754 2.55593 10.7345 2.24219 10.029C1.91406 9.29981 1.75 8.52237 1.75 7.72081C1.75 6.91925 1.91406 6.1418 2.24023 5.41075C2.55469 4.70382 3.00586 4.06925 3.58008 3.52374C4.1543 2.97823 4.82227 2.54962 5.56641 2.25089C6.33789 1.94102 7.15625 1.78516 8 1.78516C8.84375 1.78516 9.66211 1.94102 10.4316 2.25089C11.1758 2.54962 11.8438 2.97823 12.418 3.52374C12.9922 4.06925 13.4434 4.70382 13.7578 5.41075C14.084 6.1418 14.248 6.91925 14.248 7.72081C14.248 8.52237 14.084 9.29981 13.7578 10.0309C13.4441 10.7364 12.989 11.3773 12.418 11.9179C12.2363 12.0904 12.0449 12.2519 11.8457 12.4003L11.0508 11.4336C11.0328 11.4115 11.0086 11.3947 10.981 11.3851C10.9534 11.3754 10.9234 11.3734 10.8947 11.3792C10.8659 11.3851 10.8395 11.3985 10.8184 11.4179C10.7972 11.4374 10.7824 11.4621 10.7754 11.4893L10.002 14.4988C9.97852 14.5916 10.0527 14.6825 10.1523 14.6825L13.4141 14.6974C13.5449 14.6974 13.6191 14.5545 13.5371 14.458L12.8086 13.5692Z" fill="white"/>
</svg>
