<svg width="16" height="18" viewBox="0 0 16 18" fill="none" xmlns="http://www.w3.org/2000/svg">
<path d="M11.1258 1.76133H10.2559C10.0361 0.761966 8.96515 0 7.67907 0H7.3517C6.06562 0 4.99467 0.761966 4.77486 1.76133H3.90501C3.09127 1.76133 2.43186 2.30121 2.43186 2.96745V3.21634H1.82857C0.818414 3.21634 0 3.88641 0 4.71347V16.5029C0 17.3299 0.818414 18 1.82857 18H13.1975C14.2077 18 15.0261 17.3299 15.0261 16.5029V4.71347C15.0261 3.88641 14.2077 3.21634 13.1975 3.21634H12.5942V2.96745C12.5989 2.30121 11.9348 1.76133 11.1258 1.76133ZM3.36719 2.96745C3.36719 2.72623 3.61038 2.52712 3.90501 2.52712H5.20044C5.45765 2.52712 5.6681 2.35482 5.6681 2.14422C5.6681 1.38609 6.42104 0.765795 7.3517 0.765795H7.67907C8.60504 0.765795 9.36266 1.38226 9.36266 2.14422C9.36266 2.35482 9.57311 2.52712 9.83033 2.52712H11.1258C11.4204 2.52712 11.6636 2.72623 11.6636 2.96745V4.42629H3.36719V2.96745ZM13.2022 3.98213C13.6932 3.98213 14.0954 4.31142 14.0954 4.71347V16.5029C14.0954 16.9049 13.6932 17.2342 13.2022 17.2342H1.82857C1.33752 17.2342 0.935331 16.9049 0.935331 16.5029V4.71347C0.935331 4.31142 1.33752 3.98213 1.82857 3.98213H2.43186V4.80919C2.43186 5.01978 2.64231 5.19209 2.89953 5.19209H12.1266C12.3838 5.19209 12.5942 5.01978 12.5942 4.80919V3.98213H13.2022Z" fill="#68C2D0"/>
<path d="M3.74166 11.3949L2.99339 10.7823L2.33398 11.3222L3.41429 12.2067C3.50315 12.2794 3.62006 12.3177 3.74633 12.3177C3.8726 12.3177 3.98952 12.2756 4.07838 12.2067L6.24834 10.43L5.58894 9.89014L3.74166 11.3949Z" fill="#68C2D0"/>
<path d="M3.74166 14.7186L2.99339 14.1059L2.33398 14.6458L3.41429 15.5265C3.50782 15.6031 3.62474 15.6375 3.74633 15.6375C3.86793 15.6375 3.98484 15.5992 4.07838 15.5265L6.24834 13.7498L5.58894 13.21L3.74166 14.7186Z" fill="#68C2D0"/>
<path d="M3.74166 8.06777L2.99339 7.45514L2.33398 7.99502L3.41429 8.87952C3.50315 8.95227 3.62006 8.99056 3.74633 8.99056C3.8726 8.99056 3.98952 8.94844 4.07838 8.87952L6.24834 7.10287L5.58894 6.56299L3.74166 8.06777Z" fill="#68C2D0"/>
<path d="M12.4957 7.34033H7.55713V8.10613H12.4957V7.34033Z" fill="#68C2D0"/>
<path d="M12.4957 10.6636H7.55713V11.4294H12.4957V10.6636Z" fill="#68C2D0"/>
<path d="M12.4957 13.9873H7.55713V14.7531H12.4957V13.9873Z" fill="#68C2D0"/>
</svg>
