<svg width="20" height="23" viewBox="0 0 20 23" fill="none" xmlns="http://www.w3.org/2000/svg">
<path d="M14.2162 2.25059H13.1048C12.8239 0.973623 11.4555 0 9.81214 0H9.39384C7.75051 0 6.38207 0.973623 6.10121 2.25059H4.98973C3.94995 2.25059 3.10738 2.94044 3.10738 3.79175V4.10976H2.33651C1.04575 4.10976 0 4.96597 0 6.02276V21.087C0 22.1438 1.04575 23 2.33651 23H16.8635C18.1542 23 19.2 22.1438 19.2 21.087V6.02276C19.2 4.96597 18.1542 4.10976 16.8635 4.10976H16.0926V3.79175C16.0986 2.94044 15.25 2.25059 14.2162 2.25059ZM4.30252 3.79175C4.30252 3.48351 4.61326 3.2291 4.98973 3.2291H6.645C6.97367 3.2291 7.24258 3.00893 7.24258 2.73984C7.24258 1.77111 8.20467 0.978515 9.39384 0.978515H9.81214C10.9953 0.978515 11.9634 1.76622 11.9634 2.73984C11.9634 3.00893 12.2323 3.2291 12.561 3.2291H14.2162C14.5927 3.2291 14.9035 3.48351 14.9035 3.79175V5.65582H4.30252V3.79175ZM16.8695 5.08828C17.4969 5.08828 18.0108 5.50904 18.0108 6.02276V21.087C18.0108 21.6007 17.4969 22.0215 16.8695 22.0215H2.33651C1.70906 22.0215 1.19514 21.6007 1.19514 21.087V6.02276C1.19514 5.50904 1.70906 5.08828 2.33651 5.08828H3.10738V6.14508C3.10738 6.41417 3.37628 6.63433 3.70495 6.63433H15.4951C15.8237 6.63433 16.0926 6.41417 16.0926 6.14508V5.08828H16.8695Z" fill="#68C2D0"/>
<path d="M4.78063 14.56L3.82451 13.7772L2.98193 14.467L4.36233 15.5972C4.47586 15.6902 4.62526 15.7391 4.7866 15.7391C4.94795 15.7391 5.09734 15.6853 5.21088 15.5972L7.98362 13.3271L7.14104 12.6372L4.78063 14.56Z" fill="#68C2D0"/>
<path d="M4.78063 18.8071L3.82451 18.0243L2.98193 18.7141L4.36233 19.8394C4.48184 19.9373 4.63123 19.9813 4.7866 19.9813C4.94197 19.9813 5.09136 19.9324 5.21088 19.8394L7.98362 17.5692L7.14104 16.8794L4.78063 18.8071Z" fill="#68C2D0"/>
<path d="M4.78063 10.3085L3.82451 9.52571L2.98193 10.2156L4.36233 11.3458C4.47586 11.4387 4.62526 11.4876 4.7866 11.4876C4.94795 11.4876 5.09734 11.4338 5.21088 11.3458L7.98362 9.0756L7.14104 8.38574L4.78063 10.3085Z" fill="#68C2D0"/>
<path d="M15.9671 9.37915H9.65674V10.3577H15.9671V9.37915Z" fill="#68C2D0"/>
<path d="M15.9671 13.6255H9.65674V14.604H15.9671V13.6255Z" fill="#68C2D0"/>
<path d="M15.9671 17.8728H9.65674V18.8513H15.9671V17.8728Z" fill="#68C2D0"/>
</svg>
