<svg width="17" height="18" viewBox="0 0 17 18" fill="none" xmlns="http://www.w3.org/2000/svg">
<path d="M10.6891 17.8115C10.5389 17.8115 10.4014 17.7249 10.337 17.5881L7.05619 10.6152L0.226715 7.47609C0.0839112 7.41053 -0.00538954 7.26539 0.000252565 7.10819C0.00608922 6.95099 0.105896 6.81286 0.253174 6.75799L16.462 0.70596C16.6038 0.653235 16.7639 0.687283 16.8715 0.793899C16.9795 0.900515 17.0153 1.06024 16.9639 1.20285L11.0551 17.5546C11.0018 17.7027 10.8644 17.8037 10.7072 17.8111C10.701 17.8113 10.695 17.8115 10.6891 17.8115ZM1.40183 7.15975L7.51008 9.96757C7.59355 10.0059 7.66067 10.0724 7.69978 10.1553L10.6418 16.4081L15.9462 1.72932L1.40183 7.15975Z" fill="#68C2D0"/>
<path d="M7.34783 10.71C7.24822 10.71 7.1488 10.6721 7.07273 10.596C6.92078 10.4443 6.92078 10.1978 7.07273 10.0458L16.3229 0.795479C16.4748 0.643532 16.7211 0.643532 16.8731 0.795479C17.025 0.947427 17.025 1.19373 16.8731 1.34568L7.62293 10.596C7.54686 10.6721 7.44745 10.71 7.34783 10.71Z" fill="#68C2D0"/>
</svg>
