<svg width="24" height="24" viewBox="0 0 24 24" fill="none" xmlns="http://www.w3.org/2000/svg">
<path d="M23.5553 10.0181L24 8.82428L22.7306 5.76063L21.572 5.23196L20.2307 5.67902L19.8956 5.57426C19.4595 5.03827 18.9661 4.54614 18.4264 4.1076L18.3216 3.77018L18.7687 2.42777L18.24 1.26931L15.176 0L13.9834 0.445843L13.3498 1.7115L13.038 1.87473C12.346 1.80286 11.6491 1.80164 10.962 1.8723L10.6502 1.71028L10.0179 0.447061L8.82518 0L5.76 1.26931L5.23127 2.42777L5.67838 3.76774L5.57239 4.10395C5.03635 4.54005 4.54294 5.0334 4.10558 5.57304L3.76934 5.6778L2.42802 5.23074L1.26944 5.75942L0 8.82428L0.44467 10.0181L1.71046 10.6515L1.87371 10.9634C1.80183 11.654 1.80183 12.3508 1.87127 13.0391L1.70924 13.3509L0.445888 13.9831L0.00121819 15.1769L1.27066 18.2406L2.42924 18.7693L3.76934 18.3234L4.10437 18.4282C4.54051 18.9642 5.03391 19.4563 5.5736 19.8948L5.67838 20.2298L5.23127 21.5722L5.76122 22.7307L8.82518 24L10.0191 23.5542L10.6514 22.2897L10.9632 22.1265C11.6552 22.1984 12.3521 22.1984 13.0404 22.1277L13.3511 22.2909L13.9834 23.5542L15.176 23.9988L18.24 22.7295L18.7687 21.571L18.3228 20.231L18.4276 19.8961C18.9649 19.4587 19.4571 18.9654 19.8944 18.427L20.2294 18.3222L21.572 18.7693L22.7306 18.2406L24 15.1757L23.5553 13.9819L22.2895 13.3485L22.1263 13.0379C22.1982 12.3472 22.1982 11.6504 22.1287 10.9609L22.2908 10.6491L23.5553 10.0181ZM21.4611 9.80489L20.9702 10.7453L20.9909 10.9183C21.0761 11.6321 21.0761 12.3581 20.9884 13.0756L20.9677 13.2498L21.4599 14.1915L22.6538 14.7883L22.789 15.1514L21.8583 17.3964L21.5062 17.5572L20.2392 17.1357L19.2256 17.4537L19.1172 17.5913C18.6725 18.1602 18.1584 18.6742 17.5931 19.1189L17.4554 19.2261L17.1375 20.2396L17.559 21.5052L17.3982 21.8573L15.1529 22.7879L14.7898 22.6527L14.1929 21.4602L13.2524 20.968L13.0794 20.9887C12.3667 21.074 11.6406 21.074 10.9206 20.9863L10.7476 20.9656L9.80589 21.4577L9.20893 22.6527L8.84589 22.7879L6.60061 21.8585L6.4398 21.5064L6.86132 20.2396L6.54335 19.2261L6.40569 19.1177C5.83553 18.6706 5.32142 18.1578 4.87797 17.5925L4.77076 17.4549L3.75838 17.1369L2.49259 17.5596L2.14051 17.3988L1.20975 15.1538L1.34497 14.7908L2.37563 14.2743L2.55959 14.1513L3.02985 13.2523L3.00914 13.0793C2.92386 12.3654 2.92386 11.6394 3.01157 10.9219L3.03228 10.7477L2.5401 9.80611L1.34619 9.20922L1.20975 8.84621L2.14051 6.60116L2.49259 6.44036L3.75959 6.86184L4.7732 6.5439L4.88162 6.40625C5.32751 5.83616 5.84041 5.32332 6.40569 4.87869L6.54335 4.77028L6.8601 3.75678L6.4398 2.49355L6.60061 2.14151L8.84589 1.21084L9.20893 1.34606L9.80589 2.53863L10.7464 3.03076L10.9194 3.01005C11.6333 2.92478 12.3594 2.92478 13.077 3.01249L13.2512 3.03319L14.1929 2.53984L14.7911 1.34484L15.1541 1.20962L17.3994 2.14029L17.5602 2.49234L17.1387 3.75921L17.4554 4.77271L17.5931 4.88113C18.162 5.32697 18.6761 5.83981 19.1208 6.40625L19.228 6.5439L20.2416 6.86184L21.5074 6.44036L21.8595 6.60116L22.7903 8.84621L22.655 9.20922L21.4611 9.80489Z" fill="#68C2D0"/>
<path d="M11.9928 5.75342C8.57674 5.75342 5.79785 8.52715 5.79785 11.938C5.79785 15.3488 8.57674 18.1225 11.9928 18.1225C15.4088 18.1225 18.1877 15.3488 18.1877 11.938C18.1877 8.52715 15.4088 5.75342 11.9928 5.75342ZM11.9928 16.9969C9.19806 16.9969 6.92476 14.7275 6.92476 11.938C6.92476 9.1484 9.19806 6.87899 11.9928 6.87899C14.7875 6.87899 17.0608 9.1484 17.0608 11.938C17.0608 14.7275 14.7875 16.9969 11.9928 16.9969Z" fill="#68C2D0"/>
</svg>
