<svg width="25" height="24" viewBox="0 0 25 24" fill="none" xmlns="http://www.w3.org/2000/svg">
<path d="M12.3118 5.99634C13.9173 5.99634 15.4227 6.62101 16.5534 7.75167C17.684 8.88233 18.3087 10.3878 18.3087 11.9932C18.3087 13.5986 17.684 15.0978 16.5534 16.2348C15.4227 17.3654 13.911 17.9901 12.3118 17.9901C10.7064 17.9901 9.20097 17.3654 8.07031 16.2348C6.93965 15.1041 6.31497 13.5986 6.31497 11.9932C6.31497 10.3878 6.93965 8.88858 8.07031 7.75167C9.20097 6.62101 10.7064 5.99634 12.3118 5.99634ZM12.3118 16.9906C15.0792 16.9906 17.3092 14.748 17.3092 11.9932C17.3092 9.2384 15.0792 6.99582 12.3118 6.99582C9.54454 6.99582 7.31445 9.2384 7.31445 11.9932C7.31445 14.748 9.54454 16.9906 12.3118 16.9906Z" fill="#2F2F2F"/>
<path d="M1.83619 9.49505H2.7857C3.5603 9.49505 4.20996 8.84539 4.20996 8.04581C4.20996 7.64602 4.04129 7.28995 3.74145 7.02134L3.12927 6.42166C2.52334 5.82197 2.52334 4.84747 3.12927 4.24154L4.52229 2.86101C4.79715 2.58615 5.20319 2.42374 5.61547 2.42374C6.02776 2.42374 6.42755 2.58615 6.70866 2.86101L7.29585 3.4482C7.57695 3.76054 7.96425 3.9292 8.37029 3.9292C9.16987 3.9292 9.85077 3.27954 9.85077 2.51119V1.56793C9.85077 0.724622 10.5067 0 11.35 0H13.249C14.111 0 14.7982 0.718376 14.7982 1.56793V2.51744C14.7982 3.28579 15.4603 3.93545 16.2599 3.93545C16.6597 3.93545 17.022 3.76679 17.2969 3.47319L17.9028 2.8735C18.1777 2.5924 18.5837 2.43623 18.996 2.43623C19.4083 2.43623 19.8081 2.59865 20.0892 2.8735L21.4822 4.24779C22.0819 4.84748 22.0819 5.82821 21.4822 6.42166L20.895 7.00885C20.5827 7.28995 20.4078 7.64602 20.4078 8.05206C20.4078 8.85164 21.0574 9.5013 21.832 9.5013H22.7815C23.6373 9.49506 24.3557 10.1947 24.3557 11.0442V11.9938V12.9433C24.3557 13.7866 23.6373 14.4925 22.7815 14.4925H21.832C21.0574 14.4925 20.4078 15.1421 20.4078 15.9417C20.4078 16.3415 20.5827 16.71 20.895 16.9911L21.4822 17.5659C22.0819 18.1655 22.0819 19.14 21.4822 19.7397L20.0892 21.1265C19.8143 21.4076 19.4083 21.5638 18.996 21.5638C18.5837 21.5638 18.1839 21.4014 17.9028 21.1265L17.2969 20.5268C17.0345 20.2332 16.666 20.0646 16.2662 20.0646C15.4666 20.0646 14.8044 20.7142 14.8044 21.4826V22.4321C14.8044 23.2754 14.1173 24 13.2615 24H11.3625C10.5129 24 9.80704 23.2816 9.80704 22.4321V21.4826C9.80704 20.7142 9.15113 20.0646 8.35155 20.0646C7.95176 20.0646 7.5832 20.2395 7.29585 20.5455L6.70866 21.1327C6.42755 21.4076 6.02776 21.57 5.61547 21.57C5.20319 21.57 4.8034 21.4076 4.52229 21.1327L3.12927 19.746C2.52958 19.1463 2.52958 18.1655 3.12927 17.5659L3.74145 16.9662C4.04129 16.6976 4.20996 16.3165 4.20996 15.923C4.20996 15.1234 3.5603 14.4487 2.7857 14.4487H1.83619C0.986637 14.4487 0.380703 13.8053 0.380703 12.9558V11.9938V11.0442C0.380703 10.1947 0.986637 9.49505 1.83619 9.49505ZM1.36769 11.9938V12.937C1.36769 13.1994 1.51136 13.4305 1.8237 13.4305H2.7732C3.41662 13.4305 4.0288 13.7054 4.49106 14.1801C4.94707 14.6486 5.19694 15.267 5.19694 15.9167C5.19694 16.5914 4.92208 17.216 4.4161 17.6783L3.82266 18.2655C3.61652 18.4779 3.61652 18.8277 3.82266 19.0338L5.21568 20.4206C5.31563 20.5143 5.45931 20.5705 5.60923 20.5705C5.75915 20.5705 5.90907 20.5143 6.00277 20.4206L6.57123 19.8522C7.05223 19.3462 7.68315 19.0651 8.35155 19.0651C9.00121 19.0651 9.6009 19.3149 10.0694 19.7647C10.5442 20.227 10.794 20.8329 10.794 21.4826V22.4321C10.794 22.7382 11.0626 23.0005 11.35 23.0005H13.249C13.5363 23.0005 13.7925 22.7382 13.7925 22.4321V21.4826C13.7925 20.8391 14.0486 20.227 14.5233 19.7647C14.9918 19.3149 15.604 19.0651 16.2474 19.0651C16.9096 19.0651 17.5468 19.3462 18.0028 19.8397L18.5837 20.4206C18.6837 20.5143 18.8273 20.5705 18.9773 20.5705C19.1272 20.5705 19.2771 20.5206 19.3583 20.4331L19.3646 20.4269L19.3708 20.4206L20.7638 19.0338C20.97 18.8277 20.97 18.4841 20.7638 18.2717L20.1954 17.7095C19.6831 17.2348 19.402 16.6039 19.402 15.9292C19.402 15.2795 19.6519 14.6861 20.1079 14.2176C20.5702 13.7428 21.1824 13.4992 21.8258 13.4992H22.7815C23.0939 13.4992 23.3562 13.2306 23.3562 12.9495V11.9938V11.0442C23.3562 10.7631 23.0939 10.4945 22.7815 10.4945H21.832C21.1886 10.4945 20.5764 10.2509 20.1142 9.77616C19.6582 9.30765 19.4083 8.70172 19.4083 8.0583C19.4083 7.38365 19.6894 6.75273 20.2016 6.28423L20.7763 5.71577C20.9138 5.57834 20.9325 5.42218 20.9325 5.33472C20.9325 5.25351 20.9138 5.0911 20.7763 4.95367L19.3895 3.57314C19.2896 3.47944 19.1459 3.42322 18.996 3.42322C18.8461 3.42322 18.6962 3.47319 18.615 3.56065L18.6087 3.56689L18.6025 3.57314L18.0153 4.16033C17.553 4.66007 16.9283 4.93493 16.2599 4.93493C15.6103 4.93493 15.0043 4.68506 14.5358 4.23529C14.0611 3.77304 13.7987 3.1671 13.7987 2.51744V1.56793C13.7987 1.26184 13.5488 0.999479 13.2677 0.999479H11.3625C11.0814 0.999479 10.8627 1.26184 10.8627 1.56793V2.51744C10.8627 3.16085 10.5879 3.77304 10.1131 4.23529C9.64463 4.68506 9.0262 4.93493 8.37654 4.93493C7.70189 4.93493 7.06472 4.65383 6.58997 4.14784L6.02151 3.57939C5.92157 3.48568 5.77789 3.42946 5.62797 3.42946C5.47805 3.42946 5.32812 3.48568 5.23442 3.57314L3.8414 4.95367C3.74145 5.05362 3.67898 5.19105 3.67898 5.33472C3.67898 5.4784 3.7352 5.61583 3.83515 5.71577L4.42859 6.30297C4.92833 6.76523 5.20944 7.3899 5.20944 8.06455C5.20944 8.71421 4.95957 9.30765 4.50356 9.77616C4.0413 10.2509 3.42912 10.4945 2.7857 10.4945H1.83619C1.49887 10.4945 1.37393 10.8069 1.36769 11.0567V11.9938Z" fill="#2F2F2F"/>
</svg>
