<svg width="24" height="23" viewBox="0 0 24 23" fill="none" xmlns="http://www.w3.org/2000/svg">
<path d="M11.1321 1.46556C11.5187 0.808182 12.4694 0.808181 12.856 1.46556L16.0538 6.90265C16.1994 7.15005 16.4442 7.32301 16.726 7.3775L23.0412 8.59863C23.819 8.74902 24.1214 9.70102 23.573 10.2727L19.2611 14.7676C19.0536 14.9839 18.9541 15.282 18.99 15.5796L19.7263 21.6852C19.819 22.4538 19.0407 23.0317 18.3318 22.7207L12.3957 20.1171C12.1397 20.0048 11.8484 20.0048 11.5924 20.1171L5.65633 22.7207C4.94739 23.0317 4.16917 22.4538 4.26186 21.6852L4.99818 15.5796C5.03407 15.282 4.93455 14.9839 4.72702 14.7676L0.415154 10.2727C-0.133248 9.70102 0.169171 8.74902 0.946955 8.59863L7.26217 7.3775C7.54397 7.32301 7.78878 7.15005 7.93429 6.90265L11.1321 1.46556Z" fill="#68C2D0"/>
</svg>
