<svg width="11" height="11" viewBox="0 0 11 11" fill="none" xmlns="http://www.w3.org/2000/svg">
<path d="M4.7541 1.46545C5.14074 0.8081 6.09137 0.808099 6.47801 1.46545L7.48714 3.18112C7.63265 3.42852 7.87746 3.60146 8.15926 3.65595L10.105 4.03216C10.8828 4.18255 11.1852 5.13458 10.6368 5.70626L9.34176 7.05616C9.13421 7.2725 9.03468 7.57054 9.07058 7.86818L9.29513 9.73006C9.38782 10.4986 8.60962 11.0765 7.90067 10.7656L6.01771 9.93976C5.76171 9.82748 5.4704 9.82748 5.2144 9.93976L3.33143 10.7656C2.62249 11.0765 1.84429 10.4986 1.93698 9.73006L2.16153 7.86818C2.19743 7.57054 2.0979 7.2725 1.89035 7.05616L0.59534 5.70626C0.0469071 5.13458 0.349328 4.18255 1.12713 4.03216L3.07285 3.65595C3.35465 3.60146 3.59946 3.42852 3.74497 3.18112L4.7541 1.46545Z" fill="#68C2D0"/>
</svg>
