<svg width="11" height="11" viewBox="0 0 11 11" fill="none" xmlns="http://www.w3.org/2000/svg">
<path d="M6.04704 1.71904L7.05616 3.43481C7.27443 3.80592 7.64163 4.06535 8.06434 4.14708L10.0101 4.52333C10.399 4.59853 10.5503 5.07452 10.276 5.36037L8.98091 6.71049C8.66961 7.03499 8.52033 7.48204 8.57417 7.92847L8.79873 9.7906C8.84508 10.1749 8.45597 10.4638 8.1015 10.3084L6.21856 9.48248C5.83455 9.31405 5.39756 9.31405 5.01355 9.48248L3.13061 10.3084C2.77614 10.4638 2.38703 10.1749 2.43337 9.79059L2.65794 7.92847C2.71178 7.48204 2.56249 7.03499 2.2512 6.71049L0.956061 5.36037C0.68186 5.07452 0.833069 4.59853 1.22196 4.52333L3.16777 4.14708C3.59048 4.06535 3.95768 3.80592 4.17595 3.43481L5.18507 1.71905C5.37839 1.39035 5.85372 1.39035 6.04704 1.71904Z" fill="white" stroke="#68C2D0"/>
</svg>
