<svg width="17" height="16" viewBox="0 0 17 16" fill="none" xmlns="http://www.w3.org/2000/svg">
<path d="M8.03774 0.551096C8.41996 -0.128976 9.39903 -0.128976 9.78125 0.551096L11.6917 3.95041C11.8342 4.20396 12.0801 4.38291 12.3652 4.4406L16.1837 5.21328C16.9464 5.36761 17.2483 6.29554 16.7225 6.86914L14.083 9.74866C13.887 9.96244 13.7935 10.2508 13.8267 10.5389L14.2741 14.4216C14.3634 15.1958 13.5719 15.77 12.8636 15.4449L9.32665 13.8215C9.06183 13.6999 8.75716 13.6999 8.49234 13.8215L4.95544 15.4449C4.24713 15.77 3.45564 15.1958 3.54486 14.4216L3.99231 10.5389C4.02551 10.2508 3.932 9.96244 3.73604 9.74866L1.09647 6.86914C0.570666 6.29554 0.872616 5.36761 1.63529 5.21328L5.45383 4.4406C5.73891 4.38291 5.98475 4.20396 6.12725 3.95041L8.03774 0.551096Z" fill="#FEE87A"/>
</svg>
