<svg width="25" height="23" viewBox="0 0 25 23" fill="none" xmlns="http://www.w3.org/2000/svg">
<path d="M12.9192 1.71904L16.117 7.15613C16.3353 7.52724 16.7025 7.78667 17.1252 7.86841L23.4404 9.08954C23.8293 9.16473 23.9805 9.64073 23.7063 9.92657L19.3944 14.4215C19.0831 14.746 18.9339 15.193 18.9877 15.6395L19.724 21.7451C19.7704 22.1294 19.3813 22.4183 19.0268 22.2628L13.0907 19.6592C12.7067 19.4908 12.2697 19.4908 11.8857 19.6592L5.94964 22.2628C5.59517 22.4183 5.20606 22.1294 5.2524 21.7451L5.98872 15.6395C6.04256 15.193 5.89328 14.746 5.58198 14.4215L1.27012 9.92657C0.995917 9.64073 1.14713 9.16473 1.53602 9.08954L7.85123 7.86841C8.27394 7.78667 8.64115 7.52724 8.85942 7.15613L12.0572 1.71904C12.2505 1.39035 12.7259 1.39035 12.9192 1.71904Z" fill="white" stroke="#C4C4C4"/>
</svg>
