<svg width="25" height="18" viewBox="0 0 25 18" fill="none" xmlns="http://www.w3.org/2000/svg">
<path d="M12.2206 0.557163L12.2422 0.545619L12.2626 0.532012C12.2887 0.514621 12.3069 0.506811 12.3174 0.503338C12.3271 0.500077 12.3318 0.5 12.3332 0.5C12.3346 0.5 12.3393 0.500077 12.3491 0.503338C12.3595 0.506811 12.3777 0.514621 12.4038 0.532012L12.4242 0.545619L12.4459 0.557163L24.0197 6.72986C24.1239 6.80464 24.1664 6.88835 24.1664 6.99785C24.1664 7.10735 24.1239 7.19106 24.0197 7.26584L12.4459 13.4385L12.4113 13.457C12.4003 13.457 12.3874 13.457 12.3719 13.457C12.3308 13.457 12.3071 13.457 12.2872 13.4562C12.2695 13.4555 12.2627 13.4545 12.2608 13.4542C12.2604 13.4541 12.2598 13.454 12.2588 13.4538C12.2576 13.4535 12.2557 13.453 12.2527 13.4519C12.2468 13.4499 12.2348 13.4452 12.214 13.435L0.646757 7.26584C0.542571 7.19105 0.5 7.10735 0.5 6.99785C0.5 6.88835 0.542571 6.80464 0.646757 6.72986L12.2206 0.557163Z" stroke="#68C2D0"/>
<path d="M12.3719 13.6839C12.8049 13.6839 13.2982 13.6007 13.7192 13.3004L19.6043 10.221V12.4107C19.6043 13.3425 18.8485 14.371 17.4605 15.2C16.0999 16.0128 14.2557 16.5501 12.3719 16.5501C10.488 16.5501 8.64387 16.0128 7.28324 15.2C5.89528 14.371 5.13945 13.3425 5.13945 12.4107V10.221L11.0246 13.3004C11.4456 13.6007 11.9388 13.6839 12.3719 13.6839Z" stroke="#68C2D0"/>
</svg>
