<svg width="22" height="15" viewBox="0 0 22 15" fill="none" xmlns="http://www.w3.org/2000/svg">
<path d="M10.7795 0.543217L10.8011 0.531673L10.8216 0.518066C10.8351 0.509062 10.8446 0.504262 10.8503 0.501815C10.856 0.504262 10.8656 0.509062 10.8791 0.518066L10.8995 0.531673L10.9212 0.543217L21.0995 5.97169C21.1384 6.00028 21.1616 6.0279 21.1752 6.05125C21.1893 6.07544 21.2007 6.10732 21.2007 6.15646C21.2007 6.20559 21.1893 6.23747 21.1752 6.26166C21.1616 6.28501 21.1384 6.31263 21.0995 6.34123L10.9212 11.7697L10.9039 11.7789C10.898 11.7789 10.8915 11.7789 10.8843 11.7789C10.8479 11.7789 10.8283 11.7788 10.8121 11.7782C10.8049 11.7779 10.8006 11.7776 10.7983 11.7774C10.7951 11.7762 10.7871 11.7731 10.7728 11.7661L0.601121 6.34123C0.562222 6.31263 0.539044 6.28501 0.525427 6.26166C0.511314 6.23747 0.5 6.20559 0.5 6.15646C0.5 6.10732 0.511314 6.07544 0.525427 6.05125C0.539044 6.0279 0.562222 6.00028 0.60112 5.97169L10.7795 0.543217Z" stroke="#68C2D0"/>
<path d="M10.8843 12.0987C11.271 12.0987 11.7176 12.0248 12.1012 11.7525L17.187 9.09132V10.9184C17.187 11.7062 16.5451 12.5952 15.3303 13.3208C14.1428 14.0301 12.5311 14.5001 10.8843 14.5001C9.23753 14.5001 7.62582 14.0301 6.43834 13.3208C5.22354 12.5952 4.5816 11.7062 4.5816 10.9184V9.09132L9.66748 11.7525C10.0511 12.0248 10.4976 12.0987 10.8843 12.0987Z" stroke="#68C2D0"/>
</svg>
