<svg width="20" height="20" viewBox="0 0 20 20" fill="none" xmlns="http://www.w3.org/2000/svg">
<path d="M10.3866 2.94626V0.430111C10.3866 0.19355 10.2287 0 10.0357 0C9.84276 0 9.68487 0.19355 9.68487 0.430111V2.94626C9.40416 3.11831 9.19363 3.4624 9.19363 3.871C9.19363 4.43015 9.56206 4.90327 10.0357 4.90327C10.5094 4.90327 10.8779 4.43015 10.8779 3.871C10.8779 3.4624 10.6849 3.0968 10.3866 2.94626Z" fill="#68C2D0"/>
<path d="M15.6499 2.94626V0.430111C15.6499 0.19355 15.492 0 15.2991 0C15.1061 0 14.9482 0.19355 14.9482 0.430111V2.94626C14.6675 3.11831 14.4569 3.4624 14.4569 3.871C14.4569 4.43015 14.8254 4.90327 15.2991 4.90327C15.7727 4.90327 16.1412 4.43015 16.1412 3.871C16.1412 3.4624 15.9482 3.0968 15.6499 2.94626Z" fill="#68C2D0"/>
<path d="M9.33378 1.50537H5.47409V2.36515H9.33378V1.50537Z" fill="#68C2D0"/>
<path d="M14.5967 1.50537H10.737V2.36515H14.5967V1.50537Z" fill="#68C2D0"/>
<path d="M5.12329 2.94626V0.430111C5.12329 0.19355 4.9654 0 4.77241 0C4.57943 0 4.42153 0.19355 4.42153 0.430111V2.94626C4.14083 3.11831 3.9303 3.4624 3.9303 3.871C3.9303 4.43015 4.29872 4.90327 4.77241 4.90327C5.2461 4.90327 5.61453 4.43015 5.61453 3.871C5.61453 3.4624 5.42154 3.0968 5.12329 2.94626Z" fill="#68C2D0"/>
<path d="M18.2458 1.50537H15.9651V2.36559H18.2458C18.8248 2.36559 19.2985 2.94624 19.2985 3.65593V6.02154H0.701762V3.65593C0.701762 2.94624 1.17545 2.36559 1.75441 2.36559H4.03513V1.50537H1.75441C0.789482 1.50537 0 2.47312 0 3.65593V17.8496C0 19.0324 0.789482 20.0002 1.75441 20.0002H18.2458C19.2107 20.0002 20.0002 19.0324 20.0002 17.8496V3.65593C20.0002 2.47312 19.2107 1.50537 18.2458 1.50537ZM18.2458 19.1399H1.75441C1.17545 19.1399 0.701762 18.5593 0.701762 17.8496V6.88176H19.2985V17.8496C19.2985 18.5593 18.8248 19.1399 18.2458 19.1399Z" fill="#68C2D0"/>
</svg>
