<svg width="15" height="16" viewBox="0 0 15 16" fill="none" xmlns="http://www.w3.org/2000/svg">
<path d="M12.9381 4.03995L13.5773 3.43907C13.6359 3.37933 13.6687 3.299 13.6687 3.21534C13.6687 3.13168 13.6359 3.05135 13.5773 2.99161C13.5476 2.96165 13.5122 2.93787 13.4733 2.92165C13.4343 2.90542 13.3926 2.89707 13.3504 2.89707C13.3082 2.89707 13.2664 2.90542 13.2275 2.92165C13.1885 2.93787 13.1532 2.96165 13.1235 2.99161L12.5417 3.57331C11.268 2.24578 9.54475 1.44116 7.70915 1.31682V0.786256C7.70947 0.734735 7.69624 0.684034 7.67079 0.639233H7.99041C8.07518 0.639233 8.15647 0.605559 8.21641 0.545619C8.27635 0.48568 8.31003 0.404384 8.31003 0.319616C8.31003 0.234849 8.27635 0.153553 8.21641 0.0936134C8.15647 0.0336737 8.07518 0 7.99041 0H6.71195C6.62718 0 6.54588 0.0336737 6.48594 0.0936134C6.426 0.153553 6.39233 0.234849 6.39233 0.319616C6.39233 0.404384 6.426 0.48568 6.48594 0.545619C6.54588 0.605559 6.62718 0.639233 6.71195 0.639233H7.0827C7.05555 0.683651 7.04016 0.734246 7.03795 0.786256V1.31682C5.17224 1.4697 3.42682 2.29954 2.1305 3.65002C0.834172 5.00051 0.0764257 6.77841 0 8.64882C0.0786466 10.5733 0.878389 12.3977 2.24033 13.7597C3.60226 15.1216 5.42671 15.9214 7.35118 16C9.27858 15.9302 11.1081 15.1333 12.4719 13.7695C13.8356 12.4057 14.6325 10.5762 14.7024 8.64882C14.6736 6.95305 14.049 5.32148 12.9381 4.03995ZM7.35118 15.3608C5.59227 15.2943 3.9234 14.5658 2.67878 13.3212C1.43415 12.0766 0.705677 10.4077 0.639233 8.64882C0.705677 6.88991 1.43415 5.22104 2.67878 3.97642C3.9234 2.7318 5.59227 2.00332 7.35118 1.93688C9.11107 2.00036 10.7816 2.72788 12.0269 3.97312C13.2721 5.21836 13.9996 6.88893 14.0631 8.64882C13.9996 10.4087 13.2721 12.0793 12.0269 13.3245C10.7816 14.5698 9.11107 15.2973 7.35118 15.3608Z" fill="#68C2D0"/>
<path d="M7.35154 7.6902C7.20978 7.69173 7.0701 7.72446 6.94243 7.78608L3.74626 3.95068C3.68923 3.89674 3.61433 3.86568 3.53586 3.86341C3.45738 3.86115 3.38082 3.88785 3.32077 3.93842C3.26072 3.98899 3.22138 4.05989 3.21026 4.1376C3.19913 4.21532 3.217 4.29441 3.26045 4.35979L6.45661 8.19519C6.39563 8.32535 6.36295 8.46697 6.36073 8.61069C6.35324 8.8004 6.40225 8.98807 6.50153 9.1499C6.60081 9.31173 6.74591 9.44044 6.91842 9.51973C7.09093 9.59901 7.2831 9.6253 7.47056 9.59526C7.65803 9.56521 7.83236 9.48019 7.97146 9.35097C8.11055 9.22174 8.20815 9.05413 8.25189 8.86938C8.29563 8.68463 8.28354 8.49105 8.21714 8.31318C8.15075 8.1353 8.03304 7.98115 7.87894 7.87024C7.72484 7.75933 7.54129 7.69667 7.35154 7.6902ZM7.35154 8.96866C7.28832 8.96866 7.22653 8.94992 7.17397 8.9148C7.12141 8.87968 7.08044 8.82976 7.05625 8.77136C7.03206 8.71296 7.02573 8.64869 7.03806 8.58669C7.0504 8.52469 7.08084 8.46774 7.12554 8.42304C7.17023 8.37834 7.22718 8.3479 7.28918 8.33557C7.35118 8.32324 7.41545 8.32957 7.47385 8.35376C7.53225 8.37795 7.58217 8.41892 7.61729 8.47148C7.65241 8.52404 7.67115 8.58583 7.67115 8.64905C7.67115 8.73381 7.63748 8.81511 7.57754 8.87505C7.5176 8.93499 7.43631 8.96866 7.35154 8.96866Z" fill="#68C2D0"/>
<path d="M7.35087 3.85464C7.43563 3.85464 7.51693 3.82096 7.57687 3.76102C7.63681 3.70108 7.67048 3.61979 7.67048 3.53502V2.89579C7.67048 2.81102 7.63681 2.72973 7.57687 2.66979C7.51693 2.60985 7.43563 2.57617 7.35087 2.57617C7.2661 2.57617 7.1848 2.60985 7.12486 2.66979C7.06492 2.72973 7.03125 2.81102 7.03125 2.89579V3.53502C7.03125 3.61979 7.06492 3.70108 7.12486 3.76102C7.1848 3.82096 7.2661 3.85464 7.35087 3.85464Z" fill="#68C2D0"/>
<path d="M7.35087 13.4434C7.2661 13.4434 7.1848 13.477 7.12486 13.537C7.06492 13.5969 7.03125 13.6782 7.03125 13.763V14.4022C7.03125 14.487 7.06492 14.5683 7.12486 14.6282C7.1848 14.6882 7.2661 14.7218 7.35087 14.7218C7.43563 14.7218 7.51693 14.6882 7.57687 14.6282C7.63681 14.5683 7.67048 14.487 7.67048 14.4022V13.763C7.67048 13.6782 7.63681 13.5969 7.57687 13.537C7.51693 13.477 7.43563 13.4434 7.35087 13.4434Z" fill="#68C2D0"/>
<path d="M13.1044 8.3291H12.4651C12.3804 8.3291 12.2991 8.36278 12.2391 8.42271C12.1792 8.48265 12.1455 8.56395 12.1455 8.64872C12.1455 8.73349 12.1792 8.81478 12.2391 8.87472C12.2991 8.93466 12.3804 8.96833 12.4651 8.96833H13.1044C13.1891 8.96833 13.2704 8.93466 13.3304 8.87472C13.3903 8.81478 13.424 8.73349 13.424 8.64872C13.424 8.56395 13.3903 8.48265 13.3304 8.42271C13.2704 8.36278 13.1891 8.3291 13.1044 8.3291Z" fill="#68C2D0"/>
<path d="M2.23717 8.3291H1.59794C1.51317 8.3291 1.43187 8.36278 1.37193 8.42271C1.31199 8.48265 1.27832 8.56395 1.27832 8.64872C1.27832 8.73349 1.31199 8.81478 1.37193 8.87472C1.43187 8.93466 1.51317 8.96833 1.59794 8.96833H2.23717C2.32194 8.96833 2.40323 8.93466 2.46317 8.87472C2.52311 8.81478 2.55679 8.73349 2.55679 8.64872C2.55679 8.56395 2.52311 8.48265 2.46317 8.42271C2.40323 8.36278 2.32194 8.3291 2.23717 8.3291Z" fill="#68C2D0"/>
</svg>
