<svg width="24" height="24" viewBox="0 0 24 24" fill="none" xmlns="http://www.w3.org/2000/svg">
<path d="M12.4639 3.53548V0.516128C12.4639 0.232257 12.2744 0 12.0428 0C11.8112 0 11.6217 0.232257 11.6217 0.516128V3.53548C11.2849 3.74193 11.0323 4.15483 11.0323 4.64515C11.0323 5.31612 11.4744 5.88386 12.0428 5.88386C12.6112 5.88386 13.0533 5.31612 13.0533 4.64515C13.0533 4.15483 12.8217 3.71612 12.4639 3.53548Z" fill="#68C2D0"/>
<path d="M18.7796 3.53548V0.516128C18.7796 0.232257 18.5902 0 18.3586 0C18.127 0 17.9375 0.232257 17.9375 0.516128V3.53548C17.6007 3.74193 17.3481 4.15483 17.3481 4.64515C17.3481 5.31612 17.7902 5.88386 18.3586 5.88386C18.927 5.88386 19.3691 5.31612 19.3691 4.64515C19.3691 4.15483 19.1375 3.71612 18.7796 3.53548Z" fill="#68C2D0"/>
<path d="M11.2002 1.8064H6.56866V2.83812H11.2002V1.8064Z" fill="#68C2D0"/>
<path d="M17.516 1.8064H12.8845V2.83812H17.516V1.8064Z" fill="#68C2D0"/>
<path d="M6.14807 3.53548V0.516128C6.14807 0.232257 5.9586 0 5.72702 0C5.49544 0 5.30597 0.232257 5.30597 0.516128V3.53548C4.96912 3.74193 4.71649 4.15483 4.71649 4.64515C4.71649 5.31612 5.1586 5.88386 5.72702 5.88386C6.29544 5.88386 6.73755 5.31612 6.73755 4.64515C6.73755 4.15483 6.50597 3.71612 6.14807 3.53548Z" fill="#68C2D0"/>
<path d="M21.8947 1.8064H19.1579V2.83865H21.8947C22.5895 2.83865 23.1579 3.53542 23.1579 4.38704V7.22574H0.842105V4.38704C0.842105 3.53542 1.41053 2.83865 2.10526 2.83865H4.84211V1.8064H2.10526C0.947368 1.8064 0 2.96768 0 4.38704V21.4193C0 22.8386 0.947368 23.9999 2.10526 23.9999H21.8947C23.0526 23.9999 24 22.8386 24 21.4193V4.38704C24 2.96768 23.0526 1.8064 21.8947 1.8064ZM21.8947 22.9676H2.10526C1.41053 22.9676 0.842105 22.2709 0.842105 21.4193V8.25799H23.1579V21.4193C23.1579 22.2709 22.5895 22.9676 21.8947 22.9676Z" fill="#68C2D0"/>
</svg>
