<svg width="20" height="20" viewBox="0 0 20 20" fill="none" xmlns="http://www.w3.org/2000/svg">
<path d="M7.14554 2.46095H12.624C12.8421 2.46095 13.0211 2.28191 13.0211 2.06382C13.0211 1.84572 12.8421 1.66669 12.624 1.66669H7.14554C6.92745 1.66669 6.74841 1.84572 6.74841 2.06382C6.74841 2.28191 6.92419 2.46095 7.14554 2.46095Z" fill="#2F2F2F"/>
<path d="M16.8683 3.34326H15.8722H3.88996H2.89713C2.67903 3.34326 2.5 3.5223 2.5 3.74039C2.5 3.95849 2.67903 4.13752 2.89713 4.13752H3.53189L3.83136 7.31131C3.83136 7.31457 3.83136 7.32108 3.83136 7.32433L4.83721 17.9753C4.85674 18.1803 5.02601 18.3333 5.23109 18.3333H14.5311C14.7362 18.3333 14.9055 18.1771 14.925 17.9753L16.2303 4.13752H16.8651C17.0832 4.13752 17.2622 3.95849 17.2622 3.74039C17.2655 3.5223 17.0897 3.34326 16.8683 3.34326ZM14.173 17.5391H5.59241L4.66143 7.67589H15.104L14.173 17.5391ZM15.1789 6.88163H4.58656L4.32615 4.13752H15.436L15.1789 6.88163Z" fill="#2F2F2F"/>
</svg>
