<svg width="17" height="17" viewBox="0 0 17 17" fill="none" xmlns="http://www.w3.org/2000/svg">
<path d="M13.8058 3.19496C10.8792 0.268346 6.12157 0.268346 3.19496 3.19496C0.268346 6.12158 0.268346 10.8821 3.19496 13.8058C4.6568 15.2676 6.57858 16 8.50036 16C10.4221 16 12.3439 15.2676 13.8058 13.8058C16.7324 10.8792 16.7324 6.12158 13.8058 3.19496ZM13.3019 13.3019C10.6536 15.9502 6.34715 15.9473 3.70177 13.3019C1.05346 10.6536 1.05346 6.34715 3.70177 3.70177C5.023 2.37762 6.76314 1.71554 8.50036 1.71554C10.2376 1.71554 11.9777 2.37762 13.3019 3.70177C15.9473 6.34715 15.9473 10.6536 13.3019 13.3019Z" fill="#FFB27D" stroke="#FFB27D" stroke-width="0.4"/>
<path d="M8.50035 4.21082C8.30407 4.21082 8.14294 4.37194 8.14294 4.56822V9.30236C8.14294 9.49864 8.30407 9.65977 8.50035 9.65977C8.69663 9.65977 8.85775 9.49864 8.85775 9.30236V4.56822C8.85775 4.37194 8.69663 4.21082 8.50035 4.21082Z" fill="#FFB27D" stroke="#FFB27D" stroke-width="0.4"/>
<path d="M8.50035 11.0895C8.30407 11.0895 8.14294 11.2506 8.14294 11.4469V12.4283C8.14294 12.6246 8.30407 12.7857 8.50035 12.7857C8.69663 12.7857 8.85775 12.6246 8.85775 12.4283V11.4469C8.85775 11.2506 8.69663 11.0895 8.50035 11.0895Z" fill="#FFB27D" stroke="#FFB27D" stroke-width="0.4"/>
</svg>
