<svg width="17" height="17" viewBox="0 0 17 17" fill="none" xmlns="http://www.w3.org/2000/svg">
<path d="M8.5 1C7.01664 1 5.5666 1.43987 4.33323 2.26398C3.09986 3.08809 2.13856 4.25943 1.57091 5.62987C1.00325 7.00032 0.854725 8.50832 1.14411 9.96318C1.4335 11.418 2.14781 12.7544 3.1967 13.8033C4.2456 14.8522 5.58197 15.5665 7.03683 15.8559C8.49168 16.1453 9.99968 15.9968 11.3701 15.4291C12.7406 14.8614 13.9119 13.9001 14.736 12.6668C15.5601 11.4334 16 9.98336 16 8.5C15.9978 6.51154 15.207 4.60515 13.8009 3.1991C12.3949 1.79304 10.4885 1.00217 8.5 1V1ZM8.5 15.5312C7.10935 15.5312 5.74993 15.1189 4.59365 14.3463C3.43737 13.5737 2.53615 12.4755 2.00398 11.1907C1.4718 9.90595 1.33255 8.4922 1.60386 7.12827C1.87516 5.76434 2.54482 4.51149 3.52816 3.52816C4.5115 2.54482 5.76435 1.87516 7.12827 1.60385C8.4922 1.33255 9.90595 1.47179 11.1907 2.00397C12.4755 2.53615 13.5737 3.43736 14.3463 4.59365C15.1189 5.74993 15.5313 7.10935 15.5313 8.5C15.5291 10.3641 14.7876 12.1513 13.4694 13.4694C12.1513 14.7876 10.3641 15.5291 8.5 15.5312Z" fill="#68C2D0" stroke="#68C2D0" stroke-width="0.3"/>
<path d="M11.616 4.0467C11.5652 4.01123 11.5023 3.99736 11.4413 4.00813C11.3802 4.01889 11.3259 4.05341 11.2903 4.10412L8.50002 8.09084L5.70978 4.09826C5.6742 4.04729 5.61982 4.01254 5.55862 4.00166C5.49741 3.99079 5.43439 4.00467 5.38342 4.04025C5.33245 4.07584 5.2977 4.13022 5.28682 4.19142C5.27594 4.25263 5.28982 4.31565 5.32541 4.36662L8.21408 8.49982L5.32541 12.633C5.29006 12.684 5.27638 12.747 5.28736 12.808C5.29835 12.8691 5.3331 12.9233 5.384 12.9588C5.42319 12.9862 5.46981 13.0009 5.5176 13.001C5.55528 13.0011 5.59242 12.992 5.62588 12.9747C5.65934 12.9574 5.68812 12.9322 5.70978 12.9014L8.50002 8.90881L11.2903 12.9014C11.3119 12.9322 11.3407 12.9574 11.3742 12.9747C11.4076 12.992 11.4448 13.0011 11.4824 13.001C11.5302 13.0009 11.5768 12.9862 11.616 12.9588C11.6669 12.9233 11.7017 12.8691 11.7127 12.808C11.7237 12.747 11.71 12.684 11.6746 12.633L8.78596 8.49982L11.6746 4.36662C11.7082 4.31608 11.7208 4.2545 11.7099 4.19484C11.6989 4.13518 11.6653 4.08208 11.616 4.0467Z" fill="#68C2D0" stroke="#68C2D0" stroke-width="0.3"/>
</svg>
