<svg width="15" height="10" fill="none" xmlns="http://www.w3.org/2000/svg"><path fill-rule="evenodd" clip-rule="evenodd" d="M2.838 7.717C.898 6.572 0 5 0 5s2.222-3.889 7.222-3.889a8.93 8.93 0 012.001.222l-.472.472a8.393 8.393 0 00-1.529-.138C2.778 1.667.667 5 .667 5s.841 1.329 2.58 2.308l-.409.41zm2.383.95a8.93 8.93 0 002.001.222c5 0 7.222-3.889 7.222-3.889s-.898-1.572-2.838-2.717l-.409.409c1.74.98 2.58 2.308 2.58 2.308s-2.11 3.333-6.555 3.333c-.544 0-1.054-.05-1.529-.138l-.472.472zm4.167-4.166a2.222 2.222 0 01-2.665 2.665l.5-.5A1.661 1.661 0 008.89 5l.498-.498zM7.721 2.834A2.222 2.222 0 005.056 5.5l.5-.499c0-.427.162-.853.488-1.179a1.661 1.661 0 011.178-.488l.5-.499zM11.667 0L2.222 9.444l.556.556L12.222.556 11.667 0z" fill="#7A7A7A"/></svg>