<svg width="15" height="9" fill="none" xmlns="http://www.w3.org/2000/svg"><path d="M7.282 8.4c3.911 0 7.006-3.85 7.136-4.014l.147-.186-.147-.186C14.288 3.85 11.193 0 7.283 0 3.371 0 .276 3.85.146 4.014L0 4.2l.147.186C.277 4.55 3.372 8.4 7.282 8.4zm0-7.8c3.149 0 5.841 2.838 6.508 3.6-.666.763-3.355 3.6-6.507 3.6-3.149 0-5.841-2.838-6.508-3.6C1.442 3.437 4.13.6 7.282.6z" fill="#0E80A4"/><path d="M7.283 6.9c1.488 0 2.7-1.211 2.7-2.7s-1.212-2.7-2.7-2.7a2.703 2.703 0 00-2.7 2.7c0 1.489 1.21 2.7 2.7 2.7zm0-4.8c1.157 0 2.1.942 2.1 2.1 0 1.158-.943 2.1-2.1 2.1-1.158 0-2.1-.942-2.1-2.1 0-1.158.942-2.1 2.1-2.1z" fill="#0E80A4"/></svg>