<svg width="32" height="26" fill="none" xmlns="http://www.w3.org/2000/svg"><path d="M11.426 19.497c-.506-.84-1.19-1.47-1.953-2.05-.79-.601-1.651-1.221-2.59-1.533-.87-.287-1.942-.173-2.804.094-.834.257-1.433.775-1.749 1.625-.317.853-.392 1.69.296 2.365.63.617 1.562 1.019 2.416 1.087.255.02.922.065 1.103-.164.21-.264.144-.992.078-1.283-.184-.822-1.009-1.504-1.707-.812-.72.71-1.686-.558-.973-1.263.785-.777 2.005-.827 2.912-.223.912.606 1.352 1.709 1.353 2.797 0 1.113-.348 2.094-1.446 2.413-1.052.306-2.2.114-3.197-.337-.941-.427-1.854-1.092-2.336-2.062-.496-1-.297-2.224.095-3.218.862-2.187 3.191-2.9 5.314-2.766 1.322.084 2.539.845 3.614 1.601 1.055.742 2.093 1.596 2.776 2.732.527.872-.672 1.878-1.202.997z" fill="#497FA0"/><path d="M30.721 10.43c.204 1.945-.527 3.599-1.634 3.688-1.108.093-2.172-1.409-2.376-3.354-.203-1.945.528-3.595 1.635-3.688 1.107-.091 2.172 1.409 2.375 3.354z" fill="#0E80A4"/><path d="M9.264 12.2c0 5.442 4.553 9.088 10.086 9.088 5.534 0 9.827-2.9 9.943-9.088.104-5.44-4.484-9.855-10.013-9.855-5.533 0-10.016 4.413-10.016 9.855z" fill="#0E80A4"/><path d="M21.846 2.861c-.03-.493-2.906-.552-3.593-2.32a2.212 2.212 0 01-.13-.516 3.293 3.293 0 00-2.181 2.316 1.45 1.45 0 01-.899-1.415c-.246.207-.53.502-.77.9-.74 1.245-.477 2.57-.383 2.962 6.545-.996 7.979-1.575 7.956-1.927z" fill="#0E80A4"/><path d="M14.743 16.581c.557 2.54 3.933 3.954 7.54 3.157 3.61-.797 6.082-3.502 5.525-6.038-.557-2.54-3.933-3.954-7.544-3.157-3.603.793-6.08 3.498-5.521 6.038z" fill="#fff"/><path d="M13.5 11.912c.437 2.3 2.463 3.736 4.528 3.206 2.066-.529 3.387-2.822 2.95-5.121-.437-2.3-2.465-3.736-4.528-3.207-2.065.53-3.387 2.822-2.95 5.122z" fill="#fff"/><path d="M26.137 8.655c.437 2.3-.754 4.559-2.656 5.047-1.902.489-3.8-.981-4.234-3.28-.437-2.3.754-4.56 2.655-5.048 1.902-.488 3.798.977 4.235 3.281z" fill="#fff"/><path d="M10.749 17.408c-.644.133-1.32-.207-1.894-.885-.573-.677-1.036-1.681-1.25-2.857-.215-1.175-.138-2.292.155-3.147.294-.857.802-1.442 1.446-1.576.643-.132 1.319.207 1.893.886.574.676 1.036 1.68 1.25 2.855.217 1.175.141 2.292-.152 3.149-.294.86-.802 1.444-1.448 1.575z" fill="#0E80A4" stroke="#fff" stroke-width=".7"/><path d="M9.142 13.574c1.412 2.844 1.617 4.962 2.58 4.684.966-.277 1.224-3.303.91-5.691-.31-2.388-2.412-4.014-2.745-3.68-.334 0-1.055 2.3-.745 4.687zm15.323 3.176c-.127.147-1.467 1.65-3.84 1.617-1.702-.023-3.293-.83-4.148-2.096.327.268 1.809 1.419 4.117 1.493 2.062.07 3.477-.764 3.871-1.015zm-4.218-1.957c.116.06.548.262 1.094.141a1.68 1.68 0 00.938-.589 7.284 7.284 0 01-2.032.448z" fill="#0E80A4"/><path d="M29.394 12.356c.088-.048.207.014.215.146l.477 8.888c.003.076-.035.145-.093.174l-7.87 3.929-.002.001a.122.122 0 01-.1.007h-.001l-8.348-2.838h-.002c-.058-.02-.104-.08-.109-.16l-.477-8.893a.186.186 0 01.06-.153.13.13 0 01.135-.028h.002l8.318 2.906h.002a.242.242 0 00.191-.014l7.602-3.965z" fill="#0E80A4" stroke="#fff" stroke-width=".8"/><path d="M21.853 24.977l-.41-7.944.604-.177.35 7.796-.544.325z" fill="#fff"/><path d="M13.865 13.234l-.043.378-.022-.022-.049-.354v-.293l6.15 2.45-6-2.18-.032-.012-.004.033zm15.114-.672l-.26-.79-6.118 3.802 6.124-3.364.023-.013.014.024.202.342h.015v-.001z" fill="#0E80A4" stroke="#fff" stroke-width=".4"/><path d="M15.764 20.708c.013.677-.872 1.239-1.975 1.26-1.1.02-2.006-.512-2.02-1.19-.009-.676.872-1.238 1.975-1.258 1.105-.019 2.009.513 2.02 1.188z" fill="#0E80A4"/><path d="M14.99 20.722c.006.411-.535.756-1.21.77-.673.013-1.224-.316-1.233-.727-.007-.412.534-.757 1.207-.77.674-.01 1.225.315 1.236.727z" fill="#fff"/><path d="M16.07 19.256c.013.79-1.017 1.445-2.303 1.47-1.288.023-2.339-.6-2.355-1.386-.013-.787 1.017-1.446 2.303-1.47 1.288-.023 2.341.6 2.355 1.386z" fill="#0E80A4"/><path d="M15.166 19.273c.007.482-.62.884-1.408.898-.788.013-1.431-.366-1.438-.848-.01-.481.62-.883 1.408-.897.784-.013 1.428.364 1.438.847z" fill="#fff"/><path d="M15.383 17.933c.014.676-.87 1.239-1.974 1.26-1.1.02-2.006-.512-2.02-1.19 0-.029 0-.06.005-.09.066-.632.917-1.148 1.968-1.168 1.107-.019 2.008.513 2.021 1.188z" fill="#0E80A4"/><path d="M14.605 17.947c.007.411-.534.756-1.207.77-.503.01-1.137-.248-1.225-.639a.404.404 0 01-.01-.086c.007-.385.655-.76 1.208-.77.677-.011 1.227.313 1.234.725z" fill="#fff"/><path d="M13.014 15.64c-.22.105-.931.43-1.311 1.135-.274.505-.31.981-.31 1.229.53-.398 1.057-.797 1.588-1.198-.027-.384.057-.777.033-1.165z" fill="#0E80A4"/><path d="M12.78 17.479c-.193.227-.387.452-.58.676-.027-.08-.19-.613.02-1.168.177-.472.505-.643.58-.676-.256.435-.32.87-.193 1.06.03.041.076.087.173.108z" fill="#fff"/><path d="M27.5 18.751c.048.675.974 1.162 2.076 1.088 1.101-.073 1.956-.683 1.909-1.356-.047-.673-.974-1.161-2.072-1.088-1.102.073-1.96.68-1.913 1.356z" fill="#0E80A4"/><path d="M28.273 18.697c.027.411.594.71 1.268.663.67-.043 1.195-.415 1.168-.827-.027-.411-.593-.71-1.268-.663-.674.043-1.194.415-1.168.827z" fill="#fff"/><path d="M27.073 17.328c.054.787 1.134 1.357 2.418 1.269 1.285-.087 2.283-.798 2.229-1.584-.053-.786-1.137-1.356-2.419-1.268-1.284.09-2.28.797-2.228 1.583z" fill="#0E80A4"/><path d="M27.974 17.268c.034.482.693.827 1.478.773.784-.055 1.395-.486 1.361-.968-.034-.482-.693-.827-1.478-.773-.784.054-1.39.486-1.361.968z" fill="#fff"/><path d="M27.513 15.952c.047.677.973 1.161 2.071 1.088 1.101-.073 1.955-.682 1.91-1.355 0-.03-.008-.06-.01-.09-.12-.627-1.01-1.064-2.063-.994-1.102.07-1.956.676-1.908 1.351z" fill="#0E80A4"/><path d="M28.285 15.9c.027.41.594.708 1.268.662.503-.034 1.112-.34 1.165-.74a.324.324 0 00.003-.087c-.04-.381-.717-.702-1.267-.663-.675.043-1.194.414-1.169.827z" fill="#fff"/><path d="M29.722 13.456a2.62 2.62 0 011.357 1.026c.317.48.392.953.414 1.198-.56-.352-1.12-.707-1.682-1.059a7.584 7.584 0 01-.089-1.165z" fill="#0E80A4"/><path d="M30.065 15.277l.634.626c.02-.08.136-.626-.12-1.161-.218-.455-.558-.596-.634-.625.294.411.393.84.28 1.04a.268.268 0 01-.16.12z" fill="#fff"/><path d="M18.756 12.173c.093.707-.347 1.346-.98 1.43-.635.084-1.222-.423-1.312-1.128-.093-.707.347-1.345.98-1.43.632-.083 1.223.422 1.312 1.128z" fill="#0E80A4"/><path d="M17.48 11.55c.041.298-.146.566-.41.6-.266.034-.513-.177-.55-.475-.04-.298.147-.566.41-.6.268-.034.514.178.55.475z" fill="#fff"/><path d="M24.645 10.964c.09.707-.347 1.346-.98 1.43-.635.083-1.221-.423-1.312-1.13-.093-.706.347-1.345.978-1.429.634-.082 1.22.424 1.314 1.13z" fill="#0E80A4"/><path d="M23.474 10.212c.04.298-.147.566-.41.6-.267.033-.514-.178-.55-.475-.04-.298.147-.566.41-.6.263-.034.51.177.55.475zm-9.632 2.986v.406l.472.135-.203-.406-.27-.135z" fill="#fff"/><path d="M13.868 13.382l4.015 1.5 3.51 1.333-7.361-2.681-.164-.152z" fill="#0E80A4"/><path d="M27.263 12.995l-4.317 2.639 3.305-1.692 2.698-1.353-.202-.406-1.484.812z" fill="#fff"/><path d="M28.714 12.396l-3.76 2.058-3.289 1.818 6.909-3.7.14-.175z" fill="#0E80A4"/></svg>