<svg width="177" height="26" fill="none" xmlns="http://www.w3.org/2000/svg"><path d="M11.426 19.497c-.506-.84-1.19-1.47-1.953-2.05-.79-.601-1.651-1.221-2.59-1.533-.87-.287-1.942-.173-2.804.094-.834.257-1.433.775-1.749 1.625-.317.853-.392 1.69.296 2.365.63.617 1.562 1.019 2.416 1.087.255.02.922.065 1.103-.164.21-.264.144-.992.078-1.283-.184-.822-1.009-1.504-1.707-.812-.72.71-1.686-.558-.973-1.263.785-.777 2.005-.827 2.912-.223.912.606 1.352 1.709 1.353 2.797 0 1.113-.348 2.094-1.446 2.413-1.052.306-2.2.114-3.197-.337-.941-.427-1.854-1.092-2.336-2.062-.496-1-.297-2.224.095-3.218.862-2.187 3.191-2.9 5.314-2.766 1.322.084 2.539.845 3.614 1.601 1.055.742 2.093 1.596 2.776 2.732.527.872-.672 1.878-1.202.997z" fill="#497FA0"/><path d="M30.721 10.43c.204 1.945-.527 3.599-1.634 3.688-1.108.093-2.172-1.409-2.376-3.354-.203-1.945.528-3.595 1.635-3.688 1.107-.091 2.172 1.409 2.375 3.354z" fill="#0E80A4"/><path d="M9.264 12.2c0 5.442 4.553 9.088 10.086 9.088 5.534 0 9.827-2.9 9.943-9.088.104-5.44-4.484-9.855-10.013-9.855-5.533 0-10.016 4.413-10.016 9.855z" fill="#0E80A4"/><path d="M21.846 2.861c-.03-.493-2.906-.552-3.593-2.32a2.215 2.215 0 01-.13-.516 3.293 3.293 0 00-2.181 2.316 1.45 1.45 0 01-.898-1.415 3.62 3.62 0 00-.77.9c-.741 1.245-.478 2.57-.384 2.962 6.545-.996 7.979-1.575 7.956-1.927z" fill="#0E80A4"/><path d="M14.743 16.581c.557 2.54 3.933 3.954 7.54 3.157 3.61-.797 6.082-3.502 5.525-6.038-.557-2.54-3.933-3.954-7.544-3.157-3.603.793-6.08 3.498-5.521 6.038z" fill="#fff"/><path d="M13.5 11.912c.437 2.3 2.463 3.736 4.529 3.206 2.065-.529 3.387-2.822 2.95-5.121-.438-2.3-2.466-3.736-4.529-3.207-2.065.53-3.387 2.822-2.95 5.122z" fill="#fff"/><path d="M26.137 8.655c.437 2.3-.754 4.559-2.656 5.047-1.902.489-3.8-.981-4.234-3.28-.437-2.3.754-4.56 2.655-5.048 1.902-.488 3.798.977 4.235 3.281z" fill="#fff"/><path d="M10.749 17.408c-.644.133-1.32-.207-1.894-.885-.573-.677-1.036-1.681-1.25-2.857-.215-1.175-.138-2.292.155-3.147.294-.857.802-1.442 1.446-1.576.643-.132 1.319.207 1.894.886.573.676 1.036 1.68 1.25 2.855.216 1.175.14 2.292-.152 3.149-.295.86-.803 1.444-1.45 1.575z" fill="#0E80A4" stroke="#fff" stroke-width=".7"/><path d="M9.142 13.574c1.412 2.844 1.617 4.962 2.58 4.684.966-.277 1.224-3.303.91-5.691-.31-2.388-2.412-4.014-2.745-3.68-.334 0-1.055 2.3-.745 4.687zm15.323 3.176c-.127.147-1.467 1.65-3.84 1.617-1.702-.023-3.293-.83-4.148-2.096.327.268 1.809 1.419 4.117 1.493 2.062.07 3.477-.764 3.871-1.015zm-4.218-1.957c.116.06.548.262 1.094.141a1.68 1.68 0 00.938-.589 7.29 7.29 0 01-2.032.448z" fill="#0E80A4"/><path d="M29.394 12.356c.088-.048.207.014.215.146l.477 8.888c.003.076-.035.145-.093.174l-7.87 3.929-.002.001a.122.122 0 01-.1.007h-.001l-8.348-2.838h-.002c-.058-.02-.104-.08-.109-.16l-.477-8.893a.186.186 0 01.06-.153.13.13 0 01.135-.028h.002l8.318 2.906h.002a.242.242 0 00.191-.014l7.602-3.965z" fill="#0E80A4" stroke="#fff" stroke-width=".8"/><path d="M21.853 24.977l-.41-7.944.604-.177.35 7.796-.544.325z" fill="#fff"/><path d="M13.865 13.234l-.044.378-.021-.022-.049-.354v-.293l6.15 2.45-6-2.18-.032-.012-.004.033zm15.114-.672l-.26-.79-6.118 3.802 6.124-3.364.023-.013.014.024.202.342h.015v-.001z" fill="#0E80A4" stroke="#fff" stroke-width=".4"/><path d="M15.764 20.708c.013.677-.872 1.239-1.975 1.26-1.1.02-2.006-.512-2.02-1.19-.009-.676.872-1.238 1.975-1.258 1.105-.019 2.009.513 2.02 1.188z" fill="#0E80A4"/><path d="M14.99 20.722c.006.411-.535.756-1.21.77-.673.013-1.224-.316-1.233-.727-.007-.412.534-.757 1.207-.77.674-.01 1.225.315 1.236.727z" fill="#fff"/><path d="M16.07 19.256c.013.79-1.017 1.445-2.303 1.47-1.288.023-2.339-.6-2.355-1.386-.013-.787 1.017-1.446 2.303-1.47 1.288-.023 2.341.6 2.355 1.386z" fill="#0E80A4"/><path d="M15.166 19.273c.007.482-.62.884-1.408.898-.788.013-1.431-.366-1.438-.848-.01-.481.62-.883 1.409-.897.783-.013 1.427.364 1.437.847z" fill="#fff"/><path d="M15.383 17.933c.014.676-.87 1.239-1.974 1.26-1.1.02-2.006-.512-2.02-1.19 0-.029 0-.06.005-.09.066-.632.917-1.148 1.968-1.168 1.107-.019 2.008.513 2.021 1.188z" fill="#0E80A4"/><path d="M14.605 17.947c.007.411-.534.756-1.207.77-.503.01-1.137-.248-1.225-.639-.004-.02-.01-.047-.01-.086.007-.385.655-.76 1.208-.77.677-.011 1.227.313 1.234.725z" fill="#fff"/><path d="M13.014 15.64c-.22.105-.931.43-1.311 1.135-.274.505-.31.981-.31 1.229.53-.398 1.057-.797 1.588-1.198-.027-.384.057-.777.033-1.165z" fill="#0E80A4"/><path d="M12.78 17.479c-.193.227-.387.452-.58.676-.027-.08-.19-.613.02-1.168.177-.472.505-.643.58-.676-.256.435-.32.87-.193 1.06.03.041.076.087.173.108z" fill="#fff"/><path d="M27.5 18.751c.048.675.974 1.162 2.076 1.088 1.101-.073 1.956-.683 1.909-1.356-.047-.673-.974-1.161-2.072-1.088-1.102.073-1.96.68-1.913 1.356z" fill="#0E80A4"/><path d="M28.273 18.697c.027.411.594.71 1.268.663.67-.043 1.195-.415 1.168-.827-.027-.411-.593-.71-1.268-.663-.674.043-1.194.415-1.168.827z" fill="#fff"/><path d="M27.073 17.328c.054.787 1.134 1.357 2.418 1.269 1.285-.087 2.283-.798 2.229-1.584-.053-.786-1.137-1.356-2.419-1.268-1.284.09-2.28.797-2.228 1.583z" fill="#0E80A4"/><path d="M27.974 17.268c.034.482.693.827 1.478.773.784-.055 1.395-.486 1.361-.968-.034-.482-.693-.827-1.478-.773-.784.054-1.39.486-1.361.968z" fill="#fff"/><path d="M27.513 15.952c.047.677.973 1.161 2.071 1.088 1.101-.073 1.955-.682 1.91-1.355 0-.03-.008-.06-.01-.09-.12-.627-1.01-1.064-2.063-.994-1.102.07-1.956.676-1.908 1.351z" fill="#0E80A4"/><path d="M28.285 15.9c.027.41.594.708 1.268.662.503-.034 1.112-.34 1.164-.74a.32.32 0 00.004-.087c-.04-.381-.717-.702-1.268-.663-.674.043-1.193.414-1.168.827z" fill="#fff"/><path d="M29.722 13.456a2.62 2.62 0 011.357 1.026c.317.48.392.953.414 1.198-.56-.352-1.12-.707-1.682-1.059a7.533 7.533 0 01-.089-1.165z" fill="#0E80A4"/><path d="M30.065 15.277l.634.626c.02-.08.136-.626-.12-1.161-.218-.455-.558-.596-.634-.625.294.411.393.84.28 1.04a.268.268 0 01-.16.12z" fill="#fff"/><path d="M18.756 12.173c.093.707-.347 1.346-.981 1.43-.634.084-1.22-.423-1.311-1.128-.093-.707.347-1.345.98-1.43.632-.083 1.223.422 1.312 1.128z" fill="#0E80A4"/><path d="M17.48 11.55c.041.298-.146.566-.41.6-.266.034-.513-.177-.55-.475-.04-.298.148-.566.41-.6.268-.034.514.178.55.475z" fill="#fff"/><path d="M24.645 10.964c.09.707-.347 1.346-.98 1.43-.635.083-1.221-.423-1.312-1.13-.093-.706.347-1.345.978-1.429.634-.082 1.22.424 1.314 1.13z" fill="#0E80A4"/><path d="M23.474 10.212c.04.298-.147.566-.41.6-.267.033-.514-.178-.55-.475-.04-.298.147-.566.41-.6.263-.034.51.177.55.475zm-9.632 2.986v.406l.472.135-.203-.406-.27-.135z" fill="#fff"/><path d="M13.868 13.382l4.015 1.5 3.51 1.333-7.361-2.681-.164-.152z" fill="#0E80A4"/><path d="M27.263 12.995l-4.316 2.639 3.304-1.692 2.698-1.353-.202-.406-1.484.812z" fill="#fff"/><path d="M28.714 12.396l-3.76 2.058-3.289 1.818 6.909-3.7.14-.175zm81.404 9.072l-1.309-1.817c-.608 1.817-1.689 2.23-2.479 2.23-1.34 0-1.55-1.206-1.55-1.909v-9.098h-4.776v2.868h1.367v6.183c-.593 1.74-2.055 2.244-3.028 2.244-1.34 0-1.87-1.023-1.87-1.909v-6.5h1.688v-2.885h-1.689V5.104L93.064 7.15v3.74h-1.37v2.868h1.37v3.954c-1.127 2.274-3.53 4.886-6.362 4.886-3.12 0-4.459-1.876-4.459-4.276 0-3.693 2.131-5.006 3.88-5.006.668 0 1.079.199 1.079.199v2.167h2.89v-4.87s-1.46-.473-3.151-.473c-7.41 0-8.232 5.879-8.232 8.075 0 .473.047 1.007.151 1.572-.395 1.543-1.218 1.876-1.81 1.876-1.278 0-1.278-1.254-1.278-1.527v-9.433c0-.03-2.328-.61-4.29-.61-6.558 0-8.69 4.565-8.69 8.654 0 1.405.578 6.58 5.432 6.58 1.902 0 3.697-.9 4.61-2.458 0 0 .06-.091.091-.091.03 0 .03.031.06.09.257 1.146 1.249 2.23 2.89 2.23 2.373 0 3.637-1.48 4.14-2.519 1.08 1.51 2.952 2.702 6.1 2.702 3.485 0 5.539-1.817 6.97-3.45.289 1.982 1.736 3.387 4.275 3.387 2.42 0 3.865-.869 4.658-1.785.669.992 1.795 1.65 3.301 1.65 3.44 0 4.869-2.777 4.869-3.542.036-.106-.07-.272-.07-.272zm-37.69-2.871c0 1.634-1.202 3.511-3.377 3.511-2.65 0-2.678-2.809-2.678-3.633 0-4.09 2.891-5.266 4.457-5.266 1.142 0 1.597.199 1.597.199v5.189zM44.023 5.103H32.869v3.16h2.602v16.655h3.91v-6.58h4.67c1.902 0 7.608-.198 7.608-6.64 0-6.595-4.869-6.595-7.636-6.595zm-.169 10.121c-.7 0-4.488-.031-4.488-.031v-6.93h4.701c1.431 0 3.622.031 3.622 3.388.015 3.404-2.846 3.573-3.835 3.573z" fill="#0E80A4"/><path d="M173.946 18.184a9.797 9.797 0 01-1.735 2.87c-.76.87-1.582 1.314-2.451 1.314-.791 0-1.522-.29-2.206-.87a6.283 6.283 0 01-1.644-2.06 6.042 6.042 0 003.103-1.923c.838-.96 1.263-2.03 1.263-3.221 0-1.159-.364-2.106-1.095-2.84-.748-.733-1.705-1.083-2.907-1.083-2.527 0-4.412 1.33-5.69 3.984v-9.25h-4.701v2.868h1.309v13.661a2.253 2.253 0 01-1.036.258c-1.34 0-1.597-1.146-1.597-1.816v-5.173c0-3.006-2.068-4.335-4.55-4.335-2.771 0-4.002 1.633-4.002 1.633-.059.091-.091.123-.121.123-.033 0-.033-.059-.033-.09V10.89h-4.732v2.87h1.522v5.986c-.609 1.74-1.673 2.137-2.45 2.137-1.34 0-1.553-1.206-1.553-1.909v-9.098h-4.777v2.868h1.367v6.09c-.591 1.665-1.643 2.046-2.417 2.046-1.311 0-1.599-1.206-1.599-1.908v-5.069c0-3.006-2.068-4.335-4.578-4.335-2.768 0-3.97 1.633-3.97 1.633V5.105h-16.981a3.4 3.4 0 01.731 2.106c0 .352-.059.703-.151 1.023h3.835v10.884s.913 1.237 1.186 1.665c.106.166.288.534.288.976 0 .793-.502 1.954-1.476 2.931v.23h3.911V8.237h5.278V24.92h3.409v-7.464c0-1.985 1.11-3.694 3.087-3.694.443 0 2.101.258 2.101 2.106v5.525c0 2.106 1.49 3.922 4 3.922 1.902 0 3.196-.885 3.958-1.785.653 1.068 1.826 1.785 3.392 1.785 1.522 0 2.645-.55 3.44-1.22v.84h3.407v-7.48c0-1.985 1.08-3.694 3.059-3.694.473 0 2.1.258 2.1 2.106v5.525c0 2.106 1.491 3.922 3.973 3.922.776 0 1.459-.151 2.04-.382h3.377c0-4.212.213-5.449.412-6.243.319-1.404.881-2.657 1.656-3.725.776-1.068 1.673-1.619 2.692-1.619 1.052 0 1.689.642 1.689 1.619 0 1.405-1.233 2.594-4.487 3.585.091.718.837 2.55 1.627 3.65 1.46 2.03 3.12 3.114 5.16 3.114 1.157 0 2.207-.337 3.179-1.023 1.95-1.373 2.891-3.099 3.499-4.977l-2.111-1.13zm-111.15-1.892v-5.663c-.198-.123-.79-.152-1.08-.152-3.729-.015-5.477 2.733-5.555 2.823-.06.093-.09.124-.122.124-.06 0-.06-.123-.06-.123v-2.427h-3.21v14.04h3.408v-5.203c0-.642.092-2.657 1.112-4.09.577-.794 1.431-1.559 2.65-1.559v2.23h2.857z" fill="#0E80A4"/><path d="M136.821 9.346c1.143 0 2.099-.961 2.099-2.137 0-1.147-.956-2.106-2.099-2.106-1.171 0-2.1.96-2.1 2.106 0 1.177.913 2.137 2.1 2.137zm-33.855 0c1.143 0 2.1-.961 2.1-2.137 0-1.147-.957-2.106-2.1-2.106a2.108 2.108 0 00-2.101 2.106c0 1.177.93 2.137 2.101 2.137z" fill="#0E80A4"/></svg>