<svg width="69" height="65" fill="none" xmlns="http://www.w3.org/2000/svg"><path d="M55.008 42.975a3.438 3.438 0 100-6.876 3.438 3.438 0 000 6.876zm0 20.627a3.438 3.438 0 100-6.875 3.438 3.438 0 000 6.876z" fill="#EDEDED"/><path d="M27.504 13.752c0 1.9-1.539 3.438-3.438 3.438H3.438a3.437 3.437 0 110-6.876h20.628c1.9 0 3.438 1.538 3.438 3.438z" fill="#F0F0F0"/><path d="M68.76 13.752c0 1.9-1.539 3.438-3.439 3.438H44.695a3.437 3.437 0 110-6.876H65.32c1.9 0 3.439 1.538 3.439 3.438z" fill="#369CB7"/><path d="M13.752 27.504a3.437 3.437 0 01-3.438-3.438V3.438c0-1.9 1.538-3.438 3.438-3.438 1.9 0 3.438 1.538 3.438 3.438v20.628c0 1.9-1.539 3.438-3.438 3.438zM68.76 49.85c0 1.9-1.539 3.439-3.439 3.439H44.695a3.437 3.437 0 01-3.438-3.438c0-1.9 1.538-3.438 3.438-3.438H65.32c1.9 0 3.439 1.538 3.439 3.438z" fill="#EDEDED"/><path d="M25.49 63.308a3.437 3.437 0 01-4.862 0L2.015 44.694a3.437 3.437 0 114.86-4.86L25.49 58.445a3.437 3.437 0 010 4.862z" fill="#369CB7"/><path d="M2.015 63.308a3.437 3.437 0 010-4.862l18.613-18.613a3.437 3.437 0 114.861 4.861L6.876 63.308a3.437 3.437 0 01-4.861 0z" fill="#369CB7"/></svg>