<svg width="49" height="49" fill="none" xmlns="http://www.w3.org/2000/svg"><path d="M24.5 48C37.479 48 48 37.479 48 24.5S37.479 1 24.5 1 1 11.521 1 24.5 11.521 48 24.5 48z" stroke="#9DD765" stroke-width="2" stroke-miterlimit="10"/><path d="M14.283 33.696s9.022 9.533 20.435 0" stroke="#9DD765" stroke-width="2" stroke-miterlimit="10" stroke-linecap="round"/><path d="M17.348 23.478c1.693 0 3.066-1.83 3.066-4.087 0-2.257-1.373-4.087-3.066-4.087-1.693 0-3.065 1.83-3.065 4.087 0 2.257 1.372 4.087 3.065 4.087zm14.304 0c1.693 0 3.065-1.83 3.065-4.087 0-2.257-1.372-4.087-3.065-4.087-1.693 0-3.066 1.83-3.066 4.087 0 2.257 1.373 4.087 3.066 4.087z" fill="#9DD765"/></svg>