<svg width="10" height="14" viewBox="0 0 10 14" fill="none" xmlns="http://www.w3.org/2000/svg">
<path d="M0 0V13.2993H6.13812C7.88235 13.2993 9.20719 11.6441 9.20719 9.7187C9.20719 8.15729 8.32892 6.7893 7.06923 6.32195C7.75151 5.65641 8.18417 4.66817 8.18417 3.58057C8.18417 1.65521 6.85933 0 5.1151 0H0ZM1.02302 1.02302H2.04604H3.06906H5.1151C6.19587 1.02302 7.16114 2.11594 7.16114 3.58057C7.16114 5.0452 6.19587 6.13812 5.1151 6.13812H1.02302V1.02302ZM1.02302 7.16114H2.04604H3.06906H5.1151H6.13812C7.21889 7.16114 8.18417 8.25407 8.18417 9.7187C8.18417 11.1833 7.21889 12.2762 6.13812 12.2762H1.02302V7.16114Z" fill="#5A5A5A"/>
</svg>
