<svg width="7" height="17" viewBox="0 0 7 17" fill="none" xmlns="http://www.w3.org/2000/svg">
<path d="M0.59212 1.26469L0.41626 1.46474L0.26902 1.68442L0.15229 1.92378L0.06604 2.17711L0.01688 2.44172L0 2.70896L0.0913601 14.3688L0.11349 14.6491L0.17164 14.9267L0.26956 15.1936L0.40058 15.4471L0.56371 15.6805L0.75701 15.8899L0.97761 16.0723L1.21979 16.2239L1.47881 16.3438L1.74889 16.4239L2.02819 16.4682L2.3091 16.4764L2.58874 16.4438L2.85865 16.375L3.11585 16.267L3.35475 16.1271L3.57255 15.9528L3.76365 15.753L3.92315 15.527L4.05025 15.2794L4.14305 15.0158L4.19785 14.7417L4.21465 14.4632L4.14995 6.21281L4.13015 5.98744L4.07245 5.76691L3.97875 5.55506L3.85295 5.36335L3.69895 5.19378L3.51845 5.05019L3.31735 4.93649L3.10135 4.85853L2.87995 4.8165L2.65128 4.81037L2.42762 4.84326L2.21373 4.91244L2.01624 5.0152L1.83608 5.15062L1.68366 5.31419L1.56274 5.50221L1.47231 5.70799L1.41804 5.92598L1.40179 6.15243L1.45564 13.0246L2.14269 13.0401L2.08884 6.168L2.10653 6.00327L2.1651 5.84991L2.25799 5.7163L2.38049 5.60899L2.52792 5.53452L2.68795 5.49923L2.85405 5.50395L3.01385 5.54742L3.16055 5.62667L3.28575 5.73864L3.38165 5.87748L3.43985 6.03443L3.46395 6.20011L3.52855 14.4467L3.51035 14.673L3.45615 14.8911L3.36755 15.0968L3.24475 15.2829L3.09135 15.4475L2.91315 15.5828L2.71565 15.6856L2.49984 15.7547L2.27808 15.7877L2.05033 15.7826L1.82513 15.7404L1.61009 15.6616L1.41185 15.5489L1.23046 15.4062L1.07541 15.2337L0.94961 15.042L0.85783 14.8322L0.80012 14.6116L0.77842 14.3843L0.68705 2.72453L0.70339 2.50947L0.753 2.30181L0.83211 2.10526L0.94358 1.92273L1.08275 1.76265L1.76536 1.09008L1.92748 0.9533L2.11071 0.84547L2.31029 0.76743L2.51772 0.72183L3.32915 0.68721L3.54565 0.70919L3.75575 0.76425L3.95565 0.8523L4.13965 0.9694L4.30595 1.11172L4.99835 1.8145L5.13815 1.9828L5.25255 2.16855L5.33765 2.36977L5.38855 2.57971L5.40645 2.79554L5.48895 13.0809L6.17595 13.0964L6.09345 2.81111L6.07525 2.54212L6.02095 2.27612L5.93265 2.01883L5.81115 1.77503L5.65945 1.54572L5.47945 1.34045L4.78705 0.63768L4.58345 0.4537L4.35745 0.29958L4.11545 0.17452L3.85855 0.08139L3.59435 0.02416L3.32375 0L2.46015 0.03439L2.1939 0.08055L1.9412 0.16119L1.69826 0.27621L1.47548 0.4211L1.27473 0.59212L0.59212 1.26469Z" fill="#5A5A5A"/>
</svg>
