<svg width="18" height="18" viewBox="0 0 18 18" fill="none" xmlns="http://www.w3.org/2000/svg">
<path d="M9 1.375C10.5081 1.375 11.9823 1.8222 13.2362 2.66004C14.4902 3.49789 15.4675 4.68875 16.0446 6.08204C16.6217 7.47533 16.7727 9.00846 16.4785 10.4876C16.1843 11.9667 15.4581 13.3253 14.3917 14.3917C13.3253 15.4581 11.9667 16.1843 10.4876 16.4785C9.00846 16.7727 7.47533 16.6217 6.08204 16.0446C4.68876 15.4675 3.49789 14.4901 2.66005 13.2362C1.8222 11.9823 1.375 10.5081 1.375 9C1.37699 6.97833 2.18097 5.04004 3.61051 3.6105C5.04004 2.18097 6.97834 1.37699 9 1.375V1.375ZM9 1C7.41775 1 5.87103 1.46919 4.55544 2.34824C3.23985 3.22729 2.21447 4.47672 1.60897 5.93853C1.00347 7.40034 0.84504 9.00887 1.15372 10.5607C1.4624 12.1126 2.22433 13.538 3.34315 14.6569C4.46197 15.7757 5.88743 16.5376 7.43928 16.8463C8.99113 17.155 10.5997 16.9965 12.0615 16.391C13.5233 15.7855 14.7727 14.7602 15.6518 13.4446C16.5308 12.129 17 10.5823 17 9C17 6.87827 16.1571 4.84344 14.6569 3.34315C13.1566 1.84285 11.1217 1 9 1V1Z" fill="#5A5A5A" stroke="#5A5A5A" stroke-width="0.3"/>
<path d="M11.6963 8.66638C11.6466 8.66638 11.5989 8.64663 11.5637 8.61146C11.5285 8.5763 11.5088 8.52861 11.5088 8.47888V7.35388C11.5088 7.30415 11.5285 7.25646 11.5637 7.2213C11.5989 7.18614 11.6466 7.16638 11.6963 7.16638C11.746 7.16638 11.7937 7.18614 11.8289 7.2213C11.864 7.25646 11.8838 7.30415 11.8838 7.35388V8.47888C11.8835 8.52851 11.8636 8.57601 11.8285 8.6111C11.7934 8.64619 11.7459 8.66605 11.6963 8.66638V8.66638Z" fill="#5A5A5A" stroke="#5A5A5A" stroke-width="0.3"/>
<path d="M6.30371 8.66638C6.25408 8.66605 6.20658 8.64619 6.17149 8.6111C6.1364 8.57601 6.11654 8.52851 6.11621 8.47888V7.35388C6.11621 7.30415 6.13597 7.25646 6.17113 7.2213C6.20629 7.18614 6.25398 7.16638 6.30371 7.16638C6.35344 7.16638 6.40113 7.18614 6.43629 7.2213C6.47146 7.25646 6.49121 7.30415 6.49121 7.35388V8.47888C6.49121 8.52861 6.47146 8.5763 6.43629 8.61146C6.40113 8.64663 6.35344 8.66638 6.30371 8.66638Z" fill="#5A5A5A" stroke="#5A5A5A" stroke-width="0.3"/>
<path d="M8.99991 12.8513C8.88366 12.8513 8.76616 12.8513 8.64491 12.8388C7.736 12.7717 6.86219 12.4599 6.11616 11.9363C6.09477 11.9231 6.07628 11.9056 6.06179 11.885C6.04729 11.8644 6.03709 11.8412 6.03179 11.8165C6.02649 11.7919 6.0262 11.7665 6.03094 11.7418C6.03568 11.7171 6.04535 11.6935 6.05937 11.6726C6.07339 11.6517 6.09148 11.6339 6.11256 11.6201C6.13363 11.6063 6.15727 11.5969 6.18205 11.5925C6.20683 11.5881 6.23225 11.5887 6.25679 11.5943C6.28134 11.5999 6.3045 11.6104 6.32491 11.6251C7.01516 12.1099 7.82374 12.3989 8.66491 12.4613C9.73432 12.5309 10.7958 12.2362 11.6762 11.6251C11.6962 11.6087 11.7194 11.5966 11.7444 11.5897C11.7693 11.5827 11.7954 11.581 11.8211 11.5846C11.8467 11.5882 11.8713 11.5971 11.8934 11.6107C11.9154 11.6243 11.9344 11.6424 11.9491 11.6637C11.9638 11.685 11.974 11.7091 11.9789 11.7345C11.9838 11.7599 11.9834 11.7861 11.9778 11.8114C11.9721 11.8366 11.9612 11.8605 11.9459 11.8813C11.9306 11.9022 11.9111 11.9196 11.8887 11.9326C11.0401 12.5225 10.0333 12.8427 8.99991 12.8513V12.8513Z" fill="#5A5A5A" stroke="#5A5A5A" stroke-width="0.3"/>
</svg>
