<svg width="11" height="13" viewBox="0 0 11 13" fill="none" xmlns="http://www.w3.org/2000/svg">
<path d="M0.15087 13V0.309999H5.96487C7.32087 0.309999 8.36487 0.603999 9.09687 1.192C9.84087 1.78 10.2129 2.584 10.2129 3.604C10.2129 4.276 10.0449 4.858 9.70887 5.35C9.37287 5.83 8.90487 6.19 8.30487 6.43C9.02487 6.634 9.57687 6.994 9.96087 7.51C10.3569 8.026 10.5549 8.662 10.5549 9.418C10.5549 10.546 10.1589 11.428 9.36687 12.064C8.58687 12.688 7.51887 13 6.16287 13H0.15087ZM2.81487 5.53H5.47887C6.84687 5.53 7.53087 5.002 7.53087 3.946C7.53087 2.902 6.84687 2.38 5.47887 2.38H2.81487V5.53ZM2.81487 10.93H5.78487C6.50487 10.93 7.03287 10.792 7.36887 10.516C7.70487 10.24 7.87287 9.82 7.87287 9.256C7.87287 8.704 7.70487 8.29 7.36887 8.014C7.03287 7.738 6.50487 7.6 5.78487 7.6H2.81487V10.93Z" fill="#2F2F2F"/>
</svg>
