<svg width="20" height="19" viewBox="0 0 20 19" fill="none" xmlns="http://www.w3.org/2000/svg">
<path d="M3.98376 8.31119C3.32678 8.31119 2.79645 8.84152 2.79645 9.4985C2.79645 10.1555 3.32678 10.6858 3.98376 10.6858C4.64074 10.6858 5.17107 10.1555 5.17107 9.4985C5.17107 8.84152 4.64074 8.31119 3.98376 8.31119ZM3.98376 3.56195C3.32678 3.56195 2.79645 4.09228 2.79645 4.74926C2.79645 5.40624 3.32678 5.93657 3.98376 5.93657C4.64074 5.93657 5.17107 5.40624 5.17107 4.74926C5.17107 4.09228 4.64074 3.56195 3.98376 3.56195ZM3.98376 13.191C3.40198 13.191 2.92705 13.662 2.92705 14.2477C2.92705 14.8335 3.40198 15.3044 3.98376 15.3044C4.56554 15.3044 5.04046 14.8335 5.04046 14.2477C5.04046 13.662 4.56554 13.191 3.98376 13.191ZM6.35838 15.0393H17.4399V13.4562H6.35838V15.0393ZM6.35838 10.29H17.4399V8.70696H6.35838V10.29ZM6.35838 3.95772V5.5408H17.4399V3.95772H6.35838Z" fill="#2F2F2F"/>
</svg>
