<svg width="20" height="19" viewBox="0 0 20 19" fill="none" xmlns="http://www.w3.org/2000/svg">
<g clip-path="url(#clip0)">
<path fill-rule="evenodd" clip-rule="evenodd" d="M4.34328 3.26508H5.08535V5.86232H5.6048V6.53018H3.82383V5.86232H4.34328V4.08135L4.04646 4.37818L3.67543 4.00714L4.34328 3.26508ZM7.53419 3.85873H16.439V5.6397H7.53419V3.85873ZM16.439 8.60797H7.53419V10.3889H16.439V8.60797ZM16.3648 13.4314H7.45998V15.2124H16.3648V13.4314ZM3.50575 12.8769C3.84471 12.7025 4.18831 12.6151 4.60698 12.6151C4.90332 12.6151 5.20116 12.6799 5.43775 12.8318C5.68459 12.9902 5.87129 13.2526 5.87129 13.6017C5.87129 13.8703 5.76634 14.0755 5.62384 14.2217C5.77648 14.3738 5.90163 14.5919 5.90163 14.8785C5.90163 15.2594 5.6548 15.518 5.41752 15.6613C5.17645 15.8068 4.87864 15.8802 4.60698 15.8802C4.18082 15.8802 3.74846 15.7272 3.3786 15.5092L3.73904 14.9156C3.99986 15.0692 4.30645 15.1382 4.60698 15.1382C4.76493 15.1382 4.95401 15.0985 5.07264 15.0269C5.15151 14.9792 5.17298 14.9261 5.17879 14.8993C5.18474 14.8718 5.18786 14.8323 5.18077 14.8042C5.17078 14.7647 5.13986 14.7086 5.07264 14.6558C5.00789 14.605 4.93574 14.5933 4.86666 14.5821C4.85441 14.5802 4.84224 14.5782 4.83023 14.5761C4.74884 14.5614 4.64643 14.5596 4.51823 14.5647C4.37795 14.5758 4.23939 14.5815 4.11615 14.5816H4.11085V13.8767H4.11633C4.1833 13.8764 4.2486 13.8728 4.32452 13.8686H4.32452H4.32456H4.32463C4.37023 13.866 4.41966 13.8632 4.47559 13.8609C4.60034 13.8506 4.72474 13.8355 4.83403 13.8157C4.93246 13.798 5.02652 13.7648 5.08723 13.7201C5.11471 13.6999 5.12885 13.6821 5.13636 13.6685C5.14278 13.6569 5.15042 13.6378 5.15042 13.6017C5.15042 13.5579 5.13604 13.5126 5.05637 13.4615C4.96644 13.4037 4.81234 13.3572 4.60698 13.3572C4.29897 13.3572 4.06588 13.4183 3.82814 13.5407L3.50575 12.8769ZM4.62363 8.60797C4.47115 8.60797 4.34011 8.64455 4.18668 8.72106C4.06199 8.78317 3.96703 8.83846 3.88226 8.91274L3.43562 8.34083C3.58831 8.20718 3.74598 8.12051 3.88811 8.04964C4.11312 7.93751 4.34626 7.8659 4.62363 7.8659C4.93103 7.8659 5.2323 7.9433 5.46848 8.10344C5.70857 8.26617 5.90163 8.53369 5.90163 8.88669C5.90163 9.49927 5.46796 9.88826 4.95745 9.94562C4.85415 9.95727 4.71813 9.97479 4.59205 9.99623C4.45581 10.0194 4.36364 10.0419 4.32829 10.0563C4.17355 10.1193 4.12784 10.1753 4.11229 10.2005C4.09619 10.2267 4.07944 10.2729 4.07944 10.3889H5.90163V11.131H3.3786V10.3889C3.3786 10.2082 3.40251 9.9946 3.52513 9.79536C3.64832 9.59522 3.83943 9.46016 4.07702 9.36354C4.18901 9.31806 4.34869 9.286 4.481 9.26351C4.62347 9.23932 4.77269 9.22018 4.88346 9.20771C5.10462 9.18285 5.2008 9.0524 5.2008 8.88669C5.2008 8.85055 5.18621 8.79319 5.09058 8.72833C4.99104 8.66088 4.82851 8.60797 4.62363 8.60797Z" fill="#2F2F2F"/>
</g>
<defs>
<clipPath id="clip0">
<rect width="18.997" height="18.997" fill="white" transform="translate(0.410339)"/>
</clipPath>
</defs>
</svg>
