<svg width="19" height="19" viewBox="0 0 19 19" fill="none" xmlns="http://www.w3.org/2000/svg">
<path d="M5.5563 14.5817C4.85553 14.5819 4.17043 14.3743 3.58766 13.9851C3.00489 13.5959 2.55062 13.0427 2.2823 12.3953C2.01398 11.7479 1.94366 11.0355 2.08024 10.3482C2.21682 9.66084 2.55416 9.02944 3.04959 8.53384L5.45018 6.13324C6.11548 5.46961 7.01682 5.09692 7.95652 5.09692C8.89622 5.09692 9.79756 5.46961 10.4629 6.13324C11.1266 6.79856 11.4994 7.69998 11.4994 8.63977C11.4994 9.57956 11.1266 10.481 10.4629 11.1463L8.06264 13.5465C7.73362 13.8756 7.34284 14.1365 6.91273 14.3141C6.48262 14.4918 6.02165 14.5827 5.5563 14.5817ZM7.95652 6.20782C7.63704 6.20716 7.32059 6.26969 7.02538 6.39183C6.73017 6.51396 6.46203 6.69328 6.23641 6.91947L3.83581 9.32006C3.37986 9.77616 3.12376 10.3947 3.12387 11.0396C3.12397 11.6846 3.38027 12.303 3.83637 12.759C4.29247 13.2149 4.91103 13.471 5.55595 13.4709C6.20088 13.4708 6.81935 13.2145 7.2753 12.7584L9.6759 10.3578C10.016 10.0179 10.2476 9.5847 10.3414 9.1131C10.4352 8.64149 10.387 8.15265 10.203 7.70843C10.0189 7.2642 9.70722 6.88455 9.30734 6.6175C8.90747 6.35045 8.43737 6.20801 7.95652 6.20819V6.20782Z" fill="#2F2F2F"/>
<path d="M10.982 13.3836C10.6798 13.3837 10.3789 13.3451 10.0867 13.2685C9.94879 13.2269 9.83243 13.1334 9.76205 13.0077C9.69167 12.8821 9.67275 12.734 9.70927 12.5947C9.74578 12.4554 9.83488 12.3356 9.95785 12.2606C10.0808 12.1856 10.2281 12.1612 10.3686 12.1925C10.779 12.2995 11.2101 12.2973 11.6193 12.1862C12.0285 12.075 12.4016 11.8587 12.7013 11.5588L15.1019 9.15859C15.5579 8.70259 15.8141 8.08411 15.8141 7.43922C15.8141 6.79433 15.5579 6.17585 15.1019 5.71985C14.6459 5.26384 14.0274 5.00766 13.3826 5.00766C12.7377 5.00766 12.1192 5.26384 11.6632 5.71985L9.26296 8.12044C8.96394 8.42096 8.74827 8.79412 8.63715 9.20325C8.52604 9.61237 8.52331 10.0434 8.62924 10.4539C8.65872 10.5939 8.63316 10.7398 8.55786 10.8615C8.48256 10.9831 8.3633 11.0711 8.22485 11.1072C8.0864 11.1432 7.93938 11.1246 7.81432 11.0551C7.68926 10.9856 7.59576 10.8706 7.55324 10.734C7.39881 10.1358 7.40278 9.50761 7.56477 8.91137C7.72677 8.31513 8.04119 7.77133 8.47711 7.33347L10.8773 4.93288C11.2034 4.59058 11.5945 4.31696 12.0279 4.1281C12.4612 3.93925 12.928 3.83898 13.4007 3.83321C13.8733 3.82744 14.3424 3.91627 14.7802 4.09448C15.2181 4.2727 15.6158 4.53669 15.9501 4.87092C16.2844 5.20515 16.5484 5.60287 16.7267 6.04068C16.905 6.47848 16.9939 6.94753 16.9882 7.4202C16.9825 7.89288 16.8823 8.35964 16.6935 8.79302C16.5047 9.2264 16.2311 9.61763 15.8889 9.9437L13.4887 12.3439C13.1604 12.6744 12.7698 12.9364 12.3395 13.1149C11.9092 13.2933 11.4478 13.3847 10.982 13.3836Z" fill="#2F2F2F"/>
</svg>
