<svg width="54" height="54" fill="none" xmlns="http://www.w3.org/2000/svg"><path d="M27 35.86a.844.844 0 01-.844-.844c0-5.063 2.443-7.662 4.599-9.97 1.759-1.88 3.273-3.505 3.273-6.197a7.028 7.028 0 00-14.057 0 .844.844 0 11-1.687 0 8.716 8.716 0 0117.432 0c0 3.375-1.894 5.388-3.725 7.35-2.038 2.172-4.147 4.425-4.147 8.817a.844.844 0 01-.844.843zm0 4.75a.95.95 0 100 1.899.95.95 0 000-1.9z" fill="#9DD765"/><path d="M27 54a27 27 0 1127-27 27.03 27.03 0 01-27 27zm0-52.312A25.313 25.313 0 1052.313 27 25.342 25.342 0 0027 1.688z" fill="#9DD765"/></svg>