<svg width="53" height="55" fill="none" xmlns="http://www.w3.org/2000/svg"><path d="M47.42 9.88l-4.648 4.649v34.78h9.297V14.53l-4.648-4.65zm2.79 37.57h-5.578v-4.648h5.578v4.648zm-5.578-6.508v-25.65l2.789-2.79 2.789 2.79v25.65h-5.578zM36.794 6.543h-.53v-3.72a1.86 1.86 0 00-1.86-1.859h-1.859a1.86 1.86 0 00-1.86 1.86v3.719H9.303v-3.72A1.86 1.86 0 007.442.965H5.584a1.86 1.86 0 00-1.86 1.86v3.719H2.265a2.445 2.445 0 00-2.26 2.593v43.157a2.445 2.445 0 002.26 2.594h34.529a2.445 2.445 0 002.26-2.594V9.137a2.445 2.445 0 00-2.26-2.594zm-4.249-3.72h1.86v5.58h-1.86v-5.58zm-26.962 0h1.86v5.58h-1.86v-5.58zm31.61 49.471c0 .437-.241.735-.399.735H2.264c-.158 0-.4-.298-.4-.735V9.137c0-.437.242-.735.4-.735h1.46a1.86 1.86 0 001.86 1.86h1.859a1.86 1.86 0 001.86-1.86h21.383a1.86 1.86 0 001.86 1.86h1.859a1.86 1.86 0 001.859-1.86h.53c.158 0 .4.298.4.735v43.157z" fill="#fff"/><path d="M33.475 18.629H5.583v1.86h27.892v-1.86zm0 5.578H5.583v1.86h27.892v-1.86zm0 5.579H5.583v1.86h27.892v-1.86zm0 5.578H5.583v1.86h27.892v-1.86z" fill="#fff"/></svg>