<svg width="42" height="55" fill="none" xmlns="http://www.w3.org/2000/svg"><path d="M33.82 8.378h3.908m0 0c1.394 0 2.522 1.141 2.522 2.552m0 0v40.517m0 0c0 1.409-1.128 2.553-2.522 2.553m-.001 0H3.522m0 0C2.13 54 1 52.856 1 51.447m0 0V10.93m0 0c0-1.41 1.13-2.552 2.522-2.552m0 0h3.37m24.532-3.729h-6.497v-.555m0-.001c0-1.342-1.074-2.424-2.392-2.424m0 0H18.72m0 0c-1.32 0-2.398 1.082-2.398 2.424m-.001.001v.555h-6.49m0 0c-1.323 0-2.395 1.087-2.395 2.428m0 0v5.158H33.82V7.077m0 0c0-1.341-1.069-2.428-2.396-2.428M7.554 24.482l2.165 2.014m3.976-4.395L9.72 26.496m7.75-1.748H33.7M17.47 44.413H33.7m-16.23-9.69H33.7" stroke="#fff" stroke-width="2" stroke-miterlimit="2.613" stroke-linecap="round" stroke-linejoin="round"/></svg>