<svg width="48" height="54" fill="none" xmlns="http://www.w3.org/2000/svg"><path d="M45 20.36a23.566 23.566 0 00-4.36-6.329 23.06 23.06 0 00-3.032-2.656l1.947-2.589a1.099 1.099 0 00-.221-1.55 1.099 1.099 0 00-1.55.222l-2.035 2.7a22.158 22.158 0 00-4.139-1.97 25.401 25.401 0 00-3.651-.995 26.813 26.813 0 00-2.678-.332V2.213h3.032a1.11 1.11 0 001.106-1.106A1.124 1.124 0 0028.313 0h-8.3a1.11 1.11 0 00-1.106 1.107c0 .597.509 1.106 1.106 1.106h3.032v4.581c-3.209.067-6.44.82-9.383 2.191a23.105 23.105 0 00-6.352 4.338 23.943 23.943 0 00-5.887 9.007 23.668 23.668 0 00-1.018 3.718 22.247 22.247 0 00-.398 3.83 23.452 23.452 0 002.257 10.6 23.115 23.115 0 004.338 6.285 23.621 23.621 0 009.051 5.865 22.5 22.5 0 003.63.974c1.24.221 2.5.354 3.74.398h.598c3.43 0 6.838-.752 9.959-2.213a23.573 23.573 0 006.307-4.294c2.656-2.5 4.692-5.643 5.931-9.073a23.665 23.665 0 001.018-3.718c.244-1.284.377-2.568.399-3.851a23.996 23.996 0 00-2.236-10.49zm-.355 13.965a24.282 24.282 0 01-.907 3.364A21.634 21.634 0 0138.36 45.9a21.936 21.936 0 01-5.71 3.895 21.272 21.272 0 01-9.56 1.992 22.25 22.25 0 01-3.409-.354 23.31 23.31 0 01-3.297-.886 21.564 21.564 0 01-8.189-5.31 21.372 21.372 0 01-3.917-5.689 21.202 21.202 0 01-2.036-9.605c.022-1.15.155-2.323.354-3.474a24.41 24.41 0 01.908-3.386c1.106-3.076 2.965-5.887 5.333-8.144a21.788 21.788 0 015.754-3.94 21.442 21.442 0 018.986-1.992h.553c1.129.023 2.28.155 3.408.354 1.129.222 2.235.51 3.297.886a21.524 21.524 0 018.167 5.29 21.43 21.43 0 013.94 5.753 21.197 21.197 0 012.013 9.539c.022 1.173-.11 2.346-.31 3.496z" fill="#FCCC53"/><path d="M32.34 21.025l-6.064 5.488a4.853 4.853 0 00-1.062-.553 4.488 4.488 0 00-.73-.2c-.244-.044-.51-.066-.753-.088-.708 0-1.438.133-2.102.443a4.91 4.91 0 00-1.262.863 4.759 4.759 0 00-1.172 1.792 4.487 4.487 0 00-.2.73 8.28 8.28 0 00-.088.775 4.702 4.702 0 001.305 3.386c.51.532 1.13.93 1.815 1.173.244.089.487.155.73.2.244.044.51.066.753.088h.11c.687 0 1.373-.155 1.992-.443a4.908 4.908 0 001.262-.863 4.99 4.99 0 001.195-1.814c.089-.244.155-.487.2-.73a8.28 8.28 0 00.088-.775 4.61 4.61 0 00-.443-2.103 1.949 1.949 0 00-.133-.221l6.087-5.489c.464-.42.486-1.106.088-1.57a1.173 1.173 0 00-1.616-.09zm-6.285 9.826a2.68 2.68 0 01-.11.398 2.724 2.724 0 01-.62.952c-.2.177-.42.332-.664.442a2.42 2.42 0 01-1.107.222 2.46 2.46 0 01-.398-.044 1.87 1.87 0 01-.376-.111 2.446 2.446 0 01-.952-.62 3.552 3.552 0 01-.465-.664 2.77 2.77 0 01-.243-1.106c0-.133.022-.266.044-.399s.067-.265.11-.398c.134-.354.333-.686.62-.952.2-.177.421-.332.664-.465a2.444 2.444 0 011.04-.22h.067a2.331 2.331 0 01.775.154c.354.133.686.332.951.62l.045.044s0 .022.022.022h.022c.155.177.287.376.398.598.155.354.244.73.244 1.106a22.84 22.84 0 01-.067.42z" fill="#FCCC53"/></svg>