<svg width="19" height="26" fill="none" xmlns="http://www.w3.org/2000/svg"><path d="M18.087 1.256h-1.759V.502A.502.502 0 0015.826 0h-5.15a.502.502 0 00-.502.502v.754H.502A.502.502 0 000 1.758v23.74c0 .277.225.502.502.502h17.585a.502.502 0 00.502-.502V1.758a.502.502 0 00-.502-.502zm-6.908-.251h4.145v8.023l-1.656-2.463a.502.502 0 00-.834 0L11.18 9.028V1.005zM1.005 2.26h1.821v22.734H1.005V2.261zm16.58 22.734H3.83V2.261h6.343v8.415a.502.502 0 00.92.28l2.157-3.21 2.158 3.21a.503.503 0 00.92-.28V2.261h1.255v22.734z" fill="#fff"/></svg>