<svg width="95" height="95" fill="none" xmlns="http://www.w3.org/2000/svg"><circle cx="47.5" cy="47.5" r="42.5" fill="#F9F9F9" stroke="#fff" stroke-width="10"/><path d="M47.342 54.184a4.321 4.321 0 100-8.643 4.321 4.321 0 000 8.643z" fill="#0E80A4"/><path d="M61.895 38.386H55.87l-.403-1.987a4.321 4.321 0 00-4.235-3.462h-6.895a4.322 4.322 0 00-4.197 3.322l-.504 2.127h-4.542a2.8 2.8 0 01.355.994 2.88 2.88 0 010 5.695 2.88 2.88 0 01-5.69 0 2.708 2.708 0 01-.994-.355v12.873a4.321 4.321 0 004.322 4.322h28.81a4.321 4.321 0 004.321-4.322V42.708a4.322 4.322 0 00-4.322-4.322zm-14.552 18.68a7.203 7.203 0 110-14.406 7.203 7.203 0 010 14.406zM61.267 44.58h-4.322a1.44 1.44 0 110-2.881h4.322a1.44 1.44 0 010 2.88z" fill="#0E80A4"/><path d="M35.006 40.787h-.96v-.96a1.44 1.44 0 10-2.881 0v.96h-.96a1.44 1.44 0 100 2.881h.96v.96a1.44 1.44 0 102.881 0v-.96h.96a1.44 1.44 0 000-2.88z" fill="#0E80A4"/></svg>