<svg width="29" height="29" fill="none" xmlns="http://www.w3.org/2000/svg"><circle cx="14.233" cy="14.233" r="14.233" fill="#fff"/><path d="M19.639 12.693c.36 0 .654.123.882.37.247.228.37.522.37.882 0 .361-.123.665-.37.911-.228.228-.522.342-.883.342h-4.44v4.412c0 .36-.123.664-.37.91-.228.248-.522.37-.883.37a1.23 1.23 0 01-.91-.37 1.293 1.293 0 01-.342-.91v-4.412h-4.44a1.29 1.29 0 01-.911-.342 1.293 1.293 0 01-.342-.91c0-.361.114-.655.342-.883.246-.247.55-.37.91-.37h4.441v-4.44c0-.361.114-.655.342-.883.246-.247.55-.37.91-.37.361 0 .655.123.883.37.247.228.37.522.37.882v4.441h4.44z" fill="#369CB7"/></svg>