<svg width="29" height="22" fill="none" xmlns="http://www.w3.org/2000/svg"><path d="M20.22 12.87L16.95 11a.348.348 0 00-.466.116L14.5 14.225l-1.982-3.11A.349.349 0 0012.05 11l-3.27 1.87a.349.349 0 00-.175.302v3.613a.35.35 0 10.697 0v-3.408l2.807-1.605 2.097 3.291a.363.363 0 00.588 0l2.098-3.291 2.806 1.605v3.41a.349.349 0 10.696 0v-3.614a.35.35 0 00-.175-.303zm-6.419-2.6H15.2a1.95 1.95 0 001.948-1.95V5.857A1.95 1.95 0 0015.2 3.909h-1.4a1.95 1.95 0 00-1.948 1.948v2.465A1.95 1.95 0 0013.8 10.27zM12.55 5.855a1.253 1.253 0 011.25-1.25h1.4a1.253 1.253 0 011.251 1.251v2.465A1.253 1.253 0 0115.2 9.572h-1.4a1.253 1.253 0 01-1.251-1.251V5.856z" fill="#fff"/><path d="M2.001 20.738h24.746a1 1 0 001-1.001V2a1 1 0 00-1-1.001H2C1.448 1 1 1.448 1 2.001v17.736a1 1 0 001.001 1z" stroke="#fff" stroke-width=".7" stroke-miterlimit="10" stroke-linecap="round" stroke-linejoin="round"/></svg>