<svg width="17" height="10" viewBox="0 0 17 10" fill="none" xmlns="http://www.w3.org/2000/svg">
<path d="M0.653595 0.659322C0.65362 0.528886 0.688368 0.401388 0.753444 0.292953C0.81852 0.184517 0.911 0.100015 1.01919 0.0501316C1.12738 0.000248328 1.24642 -0.0127748 1.36125 0.0127095C1.47609 0.0381937 1.58156 0.10104 1.66433 0.193302L8.54294 7.85581L15.4215 0.193302C15.5332 0.0731752 15.6827 0.00670493 15.838 0.00820746C15.9932 0.00971 16.1417 0.0790652 16.2514 0.201335C16.3612 0.323604 16.4234 0.489006 16.4248 0.661915C16.4261 0.834823 16.3665 1.00141 16.2586 1.12578L8.96128 9.25475C8.85026 9.37838 8.69972 9.44783 8.54274 9.44783C8.38576 9.44783 8.23521 9.37838 8.1242 9.25475L0.826853 1.12578C0.771889 1.06451 0.728298 0.991786 0.69857 0.91175C0.668842 0.831714 0.65356 0.745938 0.653595 0.659322Z" fill="white"/>
</svg>
