<svg width="22" height="24" viewBox="0 0 22 24" fill="none" xmlns="http://www.w3.org/2000/svg">
<path d="M7.82605 21.573C5.92771 21.5689 4.02959 21.5605 2.13147 21.5482C0.733698 21.5222 -0.416829 19.9433 0.145931 18.5788C0.470149 17.7925 1.29015 17.2443 2.158 17.2387H3.46422C3.46422 15.0565 3.45769 12.8743 3.46443 10.6921C3.49075 7.92585 5.21947 5.25727 7.78886 4.09537L7.81322 4.0846C7.81322 3.35324 7.78038 2.56132 8.00414 1.96486C8.44186 0.799294 9.59022 -0.00770206 10.8954 5.54454e-05C12.4819 0.0293616 13.8912 1.38973 13.9018 3.01535V4.0846C13.952 4.10701 14.0023 4.12985 14.0521 4.15334C16.551 5.34002 18.2423 7.96766 18.2508 10.7367V17.2387C18.9949 17.2387 19.7732 17.1355 20.4264 17.4187C21.6809 17.9626 22.1256 19.8207 21.1475 20.8617C20.7482 21.2862 20.1748 21.5373 19.5836 21.5482C17.6987 21.5605 15.8136 21.5687 13.9288 21.573C13.9023 21.8738 13.7676 22.2107 13.6504 22.4593C13.2266 23.3592 12.2755 23.9776 11.2483 23.997C10.6749 24.0007 10.0995 24.025 9.57717 23.8354C8.62691 23.4909 7.92781 22.5826 7.82605 21.573ZM12.9798 21.764H8.7352C8.92917 22.5304 9.66045 23.1196 10.4778 23.1351C10.9373 23.1381 11.3937 23.1816 11.818 23.0336C12.3858 22.8353 12.8328 22.3449 12.9798 21.764ZM10.8306 0.862C9.70068 0.882903 8.69019 1.85151 8.68302 3.01794V4.3699C8.6591 4.72868 8.53646 4.71037 8.1844 4.86423C5.92836 5.86624 4.35815 8.18853 4.33402 10.6974V17.6697C4.33402 17.6697 4.24312 18.0783 3.89912 18.1007C2.71488 18.1007 1.32538 17.9281 0.939406 18.9342C0.647371 19.6957 1.26449 20.6589 2.1256 20.6861C7.94586 20.7951 13.7692 20.7953 19.5894 20.6861C20.5719 20.6553 21.2588 19.2904 20.4999 18.5017C20.257 18.2489 19.911 18.1031 19.554 18.1007H17.8159C17.5806 18.0854 17.4017 17.9832 17.381 17.6697C17.381 15.3455 17.388 13.0215 17.3808 10.6972C17.3577 8.17302 15.7336 5.74255 13.304 4.76941C13.304 4.76941 13.0518 4.66706 13.032 4.3699C13.032 3.38427 13.1179 2.33291 12.5225 1.63064C12.1044 1.13761 11.524 0.857906 10.8306 0.862Z" fill="#68C2D0"/>
</svg>
