<svg width="30" height="21" viewBox="0 0 30 21" fill="none" xmlns="http://www.w3.org/2000/svg">
<path d="M0.682983 20.9896C0.67403 20.9878 0.665415 20.9853 0.656599 20.9831C0.648319 20.9811 0.640039 20.9792 0.631828 20.9767C0.623346 20.9742 0.615135 20.9709 0.606789 20.968C0.598511 20.965 0.590231 20.9623 0.582087 20.9589C0.57448 20.9557 0.567146 20.952 0.559673 20.9485C0.551193 20.9445 0.542576 20.9408 0.534229 20.9363C0.527298 20.9326 0.520838 20.9284 0.514107 20.9243C0.505693 20.9194 0.497211 20.9146 0.488998 20.9091C0.481998 20.9044 0.475471 20.8992 0.46874 20.8942C0.461403 20.8887 0.453796 20.8836 0.446663 20.8776C0.43697 20.8697 0.427883 20.8611 0.418797 20.8525C0.415028 20.849 0.411123 20.8459 0.407421 20.8422C0.403585 20.8384 0.400421 20.8343 0.396788 20.8304C0.388306 20.8214 0.379824 20.8125 0.372017 20.8031C0.365892 20.7957 0.360508 20.7877 0.354855 20.78C0.350143 20.7736 0.345095 20.7674 0.340652 20.7608C0.334932 20.7522 0.32995 20.7434 0.324835 20.7346C0.320997 20.7282 0.317095 20.722 0.313526 20.7156C0.30895 20.7069 0.304911 20.6979 0.300806 20.689C0.297508 20.682 0.293941 20.675 0.290979 20.6678C0.287411 20.6592 0.284515 20.6505 0.281487 20.6419C0.278593 20.6339 0.275564 20.6261 0.273073 20.618C0.270449 20.6093 0.268566 20.6005 0.266344 20.5917C0.264257 20.5834 0.261969 20.5753 0.26022 20.5669C0.2582 20.5567 0.256989 20.5463 0.255575 20.5361C0.254564 20.529 0.253218 20.522 0.252478 20.5148C0.250727 20.4969 0.249786 20.479 0.249786 20.4611V0.538265C0.249786 0.532207 0.250526 0.526284 0.250729 0.520226C0.251066 0.509928 0.251333 0.499563 0.252275 0.489332C0.253016 0.481053 0.254229 0.472908 0.255373 0.464764C0.256653 0.455543 0.257864 0.446389 0.259613 0.437235C0.261229 0.42862 0.263382 0.420206 0.265402 0.411725C0.26742 0.403177 0.269506 0.394629 0.271997 0.386148C0.274488 0.377734 0.277315 0.36959 0.280209 0.361379C0.283104 0.352965 0.286064 0.344552 0.289431 0.336273C0.292593 0.328465 0.296162 0.320859 0.299662 0.313186C0.303497 0.304839 0.307268 0.296561 0.311575 0.288416C0.315546 0.281013 0.319786 0.273878 0.324028 0.266608C0.328604 0.258733 0.333248 0.250858 0.338297 0.243118C0.343143 0.235714 0.348392 0.228714 0.353643 0.221579C0.358759 0.214579 0.363739 0.207512 0.369259 0.200646C0.37545 0.192973 0.381979 0.185771 0.388575 0.178502C0.392883 0.173723 0.396721 0.168675 0.40123 0.164031C0.402308 0.162886 0.403519 0.162011 0.404594 0.160867C0.41173 0.153598 0.419403 0.146867 0.426941 0.140001C0.432663 0.134819 0.438181 0.129367 0.444036 0.124453C0.45097 0.118732 0.458307 0.113549 0.465509 0.108165C0.472509 0.102915 0.47924 0.0973279 0.486509 0.0924817C0.4925 0.0883759 0.498962 0.0849432 0.505087 0.0811067C0.513769 0.075722 0.522318 0.0700681 0.531271 0.0652219C0.537127 0.0620584 0.543385 0.0594336 0.549442 0.056472C0.559 0.0517604 0.568424 0.0467122 0.578251 0.0426064C0.586597 0.0390391 0.595415 0.0362122 0.604031 0.033116C0.611704 0.030289 0.619308 0.0271256 0.627115 0.0247025C0.635731 0.0219428 0.644751 0.0200579 0.653568 0.0177694C0.661713 0.0156828 0.66979 0.0131928 0.678001 0.0115101C0.685339 0.00996199 0.692944 0.00908692 0.700348 0.00787537C0.710445 0.00619266 0.720541 0.00430801 0.730703 0.00323108C0.737165 0.002558 0.743694 0.00242306 0.750156 0.0019519C0.761599 0.0011442 0.773043 0.000336431 0.784552 0.000201814C0.785898 0.000201814 0.787107 0 0.788454 0H29.4615C29.4629 0 29.4642 0.000201814 29.4656 0.000201814C29.4768 0.000269122 29.4879 0.00114423 29.4991 0.00188463C29.5059 0.00235578 29.5128 0.00249069 29.5195 0.00323108C29.5294 0.00430801 29.5392 0.00612491 29.5491 0.00774032C29.5568 0.00901917 29.5645 0.0098942 29.5721 0.0114423C29.5801 0.013125 29.5881 0.0155483 29.596 0.0176349C29.605 0.0199233 29.6141 0.0218755 29.6229 0.0246352C29.6302 0.0269237 29.6372 0.0299523 29.6444 0.03251C29.6536 0.0358081 29.6629 0.0388371 29.6718 0.0426064C29.681 0.0465103 29.6899 0.0512219 29.6989 0.0556642C29.7055 0.058895 29.7123 0.0617219 29.7187 0.0652219C29.7271 0.0697989 29.7351 0.0751162 29.7433 0.0801644C29.75 0.0843375 29.7569 0.0881739 29.7635 0.0926162C29.7701 0.0971259 29.7765 0.102376 29.783 0.107155C29.7907 0.112944 29.7985 0.118463 29.806 0.124655C29.8113 0.129165 29.8164 0.134213 29.8216 0.138925C29.8297 0.146194 29.8379 0.153463 29.8455 0.161271C29.8465 0.162281 29.8475 0.163088 29.8485 0.164098C29.8527 0.168338 29.8562 0.17305 29.8601 0.177425C29.8671 0.185165 29.8741 0.192838 29.8807 0.200983C29.886 0.207444 29.8907 0.214175 29.8956 0.220839C29.9011 0.22831 29.9066 0.235714 29.9117 0.243455C29.9165 0.250858 29.9209 0.258397 29.9254 0.265936C29.9297 0.273474 29.9342 0.280945 29.9383 0.288686C29.9424 0.296561 29.9461 0.304571 29.9498 0.31258C29.9535 0.320523 29.9571 0.328397 29.9604 0.336542C29.9637 0.344551 29.9665 0.352696 29.9693 0.36084C29.9723 0.369321 29.9752 0.377735 29.9778 0.386417C29.9802 0.394696 29.9822 0.403042 29.9842 0.411389C29.9863 0.420071 29.9884 0.428687 29.99 0.437437C29.9917 0.446456 29.9929 0.455476 29.9942 0.464495C29.9954 0.472841 29.9966 0.481053 29.9974 0.489534C29.9983 0.499697 29.9986 0.509861 29.9989 0.520024C29.9993 0.526082 30 0.532072 30 0.538265V20.4613C30 20.4792 29.9991 20.497 29.9973 20.5148C29.9966 20.5224 29.9951 20.5299 29.9941 20.5374C29.9927 20.5472 29.9915 20.557 29.9896 20.5669C29.9878 20.5757 29.9854 20.5843 29.9832 20.593C29.9811 20.6013 29.9793 20.6097 29.9768 20.618C29.9742 20.6265 29.971 20.6348 29.968 20.6432C29.9651 20.6513 29.9624 20.6596 29.959 20.6677C29.9558 20.6754 29.952 20.683 29.9484 20.6906C29.9445 20.6989 29.9408 20.7073 29.9364 20.7154C29.9325 20.7226 29.928 20.7296 29.9239 20.7366C29.9191 20.7446 29.9145 20.7527 29.9093 20.7606C29.9042 20.7682 29.8984 20.7754 29.893 20.7827C29.8879 20.7895 29.8833 20.7963 29.8779 20.8029C29.8677 20.8154 29.8568 20.8273 29.8455 20.8388C29.8444 20.8399 29.8434 20.8412 29.8424 20.8423C29.841 20.8436 29.8395 20.8447 29.8382 20.8461C29.8269 20.8571 29.8152 20.8678 29.803 20.8779C29.7965 20.8832 29.7897 20.8878 29.7831 20.8928C29.7757 20.8984 29.7684 20.9042 29.7607 20.9093C29.7529 20.9145 29.7449 20.919 29.737 20.9237C29.7298 20.928 29.7228 20.9325 29.7154 20.9364C29.7074 20.9406 29.6991 20.9443 29.6909 20.9482C29.6832 20.9519 29.6756 20.9557 29.6676 20.959C29.6598 20.9623 29.6517 20.9649 29.6437 20.9678C29.6351 20.9709 29.6267 20.9742 29.6179 20.9768C29.6099 20.9793 29.6017 20.981 29.5937 20.9831C29.5847 20.9853 29.5759 20.9878 29.5668 20.9896C29.5574 20.9915 29.548 20.9926 29.5386 20.9939C29.5307 20.9951 29.5229 20.9966 29.5148 20.9974C29.497 20.9991 29.4793 21 29.4615 21H0.788185C0.770416 21 0.752712 20.9991 0.73501 20.9973C0.727137 20.9965 0.719395 20.9951 0.711521 20.9939C0.70203 20.9926 0.692406 20.9915 0.682983 20.9896ZM28.9231 1.8081L20.1014 10.3399L28.9231 19.1616V1.8081ZM15.1249 13.6546L28.1302 1.07673H2.11954L15.1249 13.6546ZM19.3272 11.0887L15.4992 14.7909C15.4942 14.7957 15.4888 14.7999 15.4837 14.8045C15.4774 14.8101 15.4711 14.8158 15.4646 14.8212C15.4571 14.8274 15.4494 14.8329 15.4415 14.8386C15.4347 14.8436 15.428 14.8487 15.421 14.8533C15.4129 14.8587 15.4047 14.8634 15.3964 14.8683C15.3894 14.8724 15.3824 14.8767 15.3752 14.8805C15.3666 14.885 15.3575 14.8891 15.3487 14.8931C15.3417 14.8963 15.3347 14.8998 15.3276 14.9026C15.318 14.9066 15.3082 14.9097 15.2984 14.913C15.2917 14.9153 15.2851 14.9179 15.2784 14.9199C15.2678 14.9231 15.2571 14.9254 15.2464 14.9279C15.2402 14.9293 15.2341 14.9311 15.2279 14.9323C15.2158 14.9346 15.2035 14.9362 15.1914 14.9377C15.1864 14.9383 15.1815 14.9392 15.1766 14.9398C15.1595 14.9414 15.1422 14.9422 15.1249 14.9422H15.1249C15.1076 14.9422 15.0904 14.9414 15.0732 14.9398C15.0681 14.9392 15.0632 14.9383 15.0582 14.9376C15.0461 14.9361 15.0339 14.9346 15.0219 14.9323C15.0155 14.931 15.0093 14.9293 15.003 14.9278C14.9925 14.9254 14.9819 14.9231 14.9715 14.92C14.9645 14.9179 14.9577 14.9153 14.9509 14.913C14.9412 14.9097 14.9316 14.9065 14.9222 14.9027C14.915 14.8998 14.9079 14.8963 14.9009 14.893C14.892 14.8889 14.8832 14.8851 14.8745 14.8805C14.8673 14.8766 14.8601 14.8723 14.853 14.8681C14.8449 14.8634 14.8368 14.8587 14.8289 14.8534C14.8217 14.8487 14.8148 14.8435 14.8078 14.8383C14.8003 14.8328 14.7927 14.8273 14.7854 14.8213C14.7786 14.8158 14.7722 14.8099 14.7656 14.8041C14.7607 14.7996 14.7555 14.7955 14.7506 14.7909L10.9226 11.0887L2.08818 19.9231H28.1615L19.3272 11.0887ZM10.1483 10.3399L1.32665 1.8081V19.1615L10.1483 10.3399Z" fill="white"/>
</svg>
