<svg width="22" height="24" viewBox="0 0 22 24" fill="none" xmlns="http://www.w3.org/2000/svg">
<path d="M16.9117 8.53838C16.9117 11.9086 14.2298 14.5768 10.9999 14.5768C7.77 14.5768 5.08813 11.9086 5.08813 8.53838C5.08813 5.16813 7.77 2.5 10.9999 2.5C14.2298 2.5 16.9117 5.16813 16.9117 8.53838Z" stroke="white" stroke-width="5"/>
<rect y="6.46179" width="22" height="17.5383" fill="white"/>
<path d="M11.0011 21.1197C9.95076 21.1241 8.9205 20.8398 8.02895 20.2997C7.13741 19.7596 6.42082 18.9855 5.96171 18.0666C5.93459 18.0156 5.9182 17.9598 5.91351 17.9026C5.90882 17.8454 5.91593 17.7878 5.9344 17.7333C5.95288 17.6788 5.98237 17.6284 6.02112 17.5852C6.05988 17.5419 6.10713 17.5065 6.16011 17.4812C6.21309 17.456 6.27072 17.4412 6.32964 17.4379C6.38855 17.4345 6.44756 17.4427 6.5032 17.4618C6.55884 17.4809 6.60999 17.5107 6.65366 17.5493C6.69733 17.5879 6.73263 17.6346 6.7575 17.6867C7.14737 18.4579 7.7516 19.1076 8.50169 19.5619C9.25178 20.0162 10.1177 20.257 11.0013 20.257C11.8849 20.257 12.7509 20.0162 13.5009 19.5619C14.251 19.1076 14.8553 18.4579 15.2451 17.6867C15.27 17.6346 15.3053 17.5879 15.349 17.5493C15.3926 17.5107 15.4438 17.4809 15.4994 17.4618C15.5551 17.4427 15.6141 17.4345 15.673 17.4379C15.7319 17.4412 15.7896 17.456 15.8425 17.4812C15.8955 17.5065 15.9428 17.5419 15.9815 17.5852C16.0203 17.6284 16.0498 17.6788 16.0682 17.7333C16.0867 17.7878 16.0938 17.8454 16.0891 17.9026C16.0844 17.9598 16.0681 18.0156 16.0409 18.0666C15.5818 18.9855 14.8651 19.7597 13.9735 20.2998C13.0819 20.84 12.0515 21.1242 11.0011 21.1197Z" fill="#369CB7"/>
<path d="M13.5556 15.3883C13.4802 15.3885 13.4061 15.3699 13.3401 15.3345C13.2742 15.299 13.2186 15.2478 13.1787 15.1857C13.1388 15.1235 13.1158 15.0525 13.1119 14.9793C13.108 14.9061 13.1234 14.8332 13.1565 14.7674C13.4062 14.2732 13.7933 13.8569 14.2738 13.5658C14.7544 13.2747 15.3092 13.1204 15.8753 13.1204C16.4414 13.1204 16.9962 13.2747 17.4768 13.5658C17.9573 13.8569 18.3444 14.2732 18.594 14.7674C18.6454 14.8699 18.6529 14.9882 18.6148 15.0961C18.5767 15.204 18.4963 15.2929 18.391 15.3432C18.2857 15.3935 18.1642 15.4012 18.0531 15.3645C17.942 15.3279 17.8504 15.2499 17.7983 15.1477C17.6215 14.7983 17.3477 14.504 17.0078 14.2982C16.668 14.0924 16.2756 13.9834 15.8753 13.9834C15.475 13.9834 15.0826 14.0924 14.7427 14.2982C14.4029 14.504 14.1291 14.7983 13.9523 15.1477C13.9158 15.2198 13.8593 15.2805 13.7892 15.323C13.7191 15.3656 13.6382 15.3882 13.5556 15.3883Z" fill="#369CB7"/>
<path d="M8.4463 15.3887C8.36321 15.3889 8.28175 15.3663 8.2112 15.3236C8.14065 15.2809 8.08386 15.2198 8.0473 15.1472C7.87057 14.7978 7.59676 14.5035 7.25689 14.2977C6.91702 14.0919 6.52468 13.9829 6.12434 13.9829C5.72399 13.9829 5.33166 14.0919 4.99178 14.2977C4.65191 14.5035 4.3781 14.7978 4.20137 15.1472C4.14926 15.2494 4.05763 15.3274 3.94653 15.3641C3.83544 15.4007 3.71395 15.393 3.60866 15.3427C3.50338 15.2924 3.42289 15.2035 3.38483 15.0956C3.34676 14.9877 3.35423 14.8695 3.40558 14.7669C3.65527 14.2727 4.04234 13.8564 4.52288 13.5653C5.00342 13.2742 5.55822 13.1199 6.12434 13.1199C6.69045 13.1199 7.24525 13.2742 7.72579 13.5653C8.20634 13.8564 8.5934 14.2727 8.84309 14.7669C8.87624 14.8327 8.8916 14.9056 8.88772 14.9788C8.88384 15.052 8.86085 15.123 8.82092 15.1852C8.78099 15.2473 8.72543 15.2985 8.6595 15.334C8.59356 15.3695 8.51943 15.388 8.44409 15.3878L8.4463 15.3887Z" fill="#369CB7"/>
</svg>
