<svg width="17" height="16" viewBox="0 0 17 16" fill="none" xmlns="http://www.w3.org/2000/svg">
<path d="M7.6406 1.44448C8.02827 0.792886 8.97173 0.792884 9.3594 1.44448L11.2854 4.6817C11.4316 4.9275 11.6761 5.09891 11.957 5.15261L15.714 5.87076C16.4956 6.02016 16.7981 6.9783 16.2439 7.54937L13.7118 10.1588C13.5013 10.3757 13.4002 10.6762 13.4368 10.9763L13.8725 14.548C13.9661 15.3152 13.1912 15.894 12.4821 15.5866L8.89781 14.0325C8.64402 13.9224 8.35598 13.9224 8.10219 14.0325L4.51792 15.5866C3.80883 15.894 3.03388 15.3152 3.12747 14.548L3.5632 10.9763C3.5998 10.6762 3.49872 10.3757 3.28821 10.1588L0.756079 7.54937C0.201919 6.9783 0.504384 6.02016 1.28598 5.87076L5.04295 5.15261C5.32388 5.09891 5.56836 4.9275 5.7146 4.6817L7.6406 1.44448Z" fill="#68C2D0"/>
</svg>
