<svg width="55" height="56" viewBox="0 0 55 56" fill="none" xmlns="http://www.w3.org/2000/svg">
<path d="M54.5 28C54.5 43.1964 42.4032 55.5 27.5 55.5C12.5968 55.5 0.5 43.1964 0.5 28C0.5 12.8036 12.5968 0.5 27.5 0.5C42.4032 0.5 54.5 12.8036 54.5 28Z" fill="#F2929E" stroke="white"/>
<path d="M27.0196 9.45715C26.3325 9.45715 25.6373 9.49743 24.9583 9.578C20.4881 10.1017 16.3817 11.8581 13.3989 14.5088C12.5501 15.2662 11.7741 16.1041 11.087 16.9984C9.48644 19.0851 8.34666 21.2363 7.68381 23.3956C7.1018 25.2889 6.78654 27.416 6.78654 29.3818C6.78654 33.4345 8.16074 37.7691 10.4726 40.9838C13.5363 45.2539 18.0226 48.0497 23.0991 48.8473C24.7805 49.1132 26.1628 49.234 27.44 49.234C28.9516 49.234 30.3096 49.0648 31.611 48.7103C34.2624 47.9852 36.7037 46.8572 38.6599 45.4312C39.8805 44.5449 41.0122 43.5136 41.9499 42.4421C42.8067 41.4591 43.6151 40.2989 44.2699 39.0743C45.0782 37.5757 45.7006 36.0771 46.0644 34.7316C46.4524 33.3056 46.6787 31.9198 46.7434 30.6226C46.9374 26.2397 45.8785 22.1145 43.6717 18.6823C43.0573 17.7235 42.3621 16.8292 41.6185 16.0235C37.7949 11.9145 32.3386 9.45715 27.0196 9.45715ZM26.9388 36.7942C26.4214 36.7942 25.896 36.7539 25.3787 36.6733C23.479 36.3752 21.7976 35.3278 20.6498 33.7245C20.286 33.2169 19.9869 32.6288 19.7525 32.0084C19.4373 31.1624 19.2594 30.2439 19.2594 29.3657C19.2594 29.2046 19.2675 29.0515 19.2756 28.8904C19.2837 28.8259 19.2837 28.7534 19.2918 28.689C19.2998 28.6003 19.3079 28.5117 19.3241 28.4231C19.3403 28.3183 19.3483 28.2136 19.3726 28.1089C19.4292 27.7705 19.5019 27.4321 19.5989 27.1098C19.8495 26.3041 20.2779 25.4904 20.8842 24.7008C21.1348 24.3705 21.4339 24.0482 21.7491 23.7742C22.8647 22.7752 24.4167 22.1226 26.1062 21.9212C26.3568 21.8889 26.6154 21.8728 26.8741 21.8728C28.8707 21.8728 30.924 22.7994 32.3628 24.3463C32.6377 24.6444 32.8963 24.9828 33.1308 25.3453C33.9553 26.6344 34.3594 28.1894 34.2786 29.8411C34.2544 30.3245 34.1735 30.8401 34.028 31.38C33.8906 31.8795 33.6562 32.4515 33.349 33.0155C33.1065 33.4747 32.7993 33.9098 32.4841 34.2724C32.1284 34.6752 31.7 35.062 31.2473 35.3923C30.5117 35.924 29.5902 36.3511 28.5878 36.625C28.4746 36.6572 28.3615 36.6814 28.2483 36.7056C27.8199 36.762 27.3834 36.7942 26.9388 36.7942ZM27.0196 7.66852C32.8317 7.66852 38.7811 10.3434 42.9361 14.815C43.7525 15.6932 44.5043 16.6681 45.1833 17.7235C47.5922 21.47 48.7481 25.9577 48.538 30.7112C48.4733 32.1373 48.2227 33.6439 47.7943 35.1989C47.3901 36.6733 46.7192 38.3008 45.8461 39.9122C45.1267 41.2496 44.2456 42.5226 43.2998 43.6023C42.2732 44.7705 41.0364 45.8985 39.7107 46.8653C37.5767 48.4122 34.9415 49.6449 32.0799 50.4184C30.6249 50.8132 29.1052 51.0065 27.44 51.0065C26.0658 51.0065 24.5945 50.8776 22.8162 50.5956C17.2628 49.7255 12.3642 46.6719 9.01759 42.007C6.50362 38.5022 5.00008 33.7729 5.00008 29.3657C5.00008 27.2307 5.34768 24.9183 5.97819 22.8558C6.69762 20.487 7.94249 18.1505 9.67236 15.8946C10.4322 14.9036 11.2891 13.9851 12.2187 13.1553C15.4682 10.279 19.9142 8.36947 24.7481 7.80549C25.4999 7.71686 26.2598 7.66852 27.0196 7.66852ZM27.9492 34.9411C28.0139 34.925 28.0624 34.9169 28.119 34.9008C28.9192 34.6833 29.6387 34.3529 30.1964 33.942C30.544 33.6842 30.8754 33.3942 31.1422 33.088C31.3766 32.8221 31.5949 32.4999 31.7808 32.1534C32.0233 31.7103 32.2092 31.2672 32.3062 30.8965C32.4194 30.4856 32.4841 30.0989 32.5002 29.7444C32.5568 28.4634 32.2577 27.2709 31.6272 26.288C31.4494 26.0141 31.2554 25.7643 31.0533 25.5468C29.9458 24.3543 28.3857 23.6453 26.8822 23.6453C26.6963 23.6453 26.5103 23.6534 26.3244 23.6776C24.9987 23.8306 23.7943 24.3382 22.9455 25.0875C22.7192 25.2889 22.5009 25.5226 22.315 25.7643C21.8381 26.3847 21.5066 27.0051 21.3207 27.6093C21.248 27.8349 21.1914 28.0927 21.1429 28.3747C21.1267 28.4472 21.1186 28.5359 21.1105 28.6245C21.1025 28.689 21.0944 28.7615 21.0863 28.8259C21.0782 28.8823 21.0782 28.9387 21.0701 28.9871C21.062 29.0837 21.054 29.2207 21.054 29.3416C21.054 29.9942 21.1833 30.6951 21.4339 31.3638C21.6198 31.8553 21.8381 32.2904 22.1048 32.661C22.9778 33.8695 24.2389 34.6591 25.6616 34.8847C26.09 34.9492 26.5184 34.9894 26.9388 34.9894C27.2702 35.0056 27.6097 34.9814 27.9492 34.9411Z" fill="#DBD7D6"/>
<path d="M8.45987 22.8235C9.15505 20.5353 10.3595 18.4244 11.8064 16.5311C12.4774 15.6529 13.2534 14.823 14.0779 14.0898C17.2143 11.3021 21.3046 9.73105 25.4514 9.24763C31.5545 8.52251 37.6899 11.141 41.8287 15.5884C42.5724 16.386 43.2514 17.2804 43.8415 18.1988C46.0806 21.6794 47.0426 25.8287 46.8566 29.9458C46.792 31.3074 46.5495 32.661 46.1938 33.9742C45.7977 35.4325 45.1429 36.915 44.4235 38.2444C43.793 39.4126 43.017 40.5487 42.1439 41.5477C41.1982 42.6273 40.0665 43.6425 38.9024 44.4885C36.8492 45.979 34.408 47.0506 31.9587 47.7112C29.186 48.4686 26.3891 48.2833 23.5842 47.8401C18.5643 47.0506 14.1345 44.2226 11.184 40.1136C8.90446 36.9311 7.5626 32.6368 7.5626 28.7131C7.57068 26.7633 7.88594 24.6846 8.45987 22.8235ZM20.8196 33.2411C21.9998 34.8847 23.7701 36.0126 25.7748 36.3268C26.8984 36.5041 28.0139 36.5766 29.1214 36.2785C30.0995 36.0126 31.0776 35.5856 31.894 34.9894C32.3629 34.651 32.8075 34.2482 33.1874 33.8131C33.535 33.4102 33.8422 32.9591 34.1008 32.4918C34.3837 31.96 34.6505 31.3719 34.8041 30.7837C34.9496 30.26 35.0466 29.7202 35.0708 29.1723C35.1436 27.5287 34.7637 25.8771 33.8664 24.4832C33.632 24.1126 33.3571 23.7581 33.058 23.4439C31.409 21.6633 28.9516 20.624 26.5185 20.906C24.8613 21.0993 23.2285 21.7278 21.9755 22.8396C21.6441 23.1297 21.3369 23.468 21.0702 23.8145C20.4882 24.5718 20.0112 25.4178 19.7364 26.3282C19.5101 27.0695 19.3807 27.9074 19.3807 28.6809C19.3726 30.26 19.9142 31.9761 20.8196 33.2411Z" fill="#E7A576" stroke="#BB7B5D" stroke-miterlimit="10" stroke-linecap="round" stroke-linejoin="round"/>
<path opacity="0.3" d="M8.77498 22.9196C9.41358 20.8329 10.521 18.7542 12.0731 16.7319C12.7359 15.8618 13.4877 15.0561 14.296 14.331C17.1819 11.7689 21.1509 10.0769 25.4836 9.56934C26.1384 9.49683 26.8013 9.45654 27.4641 9.45654C29.8407 9.45654 32.2496 9.96413 34.5129 10.9068C29.2021 10.0125 24.0286 10.5039 21.2075 11.4547C14.7891 13.622 10.3109 19.4874 9.63992 26.0135C9.41358 28.1969 9.48634 31.2182 9.84201 33.3936C10.2058 35.585 11.2081 37.5993 12.3075 39.5007C13.2371 41.1201 14.4658 43.3519 16.034 44.4476C14.296 43.2391 12.7521 41.7163 11.4668 39.9196C9.23575 36.8177 7.91005 32.6282 7.91005 28.7125C7.91005 26.8111 8.21722 24.7566 8.77498 22.9196Z" fill="#A7A9AC"/>
<path d="M36.4206 43.5058C40.6402 39.8077 43.4452 36.7461 44.7466 31.2996C45.0215 30.1233 46.1774 24.838 45.8621 23.6456C46.3876 25.6356 46.6139 27.7546 46.5169 29.9299C46.4603 31.1788 46.2421 32.5081 45.8621 33.8859C45.5065 35.183 44.9083 36.6333 44.1242 38.0835C43.4856 39.2598 42.7177 40.3797 41.885 41.3304C40.9797 42.3698 39.8803 43.3688 38.7001 44.2229C36.8086 45.6006 34.4482 46.6963 31.8696 47.3973C30.6328 47.7357 29.3232 47.8968 27.8763 47.8968C26.6799 47.8968 25.3866 47.784 23.8184 47.5423C31.9181 46.7769 34.5048 45.1736 36.4206 43.5058Z" fill="#E7E5E5"/>
<path d="M23.0831 19.0602C26.4943 17.7792 30.7705 17.5133 34.0282 19.3986C37.4313 21.3645 37.8678 24.9256 37.5041 28.5271C37.2939 30.5816 36.8251 32.8858 35.273 34.3844C34.0282 35.5849 31.7324 36.8579 29.9137 36.3825C30.722 36.0925 31.4657 35.7138 32.0881 35.2626C32.5893 34.9001 33.0501 34.4811 33.4381 34.038C33.7937 33.6351 34.1171 33.1598 34.3919 32.6602C34.7233 32.0479 34.9739 31.4356 35.1275 30.8877C35.2892 30.2996 35.3781 29.7356 35.4024 29.2038C35.4832 27.4152 35.0467 25.7233 34.1413 24.3214C33.8907 23.9266 33.6078 23.564 33.3006 23.2337C31.7324 21.5498 29.5014 20.5427 27.3188 20.5427C27.0359 20.5427 26.753 20.5588 26.4701 20.591C24.6432 20.8086 22.9699 21.5256 21.7412 22.6052C21.3936 22.9114 21.0703 23.2579 20.7874 23.6285C20.1326 24.4825 19.6637 25.3607 19.397 26.247C19.3808 26.2953 19.3727 26.3436 19.3566 26.3839C18.5321 25.4493 18.0875 24.2327 18.5321 22.9598C19.2192 21.0422 21.2562 19.737 23.0831 19.0602Z" fill="#E7E5E5"/>
<path d="M9.02539 31.3964C9.93075 29.5675 10.925 27.8997 10.8604 25.7888C10.8119 24.25 10.1005 22.3002 11.2807 21.0997C12.8974 19.4561 15.2012 19.2708 16.5431 17.3291C17.3999 16.0883 17.9092 13.7357 19.4531 13.1798C21.5387 12.4305 24.9257 14.485 26.9466 13.6874C28.3208 13.1476 29.4282 12.2452 30.8509 11.8504C32.4434 11.3992 34.3672 11.1092 35.7414 12.2855C37.5602 13.8405 36.6711 17.5869 40.0257 17.168C44.4797 16.6201 45.1588 20.9467 44.5202 24.4111C44.2291 25.9903 43.7926 27.4244 44.0756 29.0358C44.4232 31.0339 45.0294 32.8789 44.5929 34.9415C44.1241 37.1652 42.6609 38.8571 40.5754 39.7434C39.1769 40.3396 37.8351 40.4766 36.9136 41.7898C35.8789 43.2481 35.3777 44.9884 33.7044 45.923C31.8533 46.9543 29.8405 46.2533 28.0055 45.5685C25.7825 44.7467 23.6242 44.2714 21.28 43.9169C19.3319 43.6268 16.8098 43.3448 15.6054 41.5642C14.7889 40.3718 15.1689 38.7443 14.3039 37.6083C13.2773 36.2628 11.1352 36.1983 9.72866 35.4249C7.91795 34.4339 8.21704 33.0481 9.02539 31.3964ZM20.8193 33.2415C21.9995 34.8851 23.7697 36.013 25.7745 36.3273C30.5842 37.0846 35.0867 34.4178 36.38 29.6642C37.1884 26.6751 35.8869 23.9116 33.7691 21.7604C33.0173 21.003 32.1119 20.3343 31.0368 20.1329C30.1638 19.9637 29.2827 20.0362 28.4016 20.0282C27.1567 20.0121 25.8876 19.7945 24.6509 20.0201C23.3009 20.2699 21.951 20.8822 21.1749 22.0666C20.5363 23.0334 20.2049 24.1775 19.9382 25.2974C19.6714 26.4092 19.3723 27.5452 19.3723 28.6974C19.3723 30.2604 19.9058 31.9765 20.8193 33.2415Z" fill="#F599B5" stroke="#E381A1" stroke-miterlimit="10" stroke-linecap="round" stroke-linejoin="round"/>
<g opacity="0.3">
<path opacity="0.3" d="M41.8771 18.634C40.9798 18.2956 39.9451 18.3842 39.0721 17.9411C38.6922 17.7477 38.4254 17.506 38.2233 17.224C38.5629 17.4174 38.9913 17.5382 39.5248 17.5382C39.6945 17.5382 39.8724 17.5302 40.0502 17.506C40.2927 17.4738 40.5272 17.4657 40.7454 17.4657C41.8528 17.4657 42.7178 17.8363 43.324 18.5614C43.6231 18.924 43.8656 19.3752 44.0354 19.8989C43.4372 19.2946 42.4187 18.8354 41.8771 18.634Z" fill="#A7A9AC"/>
<path opacity="0.3" d="M30.8916 12.6231C29.38 13.2999 27.9169 14.2587 26.3891 14.1701C26.6316 14.1378 26.858 14.0814 27.0681 14.0009C27.6744 13.7592 28.2322 13.453 28.7657 13.1629C29.4851 12.7682 30.156 12.3975 30.9321 12.18C31.8536 11.9222 32.5892 11.8013 33.252 11.8013C34.0685 11.8013 34.7394 11.9866 35.281 12.3734C33.8098 12.0994 32.3063 11.9947 30.8916 12.6231Z" fill="#A7A9AC"/>
<path opacity="0.3" d="M19.518 23.6522C20.0353 22.2423 20.5365 20.6228 22.1532 20.1475C22.6625 20.0024 23.1637 19.9299 23.6729 19.9138C22.6867 20.228 21.6035 20.8001 20.8922 21.8797C20.2293 22.8868 19.9626 24.0873 19.6797 25.2394C19.3887 26.3916 19.0411 27.4873 19.0411 28.6878C19.0411 30.3475 19.6069 32.12 20.5527 33.4333C21.8137 35.1816 23.6487 36.3257 25.7261 36.656C26.2758 36.7447 26.8417 36.785 27.3914 36.785C27.6177 36.785 27.8359 36.7769 28.0542 36.7608C25.8151 37.3167 23.2526 36.8011 21.4257 35.4314C19.2432 33.8039 17.4729 30.7101 17.8447 27.9143C18.0549 26.3593 18.9764 25.0944 19.518 23.6522Z" fill="#A7A9AC"/>
<path opacity="0.3" d="M9.06602 32.1211C9.17919 32.9268 9.47828 33.6761 10.0926 34.1353C11.5396 35.2069 13.7141 35.6581 14.4658 37.2936C13.7464 36.4476 12.6389 36.1093 11.5719 35.7789C10.9576 35.5856 10.3675 35.4083 9.89054 35.1424C8.54868 34.4012 8.50826 33.4505 9.06602 32.1211Z" fill="#A7A9AC"/>
<path opacity="0.3" d="M38.5062 39.6699C39.2903 38.9126 40.4381 38.84 41.3435 38.2841C42.1438 37.7926 43.0653 37.1964 43.6958 36.4794C43.0249 37.7926 41.9093 38.8159 40.4462 39.4443C40.1067 39.5893 39.7672 39.7102 39.4358 39.823C38.8134 40.0405 38.2071 40.25 37.6655 40.6126C37.9242 40.2742 38.2152 39.9599 38.5062 39.6699Z" fill="#A7A9AC"/>
</g>
<path d="M31.9182 40.0564C31.4655 39.8308 30.5602 39.3313 30.1883 38.9849" stroke="#8AD1CB" stroke-miterlimit="10" stroke-linecap="round" stroke-linejoin="round"/>
<path d="M24.9339 39.8226C25.1845 39.3794 25.7261 38.5093 26.0898 38.1467" stroke="#E7E3DE" stroke-miterlimit="10" stroke-linecap="round" stroke-linejoin="round"/>
<path d="M27.2622 42.2805C27.5128 41.8374 28.0544 40.9672 28.4182 40.6047" stroke="#F37C89" stroke-miterlimit="10" stroke-linecap="round" stroke-linejoin="round"/>
<path d="M35.459 19.1334C34.9578 19.1979 33.9231 19.2784 33.4219 19.2059" stroke="#F37C89" stroke-miterlimit="10" stroke-linecap="round" stroke-linejoin="round"/>
<path d="M15.9695 27.5122C15.4602 27.5202 14.4255 27.496 13.9405 27.3591" stroke="#F37C89" stroke-miterlimit="10" stroke-linecap="round" stroke-linejoin="round"/>
<path d="M18.4673 24.0799C18.0065 24.2974 17.0527 24.6842 16.5515 24.7647" stroke="#E7E3DE" stroke-miterlimit="10" stroke-linecap="round" stroke-linejoin="round"/>
<path d="M18.8877 21.502C18.8311 21.0025 18.7503 19.9712 18.8311 19.4717" stroke="#8AD1CB" stroke-miterlimit="10" stroke-linecap="round" stroke-linejoin="round"/>
<path d="M38.4094 35.0938C38.1022 35.4966 37.4394 36.2862 37.0352 36.5923" stroke="#F37C89" stroke-miterlimit="10" stroke-linecap="round" stroke-linejoin="round"/>
<path d="M33.8987 38.8729C33.8502 38.3653 33.8017 37.3421 33.8987 36.8425" stroke="#F37C89" stroke-miterlimit="10" stroke-linecap="round" stroke-linejoin="round"/>
<path d="M39.4199 21.9692C38.9268 22.082 37.9083 22.2592 37.399 22.2351" stroke="#F7CE6D" stroke-miterlimit="10" stroke-linecap="round" stroke-linejoin="round"/>
<path d="M38.7649 26.3286C38.6356 26.8201 38.3203 27.795 38.0535 28.23" stroke="#E7E3DE" stroke-miterlimit="10" stroke-linecap="round" stroke-linejoin="round"/>
<path d="M38.3853 32.1766C37.9083 32.3458 36.9221 32.6519 36.4129 32.6842" stroke="#8AD1CB" stroke-miterlimit="10" stroke-linecap="round" stroke-linejoin="round"/>
<path d="M22.5413 37.5917C22.032 37.5997 20.9973 37.5675 20.5123 37.4386" stroke="#F7CE6D" stroke-miterlimit="10" stroke-linecap="round" stroke-linejoin="round"/>
<path d="M20.0759 34.5294C19.6798 34.8436 18.8472 35.4559 18.3784 35.6493" stroke="#8AD1CB" stroke-miterlimit="10" stroke-linecap="round" stroke-linejoin="round"/>
<path d="M15.711 30.9934C15.9454 31.4446 16.39 32.3711 16.4951 32.8707" stroke="#F7CE6D" stroke-miterlimit="10" stroke-linecap="round" stroke-linejoin="round"/>
<path d="M41.6345 30.1152C41.1333 30.0185 40.131 29.7768 39.6783 29.5512" stroke="#F7CE6D" stroke-miterlimit="10" stroke-linecap="round" stroke-linejoin="round"/>
<path d="M20.6255 15.6128C20.6255 16.2009 21.1024 16.6763 21.6925 16.6763C22.2826 16.6763 22.7595 16.2009 22.7595 15.6128C22.7595 15.0246 22.2826 14.5493 21.6925 14.5493C21.1024 14.5493 20.6255 15.0246 20.6255 15.6128Z" fill="#7C615B"/>
<path d="M21.62 15.081C21.62 15.2905 21.7898 15.4597 22 15.4597C22.2101 15.4597 22.3799 15.2905 22.3799 15.081C22.3799 14.8715 22.2101 14.7023 22 14.7023C21.7898 14.7023 21.62 14.8715 21.62 15.081Z" fill="#F1F2F2"/>
<path d="M31.498 15.6127C31.498 16.2009 31.975 16.6762 32.5651 16.6762C33.1552 16.6762 33.6321 16.2009 33.6321 15.6127C33.6321 15.0246 33.1552 14.5492 32.5651 14.5492C31.975 14.5492 31.498 15.0246 31.498 15.6127Z" fill="#7C615B"/>
<path d="M32.4926 15.0809C32.4926 15.2904 32.6623 15.4596 32.8725 15.4596C33.0827 15.4596 33.2524 15.2904 33.2524 15.0809C33.2524 14.8715 33.0827 14.7023 32.8725 14.7023C32.6623 14.7023 32.4926 14.8715 32.4926 15.0809Z" fill="#F1F2F2"/>
<path d="M26.3247 16.1691C26.3247 16.733 26.7855 17.1923 27.3513 17.1923C27.9172 17.1923 28.3779 16.733 28.3779 16.1691" stroke="#7C615B" stroke-miterlimit="10" stroke-linecap="round" stroke-linejoin="round"/>
<path d="M11.289 22.8316C11.2809 22.8557 11.3213 22.8638 11.3375 22.8799C11.3941 22.9202 11.4426 22.9766 11.483 23.033C11.5153 23.0813 11.5315 23.1297 11.5557 23.178C11.5638 23.2022 11.5719 23.2344 11.5881 23.2586C11.6042 23.2908 11.6204 23.3311 11.6447 23.2747C11.6608 23.2425 11.6608 23.2022 11.677 23.1619C11.7012 23.1055 11.7255 23.0491 11.7659 23.0007C11.7902 22.9605 11.8306 22.9282 11.8629 22.896C11.8872 22.8718 11.9599 22.8396 11.9114 22.7993C11.8548 22.759 11.7983 22.7107 11.7578 22.6543C11.7255 22.606 11.7012 22.5496 11.677 22.4932C11.6608 22.4609 11.6527 22.3481 11.6204 22.3481C11.58 22.3481 11.5638 22.4609 11.5477 22.4851C11.5234 22.5335 11.5072 22.5818 11.483 22.6221C11.4587 22.6624 11.4426 22.6946 11.4102 22.7268C11.386 22.751 11.2971 22.8154 11.289 22.8316Z" fill="#F1F2F2"/>
<path d="M13.5929 21.5099C13.5848 21.5663 13.6657 21.5824 13.698 21.6066C13.8031 21.6952 13.9082 21.8 13.9809 21.9128C14.0375 22.0094 14.086 22.1061 14.1264 22.2028C14.1507 22.2592 14.1668 22.3156 14.183 22.372C14.2073 22.4445 14.2558 22.517 14.3043 22.4123C14.3366 22.3398 14.3447 22.2592 14.377 22.1947C14.4255 22.082 14.4821 21.9692 14.5468 21.8644C14.6034 21.7838 14.668 21.7113 14.7408 21.6469C14.7893 21.5985 14.9429 21.526 14.8378 21.4455C14.7246 21.3568 14.6114 21.2682 14.5306 21.1474C14.4659 21.0507 14.4093 20.9379 14.3608 20.8251C14.3285 20.7606 14.3123 20.527 14.2477 20.527C14.1749 20.527 14.1264 20.7526 14.1022 20.809C14.0618 20.9057 14.0133 21.0023 13.9648 21.091C13.9162 21.1796 13.8839 21.236 13.8112 21.3085C13.7788 21.3568 13.601 21.4696 13.5929 21.5099Z" fill="#F1F2F2"/>
<path d="M12.8332 24.6917C12.8252 24.7481 12.906 24.7642 12.9383 24.7884C13.0434 24.877 13.1485 24.9817 13.2212 25.1026C13.2778 25.1993 13.3263 25.2959 13.3667 25.3926C13.391 25.449 13.4072 25.5054 13.4233 25.5618C13.4476 25.6343 13.4961 25.7068 13.5446 25.6021C13.5769 25.5296 13.585 25.449 13.6173 25.3846C13.6658 25.2718 13.7224 25.159 13.7871 25.0542C13.8437 24.9737 13.9083 24.9012 13.9811 24.8367C14.0377 24.7884 14.1832 24.7158 14.0781 24.6353C13.9649 24.5467 13.8518 24.458 13.7709 24.3372C13.7063 24.2405 13.6497 24.1277 13.6012 24.0149C13.5769 23.9504 13.5527 23.7168 13.488 23.7168C13.4153 23.7168 13.3667 23.9424 13.3425 23.9988C13.3021 24.0955 13.2536 24.1922 13.2051 24.2808C13.1566 24.3694 13.1242 24.4258 13.0515 24.4983C13.0192 24.5305 12.8413 24.6514 12.8332 24.6917Z" fill="#F1F2F2"/>
<path d="M36.9301 37.8172C36.922 37.8494 36.9786 37.8656 36.9948 37.8817C37.0675 37.9381 37.1322 38.0106 37.1807 38.0831C37.2211 38.1475 37.2453 38.212 37.2777 38.2765C37.2939 38.3087 37.3019 38.349 37.3181 38.3893C37.3343 38.4376 37.3666 38.4859 37.3989 38.4134C37.4232 38.3651 37.4232 38.3167 37.4474 38.2684C37.4798 38.1959 37.5121 38.1234 37.5606 38.0509C37.601 37.9945 37.6414 37.9542 37.6899 37.9058C37.7223 37.8736 37.8193 37.8253 37.7546 37.7769C37.6819 37.7205 37.6091 37.6561 37.5525 37.5836C37.5121 37.5191 37.4717 37.4466 37.4394 37.3741C37.4232 37.3338 37.407 37.1807 37.3585 37.1807C37.31 37.1807 37.2777 37.3257 37.2615 37.366C37.2292 37.4305 37.2049 37.4869 37.1726 37.5513C37.1403 37.6077 37.116 37.648 37.0756 37.6964C37.0594 37.7125 36.9382 37.785 36.9301 37.8172C36.9301 37.8092 36.9301 37.8172 36.9301 37.8172Z" fill="#F1F2F2"/>
<path d="M39.234 36.4468C39.2259 36.4951 39.2986 36.5113 39.3229 36.5354C39.4199 36.6079 39.5088 36.7046 39.5735 36.8094C39.622 36.8899 39.6624 36.9786 39.7028 37.0672C39.719 37.1155 39.7351 37.1639 39.7513 37.2122C39.7756 37.2767 39.816 37.3411 39.8564 37.2444C39.8806 37.18 39.8887 37.1155 39.9211 37.0511C39.9615 36.9544 40.01 36.8496 40.0746 36.761C40.1231 36.6885 40.1878 36.6321 40.2444 36.5677C40.2929 36.5193 40.4222 36.4629 40.3333 36.3904C40.2363 36.3098 40.1312 36.2293 40.0666 36.1245C40.01 36.0359 39.9615 35.9392 39.9211 35.8425C39.8968 35.7861 39.8806 35.5847 39.816 35.5847C39.7513 35.5847 39.7109 35.7861 39.6866 35.8345C39.6462 35.915 39.6139 36.0037 39.5654 36.0842C39.525 36.1568 39.4926 36.2132 39.4361 36.2776C39.4037 36.3018 39.242 36.4065 39.234 36.4468C39.234 36.4387 39.234 36.4468 39.234 36.4468Z" fill="#F1F2F2"/>
<path d="M36.3643 41.5393C36.3562 41.5876 36.429 41.6037 36.4533 41.6279C36.5503 41.7004 36.6392 41.7971 36.7038 41.9018C36.7523 41.9824 36.7928 42.071 36.8332 42.1596C36.8493 42.208 36.8655 42.2563 36.8817 42.3047C36.9059 42.3691 36.9463 42.4336 36.9868 42.3369C37.011 42.2724 37.0191 42.208 37.0514 42.1435C37.0918 42.0469 37.1403 41.9421 37.205 41.8535C37.2535 41.781 37.3101 41.7246 37.3748 41.6601C37.4233 41.6198 37.5526 41.5554 37.4637 41.4829C37.3667 41.4023 37.2616 41.3217 37.1889 41.217C37.1323 41.1284 37.0838 41.0317 37.0433 40.935C37.0191 40.8786 37.0029 40.6691 36.9383 40.6691C36.8736 40.6691 36.8332 40.8706 36.8089 40.9189C36.7685 40.9995 36.7362 41.0881 36.6877 41.1687C36.6473 41.2412 36.6149 41.2976 36.5583 41.362C36.5341 41.3942 36.3724 41.499 36.3643 41.5393C36.3643 41.5312 36.3643 41.5393 36.3643 41.5393Z" fill="#F1F2F2"/>
<path d="M38.9592 40.2661C38.9511 40.3386 39.0562 40.3628 39.0966 40.395C39.2341 40.5078 39.3796 40.6528 39.4685 40.8059C39.5412 40.9268 39.6059 41.0557 39.6625 41.1926C39.6948 41.2651 39.711 41.3377 39.7352 41.4102C39.7676 41.5068 39.8322 41.6035 39.8969 41.4585C39.9373 41.3618 39.9454 41.2651 39.9939 41.1685C40.0586 41.0234 40.1232 40.8704 40.2202 40.7414C40.293 40.6367 40.3819 40.54 40.4789 40.4514C40.5517 40.3869 40.7457 40.2983 40.6083 40.1855C40.4628 40.0727 40.3092 39.9438 40.2041 39.7907C40.1152 39.6618 40.0505 39.5168 39.9858 39.3718C39.9454 39.2912 39.9212 38.977 39.8322 38.977C39.7352 38.977 39.6706 39.2751 39.6382 39.3476C39.5816 39.4685 39.5251 39.5974 39.4604 39.7182C39.3957 39.831 39.3553 39.9116 39.2583 40.0083C39.2098 40.0566 38.9754 40.2097 38.9592 40.2661C38.9592 40.258 38.9592 40.2661 38.9592 40.2661Z" fill="#F1F2F2"/>
<path d="M35.9197 20.6958C35.9117 20.7442 35.9844 20.7603 36.0087 20.7845C36.1057 20.857 36.1946 20.9536 36.2593 21.0584C36.3078 21.139 36.3563 21.2276 36.3886 21.3162C36.4048 21.3645 36.4209 21.4129 36.4371 21.4612C36.4613 21.5257 36.5018 21.5901 36.5422 21.4935C36.5664 21.429 36.5745 21.3645 36.6068 21.3001C36.6473 21.2034 36.6958 21.0987 36.7604 21.01C36.8089 20.9375 36.8655 20.8811 36.9302 20.8167C36.9787 20.7683 37.108 20.7119 37.0191 20.6394C36.9221 20.5589 36.817 20.4783 36.7443 20.3736C36.6877 20.2849 36.6392 20.1882 36.5988 20.0916C36.5745 20.0352 36.5583 19.8257 36.4937 19.8257C36.429 19.8257 36.3886 20.0271 36.3643 20.0754C36.3239 20.156 36.2916 20.2446 36.2431 20.3252C36.2027 20.3977 36.1703 20.4541 36.1137 20.5186C36.0814 20.5589 35.9278 20.6636 35.9197 20.6958Z" fill="#F1F2F2"/>
<path d="M38.5064 19.4317C38.4983 19.5042 38.6034 19.5284 38.6438 19.5606C38.7812 19.6734 38.9267 19.8184 39.0156 19.9715C39.0884 20.0923 39.153 20.2213 39.2096 20.3582C39.242 20.4307 39.2581 20.5032 39.2824 20.5758C39.3147 20.6724 39.3794 20.7691 39.444 20.6241C39.4845 20.5274 39.4925 20.4227 39.533 20.3341C39.5976 20.189 39.6704 20.0359 39.7593 19.907C39.8321 19.8023 39.921 19.7056 40.018 19.617C40.0907 19.5525 40.2847 19.4639 40.1473 19.3511C40.0018 19.2303 39.8482 19.1094 39.7431 18.9563C39.6542 18.8274 39.5896 18.6824 39.5249 18.5374C39.4845 18.4568 39.4602 18.1426 39.3713 18.1426C39.2743 18.1426 39.2096 18.4407 39.1773 18.5132C39.1207 18.634 39.0641 18.763 38.9995 18.8838C38.9348 18.9966 38.8944 19.0772 38.7974 19.1739C38.765 19.2222 38.5225 19.3753 38.5064 19.4317C38.5144 19.4236 38.5144 19.4236 38.5064 19.4317Z" fill="#F1F2F2"/>
<path d="M27.4649 8.78863C26.7778 8.78863 26.0826 8.82891 25.4036 8.90948C20.9334 9.43318 16.827 11.1896 13.8442 13.8403C12.9954 14.5976 12.2194 15.4356 11.5323 16.3299C9.93176 18.4166 8.79198 20.5678 8.12913 22.7271C7.54712 24.6204 7.23186 26.7474 7.23186 28.7133C7.23186 32.7659 8.60606 37.1005 10.9179 40.3152C13.9816 44.5935 18.468 47.3811 23.5444 48.1788C25.2258 48.4446 26.6081 48.5655 27.8853 48.5655C29.3888 48.5655 30.7549 48.3963 32.0564 48.0418C34.7078 47.3167 37.149 46.1887 39.1052 44.7626C40.3258 43.8764 41.4575 42.8451 42.3952 41.7735C43.252 40.7906 44.0604 39.6304 44.7152 38.4058C45.5235 36.9072 46.1459 35.4086 46.5097 34.0631C46.8977 32.637 47.1241 31.2512 47.1887 29.9541C47.3827 25.5711 46.3238 21.446 44.117 18.0138C43.4945 17.055 42.8074 16.1607 42.0638 15.355C38.2483 11.246 32.7839 8.78863 27.4649 8.78863ZM27.3841 36.1257C26.8667 36.1257 26.3413 36.0854 25.824 36.0048C23.9243 35.7067 22.243 34.6593 21.0951 33.056C20.7313 32.5484 20.4323 31.9602 20.1978 31.3399C19.8826 30.4939 19.7047 29.5754 19.7047 28.6972C19.7047 28.5441 19.7128 28.383 19.7209 28.2218C19.729 28.1574 19.729 28.0849 19.7371 28.0204C19.7452 27.9318 19.7532 27.8432 19.7694 27.7546C19.7856 27.6498 19.7937 27.5451 19.8098 27.4403C19.8664 27.1019 19.9392 26.7636 20.0362 26.4413C20.2868 25.6275 20.7152 24.8218 21.3214 24.0323C21.572 23.7019 21.8711 23.3797 22.1864 23.1057C23.3019 22.1067 24.8539 21.4541 26.5434 21.2526C26.794 21.2204 27.0527 21.2043 27.3113 21.2043C29.308 21.2043 31.3612 22.1308 32.8 23.6778C33.0749 23.9759 33.3336 24.3143 33.568 24.6768C34.3925 25.9659 34.7967 27.5209 34.7158 29.1726C34.6916 29.656 34.6108 30.1716 34.4653 30.7114C34.3278 31.211 34.0934 31.783 33.7862 32.347C33.5356 32.8062 33.2366 33.2413 32.9213 33.6039C32.5656 34.0067 32.1372 34.3934 31.6845 34.7238C30.9489 35.2555 30.0274 35.6825 29.025 35.9565C28.9119 35.9887 28.7987 36.0129 28.6855 36.037C28.2652 36.0934 27.8287 36.1257 27.3841 36.1257ZM27.4649 7C33.277 7 39.2264 9.67489 43.3895 14.1465C44.2059 15.0247 44.9577 15.9995 45.6367 17.055C48.0375 20.8015 49.1934 25.2891 48.9833 30.0347C48.9186 31.4607 48.668 32.9754 48.2477 34.5304C47.8435 36.0048 47.1726 37.6323 46.2995 39.2437C45.5801 40.5811 44.699 41.8541 43.7532 42.9337C42.7266 44.102 41.4898 45.2299 40.1641 46.1968C38.0301 47.7437 35.3949 48.9764 32.5333 49.7499C31.0783 50.1446 29.5586 50.338 27.8933 50.338C26.5191 50.338 25.0479 50.2091 23.2696 49.9271C17.7162 49.057 12.8176 46.0034 9.471 41.3385C6.95702 37.8337 5.45348 33.1043 5.45348 28.6972C5.45348 26.5621 5.80107 24.2498 6.43159 22.1872C7.15911 19.8185 8.39589 17.482 10.1258 15.2261C10.8856 14.2351 11.7425 13.3166 12.6721 12.4867C15.9136 9.61043 20.3676 7.70095 25.2015 7.12891C25.9452 7.04834 26.7132 7 27.4649 7ZM28.3945 34.2726C28.4592 34.2565 28.5077 34.2484 28.5643 34.2323C29.3645 34.0148 30.084 33.6844 30.6417 33.2735C30.9893 33.0157 31.3208 32.7257 31.5875 32.4195C31.8219 32.1536 32.0402 31.8313 32.2261 31.4849C32.4686 31.0418 32.6545 30.5986 32.7515 30.228C32.8647 29.8171 32.9294 29.4304 32.9455 29.0839C33.0021 27.8029 32.703 26.6105 32.0725 25.6275C31.8947 25.3536 31.7007 25.1038 31.4986 24.8863C30.3912 23.6939 28.831 22.9849 27.3275 22.9849C27.1416 22.9849 26.9557 22.9929 26.7697 23.0171C25.444 23.1702 24.2396 23.6778 23.3989 24.4271C23.1726 24.6285 22.9543 24.8621 22.7684 25.1038C22.2915 25.7242 21.96 26.3446 21.7741 26.9489C21.7014 27.1745 21.6448 27.4323 21.5963 27.7143C21.5882 27.7868 21.572 27.8754 21.5639 27.964C21.5559 28.0285 21.5478 28.101 21.5397 28.1655C21.5316 28.2219 21.5316 28.2782 21.5235 28.3266C21.5154 28.4233 21.5074 28.5602 21.5074 28.6811C21.5074 29.3337 21.6367 30.0347 21.8873 30.7034C22.0651 31.1948 22.2915 31.6299 22.5582 32.0005C23.4312 33.2091 24.6923 33.9986 26.115 34.2242C26.5434 34.2887 26.9718 34.329 27.3922 34.329C27.7155 34.337 28.055 34.3129 28.3945 34.2726Z" fill="#F1F2F2"/>
</svg>
