<svg width="56" height="56" viewBox="0 0 56 56" fill="none" xmlns="http://www.w3.org/2000/svg">
<circle cx="28" cy="28" r="27.5" fill="#B3A2CE" stroke="white"/>
<g clip-path="url(#clip0)">
<path opacity="0.64" d="M24.4181 47.9323C24.3277 47.9096 24.2373 47.8869 24.1469 47.8642H24.1356C24.0904 47.8529 24.0452 47.8415 23.9887 47.8188C23.8079 47.7621 23.6271 47.6827 23.4576 47.592C22.757 47.2177 22.1921 46.6278 21.7966 45.8452C21.7175 45.8679 21.6384 45.8906 21.5706 45.9019C21.3446 45.9586 21.1186 45.9927 20.8926 46.004C20.5989 46.0267 20.3164 46.004 20.0452 45.9473C19.5141 45.8452 19.0395 45.607 18.6327 45.2554C18.5537 45.1873 18.4859 45.1193 18.4068 45.0512C18.3051 44.9491 18.2147 44.8357 18.1243 44.7223C16.7457 42.9074 17.7627 40.6843 18.3164 39.5727C18.1695 39.6294 18.0226 39.6861 17.8757 39.7428C17.1073 40.0037 16.2599 40.0604 15.4802 39.9016C14.3277 39.6748 13.4237 39.0055 12.9378 38.0301C12.8022 37.7465 12.7005 37.4516 12.6327 37.1567C12.5989 36.9752 12.565 36.7824 12.565 36.6009C12.5424 36.0791 12.6215 35.546 12.8135 35.0129C11.9435 34.5138 11.3672 33.7425 11.1864 32.7897C11.1638 32.6649 11.1412 32.5402 11.1412 32.4154C11.1186 32.2112 11.1299 31.9957 11.1525 31.7802C11.3107 30.3283 12.4181 29.0353 13.9774 28.4795C14.226 28.3887 14.4746 28.3207 14.7344 28.2526C13.9548 27.8783 13.209 27.4019 12.5989 26.744C11.7853 25.8706 11.4124 24.7591 11.5819 23.6928C11.7401 22.672 12.3503 21.8213 13.322 21.2768C13.7288 21.05 14.1808 20.8912 14.6327 20.8231C14.5876 20.3014 14.6327 19.7569 14.8587 19.1671C15.435 17.6358 16.8926 16.9099 18.6553 17.2615C19.1977 17.3749 19.7401 17.5791 20.2486 17.8513C20.8022 18.1576 21.2994 18.5206 21.7627 18.9062C21.6723 18.4865 21.6045 18.0555 21.5367 17.6358C21.4011 16.7965 21.0056 14.2557 22.7344 12.9853C22.9265 12.8378 23.1525 12.7244 23.3785 12.6223C23.774 12.4635 24.2147 12.3728 24.7005 12.3614C24.9943 12.3614 25.2768 12.3841 25.548 12.4408C25.9887 12.5316 26.4181 12.6904 26.8135 12.9286C27.0169 13.0534 27.209 13.1895 27.3898 13.3369C27.4689 13.405 27.5593 13.4844 27.6384 13.5638C27.8192 13.3596 28.0113 13.1781 28.2147 13.0193C28.4068 12.8605 28.6102 12.7244 28.8248 12.611C29.209 12.4068 29.6158 12.2594 30.0565 12.1913C30.4859 12.1233 30.9152 12.1233 31.3333 12.2027C31.5028 12.2367 31.6723 12.282 31.8305 12.3388C32.0565 12.4182 32.2825 12.5316 32.4972 12.6677C33.2994 13.1895 33.887 14.0515 34.1469 15.0724C34.9491 14.4712 35.9322 14.2217 36.87 14.4031C37.661 14.5619 38.3277 15.0043 38.8135 15.6849C38.9604 15.9004 39.1186 16.1499 39.2316 16.4448C39.8192 16.3087 40.3277 16.3314 40.7457 16.4221C41.1751 16.5129 41.5819 16.6717 41.9661 16.9099C42.8248 17.443 43.3785 18.2483 43.5819 19.2351C43.8305 20.4488 43.4915 21.912 42.6892 23.069C43.4576 22.9782 44.1356 23.0009 44.7344 23.1144C45.4124 23.2505 45.9887 23.5227 46.4407 23.9197C46.6666 24.1239 46.87 24.3507 47.0282 24.6116C47.1977 24.8952 47.3333 25.2128 47.4124 25.553C47.548 26.0975 47.548 26.642 47.4124 27.1637C47.3672 27.3452 47.2994 27.538 47.209 27.7195C47.2655 27.7876 47.322 27.8443 47.3672 27.9123C47.7062 28.366 47.9096 28.8992 47.9774 29.5003C48.0113 29.8179 48 30.1355 47.9435 30.4304V30.4418C47.887 30.7594 47.774 31.0656 47.6045 31.3378C46.8813 32.5969 45.3898 33.0733 44.113 33.3342C44.4972 33.6518 44.8135 34.0147 45.0508 34.4117C45.1638 34.6045 45.2655 34.8201 45.3446 35.0356C45.7514 36.1812 45.5593 37.4402 44.8022 38.4951C44.6779 38.6652 44.5424 38.8354 44.3955 38.9828C43.9435 39.4592 43.4011 39.8222 42.8135 40.0491C42.757 40.6162 42.5536 41.1607 42.2373 41.637C41.7401 42.363 41.0056 42.8734 40.1017 43.0889C39.8079 43.157 39.5141 43.2023 39.1977 43.2023C38.8474 43.2137 38.4859 43.1797 38.1356 43.1116C37.9887 43.0776 37.8305 43.0435 37.6836 42.9982C37.8418 44.4387 37.322 45.9473 35.8418 46.6619C35.1977 46.9795 34.4859 47.0702 33.7966 46.9341C33.774 46.9341 33.7514 46.9228 33.7288 46.9228C33.2429 47.4445 32.5763 47.8188 31.8192 47.9323C31.4237 47.989 31.0282 47.989 30.644 47.9096C29.5141 47.6827 28.6666 46.9228 28.113 46.0721C27.887 46.4464 27.6158 46.7753 27.3107 47.0589C26.4972 47.8415 25.4576 48.1478 24.4181 47.9323Z" fill="#A3B0B2"/>
<path d="M23.2882 46.7981C23.1978 46.7754 23.1074 46.7527 23.017 46.7301H23.0057C22.9605 46.7187 22.9153 46.7074 22.8588 46.6847C22.678 46.628 22.4972 46.5486 22.3277 46.4578C21.6272 46.0835 21.0622 45.4937 20.6667 44.711C20.5876 44.7337 20.5085 44.7564 20.4407 44.7678C20.2147 44.8245 19.9887 44.8585 19.7628 44.8698C19.469 44.8925 19.1865 44.8698 18.9153 44.8131C18.3842 44.711 17.9096 44.4729 17.5029 44.1212C17.4238 44.0532 17.356 43.9851 17.2769 43.9171C17.1752 43.815 17.0848 43.7015 16.9944 43.5881C15.6159 41.7733 16.6328 39.5501 17.1865 38.4385C17.0396 38.4952 16.8927 38.5519 16.7458 38.6087C15.9774 38.8695 15.13 38.9263 14.3503 38.7675C13.1978 38.5406 12.2938 37.8714 11.808 36.8959C11.6724 36.6123 11.5707 36.3174 11.5029 36.0225C11.469 35.841 11.4351 35.6482 11.4351 35.4667C11.4125 34.945 11.4916 34.4118 11.6837 33.8787C10.8136 33.3797 10.2373 32.6083 10.0565 31.6556C10.0339 31.5308 10.0113 31.406 10.0113 31.2812C9.98874 31.0771 10 30.8616 10.0226 30.6461C10.1808 29.1942 11.2882 27.9011 12.8475 27.3453C13.0961 27.2546 13.3447 27.1865 13.6046 27.1185C12.8249 26.7442 12.0791 26.2678 11.469 25.6099C10.6554 24.7365 10.2825 23.6249 10.452 22.5587C10.6102 21.5378 11.2204 20.6871 12.1921 20.1427C12.5989 19.9158 13.0509 19.757 13.5029 19.689C13.4577 19.1672 13.5029 18.6228 13.7289 18.0329C14.3051 16.5017 15.7628 15.7757 17.5255 16.1274C18.0678 16.2408 18.6102 16.445 19.1187 16.7172C19.6724 17.0234 20.1695 17.3864 20.6328 17.7721C20.5424 17.3524 20.4746 16.9213 20.4068 16.5017C20.2712 15.6623 19.8757 13.1215 21.6046 11.8511C21.7967 11.7037 22.0226 11.5903 22.2486 11.4882C22.6441 11.3294 23.0848 11.2386 23.5707 11.2273C23.8644 11.2273 24.1469 11.25 24.4181 11.3067C24.8588 11.3974 25.2882 11.5562 25.6837 11.7944C25.887 11.9192 26.0791 12.0553 26.2599 12.2028C26.339 12.2708 26.4294 12.3502 26.5085 12.4296C26.6893 12.2255 26.8814 12.044 27.0848 11.8852C27.2769 11.7264 27.4803 11.5903 27.695 11.4768C28.0791 11.2727 28.4859 11.1252 28.9266 11.0572C29.356 10.9891 29.7854 10.9891 30.2034 11.0685C30.3729 11.1025 30.5424 11.1479 30.7006 11.2046C30.9266 11.284 31.1526 11.3974 31.3673 11.5335C32.1695 12.0553 32.7571 12.9174 33.017 13.9382C33.8193 13.337 34.8023 13.0875 35.7402 13.269C36.5311 13.4278 37.1978 13.8702 37.6837 14.5507C37.8306 14.7662 37.9887 15.0158 38.1017 15.3107C38.6893 15.1746 39.1978 15.1973 39.6159 15.288C40.0452 15.3787 40.452 15.5375 40.8362 15.7757C41.695 16.3088 42.2486 17.1142 42.452 18.101C42.7006 19.3147 42.3616 20.7779 41.5594 21.9348C42.3277 21.8441 43.0057 21.8668 43.6046 21.9802C44.2825 22.1163 44.8588 22.3885 45.3108 22.7855C45.5368 22.9897 45.7402 23.2166 45.8983 23.4774C46.0678 23.761 46.2034 24.0786 46.2825 24.4189C46.4181 24.9633 46.4181 25.5078 46.2825 26.0296C46.2373 26.211 46.1695 26.4039 46.0791 26.5854C46.1356 26.6534 46.1921 26.7101 46.2373 26.7782C46.5763 27.2319 46.7797 27.765 46.8475 28.3662C46.8814 28.6838 46.8701 29.0014 46.8136 29.2963V29.3076C46.7571 29.6252 46.6441 29.9315 46.4746 30.2037C45.7515 31.4627 44.2599 31.9391 42.9831 32.2C43.3673 32.5176 43.6837 32.8806 43.9209 33.2776C44.0339 33.4704 44.1356 33.6859 44.2147 33.9014C44.6215 35.047 44.4294 36.3061 43.6724 37.361C43.5481 37.5311 43.4125 37.7012 43.2656 37.8487C42.8136 38.3251 42.2712 38.6881 41.6837 38.9149C41.6272 39.482 41.4238 40.0265 41.1074 40.5029C40.6102 41.2288 39.8757 41.7393 38.9718 41.9548C38.678 42.0228 38.3842 42.0682 38.0678 42.0682C37.7176 42.0795 37.356 42.0455 37.0057 41.9774C36.8588 41.9434 36.7006 41.9094 36.5537 41.864C36.7119 43.3046 36.1921 44.8131 34.7119 45.5277C34.0678 45.8453 33.356 45.9361 32.6667 45.7999C32.6441 45.7999 32.6215 45.7886 32.5989 45.7886C32.113 46.3104 31.4464 46.6847 30.6893 46.7981C30.2938 46.8548 29.8983 46.8548 29.5142 46.7754C28.3842 46.5486 27.5368 45.7886 26.9831 44.9379C26.7571 45.3122 26.4859 45.6412 26.1808 45.9247C25.3673 46.7074 24.3277 47.0136 23.2882 46.7981Z" fill="white"/>
<path d="M40.0677 17.023C38.87 16.2857 37.6722 16.8415 36.7344 17.7149C36.9942 16.9436 37.0055 16.1155 36.4971 15.4123C35.7513 14.3801 34.4293 14.5049 33.5931 15.3442C32.9377 16.0021 32.6214 16.9549 32.2598 17.7943C31.74 18.9966 31.2541 20.2103 30.7909 21.4353C30.0903 23.2955 29.3897 25.1784 28.7683 27.0726C28.6666 27.3675 28.5762 27.6624 28.4745 27.9574C28.2937 28.2523 28.757 28.6152 29.062 28.343C29.2541 28.1729 29.4575 28.0027 29.6609 27.8553C33.0055 25.3258 37.8643 24.7247 40.3615 21.1517C41.2089 19.938 41.5479 17.9417 40.0677 17.023Z" fill="#73004E"/>
<path d="M34.9491 41.2965C34.2711 39.4817 32.8361 37.7803 31.7965 36.1582C30.7344 34.5136 29.7061 32.8462 28.6101 31.2128C28.4406 30.9519 28.2711 30.7024 28.0903 30.4529C28.079 30.4188 28.0564 30.3848 28.0338 30.3621C28.0225 30.3508 28.0112 30.3281 27.9999 30.3167C27.74 29.9424 27.1864 30.3167 27.4237 30.7024C27.435 30.7137 27.4463 30.7364 27.4576 30.7478C27.435 30.9519 27.4124 31.1561 27.3898 31.3489C27.1977 33.1751 27.1638 35.0126 27.2203 36.8502C27.2768 38.8692 27.1638 41.2398 27.7626 43.1907C28.1242 44.359 29.1412 45.5954 30.4971 45.3799C31.322 45.2551 31.9208 44.6199 31.9999 43.86C32.5197 44.4157 33.322 44.6199 34.1016 44.2456C35.2203 43.7238 35.3446 42.34 34.9491 41.2965Z" fill="#E29C40"/>
<path d="M26.7683 28.5924C26.7683 28.5017 26.7344 28.411 26.6666 28.3316C26.4519 28.116 26.2372 27.8778 26.0338 27.651C23.3897 24.5431 22.0903 20.0514 18.4067 17.987C17.3219 17.3745 15.6157 17.0909 15.0734 18.5541C14.644 19.7111 15.2767 20.7092 15.9547 21.6507C14.9943 21.1062 13.9095 20.8454 12.8813 21.4238C11.5931 22.1498 11.5592 23.613 12.5084 24.6338C13.9321 26.1424 16.3389 26.5394 18.2485 27.0158C20.6666 27.617 23.0847 28.2295 25.514 28.808C25.7626 28.8647 26.0225 28.9327 26.2711 28.9894C26.305 29.0008 26.3502 29.0121 26.3841 29.0121C26.4971 29.0348 26.5875 29.0121 26.644 28.9554C26.7683 28.876 26.8135 28.7172 26.7683 28.5924Z" fill="#CF4A57"/>
<path d="M16.7346 19.4624C16.9154 19.6212 17.1978 19.6666 17.3899 19.5078C17.4351 19.4737 17.469 19.4284 17.4916 19.383C17.6837 19.2129 17.7628 18.9179 17.6046 18.6797C17.4916 18.5096 17.2656 18.4075 17.0623 18.4302C16.825 18.4529 16.6442 18.6344 16.5877 18.8499C16.5086 19.0654 16.5651 19.3036 16.7346 19.4624Z" fill="white"/>
<path d="M17.5595 21.0841C17.2883 21.4244 17.4917 22.0142 17.9662 21.9915C18.0227 21.9915 18.0679 21.9802 18.1131 21.9575C18.3956 21.8781 18.6216 21.5605 18.5086 21.2543C18.373 20.8686 17.8306 20.7438 17.5595 21.0841Z" fill="white"/>
<path d="M19.7402 20.1309C19.7515 20.0628 19.7515 20.0061 19.7402 19.9381C19.7628 19.7339 19.6498 19.5411 19.469 19.4503C19.0396 19.2462 18.5537 19.7112 18.7458 20.1536C18.8362 20.3578 19.0396 20.5052 19.2656 20.4939C19.4803 20.4939 19.695 20.3464 19.7402 20.1309Z" fill="white"/>
<path d="M20.6668 21.8103C20.712 21.47 20.3391 21.1977 20.0228 21.3225C19.7064 21.4473 19.6273 21.9123 19.8872 22.1279C19.9889 22.2186 20.1358 22.2413 20.2487 22.2073C20.4521 22.1732 20.6329 22.0258 20.6668 21.8103Z" fill="white"/>
<path d="M13.966 21.7874C13.6722 21.5719 13.1977 21.7987 13.2203 22.173C13.2429 22.57 13.7626 22.8082 14.0338 22.4679C14.079 22.4112 14.1016 22.3545 14.1129 22.2864C14.1694 22.1163 14.1355 21.9008 13.966 21.7874Z" fill="white"/>
<path d="M15.8194 22.3205C15.6273 22.6381 15.8758 23.1712 16.2939 23.0465C16.373 23.0238 16.4408 22.9784 16.486 22.9104C16.6442 22.7969 16.7459 22.5814 16.6555 22.3772C16.486 22.037 16.0114 22.0029 15.8194 22.3205Z" fill="white"/>
<path d="M15.2542 23.0921C15.096 23.0127 14.9265 23.0694 14.8022 23.1715C14.6779 23.2736 14.6101 23.4437 14.6666 23.6139C14.757 23.8861 15.1299 23.9882 15.3446 23.7953C15.5706 23.6025 15.5141 23.2169 15.2542 23.0921Z" fill="white"/>
<path d="M18.7908 25.5871C18.6326 25.5191 18.4631 25.5644 18.3388 25.6665C18.2145 25.7686 18.1467 25.9387 18.2032 26.1089C18.2936 26.3811 18.6665 26.4832 18.8812 26.2904C19.1072 26.1089 19.0507 25.7119 18.7908 25.5871Z" fill="white"/>
<path d="M17.2431 23.3755C16.9832 23.4889 16.8137 23.9086 17.0284 24.1128C17.0623 24.1582 17.0962 24.2035 17.1527 24.2376C17.4352 24.4304 17.8645 24.2603 17.9097 23.92C17.9662 23.557 17.5933 23.2167 17.2431 23.3755Z" fill="white"/>
<path d="M16.3277 24.986C16.2712 25.0314 16.2373 25.0881 16.2034 25.1561C16.1921 25.1675 16.1921 25.1788 16.1808 25.1902C16.0339 25.5078 16.2373 25.8934 16.5876 25.9161C16.9492 25.9388 17.243 25.5985 17.13 25.2469C17.0396 24.9179 16.6102 24.7478 16.3277 24.986Z" fill="white"/>
<path d="M13.0509 23.2397C12.7345 23.3191 12.5763 23.7161 12.7797 23.977C12.8701 24.0904 12.9944 24.1358 13.1187 24.1245C13.3334 24.1585 13.5707 24.0337 13.6271 23.8069C13.7288 23.4552 13.4012 23.1603 13.0509 23.2397Z" fill="white"/>
<path d="M14.6215 24.4528C14.3729 24.4869 14.1808 24.7591 14.3277 24.9973C14.3842 25.088 14.4972 25.1561 14.6102 25.1788C14.6893 25.1901 14.791 25.1674 14.8588 25.1221C14.9266 25.088 14.9718 25.0313 15.0057 24.9519C15.1074 24.7024 14.904 24.4075 14.6215 24.4528Z" fill="white"/>
<path d="M19.6498 23.0575C19.582 22.8987 19.4125 22.7853 19.2317 22.8193C19.0735 22.842 18.9379 22.9667 18.8927 23.1142C18.7797 23.4545 19.1413 23.7834 19.469 23.6473C19.6272 23.5792 19.7402 23.3978 19.6837 23.2276C19.6837 23.1596 19.6724 23.1029 19.6498 23.0575Z" fill="white"/>
<path d="M22.0113 23.6817C22.0113 23.625 22 23.5797 21.9774 23.5229C21.9096 23.3641 21.7401 23.2507 21.5593 23.2847C21.4011 23.3074 21.2655 23.4322 21.2203 23.5797C21.1074 23.9199 21.4689 24.2489 21.7966 24.1128C21.9548 24.0334 22.0678 23.8519 22.0113 23.6817Z" fill="white"/>
<path d="M20.5312 24.7248C20.2713 24.6113 19.9888 24.7474 19.8759 24.997C19.7516 25.2579 19.8872 25.6095 20.1696 25.6889C20.2939 25.7229 20.4408 25.6889 20.5425 25.5981C20.6555 25.5528 20.7459 25.4734 20.8024 25.36C20.9154 25.1218 20.7685 24.8382 20.5312 24.7248Z" fill="white"/>
<path d="M22.8023 25.2019C22.5198 25.2246 22.339 25.5536 22.4859 25.7918C22.5085 25.8598 22.5537 25.9165 22.6102 25.9619C22.8475 26.1434 23.1977 25.9846 23.2542 25.701C23.3107 25.4288 23.0621 25.1793 22.8023 25.2019Z" fill="white"/>
<path d="M21.3223 26.3928C21.2093 26.4609 21.1528 26.5743 21.1415 26.6877C21.0624 26.8465 21.1189 27.028 21.2432 27.1414C21.5144 27.391 22.0002 27.2208 22.0454 26.8465C22.0906 26.4722 21.6613 26.166 21.3223 26.3928Z" fill="white"/>
<path d="M24.1808 26.9147C23.8531 26.926 23.661 27.289 23.8418 27.5612C23.8531 27.5839 23.8757 27.6066 23.887 27.6179C23.887 27.6179 23.887 27.6293 23.8983 27.6293C24.0791 27.8788 24.4859 27.8448 24.6215 27.5612C24.7684 27.2663 24.5198 26.9033 24.1808 26.9147Z" fill="white"/>
<path d="M28.0339 32.4609C28.0791 32.5629 28.1808 32.6423 28.3051 32.665C28.4972 32.6991 28.6893 32.5743 28.7119 32.3701C28.7345 32.1546 28.5763 31.9391 28.339 31.9391C28.2373 31.9391 28.1356 31.9958 28.0678 32.0752C27.9887 32.1773 27.9661 32.2907 28.0113 32.4155C28.0226 32.4382 28.0339 32.4495 28.0339 32.4609Z" fill="white"/>
<path d="M28.4972 34.0148C28.4407 33.7313 28.1017 33.5384 27.8305 33.6632C27.6384 33.7539 27.548 33.9581 27.5819 34.1396C27.5932 34.3438 27.7401 34.5366 27.9435 34.5706C28.2599 34.6273 28.565 34.3211 28.4972 34.0148Z" fill="white"/>
<path d="M30.2711 34.4798C30.2146 34.0715 29.6384 33.924 29.435 34.2983C29.4237 34.321 29.4124 34.355 29.4011 34.3891C29.3333 34.5479 29.3898 34.7293 29.5141 34.8428C29.7966 35.0696 30.3389 34.8881 30.2711 34.4798Z" fill="white"/>
<path d="M28.531 36.8278C28.5423 36.4081 28.0225 36.1699 27.7174 36.4649C27.5931 36.5896 27.5479 36.7938 27.6157 36.9526C27.627 37.0093 27.6496 37.0547 27.6835 37.1114C27.9547 37.463 28.5197 37.2588 28.531 36.8278Z" fill="white"/>
<path d="M31.2655 36.1135C31.3785 35.7392 31.017 35.3762 30.6441 35.5123C30.4746 35.569 30.339 35.7278 30.3277 35.9093C30.3051 36.0341 30.339 36.1702 30.4181 36.2609C30.6441 36.5785 31.1525 36.4878 31.2655 36.1135Z" fill="white"/>
<path d="M29.051 38.2572C29.2091 38.2913 29.3673 38.2005 29.4464 38.0644C29.5142 37.9396 29.5029 37.7695 29.4012 37.6788C29.3673 37.6334 29.3221 37.5994 29.2769 37.5767C29.1639 37.52 29.0284 37.52 28.9154 37.588C28.6216 37.7468 28.7459 38.1892 29.051 38.2572Z" fill="white"/>
<path d="M31.2205 43.2367C31.1866 43.1913 31.1414 43.1573 31.0962 43.1346C30.9832 43.0779 30.8476 43.0779 30.7347 43.1459C30.4522 43.3047 30.5765 43.7585 30.8702 43.8152C31.0284 43.8492 31.1866 43.7585 31.2657 43.6223C31.3335 43.4976 31.3222 43.3274 31.2205 43.2367Z" fill="white"/>
<path d="M28.5989 38.915C28.5085 38.6769 28.1921 38.5634 27.9887 38.7109C27.9435 38.7449 27.8983 38.7903 27.8644 38.847C27.8531 38.8583 27.8418 38.881 27.8305 38.9037C27.7175 39.1646 27.9435 39.4822 28.226 39.4708C28.4972 39.4482 28.7006 39.1646 28.5989 38.915Z" fill="white"/>
<path d="M32.147 38.5405C32.2148 38.5518 32.2939 38.5405 32.3617 38.5064C32.5651 38.4043 32.6329 38.1321 32.5086 37.9393C32.373 37.7465 32.0679 37.7351 31.9097 37.9053C31.7063 38.1208 31.8306 38.5518 32.147 38.5405Z" fill="white"/>
<path d="M29.5254 44.0646C29.4011 44.144 29.3333 44.2915 29.3559 44.4276C29.3559 44.541 29.4011 44.6544 29.4915 44.7338C29.7288 44.938 30.1242 44.7792 30.1581 44.4729C30.192 44.1327 29.8305 43.8718 29.5254 44.0646Z" fill="white"/>
<path d="M28.4067 40.4009C28.2372 40.4236 28.1016 40.5484 28.0677 40.7072C28.0564 40.7866 28.0677 40.866 28.1016 40.9454C28.1242 41.0135 28.1581 41.0702 28.2033 41.1155C28.4067 41.3084 28.7683 41.2063 28.8587 40.9454C28.9491 40.6618 28.7005 40.3669 28.4067 40.4009Z" fill="white"/>
<path d="M30.147 42.2498C30.3277 42.2724 30.4972 42.1931 30.5989 42.0456C30.678 41.9208 30.6893 41.7393 30.5989 41.6259C30.5424 41.4785 30.3955 41.3877 30.2374 41.3764C30.0679 41.365 29.921 41.4444 29.8306 41.5805C29.6724 41.8414 29.8419 42.2044 30.147 42.2498Z" fill="white"/>
<path d="M31.4238 39.9469C31.4012 40.2418 31.695 40.48 31.9775 40.3779C32.2713 40.2758 32.3504 39.9015 32.1357 39.686C31.9549 39.5045 31.6498 39.5499 31.5142 39.7541C31.4577 39.7994 31.4351 39.8675 31.4238 39.9469Z" fill="white"/>
<path d="M31.695 42.1137C31.6498 42.159 31.6159 42.2044 31.5933 42.2611C31.5707 42.3065 31.5481 42.3632 31.5481 42.4199C31.5255 42.7262 31.8305 42.9644 32.1243 42.8623C32.3842 42.7715 32.5085 42.4539 32.3729 42.2158C32.2373 41.9776 31.8983 41.9322 31.695 42.1137Z" fill="white"/>
<path d="M34.6555 42.363C34.5425 42.2382 34.3504 42.2156 34.2035 42.2836C34.0566 42.363 33.9662 42.5218 33.9888 42.6919C34.0001 42.8054 34.0679 42.9301 34.2035 42.9642C34.2148 42.9642 34.2261 42.9642 34.2374 42.9642C34.3843 43.0322 34.5651 42.9982 34.6781 42.8621C34.7911 42.726 34.7911 42.4991 34.6555 42.363Z" fill="white"/>
<path d="M29.1641 42.7259C29.1528 42.7033 29.1302 42.6806 29.1076 42.6579C28.9494 42.5104 28.7008 42.5444 28.5539 42.6806C28.4861 42.7486 28.4409 42.828 28.4183 42.9188C28.3844 43.0435 28.3957 43.1683 28.4974 43.259C28.6443 43.3952 28.8703 43.4405 29.0511 43.3498C29.2432 43.2477 29.3336 43.0208 29.2319 42.828C29.2206 42.794 29.198 42.76 29.1641 42.7259Z" fill="white"/>
<path d="M33.322 43.3159C33.1977 43.3272 33.096 43.3839 33.0282 43.4747C32.9943 43.5087 32.9604 43.5427 32.9491 43.5767C32.8701 43.7469 32.9265 43.951 33.0734 44.0531C33.2203 44.1665 33.4237 44.1665 33.5819 44.0645C33.7401 43.951 33.7966 43.7582 33.7288 43.5767C33.6723 43.4066 33.4915 43.3045 33.322 43.3159Z" fill="white"/>
<path d="M34.2261 16.547C34.2374 16.5924 34.2487 16.6378 34.26 16.6831C34.4295 17.0121 34.8927 17.0801 35.1413 16.8079C35.4012 16.5243 35.2995 16.0479 34.9379 15.9232C34.7684 15.8551 34.5651 15.8778 34.4069 15.9799C34.2374 16.1047 34.147 16.3315 34.2148 16.5357C34.2261 16.5357 34.2261 16.547 34.2261 16.547Z" fill="white"/>
<path d="M35.9097 19.2239C36.2713 19.0311 36.3165 18.5207 35.9888 18.2711C35.7515 18.101 35.4238 18.1804 35.2544 18.3845C35.164 18.4639 35.0849 18.5887 35.0736 18.7135C35.0284 19.1558 35.5481 19.4167 35.9097 19.2239Z" fill="white"/>
<path d="M38.5538 18.3395C38.599 18.4416 38.6668 18.5323 38.791 18.589C39.1413 18.7592 39.5368 18.4983 39.5368 18.124C39.5368 17.7383 39.1413 17.5001 38.8023 17.6589C38.6216 17.7383 38.4973 17.9198 38.4973 18.124C38.486 18.2034 38.5086 18.2714 38.5538 18.3395Z" fill="white"/>
<path d="M38.2938 20.1545C38.2938 20.1771 38.2825 20.2112 38.2825 20.2339C38.2938 20.4721 38.4859 20.6762 38.7232 20.7102C39.1864 20.7556 39.5593 20.1204 39.2768 19.7348C38.9717 19.3264 38.3051 19.7234 38.2938 20.1545Z" fill="white"/>
<path d="M36.712 20.7661C36.7233 20.7775 36.7233 20.7775 36.7346 20.7775C36.7459 20.7888 36.7572 20.8115 36.7798 20.8228C37.0284 21.0837 37.4917 20.9589 37.616 20.6413C37.7516 20.2897 37.4465 19.87 37.0623 19.9268C36.6894 19.9948 36.4183 20.4712 36.712 20.7661Z" fill="white"/>
<path d="M32.5875 18.6796C32.5875 18.7477 32.6101 18.8044 32.644 18.8611C32.8022 19.156 33.2428 19.2014 33.4575 18.9518C33.6722 18.691 33.5931 18.2826 33.2767 18.1579C33.1185 18.0898 32.9491 18.1125 32.8022 18.1919C32.6327 18.2826 32.531 18.4868 32.5875 18.6796Z" fill="white"/>
<path d="M34.0338 20.1203C33.9208 20.2451 33.8643 20.4379 33.9321 20.6081C33.9773 20.7329 34.079 20.8236 34.192 20.869C34.4971 21.0051 34.8926 20.7555 34.8474 20.3926C34.7909 19.9956 34.305 19.8254 34.0338 20.1203Z" fill="white"/>
<path d="M31.729 21.0159C31.7516 21.0386 31.7742 21.05 31.7855 21.0613C31.7968 21.0726 31.8194 21.084 31.8307 21.0953C32.0793 21.2655 32.4409 21.118 32.4861 20.8118C32.5313 20.4942 32.2601 20.2219 31.9437 20.3013C31.6499 20.3807 31.4804 20.7777 31.729 21.0159Z" fill="white"/>
<path d="M35.4577 21.4928C35.3221 21.6289 35.2882 21.8444 35.3786 22.0032C35.4012 22.0372 35.4238 22.0713 35.4577 22.0939C35.4577 22.1053 35.469 22.1053 35.469 22.1166C35.7402 22.4229 36.2486 22.2074 36.2486 21.8104C36.2712 21.4134 35.7515 21.2092 35.4577 21.4928Z" fill="white"/>
<path d="M34.4296 22.3548C34.3053 21.9237 33.7516 21.867 33.5143 22.2413C33.4013 22.4228 33.4239 22.661 33.5708 22.8085C33.5821 22.8198 33.6047 22.8425 33.616 22.8538C33.6499 22.8879 33.6951 22.9219 33.7516 22.9446C34.1358 23.1034 34.5539 22.7518 34.4296 22.3548Z" fill="white"/>
<path d="M31.8984 22.7513C32.2035 22.9215 32.599 22.6719 32.5538 22.3203C32.5086 21.9347 32.0453 21.7872 31.7741 22.0708C31.6498 22.2069 31.6272 22.4224 31.7176 22.5812C31.7289 22.6039 31.7515 22.6266 31.7741 22.6492C31.8193 22.6946 31.8532 22.7286 31.8984 22.7513Z" fill="white"/>
<path d="M34.034 24.5891C34.1695 24.2715 33.9436 23.8972 33.582 23.9312C33.4351 23.9426 33.2882 24.0333 33.2091 24.1694C33.1865 24.1921 33.1752 24.2148 33.1526 24.2488C33.0735 24.4076 33.13 24.6005 33.243 24.7252C33.4803 24.9407 33.9097 24.8954 34.034 24.5891Z" fill="white"/>
<path d="M36.158 23.1141C35.8642 23.0347 35.5591 23.3183 35.6608 23.6132C35.6721 23.7039 35.706 23.7833 35.7738 23.84C35.9772 24.0442 36.3275 23.9648 36.4518 23.7153C36.5874 23.4657 36.4179 23.1822 36.158 23.1141Z" fill="white"/>
<path d="M37.9208 22.5588C38.0564 22.6269 38.2372 22.6042 38.3615 22.4794C38.5649 22.2639 38.4858 21.9123 38.2259 21.7989C37.9547 21.6741 37.6157 21.8442 37.5931 22.1505C37.5705 22.3433 37.74 22.5248 37.9208 22.5588Z" fill="white"/>
<path d="M31.6947 23.8176C31.2993 23.8857 31.1072 24.3961 31.4236 24.6797C31.4914 24.7364 31.5818 24.7818 31.6608 24.7818C31.8981 24.8725 32.1919 24.7477 32.2823 24.4982C32.4292 24.1239 32.0902 23.7382 31.6947 23.8176Z" fill="white"/>
<path d="M30.2938 25.9728C30.5424 25.8253 30.5537 25.4624 30.3277 25.2809C30.2034 25.1788 30.0226 25.1674 29.887 25.2582C29.8644 25.2695 29.8418 25.2809 29.8305 25.3036C29.7063 25.383 29.6498 25.5191 29.6724 25.6665C29.695 25.9728 30.0339 26.1316 30.2938 25.9728Z" fill="white"/>
<path d="M31.1413 26.0412C31.1413 26.0525 31.1526 26.0525 31.1526 26.0639C31.2769 26.2794 31.5933 26.2907 31.7515 26.1092C31.9436 25.8937 31.808 25.5308 31.5368 25.474C31.4012 25.4514 31.2656 25.4967 31.1752 25.5988C31.0961 25.6896 31.0396 25.8484 31.0961 25.9731C31.1074 25.9958 31.13 26.0185 31.1413 26.0412Z" fill="white"/>
<path d="M29.921 26.8008C29.8871 26.7781 29.8532 26.7667 29.8193 26.7667C29.7741 26.7554 29.7289 26.7327 29.6837 26.7441C29.6159 26.7554 29.5594 26.7781 29.5142 26.8348C29.4577 26.9029 29.4351 26.9823 29.4464 27.073C29.4577 27.1751 29.5142 27.2545 29.6046 27.3112C29.695 27.3566 29.808 27.3566 29.8871 27.2999C29.9436 27.2658 29.9775 27.2205 30.0114 27.1637C30.034 27.1184 30.0566 27.0617 30.0566 27.0163C30.0566 26.9709 30.0453 26.9142 30.0114 26.8802C29.9888 26.8348 29.9549 26.8121 29.921 26.8008Z" fill="white"/>
<path d="M30.3391 23.4098C30.3391 23.4212 30.3391 23.4212 30.3391 23.4325C30.3391 23.4552 30.3391 23.4779 30.3504 23.5006C30.3617 23.5232 30.3956 23.58 30.3617 23.5232C30.4069 23.614 30.4747 23.682 30.5764 23.7047C30.6555 23.7161 30.7459 23.7047 30.8137 23.6594C30.9719 23.5459 30.9719 23.2964 30.825 23.1716C30.7459 23.1036 30.6329 23.0922 30.5312 23.1262C30.4295 23.1716 30.3165 23.285 30.3391 23.4098Z" fill="white"/>
<path d="M40.4632 18.6682C40.2033 18.6909 40.0225 18.9745 40.1242 19.224C40.1807 19.3715 40.3276 19.4736 40.4858 19.4736C40.6214 19.4736 40.757 19.3942 40.7909 19.2694C40.8135 19.2467 40.8248 19.224 40.8361 19.2013C40.9604 18.9518 40.7344 18.6569 40.4632 18.6682Z" fill="white"/>
<path d="M29.7175 36.1588C29.8757 35.7732 29.5141 35.3535 29.1073 35.4669C29.0621 35.4783 29.0169 35.5009 28.9717 35.5236C28.8587 35.5463 28.7683 35.6257 28.7118 35.7278C28.6214 35.9093 28.6553 36.1361 28.7909 36.2836C29.0508 36.6125 29.5593 36.5558 29.7175 36.1588Z" fill="white"/>
<path d="M30.5877 40.1737C30.8137 39.72 30.3278 39.1869 29.8645 39.4251C29.8532 39.4251 29.8532 39.4365 29.8532 39.4365C29.6047 39.5159 29.4126 39.7767 29.4917 40.0717C29.6273 40.5707 30.3617 40.6388 30.5877 40.1737Z" fill="white"/>
<path d="M33.8644 41.1723C33.9209 40.6846 33.3333 40.2989 32.9152 40.5938C32.8814 40.6165 32.8475 40.6505 32.8249 40.6846C32.7458 40.7526 32.678 40.8434 32.6441 40.9681C32.5876 41.1837 32.6667 41.4219 32.8362 41.5693C33.209 41.8869 33.8079 41.6714 33.8644 41.1723Z" fill="white"/>
<path d="M30.3277 38.5291C30.339 38.5404 30.3503 38.5518 30.3729 38.5518C30.7571 38.7786 31.243 38.3816 31.13 37.9619C31.017 37.5423 30.4746 37.4288 30.2034 37.7578C30.0678 37.9166 30.0452 38.1548 30.1469 38.3362C30.1921 38.4156 30.2599 38.4837 30.3277 38.5291Z" fill="white"/>
<path d="M31.6721 14.6409C31.5591 13.8582 31.1749 13.1436 30.5761 12.758C30.4631 12.6786 30.3275 12.6218 30.1919 12.5651C29.8868 12.4517 29.5365 12.4177 29.1636 12.4744C28.8698 12.5198 28.61 12.6105 28.3727 12.7466C28.2371 12.826 28.1015 12.9054 27.9772 13.0075C27.3331 13.5179 26.915 14.3233 26.6213 15.1172C26.6213 15.1172 26.6213 15.1059 26.61 15.0946C26.4857 14.8337 26.3501 14.5615 26.1919 14.3119C25.9546 13.9263 25.6721 13.586 25.3331 13.3024C25.2088 13.2003 25.0845 13.1096 24.9376 13.0188C24.5422 12.7806 24.1015 12.6445 23.593 12.6559C23.2766 12.6672 23.0167 12.7126 22.7907 12.8033C22.6665 12.8487 22.5535 12.9168 22.4518 12.9962C21.5704 13.6427 21.6382 15.0946 21.819 16.2629C22.4179 20.108 23.9659 24.1574 26.4292 27.2653C26.723 27.6283 27.0167 27.9912 27.3331 28.3315C27.4009 28.4109 27.4913 28.4223 27.5704 28.3882C27.7286 28.5244 28.045 28.5017 28.1354 28.2294C28.2597 27.7984 28.384 27.3787 28.5196 26.9477C29.1071 24.9741 29.6834 23.0118 30.271 21.0382C30.8472 19.0985 31.9772 16.7166 31.6721 14.6409Z" fill="#78BDB1"/>
<path d="M29.6157 21.628C30.0564 19.3821 30.2372 17.0909 30.3954 14.811C30.4406 14.1191 30.5084 13.4385 30.5649 12.7466C30.4519 12.6672 30.3163 12.6105 30.1807 12.5538C30.1016 13.4839 30.0677 14.4253 29.9999 15.3554C29.8982 16.7733 29.7739 18.1911 29.5931 19.609C29.4124 20.9587 29.1751 22.2972 28.8135 23.6129C28.5197 24.6905 28.1355 25.7 27.6948 26.7095C27.8304 25.6773 27.9321 24.6338 28.0451 23.6016C28.1807 22.2632 28.305 20.9361 28.3728 19.5976C28.4519 18.2251 28.4632 16.8413 28.4406 15.4689C28.418 14.5728 28.418 13.6427 28.3615 12.7353C28.2259 12.8147 28.0903 12.8941 27.966 12.9961C28.0112 13.8242 28.0677 14.6635 28.0903 15.4915C28.1242 16.8186 28.1016 18.1571 28.0338 19.4842C27.966 20.834 27.853 22.1838 27.7061 23.5335C27.6383 24.1687 27.5592 24.8039 27.4914 25.4391C27.4237 24.9514 27.3559 24.475 27.3107 23.9872C27.1751 22.7169 27.0508 21.4465 26.9491 20.1761C26.8361 18.9057 26.7457 17.6353 26.6666 16.3649C26.644 15.9452 26.6214 15.5142 26.5988 15.0945C26.4745 14.8337 26.3389 14.5614 26.1807 14.3119C26.2146 15.0038 26.2711 15.7071 26.3163 16.399C26.3954 17.692 26.4971 18.9851 26.6101 20.2782C26.7231 21.5486 26.8474 22.8189 26.983 24.0893C27.0395 24.5884 27.0847 25.1102 27.1412 25.6206C26.9604 25.0081 26.7683 24.3956 26.6214 23.7717C26.2937 22.4673 26.0338 21.1516 25.8304 19.8245C25.627 18.5314 25.4915 17.2156 25.4011 15.9112C25.3446 15.0378 25.3333 14.1758 25.322 13.3024C25.1977 13.2003 25.0734 13.1096 24.9265 13.0188C24.9039 14.7089 25.0734 16.4216 25.2655 18.0777C25.514 20.1761 25.9095 22.2518 26.4406 24.2935C26.5988 24.8833 26.7457 25.4958 26.9265 26.097C26.2033 24.5544 25.5253 22.9891 24.9039 21.4011C24.1016 19.3481 23.3898 17.2497 23.0282 15.0832C22.9039 14.3346 22.8248 13.5746 22.7909 12.8147C22.6666 12.86 22.5536 12.9281 22.4519 13.0075C22.6101 16.8754 24.2146 20.6638 25.74 24.146C26.1581 25.0875 26.5762 26.0289 27.0169 26.959C27.1073 27.1405 27.1977 27.3334 27.2881 27.5148C27.2881 27.5602 27.2768 27.6056 27.2768 27.6396C27.2768 27.651 27.2768 27.6736 27.2768 27.685C27.2768 27.753 27.3333 27.7984 27.3898 27.8097C27.4011 27.8097 27.4124 27.8211 27.435 27.8211C27.4463 27.8438 27.4576 27.8665 27.4689 27.8891C27.5479 28.0479 27.8078 27.9685 27.7513 27.8097C27.7739 27.7757 27.7965 27.7304 27.7739 27.6736C27.7626 27.6169 27.74 27.5602 27.7287 27.5148C27.7287 27.4808 27.7287 27.4468 27.7174 27.4128C27.8191 27.2313 27.9095 27.0384 27.9999 26.857C28.7909 25.2123 29.2655 23.3861 29.6157 21.628Z" fill="#BCDFDC"/>
<path d="M26.316 29.4775C26.2934 29.3414 26.1465 29.1939 25.7623 29.0918C25.6945 29.0692 25.6267 29.0578 25.5589 29.0351C25.5476 29.0351 25.525 29.0238 25.5137 29.0238C23.4346 28.5247 21.2199 28.3999 19.0956 28.3432C17.2764 28.2979 15.0956 28.0823 13.3329 28.7062C12.4177 29.0351 11.5589 29.8178 11.4572 30.8046C11.4459 30.918 11.4459 31.0428 11.4572 31.1676C11.4572 31.2356 11.4685 31.315 11.4911 31.3831C11.6832 32.3699 12.5533 32.8236 13.4572 32.9937C13.5815 33.0164 13.6945 33.0391 13.8188 33.0504C13.751 33.1412 13.6719 33.2433 13.6154 33.3454C13.186 33.9692 12.8583 34.6838 12.9035 35.4097C12.9035 35.5232 12.9261 35.6252 12.9487 35.7387C12.9826 35.9088 13.0391 36.0903 13.1295 36.2604C13.7058 37.4174 15.2086 37.6329 16.316 37.2473C17.9883 36.6801 19.4685 35.1148 20.8244 34.0373C22.4742 32.7329 24.1013 31.3944 25.751 30.09C25.9092 29.9652 26.0674 29.8405 26.2256 29.7157C26.2821 29.659 26.3273 29.5682 26.316 29.4775Z" fill="#872361"/>
<path d="M26.7231 28.9556C26.7005 28.9556 26.6892 28.9556 26.6666 28.9556C26.5423 28.9669 26.418 28.9783 26.2824 28.9783C26.0338 29.001 25.7852 29.0123 25.5479 29.035C25.5366 29.035 25.514 29.035 25.5027 29.035C22.9716 29.2392 20.4406 29.5341 17.9095 29.7609C16.5649 29.8857 15.2202 29.9878 13.8756 30.2033C13.062 30.3394 12.2259 30.5095 11.4462 30.7931C11.4349 30.9065 11.4349 31.0313 11.4462 31.1561C12.3276 30.8612 13.2202 30.6457 14.1468 30.5095C15.4688 30.3054 16.8135 30.2146 18.1355 30.0785C19.9547 29.897 21.7739 29.7496 23.6044 29.5794C22.7796 29.795 21.9773 30.0672 21.175 30.3507C19.288 31.02 17.4462 31.814 15.5366 32.4378C14.8473 32.6647 14.1468 32.8348 13.4462 33.005C13.5705 33.0276 13.6835 33.0503 13.8078 33.0617C13.74 33.1524 13.6609 33.2545 13.6044 33.3566C14.1355 33.2318 14.6553 33.073 15.1637 32.9142C16.1129 32.6193 17.0394 32.279 17.966 31.9274C19.7965 31.2355 21.6157 30.4755 23.5027 29.9538C24.0564 29.8063 24.6101 29.6702 25.1637 29.5681C25.1976 29.5568 25.2315 29.5568 25.2654 29.5568C24.8022 29.7723 24.3502 30.0332 23.9208 30.2713C22.9942 30.7818 22.1129 31.3489 21.2202 31.916C19.514 33.0049 17.7739 34.0939 15.8643 34.7858C14.8925 35.1374 13.9095 35.3416 12.8812 35.4323C12.8812 35.5457 12.9038 35.6478 12.9264 35.7612C14.7344 35.7159 16.5084 35.0126 18.1016 34.1959C19.966 33.2318 21.6722 31.9954 23.4801 30.9292C24.0112 30.623 24.5423 30.3281 25.0959 30.0558C25.2654 29.9764 25.4462 29.897 25.6157 29.8176C25.853 29.7156 26.0903 29.6135 26.3276 29.5114C26.4406 29.466 26.5423 29.4206 26.6553 29.3639C26.7005 29.3526 26.7344 29.3412 26.7796 29.3412C26.8361 29.3299 26.8586 29.2732 26.8586 29.2278C26.9038 29.103 26.8586 28.9442 26.7231 28.9556Z" fill="#E29C40"/>
<path d="M42.8586 34.4335C42.8134 34.3087 42.7569 34.184 42.6778 34.0592C42.5309 33.8097 42.3275 33.5715 42.0563 33.356C40.6552 32.2103 38.2597 32.3918 36.5761 32.0856C34.2484 31.6545 31.9885 30.9853 29.7964 30.1346C29.4913 30.0212 29.1976 29.8964 28.8925 29.7716C28.4744 29.6015 28.158 30.2254 28.5761 30.4068C28.61 30.4182 28.6439 30.4295 28.6778 30.4409C28.7795 30.6337 28.8925 30.8265 29.0055 31.0194C30.0337 32.8115 31.2541 34.5016 32.497 36.1463C33.5817 37.5755 34.8473 39.5718 36.5309 40.3431C36.9829 40.5473 37.5253 40.672 38.045 40.6607C38.2484 40.6607 38.4518 40.6267 38.6439 40.5813C39.1524 40.4565 39.6044 40.1956 39.9207 39.7306C40.158 39.3903 40.271 38.9933 40.271 38.6076C40.271 38.4488 40.2484 38.3014 40.2145 38.1426C40.1806 38.0178 40.1354 37.8931 40.0789 37.7796C40.9151 37.825 41.6948 37.4507 42.2371 36.8835C42.3388 36.7815 42.4292 36.6794 42.5083 36.5546C42.949 35.9421 43.1185 35.1708 42.8586 34.4335Z" fill="#CE4239"/>
<path d="M38.6665 35.4426C36.5309 34.6486 34.4631 33.6278 32.5422 32.4028C32.1128 32.1305 31.6947 31.847 31.2879 31.5521C31.7399 31.7449 32.2032 31.9377 32.6552 32.1305C33.7964 32.6069 34.9603 33.0493 36.1467 33.4123C38.3162 34.0815 40.5761 34.5012 42.8586 34.4444C42.8134 34.3197 42.7569 34.1949 42.6778 34.0701C39.4122 34.1042 36.1806 33.1854 33.1298 31.949C32.0676 31.518 31.0281 31.0189 29.9772 30.5652C29.8755 30.4858 29.7851 30.4178 29.6834 30.3384C29.5591 30.2363 29.4348 30.1455 29.3105 30.0435C29.2427 29.9868 29.1749 29.9981 29.1184 30.0435C29.0394 29.9641 28.8925 30.0662 28.9377 30.1682C29.0281 30.3951 29.1523 30.6106 29.2879 30.8148C29.4461 31.0416 29.6156 31.2685 29.7738 31.484C30.1015 31.949 30.4518 32.4028 30.8021 32.8565C31.4687 33.7072 32.158 34.5238 32.8812 35.3292C34.3501 36.9739 35.8642 38.6186 37.4687 40.1385C37.6495 40.3086 37.8529 40.4901 38.0563 40.6603C38.2597 40.6603 38.4631 40.6262 38.6552 40.5809C38.3727 40.3767 38.1015 40.1498 37.8303 39.9117C37.062 39.2084 36.3501 38.4371 35.6269 37.6885C34.1128 36.1345 32.6213 34.5465 31.254 32.8565C30.8812 32.3914 30.5196 31.9264 30.1693 31.45C30.158 31.4386 30.158 31.4273 30.1467 31.4159C32.9151 34.1949 36.0111 36.8037 39.6269 38.335C39.8416 38.4258 40.0676 38.5165 40.2823 38.6072C40.2823 38.4484 40.2597 38.301 40.2258 38.1422C39.1863 37.7452 38.1919 37.2574 37.2201 36.679C35.3105 35.5447 33.5817 34.1382 31.9433 32.6523C31.6043 32.346 31.2766 32.0398 30.949 31.7222C32.2145 32.641 33.5704 33.4463 34.949 34.1609C37.0055 35.2271 39.1863 36.0778 41.4235 36.679C41.6947 36.747 41.9772 36.8264 42.2484 36.8945C42.3501 36.7924 42.4405 36.6903 42.5196 36.5655C41.2088 36.2593 39.932 35.9077 38.6665 35.4426Z" fill="#E29C40"/>
<path d="M26.757 36.6007C26.8813 34.8312 27.0282 33.0617 27.1525 31.2923C27.1864 30.8159 27.209 30.3281 27.2429 29.8517C27.2655 29.5115 26.7909 29.4207 26.5988 29.6249C26.5197 29.6249 26.4293 29.6476 26.3615 29.7156C26.1807 29.8858 25.9886 30.0559 25.8078 30.226C23.0508 32.7782 20.3276 35.5571 18.5875 38.9146C18.0225 40.0035 17.2994 41.5915 18.1581 42.7144C18.2033 42.7824 18.2598 42.8392 18.3163 42.9072C18.3615 42.9526 18.3954 42.9866 18.4406 43.0206C18.8135 43.3496 19.2429 43.4517 19.6835 43.429C19.8304 43.4176 19.966 43.395 20.1129 43.3609C20.4971 43.2702 20.87 43.1 21.2203 42.8959C21.3333 42.8278 21.4349 42.7598 21.5479 42.6917C21.5592 42.7824 21.5818 42.8732 21.6044 42.9753C21.7965 43.8713 22.2146 44.7561 23.0169 45.1758C23.1186 45.2325 23.2203 45.2778 23.3446 45.3119C23.3785 45.3232 23.4011 45.3346 23.435 45.3346C24.8135 45.7316 25.8756 44.4952 26.2033 43.2929C26.7344 41.2285 26.5988 38.7444 26.757 36.6007Z" fill="#D4629F"/>
<path d="M26.0789 34.2297C26.2597 33.1748 26.4518 32.1086 26.5648 31.0424C26.5761 30.9176 26.5874 30.8042 26.5987 30.6794C26.61 30.634 26.6213 30.5887 26.6439 30.5433C26.6778 30.4752 26.723 30.4185 26.7569 30.3505C26.7908 30.2937 26.7682 30.237 26.7343 30.1917C26.7456 30.0896 26.6439 30.0329 26.5535 30.0555C26.4857 30.0329 26.384 30.0669 26.3614 30.1463C26.3614 30.169 26.3501 30.1917 26.3501 30.2143C26.2371 30.3164 26.1241 30.4299 26.0111 30.5433C24.4518 32.0746 23.1072 33.8213 21.8868 35.6248C20.5648 37.5985 19.4236 39.6969 18.4857 41.886C18.3727 42.1582 18.2484 42.4305 18.1467 42.714C18.1919 42.7821 18.2484 42.8388 18.3049 42.9069C18.3501 42.9522 18.384 42.9863 18.4292 43.0203C18.9264 41.7499 19.4688 40.4909 20.1128 39.2658C21.2089 37.1901 22.4857 35.2278 23.9433 33.3903C24.5648 32.6077 25.2089 31.8704 25.8755 31.1331C25.3671 31.9498 24.8812 32.7891 24.4179 33.6285C23.74 34.8195 23.0959 36.0332 22.4857 37.2582C21.8755 38.4832 21.288 39.7309 20.7343 40.9899C20.384 41.7953 20.0111 42.6119 19.6835 43.4286C19.8303 43.4173 19.9659 43.3946 20.1128 43.3606C20.4292 42.5779 20.7343 41.7726 21.0733 41.0013C21.6044 39.7876 22.1693 38.5853 22.7682 37.3943C23.3671 36.2033 23.9885 35.035 24.6439 33.878C25.0055 33.2429 25.3784 32.619 25.7625 31.9952C25.514 32.6871 25.2767 33.379 25.0168 34.0709C24.5309 35.3413 24.0224 36.6003 23.5027 37.8593C22.9716 39.107 22.4179 40.3547 21.8529 41.5911C21.6496 42.0335 21.4349 42.4645 21.2202 42.9069C21.3332 42.8388 21.4349 42.7707 21.5479 42.7027C21.5592 42.7934 21.5818 42.8842 21.6044 42.9863C21.7964 42.5779 21.9772 42.1582 22.1693 41.7499C22.7456 40.4909 23.2993 39.2318 23.8303 37.9501C24.3614 36.6797 24.8812 35.398 25.3671 34.1049C25.5818 33.5264 25.819 32.9479 26.0337 32.3581C25.9659 32.8232 25.8981 33.2996 25.819 33.7646C25.6157 34.9669 25.3897 36.1579 25.1298 37.3489C24.61 39.7309 23.9885 42.0788 23.2654 44.3928C23.1863 44.6536 23.0959 44.9259 23.0055 45.1868C23.1072 45.2435 23.2089 45.2888 23.3332 45.3229C23.3671 45.2094 23.401 45.096 23.4462 44.9826C23.8303 43.8029 24.1806 42.612 24.5083 41.421C25.1298 39.0503 25.6609 36.6457 26.0789 34.2297Z" fill="#DE969B"/>
<path d="M45.4123 28.5697C45.3671 28.2067 45.2542 27.9118 45.0734 27.6849C44.983 27.5715 44.8813 27.4694 44.7683 27.3787C44.5197 27.1745 44.2146 27.0498 43.8756 26.959C44.2372 26.7095 44.5423 26.4032 44.7344 26.0403C44.7909 25.9268 44.8361 25.8134 44.87 25.6886C44.9378 25.4164 44.9491 25.1215 44.87 24.8039C44.8248 24.5997 44.7457 24.4182 44.6553 24.2708C44.5649 24.1233 44.4632 24.0099 44.3502 23.8965C43.514 23.1592 41.9999 23.3067 40.983 23.5108C37.0169 24.2821 33.3445 26.2104 29.8643 28.2407C29.6383 28.3769 29.4123 28.5016 29.1864 28.6377C29.0621 28.7058 28.9378 28.7852 28.8248 28.8532C28.8135 28.8532 28.8135 28.8646 28.8022 28.8646C28.7231 28.9213 28.6779 28.9894 28.6666 29.0688C28.5988 29.2276 28.644 29.4431 28.87 29.4998C29.2203 29.5905 29.5705 29.6926 29.9321 29.7834C33.9999 30.8496 38.3389 31.6662 42.4971 30.8609C43.3897 30.6908 44.7344 30.3618 45.2316 29.5111C45.3106 29.375 45.3671 29.2276 45.401 29.0688C45.4236 28.91 45.4349 28.7512 45.4123 28.5697Z" fill="#F1D3C7"/>
<path d="M44.1016 29.2726C42.9491 29.4201 41.7853 29.5222 40.6214 29.5789C38.2937 29.6923 35.9435 29.6129 33.6271 29.3407C33.1299 29.284 32.644 29.2159 32.1582 29.1365C32.3955 29.1365 32.6327 29.1365 32.87 29.1252C34.0226 29.1138 35.1864 29.0798 36.339 28.9891C38.5988 28.8303 40.8587 28.5353 43.0847 28.093C43.7514 27.9682 44.418 27.8321 45.0847 27.6733C44.9943 27.5599 44.8926 27.4578 44.7796 27.367C44.3389 27.4691 43.8983 27.5712 43.4463 27.662C42.3276 27.8888 41.1977 28.093 40.0678 28.2518C37.8418 28.5694 35.5932 28.7509 33.3446 28.7849C32.9943 28.7962 32.6327 28.7962 32.2825 28.7962C33.3446 28.6374 34.3954 28.3879 35.4124 28.1157C37.5367 27.5485 39.6158 26.8339 41.774 26.3916C42.757 26.1874 43.7401 26.0967 44.7344 26.0286C44.7909 25.9152 44.8361 25.8017 44.87 25.677C42.9491 25.6656 40.983 26.1874 39.1525 26.6978C37.0621 27.2876 34.9943 27.9909 32.8474 28.3766C32.3955 28.456 31.9435 28.524 31.4915 28.5694C35.1751 27.7527 38.5762 25.6997 42.2146 24.7128C43.0169 24.4973 43.8305 24.3499 44.644 24.2591C44.5536 24.1117 44.4519 23.9983 44.3389 23.8848C42.6892 24.1003 41.0508 24.6561 39.5367 25.2233C37.3107 26.0626 35.1638 27.0948 32.8926 27.8208C31.9322 28.127 30.9491 28.3652 29.9435 28.524C29.6836 28.5694 29.4237 28.6034 29.1638 28.6261C29.0621 28.6374 28.9717 28.6488 28.87 28.6601C28.757 28.6715 28.7344 28.7849 28.7796 28.8529C28.8022 28.887 28.8361 28.9097 28.8926 28.9097C28.9717 28.9097 29.0508 28.8983 29.1299 28.8983C29.1412 28.9097 29.1638 28.921 29.1864 28.921C29.2768 28.9323 29.3559 28.9323 29.4463 28.9437C29.4576 28.9777 29.4915 29.0004 29.5254 29.0004C29.6271 29.0117 29.7288 29.0344 29.8305 29.0458C29.887 29.0571 29.9435 29.0798 30.0113 29.0911C32.1469 29.6356 34.418 29.8511 36.6101 29.9532C38.983 30.0666 41.3672 29.9759 43.7175 29.6923C44.2033 29.6356 44.7005 29.5789 45.1977 29.5108C45.2768 29.3747 45.3333 29.2273 45.3672 29.0685C44.9717 29.1479 44.5423 29.2159 44.1016 29.2726Z" fill="#E29C40"/>
<path d="M27.774 31.3827C29.0221 31.3827 30.0339 30.3671 30.0339 29.1142C30.0339 27.8613 29.0221 26.8456 27.774 26.8456C26.5259 26.8456 25.5142 27.8613 25.5142 29.1142C25.5142 30.3671 26.5259 31.3827 27.774 31.3827Z" fill="#F1D3C7"/>
</g>
<defs>
<clipPath id="clip0">
<rect width="38" height="37" fill="white" transform="translate(10 11)"/>
</clipPath>
</defs>
</svg>
