<svg width="55" height="56" viewBox="0 0 55 56" fill="none" xmlns="http://www.w3.org/2000/svg">
<path d="M54.5 28C54.5 43.1964 42.4032 55.5 27.5 55.5C12.5968 55.5 0.5 43.1964 0.5 28C0.5 12.8036 12.5968 0.5 27.5 0.5C42.4032 0.5 54.5 12.8036 54.5 28Z" fill="#9BBADA" stroke="white"/>
<g clip-path="url(#clip0)">
<path opacity="0.64" d="M42.9902 18.2772C42.9902 18.2277 42.9804 18.1683 42.9706 18.1188C42.745 16.6634 41.3519 15.3862 38.8208 14.3069C36.7214 13.406 33.9353 12.703 30.9824 12.3168C29.3539 12.099 27.7646 11.9901 26.244 11.9901C23.1734 11.9901 17.9346 12.4456 17.3853 15.4852C17.3558 15.6337 17.346 15.7921 17.346 15.9505C16.3356 19.9109 16.983 24.4654 19.0236 27.6436C19.1413 27.8317 19.2787 28.0198 19.4062 28.198C18.8274 27.9406 18.2584 27.8218 17.6894 27.8218C16.6397 27.8218 15.6685 28.2673 14.8738 29.1188C14.1773 29.8713 13.8732 30.7921 14.0105 31.7822C14.3441 34.2277 17.346 36.2079 18.2486 36.7525C19.985 37.802 21.9274 38.7228 24.017 39.4951C24.0367 39.6535 24.0563 39.8218 24.0857 39.9802C24.5566 43.2079 25.7633 46.3763 27.5684 49.1386C27.9117 49.6733 28.5396 50 29.1969 50C29.5305 50 29.8542 49.9109 30.1387 49.7525L30.9726 49.2772C31.4435 49.0099 31.777 48.5644 31.8947 48.0594C32.0125 47.5644 31.9144 47.0396 31.6299 46.6139C30.9235 45.5644 30.3349 44.4654 29.864 43.3267C31.4631 42.2772 32.8169 41.0297 33.9059 39.604C35.0537 38.099 36.5154 35.8812 36.0445 33.9406C35.8876 33.297 35.4559 32.4258 34.2983 31.8812C33.9745 31.7327 33.641 31.6238 33.3172 31.5545C35.3284 30.7624 37.1531 29.4654 38.6933 27.6931C41.4108 24.5842 42.4703 21.0396 42.8235 19.505C42.8921 19.3366 42.9412 19.1584 42.9706 18.9802C43 18.7525 43.0099 18.5149 42.9902 18.2772ZM24.5076 31.901C24.4095 32.2871 24.3212 32.6733 24.2427 33.0594C24.0661 32.7822 23.8895 32.505 23.7031 32.2376C23.4677 31.8911 23.2224 31.5644 22.987 31.2673C23.4677 31.5149 23.968 31.7228 24.5076 31.901ZM29.1577 33.3961C28.9615 33.6535 28.7947 33.9208 28.6475 34.1881C28.7358 33.604 28.8437 33.0198 28.9909 32.4555C29.3833 32.4357 29.7659 32.406 30.1485 32.3564C29.8248 32.6139 29.4814 32.9604 29.1577 33.3961Z" fill="#A3B0B2"/>
<path d="M42.01 17.2871C42.01 17.2376 42.0002 17.1782 41.9904 17.1287C41.7647 15.6733 40.3717 14.396 37.8406 13.3168C35.7412 12.4158 32.9551 11.7129 30.0022 11.3267C28.3736 11.1089 26.7844 11 25.2638 11C22.1931 11 16.9544 11.4554 16.405 14.495C16.3756 14.6436 16.3658 14.802 16.3658 14.9604C15.3553 18.9208 16.0028 23.4752 18.0434 26.6535C18.1611 26.8416 18.2984 27.0297 18.426 27.2079C17.8472 26.9505 17.2782 26.8317 16.7092 26.8317C15.6595 26.8317 14.6882 27.2772 13.8936 28.1287C13.1971 28.8812 12.8929 29.802 13.0303 30.7921C13.3638 33.2376 16.3658 35.2178 17.2683 35.7624C19.0048 36.8119 20.9472 37.7327 23.0368 38.5049C23.0564 38.6634 23.0761 38.8317 23.1055 38.9901C23.5764 42.2178 24.7831 45.3861 26.5882 48.1485C26.9315 48.6832 27.5594 49.0099 28.2167 49.0099C28.5502 49.0099 28.874 48.9208 29.1585 48.7624L29.9923 48.2871C30.4632 48.0198 30.7968 47.5743 30.9145 47.0693C31.0322 46.5743 30.9341 46.0495 30.6496 45.6238C29.9433 44.5743 29.3547 43.4752 28.8838 42.3366C30.4829 41.2871 31.8367 40.0396 32.9256 38.6139C34.0735 37.1089 35.5352 34.8911 35.0643 32.9505C34.9073 32.3069 34.4757 31.4356 33.3181 30.8911C32.9943 30.7426 32.6608 30.6337 32.337 30.5644C34.3481 29.7723 36.1729 28.4752 37.7131 26.703C40.4305 23.5941 41.4901 20.0495 41.8432 18.5149C41.9119 18.3465 41.961 18.1683 41.9904 17.9901C42.0198 17.7624 42.0296 17.5248 42.01 17.2871ZM23.5273 30.9109C23.4292 31.297 23.3409 31.6832 23.2625 32.0693C23.0859 31.7921 22.9093 31.5149 22.7229 31.2475C22.4874 30.901 22.2422 30.5743 22.0067 30.2772C22.4874 30.5248 22.9878 30.7327 23.5273 30.9109ZM28.1774 32.4059C27.9812 32.6634 27.8145 32.9307 27.6673 33.198C27.7556 32.6139 27.8635 32.0297 28.0107 31.4653C28.4031 31.4455 28.7857 31.4158 29.1683 31.3663C28.8445 31.6238 28.5012 31.9703 28.1774 32.4059Z" fill="white"/>
<path d="M29.4028 46.4754C25.7926 41.119 24.8999 34.3863 27.4211 28.5447C27.5683 28.1982 27.068 27.9903 26.7737 28.1586C26.705 27.9606 26.3224 27.8616 26.2047 28.0893C23.1537 34.1586 24.1543 41.6338 27.8626 47.3071C27.9705 47.4655 28.2452 47.5348 28.4218 47.4358C28.6965 47.2774 28.981 47.119 29.2557 46.9606C29.4323 46.8517 29.5107 46.6536 29.4028 46.4754Z" fill="#829C69"/>
<path d="M40.1551 17.1381C32.6992 17.5341 25.626 16.6925 18.6116 14.4945C18.5135 14.3163 18.1505 14.2767 18.0622 14.5242C16.2669 19.9103 17.9347 29.0291 25.9694 29.8707C35.3578 30.8509 39.6155 22.3163 40.4788 17.5638C40.4788 17.5539 40.4788 17.544 40.4788 17.5341C40.5475 17.3361 40.4396 17.1183 40.1551 17.1381Z" fill="#4674B7"/>
<path d="M19.1609 19.3561C18.6606 21.0194 18.9353 22.7917 19.8869 24.3462C20.7012 25.6828 21.8784 26.6135 23.1734 27.5046C20.8091 25.2571 19.3768 22.366 19.1609 19.3561Z" fill="#78BDB1"/>
<path d="M23.9581 26.8608C22.9378 24.94 22.1824 22.841 21.5546 20.8113C20.7698 23.1183 22.2904 25.0688 23.9581 26.8608Z" fill="#78BDB1"/>
<path d="M26.7738 27.762C27.0976 25.6036 27.1663 23.4452 26.921 21.2867C26.0577 23.4254 25.9203 25.6036 26.7738 27.762Z" fill="#78BDB1"/>
<path d="M27.9509 27.8112C29.8247 25.9993 31.0412 23.93 31.2668 21.524C29.9817 23.5439 29.2557 25.7914 27.9509 27.8112Z" fill="#78BDB1"/>
<path d="M30.2761 28.5339C33.543 27.029 36.3389 24.9696 37.2513 21.821C35.0047 24.0983 32.7385 26.425 30.2761 28.5339Z" fill="#78BDB1"/>
<path d="M31.9732 25.7716C32.9052 24.7122 33.4153 23.5835 33.7195 22.3657C32.5226 24.3954 30.8843 26.2072 29.1184 27.9102C30.1975 27.3459 31.1688 26.6924 31.9732 25.7716Z" fill="#78BDB1"/>
<path d="M25.3415 27.099C24.9295 24.9307 24.3703 22.802 23.7915 20.6534C23.7228 22.9604 24.0956 25.0693 25.3415 27.099Z" fill="#78BDB1"/>
<path d="M29.8053 12.8314C23.5659 12.0097 18.2291 12.881 17.8955 14.7621C17.7876 15.3661 18.2095 15.9998 19.0335 16.6136C20.7798 17.9107 24.3507 19.0988 28.5888 19.6532C33.0329 20.2374 37.0159 19.9602 39.0662 19.079C39.9001 18.7225 40.4102 18.2671 40.4985 17.7225C40.8321 15.8314 36.0446 13.6433 29.8053 12.8314Z" fill="#78BDB1"/>
<path d="M38.8798 18.7623C33.0525 15.5544 25.6162 14.4257 19.0237 16.6138C20.7699 17.9108 24.3409 19.0989 28.5789 19.6534C33.023 20.2376 37.006 19.9603 39.0564 19.0791C39.0662 18.9702 39.027 18.8514 38.8798 18.7623Z" fill="#CE4239"/>
<path d="M22.5456 16.6824C22.4475 16.415 22.114 16.2566 21.8 16.316C21.545 16.3655 21.3586 16.5339 21.2899 16.7418C21.1329 17.2467 21.8197 17.6131 22.3102 17.3457C22.5554 17.2071 22.6535 16.9398 22.5554 16.7121C22.5554 16.7022 22.5554 16.6923 22.5456 16.6824Z" fill="white"/>
<path d="M24.7627 15.6728C24.5567 15.653 24.3605 15.7322 24.2427 15.8609C24.1544 15.9302 24.0956 16.0194 24.0563 16.1184C23.968 16.3659 24.125 16.6233 24.3703 16.7619C24.8902 17.059 25.5083 16.6035 25.3905 16.1184C25.3317 15.8609 25.057 15.6926 24.7627 15.6728Z" fill="white"/>
<path d="M23.5855 17.6532C23.5953 17.8216 23.7228 17.9503 23.919 17.9701C24.2428 18.0097 24.5665 17.772 24.488 17.4552C24.4096 17.1582 23.5364 17.0493 23.5855 17.6532Z" fill="white"/>
<path d="M26.98 17.4349C26.98 17.4349 26.9702 17.425 26.9702 17.4151C26.5974 17.0587 25.9597 17.2468 25.7831 17.6626C25.5967 18.1082 26.1265 18.5042 26.6268 18.4448C26.8917 18.4052 27.0977 18.227 27.1762 18.0092C27.2448 17.8112 27.186 17.5537 26.98 17.4349Z" fill="white"/>
<path d="M27.5784 15.9801C27.3821 15.8117 27.0682 15.782 26.8426 15.9107C26.5777 16.0494 26.4894 16.3563 26.6366 16.5939C26.7739 16.8018 27.078 16.8909 27.3429 16.8315C27.5882 16.7721 27.7353 16.5642 27.7353 16.3563C27.7451 16.2177 27.6961 16.0791 27.5784 15.9801Z" fill="white"/>
<path d="M29.6287 16.4251C29.1578 16.2171 28.5594 16.4251 28.4417 16.8805C28.2749 17.5538 29.3344 18.0686 29.874 17.4944C30.1781 17.1577 30.08 16.6231 29.6287 16.4251Z" fill="white"/>
<path d="M31.2278 18.1773C31.1395 17.8605 30.7274 17.7516 30.4037 17.8704C29.766 18.0981 29.9328 19.0387 30.7961 18.8308C31.11 18.7714 31.3062 18.4546 31.2278 18.1773Z" fill="white"/>
<path d="M14.9915 29.1677C13.314 30.9697 16.3846 33.4548 18.0426 34.4548C19.8869 35.5736 21.9078 36.4944 23.9974 37.237C23.7227 35.1281 18.3957 25.5142 14.9915 29.1677Z" fill="#78BDB1"/>
<path d="M32.6695 32.2769C30.1679 31.1086 28.7454 34.069 28.2745 35.5839C27.6761 37.5443 27.4406 39.5542 27.2346 41.5641C29.0201 40.5245 30.5309 39.2373 31.7081 37.6928C32.6597 36.4552 34.9259 33.3165 32.6695 32.2769Z" fill="#78BDB1"/>
<path d="M16.6101 30.1089C17.9443 32.2772 19.6023 34.1287 21.9371 35.4554C20.1713 33.6633 18.4545 31.8317 16.6101 30.1089Z" fill="#FFCF30"/>
<path d="M28.0491 40.1187C29.7266 38.1484 31.0805 35.9999 31.9928 33.683C29.5795 35.188 28.7554 37.7029 28.0491 40.1187Z" fill="#FFCF30"/>
</g>
<defs>
<clipPath id="clip0">
<rect width="30" height="39" fill="white" transform="translate(13 11)"/>
</clipPath>
</defs>
</svg>
