<svg width="55" height="56" viewBox="0 0 55 56" fill="none" xmlns="http://www.w3.org/2000/svg">
<path d="M54.5 28C54.5 43.1964 42.4032 55.5 27.5 55.5C12.5968 55.5 0.5 43.1964 0.5 28C0.5 12.8036 12.5968 0.5 27.5 0.5C42.4032 0.5 54.5 12.8036 54.5 28Z" fill="#FEA04C" stroke="white"/>
<path opacity="0.64" d="M29.8591 51.9996C28.6155 51.9996 27.6077 51.1071 27.4576 49.8745C27.3076 48.6525 27.2003 47.4412 27.1146 46.3042C26.6536 46.4849 26.1604 46.6443 25.6137 46.7399C25.2063 46.8143 24.7881 46.8461 24.3808 46.8461C22.4403 46.8461 20.6928 46.0386 19.61 44.6254C18.4092 43.0634 18.2162 41.1933 18.0554 39.695V39.6738C17.7874 37.1023 17.6695 34.3503 18.6987 30.8544C20.2639 34.0209 22.0222 35.466 25.3456 36.8048C25.6994 36.9536 26.1926 37.1767 26.7501 37.4636C26.7393 36.1885 26.7501 34.9241 26.793 33.6702C26.6107 33.7127 26.4177 33.734 26.2247 33.734C25.217 33.734 24.3164 33.1071 23.9948 32.1826C23.7697 31.5238 23.6196 30.8438 23.5445 30.1531C23.1264 30.2594 22.6976 30.3337 22.2687 30.3869C22.1723 30.3975 22.0758 30.4081 21.9793 30.4081C21.3467 30.4081 20.7357 30.1531 20.2961 29.7068C19.8565 29.2605 19.61 28.6336 19.6314 28.0067C19.6636 26.8485 19.9637 25.7116 20.4891 24.6702C19.2669 24.2665 18.0876 23.6608 17.0262 22.8745C16.4473 22.4494 16.1042 21.7694 16.0828 21.0575C16.0721 20.3349 16.383 19.6655 16.9512 19.2192C17.648 18.6561 18.4307 18.2098 19.2562 17.8591C18.8595 17.0197 18.6129 16.1059 18.5379 15.1708C18.4307 13.9701 19.2454 12.8969 20.4355 12.6844C20.9072 12.5994 21.3789 12.5569 21.8613 12.5569C22.3223 12.5569 22.7833 12.5994 23.2443 12.6738C23.448 11.6112 23.8769 10.5911 24.5308 9.68794C24.9704 9.08227 25.6887 8.71037 26.4499 8.71037C26.8037 8.71037 27.1575 8.79538 27.4684 8.94414C28.0795 9.24166 28.6369 9.62418 29.1408 10.0705C29.8377 9.32666 30.6632 8.69974 31.5745 8.27472C31.8854 8.12595 32.2284 8.05157 32.5715 8.05157C33.3327 8.05157 34.051 8.41285 34.4691 9.02914C34.9623 9.75169 35.3482 10.5274 35.6162 11.3456C36.2809 11.1437 36.9885 11.0374 37.6961 11.0374C38.0177 11.0374 38.3501 11.0587 38.661 11.1118C39.3149 11.2074 39.9046 11.5687 40.2691 12.1106C40.6336 12.6525 40.7515 13.3432 40.5907 13.9914C40.3978 14.7458 40.1726 15.4365 39.9153 16.0634C41.0303 16.3397 42.0917 16.8178 43.0137 17.4766C43.5819 17.8804 43.9356 18.5073 43.9893 19.1873C44.0429 19.8886 43.7856 20.5687 43.271 21.0575C42.5848 21.7163 41.5127 22.6407 40.1619 23.342C40.7087 24.2027 41.1268 25.1484 41.3519 26.126C41.5127 26.8166 41.3519 27.5179 40.9016 28.0705C40.4514 28.623 39.7545 28.963 39.0362 28.963H39.004C38.4573 28.9524 37.8891 28.9418 37.3101 28.8993L40.773 27.9005C40.7623 29.3562 40.6979 32.6502 40.5478 34.0528V34.074C40.387 35.5829 40.1941 37.453 38.9933 39.0044C37.8998 40.4176 36.163 41.2251 34.2225 41.2251C33.8044 41.2251 33.397 41.1826 32.9896 41.1189C32.5501 41.0445 32.1534 40.917 31.7674 40.7895C31.8639 43.2759 32.0569 45.9748 32.3678 49.2688C32.4321 49.9701 32.1963 50.6608 31.7246 51.1708C31.2528 51.7021 30.5667 51.9996 29.8591 51.9996Z" fill="#A3B0B2"/>
<path d="M28.7871 50.9374C27.5435 50.9374 26.5357 50.0449 26.3856 48.8123C26.2355 47.5903 26.1283 46.379 26.0426 45.242C25.5816 45.4227 25.0884 45.5821 24.5416 45.6777C24.1342 45.7521 23.7161 45.7839 23.3087 45.7839C21.3683 45.7839 19.6207 44.9764 18.5379 43.5632C17.3372 42.0012 17.1442 40.1311 16.9834 38.6328V38.6116C16.7154 36.0401 16.5975 33.2881 17.6267 29.7922C19.1919 32.9587 20.9501 34.4038 24.2736 35.7426C24.6274 35.8914 25.1206 36.1145 25.6781 36.4014C25.6673 35.1263 25.6781 33.8619 25.7209 32.608C25.5387 32.6505 25.3457 32.6718 25.1527 32.6718C24.145 32.6718 23.2444 32.0449 22.9228 31.1204C22.6976 30.4616 22.5476 29.7816 22.4725 29.0909C22.0544 29.1972 21.6256 29.2715 21.1967 29.3247C21.1002 29.3353 21.0037 29.3459 20.9073 29.3459C20.2747 29.3459 19.6636 29.0909 19.2241 28.6446C18.7845 28.1983 18.5379 27.5714 18.5594 26.9445C18.5915 25.7863 18.8917 24.6494 19.4171 23.608C18.1949 23.2043 17.0156 22.5986 15.9542 21.8123C15.3753 21.3872 15.0322 20.7072 15.0108 19.9953C15 19.2727 15.311 18.6033 15.8792 18.157C16.576 17.5939 17.3586 17.1476 18.1841 16.7969C17.7875 15.9575 17.5409 15.0437 17.4658 14.1086C17.3586 12.9079 18.1734 11.8347 19.3634 11.6222C19.8352 11.5372 20.3069 11.4947 20.7893 11.4947C21.2503 11.4947 21.7113 11.5372 22.1723 11.6116C22.376 10.549 22.8049 9.52893 23.4588 8.62574C23.8984 8.02007 24.6167 7.6588 25.3779 7.6588C25.7317 7.6588 26.0854 7.7438 26.3963 7.89256C27.0074 8.19008 27.5649 8.57261 28.0688 9.01889C28.7657 8.27509 29.5912 7.64817 30.5024 7.22314C30.8134 7.07438 31.1564 7 31.4995 7C32.2607 7 32.979 7.36128 33.3971 7.97757C33.8902 8.70012 34.2762 9.4758 34.5442 10.294C35.2089 10.0921 35.9165 9.98583 36.6241 9.98583C36.9457 9.98583 37.278 10.0071 37.589 10.0602C38.2429 10.1558 38.8326 10.5171 39.1971 11.059C39.5616 11.6009 39.6795 12.2916 39.5187 12.9398C39.3257 13.6942 39.1006 14.3849 38.8433 15.0118C39.9583 15.2881 41.0196 15.7662 41.9416 16.425C42.5098 16.8288 42.8636 17.4557 42.9172 18.1358C42.9708 18.8371 42.7135 19.5171 42.1989 20.0059C41.5128 20.6647 40.4407 21.5891 39.0899 22.2904C39.6366 23.1511 40.0548 24.0968 40.2799 25.0744C40.4407 25.7651 40.2799 26.4664 39.8296 27.0189C39.3793 27.5714 38.6825 27.9115 37.9642 27.9115H37.932C37.3853 27.9008 36.8171 27.8902 36.2381 27.8477L39.701 26.8489C39.6902 28.3046 39.6259 31.5986 39.4758 33.0012V33.0224C39.315 34.5313 39.122 36.4014 37.9213 37.9528C36.8278 39.366 35.091 40.1736 33.1505 40.1736C32.7324 40.1736 32.325 40.1311 31.9176 40.0673C31.4781 39.9929 31.0814 39.8654 30.6954 39.7379C30.7919 42.2243 30.9849 44.9233 31.2958 48.2172C31.3601 48.9185 31.1243 49.6092 30.6525 50.1192C30.1808 50.6399 29.4947 50.9374 28.7871 50.9374Z" fill="white"/>
<path d="M33.1397 32.1092C31.2743 32.9167 28.8406 34.2024 28.519 36.3595C28.4976 33.193 28.6048 30.0265 28.8299 26.8707C28.98 24.788 29.2051 22.716 29.3981 20.644C29.441 20.2083 28.787 20.1871 28.7227 20.6121C28.1545 24.2886 27.9079 28.0289 27.7793 31.7479C27.6613 35.1694 27.6935 38.5909 27.865 42.0124C27.4791 39.9297 25.099 38.6865 23.2658 37.8896C21.4754 37.1139 19.4813 36.232 18.5486 34.4575C18.5593 35.8601 18.6344 37.2627 18.7737 38.6652C18.9131 40.036 19.0739 41.5554 19.9423 42.6818C20.8965 43.9144 22.5368 44.3181 24.027 44.0419C24.8096 43.9037 25.5064 43.5743 26.214 43.2449C26.7608 42.9899 27.3075 42.788 27.9079 42.7987C27.9079 42.8093 27.9079 42.8199 27.9079 42.8305C28.0258 44.9238 28.1759 47.0171 28.4332 49.0891C28.4976 49.5991 29.2695 49.4185 29.2266 48.9191C28.8728 45.2426 28.6048 41.5661 28.5297 37.8789C28.5297 37.5921 28.519 37.3158 28.519 37.0289C29.1087 37.0289 29.6447 37.2201 30.1807 37.4752C30.8883 37.8046 31.5852 38.134 32.3678 38.2721C33.858 38.5377 35.4983 38.134 36.4525 36.912C37.3209 35.7857 37.4817 34.2662 37.621 32.8955C37.7711 31.4929 37.8355 30.0903 37.8462 28.6877C36.9349 30.4516 34.9301 31.3335 33.1397 32.1092Z" fill="#73004E"/>
<path d="M41.0411 17.8173C39.4115 16.6591 37.2781 16.2235 35.3054 16.606C36.5705 15.4584 37.2781 13.7583 37.7283 11.9944C37.7712 11.8351 37.6962 11.6863 37.5246 11.665C35.8629 11.4206 34.0189 12.0901 32.9254 13.3758C33.1291 11.7394 32.7431 10.0393 31.7675 8.6367C31.7032 8.5517 31.5745 8.53045 31.4781 8.57295C29.9235 9.30612 28.6906 10.7831 28.2082 12.4407C27.7257 11.0806 26.718 9.90117 25.3779 9.24237C25.2707 9.18924 25.1206 9.24237 25.0562 9.338C23.9842 10.815 23.7376 12.6745 24.2843 14.3109C22.9013 13.3758 21.1538 12.972 19.4921 13.2695C19.3527 13.2908 19.2777 13.4183 19.2884 13.5564C19.4278 15.3097 20.3391 16.8504 21.6792 17.8492C19.9531 17.8705 18.2378 18.4443 16.8762 19.5387C16.7476 19.645 16.7583 19.8469 16.8869 19.9425C18.7202 21.3026 20.993 22.057 23.2659 21.9401C21.5934 23.0346 20.4891 24.9897 20.4248 26.9767C20.4248 27.1467 20.5535 27.2743 20.725 27.253C22.2259 27.0724 23.6518 26.5092 24.8525 25.6485C24.2736 27.1893 24.22 28.9212 24.7775 30.5151C24.8204 30.6532 25.0348 30.7276 25.1527 30.6532C26.7823 29.6969 28.0688 28.2518 28.83 26.5623C29.0766 28.305 29.8592 30.0157 30.942 31.312C31.0814 31.4821 31.3172 31.4502 31.4459 31.2908C32.4322 30.1326 33.0326 28.6769 33.1184 27.1574C33.1612 26.4136 33.0862 25.5635 32.8611 24.7772C34.4049 25.6698 36.5169 25.7442 38.2108 25.7654C38.3716 25.7654 38.5431 25.6379 38.5002 25.4573C38.1036 23.7571 36.9779 22.1101 35.4662 21.0794C37.5354 21.0051 39.5938 19.6875 41.0625 18.2636C41.1805 18.1255 41.2019 17.9236 41.0411 17.8173Z" fill="#FF7A03"/>
<path d="M33.2899 17.4244C31.6817 14.0773 25.603 13.7373 24.4987 18.5614C24.027 20.6334 24.6917 22.8117 26.7394 23.7255C28.5298 24.5224 30.7597 24.1399 32.2071 22.8329C33.6865 21.4941 34.1583 19.2202 33.2899 17.4244Z" fill="#CE4239"/>
<path d="M31.403 17.2329C30.4488 15.7984 27.4041 15.6709 26.5142 17.5835C26.0104 18.6673 26.407 20.0487 27.3826 20.7393C28.4333 21.4938 29.9664 21.4088 30.9205 20.5375C31.8532 19.6874 32.1213 18.3061 31.403 17.2329Z" fill="#9F2529"/>
<path d="M30.0629 17.4348C29.634 16.9035 28.7978 16.8504 28.2832 17.2648C27.983 17.4667 27.79 17.8386 27.8436 18.2211C27.9616 19.0074 28.83 19.4112 29.5483 19.1349C30.2666 18.8693 30.556 18.0405 30.0629 17.4348ZM29.4732 18.4974C29.1945 18.6886 28.7228 18.6568 28.5191 18.3592C28.3797 18.1574 28.4011 17.9448 28.5191 17.7961C28.8085 17.6898 29.1087 17.5411 29.4089 17.7005C29.7198 17.8811 29.7841 18.2742 29.4732 18.4974Z" fill="#78BDB1"/>
<path d="M34.2119 16.8401C32.8289 14.4705 29.827 13.5142 27.254 14.3536C27.2326 14.3643 27.2111 14.3749 27.2004 14.3855C25.1849 15.0762 23.7268 17.0101 23.373 19.0608C22.9764 21.3879 23.9305 23.7787 26.2248 24.6925C28.6692 25.6594 31.7032 25.1706 33.515 23.2368C35.166 21.4835 35.4126 18.9015 34.2119 16.8401ZM27.3183 24.735C26.0854 24.4693 24.9383 23.8637 24.2629 22.7799C23.7054 21.8979 23.491 20.8353 23.5446 19.794C23.6625 17.5307 25.1527 15.3737 27.3076 14.598C29.4411 13.9499 31.9283 14.4918 33.4185 16.2025C34.898 17.9026 35.1339 20.4528 33.8795 22.3336C32.4644 24.4587 29.752 25.2556 27.3183 24.735Z" fill="#73004E"/>
<path d="M30.8241 13.0784C30.8348 13.0677 30.8456 13.0677 30.8563 13.0571C31.2315 12.8977 31.2315 12.3664 30.9206 12.1327C30.5883 11.8989 30.0844 12.1114 30.0522 12.5258C30.0093 12.9296 30.4489 13.2803 30.8241 13.0784Z" fill="#4674B7"/>
<path d="M34.5977 15.1925C34.8335 15.0119 34.8871 14.6718 34.7156 14.4274C34.5333 14.1724 34.1795 14.1087 33.9222 14.2999C33.6971 14.4699 33.6328 14.7887 33.8043 15.0225C33.815 15.0437 33.8258 15.065 33.8472 15.0862C34.0187 15.32 34.3618 15.3731 34.5977 15.1925Z" fill="#4674B7"/>
<path d="M35.9914 18.3489C35.9485 18.3383 35.9056 18.3489 35.8627 18.3489C35.5733 18.3595 35.316 18.5933 35.3053 18.8802C35.2945 19.1777 35.5518 19.454 35.852 19.4752C36.1522 19.4859 36.431 19.2521 36.4631 18.9652C36.4953 18.6677 36.2916 18.3808 35.9914 18.3489Z" fill="#4674B7"/>
<path d="M34.5976 22.833C34.5226 22.8542 34.4475 22.8861 34.3832 22.9286C34.3189 22.9605 34.2545 23.003 34.2117 23.0668C34.0508 23.258 34.0937 23.5449 34.276 23.7149C34.6727 24.0975 35.3588 23.6831 35.1765 23.1518C35.0801 22.918 34.8442 22.7799 34.5976 22.833Z" fill="#4674B7"/>
<path d="M30.7382 25.4362C30.6417 25.4787 30.5667 25.5424 30.5131 25.6168C30.3523 25.7549 30.2879 25.9781 30.363 26.1906C30.4809 26.52 30.8454 26.6581 31.1671 26.5412C31.4887 26.4243 31.6495 26.0737 31.5209 25.7549C31.3922 25.4468 31.0491 25.298 30.7382 25.4362Z" fill="#4674B7"/>
<path d="M26.7286 25.2446C26.5357 25.2233 26.3427 25.2977 26.2248 25.4358C26.1604 25.4889 26.1068 25.5527 26.0747 25.6377C25.9567 25.9459 26.1283 26.3284 26.4499 26.424C26.7822 26.5303 27.1682 26.3178 27.2325 25.9777C27.3076 25.6377 27.0824 25.2871 26.7286 25.2446Z" fill="#4674B7"/>
<path d="M23.3836 23.6297C23.1048 23.7254 22.9762 24.0866 23.137 24.331C23.2871 24.5648 23.6516 24.6285 23.866 24.4373C23.9518 24.3523 24.0054 24.246 24.0161 24.1398C24.0268 24.0973 24.0268 24.0654 24.0161 24.0229C23.9947 23.736 23.6623 23.5341 23.3836 23.6297Z" fill="#4674B7"/>
<path d="M22.1937 19.326C22.0436 19.3473 21.9149 19.4535 21.8399 19.5704C21.8077 19.6023 21.7756 19.6342 21.7541 19.6767C21.5611 20.0061 21.7648 20.3992 22.1186 20.4949C22.4724 20.5905 22.8048 20.3249 22.8477 19.9742C22.9013 19.6129 22.5796 19.2623 22.1937 19.326Z" fill="#4674B7"/>
<path d="M23.2656 16.5638C23.7481 16.7445 24.1769 16.2026 23.9196 15.7669C23.6516 15.2994 22.869 15.48 22.9119 16.0432C22.9119 16.075 22.9226 16.1175 22.9333 16.1494C22.944 16.3301 23.0727 16.5001 23.2656 16.5638Z" fill="#4674B7"/>
<path d="M27.0396 13.5137C27.0825 13.2161 26.8681 12.908 26.5679 12.8442C26.3321 12.7911 26.064 12.908 25.9568 13.1205C25.8925 13.2055 25.8496 13.3224 25.8496 13.4393C25.8496 13.7262 26.0855 13.9918 26.3749 14.0237C26.6966 14.0556 26.9967 13.8218 27.0396 13.5137Z" fill="#4674B7"/>
<path d="M30.4702 36.6144C31.8318 37.3688 33.59 37.4219 34.9408 36.6144C36.2381 35.8387 37.01 34.4042 37.0314 32.9272C35.9593 35.4774 33.2469 37.0181 30.4702 36.6144Z" fill="#DE969B"/>
<path d="M29.9771 35.0839C31.8103 34.3401 33.5257 33.3626 35.0802 32.1619C33.322 33.0757 31.3064 33.6176 29.9771 35.0839Z" fill="#DE969B"/>
<path d="M34.4156 34.7866C35.3805 34.1385 36.0988 33.1715 36.474 32.0877C34.8337 33.6497 32.8932 34.861 30.7705 35.658C32.057 35.7748 33.3328 35.5198 34.4156 34.7866Z" fill="#DE969B"/>
<path d="M21.454 41.4598C20.3926 40.6947 19.6421 39.579 19.2991 38.3358C19.4599 39.8447 19.7922 41.3429 21.0144 42.3842C22.4403 43.5956 24.1664 43.1705 25.7102 42.4692C24.2307 42.6818 22.6654 42.3417 21.454 41.4598Z" fill="#DE969B"/>
<path d="M25.3134 41.4276C23.3515 40.6625 21.5718 39.4724 20.1245 37.9529C20.7999 40.195 22.9548 41.6932 25.3134 41.4276Z" fill="#DE969B"/>
<path d="M24.5095 39.2921C23.9305 39.0265 23.3516 38.7927 22.762 38.5483C23.8019 39.4622 24.9919 40.1635 26.2999 40.6204C25.8603 40.0041 25.2063 39.6109 24.5095 39.2921Z" fill="#DE969B"/>
</svg>
