<svg width="55" height="56" viewBox="0 0 55 56" fill="none" xmlns="http://www.w3.org/2000/svg">
<path d="M54.5 28C54.5 43.1964 42.4032 55.5 27.5 55.5C12.5968 55.5 0.5 43.1964 0.5 28C0.5 12.8036 12.5968 0.5 27.5 0.5C42.4032 0.5 54.5 12.8036 54.5 28Z" fill="#B3A2CE" stroke="white"/>
<path d="M42.0229 27.7956C41.8764 27.7225 41.7217 27.6657 41.567 27.6333C41.5263 27.5684 41.4937 27.4953 41.453 27.4304C42.0392 26.6027 42.3811 25.288 41.8194 23.2593C41.5263 22.2043 40.9727 21.2954 40.2481 20.6138C40.7203 18.6824 40.0202 16.5806 38.8885 15.4607C38.5547 15.128 38.2047 14.8602 37.8546 14.6573C38.0988 13.2291 37.8953 11.606 37.244 10.1129C36.2589 7.83255 34.2155 6.03912 31.3416 4.94359C30.3077 4.55406 29.0213 4.32684 27.8083 4.32684C25.8951 4.32684 24.3564 4.87055 23.3713 5.89305C22.8991 6.37995 22.7689 7.10219 23.0457 7.71894C23.3143 8.32756 23.9168 8.7252 24.5844 8.7252H24.5925H24.6006H24.6495C25.3903 8.7252 25.9521 9.1553 26.2452 9.52048C26.0335 9.51236 25.7974 9.48802 25.5369 9.43121C24.7146 9.26891 23.9005 9.19587 23.1189 9.19587C20.3753 9.19587 18.1365 10.1616 16.6304 11.9956C15.2463 13.6754 14.7579 15.9476 15.2545 18.0413C14.6765 18.5606 14.2287 19.2017 13.9437 19.9321C13.3494 21.4496 13.5448 23.1538 14.4241 24.5414C13.96 25.2556 13.2924 26.4972 13.7646 27.9011C13.8053 28.0147 13.846 28.1283 13.903 28.2338C13.7972 28.4691 13.7076 28.7126 13.6262 28.9479C13.5692 28.9804 13.5123 29.0128 13.4553 29.0534C13.0482 29.3293 12.7714 29.7756 12.6981 30.2707C12.519 31.4879 12.8365 32.8026 13.0889 33.8575C13.1703 34.1984 13.2517 34.523 13.3006 34.807C14.3915 40.731 14.8474 43.1817 16.3943 48.9109C16.5164 49.3654 16.8013 49.7387 17.2084 49.9821C19.6019 51.386 22.9724 52.1002 27.2384 52.1002C28.2642 52.1002 29.347 52.0596 30.4542 51.9784C31.8301 51.8729 33.2955 51.7431 34.7365 51.4185C37.6511 50.7531 38.7827 50.0876 39.0758 48.8704C40.2725 43.8553 41.2983 39.0025 42.3079 33.606L42.3567 33.3463C42.894 30.5222 42.9999 29.7594 42.9999 29.3861C42.9836 28.7045 42.6172 28.1039 42.0229 27.7956Z" fill="#DBD7D6"/>
<path d="M41.3958 27.3746C41.2493 27.3016 41.0946 27.2448 40.9399 27.2123C40.8992 27.1474 40.8666 27.0825 40.8259 27.0094C41.4121 26.1817 41.754 24.8671 41.1923 22.8383C40.8992 21.7833 40.3456 20.8745 39.621 20.1928C40.0851 18.2614 39.3931 16.1596 38.2614 15.0397C37.9277 14.707 37.5776 14.4392 37.2275 14.2363C37.4717 12.8081 37.2682 11.1851 36.625 9.70003C35.6237 7.41159 33.5802 5.62628 30.7064 4.52263C29.6806 4.13311 28.3942 3.90588 27.1731 3.90588C25.2599 3.90588 23.7212 4.44959 22.7361 5.47209C22.2639 5.95899 22.1336 6.68123 22.4104 7.29798C22.6791 7.9066 23.2815 8.30424 23.9491 8.30424H23.9573H23.9654H24.0142C24.7551 8.30424 25.3168 8.73434 25.6099 9.09952C25.3983 9.0914 25.1622 9.06706 24.9016 9.01025C24.0794 8.84795 23.2652 8.77492 22.4837 8.77492C19.7401 8.77492 17.5012 9.74061 15.9951 11.5665C14.6111 13.2463 14.1226 15.5185 14.6192 17.6122C14.0412 18.1316 13.5934 18.7727 13.3085 19.503C12.7142 21.0205 12.9096 22.7247 13.7888 24.1124C13.3248 24.8265 12.6572 26.0681 13.1294 27.4639C13.1701 27.5775 13.2108 27.6911 13.2678 27.7966C13.1619 28.0319 13.0724 28.2754 12.991 28.5107C12.934 28.5432 12.877 28.5756 12.82 28.6162C12.413 28.8921 12.1362 29.3385 12.0629 29.8335C11.8838 31.0507 12.2013 32.3654 12.4537 33.4203C12.5351 33.7612 12.6165 34.0858 12.6653 34.3698C13.7563 40.2938 14.2122 42.7445 15.759 48.4738C15.8811 48.9201 16.1661 49.3015 16.5731 49.5449C18.9667 50.9488 22.3371 51.663 26.6032 51.663C27.629 51.663 28.7117 51.6224 29.819 51.5412C31.1948 51.4357 32.6603 51.3059 34.1013 50.9813C37.0158 50.3159 38.1475 49.6504 38.4406 48.4332C39.6373 43.4181 40.6631 38.5653 41.6726 33.1688L41.7215 32.9091C42.2588 30.085 42.3646 29.3222 42.3646 28.9489C42.3565 28.2835 41.9901 27.683 41.3958 27.3746Z" fill="#F1F2F2"/>
<path d="M40.094 30.7597C40.094 26.2234 34.3463 22.5554 27.2553 22.5554C20.1642 22.5554 14.4165 26.2315 14.4165 30.7597C14.4165 35.2961 20.1642 38.9641 27.2553 38.9641C34.3382 38.9722 40.094 35.2961 40.094 30.7597Z" fill="#D28D5C" stroke="#B07445" stroke-miterlimit="10" stroke-linecap="round" stroke-linejoin="round"/>
<path d="M39.5161 29.1612C38.9055 29.7131 38.2868 29.64 37.5296 29.1288C37.3994 29.0395 37.2447 28.9178 37.0819 28.8204C36.8702 28.7474 36.6667 28.6743 36.4713 28.5851C35.8688 28.5364 35.6816 28.9097 35.3559 29.2343C35.1117 29.4696 34.843 29.7212 34.493 29.7699C34.0452 29.8267 33.7033 29.6319 33.3857 29.3316C32.653 28.6419 32.132 28.4714 31.326 29.0801C31.1143 29.3073 30.862 29.4939 30.5526 29.6076C30.5363 29.6562 30.5037 29.7049 30.463 29.7455C30.3002 29.9078 30.0153 29.9159 29.8524 29.7455C29.828 29.7212 29.8117 29.6968 29.7955 29.6725C28.8918 29.4371 28.2405 28.2037 27.3449 29.1531C26.8483 29.6806 26.2133 30.0782 25.5457 29.5589C25.2282 29.3154 24.6095 28.4633 24.1536 28.6419C23.6081 28.8529 23.2417 29.3884 22.8021 29.7455C22.6067 29.9078 22.2567 29.9322 22.1264 29.6562C21.9473 29.283 21.6868 28.8691 21.3041 28.6743C21.0517 28.5445 20.8075 28.6094 20.5796 28.7474C20.3516 29.007 20.1399 29.2911 19.8061 29.429C19.7899 29.4371 19.7736 29.4371 19.7573 29.4453C19.7003 29.4777 19.6352 29.4939 19.5782 29.5021C19.0816 29.6157 18.6582 29.429 18.1616 29.2505C17.4126 28.9908 16.5985 29.1369 16.0204 29.7131C15.8658 29.8591 15.7436 30.0133 15.5564 30.1188C15.3284 30.2486 15.0516 30.1918 14.783 30.0863C14.7504 30.3136 14.7341 30.5408 14.7341 30.768C14.7341 35.1177 20.3516 38.664 27.2635 38.664C34.1673 38.664 39.7929 35.1258 39.7929 30.768C39.7766 30.2162 39.6871 29.6806 39.5161 29.1612Z" fill="#E7E5E5"/>
<path d="M14.7257 26.9454C14.4082 26.004 15.2061 25.0465 15.4991 24.592C16.1667 23.5858 17.217 22.8392 18.4056 22.5551C20.2129 22.1169 22.3297 22.4415 24.1614 22.547C25.1465 22.6038 26.156 22.7256 27.1411 22.7174C28.9485 22.7012 30.707 22.5957 32.3515 21.8329C34.0612 21.0457 35.9174 20.1855 37.5294 20.8185C38.5877 21.2405 39.2635 22.2143 39.5647 23.2774C39.9636 24.6975 39.988 26.2962 38.3435 26.7831C37.1467 27.132 36.0314 28.1302 34.281 28.2276C32.7342 28.3168 31.9038 27.4566 29.9662 27.5621C28.5089 27.6433 27.2307 28.5441 25.7653 28.5684C23.6974 28.609 22.2564 27.3917 20.1967 27.5053C18.4056 27.6189 15.1816 28.3168 14.7257 26.9454Z" fill="#F2929E" stroke="#D77889" stroke-miterlimit="10" stroke-linecap="round" stroke-linejoin="round"/>
<path d="M26.164 24.6723C28.0772 25.005 30.5033 24.9076 32.4083 24.4775C34.3378 24.0393 35.4043 23.7634 36.9918 22.5705C37.35 22.3027 38.0339 21.9456 38.4573 21.7915C38.1723 21.4831 37.8304 21.2396 37.4315 21.0854C37.0814 20.9475 36.715 20.8826 36.308 20.8826C35.0868 20.8826 33.7679 21.4912 32.4979 22.0755L32.4653 22.0917C30.6905 22.9113 28.7854 22.9925 27.1409 23.0006H27.0432C26.2535 23.0006 25.3905 22.9357 24.4787 22.8626C23.5018 22.7896 22.4923 22.7085 21.499 22.7085C21.0268 22.7085 20.5384 22.7247 20.0417 22.7734C22.1096 23.309 24.0635 24.299 26.164 24.6723Z" fill="#EFE7ED"/>
<path d="M17.29 12.6302C19.0322 10.5121 21.8735 10.1307 24.5846 10.6501C29.5426 11.6077 27.4015 6.56821 23.9496 6.62502C25.3254 5.19677 28.4191 5.43211 30.1125 6.08131C32.1967 6.87659 34.1506 8.21557 35.0705 10.3498C35.9335 12.338 36.0312 15.227 33.9633 16.4686C31.3581 18.0267 29.6322 18.6596 26.8316 18.8869C24.894 19.0411 22.9889 19.4549 21.0594 19.7065C19.7487 19.8769 17.8843 20.1934 16.9969 18.9112C15.6536 16.9717 15.9141 14.3019 17.29 12.6302Z" fill="#F2929E" stroke="#D77889" stroke-miterlimit="10" stroke-linecap="round" stroke-linejoin="round"/>
<path d="M27.1327 18.431C25.4637 18.3499 23.8192 18.0496 22.2317 17.5465C20.3348 16.946 18.4134 16.5321 16.5491 17.2381C16.6875 17.7818 16.9073 18.3012 17.2248 18.7637C17.6237 19.3399 18.275 19.5996 19.2845 19.5996C19.8056 19.5996 20.351 19.5265 20.8232 19.4616L21.0268 19.4373C21.7758 19.3399 22.541 19.2182 23.2737 19.0964C24.4298 18.9098 25.6184 18.715 26.8071 18.6177C27.3851 18.569 27.9143 18.504 28.419 18.4229C27.9875 18.4472 27.556 18.4472 27.1327 18.431Z" fill="#EFE7ED"/>
<path d="M15.8573 24.0076C13.366 21.7191 14.7826 17.4749 19.2603 17.8807C21.1817 18.0592 24.8859 19.2846 27.0596 18.887C29.8358 18.3757 32.1316 17.621 33.4017 16.5904C34.6391 15.5841 35.608 14.7807 37.0734 16.2252C38.1236 17.264 38.49 19.4469 37.5374 20.8183C35.3963 23.9264 30.8209 23.9508 27.6051 24.0157C24.7394 24.0725 21.8737 22.628 19.0161 22.5793C17.5507 22.5631 15.8573 24.0076 15.8573 24.0076Z" fill="#F2929E" stroke="#D77889" stroke-miterlimit="10" stroke-linecap="round" stroke-linejoin="round"/>
<g opacity="0.3">
<path opacity="0.3" d="M18.9754 18.6846C20.3106 18.7901 21.6376 19.0173 22.9728 19.1796C23.8764 19.2851 24.8778 19.4312 25.7815 19.2283C24.4952 19.1796 23.0053 18.8713 21.6701 18.5872C20.7502 18.3925 19.8791 18.2058 19.2359 18.149C17.2657 17.9705 15.6945 18.7658 15.1246 20.2102C15.0432 20.4131 14.9943 20.616 14.9536 20.8189C15.5805 19.35 17.3227 18.5548 18.9754 18.6846Z" fill="#808285"/>
<path opacity="0.3" d="M37.0407 17.0372C37.4071 17.4754 37.6513 17.9705 37.7979 18.4817C37.7083 17.6702 37.3745 16.8993 36.886 16.4205C36.4057 15.9417 35.9661 15.7064 35.5427 15.7064C35.1357 15.7064 34.7286 15.9255 34.2971 16.2338C35.2741 16.0228 36.422 16.2988 37.0407 17.0372Z" fill="#808285"/>
</g>
<path opacity="0.3" d="M18.609 12.6952C20.0011 11.9486 21.2712 11.8187 22.8017 11.9242C24.0799 12.0135 26.0419 12.4192 27.198 11.697C27.7923 11.3237 27.89 10.5852 27.719 9.93604C27.6376 10.2038 27.4829 10.4392 27.255 10.6177C26.7014 11.0559 25.7733 11.1614 24.5358 10.9261C23.8357 10.7881 23.1437 10.7232 22.4842 10.7232C20.9944 10.7232 18.9183 11.0884 17.5018 12.8088C17.0214 13.393 16.6958 14.0991 16.533 14.8375C17.0703 13.9205 17.917 13.0603 18.609 12.6952Z" fill="#808285"/>
<path d="M23.0541 16.7769C23.0623 16.8094 23.0134 16.8175 22.989 16.8337C22.9239 16.8824 22.8587 16.9554 22.818 17.0204C22.7855 17.0772 22.7529 17.134 22.7285 17.1989C22.7122 17.2314 22.7041 17.2638 22.6959 17.2963C22.6796 17.345 22.6552 17.3855 22.6227 17.3206C22.6064 17.28 22.5982 17.2314 22.5819 17.1827C22.5494 17.1177 22.5168 17.0447 22.4761 16.9879C22.4435 16.9392 22.4028 16.8986 22.3621 16.8581C22.3296 16.8256 22.24 16.785 22.3051 16.7363C22.3703 16.6795 22.4435 16.6227 22.4924 16.5578C22.5331 16.501 22.5657 16.428 22.5901 16.363C22.6064 16.3225 22.6227 16.1845 22.6634 16.1845C22.7122 16.1845 22.7366 16.3225 22.7529 16.3549C22.7773 16.4117 22.8018 16.4685 22.8343 16.5253C22.8669 16.574 22.8832 16.6146 22.9239 16.6552C22.9402 16.6795 23.046 16.7526 23.0541 16.7769Z" fill="#F1F2F2"/>
<path d="M20.2454 15.1622C20.2535 15.2271 20.1558 15.2515 20.1151 15.2839C19.9848 15.3894 19.8546 15.5193 19.765 15.6653C19.6918 15.779 19.6348 15.9007 19.5859 16.0224C19.5615 16.0873 19.5371 16.1604 19.5126 16.2253C19.4801 16.3145 19.4231 16.4038 19.3661 16.274C19.3254 16.1847 19.3173 16.0873 19.2765 16.0062C19.2114 15.8682 19.1544 15.7303 19.0649 15.6085C18.9997 15.5112 18.9102 15.4219 18.8288 15.3407C18.7636 15.2758 18.5845 15.1947 18.7067 15.0973C18.8369 14.9918 18.9835 14.8782 19.0812 14.7321C19.1626 14.6104 19.2277 14.4724 19.2847 14.3426C19.3173 14.2614 19.3417 13.9774 19.4312 13.9774C19.5208 13.9774 19.5778 14.2533 19.6103 14.3264C19.6673 14.44 19.7162 14.5617 19.7813 14.6672C19.8383 14.7727 19.879 14.8457 19.9686 14.935C20.0093 14.9675 20.2291 15.1135 20.2454 15.1622Z" fill="#F1F2F2"/>
<path d="M21.1733 19.0488C21.1814 19.1137 21.0837 19.1381 21.0511 19.1705C20.9209 19.276 20.7906 19.4059 20.7011 19.5519C20.6278 19.6656 20.5708 19.7873 20.522 19.909C20.4975 19.9739 20.4731 20.047 20.4487 20.1119C20.4161 20.2011 20.3591 20.2904 20.3021 20.1606C20.2614 20.0713 20.2533 19.9739 20.2126 19.8928C20.1475 19.7548 20.0905 19.6169 20.0009 19.4951C19.9358 19.3978 19.8462 19.3085 19.7648 19.2273C19.6997 19.1624 19.5206 19.0813 19.6427 18.9839C19.773 18.8784 19.9195 18.7648 20.0172 18.6187C20.0986 18.497 20.1637 18.359 20.2207 18.2292C20.2533 18.148 20.2777 17.864 20.3591 17.864C20.4487 17.864 20.5057 18.1399 20.5382 18.213C20.5952 18.3266 20.6441 18.4483 20.7092 18.5538C20.7662 18.6593 20.8069 18.7323 20.8965 18.8216C20.9372 18.854 21.157 19.0001 21.1733 19.0488Z" fill="#F1F2F2"/>
<path d="M36.6989 48.0202C36.5605 48.5964 34.1832 49.1401 33.6948 49.2537C32.384 49.554 31.0163 49.6757 29.6811 49.7731C25.7978 50.0652 20.7502 49.9516 17.4855 48.0202C15.9631 42.3884 15.5072 39.9458 14.4244 34.0542C14.2046 32.8532 13.6591 31.3032 13.8382 30.0941C14.2942 30.1996 15.2711 30.8163 15.6537 31.1085C16.1504 30.6459 16.5656 29.1527 16.9156 29.1527C17.1843 29.1527 18.4381 30.3619 19.0568 30.6216C19.5208 30.1265 19.9035 29.526 20.4489 29.104C20.8642 29.453 21.6864 30.8082 22.2563 30.8244C22.6715 30.8326 23.5589 29.0797 23.909 29.1122C24.3079 29.0959 25.1465 30.7676 25.7978 30.7271C26.1723 30.7027 27.2795 29.1852 27.8412 29.1446C28.2808 29.1122 29.3636 30.4187 29.7707 30.8163C30.7314 30.0779 31.6432 28.7145 32.2049 28.7145C32.5876 28.9012 33.6378 30.0048 34.11 30.5242C34.8345 29.8506 35.7871 28.6983 36.2674 28.7145C36.8454 28.7389 37.6677 30.4511 38.148 30.4593C38.7586 30.4674 39.874 29.4449 40.5904 28.9417C40.5904 29.4205 40.0124 32.3825 39.931 32.837C38.9215 38.128 37.8957 42.997 36.6989 48.0202Z" fill="#B3A2CE" stroke="#A283AF" stroke-miterlimit="10" stroke-linecap="round" stroke-linejoin="round"/>
<g opacity="0.3">
<path opacity="0.3" d="M19.2686 47.1365C18.194 45.4486 17.7299 43.4766 17.3473 41.5371C16.9647 39.5814 16.4518 37.6987 15.9877 35.7673C15.7353 34.7367 15.6051 33.625 15.89 32.5862C16.1587 31.5962 17.0135 30.8658 17.1926 29.8596C17.2008 29.8028 17.2252 29.7622 17.2415 29.7216C17.1193 29.6323 17.0135 29.5512 16.9321 29.5025C16.8263 29.6405 16.6716 29.9569 16.5657 30.1761C16.3541 30.6224 16.1261 31.0768 15.8575 31.3365C15.7435 31.442 15.5725 31.4501 15.4504 31.3609C15.1573 31.1417 14.5467 30.7522 14.1071 30.5412C14.0908 31.2878 14.3025 32.1642 14.4897 32.9514C14.5793 33.3247 14.6607 33.6736 14.7258 34.0064C15.8005 39.8249 16.2482 42.2594 17.7544 47.8182C18.8616 48.4512 20.2456 48.9137 21.8738 49.2059C20.8318 48.7514 19.8792 48.1022 19.2686 47.1365Z" fill="#A7A9AC"/>
</g>
<path d="M17.1274 33.4296C17.1274 33.4296 17.388 34.2411 17.7055 35.4827C17.8683 36.0994 18.0393 36.8217 18.2102 37.6007C18.2916 37.9902 18.3893 38.3879 18.4707 38.8017C18.5522 39.2156 18.6336 39.6295 18.715 40.0433C18.7883 40.4653 18.8697 40.8792 18.9429 41.2931C19.0244 41.7069 19.0813 42.1127 19.1465 42.5022C19.2767 43.2894 19.3826 44.0278 19.4558 44.6608C19.6187 45.9268 19.6757 46.7788 19.6757 46.7788C19.6757 46.7788 19.407 45.9673 19.0976 44.7257C18.9348 44.109 18.7638 43.3867 18.5929 42.6077C18.5115 42.2182 18.4138 41.8205 18.3323 41.4067C18.2509 40.9928 18.1695 40.5789 18.0881 40.1651C18.0148 39.7431 17.9334 39.3292 17.8602 38.9153C17.7869 38.5015 17.7218 38.0957 17.6566 37.7062C17.5264 36.919 17.4205 36.1806 17.3473 35.5476C17.1844 34.2816 17.1274 33.4296 17.1274 33.4296Z" fill="#A27DAB"/>
<path d="M22.6471 38.5096C22.6471 38.5096 22.7936 39.0452 22.9239 39.8567C22.989 40.2624 23.0541 40.7331 23.1111 41.2444C23.1355 41.4959 23.1681 41.7637 23.1925 42.0315C23.217 42.2993 23.2332 42.5671 23.2577 42.843C23.274 43.1189 23.2902 43.3867 23.2984 43.6545C23.3147 43.9223 23.3147 44.1901 23.3228 44.4417C23.3309 44.953 23.3309 45.4317 23.3147 45.8375C23.2902 46.6571 23.217 47.2089 23.217 47.2089C23.217 47.2089 23.0704 46.6733 22.9402 45.8618C22.875 45.4561 22.8099 44.9854 22.7529 44.4742C22.7285 44.2226 22.6878 43.9548 22.6715 43.687C22.6471 43.4192 22.6308 43.1514 22.6064 42.8755C22.5901 42.5996 22.5819 42.3318 22.5657 42.064C22.5494 41.7962 22.5494 41.5284 22.5412 41.2768C22.5331 40.7656 22.5331 40.2868 22.5494 39.881C22.5819 39.0614 22.6471 38.5096 22.6471 38.5096Z" fill="#A27DAB"/>
<path d="M26.9292 39.6535C26.9292 39.6535 27.0431 40.1242 27.1164 40.8383C27.1571 41.1954 27.1978 41.6092 27.2222 42.0474C27.2467 42.4938 27.2629 42.9644 27.2711 43.4351C27.2711 43.9058 27.2629 44.3846 27.2385 44.8228C27.2222 45.2691 27.1897 45.683 27.149 46.0401C27.0757 46.7542 26.9699 47.2248 26.9699 47.2248C26.9699 47.2248 26.8559 46.7542 26.7826 46.0401C26.7419 45.683 26.7012 45.2691 26.6768 44.8309C26.6524 44.3846 26.6361 43.9139 26.6279 43.4432C26.6279 42.9726 26.6361 42.4938 26.6605 42.0556C26.6849 41.6092 26.7093 41.1954 26.75 40.8383C26.8233 40.1242 26.9292 39.6535 26.9292 39.6535Z" fill="#A27DAB"/>
<path d="M31.1789 37.7377C31.1789 37.7377 31.2603 38.3382 31.3011 39.2227C31.3255 39.6691 31.3336 40.1884 31.3336 40.7483C31.3255 41.0243 31.3336 41.3164 31.3255 41.6085C31.3173 41.9007 31.3092 42.1928 31.3011 42.4931C31.2848 42.7852 31.2685 43.0855 31.2522 43.3776C31.2359 43.6698 31.2115 43.9538 31.1871 44.2297C31.1382 44.7815 31.0812 45.3009 31.0243 45.7472C30.9103 46.6317 30.7719 47.216 30.7719 47.216C30.7719 47.216 30.6905 46.6155 30.6498 45.731C30.6253 45.2847 30.6172 44.7653 30.6172 44.2054C30.6172 43.9294 30.6172 43.6373 30.6253 43.3452C30.6335 43.053 30.6416 42.7609 30.6498 42.4606C30.666 42.1685 30.6823 41.8682 30.6986 41.5761C30.7149 41.2839 30.7393 40.9999 30.7637 40.724C30.8126 40.1722 30.8696 39.6528 30.9266 39.2065C31.0487 38.322 31.1789 37.7377 31.1789 37.7377Z" fill="#A27DAB"/>
<path d="M37.0735 33.4296C37.0735 33.4296 37.0573 34.306 36.9433 35.6044C36.8863 36.2536 36.813 37.0164 36.7235 37.8198C36.6746 38.2256 36.6339 38.6394 36.5688 39.0695C36.5118 39.4915 36.4548 39.9216 36.3897 40.3517C36.3246 40.7818 36.2594 41.2119 36.1943 41.6339C36.1292 42.0559 36.0559 42.4697 35.9826 42.8755C35.8442 43.6789 35.6977 44.4255 35.5674 45.0666C35.3069 46.3487 35.0708 47.1927 35.0708 47.1927C35.0708 47.1927 35.0871 46.3163 35.2011 45.0179C35.2499 44.3687 35.3313 43.6058 35.4209 42.8025C35.4697 42.3967 35.5104 41.9828 35.5756 41.5527C35.6325 41.1308 35.6895 40.7007 35.7547 40.2706C35.8198 39.8405 35.8849 39.4104 35.9501 38.9884C36.0152 38.5664 36.0885 38.1525 36.1617 37.7468C36.3001 36.9434 36.4467 36.1968 36.5769 35.5557C36.8375 34.2735 37.0735 33.4296 37.0735 33.4296Z" fill="#A27DAB"/>
<path d="M33.3201 35.0999C33.3201 35.6517 32.8724 36.0981 32.3188 36.0981C31.7651 36.0981 31.3174 35.6517 31.3174 35.0999C31.3174 34.5481 31.7651 34.1017 32.3188 34.1017C32.8724 34.1017 33.3201 34.5481 33.3201 35.0999Z" fill="#7C615B"/>
<path d="M32.3842 34.6066C32.3842 34.8013 32.2213 34.9636 32.0259 34.9636C31.8305 34.9636 31.6677 34.8013 31.6677 34.6066C31.6677 34.4118 31.8305 34.2495 32.0259 34.2495C32.2213 34.2495 32.3842 34.4118 32.3842 34.6066Z" fill="#F1F2F2"/>
<path d="M23.1275 35.1C23.1275 35.6518 22.6797 36.0982 22.1261 36.0982C21.5725 36.0982 21.1248 35.6518 21.1248 35.1C21.1248 34.5482 21.5725 34.1019 22.1261 34.1019C22.6797 34.1019 23.1275 34.5482 23.1275 35.1Z" fill="#7C615B"/>
<path d="M22.1913 34.6056C22.1913 34.8004 22.0285 34.9627 21.8331 34.9627C21.6377 34.9627 21.4749 34.8004 21.4749 34.6056C21.4749 34.4108 21.6377 34.2485 21.8331 34.2485C22.0366 34.2485 22.1913 34.4108 22.1913 34.6056Z" fill="#F1F2F2"/>
<path d="M27.9716 35.6288C27.9716 36.1563 27.5401 36.5864 27.011 36.5864C26.4818 36.5864 26.0503 36.1563 26.0503 35.6288" stroke="#7C615B" stroke-miterlimit="10" stroke-linecap="round" stroke-linejoin="round"/>
<path d="M40.1508 29.6568C39.4425 30.2086 38.7016 30.7767 38.1399 30.7767C37.741 30.7685 37.4235 30.3547 37.0164 29.8353C36.8047 29.5594 36.3977 29.0482 36.2348 29.0319C36.0069 29.04 35.2823 29.7704 34.8997 30.168C34.6962 30.379 34.5008 30.5819 34.3135 30.7523C34.2565 30.8091 34.167 30.8416 34.0856 30.8416C34.0041 30.8416 33.9227 30.801 33.8657 30.7361C33.0923 29.9002 32.5794 29.4052 32.2945 29.1699C32.9051 31.6206 33.825 34.0227 33.7273 36.587C33.6296 39.0216 33.19 41.4967 32.6934 43.8744C32.3026 45.7246 31.6757 47.7615 30.0801 48.9463C29.8358 49.1248 29.5753 49.3115 29.3066 49.4819C29.4288 49.4738 29.5427 49.4657 29.6649 49.4575C30.9593 49.3602 32.3352 49.2384 33.6378 48.9463C36.186 48.362 36.3977 47.9562 36.4058 47.94C37.5944 42.9655 38.6121 38.1533 39.6135 32.7892L39.6623 32.5133C39.9147 31.1986 40.0857 30.2411 40.1834 29.6406C40.1671 29.6487 40.1589 29.6568 40.1508 29.6568Z" fill="#F0DFE6"/>
<path d="M36.8376 41.2682C36.8457 41.3007 36.7968 41.3088 36.7806 41.325C36.7236 41.3737 36.6584 41.4386 36.6177 41.5035C36.5852 41.5522 36.5607 41.609 36.5363 41.6658C36.52 41.6983 36.5119 41.7308 36.5038 41.7632C36.4875 41.8038 36.463 41.8444 36.4386 41.7876C36.4223 41.747 36.4142 41.7064 36.3979 41.6658C36.3735 41.6009 36.3409 41.536 36.3002 41.4792C36.2677 41.4386 36.227 41.398 36.1944 41.3575C36.1618 41.3331 36.0804 41.2925 36.1374 41.2439C36.2025 41.1952 36.2677 41.1384 36.3084 41.0734C36.3491 41.0166 36.3735 40.9517 36.4061 40.8949C36.4223 40.8624 36.4305 40.7245 36.4712 40.7245C36.5119 40.7245 36.5363 40.8543 36.5526 40.8868C36.577 40.9436 36.6015 40.9923 36.634 41.0491C36.6584 41.0978 36.6829 41.1302 36.7154 41.1708C36.7317 41.1789 36.8294 41.2439 36.8376 41.2682C36.8376 41.2601 36.8376 41.2682 36.8376 41.2682Z" fill="#F1F2F2"/>
<path d="M33.5972 40.6189C33.6054 40.6757 33.5158 40.7 33.4833 40.7325C33.3611 40.8299 33.239 40.9516 33.1576 41.0814C33.0925 41.1869 33.0355 41.3005 32.9948 41.4141C32.9704 41.4791 32.9541 41.544 32.9297 41.6008C32.8971 41.6819 32.8483 41.7712 32.7913 41.6414C32.7587 41.5602 32.7506 41.471 32.7099 41.3898C32.6529 41.26 32.5959 41.1301 32.5145 41.0165C32.4493 40.9272 32.3761 40.8461 32.2947 40.765C32.2377 40.7081 32.0667 40.627 32.1807 40.5377C32.3028 40.4404 32.4412 40.3349 32.5307 40.1969C32.604 40.0833 32.6691 39.9535 32.718 39.8317C32.7506 39.7587 32.775 39.4909 32.8483 39.4909C32.9378 39.4909 32.9867 39.7425 33.0192 39.8155C33.0681 39.921 33.1169 40.0346 33.1739 40.132C33.2309 40.2294 33.2635 40.2943 33.3449 40.3754C33.3774 40.4322 33.581 40.5702 33.5972 40.6189C33.5972 40.6108 33.5972 40.6108 33.5972 40.6189Z" fill="#F1F2F2"/>
<path d="M35.3559 43.4592C35.364 43.516 35.2745 43.5403 35.2419 43.5728C35.1198 43.6702 34.9977 43.7919 34.9163 43.9217C34.8511 44.0272 34.7941 44.1408 34.7453 44.2545C34.7209 44.3194 34.7046 44.3843 34.6802 44.4411C34.6476 44.5223 34.5987 44.6115 34.5418 44.4817C34.5092 44.4005 34.5011 44.3113 34.4603 44.2301C34.4034 44.1003 34.3464 43.9704 34.265 43.8568C34.1998 43.7675 34.1266 43.6864 34.0451 43.6052C33.9882 43.5484 33.8172 43.4673 33.9312 43.378C34.0533 43.2806 34.1917 43.1751 34.2812 43.0372C34.3545 42.9236 34.4196 42.7937 34.4685 42.672C34.5011 42.599 34.5255 42.3312 34.5988 42.3312C34.6883 42.3312 34.7372 42.5827 34.7697 42.6558C34.8186 42.7613 34.8674 42.8749 34.9244 42.9723C34.9814 43.0697 35.014 43.1346 35.0954 43.2157C35.1361 43.2806 35.3396 43.4186 35.3559 43.4592Z" fill="#F1F2F2"/>
<path d="M32.3272 43.1187C32.3353 43.1592 32.2702 43.1755 32.2457 43.1917C32.1643 43.2566 32.0748 43.3459 32.0178 43.4351C31.9689 43.5082 31.9364 43.5893 31.9038 43.6705C31.8875 43.7111 31.8712 43.7597 31.855 43.8003C31.8387 43.8571 31.798 43.9139 31.7573 43.8328C31.7328 43.776 31.7247 43.7111 31.7003 43.6624C31.6596 43.5731 31.6189 43.4838 31.5619 43.4027C31.5212 43.3378 31.4642 43.281 31.4072 43.2323C31.3665 43.1917 31.2525 43.143 31.3258 43.0781C31.4153 43.005 31.5049 42.932 31.57 42.8427C31.627 42.7616 31.6677 42.6804 31.7003 42.5912C31.7247 42.5425 31.741 42.3558 31.7898 42.3558C31.8468 42.3558 31.8875 42.5344 31.9038 42.5749C31.9364 42.648 31.9689 42.7291 32.0096 42.7941C32.0503 42.859 32.0748 42.9077 32.1318 42.9645C32.1806 42.9969 32.319 43.0862 32.3272 43.1187Z" fill="#F1F2F2"/>
</svg>
