<svg width="56" height="56" viewBox="0 0 56 56" fill="none" xmlns="http://www.w3.org/2000/svg">
<circle cx="28" cy="28" r="27.5" fill="#83C379" stroke="white"/>
<g clip-path="url(#clip0)">
<path d="M43.3688 17.7185C42.912 16.2832 41.5286 15.4024 39.9523 15.696C38.6398 15.9374 37.6489 17.2488 38.0993 19.056C38.228 19.5648 38.6012 19.878 38.9615 20.2368C39.3797 20.6609 39.6049 20.9871 39.6692 21.6069C39.7078 21.9788 39.785 22.6964 39.2253 23.2836C38.3824 20.7588 37.0892 18.2535 35.2169 16.3941C35.5064 15.4416 35.989 14.2281 36.7739 13.2364C37.9642 11.7293 40.1968 11.2726 40.1968 11.2726C40.1968 11.2726 38.2795 9.57635 36.375 9.38715C34.4641 9.20448 33.7242 9.30886 33.7242 9.30886C33.7242 9.30886 33.7499 8.44767 33.7885 6.92754C33.8207 5.80539 32.9779 3.66546 32.9779 3.66546C32.9779 3.66546 31.2021 4.14825 30.3013 4.77457C29.7866 5.1334 28.963 5.98154 27.9915 7.56691C27.9915 7.56691 27.6376 6.52957 26.9492 5.30303C26.3251 4.19392 24.6587 3 24.6587 3C24.6587 3 23.5778 4.43532 23.121 5.90978C22.6642 7.38424 22.4068 8.93699 22.4068 8.93699C22.4068 8.93699 21.2937 8.25195 18.9775 8.74126C17.176 9.11966 14.6667 10.8942 14.6667 10.8942C14.6667 10.8942 16.4553 11.1943 18.0703 13.0668C18.8938 14.0193 19.5887 15.7874 20.0069 17.0269C18.1861 19.0038 16.7963 21.6591 16.0114 24.6341C15.4066 24.1318 15.3937 23.4206 15.3873 23.0487C15.3744 22.4289 15.5546 22.0766 15.9213 21.6004C16.2302 21.1959 16.5647 20.8371 16.6291 20.3216C16.8607 18.4688 15.7154 17.2944 14.3772 17.2227C12.7815 17.1313 11.514 18.1817 11.2374 19.6627C10.98 21.0719 10.8835 22.7225 11.1923 24.1318C11.3789 24.9799 12.4791 28.4638 15.2844 30.134C15.2844 30.1927 15.2844 30.2579 15.2844 30.3167C15.2844 36.1949 16.2623 41.5382 20.7533 44.2001C20.8884 45.0091 21.1457 46.0073 21.1715 46.2226C21.2229 46.5618 21.2165 46.6401 20.972 46.8358C20.2257 47.4295 18.8745 48.3233 19.2413 49.452C19.4407 50.0588 22.1687 50.0261 22.8186 49.9805C23.7772 49.9152 25.5273 50.1044 25.6946 48.9431C25.7782 48.3886 25.7139 46.8815 25.6817 45.7985C26.6725 45.929 27.7599 45.9942 28.9437 45.9746C29.7609 45.9616 30.5201 45.9094 31.2278 45.8246C31.2342 46.9076 31.2214 48.4277 31.3179 48.9758C31.5302 50.1305 33.2674 49.8826 34.2261 49.9152C34.8759 49.9348 37.6103 49.8761 37.7841 49.2628C38.1122 48.1211 36.7353 47.2729 35.9697 46.7119C35.7187 46.5292 35.7123 46.4509 35.7509 46.1051C35.7702 45.9094 35.9568 45.0482 36.0726 44.2849C41.0075 41.2968 40.57 34.9814 40.5056 30.5776C40.4992 30.0296 40.4606 29.4294 40.3963 28.79C43.1693 26.8262 43.8706 23.0357 43.9543 22.1484C44.1022 20.7066 43.7999 19.0755 43.3688 17.7185Z" fill="white"/>
<path d="M18.3411 28.0071C16.5717 27.9811 14.8152 27.3743 13.863 25.7694C13.1231 24.5298 12.9558 23.0031 13.1553 21.5939C13.226 21.1111 13.9595 21.2285 13.8887 21.7113C13.7215 22.9118 13.8437 24.1775 14.4292 25.267C15.182 26.6697 16.7454 27.2308 18.251 27.2503C18.4569 27.2503 18.637 27.3547 18.6628 27.5831C18.6885 27.7723 18.5405 28.0071 18.3411 28.0071Z" fill="#231F20"/>
<path d="M12.4927 19.9564C12.4798 19.6106 12.4863 19.317 12.7565 19.0756C12.956 18.8995 13.2455 18.8147 13.5028 18.9386C14.0047 19.1735 14.2363 19.9564 14.069 20.4522C14.2106 20.2956 14.4808 20.2043 14.6417 20.3674C14.8669 20.6023 14.661 20.8306 14.4937 21.0068C14.1269 21.3852 13.7409 21.7962 13.7216 22.3507L13.6573 22.8466C13.535 22.6769 13.387 22.3834 13.2648 22.1746C13.1297 21.9397 12.9881 21.7114 12.8723 21.4635C12.6471 21.0002 12.512 20.4783 12.4927 19.9564Z" fill="#231F20"/>
<path d="M36.9869 27.1656C38.7434 26.9373 40.4163 26.1283 41.1819 24.419C41.7739 23.1076 41.7674 21.5744 41.4136 20.1978C41.2913 19.7281 40.5707 19.9303 40.6929 20.4001C40.9953 21.5744 41.0146 22.8466 40.5578 23.9949C39.9659 25.4759 38.4796 26.2131 36.9869 26.4088C36.7875 26.4349 36.6138 26.5589 36.6138 26.7872C36.6138 26.9699 36.7875 27.1917 36.9869 27.1656Z" fill="#231F20"/>
<path d="M22.3366 42.4974L22.8964 47.4623C22.8964 47.4623 21.6096 48.5322 21.7061 48.7345C21.8026 48.9367 23.8229 48.7671 23.9194 48.4996C24.0159 48.2321 23.321 42.667 23.321 42.667L22.3366 42.4974Z" fill="#231F20"/>
<path d="M34.4584 42.3931L34.3297 47.3906C34.3297 47.3906 35.7066 48.3431 35.623 48.5519C35.5393 48.7607 33.5191 48.7737 33.3968 48.5127C33.2746 48.2518 33.4869 42.6475 33.4869 42.6475L34.4584 42.3931Z" fill="#231F20"/>
<path d="M26.7506 15.3631C20.9021 15.9829 16.7007 22.755 16.7007 30.2251C16.7007 37.6953 18.4893 44.1803 28.758 44.0368C39.6958 43.8867 39.0267 35.6598 38.9495 30.4535C38.8787 25.2472 35.977 14.3845 26.7506 15.3631Z" fill="#FCBB29"/>
<path d="M18.7852 28.4637L21.4296 30.1078L24.1769 28.5681L26.4288 29.7098C26.4288 29.7098 29.1761 28.0984 29.2726 28.131C29.3691 28.1636 31.7176 29.8077 31.7176 29.8077L34.2333 27.994L36.5173 29.2662L38.7242 27.8439C38.6212 27.1524 38.4797 26.4217 38.2931 25.6779L36.4787 26.4151L34.1625 24.6406L31.5503 27.0545L29.1054 24.8102L26.1972 27.2567L24.2477 25.0124L21.3395 27.061L18.663 24.9472L17.1317 26.0954C16.8936 27.2046 16.7521 28.3528 16.707 29.5272L18.7852 28.4637Z" fill="#FCD323"/>
<path d="M36.7426 35.9077L34.4263 34.1331L31.8141 36.5471L29.3692 34.3027L26.461 36.7493L24.5115 34.505L21.6034 36.5536L18.9139 34.4332L17.1768 35.7511C17.4148 36.8863 17.7558 37.9432 18.2384 38.9023L19.4415 38.2825L22.0859 39.9266L24.8332 38.3869L27.0851 39.5286C27.0851 39.5286 29.8324 37.9171 29.929 37.9497C30.0255 37.9824 32.3739 39.6265 32.3739 39.6265L34.8896 37.8127L37.1736 39.0849L38.2738 38.3803C38.6342 37.3104 38.8207 36.1621 38.9108 35.0204L36.7426 35.9077Z" fill="#FCD323"/>
<path d="M18.6501 24.0011L21.2945 25.6452L24.0418 24.1055L26.2937 25.2472C26.2937 25.2472 29.041 23.6357 29.1375 23.6683C29.2341 23.701 31.5825 25.345 31.5825 25.345L34.0982 23.5313L36.3822 24.8035L37.772 23.9097C37.5532 23.2638 37.3023 22.6245 37.0128 21.9982L36.3822 22.2526L34.066 20.478L31.4538 22.892L29.0089 20.6477L26.0943 23.0942L24.1448 20.8499L21.2302 22.8985L18.9847 21.1239C18.3863 22.1808 17.8973 23.3487 17.5242 24.5817L18.6501 24.0011Z" fill="#FCD323"/>
<path d="M18.9139 33.4935L21.5583 35.1375L24.3056 33.5978L26.5575 34.7396C26.5575 34.7396 29.3048 33.1281 29.4013 33.1607C29.4978 33.1934 31.8462 34.8374 31.8462 34.8374L34.3619 33.0237L36.646 34.2959L38.9815 32.7954C38.9815 31.9733 38.9622 31.1839 38.9494 30.4532C38.9494 30.2836 38.9429 30.114 38.9301 29.9378L36.6074 30.8773L34.2912 29.1027L31.679 31.5167L29.234 29.2723L26.3259 31.7189L24.3764 29.4746L21.4682 31.5232L18.7852 29.4028L16.707 30.9817C16.7263 32.1952 16.8035 33.376 16.9644 34.4982L18.9139 33.4935Z" fill="#FCD323"/>
<path d="M34.9603 38.9285L32.3481 41.3424L29.9031 39.0981L26.995 41.5447L25.0455 39.3003L22.1373 41.3489L19.4608 39.2351L18.7466 39.7766C20.4516 42.4385 23.4884 44.1152 28.7708 44.0434C33.2038 43.9847 35.7323 42.5951 37.1671 40.6182L34.9603 38.9285Z" fill="#FCD323"/>
<path d="M21.198 21.4892L23.9453 19.9495L26.1972 21.0913C26.1972 21.0913 28.9445 19.4798 29.041 19.5124C29.1375 19.5451 31.4859 21.1891 31.4859 21.1891L34.0016 19.3754L36.2857 20.6476L36.3114 20.6346C34.4263 17.366 31.3894 14.8738 26.7505 15.3631C23.7716 15.6828 21.2173 17.5943 19.4351 20.3867L21.198 21.4892Z" fill="#FCD323"/>
<path d="M21.7191 17.66C21.7191 17.66 21.05 14.4175 19.7825 13.2823C18.515 12.1471 17.106 10.7901 17.106 10.7901C17.106 10.7901 19.0233 9.73973 20.5288 9.73321C22.2339 9.72668 23.4306 10.4117 23.4306 10.4117C23.4306 10.4117 23.5464 8.61758 23.9196 7.41061C24.2927 6.20364 25.1742 5.0293 25.1742 5.0293C25.1742 5.0293 26.3194 6.26236 26.8277 7.17574C27.3875 8.18046 27.7864 9.7593 27.7864 9.7593C28.2496 8.58496 28.4169 8.0826 29.6008 6.94087C30.2506 6.31455 31.9814 5.58385 31.9814 5.58385C31.9814 5.58385 32.6698 7.33885 32.6441 8.25223C32.6119 9.49181 32.1808 10.901 32.1808 10.901C32.1808 10.901 33.1974 10.1116 34.7609 10.2617C36.3243 10.4117 37.6369 11.162 37.6369 11.162C37.6369 11.162 36.1506 11.2403 35.1083 12.9757C34.066 14.7111 33.5191 17.2816 33.5191 17.2816C33.5191 17.2816 32.4318 18.332 28.4105 18.4038C24.4021 18.4886 21.7191 17.66 21.7191 17.66Z" fill="#61BC53"/>
<path d="M25.2127 7.91882C25.2127 7.91882 24.3505 10.2349 24.7816 12.5118C25.2127 14.7953 26.403 17.4441 26.403 17.3397C26.403 17.2418 26.8662 15.9305 26.9306 12.277C26.9692 10.398 25.2127 7.91882 25.2127 7.91882Z" fill="#AEF998"/>
<path d="M30.823 8.21942C30.823 8.21942 29.163 10.0266 28.7062 12.3035C28.2494 14.5805 28.3588 17.4902 28.3974 17.3924C28.436 17.301 29.3561 16.2702 30.7844 12.9103C31.5179 11.1814 30.823 8.21942 30.823 8.21942Z" fill="#AEF998"/>
<path d="M31.0806 17.0792C31.0806 17.0792 31.3637 14.4696 32.1229 13.2039C33.2167 11.3902 35.3978 11.2401 35.3978 11.2401C35.3978 11.2401 34.2075 12.3492 33.1652 14.1564C32.1229 15.9701 31.0806 17.0792 31.0806 17.0792Z" fill="#AEF998"/>
<path d="M24.0158 16.831C24.0158 16.831 23.5911 14.2409 22.7612 13.0208C21.5709 11.2724 19.3833 11.2463 19.3833 11.2463C19.3833 11.2463 20.6315 12.2836 21.7703 14.0321C22.9156 15.7806 24.0158 16.831 24.0158 16.831Z" fill="#AEF998"/>
<path d="M28.3202 30.6494C25.8882 30.6494 24.6528 29.7361 24.048 28.9727C23.3789 28.1311 23.3017 27.2895 23.3017 27.2569C23.2888 27.1329 23.3853 27.022 23.5076 27.0155C23.6298 27.0024 23.7392 27.1003 23.7456 27.2243C23.7456 27.2308 23.8164 27.9811 24.4083 28.7118C25.1933 29.6839 26.5444 30.1993 28.3138 30.1993C29.7486 30.1993 30.9067 29.6773 31.7624 28.653C32.4058 27.8767 32.631 27.0872 32.631 27.0807C32.6632 26.9633 32.7854 26.8915 32.9076 26.9241C33.0235 26.9568 33.0942 27.0807 33.0621 27.2047C33.0492 27.2373 32.8176 28.0854 32.1163 28.9336C31.4729 29.7165 30.289 30.6494 28.3202 30.6494Z" fill="#231F20"/>
<path d="M24.4405 24.3602C24.3762 23.7861 23.9001 22.7292 22.5811 22.8531C22.1822 22.8923 21.8734 23.0032 21.6289 23.1467L21.2621 22.6117C21.1914 22.5073 21.0498 22.4812 20.9533 22.553C20.8568 22.6248 20.8246 22.7683 20.8954 22.8662L21.2814 23.4207C21.1721 23.5382 21.0884 23.6621 21.0241 23.7795L20.3678 23.5316C20.252 23.486 20.1233 23.5447 20.0783 23.6621C20.0332 23.7795 20.0911 23.91 20.207 23.9557L20.8568 24.2036C20.8311 24.3015 20.8246 24.3602 20.8246 24.3602C20.8118 24.4842 20.9018 24.5951 21.0241 24.6081C21.1463 24.6212 21.2557 24.5298 21.2686 24.4059C21.275 24.3667 21.3844 23.4142 22.6197 23.3033C23.128 23.2576 23.514 23.4207 23.7585 23.7926C23.9515 24.0862 23.9966 24.4059 23.9966 24.4124C24.0094 24.5298 24.106 24.6146 24.2153 24.6146C24.2218 24.6146 24.2346 24.6146 24.2411 24.6146C24.3698 24.6016 24.4534 24.4842 24.4405 24.3602Z" fill="#231F20"/>
<path d="M31.2606 24.3079C31.2992 23.7272 31.711 22.6508 33.0428 22.7029C33.4481 22.716 33.757 22.8139 34.0079 22.9443L34.3489 22.3898C34.4132 22.2854 34.5548 22.2528 34.6577 22.318C34.7607 22.3833 34.7928 22.5268 34.7285 22.6312L34.3746 23.2053C34.4904 23.3162 34.5805 23.4337 34.6513 23.5511L35.2947 23.264C35.4105 23.2118 35.5392 23.264 35.5906 23.3815C35.6421 23.4989 35.5906 23.6294 35.4748 23.6816L34.8443 23.9621C34.8765 24.0534 34.8829 24.1187 34.8829 24.1187C34.9022 24.2426 34.8186 24.3536 34.6963 24.3731C34.5741 24.3927 34.4583 24.3079 34.4454 24.1839C34.439 24.1448 34.2781 23.1988 33.0364 23.1531C32.5216 23.1335 32.1485 23.3227 31.9233 23.7077C31.7431 24.0143 31.7174 24.334 31.7174 24.3405C31.711 24.4579 31.6209 24.5493 31.5051 24.5493C31.4986 24.5493 31.4858 24.5493 31.4793 24.5493C31.3442 24.5428 31.2541 24.4318 31.2606 24.3079Z" fill="#231F20"/>
<path d="M32.9334 26.5062C33.1007 26.5519 33.2486 26.7019 33.2937 26.8716C33.3387 27.0282 33.5768 26.9629 33.5317 26.8063C33.461 26.5519 33.2486 26.3366 32.9977 26.2648C32.8497 26.2191 32.779 26.4605 32.9334 26.5062Z" fill="#231F20"/>
<path d="M23.379 26.6761C23.2117 26.7348 23.0766 26.8849 23.038 27.0545C22.9994 27.2111 22.7613 27.1589 22.7935 26.9958C22.8514 26.7413 23.0573 26.513 23.3018 26.4347C23.4562 26.389 23.527 26.6239 23.379 26.6761Z" fill="#231F20"/>
<path d="M41.8895 18.4885C41.8638 18.1427 41.8252 17.8556 41.5292 17.6468C41.3105 17.4903 41.0145 17.4446 40.7765 17.5946C40.3068 17.8882 40.1588 18.6907 40.384 19.167C40.2296 19.03 39.9465 18.9647 39.8049 19.1539C39.6055 19.4149 39.8371 19.6171 40.0237 19.7737C40.429 20.1064 40.8601 20.4718 40.9437 21.0198L41.0596 21.5026C41.1625 21.3199 41.2719 21.0133 41.3748 20.7915C41.4842 20.5436 41.6 20.2956 41.6836 20.0412C41.8509 19.5454 41.9281 19.0104 41.8895 18.4885Z" fill="#231F20"/>
</g>
<defs>
<clipPath id="clip0">
<rect width="33" height="47" fill="white" transform="translate(11 3)"/>
</clipPath>
</defs>
</svg>
