<svg width="56" height="56" viewBox="0 0 56 56" fill="none" xmlns="http://www.w3.org/2000/svg">
<circle cx="28" cy="28" r="27.5" fill="#F37C7C" stroke="white"/>
<g clip-path="url(#clip0)">
<path d="M53.0006 27.0526C52.7536 26.1251 24.6257 8.41122 21.9431 9.01073C19.0473 9.6668 9.31589 42.7078 10.0342 44.3253C10.4046 45.1511 19.0024 48.0242 33.0439 43.6014C46.3221 39.4161 53.2026 27.8218 53.0006 27.0526Z" fill="white"/>
<path d="M51.2488 27.4491C51.058 26.9401 24.7259 9.84836 22.3127 10.561C19.8995 11.2736 11.2793 43.3531 11.2793 43.3531C11.2793 43.3531 19.5852 46.2149 32.4258 42.188C44.5591 38.376 51.2488 27.4491 51.2488 27.4491Z" fill="#AEF998"/>
<path d="M11.616 42.0862C14.3884 42.697 21.9423 44.0657 31.8645 40.955C41.7531 37.8444 48.2407 29.4625 50.2274 26.6686C51.1253 27.2794 51.2151 27.3699 51.2488 27.4491C51.2488 27.4491 44.5591 38.3647 32.4258 42.1767C19.5852 46.2036 11.2793 43.3418 11.2793 43.3418C11.2793 43.3418 11.313 43.1947 11.616 42.0862Z" fill="#61BC53"/>
<path d="M47.646 24.9382C47.4889 24.497 24.3782 9.95043 22.2905 10.5726C20.2028 11.1834 12.5927 38.5686 12.5927 38.5686C12.5927 38.5686 19.9222 41.4304 31.0341 37.9464C41.5512 34.6435 47.646 24.9382 47.646 24.9382Z" fill="#FA4862"/>
<path d="M40.5299 24.9829C40.889 24.4286 44.0094 26.295 43.0441 27.2905C42.0788 28.2859 40.1931 25.5145 40.5299 24.9829Z" fill="#6A200F"/>
<path d="M30.0689 32.9575C30.6188 32.5956 32.7515 35.5479 31.4719 36.0795C30.2035 36.5998 29.5525 33.2969 30.0689 32.9575Z" fill="#6A200F"/>
<path d="M16.6783 33.9187C17.3405 33.8621 17.7783 37.4931 16.4202 37.3348C15.0508 37.1764 16.061 33.9752 16.6783 33.9187Z" fill="#6A200F"/>
<path d="M35.928 29.021C36.3882 28.5459 39.0932 30.9666 37.9708 31.7584C36.8371 32.5615 35.4902 29.4848 35.928 29.021Z" fill="#6A200F"/>
<path d="M34.9511 23.128C35.3888 22.6303 38.2061 24.9152 37.1174 25.7636C36.0286 26.6233 34.5358 23.6031 34.9511 23.128Z" fill="#6A200F"/>
<path d="M30.3943 26.6688C30.9443 26.3068 33.0207 29.3044 31.7412 29.8134C30.4729 30.3224 29.878 27.0081 30.3943 26.6688Z" fill="#6A200F"/>
<path d="M29.5973 19.7802C30.0912 19.3391 32.5942 21.986 31.3932 22.6873C30.2034 23.3886 29.1259 20.1988 29.5973 19.7802Z" fill="#6A200F"/>
<path d="M26.0056 21.9733C26.6005 21.6792 28.329 24.8804 27.0045 25.2424C25.6801 25.6043 25.4444 22.2448 26.0056 21.9733Z" fill="#6A200F"/>
<path d="M22.0883 23.1161C22.7281 22.9351 23.8393 26.4191 22.4587 26.5209C21.0893 26.6227 21.4934 23.2858 22.0883 23.1161Z" fill="#6A200F"/>
<path d="M25.0963 28.9874C25.7024 28.716 27.3074 31.985 25.9717 32.3017C24.6249 32.6071 24.5238 29.2476 25.0963 28.9874Z" fill="#6A200F"/>
<path d="M20.2251 29.2254C20.8761 29.1349 21.4934 32.7433 20.1128 32.6528C18.7435 32.5623 19.6078 29.3045 20.2251 29.2254Z" fill="#6A200F"/>
<path d="M22.6944 33.9987C23.3342 33.8403 24.3219 37.3582 22.9413 37.4147C21.572 37.4713 22.0883 34.1457 22.6944 33.9987Z" fill="#6A200F"/>
<path d="M23.4241 12.0772C23.9067 11.7378 25.1526 12.7785 25.4893 13.0273C26.3873 13.7174 27.2403 14.3508 28.2168 14.9051C29.126 15.4367 30.1025 15.9005 30.9667 16.5C31.2361 16.681 31.8759 17.1108 31.7861 17.518C31.6739 18.0497 30.9106 17.9139 30.5627 17.8121C29.6198 17.5406 28.9688 16.7828 28.1607 16.2738C27.3974 15.7874 26.6342 15.3236 25.8822 14.8033C25.2312 14.3508 24.7485 13.6382 24.0638 13.231C23.8057 13.0726 23.1659 13.0387 23.0312 12.7219C22.8965 12.4165 23.1435 12.179 23.4241 12.0772Z" fill="#FF698D"/>
<path d="M32.5606 18.1168L32.5157 18.0941C32.6055 18.0602 32.7065 18.0376 32.7851 18.0263C32.9085 18.0037 33.032 18.0037 33.1555 18.0489C33.7504 18.1959 34.1993 18.8294 34.6932 19.214C34.985 19.4289 35.5799 19.6664 35.5126 20.1302C35.434 20.6505 34.7381 20.6392 34.3452 20.5148C33.7953 20.3338 32.6055 19.7117 32.3024 19.214C32.0106 18.7163 32.2239 18.2977 32.5606 18.1168Z" fill="#FF698D"/>
</g>
<defs>
<clipPath id="clip0">
<rect width="43" height="37" fill="white" transform="matrix(-1 0 0 1 53 9)"/>
</clipPath>
</defs>
</svg>
