<svg width="55" height="56" viewBox="0 0 55 56" fill="none" xmlns="http://www.w3.org/2000/svg">
<path d="M54.5 28C54.5 43.1964 42.4032 55.5 27.5 55.5C12.5968 55.5 0.5 43.1964 0.5 28C0.5 12.8036 12.5968 0.5 27.5 0.5C42.4032 0.5 54.5 12.8036 54.5 28Z" fill="#F2929E" stroke="white"/>
<path d="M46.8966 27.1884C46.7827 26.8286 46.6362 26.4369 46.4979 26.0611C46.27 25.4375 45.9526 24.582 45.8957 24.1502C45.6027 21.7117 45.0494 17.1784 40.6063 15.7153C39.8169 15.4594 38.9462 15.3075 37.9697 15.2595C37.4815 14.8118 36.8874 14.444 36.212 14.1722C36.5457 13.9723 36.9363 13.7724 37.3838 13.5486C37.4978 13.4926 37.6117 13.4366 37.7256 13.3807C39.0032 12.733 39.6054 11.5817 39.4263 10.1266C39.2961 9.08722 38.5963 7.784 37.3431 7.37624C36.7166 7.16836 36.0574 7.21633 35.439 7.51216C34.5845 7.91992 33.8277 8.39963 33.1849 8.94331C32.9082 9.18316 32.6396 9.43101 32.3955 9.70285C32.127 9.99868 31.8991 10.2785 31.6957 10.5583C31.2807 11.134 30.9145 11.7976 30.6297 12.4772C30.3286 12.3173 30.0112 12.1894 29.6857 12.0774C29.1242 11.8935 28.5546 11.7896 27.9931 11.7816C27.4235 11.4538 26.8783 11.206 26.3168 11.0221C21.8737 9.55894 18.6594 12.861 16.9261 14.6279C16.6168 14.9397 15.8438 15.4354 15.2742 15.7952C14.908 16.0271 14.5662 16.243 14.2651 16.4588C13.7199 16.8506 13.3781 17.4502 13.3374 18.1138C13.2967 18.7774 13.5653 19.4171 14.0617 19.8648C14.1268 19.9288 14.2 19.9847 14.2732 20.0487C13.2805 21.4399 12.5399 23.1668 12.0517 25.1976C10.4974 31.7057 12.5562 37.7102 13.9233 40.7084C15.559 44.2982 18.3827 48.3039 21.0193 49.1753C23.0862 49.8549 27.277 48.7516 31.2156 46.4969C36.1144 43.6906 39.8658 39.597 41.7862 34.9678C42.543 33.1449 43.0231 31.5219 43.2429 30.0507C43.8125 30.0827 44.3821 30.0747 44.9599 30.0267C45.6353 29.9628 46.2375 29.611 46.6118 29.0593C47.0024 28.5076 47.1 27.8281 46.8966 27.1884Z" fill="#DBD7D6"/>
<path d="M46.4003 26.5564C46.2863 26.2046 46.1399 25.8049 46.0015 25.4291C45.7737 24.8055 45.4563 23.95 45.3993 23.5182C45.1064 21.0797 44.553 16.5464 40.11 15.0833C39.3206 14.8274 38.4499 14.6755 37.4734 14.6275C36.9851 14.1798 36.3911 13.812 35.7157 13.5402C36.0493 13.3403 36.4399 13.1404 36.8875 12.9165C37.0014 12.8606 37.1153 12.8046 37.2293 12.7486C38.5069 12.101 39.109 10.9497 38.93 9.49458C38.8079 8.4632 38.1 7.15997 36.8468 6.75222C36.2202 6.54434 35.5611 6.59231 34.9426 6.88813C34.0882 7.29589 33.3314 7.77561 32.6885 8.31928C32.4118 8.55914 32.1433 8.80699 31.8992 9.07883C31.6306 9.37465 31.4028 9.65449 31.1994 9.93432C30.7843 10.51 30.4182 11.1736 30.1333 11.8532C29.8322 11.6933 29.5149 11.5653 29.1894 11.4534C28.6279 11.2695 28.0583 11.1656 27.4968 11.1576C26.9271 10.8298 26.3819 10.5819 25.8204 10.398C21.3774 8.92692 18.163 12.221 16.4297 13.9959C16.1205 14.3077 15.3474 14.8034 14.7778 15.1632C14.4116 15.3951 14.0699 15.6109 13.7688 15.8268C13.2235 16.2186 12.8818 16.8182 12.8411 17.4818C12.8004 18.1454 13.0689 18.785 13.5653 19.2328C13.6304 19.2967 13.7037 19.3527 13.7769 19.4167C12.7923 20.8078 12.0436 22.5348 11.5554 24.5656C10.0011 31.0737 12.0599 37.0781 13.427 40.0764C15.0626 43.6662 17.8864 47.6718 20.5229 48.5433C22.5898 49.2229 26.7807 48.1196 30.7192 45.8649C35.618 43.0586 39.3694 38.965 41.2899 34.3358C42.0467 32.5129 42.5268 30.8898 42.7465 29.4187C43.3161 29.4507 43.8858 29.4427 44.4635 29.3947C45.1389 29.3308 45.7411 28.979 46.1154 28.4273C46.4979 27.8756 46.6037 27.196 46.4003 26.5564Z" fill="#F1F2F2"/>
<path d="M39.2231 33.5124C35.2601 43.0747 23.8106 47.3122 21.231 46.4647C18.2608 45.4893 11.3195 35.1594 13.7363 25.0694C16.1044 15.1554 24.1768 16.9223 30.581 19.033C38.8569 21.7674 43.0803 24.2219 39.2231 33.5124Z" fill="#F16562" stroke="#C9544D" stroke-miterlimit="10" stroke-linecap="round" stroke-linejoin="round"/>
<path d="M21.4266 21.5432C21.4022 22.5027 21.0035 23.9178 20.8814 24.8693C20.6454 26.7002 21.6707 26.6602 23.3064 26.0606C25.6093 25.2211 27.6518 24.0218 29.1247 22.3188C29.6293 21.7271 30.4674 21.943 30.8092 22.4147C31.0045 22.4627 31.1917 22.5586 31.3544 22.7026C31.387 22.7345 31.4276 22.7665 31.4602 22.7905C31.7857 21.959 33.2016 21.8071 33.2911 22.8545C33.3237 23.2862 33.3562 23.71 33.3725 24.1337C33.5271 24.3576 33.5922 24.6374 33.4864 24.9412C33.462 25.0052 33.4295 25.0691 33.3888 25.1331C33.3807 26.5722 33.1609 27.9714 32.5018 29.3146C32.5099 29.3146 32.5099 29.3146 32.5099 29.3066C33.9015 28.8829 34.6582 26.5722 35.6917 25.6528C36.0091 25.373 36.1474 25.349 36.4973 25.5968C37.5145 26.3164 38.8979 27.7475 39.9802 28.2912C40.0778 27.0759 39.9232 26.0286 39.5082 25.1411C38.3608 22.6786 35.2848 21.2554 30.3698 19.6404L30.2965 19.6164C26.2603 18.2892 21.6952 17.1699 18.432 18.9608C17.6915 19.3685 17.0405 19.9042 16.479 20.5838C17.4474 20.8317 18.4239 21.0236 19.4329 21.1275C19.9781 21.1835 21.4348 20.9996 21.4266 21.5432Z" fill="#E7E5E5"/>
<path d="M30.2801 41.5711C28.0992 43.2981 24.7303 45.0411 21.9961 45.9365C25.0965 46.0165 35.0568 41.883 38.6292 33.2721C38.8245 32.7924 38.9954 32.3366 39.15 31.8969C36.8959 35.6547 33.5026 39.0127 30.2801 41.5711Z" fill="#E7E5E5"/>
<path d="M30.9961 15.1633C30.9961 15.1633 31.0042 15.0354 31.0124 14.8115C31.0124 14.7076 31.0368 14.5317 31.0693 14.3478C31.0937 14.1559 31.1344 13.964 31.1833 13.7481C31.3623 12.9006 31.7936 11.7893 32.5015 10.8139C32.6724 10.566 32.8677 10.3342 33.0793 10.1103C33.2827 9.88644 33.5025 9.67856 33.7303 9.48667C34.3081 9.00696 34.9672 8.5992 35.6508 8.27939C36.6029 7.82366 37.2783 8.95099 37.3678 9.68655C37.4654 10.4781 37.205 11.0218 36.5133 11.3735C35.0811 12.1011 33.5757 12.7487 33.0305 14.2758C32.9735 14.4357 32.9166 14.5796 32.8921 14.6996C32.8596 14.8195 32.8189 14.9154 32.8026 15.0354C32.7619 15.2592 32.7375 15.3792 32.7375 15.3792L30.9961 15.1633Z" fill="#99A95D"/>
<path d="M16.6009 26.0284C16.4219 26.5481 15.9662 26.8679 15.5756 26.748C15.185 26.6201 15.0141 26.0924 15.1931 25.5727C15.3721 25.053 15.8278 24.7332 16.2184 24.8611C16.609 24.9811 16.7799 25.5087 16.6009 26.0284Z" fill="#C75851"/>
<path d="M23.6561 28.3477C23.4771 28.8674 23.0214 29.1952 22.6308 29.0672C22.2402 28.9393 22.0693 28.4116 22.2483 27.8919C22.4273 27.3722 22.883 27.0524 23.2736 27.1803C23.6642 27.2923 23.8351 27.828 23.6561 28.3477Z" fill="#C75851"/>
<path d="M30.7032 30.6658C30.5242 31.1855 30.0685 31.5053 29.6779 31.3854C29.2873 31.2575 29.1164 30.7298 29.2954 30.2101C29.4744 29.6904 29.9301 29.3706 30.3207 29.4985C30.7113 29.6105 30.8822 30.1381 30.7032 30.6658Z" fill="#C75851"/>
<path d="M37.7503 32.9853C37.5713 33.505 37.1156 33.8248 36.725 33.6969C36.3344 33.569 36.1635 33.0413 36.3425 32.5216C36.5216 32.0019 36.9773 31.6821 37.3679 31.81C37.7584 31.93 37.9293 32.4577 37.7503 32.9853Z" fill="#C75851"/>
<path d="M18.9117 31.2184C18.7327 31.7381 18.277 32.0579 17.8864 31.938C17.4958 31.8101 17.3249 31.2824 17.5039 30.7627C17.6829 30.243 18.1386 29.9232 18.5292 30.0511C18.9198 30.1631 19.0907 30.6908 18.9117 31.2184Z" fill="#C75851"/>
<path d="M21.6622 23.1432C21.4832 23.6629 21.0275 23.9827 20.6369 23.8547C20.2463 23.7268 20.0754 23.1991 20.2544 22.6794C20.4334 22.1597 20.8891 21.8399 21.2797 21.9599C21.6703 22.0958 21.8331 22.6235 21.6622 23.1432Z" fill="#C75851"/>
<path d="M35.7564 27.78C35.5774 28.2996 35.1217 28.6195 34.7311 28.4915C34.3405 28.3636 34.1696 27.8359 34.3486 27.3162C34.5277 26.7965 34.9834 26.4767 35.374 26.6047C35.7646 26.7326 35.9354 27.2523 35.7564 27.78Z" fill="#C75851"/>
<path d="M28.5714 25.4133C28.3924 25.933 27.9366 26.2528 27.546 26.1249C27.1554 25.997 26.9846 25.4693 27.1636 24.9496C27.3426 24.4299 27.7983 24.1021 28.1889 24.23C28.5795 24.366 28.7504 24.8936 28.5714 25.4133Z" fill="#C75851"/>
<path d="M23.2247 41.5636C23.0457 42.0833 22.59 42.4031 22.1994 42.2752C21.8088 42.1472 21.6379 41.6196 21.8169 41.0999C21.9959 40.5802 22.4516 40.2604 22.8422 40.3883C23.2328 40.5162 23.4037 41.0439 23.2247 41.5636Z" fill="#C75851"/>
<path d="M33.0062 35.847C32.8271 36.3667 32.3714 36.6865 31.9808 36.5666C31.5903 36.4387 31.4194 35.911 31.5984 35.3913C31.7774 34.8716 32.2331 34.5518 32.6237 34.6797C33.0143 34.7997 33.1852 35.3273 33.0062 35.847Z" fill="#C75851"/>
<path d="M20.8324 36.6225C20.6533 37.1422 20.1976 37.462 19.807 37.3421C19.4164 37.2141 19.2455 36.6865 19.4246 36.1668C19.6036 35.6471 20.0593 35.3193 20.4499 35.4472C20.8405 35.5751 21.0114 36.1028 20.8324 36.6225Z" fill="#C75851"/>
<path d="M27.8875 38.9406C27.7085 39.4603 27.2528 39.7801 26.8622 39.6522C26.4716 39.5242 26.3007 38.9966 26.4797 38.4769C26.6588 37.9572 27.1145 37.6374 27.5051 37.7573C27.8875 37.8932 28.0584 38.4209 27.8875 38.9406Z" fill="#C75851"/>
<g opacity="0.3">
<path opacity="0.3" d="M16.3081 35.1354C14.1842 29.163 15.2665 24.102 18.6192 18.8651C18.5622 18.8971 18.4971 18.9211 18.4401 18.9531C16.4465 20.0484 15.1119 22.0952 14.3714 25.2133C12.0359 34.9595 18.8307 45.0015 21.4348 45.857C21.8009 45.977 22.4275 45.961 23.225 45.8091C19.498 43.1386 17.9275 39.6927 16.3081 35.1354Z" fill="#A58D9A"/>
</g>
<path d="M27.9607 14.1554C23.7454 10.6695 21.1251 12.3565 18.041 15.5066C17.333 16.2342 15.9008 17.0177 15.0708 17.6013C18.4235 20.5995 23.3711 20.5676 26.0646 16.8498C26.8539 15.7784 27.2527 15.3307 27.9607 14.1554Z" fill="#B1BE67" stroke="#99A95D" stroke-miterlimit="10" stroke-linecap="round" stroke-linejoin="round"/>
<path d="M36.0904 16.8346C41.5914 16.5388 42.6492 19.4411 43.1782 23.7825C43.3002 24.7819 43.9594 26.253 44.2605 27.2124C39.7523 27.6202 35.8218 24.6699 35.9358 20.1127C35.9846 18.7774 35.9358 18.1858 36.0904 16.8346Z" fill="#B1BE67" stroke="#99A95D" stroke-miterlimit="10" stroke-linecap="round" stroke-linejoin="round"/>
<path d="M26.4063 13.5241C24.5428 14.3956 23.3059 16.1226 22.777 17.9935C22.3457 19.5205 22.7526 20.6079 22.4433 22.167C22.2969 22.9265 22.2643 24.0858 21.9062 25.1492C23.0862 24.9173 24.2417 24.3497 25.202 23.9099C26.5121 23.3103 27.6269 22.6867 28.6604 22.063C30.4018 21.0157 31.6632 18.2973 31.6062 16.3544C31.5736 15.411 30.41 14.6754 29.5311 14.0518C28.6523 13.4282 27.3096 13.1084 26.4063 13.5241Z" fill="#B1BE67" stroke="#99A95D" stroke-miterlimit="10" stroke-linecap="round" stroke-linejoin="round"/>
<path d="M36.4321 16.8662C37.3029 18.7051 37.132 20.8079 36.3264 22.5828C35.6672 24.03 34.65 24.6056 33.8688 26.0048C33.4945 26.6764 32.754 27.5958 32.3471 28.6352C31.5903 27.7158 31.0695 26.5485 30.6138 25.613C29.9954 24.3338 29.5478 23.1505 29.1572 22.0232C28.4981 20.1203 29.2874 17.242 30.5976 15.7869C31.2323 15.0753 32.6075 15.2432 33.6898 15.3152C34.764 15.3791 36.009 15.9788 36.4321 16.8662Z" fill="#B1BE67" stroke="#99A95D" stroke-miterlimit="10" stroke-linecap="round" stroke-linejoin="round"/>
<path opacity="0.3" d="M20.4336 15.2271C21.0683 14.6114 22.4924 13.588 23.534 13.676" stroke="#A58D9A" stroke-miterlimit="10" stroke-linecap="round" stroke-linejoin="round"/>
<path opacity="0.3" d="M24.9258 17.1937C25.4059 16.4582 26.5696 15.147 27.603 15.011" stroke="#A58D9A" stroke-miterlimit="10" stroke-linecap="round" stroke-linejoin="round"/>
<path opacity="0.3" d="M41.0948 21.5356C40.81 20.7041 40.0126 19.161 39.0442 18.7772" stroke="#A58D9A" stroke-miterlimit="10" stroke-linecap="round" stroke-linejoin="round"/>
<path d="M33.4456 34.359C33.2096 35.0466 32.4609 35.4144 31.7611 35.1825C31.0613 34.9507 30.687 34.2151 30.9229 33.5275C31.1589 32.8399 31.9076 32.4721 32.6074 32.704C33.2991 32.9279 33.6816 33.6714 33.4456 34.359Z" fill="#7C615B"/>
<path d="M32.4772 33.3514C32.3958 33.5992 32.1273 33.7272 31.875 33.6472C31.6309 33.5673 31.4925 33.3034 31.5739 33.0556C31.6553 32.8077 31.9238 32.6798 32.1761 32.7598C32.4284 32.8397 32.5586 33.1035 32.4772 33.3514Z" fill="#F1F2F2"/>
<path d="M20.5965 30.1301C20.3605 30.8177 19.6118 31.1855 18.912 30.9536C18.2122 30.7218 17.8378 29.9862 18.0738 29.2986C18.3098 28.611 19.0585 28.2433 19.7583 28.4751C20.45 28.707 20.8243 29.4505 20.5965 30.1301Z" fill="#7C615B"/>
<path d="M19.6281 29.1223C19.5467 29.3622 19.2782 29.4981 19.0259 29.4182C18.7818 29.3382 18.6434 29.0744 18.7248 28.8265C18.8062 28.5787 19.0747 28.4507 19.327 28.5307C19.5792 28.6186 19.7094 28.8825 19.6281 29.1223Z" fill="#F1F2F2"/>
<path d="M26.4879 32.7925C26.2601 33.4481 25.5359 33.8079 24.8686 33.584C24.1932 33.3601 23.8351 32.6486 24.063 31.993" stroke="#7C615B" stroke-miterlimit="10" stroke-linecap="round" stroke-linejoin="round"/>
</svg>
