<svg width="55" height="56" viewBox="0 0 55 56" fill="none" xmlns="http://www.w3.org/2000/svg">
<path d="M54.5 28C54.5 43.1964 42.4032 55.5 27.5 55.5C12.5968 55.5 0.5 43.1964 0.5 28C0.5 12.8036 12.5968 0.5 27.5 0.5C42.4032 0.5 54.5 12.8036 54.5 28Z" fill="#B3A2CE" stroke="white"/>
<path d="M42.1378 22.9004C42.7226 19.223 41.5092 15.4149 38.7172 12.1809C38.359 11.7666 37.957 11.3742 37.5258 11.0181C36.8095 10.4294 35.9836 9.93521 34.9311 9.46283C34.6022 9.31748 34.3317 9.19393 34.0686 9.09219C33.6301 8.91777 33.2281 8.77242 32.8553 8.66341C31.1158 8.15469 29.0546 8.67068 28.4626 10.6184C28.3164 10.6184 28.1775 10.6256 28.0313 10.6329C24.0844 10.8364 21.7675 13.2564 20.3641 15.066C18.1203 17.9585 17.404 21.7594 18.4492 25.2477C18.8877 26.7012 19.7721 28.2637 20.8173 29.4265C21.5555 30.2477 22.4984 30.989 23.5874 31.5995L16.4976 48.8815C16.0226 50.037 16.5853 51.3597 17.7475 51.8321C18.9096 52.3045 20.2399 51.7449 20.715 50.5894L27.8559 33.1693C30.8746 33.7579 33.8932 33.3655 36.0786 32.0646C39.2142 30.1969 41.5385 26.6867 42.1378 22.9004Z" fill="#DBD7D6"/>
<path d="M41.809 22.4205C42.3937 18.7432 41.1804 14.9351 38.3883 11.7011C38.0302 11.2795 37.6282 10.8944 37.1969 10.5383C36.4807 9.9496 35.6547 9.45542 34.5949 8.98303C34.266 8.83768 33.9956 8.71414 33.7325 8.61239C33.2939 8.43071 32.8919 8.29262 32.5191 8.18361C30.7796 7.67489 28.7184 8.19088 28.1264 10.1386C27.9802 10.1386 27.8413 10.1458 27.6952 10.1531C23.7483 10.3566 21.4313 12.7766 20.028 14.5862C17.7841 17.4787 17.0678 21.2796 18.1057 24.7679C18.5442 26.2214 19.4286 27.7839 20.4738 28.9467C21.212 29.7679 22.1549 30.5092 23.244 31.1197L16.1688 48.3944C15.6937 49.5499 16.2565 50.8726 17.4186 51.345C18.5808 51.8174 19.911 51.2578 20.3861 50.1023L27.5271 32.6822C30.5457 33.2708 33.5643 32.8784 35.7498 31.5775C38.8853 29.7098 41.2096 26.1996 41.809 22.4205Z" fill="#F1F2F2"/>
<path d="M17.9449 50.0733C17.4844 49.8916 17.2651 49.3684 17.4552 48.9105L25.4001 29.5282C25.5901 29.0704 26.1091 28.8524 26.5696 29.0413C27.03 29.2303 27.2493 29.7463 27.0593 30.2041L19.107 49.5864C18.9243 50.0443 18.398 50.2623 17.9449 50.0733Z" fill="#E8BC96" stroke="#C29475" stroke-miterlimit="10" stroke-linecap="round" stroke-linejoin="round"/>
<path d="M24.8518 30.4656C23.5215 29.8624 22.3375 29.0557 21.4604 28.0746C20.5614 27.0717 19.7647 25.6909 19.3773 24.39C18.4564 21.3086 19.085 17.9438 21.073 15.3856C22.4252 13.6487 24.3986 11.6356 27.7681 11.4612C30.2459 11.3376 32.6213 11.9118 34.127 12.9946C35.9908 14.3391 37.2626 16.1124 37.8181 18.1327C38.3955 20.2185 38.3443 22.6022 37.3137 24.6807C35.735 27.8566 32.731 29.5281 29.5077 29.2156C27.4611 29.0121 25.1442 28.2635 23.6019 26.9481C22.1694 25.7272 21.4238 23.8522 21.285 22.1298C21.2119 21.1996 21.2923 20.1385 21.6139 19.2446C21.8332 18.6342 22.3813 17.4205 22.9003 16.7882C25.3707 13.7359 28.8352 12.9147 32.3509 14.5862C34.2659 15.4946 35.2599 17.3406 35.5815 19.0121C35.8666 20.4728 35.6619 21.8536 35.121 22.9438C34.5436 24.1138 33.9297 25.0368 32.9137 25.6909C32.2924 26.0906 31.4007 26.3595 30.7356 26.4612C28.1628 26.8391 25.2903 25.5092 24.3329 23.3217C23.5581 21.5411 24.5667 18.5324 25.9847 17.4423C27.7462 16.0906 29.2592 16.4685 30.3482 16.919C31.9562 17.5949 33.4692 19.3173 33.2134 21.0324C33.0964 21.8246 32.6579 22.9147 31.7954 23.5397C31.313 23.8813 30.319 24.3609 29.2811 24.1792C28.2944 24.0048 26.8837 23.2781 26.5548 22.3188C26.3648 21.7592 26.2624 20.2693 27.8047 19.1865C28.3236 18.8231 29.4127 18.9321 29.7781 19.4481C30.0047 19.7752 30.0485 20.1894 29.8951 20.5528C29.7854 20.8071 28.9741 21.2504 29.0691 21.5484C29.2592 22.1153 30.1289 21.5702 30.3701 21.4031C30.9402 21.0106 31.0937 20.5455 30.6406 19.9714C30.3555 19.608 29.8731 19.3536 29.4492 19.1792C28.8791 18.9394 28.4917 18.7795 27.4904 19.4554C26.6791 20.0077 26.2551 21.6284 26.5621 22.326C27.0957 23.5542 28.8937 24.4263 30.4067 24.2083C30.7429 24.1574 31.1376 24.0048 31.4811 23.7795C32.1389 23.358 32.519 22.9074 32.9064 22.1153C33.2207 21.4757 33.4107 20.4365 33.0233 19.5353C32.4825 18.2781 31.8246 17.7039 30.9622 17.2388C29.0764 16.2214 26.6498 16.0179 25.0857 18.5833C24.7422 19.1429 24.5741 19.6153 24.4059 20.0804C24.1647 20.749 24.1063 21.3231 24.0917 22.0135C24.0697 23.1182 24.596 24.1284 25.5096 24.906C26.701 25.9234 28.0678 26.5339 29.6685 26.5339C31.927 26.5339 33.7323 25.7345 34.8725 23.4525C36.4513 20.2839 35.7715 17.0281 32.7894 14.8696C31.503 13.9394 29.42 13.6923 27.8997 13.765C26.0066 14.1865 24.4863 14.7751 22.9076 16.8028C21.3727 18.7795 20.883 21.374 21.592 23.7504C22.2644 25.9961 23.8797 27.6603 26.1455 28.438C27.0591 28.7505 27.907 28.9757 28.7329 29.1211C30.1874 29.3755 32.2486 29.3246 33.8858 28.3507C36.0931 27.0353 37.6938 24.6879 38.1177 21.9772C38.5344 19.3609 37.6207 16.6429 35.5303 14.2228C34.4413 12.9583 32.8918 12.3115 30.6406 11.6501C30.0339 11.4685 29.2007 11.156 29.3834 10.5528C29.7489 9.32456 31.0864 9.14288 32.1462 9.45538C32.7967 9.64433 33.4326 9.91323 34.0539 10.1894C34.8725 10.56 35.6619 10.9961 36.3563 11.5629C36.7217 11.8609 37.0725 12.2025 37.3795 12.5658C39.9085 15.5092 41.0194 18.9394 40.5005 22.2316C39.9596 25.64 37.8765 28.7941 35.0699 30.4656C32.2413 32.1371 28.097 31.9336 24.8518 30.4656Z" fill="#AEA6D2" stroke="#988DB9" stroke-miterlimit="10" stroke-linecap="round" stroke-linejoin="round"/>
<path d="M31.0061 9.96387C36.9484 12.6674 40.7491 17.4275 39.0241 23.8447C38.6148 25.3636 37.9497 27.0206 36.7949 28.1325C35.4719 29.4043 33.4766 30.1165 31.7078 30.2836C30.2313 30.4217 29.3177 30.1456 27.834 30.1238C25.0127 30.0801 22.4911 28.7575 21.1096 25.9886C20.6857 25.1383 20.1302 24.1572 20.2326 23.2415C20.3422 22.2531 20.2545 21.2647 20.3276 20.2836C20.6126 16.4755 23.2731 13.1688 27.0811 12.3331C30.1583 11.6572 33.25 12.9144 35.2819 15.24C37.153 17.3767 37.4235 19.8912 36.6633 22.5365C36.1955 24.1645 35.6839 25.8214 34.2952 26.9043C32.8188 28.0525 30.9769 28.6339 29.1204 28.3287C26.5257 27.8999 23.719 26.4028 22.9077 23.7647C22.1329 21.2502 22.8711 16.4028 25.8532 15.5089C27.6439 14.9711 30.6699 15.7269 32.2706 16.4973C34.4998 17.5656 34.8945 21.2066 33.5935 23.2342C32.2998 25.2546 30.4872 26.0249 28.331 25.3127C25.5535 24.397 24.406 20.8578 26.4964 18.6267C28.2067 16.8025 31.0061 17.8708 31.5324 19.9929C31.8247 21.163 30.3702 23.663 28.8719 22.7618C28.0752 22.2822 27.5416 21.2938 27.8998 20.4145" stroke="#F7A8B5" stroke-miterlimit="10" stroke-linecap="round" stroke-linejoin="round"/>
<g opacity="0.3">
<g opacity="0.3">
<g opacity="0.3">
<g opacity="0.3">
<path opacity="0.3" d="M20.4446 25.5234C19.9476 24.3751 19.7648 23.3141 19.7283 22.0568C19.6991 20.9376 20.1011 18.9391 20.5469 17.9144C22.2426 14.0117 26.248 11.6426 30.6334 11.8315C29.7198 11.6644 28.7477 11.6062 27.7756 11.6571C24.4865 11.8242 22.5423 13.8083 21.2194 15.5088C19.2678 18.0234 18.6466 21.3228 19.5529 24.3533C19.9256 25.6033 20.6931 26.9551 21.5994 27.9652C21.8991 28.2995 22.2499 28.6193 22.63 28.9245C21.8187 27.9144 20.9635 26.7225 20.4446 25.5234Z" fill="#A7A9AC"/>
<path opacity="0.3" d="M24.7275 23.6847C24.9541 24.0626 25.2392 24.4187 25.5973 24.7385L25.6119 24.753C25.6777 24.8112 25.7435 24.862 25.8093 24.9129C25.4073 24.5495 25.0564 24.128 24.7275 23.6847Z" fill="#A7A9AC"/>
<path opacity="0.3" d="M27.1982 22.9292C27.286 23.0237 27.381 23.1109 27.4906 23.1908C27.6879 23.3434 27.9218 23.4815 28.1703 23.6051C27.8195 23.4161 27.4906 23.1836 27.1982 22.9292Z" fill="#A7A9AC"/>
<path opacity="0.3" d="M31.9857 23.6267C31.8615 23.7285 31.7299 23.8229 31.5764 23.9247C31.211 24.1572 30.7943 24.3244 30.4289 24.3753C30.0927 24.4261 29.7345 24.4261 29.3764 24.3753C29.3398 24.368 29.3033 24.368 29.2667 24.3607C28.9525 24.3099 28.6309 24.2154 28.3239 24.0918C27.9365 23.932 27.5784 23.7285 27.2714 23.4814C26.9278 23.2197 26.672 22.9363 26.5112 22.6383C26.6209 23.0962 26.7524 23.554 27.1106 23.8447C27.593 24.2372 28.1485 24.4552 28.7405 24.6296C29.9976 24.993 31.4083 24.7168 32.4827 23.9392C33.6376 23.0962 33.9738 21.541 33.6887 20.3346C33.5425 19.7168 33.2429 19.2372 32.8701 18.8229C32.914 18.8956 32.9505 18.9683 32.9944 19.041C33.0748 19.1863 33.1479 19.3462 33.2063 19.4988C33.2648 19.6442 33.316 19.7968 33.3525 19.9639C33.4402 20.3346 33.4548 20.7052 33.4037 21.0686C33.3964 21.134 33.3817 21.1921 33.3671 21.2575C33.3087 21.5773 33.2136 21.8971 33.0821 22.1732C32.8116 22.7692 32.4316 23.2779 31.9857 23.6267Z" fill="#A7A9AC"/>
<path opacity="0.3" d="M31.1304 26.5702C31.0061 26.5993 30.8818 26.6211 30.7576 26.6356C30.3921 26.6865 30.0121 26.7083 29.6247 26.701C28.4991 26.701 27.4174 26.3958 26.416 25.7853C26.0213 25.56 25.6632 25.2984 25.3489 25.0077C24.8153 24.5498 24.4206 24.0266 24.1794 23.4597C24.4426 24.0775 24.5303 24.7751 24.9907 25.2984C25.7582 26.1777 27.0446 26.6429 28.141 26.9554C29.7782 27.4132 31.7809 27.3696 33.1403 26.2213C33.557 25.8725 34.0467 25.3929 34.3171 24.9205C34.5071 24.5934 34.6753 24.2373 34.8214 23.874C33.9736 25.3783 32.7676 26.2577 31.1304 26.5702Z" fill="#A7A9AC"/>
<path opacity="0.3" d="M30.2242 17.0789C29.4275 16.7591 28.6601 16.6356 27.9584 16.73C27.359 16.8318 26.7524 17.1007 26.1604 17.544C26.1165 17.5803 26.0726 17.6239 26.0288 17.6675C26.0069 17.7184 25.9703 17.762 25.9338 17.7983C25.8972 17.8419 25.8534 17.871 25.8022 17.9001C25.5976 18.1254 25.4075 18.3797 25.2321 18.6704C24.8959 19.2228 24.7278 19.6879 24.567 20.1312C24.4793 20.3855 24.4135 20.6254 24.3696 20.8652C24.3477 21.1632 24.3477 21.4539 24.3769 21.7518C24.4793 21.3957 24.5231 21.0251 24.6328 20.6835C24.8082 20.1021 25.0421 19.4989 25.3783 18.9902C26.0288 18.0091 26.9424 17.4277 28.0899 17.1806C28.9086 17.0062 30.0195 17.0498 30.8308 17.3623C30.6262 17.2606 30.4215 17.1588 30.2242 17.0789Z" fill="#A7A9AC"/>
<path opacity="0.3" d="M26.4598 14.9932C28.5868 14.0775 30.9184 14.1066 32.8114 15.1095C32.7602 15.0732 32.7091 15.0369 32.6652 14.9932C32.541 14.906 32.4094 14.8188 32.2632 14.7389C31.7516 14.4991 31.218 14.3028 30.6991 14.1648C30.0486 14.0121 29.3104 13.9249 28.5722 13.9177C28.0751 13.9322 27.5854 14.0049 27.1103 14.1284C26.8765 14.1938 26.6499 14.2665 26.4233 14.3464C25.1661 14.8188 24.0186 15.6837 23.0319 16.9046C22.988 16.9627 22.9369 17.0281 22.893 17.0935C22.4179 17.7621 21.9575 18.8087 21.782 19.3101C21.5116 20.1822 21.402 21.0979 21.4531 22.0063C21.4531 22.0427 21.4604 22.079 21.4604 22.1226C21.4677 22.1808 21.4751 22.2462 21.4824 22.3043C21.7747 20.8799 22.0671 19.579 22.8126 18.2273C23.6678 16.6575 24.9322 15.6546 26.4598 14.9932Z" fill="#A7A9AC"/>
<path opacity="0.3" d="M35.8594 11.7589C37.1896 13.0016 38.3298 14.4478 39.1411 16.083C39.7551 17.3112 40.2375 18.6484 40.4202 20.0147C40.2741 17.4711 39.185 14.9275 37.2408 12.6746C36.181 11.4391 34.8215 10.6687 33.0819 9.9638C32.5557 9.75304 32.0733 9.64403 31.4447 9.46234C31.0427 9.48414 30.5091 9.56409 30.2021 9.73124C31.4593 9.56409 34.3098 10.3054 35.8594 11.7589Z" fill="#A7A9AC"/>
<path opacity="0.3" d="M37.6573 25.2468C37.9131 24.6218 37.9278 24.0695 37.9351 23.6262C37.8108 24.0186 37.6573 24.4038 37.4746 24.7744C36.656 26.4096 35.4427 27.7032 33.9663 28.5099C33.3815 28.8587 32.7018 29.1131 31.9563 29.2657C31.1596 29.4401 30.3263 29.491 29.4931 29.4111C28.3967 29.302 27.2858 29.0477 26.2698 28.6698C26.2113 28.648 26.1529 28.6334 26.0871 28.6044C26.0359 28.5898 25.9848 28.568 25.9336 28.5462C27.4831 29.5927 28.9011 29.8907 30.0851 29.9416C31.7589 30.0142 32.9137 29.5201 34.3902 28.7642C36.1078 27.8849 36.7583 26.9983 37.6573 25.2468Z" fill="#A7A9AC"/>
</g>
</g>
</g>
</g>
<path d="M36.0493 16.2937C35.8885 16.6861 35.4354 16.8751 35.0407 16.7152C34.646 16.5553 34.4559 16.1047 34.6167 15.7123C34.7775 15.3199 35.2307 15.1309 35.6254 15.2908C36.0201 15.4507 36.2101 15.9013 36.0493 16.2937Z" fill="#7C615B"/>
<path d="M35.5231 15.6687C35.4647 15.8068 35.3039 15.8794 35.165 15.8213C35.0261 15.7632 34.953 15.6033 35.0115 15.4652C35.07 15.3271 35.2308 15.2544 35.3696 15.3126C35.5158 15.3635 35.5816 15.5233 35.5231 15.6687Z" fill="#F1F2F2"/>
<path d="M28.7329 13.3289C28.5721 13.7213 28.119 13.9103 27.7243 13.7504C27.3296 13.5905 27.1395 13.1399 27.3003 12.7475C27.4611 12.355 27.9143 12.1661 28.309 12.326C28.7037 12.4858 28.8937 12.9364 28.7329 13.3289Z" fill="#7C615B"/>
<path d="M28.2067 12.7035C28.1482 12.8416 27.9874 12.9142 27.8486 12.8561C27.7097 12.798 27.6366 12.6381 27.6951 12.5C27.7536 12.3619 27.9144 12.2892 28.0532 12.3474C28.1994 12.3982 28.2652 12.5581 28.2067 12.7035Z" fill="#F1F2F2"/>
<path d="M32.0586 15.1162C31.9051 15.4941 31.4665 15.6758 31.0864 15.5232C30.7064 15.3706 30.5236 14.9345 30.6771 14.5566" stroke="#7C615B" stroke-miterlimit="10" stroke-linecap="round" stroke-linejoin="round"/>
<path d="M38.9949 22.4787C38.9876 22.5005 38.9584 22.4933 38.9438 22.5005C38.8999 22.5151 38.8487 22.5369 38.8049 22.5659C38.7757 22.5877 38.7464 22.6168 38.7172 22.6459C38.7026 22.6604 38.6879 22.6749 38.6733 22.6967C38.6514 22.7186 38.6295 22.7331 38.6295 22.6967C38.6295 22.6677 38.6368 22.6386 38.6368 22.6168C38.6368 22.5732 38.6368 22.5296 38.6222 22.486C38.6149 22.4497 38.6002 22.4206 38.5856 22.3843C38.5783 22.3624 38.5345 22.3188 38.5783 22.3043C38.6295 22.2898 38.6806 22.2752 38.7245 22.2462C38.761 22.2244 38.7903 22.1953 38.8268 22.159C38.8487 22.1444 38.8853 22.0645 38.9072 22.0718C38.9291 22.079 38.9145 22.1662 38.9145 22.188C38.9145 22.2244 38.9145 22.2607 38.9218 22.3043C38.9291 22.3406 38.9291 22.3625 38.9438 22.3988C38.9511 22.3988 38.9949 22.4642 38.9949 22.4787Z" fill="#F1F2F2"/>
<path d="M37.8035 20.9672C37.7962 21.0035 37.7377 20.9963 37.7085 21.0035C37.6134 21.0326 37.5111 21.0762 37.4307 21.1344C37.3649 21.178 37.3065 21.2361 37.248 21.2942C37.2187 21.3233 37.1895 21.3596 37.1603 21.3887C37.1237 21.4323 37.0726 21.4687 37.0653 21.3814C37.0653 21.3233 37.0799 21.2724 37.0799 21.2143C37.0799 21.1271 37.0726 21.0326 37.0506 20.9454C37.036 20.88 37.0068 20.8073 36.9775 20.7492C36.9556 20.6983 36.8752 20.6184 36.9629 20.5893C37.0579 20.5602 37.1676 20.5312 37.2553 20.473C37.3284 20.4221 37.3942 20.364 37.4526 20.3059C37.4892 20.2695 37.5696 20.1169 37.6134 20.1387C37.6646 20.1605 37.6354 20.3204 37.6354 20.3713C37.6354 20.4439 37.6427 20.5239 37.65 20.5966C37.6573 20.6692 37.6646 20.7201 37.6938 20.7855C37.7231 20.8073 37.8108 20.9381 37.8035 20.9672C37.8035 20.9599 37.8035 20.9672 37.8035 20.9672Z" fill="#F1F2F2"/>
<path d="M37.4453 23.3071C37.438 23.3434 37.3795 23.3362 37.3503 23.3434C37.2553 23.3725 37.1529 23.4161 37.0725 23.4743C37.0068 23.5179 36.9483 23.576 36.8898 23.6341C36.8606 23.6632 36.8313 23.6995 36.8021 23.7286C36.7656 23.7722 36.7144 23.8086 36.7071 23.7214C36.7071 23.6632 36.7217 23.6123 36.7217 23.5542C36.7217 23.467 36.7144 23.3725 36.6925 23.2853C36.6779 23.2199 36.6486 23.1472 36.6194 23.0891C36.5975 23.0382 36.5171 22.9583 36.6048 22.9292C36.6998 22.9001 36.8094 22.8711 36.8971 22.8129C36.9702 22.7621 37.036 22.7039 37.1018 22.6458C37.1383 22.6094 37.2187 22.4568 37.2626 22.4786C37.3137 22.5004 37.2845 22.6603 37.2845 22.7112C37.2845 22.7839 37.2918 22.8638 37.2991 22.9365C37.3064 23.0091 37.3137 23.06 37.343 23.1254C37.3576 23.1472 37.4453 23.278 37.4453 23.3071Z" fill="#F1F2F2"/>
<path d="M23.39 21.5849C23.3826 21.6067 23.3534 21.5994 23.3388 21.6067C23.2876 21.6212 23.2438 21.643 23.1999 21.6721C23.1707 21.6939 23.1414 21.723 23.1122 21.752C23.0976 21.7666 23.083 21.7811 23.0684 21.8029C23.0464 21.8247 23.0245 21.8392 23.0245 21.8029C23.0245 21.7738 23.0318 21.7448 23.0318 21.7157C23.0318 21.6721 23.0318 21.6285 23.0172 21.5849C23.0099 21.5485 22.9953 21.5195 22.9806 21.4831C22.9733 21.4613 22.9295 21.4177 22.9733 21.4032C23.0245 21.3887 23.0757 21.3741 23.1195 21.3451C23.1561 21.3233 23.1853 21.2942 23.2218 21.2578C23.2365 21.2433 23.2803 21.1634 23.3022 21.1779C23.3242 21.1852 23.3096 21.2724 23.3096 21.2942C23.3096 21.3305 23.3096 21.3669 23.3169 21.4032C23.3242 21.4395 23.3242 21.4613 23.3388 21.4977C23.3534 21.5049 23.3973 21.5703 23.39 21.5849Z" fill="#F1F2F2"/>
<path d="M21.8406 22.4132C21.8333 22.4495 21.7748 22.4423 21.7456 22.4495C21.6505 22.4786 21.5482 22.5222 21.4678 22.5803C21.402 22.6239 21.3436 22.6821 21.2851 22.7402C21.2558 22.7693 21.2266 22.8056 21.1974 22.8347C21.1608 22.8783 21.1097 22.9146 21.1024 22.8274C21.1024 22.7693 21.117 22.7184 21.117 22.6603C21.117 22.5731 21.1097 22.4786 21.0877 22.3914C21.0731 22.326 21.0439 22.2533 21.0146 22.1952C20.9927 22.1443 20.9123 22.0571 21 22.0353C21.095 22.0062 21.2047 21.9771 21.2924 21.919C21.3655 21.8681 21.4313 21.81 21.4897 21.7519C21.5263 21.7155 21.6067 21.5629 21.6505 21.5847C21.7017 21.6065 21.6725 21.7664 21.6725 21.8173C21.6725 21.8899 21.6798 21.9699 21.6871 22.0426C21.6944 22.1152 21.7017 22.1661 21.7309 22.2315C21.7602 22.2606 21.8479 22.3841 21.8406 22.4132Z" fill="#F1F2F2"/>
<path d="M24.0332 23.7501C24.0186 23.8009 23.9455 23.7864 23.909 23.8009C23.7847 23.8373 23.6605 23.8954 23.5508 23.9681C23.4705 24.0262 23.3901 24.0989 23.317 24.1716C23.2804 24.2079 23.2439 24.2515 23.2073 24.2951C23.1562 24.3533 23.0904 24.3969 23.0904 24.2878C23.0904 24.2152 23.1123 24.1425 23.105 24.0698C23.0977 23.9535 23.0977 23.8373 23.0685 23.7283C23.0465 23.641 23.0173 23.5538 22.9807 23.4739C22.9515 23.4085 22.8492 23.2995 22.9661 23.2631C23.0904 23.2268 23.2293 23.1905 23.3389 23.1105C23.4339 23.0451 23.5143 22.9724 23.5947 22.8925C23.6386 22.8489 23.7409 22.6527 23.7994 22.6745C23.8651 22.7035 23.8213 22.907 23.8286 22.9724C23.8359 23.0669 23.8359 23.1687 23.8505 23.2631C23.8651 23.3576 23.8724 23.4158 23.9017 23.503C23.9236 23.5393 24.0406 23.7065 24.0332 23.7501C24.0332 23.7428 24.0332 23.7428 24.0332 23.7501Z" fill="#F1F2F2"/>
</svg>
