<svg width="55" height="56" viewBox="0 0 55 56" fill="none" xmlns="http://www.w3.org/2000/svg">
<path d="M54.5 28C54.5 43.1964 42.4032 55.5 27.5 55.5C12.5968 55.5 0.5 43.1964 0.5 28C0.5 12.8036 12.5968 0.5 27.5 0.5C42.4032 0.5 54.5 12.8036 54.5 28Z" fill="#83C379" stroke="white"/>
<g clip-path="url(#clip0)">
<path d="M27.3182 7.24564C25.8417 7.7503 24.5684 9.05968 23.837 10.8192C23.2274 12.2786 22.8075 13.9426 22.5637 15.9476L22.5501 16.1112C22.5501 16.1658 22.5366 16.2204 22.5366 16.2613C22.4959 16.575 22.4689 16.9023 22.4553 17.2297C22.4553 17.3251 22.4418 17.407 22.4418 17.5025C22.4147 17.8571 22.4147 18.2253 22.4011 18.58C22.374 18.5527 22.3469 18.5391 22.3063 18.5118C22.1167 18.1708 21.8593 17.8298 21.5207 17.5297C20.6537 16.7114 19.5701 16.3022 18.5542 16.384C18.3104 16.3977 18.0665 16.4522 17.8498 16.5341C16.7933 16.875 16.0754 17.8162 15.9399 18.8937C15.8586 18.9346 15.7774 18.9755 15.6961 19.0164C15.1001 19.3574 14.6802 19.8757 14.477 20.5031C14.3009 20.9941 14.2061 21.6761 14.4634 22.5763C14.8292 23.8039 15.6961 24.7859 16.7662 25.1951C16.8068 25.2087 16.8474 25.2223 16.8881 25.236C16.6036 25.2905 16.3327 25.3587 16.0483 25.4406C15.967 25.4679 15.8722 25.4815 15.7909 25.5088C15.4793 25.5906 15.1678 25.6861 14.8698 25.7816C14.8156 25.7952 14.775 25.8088 14.7208 25.8225L14.5583 25.877C14.4499 25.918 14.3415 25.9452 14.2332 25.9862C12.4858 26.5863 11.0364 27.2819 9.81731 28.1139C7.46038 29.7506 6.45801 32.2466 7.29784 34.4699C7.81257 35.8611 8.89621 36.6794 9.65476 37.1705C9.81731 37.2796 9.97986 37.375 10.1289 37.4705C10.6165 37.7842 11.0364 38.0434 11.3886 38.3434C11.673 38.5889 11.9711 38.8754 12.2691 39.1754C13.1766 40.0484 14.2061 41.0577 15.6148 41.6851C17.2809 42.4353 19.2044 42.5716 21.0059 42.067C21.1549 42.0261 21.3175 41.9715 21.4665 41.917C21.6426 41.8488 21.8187 41.7806 21.9948 41.7124C22.5501 42.9808 23.2545 43.9901 24.1214 44.7949C25.8959 46.4452 28.5237 47.059 30.6775 46.3088C31.8424 45.9133 32.7906 45.1495 33.4543 44.0993C34.2535 42.8308 34.5244 41.235 34.267 39.3528C34.0367 37.6342 33.4137 36.0247 32.9125 34.8108C32.7228 34.3471 32.5061 33.8834 32.2894 33.4196C32.6686 33.1468 32.9802 32.7786 33.1563 32.3285C33.2105 32.2057 33.2511 32.0693 33.2782 31.9329C33.8065 32.0693 34.3077 32.1921 34.8224 32.3012C36.1092 32.574 37.8024 32.874 39.5091 32.7649C40.349 32.7104 41.1211 32.574 41.7983 32.3285C42.6382 32.042 43.3696 31.6056 43.9656 31.0327C45.1441 29.9143 45.7266 28.3867 45.6317 26.7227C45.5098 24.7859 44.4397 22.8491 42.8549 21.6761C41.9067 20.9805 40.7689 20.4758 39.4414 20.1621C39.5091 19.8212 39.5633 19.4665 39.5904 19.1119C39.7259 17.2297 39.2247 15.3611 38.1817 13.8607C37.3012 12.5923 36.1228 11.7739 35.0933 11.0374C34.7411 10.7919 34.416 10.56 34.118 10.3281C33.7523 10.0417 33.4137 9.67345 33.0208 9.25063C32.8854 9.11423 32.7635 8.97784 32.628 8.84145C31.9914 8.22767 30.989 7.31384 29.5396 7.06833C28.7811 6.93193 28.0361 7.00013 27.3182 7.24564Z" fill="white"/>
<path d="M26.2211 26.7364C26.194 26.8182 26.465 27.1047 26.5056 27.1319C29.3502 28.3595 32.2354 29.5188 35.2696 30.1599C36.6106 30.4463 38.0058 30.6645 39.3739 30.5827C40.4711 30.5145 41.636 30.2417 42.4623 29.4643C44.2774 27.7457 43.3563 24.8269 41.5547 23.5039C40.4169 22.6719 39.0081 22.3036 37.64 22.1399C36.2584 21.9763 34.8497 21.9899 33.468 22.1808C30.6641 22.6037 27.2641 23.9403 26.2211 26.7364Z" fill="#61BC53"/>
<path d="M25.8689 11.6787C25.2729 13.0972 24.9478 14.6794 24.7582 16.207C24.7582 16.2615 24.7446 16.3024 24.7446 16.357C24.7446 16.4116 24.7311 16.4525 24.7311 16.507C24.704 16.7935 24.6769 17.0935 24.6498 17.38C24.6498 17.4618 24.6363 17.53 24.6363 17.6118C24.4737 20.3806 24.8665 23.1767 25.8147 25.7682C25.9231 26.0682 26.3159 27.2549 26.6139 27.1321C28.3477 26.4501 30.068 25.7409 31.7748 25.018C32.452 24.7316 33.1293 24.4315 33.7795 24.0633C33.8472 24.0223 33.915 23.9814 33.9962 23.9405C34.2401 23.7905 34.4839 23.6404 34.7141 23.4768C34.7683 23.4358 34.8361 23.3949 34.8902 23.354C35.1611 23.1494 35.4185 22.9312 35.6623 22.6857C36.6647 21.69 37.2878 20.4079 37.3962 18.9894C37.491 17.6527 37.1523 16.2752 36.3802 15.184C35.4592 13.861 33.9962 13.0972 32.7636 12.1288C32.1134 11.6241 31.5987 11.0104 31.0433 10.4239C30.5286 9.87829 29.9326 9.38727 29.174 9.25088C27.5892 8.97809 26.4107 10.3693 25.8689 11.6787Z" fill="#61BC53"/>
<path d="M24.6228 17.5983C25.2594 17.7756 25.8961 17.9529 26.5192 18.1848C27.2913 18.4849 28.0363 18.8531 28.7542 19.2759C30.1494 20.1079 31.4227 21.1855 32.5063 22.3994C32.9669 22.9177 33.3868 23.4769 33.766 24.0497C33.8338 24.0088 33.9015 23.9679 33.9828 23.927C32.276 21.3218 29.8107 19.2896 26.9255 18.1029C26.1941 17.8029 25.422 17.5165 24.6363 17.3528C24.6363 17.4483 24.6363 17.5301 24.6228 17.5983Z" fill="#FCD323"/>
<path d="M32.0999 39.6666C31.9103 38.3027 31.4362 36.9524 30.8944 35.6976C29.6753 32.8197 28.0092 30.2009 26.2618 27.6367C26.2212 27.5958 26.0451 27.4458 25.8554 27.4048C23.5527 29.2734 22.6316 32.5878 22.7806 35.4384C22.8483 36.8297 23.1192 38.2345 23.5391 39.5712C23.9591 40.8942 24.5822 42.2172 25.6252 43.1856C27.2642 44.6996 30.2713 45.0542 31.5987 42.9401C32.2083 41.9717 32.2489 40.7714 32.0999 39.6666Z" fill="#61BC53"/>
<path d="M16.6174 27.5963C16.5361 27.6099 16.4684 27.6372 16.3871 27.6508C16.1026 27.7327 15.8317 27.8145 15.5473 27.8963C15.5066 27.91 15.4525 27.9236 15.4118 27.9373C15.3712 27.9509 15.317 27.9645 15.2764 27.9782C13.8134 28.4556 12.3505 29.083 11.0772 29.9559C9.91232 30.747 8.78804 32.1791 9.35695 33.6795C9.62786 34.4023 10.2239 34.8934 10.8605 35.2889C11.5378 35.7254 12.2422 36.1209 12.8517 36.6665C14.0302 37.7031 15.0596 38.9988 16.5226 39.6535C17.7417 40.1991 19.1504 40.2809 20.4372 39.9263C21.7918 39.5444 22.9431 38.6987 23.7152 37.5121C23.9049 37.2257 24.0674 36.9256 24.2164 36.6256C24.2435 36.5574 24.2706 36.4892 24.3112 36.4346C24.4332 36.1755 24.528 35.9027 24.6228 35.6299C24.6499 35.548 24.677 35.4799 24.7041 35.398C24.9343 34.6888 25.0969 33.9522 25.2459 33.2294C25.6252 31.4017 25.9773 29.5604 26.316 27.719C26.3702 27.4053 25.1375 27.2417 24.826 27.1871C22.0762 26.7506 19.2858 26.9007 16.6174 27.5963Z" fill="#61BC53"/>
<path d="M27.264 12.4017C27.0608 13.6975 27.1421 15.9889 27.4265 15.6479C28.0361 14.9659 28.6863 14.2976 29.2416 13.5747C29.6751 13.0019 30.0273 12.2653 29.8241 11.5288C29.648 10.9287 29.0385 10.4376 28.4018 10.5877C27.5891 10.7786 27.3724 11.6925 27.264 12.4017Z" fill="#99D0D6"/>
<path d="M33.17 18.2665C32.9262 18.4302 32.6282 18.6348 32.4792 18.8939C32.4115 19.0303 33.5493 19.4395 34.5788 19.3031C35.0664 19.2349 35.7301 18.853 35.4863 18.2529C35.256 17.68 34.5517 17.7073 34.064 17.8574C33.7389 17.9528 33.4409 18.0892 33.17 18.2665Z" fill="#99D0D6"/>
<path d="M31.3682 14.7341C31.138 14.8978 30.9212 15.0887 30.7181 15.2933C30.2711 15.757 29.4583 16.9437 29.8105 16.9437C30.5691 16.93 31.3276 16.78 32.032 16.4526C32.5873 16.1935 33.1969 15.7161 33.0343 15.0069C33.0073 14.8841 32.9531 14.775 32.8853 14.6932C32.8312 14.4886 32.6415 14.3522 32.4383 14.2976C32.0997 14.2021 31.7882 14.3795 31.5308 14.584C31.4766 14.6386 31.4224 14.6795 31.3682 14.7341Z" fill="#99D0D6"/>
<path d="M10.5082 32.6701C10.4811 33.3248 11.0907 33.8431 11.7002 33.8976C12.4588 33.9658 13.1089 33.4748 13.583 32.9292C14.179 32.2336 14.7073 31.4698 15.2491 30.7469C15.52 30.3923 13.2715 30.7606 12.0524 31.2107C11.3887 31.4425 10.5353 31.8381 10.5082 32.6701Z" fill="#99D0D6"/>
<path d="M15.1138 34.8112C15.0731 34.8794 15.046 34.934 15.0054 35.0022C14.8564 35.2886 14.748 35.6432 14.9106 35.9569C15.0054 36.1479 15.1815 36.3116 15.3847 36.3252C15.4795 36.3661 15.5879 36.407 15.7233 36.407C16.4412 36.4343 16.7934 35.7387 16.9289 35.1386C17.105 34.3884 17.1185 33.611 16.983 32.8608C16.9153 32.5062 15.913 33.5428 15.5472 34.0884C15.3711 34.3066 15.2357 34.5521 15.1138 34.8112Z" fill="#99D0D6"/>
<path d="M18.9199 35.9024C18.798 36.2025 18.7167 36.5298 18.6761 36.8571C18.6219 37.3754 18.7303 38.0574 19.3398 38.1938C19.9765 38.3302 20.2203 37.5937 20.1932 37.089C20.1255 36.0524 19.5024 35.0022 19.394 35.0977C19.1637 35.3023 19.0283 35.6432 18.9199 35.9024Z" fill="#99D0D6"/>
<path d="M24.7175 16.4934C24.9343 16.5616 25.1374 16.6161 25.3542 16.6843C25.7605 16.8071 26.1534 16.9435 26.5462 17.0935C27.3589 17.3936 28.1716 17.7346 28.9302 18.1574C30.4473 18.9757 31.8289 20.0805 33.0074 21.3354C33.346 21.69 33.6576 22.0719 33.9691 22.4538C34.2265 22.7948 34.4703 23.1494 34.7277 23.4767C34.7819 23.4358 34.8496 23.3949 34.9038 23.354C34.5245 22.6447 33.9556 22.0037 33.4273 21.4172C32.8449 20.7761 32.2218 20.1624 31.5445 19.6168C30.1899 18.512 28.6457 17.53 27.0203 16.8889C26.5597 16.7116 26.0992 16.5479 25.6251 16.4252C25.3406 16.3433 25.0562 16.2615 24.7717 16.2206C24.7717 16.2751 24.7582 16.3161 24.7582 16.3706C24.7311 16.3979 24.7311 16.4525 24.7175 16.4934Z" fill="#F9EDE1"/>
<path d="M33.5625 16.9981C33.5625 16.9981 33.549 16.9844 34.6326 17.0117C34.9306 17.0117 35.2422 17.039 35.5266 16.9844C35.933 16.9026 36.3394 16.4798 36.082 16.0433C35.8246 15.6341 35.2963 15.675 34.9171 15.8387C34.2533 16.1115 33.6167 16.8889 33.5625 16.9981Z" fill="#F9EDE1"/>
<path d="M30.7316 12.5108C30.2711 12.92 29.8241 13.4792 29.7021 14.1066V14.1203C29.7021 14.1612 29.7428 14.2157 29.8105 14.2021C30.4336 14.1066 31.1244 13.943 31.6798 13.6293C32.0997 13.3837 32.3706 12.8791 32.032 12.4426C31.6798 11.9789 31.1109 12.1835 30.7316 12.5108Z" fill="#F9EDE1"/>
<path d="M15.2761 27.9912C15.3845 28.264 15.5199 28.5368 15.6419 28.7959C15.8586 29.2324 16.1024 29.6688 16.3598 30.078C17.2944 31.5647 18.5541 32.9014 19.8952 34.0198C20.5589 34.579 21.2768 35.0837 22.0083 35.5338C22.6855 35.943 23.417 36.3794 24.1891 36.6249C24.2162 36.5567 24.2433 36.4885 24.2839 36.434C23.9046 36.243 23.5118 36.0794 23.1325 35.8748C22.6991 35.6565 22.2792 35.411 21.8593 35.1519C20.4099 34.238 19.0689 33.0787 17.9717 31.742C17.4163 31.0737 16.9287 30.3372 16.4817 29.6006C16.2649 29.246 16.0482 28.8778 15.845 28.4959C15.7367 28.3049 15.6419 28.1003 15.547 27.9094C15.5064 27.923 15.4522 27.9366 15.4116 27.9503C15.3709 27.9639 15.3303 27.9776 15.2761 27.9912Z" fill="#F9EDE1"/>
<path d="M17.755 36.5432C17.6467 36.6114 17.0236 37.3888 16.8746 38.1117C16.7933 38.5209 16.8475 39.0528 17.2945 39.2301C17.7686 39.4074 18.0937 38.9301 18.1072 38.5072C18.1072 38.2072 18.0259 37.9071 17.9718 37.6207C17.7415 36.5295 17.755 36.5432 17.755 36.5432Z" fill="#F9EDE1"/>
<path d="M14.0977 35.3292C14.3009 34.7154 14.328 34.0061 14.3009 33.3651C14.3009 33.2969 14.2467 33.2696 14.1925 33.2833H14.179C13.5965 33.5151 13.136 34.0743 12.8244 34.6063C12.5806 35.0427 12.4858 35.6429 13.0005 35.902C13.5017 36.1612 13.9487 35.7929 14.0977 35.3292Z" fill="#F9EDE1"/>
<path d="M16.387 27.65C16.6985 28.3865 17.1184 29.0957 17.5519 29.7641C19.2722 32.3828 21.7104 34.4288 24.5956 35.6154C24.6227 35.5336 24.6497 35.4654 24.6768 35.3835C24.0402 35.1244 23.4171 34.8107 22.8211 34.456C21.4259 33.6104 20.1391 32.5738 19.0554 31.3462C18.5001 30.7188 17.9989 30.0505 17.5519 29.3549C17.1997 28.782 16.9017 28.1955 16.6172 27.5954C16.536 27.609 16.4682 27.6363 16.387 27.65Z" fill="#FCD323"/>
<path d="M18.1345 19.3847C18.2293 19.8757 18.744 20.1485 19.1775 20.2712C19.4078 20.3394 19.7464 20.4076 20.0038 20.3394C20.0986 20.3394 20.1934 20.3122 20.2747 20.2576C22.3065 21.6488 23.9591 23.5038 25.1375 25.6997C25.0562 25.8088 24.975 25.918 24.9208 26.0407C24.8802 26.1362 24.8395 26.2453 24.8124 26.3544C22.4961 25.4679 20.3695 24.1994 18.5002 22.5899C18.5408 22.1808 18.2699 21.7716 18.0261 21.4715C17.7687 21.1714 17.254 20.6804 16.8206 20.9396C16.6851 21.0214 16.6174 21.1169 16.6038 21.226C16.4955 21.4306 16.5496 21.717 16.6174 21.9353C16.7664 22.4263 17.1186 22.9446 17.6062 23.1355C17.8771 23.2446 18.1751 23.1901 18.3512 22.9855C20.2611 24.6086 22.442 25.8907 24.7989 26.7772C24.8124 26.9409 24.8802 27.0909 24.9885 27.2137C25.1375 27.3774 25.3407 27.4456 25.5303 27.4047C25.571 27.4047 25.5981 27.4047 25.6387 27.4047C26.6682 29.6415 28.8896 30.4872 30.9079 31.6192C31.0298 31.6874 31.2059 31.5374 31.1382 31.4146C30.0816 29.3824 28.7813 27.2955 26.6275 26.3408C26.614 26.3408 26.614 26.3408 26.6004 26.3271C26.6004 26.2453 26.6004 26.1635 26.5869 26.0953C26.5192 25.727 26.2212 25.4133 25.8419 25.386C25.7064 25.3724 25.5845 25.3997 25.4897 25.4406C24.2977 23.2037 22.5774 21.3215 20.5049 19.903C20.5049 19.6166 20.2476 19.3165 20.0579 19.1392C19.7328 18.8255 19.2317 18.539 18.7711 18.58C18.3241 18.6072 18.0667 18.9755 18.1345 19.3847Z" fill="#282143"/>
</g>
<defs>
<clipPath id="clip0">
<rect width="40" height="41" fill="white" transform="translate(7 7)"/>
</clipPath>
</defs>
</svg>
