<svg width="56" height="56" viewBox="0 0 56 56" fill="none" xmlns="http://www.w3.org/2000/svg">
<circle cx="28" cy="28" r="27.5" fill="#F37C7C" stroke="white"/>
<g clip-path="url(#clip0)">
<path d="M21.3668 19.0661C21.8409 16.6531 22.5623 13.9022 24.3624 11.8478C25.8534 10.1449 28.1619 9.22103 30.7041 9.30376C30.9995 9.31066 31.3018 9.33823 31.6041 9.3727C34.1325 9.68984 36.4136 10.9584 37.8633 12.8612C39.0588 14.4331 39.6497 16.6117 39.6222 19.3281C39.6016 21.4653 39.1756 23.9196 38.4267 26.243C37.9252 27.7873 36.3999 28.7594 34.799 28.5595C34.586 28.5319 34.373 28.4837 34.1738 28.4216C33.3149 28.139 32.621 27.546 32.2088 26.7394C31.7965 25.9328 31.7278 25.0158 32.0026 24.1541C33.26 20.2795 32.9439 17.57 32.4905 16.9771C32.1538 16.529 31.4598 16.1843 30.7316 16.0946C30.6422 16.0808 30.5529 16.0739 30.4567 16.0739C29.8727 16.0533 29.5154 16.2118 29.4261 16.3152C29.0276 16.7703 28.7665 17.4597 28.5879 18.0181C27.5298 21.2102 27.2069 24.7883 26.8977 28.2493C26.7946 29.4006 26.6847 30.5933 26.5542 31.7447C26.3618 33.4062 26.1557 35.0884 25.9495 36.7085C25.4892 40.3694 25.022 44.1475 24.7472 47.8635C24.6785 48.7667 24.2662 49.5871 23.586 50.18C22.9058 50.7729 22.0332 51.0625 21.1332 50.9935C21.0782 50.9935 21.0164 50.9866 20.9614 50.9797C19.175 50.7591 17.8765 49.1734 18.0139 47.3671C18.1032 46.1675 18.2131 44.8921 18.3574 43.4649C18.6391 40.6659 18.9895 37.8323 19.3331 35.0884V35.0677C19.601 32.9029 19.8758 30.6623 20.1163 28.463C20.1507 28.1183 20.1919 27.7736 20.2262 27.4288L20.24 27.3116C20.5286 24.6022 20.8309 21.81 21.3668 19.0661Z" fill="#DBD7D6"/>
<path d="M21.7446 18.7694C22.2118 16.3495 22.9401 13.6056 24.7334 11.5511C26.2243 9.84823 28.5329 8.9244 31.0751 9.00713C31.3705 9.01402 31.6728 9.0416 31.9682 9.07607C34.5035 9.39321 36.7915 10.6687 38.2343 12.5715C39.4298 14.1434 40.0207 16.322 40.0001 19.0383C39.9795 21.1755 39.5535 23.6299 38.8046 25.9533C38.303 27.4976 36.7777 28.4697 35.1769 28.2698C34.9639 28.2422 34.7509 28.1939 34.5516 28.1319C33.6928 27.8492 32.9989 27.2563 32.5866 26.4497C32.1744 25.643 32.1057 24.7261 32.3805 23.8643C33.6378 19.9897 33.3218 17.2803 32.8752 16.6874C32.5385 16.2392 31.8446 15.8945 31.1163 15.8049C31.027 15.7911 30.9308 15.7842 30.8415 15.7842C30.2574 15.7635 29.9002 15.9221 29.8108 16.0255C29.4123 16.4805 29.1513 17.17 28.9726 17.7284C27.9145 20.9205 27.5916 24.4986 27.2824 27.9595C27.1794 29.1109 27.0694 30.3036 26.9389 31.4549C26.7465 33.1165 26.5404 34.7918 26.3343 36.4188C25.8739 40.0797 25.3999 43.8577 25.1319 47.5738C25.0632 48.4769 24.6509 49.2973 23.9707 49.8903C23.2905 50.4832 22.418 50.7727 21.5248 50.7038C21.4698 50.6969 21.408 50.6969 21.353 50.69C19.5666 50.4694 18.2681 48.8768 18.4055 47.0774C18.4948 45.8778 18.6047 44.6023 18.749 43.1752C19.0307 40.3761 19.3811 37.5426 19.7247 34.7987V34.7849C19.9926 32.6201 20.2674 30.3794 20.5079 28.1733C20.5423 27.8285 20.5835 27.4838 20.6178 27.1391L20.6316 27.0219C20.9064 24.3124 21.2087 21.5134 21.7446 18.7694Z" fill="#F1F2F2"/>
<path d="M21.7515 49.4837C21.6966 49.4837 21.6485 49.4837 21.5935 49.4768C21.5592 49.4768 21.5179 49.4699 21.4836 49.463C20.3705 49.3251 19.5598 48.3324 19.6422 47.2086C19.7316 46.0159 19.8415 44.7473 19.9858 43.3409C20.2675 40.5556 20.6179 37.7289 20.9545 34.9919C21.2225 32.8202 21.5042 30.5727 21.7447 28.3527L21.8684 27.2152C22.1569 24.5333 22.4524 21.7549 22.9814 19.0592C23.4211 16.8117 24.0876 14.2608 25.6816 12.4338C26.8565 11.0894 28.7047 10.3173 30.7453 10.3173C30.8415 10.3173 30.9308 10.3173 31.027 10.3242C33.5142 10.4069 35.8296 11.5582 37.2312 13.3921C39.4642 16.3291 38.8871 21.6308 37.5954 25.6088C37.3137 26.4844 36.503 27.0704 35.5892 27.0704C35.3693 27.0704 35.1494 27.0359 34.9364 26.967C34.4005 26.7946 33.9608 26.4154 33.7066 25.9121C33.4524 25.4089 33.4043 24.8366 33.5829 24.2989C34.8677 20.3209 34.696 17.0392 33.8783 15.9568C33.26 15.1433 32.0851 14.5986 30.8896 14.5572C30.8415 14.5572 30.7934 14.5572 30.7453 14.5572C29.9208 14.5572 29.2406 14.8054 28.8627 15.2329C28.3131 15.8603 27.9902 16.7014 27.7703 17.3701C26.671 20.7001 26.3343 24.354 26.0183 27.8839C25.9152 29.0284 25.8053 30.2073 25.6747 31.3517C25.4823 33.0064 25.2762 34.6886 25.0701 36.3156C24.6098 39.9834 24.1357 43.7752 23.8609 47.5257C23.7715 48.6219 22.8509 49.4837 21.7515 49.4837Z" fill="#F16562"/>
<path d="M30.7453 10.5723C30.8347 10.5723 30.9308 10.5723 31.0202 10.5792C33.4318 10.6619 35.6785 11.7719 37.032 13.5437C39.21 16.4049 38.626 21.6101 37.355 25.526C37.1007 26.312 36.3724 26.8153 35.5892 26.8153C35.3968 26.8153 35.2044 26.7877 35.0189 26.7256C34.0433 26.4085 33.5074 25.3537 33.8234 24.3747C35.1495 20.2726 34.9571 16.9564 34.0776 15.8051C33.418 14.9364 32.1676 14.3435 30.8965 14.3021C30.8415 14.3021 30.7934 14.3021 30.7453 14.3021C29.8521 14.3021 29.0964 14.5779 28.6704 15.0674C28.1207 15.6948 27.7841 16.5152 27.5298 17.2942C26.0526 21.748 25.9565 26.698 25.4274 31.3241C24.809 36.7154 24.012 42.093 23.6135 47.5119C23.538 48.4909 22.7272 49.2355 21.7653 49.2355C21.7172 49.2355 21.676 49.2355 21.6279 49.2286C21.5936 49.2286 21.5661 49.2217 21.5317 49.2217C20.5561 49.0976 19.8347 48.2289 19.9102 47.2361C20.0064 45.9469 20.1232 44.6646 20.2538 43.3753C20.7553 38.3701 21.4699 33.3855 22.0127 28.3872C22.3493 25.2916 22.6448 22.1754 23.2425 19.1143C23.6685 16.853 24.3212 14.378 25.874 12.6061C27.0077 11.3031 28.7734 10.5723 30.7453 10.5723ZM30.7453 10.0621C28.6292 10.0621 26.7191 10.8619 25.4961 12.2683C23.854 14.1436 23.1807 16.7289 22.7341 19.0109C22.2051 21.7204 21.9096 24.4988 21.621 27.1875C21.5798 27.5667 21.5386 27.9459 21.4974 28.3251C21.2569 30.5382 20.9752 32.7857 20.7072 34.9574C20.3706 37.6944 20.0202 40.5211 19.7385 43.3133C19.5942 44.7266 19.4843 45.9883 19.3949 47.1879C19.2987 48.4495 20.2057 49.5595 21.4561 49.7181C21.4905 49.725 21.5317 49.725 21.5798 49.7319C21.6348 49.7388 21.6966 49.7388 21.7516 49.7388C22.9814 49.7388 24.0189 48.7736 24.1082 47.5395C24.3831 43.7959 24.8571 40.004 25.3175 36.3432C25.5236 34.7161 25.7297 33.0339 25.9221 31.3793C26.0526 30.2348 26.1626 29.049 26.2656 27.9046C26.5817 24.3885 26.9115 20.7483 28.0039 17.4459C28.2169 16.7979 28.5261 15.9843 29.0414 15.3983C29.3712 15.026 29.9827 14.8123 30.7316 14.8123C30.7797 14.8123 30.8209 14.8123 30.869 14.8123C31.9958 14.8537 33.0951 15.3638 33.6654 16.1153C34.4418 17.1426 34.5929 20.3277 33.3356 24.223C33.1432 24.8228 33.1913 25.4709 33.4799 26.0362C33.7684 26.6015 34.2563 27.0221 34.854 27.2151C35.0945 27.291 35.335 27.3323 35.5823 27.3323C36.606 27.3323 37.513 26.6705 37.829 25.6915C39.1345 21.6514 39.7185 16.2601 37.4237 13.2404C35.9808 11.3445 33.5898 10.1655 31.027 10.0759C30.9377 10.069 30.8415 10.0621 30.7453 10.0621Z" fill="#BD5251"/>
<path d="M22.7341 22.1064C24.1907 21.0929 25.5992 20.0174 27.0352 18.9695C27.1314 18.5972 27.2344 18.2249 27.3444 17.8595C27.3993 17.6664 27.4612 17.4803 27.523 17.2873C27.5436 17.2183 27.5711 17.1494 27.5917 17.0873C27.8391 16.3703 28.162 15.6326 28.6636 15.0604C29.1101 14.5433 29.9278 14.2676 30.8897 14.302C31.2126 14.3158 31.5286 14.3572 31.8378 14.433C32.0577 14.4882 32.2775 14.5571 32.4837 14.6398C32.6417 14.7019 32.7928 14.7777 32.9371 14.8536C34.0845 14.1297 35.2732 13.4678 36.5168 12.9439C36.3862 12.8129 36.2557 12.6819 36.1183 12.5578C35.9809 12.4337 35.8434 12.3165 35.6992 12.2062C34.9571 11.6339 34.0914 11.1996 33.157 10.9169C32.4631 11.372 31.7279 11.7442 30.979 12.1096C29.8728 12.6474 28.8353 13.2886 27.7704 13.9159C26.7329 14.5295 25.6885 15.1156 24.603 15.6533C24.4175 15.7498 24.2251 15.8326 24.0396 15.9222C23.6823 16.9701 23.4281 18.0594 23.222 19.1005C23.1395 19.5279 23.0639 19.9622 22.9883 20.3966C22.9471 20.6517 22.9059 20.9068 22.8647 21.1618C22.8235 21.479 22.7754 21.7892 22.7341 22.1064Z" fill="#FBD0CF"/>
<path d="M33.8372 24.3196C34.4349 24.0232 37.3206 22.5271 38.1932 22.1203C38.2344 21.8721 38.2756 21.624 38.3031 21.3758C38.3306 21.1827 38.3512 20.9897 38.3718 20.7966C38.4405 20.121 38.4818 19.4454 38.4749 18.7835C37.8084 19.0593 37.1282 19.2799 36.4549 19.5488C35.8434 19.797 35.2525 20.1141 34.6754 20.4519C34.5998 21.1138 34.483 21.8308 34.3112 22.5823C34.2631 22.796 34.2082 23.0166 34.1463 23.2372C34.0639 23.5957 33.954 23.9542 33.8372 24.3196Z" fill="#FBD0CF"/>
<path d="M21.841 29.7383C21.7173 30.8 21.6143 31.6687 21.4975 32.6063C21.4768 32.8132 21.4494 33.0338 21.4219 33.2544L21.3257 34.0541C21.4837 33.9163 24.1152 32.5029 25.3863 31.5377C25.4138 31.3171 25.4344 31.1034 25.455 30.8828C25.4756 30.6759 25.4962 30.4691 25.5168 30.2623C25.613 29.2419 25.7023 28.2078 25.7985 27.1736C24.445 28.1733 23.1602 28.6835 21.841 29.7383Z" fill="#FBD0CF"/>
<path d="M20.5766 40.2316C20.4529 41.2796 20.343 42.3275 20.2331 43.3754C20.2262 43.4168 20.2262 43.4582 20.2193 43.4995C20.1987 43.7063 20.1781 43.9063 20.1575 44.1131C20.1369 44.313 20.1163 44.5199 20.1025 44.7198C21.3461 43.9339 22.9676 43.1617 24.0463 42.6515C24.0669 42.4585 24.0875 42.2723 24.1082 42.0793C24.1288 41.8794 24.1494 41.6794 24.1769 41.4795C24.2868 40.4936 24.4105 39.5146 24.5273 38.5356C23.5035 39.0458 20.8308 40.1006 20.5766 40.2316Z" fill="#FBD0CF"/>
<path d="M34.1531 23.244C35.2043 22.6718 37.2037 21.8307 38.303 21.3757C38.3305 21.1826 38.3511 20.9896 38.3717 20.7966C37.4579 21.1689 35.5547 21.9617 34.318 22.5822C34.2699 22.8028 34.2149 23.0234 34.1531 23.244Z" fill="#E9929D"/>
<path d="M21.5043 32.6134C21.4837 32.8202 21.4562 33.0409 21.4287 33.2615C22.4868 32.5996 24.335 31.531 25.4618 30.8898C25.4824 30.683 25.503 30.4762 25.5237 30.2693C24.5549 30.814 22.7204 31.8619 21.5043 32.6134Z" fill="#E9929D"/>
<path d="M20.2264 43.4924C20.2058 43.6992 20.1852 43.8991 20.1646 44.106C21.2226 43.4993 23.0228 42.603 24.1152 42.0722C24.1358 41.8722 24.1564 41.6723 24.1839 41.4724C23.2289 41.9412 21.4356 42.8236 20.2264 43.4924Z" fill="#E9929D"/>
<path d="M35.6992 12.2202C34.9641 12.627 33.5418 13.4198 31.8379 14.4402C32.0578 14.4953 32.2776 14.5643 32.4837 14.647C34.1533 13.6542 35.5068 12.9027 36.1183 12.5649C35.9809 12.4477 35.8435 12.3305 35.6992 12.2202Z" fill="#E9929D"/>
<path d="M22.8716 21.1693C24.122 20.0938 25.7023 18.9562 27.3444 17.8601C27.3994 17.667 27.4612 17.4809 27.523 17.2878C27.5437 17.2189 27.5711 17.1499 27.5918 17.0879C25.9428 18.1703 24.3213 19.3147 22.9953 20.404C22.9472 20.6591 22.9059 20.9142 22.8716 21.1693Z" fill="#E9929D"/>
<g opacity="0.3">
<g opacity="0.3">
<g opacity="0.3">
<path opacity="0.3" d="M23.167 47.0155C23.2632 46.2227 23.5724 41.9276 23.7029 40.983C24.2526 37.1843 24.5549 34.206 24.8366 30.3796C25.1114 26.6291 25.5374 22.8097 26.4856 19.1626C26.836 17.8113 27.6879 14.5986 29.4674 14.5297C29.1445 14.6607 28.8628 14.8399 28.6636 15.0674C28.1139 15.6948 27.7773 16.5152 27.523 17.2943C26.0458 21.748 25.9496 26.6981 25.4206 31.3241C24.8022 36.7155 24.0052 42.093 23.6067 47.5119C23.538 48.4013 22.8578 49.1045 22.0059 49.2217C22.5899 48.6012 23.0639 47.8498 23.167 47.0155Z" fill="#808285"/>
</g>
</g>
<g opacity="0.3">
<g opacity="0.3">
<path opacity="0.3" d="M37.8154 17.1357C37.6849 15.9223 37.4444 14.6814 37.0116 13.5231C37.0184 13.53 37.0253 13.5369 37.0322 13.5438C39.2102 16.4049 38.6262 21.6101 37.3551 25.5261C37.1696 26.1121 36.7161 26.5326 36.1733 26.7188C37.4101 23.6233 38.1658 20.4933 37.8154 17.1357Z" fill="#808285"/>
</g>
</g>
</g>
<path d="M31.3432 13.9917C33.1433 14.1089 34.5655 15.5085 35.074 17.2045C35.6923 19.2866 34.9778 21.4169 34.5037 23.4438C34.3044 24.2987 34.0296 25.4294 34.3388 26.3256C33.8166 25.8499 33.5968 25.0915 33.8235 24.3745C35.1495 20.2724 34.9572 16.9563 34.0777 15.8049C33.4181 14.9363 32.1676 14.3434 30.8966 14.302C30.3881 14.2813 29.9209 14.3571 29.5293 14.5019C30.0171 14.1434 30.6217 13.9435 31.3432 13.9917Z" fill="#D6CCD0"/>
<path d="M23.2289 19.1071C23.4144 18.1557 23.6412 17.163 23.9503 16.1978C23.9229 16.3081 23.8954 16.4184 23.8748 16.5287C23.4694 18.5418 23.2358 20.6101 22.9129 22.637C22.2258 26.9666 22.0815 31.3583 21.6349 35.7155C21.312 38.8179 20.8036 41.8997 20.4806 44.9952C20.3844 45.9121 20.0959 48.1597 20.9478 49.0353C20.2814 48.7112 19.8417 48.008 19.9035 47.2221C19.9997 45.9328 20.1165 44.6505 20.247 43.3613C20.7486 38.356 21.4631 33.3714 22.0059 28.3731C22.3357 25.2844 22.6312 22.1682 23.2289 19.1071Z" fill="#D6CCD0"/>
<path d="M34.6615 15.095C34.6477 15.1433 34.7164 15.1708 34.7439 15.1984C34.8332 15.2881 34.9157 15.3984 34.9706 15.5156C35.0119 15.6052 35.0462 15.7017 35.0737 15.7982C35.0874 15.8534 35.0943 15.9016 35.1081 15.9568C35.1218 16.0257 35.1562 16.1016 35.2111 16.0051C35.2455 15.943 35.2661 15.8741 35.3004 15.812C35.3554 15.7155 35.4172 15.619 35.4928 15.5362C35.5547 15.4673 35.6234 15.4121 35.6921 15.357C35.747 15.3156 35.8844 15.2743 35.802 15.1846C35.7127 15.0881 35.6165 14.9916 35.5547 14.8744C35.5066 14.7779 35.4722 14.6676 35.4379 14.5642C35.4172 14.5021 35.431 14.2884 35.3623 14.2815C35.2936 14.2746 35.2249 14.4745 35.1974 14.5228C35.1493 14.6055 35.0943 14.6882 35.0394 14.7641C34.9844 14.8399 34.95 14.8882 34.8813 14.9433C34.8538 14.9709 34.6752 15.0605 34.6615 15.095C34.6683 15.095 34.6615 15.095 34.6615 15.095Z" fill="#F1F2F2"/>
<path d="M35.424 17.2393C35.4171 17.2738 35.4652 17.2876 35.479 17.3082C35.5408 17.3703 35.5958 17.4461 35.637 17.5289C35.6645 17.5909 35.6851 17.6598 35.7057 17.7288C35.7126 17.7633 35.7194 17.8046 35.7263 17.8391C35.7332 17.8874 35.7607 17.9356 35.8019 17.8736C35.8294 17.8322 35.8363 17.7839 35.8637 17.7426C35.905 17.6736 35.9462 17.6047 36.0011 17.5495C36.0424 17.5013 36.0905 17.4668 36.1386 17.4254C36.1729 17.3979 36.276 17.3634 36.2141 17.3082C36.1523 17.2462 36.0836 17.1772 36.0424 17.0945C36.008 17.0256 35.9805 16.9497 35.9599 16.8808C35.9462 16.8394 35.9531 16.6877 35.9118 16.6809C35.8637 16.674 35.8156 16.8118 35.795 16.8463C35.7607 16.9015 35.7263 16.9566 35.6851 17.0118C35.6507 17.06 35.6233 17.0945 35.5752 17.1359C35.5614 17.1497 35.4377 17.2117 35.424 17.2393C35.424 17.2324 35.424 17.2393 35.424 17.2393Z" fill="#F1F2F2"/>
<path d="M23.5104 22.8302C23.5035 22.8509 23.531 22.8578 23.5447 22.8716C23.5791 22.9061 23.6134 22.9543 23.634 23.0026C23.6546 23.0371 23.6615 23.0784 23.6753 23.1198C23.6821 23.1405 23.6821 23.1612 23.689 23.1818C23.6959 23.2094 23.7096 23.2439 23.7302 23.2025C23.744 23.1749 23.7508 23.1474 23.7646 23.1198C23.7852 23.0784 23.8127 23.0371 23.847 23.0026C23.8745 22.975 23.902 22.9543 23.9295 22.9267C23.9501 22.913 24.0119 22.8923 23.9776 22.8578C23.9432 22.8164 23.902 22.782 23.8745 22.7337C23.8539 22.6923 23.8402 22.651 23.8264 22.6027C23.8195 22.5751 23.8195 22.4855 23.7989 22.4855C23.7714 22.4786 23.744 22.5614 23.7302 22.582C23.7096 22.6165 23.689 22.651 23.6684 22.6786C23.6478 22.7061 23.634 22.7268 23.5997 22.7544C23.5859 22.782 23.5172 22.8164 23.5104 22.8302Z" fill="#F1F2F2"/>
<path d="M24.4862 24.3744C24.4793 24.4158 24.5343 24.4364 24.5549 24.4571C24.6236 24.533 24.6923 24.6226 24.7404 24.7191C24.7748 24.795 24.8022 24.8708 24.8229 24.9535C24.8366 24.9949 24.8435 25.0431 24.8503 25.0845C24.8641 25.1397 24.8916 25.2017 24.9397 25.1259C24.9671 25.0776 24.9809 25.0156 25.0152 24.9673C25.0633 24.8915 25.1114 24.8087 25.1733 24.7398C25.2214 24.6846 25.2832 24.6364 25.3382 24.595C25.3794 24.5605 25.4962 24.5261 25.4343 24.4502C25.3588 24.3744 25.2832 24.2917 25.2351 24.1951C25.1939 24.1124 25.1664 24.0228 25.1389 23.9401C25.1252 23.8918 25.132 23.7125 25.0771 23.7057C25.0221 23.6988 24.9671 23.8642 24.9397 23.9056C24.8984 23.9745 24.8572 24.0435 24.8091 24.1055C24.7679 24.1676 24.7335 24.2089 24.6786 24.2572C24.6442 24.271 24.4999 24.3468 24.4862 24.3744C24.4931 24.3744 24.4862 24.3744 24.4862 24.3744Z" fill="#F1F2F2"/>
</g>
<defs>
<clipPath id="clip0">
<rect width="22" height="42" fill="white" transform="translate(18 9)"/>
</clipPath>
</defs>
</svg>
