<svg width="143" height="143" viewBox="0 0 143 143" fill="none" xmlns="http://www.w3.org/2000/svg">
<mask id="path-1-outside-1" maskUnits="userSpaceOnUse" x="56.8817" y="22.8056" width="43.5214" height="50.8549" fill="black">
<rect fill="white" x="56.8817" y="22.8056" width="43.5214" height="50.8549"/>
<path d="M68.1721 30.5724C75.3433 29.9988 82.5392 31.3221 89.0371 34.4094L71.4417 71.4419L68.1721 30.5724Z"/>
</mask>
<path d="M68.1721 30.5724C75.3433 29.9988 82.5392 31.3221 89.0371 34.4094L71.4417 71.4419L68.1721 30.5724Z" fill="#4B7C61"/>
<path d="M68.1721 30.5724C75.3433 29.9988 82.5392 31.3221 89.0371 34.4094L71.4417 71.4419L68.1721 30.5724Z" stroke="#68C2D0" stroke-width="0.8" mask="url(#path-1-outside-1)"/>
<mask id="path-2-outside-2" maskUnits="userSpaceOnUse" x="39.6638" y="21.9804" width="52.8222" height="51.5221" fill="black">
<rect fill="white" x="39.6638" y="21.9804" width="52.8222" height="51.5221"/>
<path d="M48.1778 37.6809C54.1017 33.5988 60.9953 31.1474 68.1664 30.5727L71.4417 71.4416L48.1778 37.6809Z"/>
</mask>
<path d="M48.1778 37.6809C54.1017 33.5988 60.9953 31.1474 68.1664 30.5727L71.4417 71.4416L48.1778 37.6809Z" fill="#ECF7F9"/>
<path d="M48.1778 37.6809C54.1017 33.5988 60.9953 31.1474 68.1664 30.5727L71.4417 71.4416L48.1778 37.6809Z" stroke="#68C2D0" stroke-width="0.8" mask="url(#path-2-outside-2)"/>
<mask id="path-3-outside-3" maskUnits="userSpaceOnUse" x="30.9604" y="34.3969" width="47.9783" height="38.3964" fill="black">
<rect fill="white" x="30.9604" y="34.3969" width="47.9783" height="38.3964"/>
<path d="M34.4198 53.8246C37.511 47.3285 42.2571 41.7601 48.1813 37.6786L71.4419 71.4417L34.4198 53.8246Z"/>
</mask>
<path d="M34.4198 53.8246C37.511 47.3285 42.2571 41.7601 48.1813 37.6786L71.4419 71.4417L34.4198 53.8246Z" fill="#ECF7F9"/>
<path d="M34.4198 53.8246C37.511 47.3285 42.2571 41.7601 48.1813 37.6786L71.4419 71.4417L34.4198 53.8246Z" stroke="#68C2D0" stroke-width="0.8" mask="url(#path-3-outside-3)"/>
<mask id="path-4-outside-4" maskUnits="userSpaceOnUse" x="22.8119" y="42.4764" width="50.8482" height="43.5079" fill="black">
<rect fill="white" x="22.8119" y="42.4764" width="50.8482" height="43.5079"/>
<path d="M30.5708 74.6927C30.0003 67.5213 31.3268 60.326 34.4171 53.8295L71.4417 71.4414L30.5708 74.6927Z"/>
</mask>
<path d="M30.5708 74.6927C30.0003 67.5213 31.3268 60.326 34.4171 53.8295L71.4417 71.4414L30.5708 74.6927Z" fill="#ECF7F9"/>
<path d="M30.5708 74.6927C30.0003 67.5213 31.3268 60.326 34.4171 53.8295L71.4417 71.4414L30.5708 74.6927Z" stroke="#68C2D0" stroke-width="0.8" mask="url(#path-4-outside-4)"/>
<mask id="path-5-outside-5" maskUnits="userSpaceOnUse" x="21.9745" y="50.3859" width="51.5288" height="52.8198" fill="black">
<rect fill="white" x="21.9745" y="50.3859" width="51.5288" height="52.8198"/>
<path d="M37.6687 94.6875C33.5899 88.7614 31.1421 81.8664 30.5712 74.695L71.442 71.4417L37.6687 94.6875Z"/>
</mask>
<path d="M37.6687 94.6875C33.5899 88.7614 31.1421 81.8664 30.5712 74.695L71.442 71.4417L37.6687 94.6875Z" fill="#ECF7F9"/>
<path d="M37.6687 94.6875C33.5899 88.7614 31.1421 81.8664 30.5712 74.695L71.442 71.4417L37.6687 94.6875Z" stroke="#68C2D0" stroke-width="0.8" mask="url(#path-5-outside-5)"/>
<mask id="path-6-outside-6" maskUnits="userSpaceOnUse" x="34.3866" y="63.9364" width="38.4073" height="47.985" fill="black">
<rect fill="white" x="34.3866" y="63.9364" width="38.4073" height="47.985"/>
<path d="M53.8136 108.459C47.3184 105.366 41.7514 100.618 37.6718 94.6924L71.4418 71.4418L53.8136 108.459Z"/>
</mask>
<path d="M53.8136 108.459C47.3184 105.366 41.7514 100.618 37.6718 94.6924L71.4418 71.4418L53.8136 108.459Z" fill="#4B7C61"/>
<path d="M53.8136 108.459C47.3184 105.366 41.7514 100.618 37.6718 94.6924L71.4418 71.4418L53.8136 108.459Z" stroke="#68C2D0" stroke-width="0.8" mask="url(#path-6-outside-6)"/>
<mask id="path-7-outside-7" maskUnits="userSpaceOnUse" x="42.4724" y="69.2231" width="43.4916" height="50.8401" fill="black">
<rect fill="white" x="42.4724" y="69.2231" width="43.4916" height="50.8401"/>
<path d="M74.6711 112.314C67.4993 112.881 60.3047 111.55 53.8099 108.457L71.4417 71.4414L74.6711 112.314Z"/>
</mask>
<path d="M74.6711 112.314C67.4993 112.881 60.3047 111.55 53.8099 108.457L71.4417 71.4414L74.6711 112.314Z" fill="#4B7C61"/>
<path d="M74.6711 112.314C67.4993 112.881 60.3047 111.55 53.8099 108.457L71.4417 71.4414L74.6711 112.314Z" stroke="#68C2D0" stroke-width="0.8" mask="url(#path-7-outside-7)"/>
<mask id="path-8-outside-8" maskUnits="userSpaceOnUse" x="50.3763" y="69.38" width="52.8178" height="51.5344" fill="black">
<rect fill="white" x="50.3763" y="69.38" width="52.8178" height="51.5344"/>
<path d="M94.6724 105.225C88.7445 109.302 81.8484 111.746 74.6768 112.314L71.4417 71.4417L94.6724 105.225Z"/>
</mask>
<path d="M94.6724 105.225C88.7445 109.302 81.8484 111.746 74.6768 112.314L71.4417 71.4417L94.6724 105.225Z" fill="#4B7C61"/>
<path d="M94.6724 105.225C88.7445 109.302 81.8484 111.746 74.6768 112.314L71.4417 71.4417L94.6724 105.225Z" stroke="#68C2D0" stroke-width="0.8" mask="url(#path-8-outside-8)"/>
<mask id="path-9-outside-9" maskUnits="userSpaceOnUse" x="63.952" y="70.0904" width="47.973" height="38.3878" fill="black">
<rect fill="white" x="63.952" y="70.0904" width="47.973" height="38.3878"/>
<path d="M108.468 89.05C105.378 95.5469 100.634 101.116 94.7104 105.199L71.4419 71.4416L108.468 89.05Z"/>
</mask>
<path d="M108.468 89.05C105.378 95.5469 100.634 101.116 94.7104 105.199L71.4419 71.4416L108.468 89.05Z" fill="#4B7C61"/>
<path d="M108.468 89.05C105.378 95.5469 100.634 101.116 94.7104 105.199L71.4419 71.4416L108.468 89.05Z" stroke="#68C2D0" stroke-width="0.8" mask="url(#path-9-outside-9)"/>
<mask id="path-10-outside-10" maskUnits="userSpaceOnUse" x="69.2233" y="56.8896" width="50.8517" height="43.515" fill="black">
<rect fill="white" x="69.2233" y="56.8896" width="50.8517" height="43.515"/>
<path d="M112.312 68.1806C112.884 75.3519 111.559 82.5475 108.471 89.0448L71.4418 71.4415L112.312 68.1806Z"/>
</mask>
<path d="M112.312 68.1806C112.884 75.3519 111.559 82.5475 108.471 89.0448L71.4418 71.4415L112.312 68.1806Z" fill="#4B7C61"/>
<path d="M112.312 68.1806C112.884 75.3519 111.559 82.5475 108.471 89.0448L71.4418 71.4415L112.312 68.1806Z" stroke="#68C2D0" stroke-width="0.8" mask="url(#path-10-outside-10)"/>
<mask id="path-11-outside-11" maskUnits="userSpaceOnUse" x="69.3804" y="39.6756" width="51.5278" height="52.8201" fill="black">
<rect fill="white" x="69.3804" y="39.6756" width="51.5278" height="52.8201"/>
<path d="M105.213 48.1931C109.292 54.1188 111.741 61.0136 112.312 68.1849L71.4417 71.4418L105.213 48.1931Z"/>
</mask>
<path d="M105.213 48.1931C109.292 54.1188 111.741 61.0136 112.312 68.1849L71.4417 71.4418L105.213 48.1931Z" fill="#4B7C61"/>
<path d="M105.213 48.1931C109.292 54.1188 111.741 61.0136 112.312 68.1849L71.4417 71.4418L105.213 48.1931Z" stroke="#68C2D0" stroke-width="0.8" mask="url(#path-11-outside-11)"/>
<mask id="path-12-outside-12" maskUnits="userSpaceOnUse" x="70.0902" y="30.9616" width="38.4041" height="47.983" fill="black">
<rect fill="white" x="70.0902" y="30.9616" width="38.4041" height="47.983"/>
<path d="M89.0672 34.4234C95.5627 37.516 101.13 42.2632 105.21 48.1883L71.4422 71.4418L89.0672 34.4234Z"/>
</mask>
<path d="M89.0672 34.4234C95.5627 37.516 101.13 42.2632 105.21 48.1883L71.4422 71.4418L89.0672 34.4234Z" fill="#4B7C61"/>
<path d="M89.0672 34.4234C95.5627 37.516 101.13 42.2632 105.21 48.1883L71.4422 71.4418L89.0672 34.4234Z" stroke="#68C2D0" stroke-width="0.8" mask="url(#path-12-outside-12)"/>
<circle cx="71.4417" cy="71.4419" r="40.5" transform="rotate(-109.397 71.4417 71.4419)" stroke="#68C2D0"/>
</svg>
