<svg width="10" height="18" viewBox="0 0 10 18" fill="none" xmlns="http://www.w3.org/2000/svg">
<path d="M8.93954 12.4782C8.82235 12.3617 8.66382 12.2963 8.49858 12.2963C8.33335 12.2963 8.17482 12.3617 8.05763 12.4782L5.18675 15.3553L5.18675 0.625628C5.18675 0.459743 5.12085 0.300653 5.00356 0.183355C4.88626 0.0660591 4.72717 0.000162125 4.56128 0.000162125C4.3954 0.000162125 4.23631 0.0660591 4.11901 0.183355C4.00172 0.300653 3.93582 0.459743 3.93582 0.625628L3.93582 15.3366L1.07745 12.4782C0.959669 12.3596 0.799599 12.2926 0.63245 12.292C0.465302 12.2914 0.304766 12.3573 0.186159 12.4751C0.0675526 12.5928 0.000590374 12.7529 3.88506e-06 12.9201C-0.000582604 13.0872 0.0652546 13.2477 0.183032 13.3663L4.16724 17.3443C4.27274 17.4493 4.41554 17.5083 4.56441 17.5083C4.71328 17.5083 4.85609 17.4493 4.96158 17.3443L8.93954 13.3663C8.99816 13.3082 9.04469 13.239 9.07645 13.1628C9.1082 13.0866 9.12455 13.0048 9.12455 12.9223C9.12455 12.8397 9.1082 12.7579 9.07645 12.6817C9.04469 12.6055 8.99816 12.5363 8.93954 12.4782Z" fill="#F3967C"/>
</svg>
