<svg width="23" height="23" viewBox="0 0 23 23" fill="none" xmlns="http://www.w3.org/2000/svg">
<g clip-path="url(#clip0)">
<path d="M11.5 23C9.22552 23 7.00211 22.3255 5.11095 21.0619C3.21978 19.7983 1.7458 18.0022 0.875391 15.9009C0.00498273 13.7995 -0.222756 11.4872 0.220974 9.25647C0.664704 7.02569 1.75997 4.97658 3.36828 3.36828C4.97658 1.75997 7.02569 0.664704 9.25647 0.220974C11.4872 -0.222756 13.7995 0.00498273 15.9009 0.875391C18.0022 1.7458 19.7983 3.21978 21.0619 5.11095C22.3255 7.00211 23 9.22552 23 11.5C23 14.55 21.7884 17.4751 19.6317 19.6317C17.4751 21.7884 14.55 23 11.5 23ZM11.5 0.718755C9.36768 0.718755 7.28323 1.35106 5.51026 2.53572C3.7373 3.72038 2.35544 5.40418 1.53943 7.3742C0.723422 9.34422 0.509917 11.512 0.925914 13.6033C1.34191 15.6947 2.36873 17.6157 3.87651 19.1235C5.38429 20.6313 7.30533 21.6581 9.39669 22.0741C11.488 22.4901 13.6558 22.2766 15.6258 21.4606C17.5958 20.6446 19.2796 19.2627 20.4643 17.4897C21.6489 15.7168 22.2813 13.6323 22.2813 11.5C22.2813 8.64064 21.1454 5.89839 19.1235 3.87651C17.1016 1.85463 14.3594 0.718755 11.5 0.718755Z" fill="black"/>
<path d="M16.8367 17.3434L11.2449 11.7552C11.2115 11.7216 11.1852 11.6818 11.1673 11.638C11.1494 11.5942 11.1404 11.5473 11.1406 11.5V3.59375H11.8594V11.3527L17.3434 16.8367L16.8367 17.3434Z" fill="black"/>
</g>
<defs>
<clipPath id="clip0">
<rect width="23" height="23" fill="white"/>
</clipPath>
</defs>
</svg>
