<svg width="10" height="18" viewBox="0 0 10 18" fill="none" xmlns="http://www.w3.org/2000/svg">
<path d="M8.93954 5.03012C8.82235 5.14661 8.66382 5.212 8.49858 5.212C8.33335 5.212 8.17482 5.14661 8.05763 5.03012L5.18675 2.15298L5.18675 16.8827C5.18675 17.0486 5.12085 17.2076 5.00356 17.3249C4.88626 17.4422 4.72717 17.5081 4.56128 17.5081C4.3954 17.5081 4.23631 17.4422 4.11901 17.3249C4.00172 17.2076 3.93582 17.0486 3.93582 16.8827L3.93582 2.17175L1.07745 5.03012C0.959669 5.14873 0.799599 5.21569 0.63245 5.21627C0.465302 5.21686 0.304766 5.15102 0.186159 5.03325C0.0675526 4.91547 0.000590374 4.7554 3.88506e-06 4.58825C-0.000582604 4.4211 0.0652546 4.26057 0.183032 4.14196L4.16724 0.164004C4.27274 0.0589691 4.41554 0 4.56441 0C4.71328 0 4.85609 0.0589691 4.96158 0.164004L8.93954 4.14196C8.99816 4.2001 9.04469 4.26928 9.07645 4.3455C9.1082 4.42172 9.12455 4.50347 9.12455 4.58604C9.12455 4.66861 9.1082 4.75036 9.07645 4.82658C9.04469 4.9028 8.99816 4.97197 8.93954 5.03012Z" fill="#4B7C61"/>
</svg>
