<svg width="198" height="183" viewBox="0 0 198 183" fill="none" xmlns="http://www.w3.org/2000/svg">
<g clip-path="url(#clip0)">
<path d="M122.655 183L122.531 182.997C121.516 182.979 120.734 182.188 120.83 181.278L127.594 116.759L133.496 117.263L123.783 182.128C123.708 182.635 123.222 183.01 122.655 183Z" fill="#ACC7EB"/>
<path d="M187.785 183L187.909 182.997C188.924 182.979 189.706 182.188 189.61 181.278L182.846 116.759L176.944 117.263L186.657 182.128C186.732 182.635 187.218 183.01 187.785 183Z" fill="#C8DBF4"/>
<path d="M74.9378 183L74.8137 182.997C73.7993 182.979 73.0167 182.188 73.1127 181.278L79.8769 116.759L85.7788 117.263L76.0659 182.128C75.9891 182.635 75.5048 183.01 74.9378 183Z" fill="#BAD4F4"/>
<path d="M185.771 107.374L197.777 50.7443C199.319 43.0764 192.667 36.0658 184.029 36.2548L160.873 36.7597C152.885 36.9345 145.94 42.0399 143.72 49.3706L126.156 107.374H185.771Z" fill="#BAD4F4"/>
<path d="M178.508 107.374L190.514 50.7443C192.055 43.0764 185.403 36.0658 176.765 36.2548L153.61 36.7597C145.621 36.9345 138.677 42.0399 136.456 49.3706L118.891 107.374H178.508Z" fill="#ACC7EB"/>
<path d="M182.425 117.701H90.8139C88.9741 117.701 87.468 116.263 87.468 114.506V110.57C87.468 108.812 88.9741 107.374 90.8139 107.374H185.771V114.506C185.771 116.264 184.265 117.701 182.425 117.701Z" fill="#C8DBF4"/>
<path d="M139.435 117.701H81.0346C79.5521 117.701 78.3384 116.542 78.3384 115.126V109.948C78.3384 108.532 79.5521 107.372 81.0346 107.372H139.435C140.917 107.372 142.131 108.53 142.131 109.948V115.126C142.129 116.544 140.917 117.701 139.435 117.701Z" fill="#ACC7EB"/>
<path d="M103.803 53.782C102.513 52.7722 130.644 30.0889 136.678 42.807C136.678 42.807 151.123 32.1761 137.822 25.9538C130.333 22.4506 129.259 15.0818 127.482 10.7437C125.707 6.40418 116.731 -5.42406 106.367 2.8911C106.367 2.8911 101.106 3.78101 98.2735 7.08677C91.8312 14.6051 77.5098 64.8868 103.803 53.782Z" fill="#163560"/>
<path d="M121.99 45.2073C121.99 45.2073 117.098 53.6085 110.24 60.5797C106.618 64.262 102.445 67.5452 98.1555 68.9766C96.0632 69.6748 93.9428 69.9342 91.8446 69.5817C90.5068 69.3588 91.0886 61.8095 92.9476 56.0723C95.3987 48.5145 103.037 29.7349 103.037 29.7349L107.406 31.5147C107.406 31.5147 101.345 55.1669 102.067 55.2671L108.477 39.7734L121.99 45.2073Z" fill="#FFC69E"/>
<path d="M131.33 83.531C131.33 83.531 82.6217 82.7906 76.1233 86.7395C69.6249 90.6869 82.6188 153.726 82.6188 153.726C82.6188 153.726 95.2169 154.11 96.2181 150.925C96.2181 150.925 93.9515 121.387 95.9346 116.284C97.9176 111.182 96.695 104.11 96.695 104.11C96.695 104.11 121.335 107.701 129.159 105.934C136.983 104.165 131.33 83.531 131.33 83.531Z" fill="#0E80A4"/>
<path d="M85.2855 150.519C85.2855 150.519 88.0585 157.609 87.4694 160.239C86.8802 162.869 87.8311 167.968 86.703 170.247C85.5764 172.526 83.5638 175.84 85.4952 176.679C86.2276 176.998 94.7577 170.678 95.2465 168.814C95.7352 166.949 96.1147 161.448 97.7478 158.462C99.3809 155.475 98.0121 153.068 95.6525 151.969C93.293 150.87 90.0046 144.857 90.0046 144.857L85.2855 150.519Z" fill="#163560"/>
<path d="M77.0138 161.521C77.0138 161.521 74.3426 168.646 72.116 170.293C69.8893 171.939 67.1709 176.421 64.77 177.467C62.3691 178.514 58.592 179.806 59.5016 181.638C59.8456 182.333 70.632 182.76 72.2636 181.638C73.8967 180.515 77.9027 176.546 81.1674 175.27C84.4321 173.994 85.0139 171.311 83.9522 169.018C82.8905 166.725 84.4409 160.104 84.4409 160.104L77.0138 161.521Z" fill="#2A4E96"/>
<path d="M158.949 81.874C158.949 81.874 101.148 90.5135 96.6951 95.4256C92.2417 100.338 74.604 164.326 74.604 164.326C74.604 164.326 79.7499 167.083 84.4439 164.532C84.4439 164.532 97.8719 142.846 103.805 136.042C109.738 129.239 112.013 108.19 112.991 107.977C113.968 107.764 145.072 111.565 156.532 104.322C163.283 100.053 158.949 81.874 158.949 81.874Z" fill="#68C2D0"/>
<path d="M138.989 35.8796C135.578 33.4271 125.313 30.7193 118.892 33.4779C115.852 34.7852 111.239 36.4973 108.478 39.7735C105.498 43.3091 102.068 55.2671 102.068 55.2671C103.191 61.5655 108.432 62.337 108.432 62.337C105.363 73.4248 119.827 70.528 118.892 76.6756C117.262 87.4038 127.77 93.0379 133.497 95.5384C140.992 98.8117 162.056 102.935 162.079 95.5384C162.181 61.842 148.796 42.9326 138.989 35.8796Z" fill="white"/>
<path d="M137.822 47.8348C137.822 47.8348 134.023 67.4169 123.733 73.1667H114.051L124.273 60.9633L137.822 47.8348Z" fill="#EBF3FA"/>
<path d="M103.381 31.715C103.381 31.715 100.236 28.137 99.6852 27.0539C99.1345 25.9708 100.165 21.3027 101.448 21.3323C102.257 21.3521 103.253 24.1783 104.137 25.2064C105.022 26.2345 108.868 27.697 107.241 32.0168C107.056 32.5048 103.381 31.715 103.381 31.715Z" fill="#FFC69E"/>
<path d="M111.375 38.8695C110.488 40.1416 111.572 43.704 116.599 42.5941C119.901 41.8664 126.334 36.7512 125.172 34.1407C124.62 32.8996 121.456 29.9874 119.465 22.4154L118.889 22.6763L109.208 27.0864C109.208 27.0864 110.257 30.0945 111.034 32.98C111.69 35.4044 111.743 38.3434 111.375 38.8695Z" fill="#FFDAC0"/>
<path d="M109.209 27.0878C109.209 27.0878 110.259 30.096 111.036 32.9814C116.7 31.44 118.39 25.7339 118.891 22.6777L109.209 27.0878Z" fill="#FFC69E"/>
<path d="M103.697 28.7434C103.697 28.7434 117.27 31.7516 119.101 23.6494C120.932 15.5472 123.916 10.48 115.328 8.21644C106.74 5.95431 104.353 8.69736 103.052 11.2585C101.752 13.8224 100.214 27.7534 103.697 28.7434Z" fill="#FFDAC0"/>
<path d="M109.169 6.74692C109.169 6.74692 109.255 16.0705 116.443 20.5961C120.65 23.2447 120.847 25.9539 120.847 25.9539C120.847 25.9539 123.338 17.9758 123.734 11.9749C123.734 11.9749 112.999 2.79806 109.169 6.74692Z" fill="#163560"/>
<path d="M110.023 8.39414C110.023 8.39414 106.011 9.66906 104.227 11.0794C101.584 13.168 100.896 19.9615 101.21 21.6538C101.21 21.6538 100.49 9.84676 104.469 6.83857C108.689 3.64705 110.023 8.39414 110.023 8.39414Z" fill="#163560"/>
<path d="M137.824 47.8348C136.441 50.9812 134.844 53.9386 133.149 56.6182C126.671 66.8457 118.752 73.0257 115.891 70.1445C115.099 69.3476 113.103 68.1898 115.189 63.9081C116.802 60.5995 118.799 56.4631 120.757 52.3901C124.797 43.9945 128.672 35.8782 128.672 35.8782C129.906 35.8796 142.882 36.3112 137.824 47.8348Z" fill="#FFDAC0"/>
<path d="M124.273 60.9633C123.829 60.7095 99.4089 66.3747 91.8459 68.1376C90.4579 68.4605 89.637 68.6537 89.637 68.6537V71.3756C89.637 71.3756 114.906 72.5081 118.851 70.7777C122.798 69.0458 126.565 65.018 126.565 65.018L124.273 60.9633Z" fill="#FFDAC0"/>
<path d="M137.824 47.8348C136.442 50.9812 134.844 53.9386 133.149 56.6182C127.873 55.9638 123 53.61 120.759 52.3915C124.799 43.9959 128.673 35.8796 128.673 35.8796C129.906 35.8796 142.882 36.3112 137.824 47.8348Z" fill="white"/>
<path d="M45.2114 71.3785H72.3376C72.3376 70.2376 71.369 69.3138 70.1759 69.3138H45.2114V71.3785Z" fill="#0E80A4"/>
<path d="M45.2895 43.161H3.35034L13.4088 71.3785H55.6211L45.2895 43.161Z" fill="#0E80A4"/>
<path d="M2.73169 43.1596L12.7916 71.3785H55.004L44.6709 43.1596H2.73169Z" fill="#68C2D0"/>
<path d="M25.344 57.0089C25.6039 58.0864 26.7305 58.9608 27.8601 58.9608C28.9897 58.9608 29.6925 58.0864 29.4327 57.0089C29.1713 55.9314 28.0462 55.057 26.9166 55.057C25.787 55.057 25.0827 55.93 25.344 57.0089Z" fill="white"/>
<path d="M2.53085 77.7263H143.677C145.075 77.7263 146.208 76.6445 146.208 75.309V73.7943C146.208 72.4588 145.075 71.3771 143.677 71.3771H2.53085C1.13253 71.3785 0 72.4602 0 73.7957V75.3104C0 76.6446 1.13253 77.7263 2.53085 77.7263Z" fill="#2A4E96"/>
<path d="M4.31461 182.299L4.23635 182.289C3.29429 182.178 2.62836 181.375 2.74648 180.497L17.0855 74.5517L25.121 74.7717L5.85025 181.234C5.72621 181.916 5.04847 182.385 4.31461 182.299Z" fill="#2A4E96"/>
<path d="M144.201 182.299L144.279 182.289C145.221 182.178 145.887 181.375 145.769 180.497L131.43 74.5531L123.395 74.7731L142.665 181.234C142.788 181.916 143.466 182.385 144.201 182.299Z" fill="#2A4E96"/>
<path d="M91.8459 68.1361C91.8459 68.1361 83.8015 65.929 81.5631 66.5382C79.9831 66.9684 77.9661 69.1995 76.9148 70.4772C76.6077 70.8496 76.8897 71.3954 77.3873 71.3911C78.7339 71.3784 80.9104 71.2938 82.0503 70.7212C83.1253 70.1825 84.7259 71.37 86.5081 71.377C87.8769 71.3827 89.637 71.3728 89.637 71.3728L91.8459 68.1361Z" fill="#FFDAC0"/>
</g>
<defs>
<clipPath id="clip0">
<rect width="198" height="183" fill="white"/>
</clipPath>
</defs>
</svg>
