<svg width="239" height="184" viewBox="0 0 239 184" fill="none" xmlns="http://www.w3.org/2000/svg">
<path d="M89.4895 62.3735L81.248 176.996C81.248 176.996 80.3841 183.943 84.8024 183.956C92.0676 183.976 120.961 183.956 120.961 183.956C120.961 183.956 115.493 182.51 115.559 179.255C115.637 175.419 125.191 61.2887 125.191 61.2887L89.4895 62.3735Z" fill="#0E80A4"/>
<path d="M123.307 181.875C121.879 181.88 94.2805 181.981 87.2059 181.875C84.1231 181.831 83.5818 178.668 83.5562 176.623C83.5439 175.642 83.6502 174.916 83.6502 174.916L83.8641 171.938L84.4102 164.344L84.8929 157.635L85.5124 149.014L86.0341 141.738L91.8893 60.2911L127.593 59.2078C127.593 59.2078 123.57 106.97 120.723 141.738C120.405 145.611 120.103 149.326 119.824 152.793C119.733 153.901 119.646 154.983 119.561 156.036C119.297 159.326 119.056 162.346 118.846 165.013C118.735 166.419 118.634 167.724 118.541 168.922C118.178 173.61 117.965 176.604 117.962 177.175C117.96 177.506 117.985 177.815 118.031 178.102C118.619 181.757 122.771 181.875 123.307 181.875Z" fill="#68C2D0"/>
<path d="M2.78223 0L22.8563 94.3199L25.6055 107.237L34.9552 151.168H208.656L174.196 0H2.78223Z" fill="#68C2D0"/>
<path d="M2.78219 0L0 1.08479L31.2566 154.45L34.9552 151.169L2.78219 0Z" fill="#3693A1"/>
<path d="M31.2568 154.45H203.889L208.656 151.169H34.9554L31.2568 154.45Z" fill="#0E80A4"/>
<path d="M91.8804 184H129.257V181.922H91.8804V184Z" fill="#3693A2"/>
<path d="M200.241 123.314L172.056 1.99808H2.50488V0H174.194L202.286 123.043L200.241 123.314Z" fill="#3693A2"/>
<path d="M119.756 154.45L119.563 156.037L84.4106 164.344L84.8933 157.635L85.123 154.45H119.756Z" fill="#0E80A4"/>
<path opacity="0.4" d="M123.308 181.875C121.879 181.88 94.281 181.981 87.2064 181.875C84.1236 181.831 83.5823 178.668 83.5566 176.623L118.542 168.923C118.18 173.611 117.967 176.606 117.963 177.176C117.962 177.508 117.986 177.816 118.033 178.104C118.619 181.757 122.771 181.875 123.308 181.875Z" fill="#6B9197"/>
<path opacity="0.4" d="M111.26 120.567L34.9552 151.169L25.6055 107.237L111.26 120.567Z" fill="#6B9197"/>
<path d="M2.78223 0H174.195L202.007 121.491H27.756L2.78223 0Z" fill="#699DEE"/>
<path d="M126.411 136.85C125.916 133.87 123.449 131.454 120.902 131.454C118.355 131.454 116.692 133.87 117.187 136.85C117.682 139.83 120.149 142.245 122.695 142.245C125.243 142.245 126.905 139.83 126.411 136.85Z" fill="#0E80A4"/>
<path d="M193.924 116.227H33.4292L15.2527 31.5334L13.8598 25.0389L12.6709 19.4977L11.719 15.0628L9.88257 6.50736H168.064L168.174 6.97901L170.079 15.0628L171.124 19.4977L172.431 25.0389L173.962 31.5334L193.924 116.227Z" fill="#E9F3FE"/>
<path d="M193.924 116.517H33.4292L15.2527 31.8221L13.8598 25.3276L12.6709 19.7879L11.719 15.3529L9.88257 6.79748H168.064L168.174 7.2677L170.079 15.3529L171.124 19.7879L172.431 25.3276L173.962 31.8221L193.924 116.517Z" fill="#E9F3FE"/>
<path d="M170.079 15.0628H11.719L9.88257 6.50736H168.003L168.174 6.97901L170.079 15.0628Z" fill="#AFCDFB"/>
<path d="M14.2824 10.785C14.0918 9.88888 14.5574 9.1614 15.3247 9.1614C16.092 9.1614 16.8679 9.88888 17.0585 10.785C17.2491 11.6811 16.7836 12.4086 16.0163 12.4086C15.2489 12.4086 14.4743 11.6826 14.2824 10.785Z" fill="#E9F3FE"/>
<path d="M21.463 12.0039C21.9111 11.4106 21.7466 10.3843 21.0957 9.71181C20.4447 9.03929 19.5538 8.97514 19.1057 9.56854C18.6577 10.1619 18.8221 11.1882 19.4731 11.8607C20.124 12.5332 21.0149 12.5973 21.463 12.0039Z" fill="#E9F3FE"/>
<path d="M23.8635 10.785C23.6729 9.88888 24.1384 9.1614 24.9057 9.1614C25.6731 9.1614 26.449 9.88888 26.6396 10.785C26.8302 11.6811 26.3646 12.4086 25.5973 12.4086C24.8312 12.4086 24.0541 11.6826 23.8635 10.785Z" fill="#E9F3FE"/>
<path d="M83.4245 116.517H67.5549C67.4021 115.067 67.2689 113.533 67.148 111.934C66.9354 109.064 66.7716 105.978 66.6519 102.767C66.6226 102.026 66.5981 101.279 66.5749 100.527C66.5444 99.5696 66.5187 98.6005 66.4943 97.6272C66.4552 95.9736 66.4246 94.3014 66.4026 92.6192C66.4014 92.6177 66.4014 92.6149 66.4014 92.6134C66.3733 90.4681 66.3599 88.3086 66.3562 86.1576C66.3562 86.1561 66.3562 86.1561 66.3562 86.1561C66.355 85.6187 66.355 85.0828 66.355 84.5468V84.5454C66.355 84.0408 66.3562 83.5392 66.3574 83.0375C66.3709 78.4068 66.4307 73.8647 66.515 69.6412C66.6971 60.2969 66.994 52.5104 67.1516 48.7672V48.7657C67.2152 47.2293 67.2567 46.3746 67.2567 46.3746C67.2579 46.3746 67.2592 46.3761 67.2604 46.3761C67.2958 46.3818 67.5365 46.4347 67.9153 46.5404C68.1927 46.619 68.5458 46.7277 68.9466 46.872H68.9478C69.3095 46.9992 69.7102 47.1579 70.1306 47.3437C70.1318 47.3437 70.133 47.3437 70.1342 47.3451C70.849 47.6667 71.62 48.0783 72.3446 48.5942C72.3556 48.6014 72.3666 48.6071 72.3776 48.6142C73.5628 49.4747 74.6331 50.6152 75.1207 52.1216C75.5398 53.4008 76.5197 60.2769 77.7049 69.4097C77.7379 69.6698 77.7709 69.9328 77.8063 70.1972C78.4331 75.0466 79.1101 80.4878 79.7906 86.0446C80.5115 91.9331 81.2312 97.9459 81.8935 103.519C82.4604 108.296 82.9846 112.75 83.4245 116.517Z" fill="#2B478B"/>
<path d="M78.9795 116.517H60.5085C60.1541 114.735 59.823 113.016 59.5285 111.402C58.7172 106.957 58.1833 103.314 58.2126 101.358C58.226 100.44 58.5229 99.7225 59.0312 99.1708C59.3795 98.792 59.8279 98.4919 60.3545 98.2575C61.9124 97.5658 64.1521 97.4514 66.4956 97.6272C67.2923 97.6858 68.0999 97.7759 68.8966 97.8888C73.2868 98.5119 77.3629 99.7825 77.3629 99.7825C77.3629 99.7825 77.6354 101.072 77.958 103.326C78.1999 105.016 78.4699 107.252 78.6703 109.892C78.7864 111.425 78.8805 113.096 78.933 114.877C78.9452 115.41 78.9623 115.959 78.9795 116.517Z" fill="#233862"/>
<path d="M70.4493 101.383L70.2648 102.944L69.3704 110.523L69.2177 111.817L68.663 116.516H49.4124C49.2633 113.41 49.1253 110.385 49.0984 107.746C49.0959 107.453 49.0947 107.167 49.0947 106.886C49.0947 102.913 49.3929 99.9669 50.3667 99.2237C51.47 98.3804 55.1308 98.612 59.0285 99.1708C59.4171 99.2251 59.8081 99.2851 60.2003 99.3466C62.4717 99.7039 64.7456 100.146 66.5736 100.526C67.5217 100.723 68.3501 100.904 68.9953 101.049C69.9056 101.252 70.4493 101.383 70.4493 101.383Z" fill="#C65447"/>
<path d="M49.0947 50.2808C49.0947 50.2808 59.67 42.2813 67.2566 46.3732C68.465 47.025 69.8445 48.8444 70.8318 50.1164C73.5736 53.6509 78.9315 109.79 78.9315 109.79C78.9315 109.79 63.7229 115.816 49.0959 107.745V50.2808H49.0947Z" fill="white"/>
<path d="M67.8579 46.1702C67.8579 46.1702 78.5639 51.3026 80.0143 55.2459C81.4646 59.1892 86.1774 83.4063 86.1774 86.2462C86.1774 89.0861 77.9713 86.8807 76.6505 82.3015C75.5532 78.4982 71.8534 66.8142 69.9021 59.425L67.8579 46.1702Z" fill="#2B478B"/>
<path d="M65.6344 50.0807C63.2969 50.6166 59.8635 50.0449 57.3501 48.1069C58.4852 44.9368 58.9507 42.4328 59.1157 40.812C59.1255 40.7263 59.1328 40.6419 59.1401 40.5619C59.2147 39.7215 59.2037 39.1527 59.1695 38.8911H65.2116C65.2116 38.8911 66.8636 39.7744 66.8636 40.3847C66.8636 40.7106 66.866 41.0236 66.8709 41.3223C66.8831 42.1355 66.9112 42.8444 66.9467 43.4547C67.0615 45.4385 67.2558 46.3718 67.2558 46.3718C67.2558 46.3718 67.995 49.539 65.6344 50.0807Z" fill="#FFB27D"/>
<path d="M66.9476 43.4547C62.3692 44.4895 59.7116 41.5638 59.1166 40.812C59.0323 40.7048 58.9883 40.6405 58.9883 40.6405C59.0372 40.6119 59.0873 40.5862 59.141 40.5619C60.8455 39.7544 64.7128 40.3961 66.8718 41.3223C66.8828 42.1355 66.9109 42.8458 66.9476 43.4547Z" fill="#FFC7A0"/>
<path d="M57.6212 37.7306C58.4386 42.8802 64.1203 42.7115 66.575 42.3871C67.2654 42.297 67.7004 42.1941 67.7004 42.1941C68.4799 41.9511 68.9137 40.5148 69.1165 38.6353C69.5173 34.915 69.0114 29.4524 68.4738 28.0561C67.6649 25.9536 66.1413 23.6812 60.4205 25.3205C54.6985 26.9627 56.5716 31.1318 57.6212 37.7306Z" fill="#FFB27D"/>
<path d="M68.6865 25.1832C67.9045 23.9169 66.2464 22.3691 64.7411 21.4172C61.5055 19.3705 57.3659 21.4815 57.3487 21.4901C52.6763 23.8926 51.4557 28.0746 53.9324 34.5891C56.5521 41.478 59.0471 40.702 59.0471 40.702C59.0471 40.702 58.5181 40.3161 58.5657 38.1693C58.5682 38.0478 58.5731 37.9449 58.5779 37.8578C58.6024 37.4176 58.4692 36.9759 58.1882 36.6829C57.6078 36.0769 57.3243 34.2446 57.8106 33.7344C58.3971 33.1184 59.2206 33.8659 59.4846 34.4419C59.7143 34.8478 60.1261 34.9907 60.5097 34.7063C61.9637 33.6315 61.0192 31.4791 62.4085 30.1642C63.7978 28.8478 66.6179 29.9526 68.7036 28.905C71.432 27.7159 69.2754 26.138 68.6865 25.1832Z" fill="#233862"/>
<path d="M69.4365 116.518H46.4092C46.5741 110.932 46.7855 104.263 47.0079 97.5115C47.0641 95.7606 47.124 94.0027 47.1826 92.259C47.2095 91.5201 47.2327 90.7854 47.2572 90.0508C47.7655 75.0566 48.2713 61.516 48.3776 60.7857C48.6195 59.1363 48.848 57.73 49.0948 56.5108C49.8182 52.9591 50.7175 51.0111 52.6774 49.336C52.868 49.1659 54.4369 48.2426 55.8176 47.4365C56.9466 46.782 57.9497 46.2088 57.9803 46.1931V46.1917H57.9815C58.21 46.3217 58.4617 46.6933 58.7268 47.245C58.992 47.7967 59.2718 48.5313 59.5577 49.3889C60.6097 52.5518 61.7473 57.3912 62.5366 61.0058C62.5378 61.0101 62.5391 61.0143 62.5391 61.0172C62.5403 61.0201 62.5403 61.0215 62.5403 61.0244C62.5403 61.0258 62.5403 61.0258 62.5403 61.0258C63.0486 63.3597 63.4139 65.1763 63.5178 65.6994C63.695 66.5798 63.9271 68.282 64.202 70.5888V70.5946C64.5735 73.7403 65.0182 78.0095 65.4887 82.8546V82.856C65.5375 83.3548 65.5852 83.8579 65.6341 84.3653C65.689 84.9456 65.7465 85.533 65.8027 86.1261V86.1275C65.821 86.3191 65.8381 86.5092 65.8552 86.7007V86.7021C66.0361 88.6201 66.2193 90.5982 66.4002 92.612C66.4002 92.6134 66.4002 92.6163 66.4014 92.6177C66.5566 94.2771 68.7083 95.4791 68.8573 97.1699C68.8683 97.2928 68.8793 97.5415 68.8928 97.8874C68.9209 98.602 68.9539 99.7368 68.9942 101.049C69.0113 101.633 69.0284 102.252 69.048 102.884C69.1323 105.695 69.2361 108.775 69.3534 110.257C69.3595 110.327 69.3644 110.416 69.3681 110.525C69.3815 110.821 69.3925 111.256 69.4023 111.802C69.4243 112.963 69.4341 114.624 69.4365 116.518Z" fill="#2B478B"/>
<path d="M53.7286 66.8299C53.7213 66.8642 53.3621 81.9928 63.0906 83.8293C72.8191 85.6674 66.3554 86.1533 66.3554 86.1533C66.3554 86.1533 48.0506 85.2429 47.7488 84.6783C47.447 84.1138 53.7286 66.8299 53.7286 66.8299Z" fill="#233862"/>
<path d="M61.949 90.3252C61.949 90.3252 61.7669 90.4767 61.4163 90.7412C61.4101 90.744 61.404 90.7497 61.3979 90.754C59.9134 91.8617 55.5085 94.8831 49.0949 96.9083C48.4217 97.1213 47.7252 97.3242 47.0092 97.51C47.0654 95.7606 47.1253 94.0027 47.1827 92.259C46.336 92.1818 45.5246 92.0561 44.772 91.8688C44.7976 91.6387 44.8245 91.4086 44.8489 91.1771C45.6652 90.7855 46.4753 90.4081 47.2573 90.0508C47.8938 89.7593 48.5109 89.482 49.0937 89.2247C51.7281 88.0542 53.6806 87.2609 53.6806 87.2609L61.4786 90.1509L61.949 90.3252Z" fill="#233862"/>
<path d="M64.0127 90.0723C64.0127 90.0723 63.0108 90.3653 61.4162 90.7412C61.4101 90.7412 61.4052 90.7426 61.3991 90.7455C58.4581 91.4372 53.5119 92.4062 49.0949 92.3534C48.4436 92.3448 47.8034 92.3148 47.1827 92.259C46.3359 92.1818 45.5246 92.0561 44.7719 91.8688C43.1578 91.4701 41.8052 90.7955 40.9206 89.7407C34.3494 81.9127 44.5068 53.8153 46.6414 51.0811C49.134 47.8896 53.6842 46.7691 56.1976 46.3846C56.3027 46.3689 56.4029 46.3532 56.5006 46.3389C57.384 46.216 57.951 46.1903 57.9828 46.1888C57.984 46.1888 57.984 46.1888 57.984 46.1888C57.984 46.1888 57.7873 46.9292 57.4574 48.1869C57.3291 48.6729 57.18 49.2374 57.0175 49.8663C55.4743 55.7776 52.4966 67.3959 51.1843 73.949C50.7029 76.3473 50.4463 78.0652 50.5636 78.5783C51.0755 80.8165 56.3846 81.9671 59.7484 82.4759C61.1511 82.6874 62.2165 82.7889 62.4536 82.8089C62.4707 82.8089 62.4866 82.8103 62.5037 82.8132L62.698 83.7465L63.1635 85.9847L63.6217 88.1828L64.0127 90.0723Z" fill="#2B478B"/>
<path d="M82.3384 103.54L59.7729 102.428L64.3513 69.5312L86.9167 70.6432L82.3384 103.54Z" fill="#68C2D0"/>
<path d="M62.5024 82.8146C62.5024 82.8146 66.8951 82.4559 67.115 83.6536C67.6282 86.4449 63.3382 88.7374 61.9489 88.5816C60.5585 88.4244 61.4907 82.6288 62.5024 82.8146Z" fill="#FFB27D"/>
<path d="M85.6837 77.3234C85.6837 77.3234 81.4804 75.787 81.0296 76.8918C79.9776 79.4687 83.6981 82.8603 85.0813 83.0833C86.4644 83.3077 86.7039 77.4163 85.6837 77.3234Z" fill="#FFB27D"/>
<path d="M58.4384 44.538C58.4384 44.538 56.591 45.5685 55.6636 47.1235C55.6636 47.1235 62.572 61.153 62.5403 61.0215C62.5109 60.89 60.2065 46.336 58.4384 44.538Z" fill="#233862"/>
<path d="M67.043 44.7367C67.6515 45.0054 68.8183 46.4032 69.081 47.1764L69.9021 59.4236C69.9021 59.4236 68.1488 50.4351 67.2568 46.3718C67.0295 45.3399 67.0711 45.0269 67.043 44.7367Z" fill="#233862"/>
<path d="M71.8315 69.9C71.8315 69.9 72.0099 68.9867 73.0375 69.0939C74.0651 69.1996 79.836 69.5312 79.836 69.5312C79.836 69.5312 80.9491 69.5098 80.8453 70.3445L71.8315 69.9Z" fill="#C65447"/>
<path d="M65.2114 38.8926C65.2114 38.8926 65.9604 39.6915 67.1689 39.4443C67.8861 39.297 68.2869 38.208 68.2869 38.208C68.2869 38.208 66.9098 37.9164 65.2114 38.8926Z" fill="white"/>
<path d="M172.142 49.1288L155.473 49.2017L150.068 24.9946L166.736 24.9231L172.142 49.1288Z" fill="white"/>
<path d="M162.602 28.1032L155.613 28.1332L155.533 27.7759L162.522 27.7444L162.602 28.1032Z" fill="#ADCBF9"/>
<path d="M163.718 29.0979L154.943 29.1365L154.862 28.7778L163.638 28.7406L163.718 29.0979Z" fill="#ADCBF9"/>
<path d="M166.131 34.0245L154.733 34.0731L154.654 33.7158L166.051 33.6658L166.131 34.0245Z" fill="#ADCBF9"/>
<path d="M166.394 35.2051L154.996 35.2537L154.915 34.8964L166.314 34.8464L166.394 35.2051Z" fill="#ADCBF9"/>
<path d="M166.659 36.3856L155.26 36.4342L155.18 36.0755L166.578 36.0269L166.659 36.3856Z" fill="#ADCBF9"/>
<path d="M166.921 37.5647L155.524 37.6147L155.444 37.256L166.842 37.2074L166.921 37.5647Z" fill="#ADCBF9"/>
<path d="M167.185 38.7453L155.787 38.7953L155.707 38.4366L167.106 38.388L167.185 38.7453Z" fill="#ADCBF9"/>
<path d="M167.827 41.618L156.429 41.6666L156.348 41.3093L167.747 41.2593L167.827 41.618Z" fill="#ADCBF9"/>
<path d="M168.09 42.7986L156.691 42.8472L156.612 42.4885L168.009 42.4399L168.09 42.7986Z" fill="#ADCBF9"/>
<path d="M168.353 43.9777L156.956 44.0277L156.876 43.669L168.274 43.6204L168.353 43.9777Z" fill="#ADCBF9"/>
<path d="M168.617 45.1583L157.22 45.2083L157.139 44.8496L168.538 44.7995L168.617 45.1583Z" fill="#ADCBF9"/>
<path d="M168.881 46.3389L157.483 46.3875L157.403 46.0301L168.8 45.9801L168.881 46.3389Z" fill="#ADCBF9"/>
<path d="M178.858 79.2085L162.19 79.28L156.784 55.0729L173.453 55.0015L178.858 79.2085Z" fill="white"/>
<path d="M169.319 58.1815L162.329 58.213L162.249 57.8542L169.238 57.8242L169.319 58.1815Z" fill="#ADCBF9"/>
<path d="M170.434 59.1777L161.659 59.2148L161.579 58.8575L170.353 58.8189L170.434 59.1777Z" fill="#ADCBF9"/>
<path d="M172.848 64.1043L161.449 64.1529L161.37 63.7942L172.767 63.7456L172.848 64.1043Z" fill="#ADCBF9"/>
<path d="M173.11 65.2835L161.712 65.3335L161.632 64.9747L173.031 64.9261L173.11 65.2835Z" fill="#ADCBF9"/>
<path d="M173.374 66.464L161.977 66.514L161.896 66.1552L173.294 66.1052L173.374 66.464Z" fill="#ADCBF9"/>
<path d="M173.638 67.6445L162.24 67.6931L162.16 67.3358L173.558 67.2858L173.638 67.6445Z" fill="#ADCBF9"/>
<path d="M173.901 68.8251L162.504 68.8737L162.424 68.5163L173.822 68.4663L173.901 68.8251Z" fill="#ADCBF9"/>
<path d="M174.543 71.6964L163.145 71.7464L163.064 71.3877L174.463 71.3391L174.543 71.6964Z" fill="#ADCBF9"/>
<path d="M174.805 72.8769L163.408 72.927L163.327 72.5682L174.726 72.5182L174.805 72.8769Z" fill="#ADCBF9"/>
<path d="M175.071 74.0575L163.672 74.1061L163.592 73.7488L174.99 73.6987L175.071 74.0575Z" fill="#ADCBF9"/>
<path d="M175.333 75.2381L163.936 75.2867L163.856 74.9279L175.254 74.8793L175.333 75.2381Z" fill="#ADCBF9"/>
<path d="M175.597 76.4171L164.199 76.4672L164.119 76.1084L175.518 76.0598L175.597 76.4171Z" fill="#ADCBF9"/>
<path d="M185.62 109.49L168.951 109.561L163.546 85.3557L180.215 85.2828L185.62 109.49Z" fill="white"/>
<path d="M176.081 88.4642L169.092 88.4943L169.011 88.1355L176 88.1055L176.081 88.4642Z" fill="#ADCBF9"/>
<path d="M177.196 89.459L168.42 89.4961L168.341 89.1388L177.116 89.1002L177.196 89.459Z" fill="#ADCBF9"/>
<path d="M179.61 94.3856L168.211 94.4341L168.131 94.0754L179.529 94.0268L179.61 94.3856Z" fill="#ADCBF9"/>
<path d="M179.871 95.5647L168.474 95.6147L168.395 95.256L179.792 95.2074L179.871 95.5647Z" fill="#ADCBF9"/>
<path d="M180.136 96.7452L168.739 96.7952L168.658 96.4365L180.057 96.3879L180.136 96.7452Z" fill="#ADCBF9"/>
<path d="M180.4 97.9258L169.001 97.9744L168.922 97.617L180.319 97.567L180.4 97.9258Z" fill="#ADCBF9"/>
<path d="M180.663 99.1063L169.265 99.1549L169.186 98.7961L180.584 98.7475L180.663 99.1063Z" fill="#ADCBF9"/>
<path d="M181.304 101.978L169.907 102.028L169.827 101.669L181.225 101.62L181.304 101.978Z" fill="#ADCBF9"/>
<path d="M181.567 103.158L170.169 103.208L170.089 102.85L181.488 102.799L181.567 103.158Z" fill="#ADCBF9"/>
<path d="M181.832 104.339L170.433 104.387L170.354 104.03L181.751 103.98L181.832 104.339Z" fill="#ADCBF9"/>
<path d="M182.095 105.519L170.697 105.568L170.618 105.209L182.015 105.161L182.095 105.519Z" fill="#ADCBF9"/>
<path d="M182.359 106.698L170.961 106.748L170.88 106.39L182.279 106.341L182.359 106.698Z" fill="#ADCBF9"/>
<path d="M163.702 109.693L105.402 109.944L88.6235 34.8063L96.2187 25.2404L144.797 25.0303L163.702 109.693Z" fill="white"/>
<path d="M128.738 37.7291L108.191 37.8177L107.956 36.7644L128.503 36.6758L128.738 37.7291Z" fill="#ADCBF9"/>
<path d="M132.018 40.6533L106.222 40.7648L105.986 39.7115L131.784 39.6014L132.018 40.6533Z" fill="#ADCBF9"/>
<path d="M139.111 55.1358L105.604 55.2802L105.369 54.2268L138.876 54.0825L139.111 55.1358Z" fill="#ADCBF9"/>
<path d="M139.886 58.606L106.379 58.7504L106.144 57.6971L139.651 57.5527L139.886 58.606Z" fill="#ADCBF9"/>
<path d="M140.66 62.0748L107.153 62.2191L106.918 61.1672L140.426 61.0214L140.66 62.0748Z" fill="#ADCBF9"/>
<path d="M141.435 65.545L107.929 65.6893L107.693 64.636L141.2 64.4916L141.435 65.545Z" fill="#ADCBF9"/>
<path d="M142.211 69.0138L108.704 69.1595L108.468 68.1062L141.975 67.9618L142.211 69.0138Z" fill="#ADCBF9"/>
<path d="M144.097 77.4577L110.589 77.6021L110.354 76.5487L143.861 76.4044L144.097 77.4577Z" fill="#ADCBF9"/>
<path d="M144.872 80.9265L111.364 81.0723L111.128 80.019L144.636 79.8746L144.872 80.9265Z" fill="#ADCBF9"/>
<path d="M145.646 84.3967L112.139 84.541L111.904 83.4891L145.41 83.3433L145.646 84.3967Z" fill="#ADCBF9"/>
<path d="M146.421 87.8669L112.913 88.0112L112.679 86.9579L146.185 86.8135L146.421 87.8669Z" fill="#ADCBF9"/>
<path d="M147.195 91.3357L113.688 91.4814L113.453 90.4281L146.96 90.2837L147.195 91.3357Z" fill="#ADCBF9"/>
<path d="M88.6235 34.8063L98.3459 34.7649L96.2187 25.2404L88.6235 34.8063Z" fill="#ADCBF9"/>
<path d="M177.334 168.623H129.872V149.015H177.486C181.188 149.015 184.189 152.526 184.189 156.856V160.607C184.189 165.033 181.121 168.623 177.334 168.623Z" fill="#FCECDB"/>
<path d="M224.7 157.082V160.032C224.7 161.609 224.338 163.085 223.704 164.353C222.432 166.905 220.065 168.622 217.355 168.622H128.418C127.829 168.622 127.353 168.064 127.353 167.377V166.935C127.353 166.248 127.829 165.69 128.418 165.69H182.634C182.923 165.277 183.178 164.83 183.395 164.353C183.903 163.234 184.189 161.959 184.189 160.604V156.853C184.189 156.163 184.113 155.494 183.969 154.858C183.726 153.779 183.292 152.79 182.712 151.947H128.418C127.829 151.947 127.353 151.389 127.353 150.701V150.26C127.353 149.571 127.829 149.014 128.418 149.014H217.803C220.952 149.014 223.609 151.484 224.434 154.858C224.607 155.566 224.7 156.312 224.7 157.082Z" fill="#699DEE"/>
<path d="M224.434 154.861H183.969C183.726 153.782 183.292 152.793 182.712 151.949H128.418C127.829 151.949 127.353 151.392 127.353 150.703V150.263C127.353 149.574 127.829 149.017 128.418 149.017H217.803C220.953 149.017 223.609 151.486 224.434 154.861Z" fill="#548EE2"/>
<path d="M129.873 158.819L136.458 159.149L129.873 159.348V158.819Z" fill="#F4D2B8"/>
<path d="M129.873 161.896L145.54 162.225L129.873 162.423V161.896Z" fill="#F4D2B8"/>
<path d="M130.143 183.833H180.667V168.582H129.733C126.245 168.582 123.418 171.889 123.418 175.968C123.419 180.312 126.43 183.833 130.143 183.833Z" fill="#2B478B"/>
<path d="M177.768 183.833H235.269V168.582H177.621C174.075 168.582 171.202 171.943 171.202 176.091V176.153C171.203 180.395 174.141 183.833 177.768 183.833Z" fill="#FCECDB"/>
<path d="M167.362 183.833H237.265C237.804 183.833 238.24 183.323 238.24 182.693C238.24 182.062 237.804 181.552 237.265 181.552H167.362C166.823 181.552 166.387 182.062 166.387 182.693C166.387 183.323 166.825 183.833 167.362 183.833Z" fill="#2B478B"/>
<path d="M167.362 170.863H237.265C237.804 170.863 238.241 170.353 238.241 169.722C238.241 169.092 237.804 168.582 237.265 168.582H167.362C166.824 168.582 166.387 169.092 166.387 169.722C166.387 170.353 166.825 170.863 167.362 170.863Z" fill="#2B478B"/>
<path d="M235.269 176.207L227.501 176.464L235.269 176.618V176.207Z" fill="#F4D2B8"/>
<path d="M235.269 172.698L216.791 172.954L235.269 173.108V172.698Z" fill="#F4D2B8"/>
<path d="M216.98 172.902C216.98 172.902 217.772 173.557 218.034 174.635C218.081 174.823 218.11 175.025 218.116 175.238C218.16 176.668 218.116 179.907 218.116 179.907L220.454 178.288L222.785 179.907V175.518C222.785 174.688 222.585 173.88 222.213 173.351C222.034 173.095 221.815 172.902 221.567 172.902H216.98V172.902Z" fill="#699DEE"/>
<path d="M216.98 172.902C216.98 172.902 217.772 173.557 218.034 174.635L222.72 174.699C222.72 174.699 222.537 173.157 221.569 172.902H216.98Z" fill="#568CDB"/>
<path d="M182.937 149.057H234.558V126.648H182.767C178.634 126.648 175.282 130.568 175.282 135.403V140.101C175.282 145.048 178.709 149.057 182.937 149.057Z" fill="#FCECDB"/>
<path d="M176.495 135.343V140.165C176.507 142.225 177.482 144.011 178.914 144.968C179.619 145.436 180.434 145.705 181.301 145.705H237.36C238.017 145.705 238.55 146.328 238.55 147.097V147.666C238.55 148.435 238.017 149.058 237.36 149.058H140.516C137.737 149.058 135.281 147.443 133.798 144.969C132.863 143.411 132.313 141.513 132.313 139.464V135.659C132.313 134.255 132.588 132.925 133.078 131.741C134.323 128.729 136.961 126.65 140.015 126.65H237.36C238.017 126.65 238.55 127.272 238.55 128.041V128.61C238.55 129.379 238.017 130.002 237.36 130.002H181.13C179.786 130.002 178.57 130.671 177.719 131.741C176.968 132.689 176.504 133.952 176.495 135.343Z" fill="#B5453C"/>
<path d="M234.557 137.852L227.372 138.229L234.557 138.456V137.852Z" fill="#F4D2B8"/>
<path d="M234.557 132.695L217.461 133.072L234.557 133.3V132.695Z" fill="#F4D2B8"/>
<path d="M217.637 132.998C217.637 132.998 218.765 133.708 219.138 134.876C219.204 135.08 219.247 135.299 219.256 135.529C219.318 137.081 219.256 140.593 219.256 140.593L222.587 138.836L225.909 140.593V135.834C225.909 134.933 225.624 134.059 225.094 133.485C224.837 133.208 224.526 132.998 224.174 132.998H217.637V132.998Z" fill="#68C2D0"/>
<path d="M183.834 118.34C186.788 124.355 190.505 126.676 190.505 126.676H205.967C205.966 126.678 181.579 113.75 183.834 118.34Z" fill="#233862"/>
<path d="M195.709 164.883C196.112 165.423 196.164 166.026 195.964 166.671C195.964 166.674 195.963 166.677 195.961 166.679C195.592 167.871 194.374 169.202 192.959 170.531C192.778 170.701 192.617 170.857 192.477 171.002C192.441 171.039 192.404 171.077 192.37 171.114C192.342 171.143 192.313 171.174 192.287 171.202C190.967 172.625 191.463 172.951 189.093 175.838C186.39 179.128 184.528 179.187 183.999 178.888C183.55 178.632 184.461 176.887 185.47 174.926C185.519 174.832 185.566 174.736 185.616 174.64C185.751 174.38 185.884 174.114 186.017 173.853C187.199 171.492 186.896 170.386 186.615 166.872C186.387 164.018 182.818 150.925 182.818 150.925L187.999 149.882C187.999 149.882 189.559 160.308 191.279 161.913C192.197 162.769 193.226 162.779 194.11 163.414C194.172 163.458 194.233 163.504 194.293 163.549C194.793 163.94 195.305 164.341 195.709 164.883Z" fill="#FFB27D"/>
<path d="M195.709 164.883C196.112 165.423 196.164 166.026 195.965 166.671C195.965 166.674 195.963 166.677 195.961 166.68C195.509 167.87 194.321 169.195 192.954 170.52C192.775 170.693 192.618 170.853 192.477 171.002C192.441 171.039 192.404 171.077 192.37 171.114C192.342 171.143 192.314 171.174 192.287 171.202C190.967 172.625 191.463 172.951 189.093 175.838C186.39 179.128 184.528 179.187 183.999 178.888C183.55 178.632 184.461 176.887 185.47 174.926C185.997 174.7 188.44 173.54 190.289 170.773C191.917 168.343 193.003 165.222 194.111 163.414C194.173 163.458 194.234 163.504 194.294 163.549C194.793 163.94 195.305 164.341 195.709 164.883Z" fill="#233862"/>
<path d="M153.937 161.098C153.617 162.969 151.339 162.656 148.792 161.929C146.246 161.201 146.851 162.066 143.227 161.597C139.602 161.128 138.504 159.548 138.394 158.917C138.295 158.358 140.086 158.161 142.007 157.903C142.249 157.871 142.491 157.835 142.734 157.801C144.903 157.482 146.491 155.846 148.461 154.501C150.327 153.227 153.111 148.039 153.111 148.039L158.082 148.5C158.082 148.5 155.473 153.133 154.465 155.148C153.871 156.333 153.903 157.9 153.978 159.11C154.013 159.766 154.05 160.439 153.937 161.098Z" fill="#FFB27D"/>
<path d="M148.791 161.929C146.244 161.201 146.849 162.066 143.225 161.597C139.601 161.128 138.503 159.548 138.393 158.917C138.294 158.358 140.085 158.161 142.006 157.903L142.024 157.945C142.024 157.945 144.198 159.748 147.214 159.832C149.673 159.902 152.278 159.077 153.976 159.11C154.015 159.768 154.052 160.441 153.938 161.1C153.617 162.968 151.337 162.656 148.791 161.929Z" fill="#233862"/>
<path d="M172.985 123.921L177.632 138.546L183.698 157.642C183.698 157.642 185.344 157.828 186.922 157.298C188.373 156.808 190.038 155.523 190.038 155.523C190.038 155.523 188.354 135.019 185.212 123.249C184.407 120.228 183.504 117.784 182.508 116.409C177.635 109.676 172.985 123.921 172.985 123.921Z" fill="#68C2D0"/>
<path d="M177.709 100.694C180.752 99.5452 189.435 101.02 198.157 103.017L199.983 99.4937L218.821 97.7729C218.821 97.7729 225.038 113.898 221.634 124.172C221.134 125.683 220.139 126.651 218.446 126.684C218.446 126.685 218.171 126.682 218.171 126.684C218.171 126.684 206.959 126.677 203.318 126.677C193.95 126.677 183.49 119.143 182.138 118.827C179.924 118.308 179.038 123.489 176.823 128.929C174.609 134.369 156.007 153.019 156.007 153.019C156.007 153.019 153.148 153.052 151.967 152.534C150.698 151.977 150.232 151.254 150.232 151.254C150.232 151.254 170.844 103.286 177.709 100.694Z" fill="#0E80A4"/>
<path d="M200.093 69.1495C206.801 73.4701 220.411 82.4272 220.481 82.3686C220.481 82.3686 225.484 84.5739 228.321 82.3686C233.051 78.694 235.587 68.8065 226.938 60.2968C222.625 56.0534 219.559 55.0201 219.093 48.2426C218.841 44.5666 214.544 32.4323 207.406 33.5557C206.81 33.65 203.138 33.8501 200.725 35.3323C194.574 39.1097 190.037 67.4773 200.093 69.1495Z" fill="#233862"/>
<path d="M205.716 65.4721C205.687 65.4949 209.016 66.8241 211.244 65.6707C213.338 64.5874 214.925 60.5569 214.895 60.554C213.942 60.5026 212.896 59.5279 212.089 53.1334L211.684 53.3035L204.861 56.1748C204.861 56.1748 205.356 58.7361 205.675 61.1729C205.943 63.221 206.089 65.1819 205.716 65.4721Z" fill="#FFB27D"/>
<path d="M204.861 56.1763C204.861 56.1763 205.356 58.7375 205.675 61.1743C209.593 60.3497 211.131 55.7818 211.683 53.3035L204.861 56.1763Z" fill="#ED975D"/>
<path d="M203.844 58.7175C203.844 58.7175 213.178 57.2525 212.309 50.4664C211.439 43.6804 212.059 38.9225 206.062 39.5699C200.065 40.2188 199.242 43.0101 199.062 45.3583C198.881 47.7051 201.394 58.9233 203.844 58.7175Z" fill="#FFB27D"/>
<path d="M199.402 41.6395C199.402 41.6395 205.377 47.6623 209.442 48.1482C213.507 48.6342 215.045 47.1078 215.045 47.1078C215.045 47.1078 212.649 44.7809 211.208 41.0263C210.782 39.9201 209.885 39.1597 208.852 39.0554C205.949 38.7624 200.448 38.6281 199.402 41.6395Z" fill="#233862"/>
<path d="M203.137 41.0992C203.137 41.0992 201.138 43.3603 200.509 45.0368C199.902 46.6547 199.72 50.525 200.203 52.0629C200.203 52.0629 197.089 44.9782 198.852 41.5366C200.722 37.8877 203.137 41.0992 203.137 41.0992Z" fill="#233862"/>
<path d="M197.856 81.5568C198.138 103.659 197.933 99.0407 200 101.137C200.499 101.642 201.899 101.943 203.742 102.085C209.536 102.535 219.72 101.419 220.107 100.165C221.444 95.832 220.501 94.4857 221.615 87.8511C221.731 87.1451 221.875 86.3819 222.044 85.5501C222.974 80.9936 223.878 79.4429 220.58 72.1223C217.589 65.4906 214.482 60.1081 214.202 60.3025C206.311 65.7822 205.675 61.1758 205.675 61.1758C205.675 61.1758 197.718 70.7746 197.856 81.5568Z" fill="white"/>
<path d="M177.631 138.546L183.698 157.642C183.698 157.642 185.344 157.828 186.921 157.298C188.373 156.808 190.038 155.523 190.038 155.523C190.038 155.523 188.353 135.019 185.212 123.249L177.631 138.546Z" fill="#68C2D0"/>
<path d="M205.675 61.1743C205.675 61.1743 197.556 62.7851 196.601 66.8742C195.647 70.9632 190.036 95.0045 190.036 95.0045C190.036 95.0045 194.164 95.872 196.071 93.641C197.978 91.4099 202.706 72.947 202.706 72.947L205.675 61.1743Z" fill="white"/>
<path d="M203.74 102.085C209.534 102.535 219.719 101.419 220.106 100.165C221.443 95.832 220.499 94.4857 221.614 87.8511L218.819 78.6468C218.819 78.6468 219.281 88.8973 216.697 91.5929C214.115 94.2884 206.117 96.7967 204.859 99.0492C204.256 100.13 203.856 101.215 203.74 102.085Z" fill="#EBF3FF"/>
<path d="M210.379 97.7744C210.379 97.7744 204.663 96.2851 203.74 96.8797C202.818 97.4728 200.564 99.6338 200.281 100.386C199.999 101.137 202.334 99.8153 203.094 99.5767C203.587 99.4223 204.882 99.9483 205.522 100.198C208.22 101.25 209.873 100.709 209.873 100.709L210.379 97.7744Z" fill="#FFB27D"/>
<path d="M214.207 60.2968C214.207 60.2968 221.883 60.8499 224.539 65.1848C228.279 71.2862 235.698 97.2913 231.446 100.76C226.658 104.666 209.652 101.782 209.652 101.782C209.652 101.782 209.086 98.6876 209.873 97.1912C210.66 95.6948 223.455 93.2765 224.047 92.5862C224.637 91.8959 216.665 79.1156 216.665 77.0432C216.665 74.9708 214.207 60.2968 214.207 60.2968Z" fill="white"/>
<path d="M203.465 98.7391C203.465 98.7391 202.267 100.546 201.875 100.761C201.483 100.977 201.229 100.923 201.229 100.923L202.036 99.2236L203.465 98.7391Z" fill="#FFB27D"/>
<path d="M203.741 96.8782L200.258 98.8563C200.258 98.8563 200.406 99.1393 200.835 99.1164C201.264 99.0935 202.345 98.6305 202.345 98.6305L203.741 96.8782Z" fill="#FFB27D"/>
<path d="M201.874 103.531H174.329L166.043 79.4286H193.545L201.874 103.531Z" fill="#68C2D0"/>
<path d="M174.006 102.592H210.379V103.531H174.329L174.006 102.592Z" fill="#3C8F9C"/>
<path d="M181.283 91.4799C181.075 90.6324 181.494 89.9463 182.219 89.9463C182.943 89.9463 183.698 90.6338 183.906 91.4799C184.114 92.3274 183.695 93.0135 182.97 93.0135C182.246 93.0135 181.49 92.3274 181.283 91.4799Z" fill="white"/>
</svg>
