<svg width="104" height="94" viewBox="0 0 104 94" fill="none" xmlns="http://www.w3.org/2000/svg">
<path d="M102.919 27.5928C102.18 26.871 101.126 26.416 99.9544 26.416H90.0361V1.5C90.0361 0.6714 89.2933 0 88.3765 0H15.6232C14.7065 0 13.9637 0.6714 13.9637 1.5V26.4158H4.04538C2.87394 26.4158 1.82044 26.871 1.08094 27.5926C0.41246 28.2452 0 29.115 0 30.0722V90.3434C0 92.3598 1.81469 94 4.04538 94H99.9546C102.185 94 104 92.3598 104 90.3436V30.0722C104 29.115 103.588 28.2452 102.919 27.5928ZM15.6232 33.8976C16.54 33.8976 17.2828 33.2262 17.2828 32.3976V3H86.717V32.3976C86.717 33.2262 87.4598 33.8976 88.3765 33.8976C89.2933 33.8976 90.0361 33.2262 90.0361 32.3976V29.4158H98.4462L53.8678 71.3786C53.3684 71.8488 52.705 72.1078 52 72.1078C51.295 72.1078 50.6314 71.8488 50.1322 71.3786L5.5536 29.4158H13.9637V32.3976C13.9637 33.2262 14.7067 33.8976 15.6232 33.8976ZM99.9546 91H4.04538C3.65173 91 3.31915 90.6994 3.31915 90.3436V31.644L33.6637 60.208L6.96335 85.3418C6.32873 85.9392 6.34997 86.8888 7.01115 87.4626C7.33289 87.7418 7.74689 87.8806 8.16024 87.8806C8.59637 87.8806 9.03163 87.7264 9.35757 87.4194L35.9645 62.3736L47.738 73.4562C48.8692 74.521 50.3829 75.1076 52.0002 75.1076C53.6175 75.1076 55.1311 74.521 56.2625 73.4562L68.0359 62.3736L78.4428 72.1696C78.7687 72.4764 79.204 72.6308 79.6401 72.6308C80.0534 72.6308 80.4675 72.492 80.7892 72.2128C81.4504 71.639 81.4716 70.6894 80.837 70.092L70.3368 60.208L100.681 31.644V90.3436C100.681 90.6994 100.348 91 99.9546 91Z" fill="#0E80A4"/>
<path d="M86.1186 75.0642C85.4837 74.4664 84.4333 74.4476 83.7722 75.021C83.111 75.5948 83.0897 76.5444 83.7244 77.1418L94.6422 87.4192C94.9681 87.726 95.4033 87.8804 95.8395 87.8804C96.2528 87.8804 96.6668 87.7416 96.9886 87.4624C97.6497 86.8886 97.671 85.939 97.0364 85.3416L86.1186 75.0642V75.0642Z" fill="#0E80A4"/>
<path d="M32.3943 49.6H63.7487C66.6076 49.6 68.9337 47.4976 68.9337 44.9136C68.9337 43.991 68.637 43.1294 68.1258 42.4034C69.4851 41.5576 70.3777 40.1416 70.3777 38.5408C70.3777 37.6182 70.0812 36.7568 69.5699 36.0308C70.9292 35.185 71.8218 33.769 71.8218 32.1682C71.8218 31.2456 71.5251 30.384 71.0137 29.658C72.3732 28.8122 73.2658 27.3962 73.2658 25.7954C73.2658 23.2114 70.9398 21.109 68.0809 21.109L58.6673 21.1092C60.2388 18.067 61.0861 14.4564 61.0861 10.6864C61.0861 8.10239 58.76 5.99999 55.9012 5.99999C53.0423 5.99999 50.7162 8.10239 50.7162 10.6864C50.7162 16.4334 45.5432 21.109 39.1848 21.109H32.3945C31.4777 21.109 30.7349 21.7804 30.7349 22.609V48.1C30.7347 48.9286 31.4777 49.6 32.3943 49.6ZM54.0351 10.6864C54.0351 9.75659 54.872 8.99999 55.9009 8.99999C56.9299 8.99999 57.7667 9.75639 57.7667 10.6864C57.7667 14.894 56.5946 18.8376 54.4666 21.7906C54.1343 22.2518 54.1079 22.8404 54.398 23.3242C54.6881 23.808 55.2482 24.1094 55.8571 24.1094L68.0807 24.1092C69.1094 24.1092 69.9465 24.8656 69.9465 25.7956C69.9465 26.7256 69.1096 27.482 68.0807 27.482H63.749C62.8322 27.482 62.0894 28.1534 62.0894 28.982C62.0894 29.8106 62.8322 30.482 63.749 30.482H66.6368C67.6655 30.482 68.5026 31.2386 68.5026 32.1686C68.5026 33.0986 67.6658 33.855 66.6368 33.855H63.749C62.8322 33.855 62.0894 34.5264 62.0894 35.355C62.0894 36.1836 62.8322 36.855 63.749 36.855H65.1928C66.2215 36.855 67.0586 37.6114 67.0586 38.5414C67.0586 39.4714 66.2217 40.2278 65.1928 40.2278H63.749C62.8322 40.2278 62.0894 40.8992 62.0894 41.7278C62.0894 42.5564 62.8322 43.2278 63.749 43.2278C64.7777 43.2278 65.6148 43.9844 65.6148 44.9144C65.6148 45.8444 64.7777 46.6 63.749 46.6H40.8442V24.023C48.2543 23.2746 54.0351 17.5804 54.0351 10.6864ZM34.0539 24.109H37.525V46.6H34.0539V24.109Z" fill="#0E80A4"/>
</svg>
