<svg width="88" height="67" viewBox="0 0 88 67" fill="none" xmlns="http://www.w3.org/2000/svg">
<path d="M12.5569 8.38598C12.5572 9.85654 12.9472 11.3008 13.6871 12.5716H0L0 26.2587C1.27235 25.5206 2.71671 25.1308 4.18763 25.1286C5.65855 25.1263 7.1041 25.5117 8.3787 26.2458C9.65331 26.98 10.712 28.037 11.4481 29.3105C12.1842 30.584 12.5718 32.0289 12.5718 33.4999C12.5718 34.9708 12.1842 36.4157 11.4481 37.6892C10.712 38.9627 9.65331 40.0197 8.3787 40.7539C7.1041 41.4881 5.65855 41.8734 4.18763 41.8711C2.71671 41.8689 1.27235 41.4791 0 40.741L0 54.4281H13.6871C12.949 55.7004 12.5592 57.1448 12.557 58.6157C12.5547 60.0867 12.94 61.5322 13.6742 62.8068C14.4084 64.0814 15.4654 65.1401 16.7389 65.8762C18.0124 66.6123 19.4573 66.9999 20.9282 66.9999C22.3992 66.9999 23.8441 66.6123 25.1176 65.8762C26.3911 65.1401 27.4481 64.0814 28.1823 62.8068C28.9164 61.5322 29.3018 60.0867 29.2995 58.6157C29.2973 57.1448 28.9075 55.7004 28.1694 54.4281H41.8565V40.741C40.5841 41.4791 39.1398 41.8689 37.6688 41.8711C36.1979 41.8734 34.7524 41.4881 33.4778 40.7539C32.2032 40.0197 31.1445 38.9627 30.4084 37.6892C29.6723 36.4157 29.2847 34.9708 29.2847 33.4999C29.2847 32.0289 29.6723 30.584 30.4084 29.3105C31.1445 28.037 32.2032 26.98 33.4778 26.2458C34.7524 25.5117 36.1979 25.1263 37.6688 25.1286C39.1398 25.1308 40.5841 25.5206 41.8565 26.2587V12.5716H28.1694C28.8144 11.4598 29.1946 10.2143 29.2807 8.93177C29.3668 7.64925 29.1564 6.36414 28.6658 5.17605C28.1752 3.98796 27.4176 2.9288 26.4517 2.08069C25.4858 1.23257 24.3375 0.618271 23.096 0.285416C21.8544 -0.0474396 20.5529 -0.0899124 19.2923 0.161278C18.0317 0.412476 16.8458 0.9506 15.8267 1.73393C14.8075 2.51727 13.9825 3.52477 13.4155 4.67834C12.8484 5.83192 12.5547 7.10058 12.5569 8.38598Z" fill="#9BBADA"/>
<path d="M79.5421 24.9429C78.0716 24.9432 76.6273 25.3332 75.3565 26.0731V12.386H61.6694C62.4075 13.6583 62.7973 15.1027 62.7995 16.5736C62.8018 18.0445 62.4164 19.4901 61.6823 20.7647C60.9481 22.0393 59.8911 23.098 58.6176 23.8341C57.3441 24.5702 55.8992 24.9578 54.4282 24.9578C52.9573 24.9578 51.5124 24.5702 50.2389 23.8341C48.9654 23.098 47.9084 22.0393 47.1742 20.7647C46.44 19.4901 46.0547 18.0445 46.057 16.5736C46.0592 15.1027 46.449 13.6583 47.1871 12.386H33.5V26.0731C32.2277 25.335 30.7833 24.9452 29.3124 24.9429C27.8415 24.9407 26.3959 25.326 25.1213 26.0602C23.8467 26.7943 22.788 27.8514 22.0519 29.1249C21.3158 30.3983 20.9282 31.8433 20.9282 33.3142C20.9282 34.7851 21.3158 36.2301 22.0519 37.5036C22.788 38.7771 23.8467 39.8341 25.1213 40.5683C26.3959 41.3024 27.8415 41.6878 29.3124 41.6855C30.7833 41.6832 32.2277 41.2935 33.5 40.5554V54.2425H47.1871C46.449 52.9701 46.0592 51.5258 46.057 50.0548C46.0547 48.5839 46.44 47.1384 47.1742 45.8638C47.9084 44.5891 48.9654 43.5305 50.2389 42.7944C51.5124 42.0583 52.9573 41.6707 54.4282 41.6707C55.8992 41.6707 57.3441 42.0583 58.6176 42.7944C59.8911 43.5305 60.9481 44.5891 61.6823 45.8638C62.4164 47.1384 62.8018 48.5839 62.7995 50.0548C62.7973 51.5258 62.4075 52.9701 61.6694 54.2425H75.3565V40.5554C76.4683 41.2004 77.7138 41.5806 78.9963 41.6667C80.2789 41.7528 81.564 41.5424 82.752 41.0518C83.9401 40.5612 84.9993 39.8035 85.8474 38.8377C86.6955 37.8718 87.3098 36.7235 87.6427 35.482C87.9755 34.2404 88.018 32.9389 87.7668 31.6783C87.5156 30.4176 86.9775 29.2318 86.1942 28.2127C85.4108 27.1935 84.4033 26.3685 83.2498 25.8014C82.0962 25.2344 80.8275 24.9407 79.5421 24.9429Z" fill="#658AB0"/>
</svg>
