<svg width="15" height="16" viewBox="0 0 15 16" fill="none" xmlns="http://www.w3.org/2000/svg">
<path d="M14.4831 13.3935C14.4831 13.9977 13.9903 14.4904 13.3847 14.4904H1.61461C1.00968 14.4904 0.517671 13.9977 0.517671 13.3935V6.68353C0.517671 6.32131 0.813169 6.02581 1.17539 6.02581H4.53439C4.60551 6.02581 4.67224 6.04414 4.73896 6.06614C4.76903 6.07567 4.79616 6.08814 4.82402 6.1006C4.88708 6.13286 4.94867 6.16806 5 6.21792L6.22745 7.44611C6.44669 7.66461 6.74806 7.79073 7.05895 7.79073H14.4831V13.3935ZM11.3096 5.24197H8.72342C8.58044 5.24197 8.46532 5.35782 8.46532 5.50081C8.46532 5.64379 8.58044 5.75891 8.72342 5.75891H11.3096C11.4533 5.75891 11.5684 5.64379 11.5684 5.50081C11.5684 5.35782 11.4533 5.24197 11.3096 5.24197ZM6.13726 4.1663H11.3096C11.4533 4.1663 11.5684 4.05045 11.5684 3.90746C11.5684 3.76448 11.4533 3.64936 11.3096 3.64936H6.13726C5.99428 3.64936 5.87843 3.76448 5.87843 3.90746C5.87843 4.05045 5.99428 4.1663 6.13726 4.1663ZM6.13726 2.54876H11.3096C11.4533 2.54876 11.5684 2.43291 11.5684 2.28993C11.5684 2.14621 11.4533 2.03182 11.3096 2.03182H6.13726C5.99428 2.03182 5.87843 2.14621 5.87843 2.28993C5.87843 2.43291 5.99428 2.54876 6.13726 2.54876ZM5.03373 1.14166C5.03373 0.797038 5.31383 0.517671 5.65699 0.517671H11.7899C12.1345 0.517671 12.4138 0.797038 12.4138 1.14166V7.27306H7.05895C6.88517 7.27306 6.71506 7.20267 6.59261 7.08022L5.36516 5.8513C5.35342 5.84103 5.33949 5.83297 5.32849 5.8227C5.2889 5.78604 5.2493 5.75084 5.20458 5.72151C5.15618 5.68705 5.10412 5.65992 5.05133 5.63352C5.04473 5.63059 5.0396 5.62619 5.03373 5.62326V1.14166ZM14.0402 5.50887H13.6215C13.4785 5.50887 13.3634 5.62399 13.3634 5.76697C13.3634 5.90996 13.4785 6.02581 13.6215 6.02581H14.0402C14.2844 6.02581 14.4831 6.22452 14.4831 6.46869V7.27306H12.9308V1.14166C12.9308 0.511072 12.419 0 11.7899 0H5.65699C5.0286 0 4.51679 0.511072 4.51679 1.14166V5.50887H1.17539C0.527937 5.50887 0 6.03608 0 6.68353V13.3935C0 14.2829 0.724446 15.0073 1.61461 15.0073H13.3847C14.2756 15.0073 15 14.2829 15 13.3935V6.46869C15 5.93929 14.5696 5.50887 14.0402 5.50887Z" fill="#68C2D0"/>
</svg>
