<svg width="16" height="16" viewBox="0 0 16 16" fill="none" xmlns="http://www.w3.org/2000/svg">
<path d="M15.1314 0.568542H0.868543C0.702863 0.568542 0.568542 0.702862 0.568542 0.868542V12.6775C0.568542 12.7542 0.597943 12.828 0.650643 12.8837L2.97356 15.3377C3.0302 15.3976 3.10898 15.4315 3.19142 15.4315H15.1314C15.2971 15.4315 15.4314 15.2971 15.4314 15.1315V0.868542C15.4314 0.702862 15.2971 0.568542 15.1314 0.568542ZM2.88996 1.16854H13.11V6.66998H2.88996V1.16854ZM10.71 14.8315H5.28996V11.31H10.71V14.8315ZM14.8314 14.8315H11.31V11.01C11.31 10.8443 11.1756 10.71 11.01 10.71H4.98996C4.82428 10.71 4.68996 10.8443 4.68996 11.01V14.8315H3.32052L1.16852 12.558V1.16854H2.28994V6.96998C2.28994 7.13566 2.42426 7.26998 2.58994 7.26998H13.4099C13.5756 7.26998 13.7099 7.13566 13.7099 6.96998V1.16854H14.8314L14.8314 14.8315Z" fill="#68C2D0"/>
<path d="M7.10577 11.6741H5.95393C5.78825 11.6741 5.65393 11.8084 5.65393 11.9741V14.2096C5.65393 14.3753 5.78825 14.5096 5.95393 14.5096H7.10577C7.27145 14.5096 7.40577 14.3753 7.40577 14.2096V11.9741C7.40577 11.8084 7.27145 11.6741 7.10577 11.6741ZM6.80577 13.9096H6.25393V12.2741H6.80577V13.9096Z" fill="#68C2D0"/>
</svg>
