<svg width="16" height="17" viewBox="0 0 16 17" fill="none" xmlns="http://www.w3.org/2000/svg">
<path d="M2.29089 4.16165L3.00304 15.2863" stroke="#68C2D0" stroke-width="0.6" stroke-miterlimit="2.6131" stroke-linecap="round" stroke-linejoin="round"/>
<path d="M3.00256 15.2863C3.00256 15.6801 3.32202 16 3.71476 16" stroke="#68C2D0" stroke-width="0.6" stroke-miterlimit="2.6131" stroke-linecap="round" stroke-linejoin="round"/>
<path d="M3.71527 16H11.9938" stroke="#68C2D0" stroke-width="0.6" stroke-miterlimit="2.6131" stroke-linecap="round" stroke-linejoin="round"/>
<path d="M11.9936 16C12.3864 16 12.7053 15.6801 12.7053 15.2863" stroke="#68C2D0" stroke-width="0.6" stroke-miterlimit="2.6131" stroke-linecap="round" stroke-linejoin="round"/>
<path d="M12.7054 15.2863L13.4186 4.16165H2.29089" stroke="#68C2D0" stroke-width="0.6" stroke-miterlimit="2.6131" stroke-linecap="round" stroke-linejoin="round"/>
<path d="M14.7083 3.47406C14.7083 3.85127 14.4029 4.15712 14.0262 4.15712" stroke="#68C2D0" stroke-width="0.6" stroke-miterlimit="2.6131" stroke-linecap="round" stroke-linejoin="round"/>
<path d="M14.0263 4.1571H1.68213" stroke="#68C2D0" stroke-width="0.6" stroke-miterlimit="2.6131" stroke-linecap="round" stroke-linejoin="round"/>
<path d="M1.68204 4.15712C1.30637 4.15712 1 3.85127 1 3.47406" stroke="#68C2D0" stroke-width="0.6" stroke-miterlimit="2.6131" stroke-linecap="round" stroke-linejoin="round"/>
<path d="M1 3.47406C1 3.09835 1.30637 2.79202 1.68204 2.79202" stroke="#68C2D0" stroke-width="0.6" stroke-miterlimit="2.6131" stroke-linecap="round" stroke-linejoin="round"/>
<path d="M1.68213 2.79199H14.0263" stroke="#68C2D0" stroke-width="0.6" stroke-miterlimit="2.6131" stroke-linecap="round" stroke-linejoin="round"/>
<path d="M14.0262 2.79199C14.4029 2.79199 14.7083 3.09836 14.7083 3.47403" stroke="#68C2D0" stroke-width="0.6" stroke-miterlimit="2.6131" stroke-linecap="round" stroke-linejoin="round"/>
<path d="M10.0052 2.78097V1.71216" stroke="#68C2D0" stroke-width="0.6" stroke-miterlimit="2.6131" stroke-linecap="round" stroke-linejoin="round"/>
<path d="M10.0048 1.71215C10.0048 1.31938 9.68582 1 9.29358 1" stroke="#68C2D0" stroke-width="0.6" stroke-miterlimit="2.6131" stroke-linecap="round" stroke-linejoin="round"/>
<path d="M9.29367 1H6.41479" stroke="#68C2D0" stroke-width="0.6" stroke-miterlimit="2.6131" stroke-linecap="round" stroke-linejoin="round"/>
<path d="M6.41531 1C6.02206 1 5.70361 1.31942 5.70361 1.71215" stroke="#68C2D0" stroke-width="0.6" stroke-miterlimit="2.6131" stroke-linecap="round" stroke-linejoin="round"/>
<path d="M5.70361 1.71216V2.78097H10.0053" stroke="#68C2D0" stroke-width="0.6" stroke-miterlimit="2.6131" stroke-linecap="round" stroke-linejoin="round"/>
<path d="M4.71686 5.58545V14.3521" stroke="#68C2D0" stroke-width="0.6" stroke-miterlimit="2.6131" stroke-linecap="round" stroke-linejoin="round"/>
<path d="M6.80811 5.58545V14.3521" stroke="#68C2D0" stroke-width="0.6" stroke-miterlimit="2.6131" stroke-linecap="round" stroke-linejoin="round"/>
<path d="M8.90137 5.58545V14.3521" stroke="#68C2D0" stroke-width="0.6" stroke-miterlimit="2.6131" stroke-linecap="round" stroke-linejoin="round"/>
<path d="M10.9921 5.58545V14.3521" stroke="#68C2D0" stroke-width="0.6" stroke-miterlimit="2.6131" stroke-linecap="round" stroke-linejoin="round"/>
</svg>
