<svg width="19" height="19" viewBox="0 0 19 19" fill="none" xmlns="http://www.w3.org/2000/svg">
<path d="M9.48783 18.7751C4.57562 18.7751 0.59375 14.7216 0.59375 9.72093C0.59375 4.72029 4.57562 0.666748 9.48783 0.666748C14.4 0.666748 18.3819 4.72029 18.3819 9.72093C18.3819 14.7216 14.4 18.7751 9.48783 18.7751ZM9.48783 1.65172C5.13382 1.65172 1.56131 5.28855 1.56131 9.72093C1.56131 14.1533 5.13382 17.7901 9.48783 17.7901C13.8418 17.7901 17.4143 14.1533 17.4143 9.72093C17.4143 5.28855 13.8418 1.65172 9.48783 1.65172Z" fill="#68C2D0"/>
<path d="M4.76172 9.72104C4.76172 9.42813 4.99917 9.19067 5.29209 9.19067H13.6836C13.9765 9.19067 14.214 9.42813 14.214 9.72104V9.72104C14.214 10.014 13.9766 10.2514 13.6836 10.2514H5.29209C4.99917 10.2514 4.76172 10.014 4.76172 9.72104V9.72104Z" fill="#68C2D0"/>
<path d="M8.96692 5.43066C8.96692 5.14292 9.20017 4.90967 9.48791 4.90967V4.90967C9.77565 4.90967 10.0089 5.14292 10.0089 5.43066V14.0111C10.0089 14.2989 9.77565 14.5321 9.48791 14.5321V14.5321C9.20017 14.5321 8.96692 14.2989 8.96692 14.0111V5.43066Z" fill="#68C2D0"/>
</svg>
