<svg width="17" height="17" viewBox="0 0 17 17" fill="none" xmlns="http://www.w3.org/2000/svg">
<path d="M12.3232 5.65652L7.16667 10.8132L4.67667 8.32324C4.62952 8.27771 4.56637 8.25251 4.50082 8.25308C4.43527 8.25365 4.37257 8.27994 4.32621 8.32629C4.27986 8.37264 4.25357 8.43535 4.253 8.50089C4.25243 8.56644 4.27763 8.62959 4.32317 8.67675L6.98992 11.3435C7.01312 11.3667 7.04068 11.3852 7.071 11.3977C7.10133 11.4103 7.13384 11.4168 7.16667 11.4168C7.1995 11.4168 7.232 11.4103 7.26233 11.3977C7.29266 11.3852 7.32021 11.3667 7.34342 11.3435L12.6767 6.01002C12.7005 5.98696 12.7196 5.95937 12.7327 5.92887C12.7458 5.89837 12.7527 5.86557 12.753 5.83237C12.7533 5.79918 12.7469 5.76626 12.7344 5.73553C12.7218 5.70481 12.7032 5.6769 12.6798 5.65342C12.6563 5.62995 12.6284 5.61139 12.5977 5.59882C12.5669 5.58625 12.534 5.57992 12.5008 5.58021C12.4676 5.5805 12.4348 5.58739 12.4043 5.6005C12.3738 5.6136 12.3462 5.63264 12.3232 5.65652V5.65652Z" fill="#68C2D0" stroke="#68C2D0" stroke-width="0.4"/>
<path d="M8.5 1C7.01664 1 5.56659 1.43987 4.33323 2.26398C3.09986 3.08809 2.13856 4.25943 1.57091 5.62987C1.00325 7.00031 0.854725 8.50831 1.14411 9.96317C1.4335 11.418 2.14781 12.7544 3.1967 13.8033C4.2456 14.8522 5.58197 15.5665 7.03682 15.8559C8.49168 16.1453 9.99968 15.9967 11.3701 15.4291C12.7406 14.8614 13.9119 13.9001 14.736 12.6668C15.5601 11.4334 16 9.98335 16 8.49999C15.9978 6.51156 15.2069 4.60522 13.8008 3.19918C12.3948 1.79315 10.4884 1.00225 8.5 1V1ZM8.5 15.5C7.11553 15.5 5.76215 15.0894 4.61101 14.3203C3.45987 13.5511 2.56266 12.4579 2.03285 11.1788C1.50303 9.89969 1.36441 8.49223 1.63451 7.13436C1.9046 5.7765 2.57129 4.52922 3.55026 3.55025C4.52922 2.57128 5.7765 1.9046 7.13437 1.6345C8.49224 1.36441 9.8997 1.50303 11.1788 2.03284C12.4579 2.56266 13.5511 3.45986 14.3203 4.611C15.0895 5.76215 15.5 7.11553 15.5 8.49999C15.4979 10.3559 14.7598 12.1351 13.4475 13.4474C12.1351 14.7597 10.3559 15.4979 8.5 15.5V15.5Z" fill="#68C2D0" stroke="#68C2D0" stroke-width="0.4"/>
</svg>
