<svg width="16" height="16" viewBox="0 0 16 16" fill="none" xmlns="http://www.w3.org/2000/svg">
<path d="M16.0001 12.0577H12.5098V11.4231H15.3655V4.74974C15.3655 3.8804 14.6582 3.17313 13.7889 3.17313H11.3177V2.53851H13.7889C15.0082 2.53851 16.0001 3.5304 16.0001 4.74974V12.0577Z" fill="#68C2D0"/>
<path d="M4.25941 12.0577H0.769043V4.74974C0.769043 3.5304 1.76093 2.53851 2.98027 2.53851H5.50013V3.17313H2.98027C2.11093 3.17313 1.40366 3.8804 1.40366 4.74974V11.4231H4.25941V12.0577Z" fill="#68C2D0"/>
<path d="M12.8412 15.2307H3.9281V9.51917H12.8412V15.2307ZM4.56271 14.5961H12.2066V10.1538H4.56271V14.5961Z" fill="#68C2D0"/>
<path d="M11.5571 5.71151H5.211V0H11.5571V5.71151ZM5.84561 5.0769H10.9225V0.634612H5.84561V5.0769Z" fill="#68C2D0"/>
<path d="M11.8751 5.0769H4.89435V5.71152H11.8751V5.0769Z" fill="#68C2D0"/>
<path d="M10.6055 11.1058H6.10339V11.7404H10.6055V11.1058Z" fill="#68C2D0"/>
<path d="M10.6055 13.0095H6.10339V13.6441H10.6055V13.0095Z" fill="#68C2D0"/>
</svg>
