<svg width="70" height="65" fill="none" xmlns="http://www.w3.org/2000/svg"><path d="M55.735 43.13a3.438 3.438 0 100-6.877 3.438 3.438 0 000 6.876zm0 20.627a3.438 3.438 0 100-6.876 3.438 3.438 0 000 6.876z" fill="#EDEDED"/><path d="M28.231 13.907c0 1.9-1.538 3.438-3.438 3.438H4.166a3.437 3.437 0 110-6.876h20.627c1.9 0 3.438 1.538 3.438 3.438z" fill="#F0F0F0"/><path d="M69.487 13.907c0 1.9-1.538 3.438-3.438 3.438H45.421a3.437 3.437 0 01-3.438-3.438c0-1.9 1.539-3.438 3.438-3.438H66.05c1.9 0 3.438 1.538 3.438 3.438z" fill="#9BBADA"/><path d="M14.48 27.659a3.437 3.437 0 01-3.439-3.438V3.593c0-1.9 1.539-3.438 3.438-3.438 1.9 0 3.438 1.538 3.438 3.438V24.22c0 1.9-1.538 3.438-3.438 3.438zm55.007 22.346c0 1.9-1.538 3.438-3.438 3.438H45.421a3.437 3.437 0 01-3.438-3.438c0-1.9 1.539-3.438 3.438-3.438H66.05c1.9 0 3.438 1.539 3.438 3.438z" fill="#EDEDED"/><path d="M26.217 63.462a3.437 3.437 0 01-4.862 0L2.742 44.85a3.437 3.437 0 114.861-4.861L26.217 58.6a3.437 3.437 0 010 4.861z" fill="#9BBADA"/><path d="M2.742 63.462a3.437 3.437 0 010-4.861l18.613-18.613a3.437 3.437 0 114.862 4.861L7.603 63.462a3.437 3.437 0 01-4.861 0z" fill="#9BBADA"/></svg>