<svg width="89" height="67" fill="none" xmlns="http://www.w3.org/2000/svg"><path d="M13.37 8.386c0 1.47.39 2.915 1.13 4.186H.812v13.687a8.37 8.37 0 110 14.482v13.687H14.5a8.37 8.37 0 1014.482 0h13.687V40.741a8.37 8.37 0 110-14.482V12.572H28.982a8.37 8.37 0 10-15.613-4.186z" fill="#0E80A4"/><path d="M80.355 24.943c-1.47 0-2.915.39-4.186 1.13V12.386H62.482a8.37 8.37 0 11-14.482 0H34.312v13.687a8.371 8.371 0 100 14.482v13.688H48a8.37 8.37 0 1114.482 0h13.687V40.554a8.37 8.37 0 104.186-15.612z" fill="#369CB7"/></svg>