<svg width="73" height="83" fill="none" xmlns="http://www.w3.org/2000/svg"><path d="M36.64 51.623l.22 20.475-17.619 10.425L1.4 72.481l-.222-20.474 17.62-10.433L36.64 51.623z" fill="#369CB7"/><path d="M19.017 62.049l.222 20.474L1.402 72.481l-.221-20.474 17.836 10.042z" fill="#0E80A4"/><path d="M36.64 51.623l.22 20.475-17.622 10.425-.221-20.474 17.622-10.426z" fill="#EDEDED"/><path d="M36.196 10.674l.221 20.475-17.619 10.425L.957 31.532.735 11.058 18.355.625l17.841 10.049z" fill="#0E80A4"/><path d="M18.574 21.1l.222 20.474L.959 31.532.738 11.057 18.574 21.1z" fill="#EDEDED"/><path d="M36.196 10.674l.221 20.474-17.622 10.426-.221-20.475 17.622-10.425z" fill="#369CB7"/><path d="M71.878 30.765l.222 20.474-17.62 10.426-17.84-10.042-.222-20.475 17.619-10.432 17.841 10.049z" fill="#EDEDED"/><path d="M71.876 30.765l.222 20.475-17.615 10.425-.222-20.475 17.615-10.425z" fill="#369CB7"/><path d="M54.261 41.19l.222 20.475-17.844-10.042-.221-20.474L54.26 41.19z" fill="#0E80A4"/></svg>