<svg width="68" height="68" fill="none" xmlns="http://www.w3.org/2000/svg"><path d="M41.321 49.372L.451 15.347H16.76V.454l32.754 44.352-1.838 3.665-6.354.9z" fill="#369CB7"/><path d="M61.213 67.07l-10.77-5.7-10.772 5.7 2.092-11.984-8.708-8.5 12.018-1.735 5.365-10.914 5.383 10.918 12.014 1.725-8.714 8.506 2.092 11.984zM26.752 46.977a5.929 5.929 0 01-5.922-5.922V39.08h-3.95v1.974a5.929 5.929 0 01-5.922 5.922H8.985v3.948h1.974a5.929 5.929 0 015.922 5.923v1.974h3.949v-1.974a5.929 5.929 0 015.922-5.923h1.974v-3.948h-1.974zM54.39 15.39a5.929 5.929 0 01-5.922-5.922V7.494H44.52v1.974a5.929 5.929 0 01-5.923 5.923h-1.974v3.948h1.974a5.929 5.929 0 015.923 5.923v1.974h3.948v-1.974a5.929 5.929 0 015.922-5.923h1.974v-3.948H54.39z" fill="#0E80A4"/><path d="M67.835 46.58l-12.014-1.725-5.383-10.918-5.365 10.914-2.598.375L61.213 67.07 59.12 55.086l8.714-8.506z" fill="#0E80A4"/></svg>