<svg width="83" height="90" fill="none" xmlns="http://www.w3.org/2000/svg"><path d="M61.456 30.875l7.894-19.36c.149-.447.149-1.043-.15-1.49l-.595-.744h-.745l-20.105 5.361-15.34-13.553-.595-.446h-.596c-.894 0-1.638.744-1.638 1.489l-1.192 20.85L10.97 33.854c-.596.298-.745.893-.745 1.49l.149 1.042 19.956 8.042 9.68 29.488c.15.744.894 1.191 1.49 1.191s1.34-.447 1.49-1.042l9.382-25.318 18.616 2.234h.149c.596 0 1.191-.298 1.34-.894l.447-.894-11.468-18.318z" fill="#EDEDED"/><path d="M57.883 72.129H25.118v7.446h32.765V72.13z" fill="#0E80A4"/><path d="M63.84 76.597H19.16V88.51h44.68V76.597z" fill="#0E80A4"/><path d="M65.329 87.022H17.672V90h47.657v-2.978z" fill="#0E80A4"/><path d="M51.925 76.597h-20.85v8.935h20.85v-8.935z" fill="#EDEDED"/><path d="M18.863 70.64l-6.255-8.49c-1.49-4.617-1.49-9.382 0-13.85.149-.447.595-.894 1.191-1.043.596-.148 1.043.15 1.49.447 5.063 6.404 6.552 15.19 3.574 22.935zM10.82 58.874c-.595-1.34-1.042-2.383-1.34-3.426 2.532-7.744.894-16.233-4.318-22.34a1.609 1.609 0 00-1.043-.446c-.745 0-1.191.447-1.49 1.043-2.382 7.893-.148 16.53 5.511 22.488.298 1.042.745 2.085 1.34 3.425l1.34-.744z" fill="#0E80A4"/><path d="M15.438 63.193c-1.192 0-2.234-1.34-2.234-2.98 0-1.637 1.042-2.978 2.234-2.978 1.191 0 2.234 1.34 2.234 2.979 0 1.638-1.043 2.979-2.234 2.979zm-9.979-6.851c-.745 0-1.638-.447-2.383-1.043-.596-.595-.893-1.191-1.042-1.787-.15-.744 0-1.489.446-1.936.894-.893 2.532-.596 3.724.596.595.596.893 1.191 1.042 1.787.15.745 0 1.49-.447 1.936-.297.298-.893.447-1.34.447z" fill="#EDEDED"/><path d="M22.14 72.724c-1.043-.745-2.235-1.638-3.426-2.83-2.532-7.744-8.936-13.701-16.978-15.34-.596-.148-1.191.15-1.49.596-.297.447-.297.894-.148 1.34 2.83 7.596 9.68 13.256 17.722 14.596 1.192 1.042 2.383 2.085 3.426 2.83l.893-1.192zm41.997-2.084l6.255-8.49c1.49-4.617 1.49-9.382 0-13.85-.149-.447-.595-.894-1.191-1.043-.596-.148-1.043.15-1.49.447-5.063 6.404-6.552 15.19-3.574 22.935zm8.043-11.766c.595-1.34 1.042-2.383 1.34-3.426-2.532-7.744-.894-16.233 4.319-22.34a1.609 1.609 0 011.042-.446c.745 0 1.191.447 1.49 1.043 2.382 7.893.148 16.53-5.511 22.488-.298 1.042-.745 2.085-1.34 3.425l-1.34-.744z" fill="#0E80A4"/><path d="M65.329 60.214c0-1.638 1.042-2.979 2.234-2.979 1.191 0 2.233 1.34 2.233 2.979 0 1.638-1.042 2.979-2.234 2.979-1.19 0-2.233-1.34-2.233-2.98zM76.2 55.746c-.447-.447-.596-1.191-.447-1.936.15-.596.447-1.34 1.043-1.787 1.191-1.191 2.83-1.34 3.723-.596.447.447.596 1.192.447 1.936-.149.596-.447 1.34-1.043 1.788-.744.744-1.489 1.042-2.383 1.042-.446.149-1.042 0-1.34-.447z" fill="#EDEDED"/><path d="M60.86 72.724c1.043-.745 2.235-1.638 3.426-2.83 2.532-7.744 8.936-13.701 16.978-15.34.596-.148 1.191.15 1.49.596.297.447.297.894.148 1.34-2.83 7.596-9.68 13.256-17.722 14.596-1.192 1.042-2.383 2.085-3.426 2.83l-.893-1.192z" fill="#0E80A4"/></svg>