<svg width="155" height="55" fill="none" xmlns="http://www.w3.org/2000/svg"><rect x="6.813" y="7.07" width="148" height="36" rx="18" fill="#0E80A4"/><path d="M21.157.968l-4.22 1.503 3.195 8.967 4.22-1.503L21.157.968z" fill="#0E80A4"/><path d="M21.163.966l-4.22 1.503 1.315 3.692 4.22-1.503L21.163.966z" fill="#369CB7"/><path d="M40.385 6.001l-3.035-1.44-3.242 6.829 3.036 1.44 3.24-6.829zM12.043 21.708l1.44-3.035-6.829-3.242-1.44 3.036 6.829 3.24z" fill="#0E80A4"/><path d="M35.41 47.57c11.07-3.943 16.847-16.114 12.904-27.184C44.37 9.316 32.199 3.54 21.129 7.483 10.06 11.426 4.282 23.597 8.226 34.667c3.943 11.07 16.114 16.847 27.184 12.904z" fill="#B4E0E7"/><path d="M33.907 43.35c8.74-3.113 13.3-12.721 10.187-21.46-3.113-8.74-12.722-13.3-21.461-10.188-8.74 3.114-13.3 12.722-10.187 21.462 3.113 8.74 12.722 13.3 21.461 10.187z" fill="#fff"/><path opacity=".2" d="M29.773 31.746a4.48 4.48 0 10-3.006-8.44 4.48 4.48 0 003.006 8.44z" fill="#0E80A4"/><path d="M23.39 13.832l1.703 4.772c4.94-1.758 10.41.799 12.167 5.794l4.772-1.703c-2.748-7.578-11.065-11.555-18.642-8.863z" fill="#0E80A4"/><path d="M23.39 13.833l1.703 4.77c2.47-.878 5.1-.692 7.277.386l2.159-4.577c-3.405-1.59-7.379-1.898-11.14-.58z" fill="#0E80A4"/><path d="M24.07 29.068l17.906-6.373" stroke="#0E80A4" stroke-width="3" stroke-miterlimit="10" stroke-linecap="round"/><path d="M29.021 29.637a2.24 2.24 0 10-1.503-4.22 2.24 2.24 0 001.503 4.22z" fill="#0E80A4"/><path opacity=".2" d="M32.785 40.215l-.933-2.639m-9.366 2.12l1.193-2.511m-8.085-5.095l2.638-.99m19.648 1.03l2.511 1.193M16.112 21.79l2.568 1.194" stroke="#0E80A4" stroke-width="2" stroke-miterlimit="10" stroke-linecap="round" stroke-linejoin="round"/></svg>