<svg width="14" height="14" fill="none" xmlns="http://www.w3.org/2000/svg"><circle cx="7" cy="7" r="7" fill="#68C2D0"/><path d="M5.764 8.374a1.025 1.025 0 01-.014-.164v-.165a2 2 0 01.524-1.397 3 3 0 01.5-.435c.176-.125.343-.25.5-.375.14-.113.265-.241.375-.383a.76.76 0 00.149-.473.699.699 0 00-.308-.595c-.206-.148-.525-.222-.956-.222a1.84 1.84 0 00-.605.095 3.235 3.235 0 00-.924.505c-.12.096-.227.175-.319.239L4 4.115c.172-.186.367-.35.579-.489.215-.14.445-.258.685-.35A4.155 4.155 0 016.758 3c.771 0 1.371.161 1.8.484A1.545 1.545 0 019.2 4.785a2.14 2.14 0 01-.165.897c-.099.225-.238.43-.41.605a3.59 3.59 0 01-.551.438c-.19.124-.37.26-.542.409a2.051 2.051 0 00-.42.5 1.42 1.42 0 00-.17.732l-1.178.008zM5.55 9.882a.766.766 0 01.234-.59c.17-.15.39-.228.616-.217a.899.899 0 01.638.218.767.767 0 01.234.59.784.784 0 01-.234.592.885.885 0 01-.638.223.856.856 0 01-.616-.223.783.783 0 01-.232-.592H5.55z" fill="#fff"/></svg>