<svg width="88" height="67" fill="none" xmlns="http://www.w3.org/2000/svg"><path d="M12.557 8.386c0 1.47.39 2.915 1.13 4.186H0v13.687A8.37 8.37 0 110 40.74v13.687h13.687a8.37 8.37 0 1014.482 0h13.687V40.741a8.37 8.37 0 110-14.482V12.572H28.17a8.37 8.37 0 10-15.612-4.186z" fill="#9BBADA"/><path d="M79.542 24.943c-1.47 0-2.915.39-4.186 1.13V12.386H61.67a8.37 8.37 0 11-14.482 0H33.5v13.687a8.371 8.371 0 100 14.482v13.688h13.687a8.37 8.37 0 1114.482 0h13.688V40.554a8.37 8.37 0 104.185-15.612z" fill="#658AB0"/></svg>