<svg width="15" height="16" fill="none" xmlns="http://www.w3.org/2000/svg"><path d="M14.483 13.393a1.1 1.1 0 01-1.098 1.097H1.615a1.099 1.099 0 01-1.097-1.097v-6.71c0-.362.295-.657.657-.657h3.36a.65.65 0 01.204.04.709.709 0 01.261.152l1.227 1.228c.22.219.521.345.832.345h7.424v5.602zM11.31 5.242H8.723a.258.258 0 000 .517h2.587a.258.258 0 100-.517zM6.137 4.166h5.173a.258.258 0 100-.517H6.137a.258.258 0 100 .517zm0-1.617h5.173a.258.258 0 100-.517H6.137a.259.259 0 100 .517zM5.034 1.142c0-.345.28-.624.623-.624h6.133c.345 0 .624.279.624.624v6.131H7.059a.664.664 0 01-.466-.193L5.365 5.851c-.012-.01-.026-.018-.037-.028a.958.958 0 00-.277-.19c-.006-.002-.011-.007-.017-.01V1.142zm9.006 4.367h-.418a.258.258 0 000 .517h.418c.244 0 .443.199.443.443v.804h-1.552V1.142A1.143 1.143 0 0011.79 0H5.657c-.628 0-1.14.511-1.14 1.142v4.367H1.175C.528 5.509 0 6.036 0 6.684v6.71c0 .889.724 1.613 1.615 1.613h11.77c.89 0 1.615-.724 1.615-1.614V6.47a.96.96 0 00-.96-.96z" fill="#68C2D0"/></svg>