<svg width="16" height="16" fill="none" xmlns="http://www.w3.org/2000/svg"><path d="M15.131.569H.87a.3.3 0 00-.3.3v11.809a.3.3 0 00.082.206l2.323 2.454a.3.3 0 00.217.094h11.94a.3.3 0 00.3-.3V.869a.3.3 0 00-.3-.3zm-12.241.6h10.22V6.67H2.89V1.169zm7.82 13.662H5.29V11.31h5.42v3.521zm4.121 0H11.31V11.01a.3.3 0 00-.3-.3H4.99a.3.3 0 00-.3.3v3.822H3.32l-2.15-2.274V1.168h1.12V6.97a.3.3 0 00.3.3h10.82a.3.3 0 00.3-.3V1.169h1.122V14.83z" fill="#68C2D0"/><path d="M7.106 11.674H5.954a.3.3 0 00-.3.3v2.236a.3.3 0 00.3.3h1.152a.3.3 0 00.3-.3v-2.236a.3.3 0 00-.3-.3zm-.3 2.236h-.552v-1.636h.552v1.636z" fill="#68C2D0"/></svg>