<svg width="16" height="17" fill="none" xmlns="http://www.w3.org/2000/svg"><path d="M2.29 4.162l.713 11.124m0 0c0 .394.319.714.712.714m0 0h8.279m0 0c.392 0 .711-.32.711-.714m0 0l.714-11.124H2.29m12.418-.688a.683.683 0 01-.682.683m0 0H1.682m0 0A.683.683 0 011 3.474m0 0c0-.376.306-.682.682-.682m0 0h12.344m0 0c.377 0 .682.306.682.682m-4.703-.693V1.712m0 0A.712.712 0 009.294 1m0 0h-2.88m.001 0a.712.712 0 00-.711.712m0 0v1.069h4.301M4.717 5.585v8.767m2.091-8.767v8.767m2.093-8.767v8.767m2.091-8.767v8.767" stroke="#68C2D0" stroke-width=".6" stroke-miterlimit="2.613" stroke-linecap="round" stroke-linejoin="round"/></svg>