<svg width="19" height="19" fill="none" xmlns="http://www.w3.org/2000/svg"><path d="M9.488 18.775c-4.912 0-8.894-4.053-8.894-9.054 0-5 3.982-9.054 8.894-9.054s8.894 4.053 8.894 9.054c0 5-3.982 9.054-8.894 9.054zm0-17.123c-4.354 0-7.927 3.637-7.927 8.069s3.573 8.07 7.927 8.07c4.354 0 7.926-3.638 7.926-8.07s-3.572-8.07-7.926-8.07z" fill="#68C2D0"/><path d="M4.762 9.721a.53.53 0 01.53-.53h8.392a.53.53 0 110 1.06H5.292a.53.53 0 01-.53-.53z" fill="#68C2D0"/><path d="M8.967 5.43a.521.521 0 011.042 0v8.581a.521.521 0 11-1.042 0v-8.58z" fill="#68C2D0"/></svg>