<svg width="16" height="16" fill="none" xmlns="http://www.w3.org/2000/svg"><path d="M16 12.058h-3.49v-.635h2.856V4.75c0-.87-.708-1.577-1.577-1.577h-2.471V2.54h2.47c1.22 0 2.212.991 2.212 2.21v7.309zm-11.74 0H.768V4.75c0-1.22.992-2.211 2.211-2.211H5.5v.634H2.98c-.87 0-1.576.707-1.576 1.577v6.673h2.855v.635z" fill="#68C2D0"/><path d="M12.841 15.23H3.928V9.52h8.913v5.71zm-8.278-.634h7.644v-4.442H4.563v4.442zm6.994-8.884H5.211V0h6.346v5.712zm-5.711-.635h5.076V.635H5.846v4.442z" fill="#68C2D0"/><path d="M11.875 5.077h-6.98v.635h6.98v-.635zm-1.27 6.029H6.103v.634h4.502v-.634zm0 1.904H6.103v.634h4.502v-.635z" fill="#68C2D0"/></svg>