<svg width="67" height="55" viewBox="0 0 67 55" fill="none" xmlns="http://www.w3.org/2000/svg">
<path d="M63.9206 52.7428H62.8041V23.6262C65.3253 22.0039 67 19.1752 67 15.9607C67 15.79 66.9554 15.6221 66.8707 15.4738L59.0829 1.84506C58.5359 0.888082 57.5114 0.293457 56.4092 0.293457H10.5908C9.48861 0.293457 8.46412 0.887951 7.91712 1.84506L0.129289 15.4738C0.044623 15.6221 0 15.7901 0 15.9607C0 19.1752 1.67474 22.0039 4.19587 23.6262V52.7428H3.07938C2.53736 52.7428 2.09794 53.1822 2.09794 53.7243C2.09794 54.2663 2.53736 54.7057 3.07938 54.7057H63.9206C64.4628 54.7057 64.9021 54.2663 64.9021 53.7243C64.9021 53.1822 64.4626 52.7428 63.9206 52.7428ZM2.03054 16.9422H5.17693C5.71895 16.9422 6.15837 16.5027 6.15837 15.9607C6.15837 15.4187 5.71895 14.9793 5.17693 14.9793H2.67267L9.62144 2.81891C9.81982 2.47187 10.1912 2.25635 10.5908 2.25635H56.4092C56.8088 2.25635 57.1803 2.47187 57.3786 2.81891L64.3272 14.9793H61.8224C61.2803 14.9793 60.841 15.4187 60.841 15.9607C60.841 16.5027 61.2803 16.9422 61.8224 16.9422H64.9693C64.4895 20.4209 61.4974 23.1089 57.8888 23.1089C54.2803 23.1089 51.2897 20.4207 50.8097 16.9422H57.6269C58.1691 16.9422 58.6084 16.5027 58.6084 15.9607C58.6084 15.4187 58.1691 14.9793 57.6269 14.9793H9.37359C8.83157 14.9793 8.39214 15.4187 8.39214 15.9607C8.39214 16.5027 8.83157 16.9422 9.37359 16.9422H16.1902C15.7102 20.4207 12.7194 23.1089 9.11108 23.1089C5.50251 23.1089 2.51041 20.4209 2.03054 16.9422ZM48.7087 16.9422C48.2287 20.4207 45.238 23.1089 41.6296 23.1089C38.0212 23.1089 35.0305 20.4207 34.5505 16.9422H48.7087ZM32.4495 16.9422C31.9695 20.4207 28.9787 23.1089 25.3704 23.1089C21.762 23.1089 18.7713 20.4207 18.2913 16.9422H32.4495ZM55.5961 52.7429H44.9713V49.4609H55.5961V52.7429ZM55.5961 47.498H44.9713V29.5301H55.5961V47.498ZM60.8412 52.7429H57.5592V28.5486C57.5592 28.0066 57.1199 27.5672 56.5777 27.5672H43.9899C43.4478 27.5672 43.0085 28.0066 43.0085 28.5486V52.7428H6.15877V24.5781C7.08538 24.8965 8.07782 25.0718 9.11108 25.0718C12.6567 25.0718 15.7357 23.0362 17.2407 20.0721C18.7457 23.036 21.8247 25.0718 25.3704 25.0718C28.916 25.0718 31.995 23.0362 33.5 20.0721C35.005 23.036 38.084 25.0718 41.6296 25.0718C45.1753 25.0718 48.2543 23.0362 49.7593 20.0721C51.2643 23.036 54.3433 25.0718 57.8889 25.0718C58.9222 25.0718 59.9146 24.8965 60.8412 24.5782V52.7429Z" fill="#9DD765"/>
<path d="M38.745 27.5674H10.4224C9.88034 27.5674 9.44092 28.0068 9.44092 28.5488V48.4796C9.44092 49.0217 9.88034 49.4611 10.4224 49.4611H38.745C39.2872 49.4611 39.7265 49.0217 39.7265 48.4796V28.5488C39.7265 28.0067 39.2872 27.5674 38.745 27.5674ZM37.7636 47.4982H11.4038V29.5303H37.7636V47.4982Z" fill="#9DD765"/>
</svg>
