<svg width="52" height="53" viewBox="0 0 52 53" fill="none" xmlns="http://www.w3.org/2000/svg">
<path d="M51.7843 48.8039C51.7841 48.8033 51.784 48.8026 51.7838 48.802L38.8785 0.63676C38.7555 0.179387 38.2857 -0.0925011 37.8279 0.028935L26.1992 3.14458C26.0398 3.19186 25.8979 3.28557 25.7917 3.41367V1.56784C25.7917 1.09306 25.4068 0.708117 24.932 0.708117H0.859725C0.384942 0.708117 0 1.09306 0 1.56784V51.4319C0 51.9066 0.384942 52.2916 0.859725 52.2916H24.932C25.4068 52.2916 25.7917 51.9066 25.7917 51.4319V4.94484L38.4967 52.3629C38.5975 52.7388 38.9381 53 39.3272 53C39.4015 52.9995 39.4754 52.9897 39.5473 52.9708L51.1734 49.8551C51.6324 49.7336 51.9059 49.2629 51.7843 48.8039ZM12.0361 50.5721H1.71945V2.42757H12.0361V50.5721ZM24.0723 50.5721H13.7556V2.42757H24.0723V50.5721ZM39.9351 51.088L27.4751 4.5829L37.4401 1.91173L49.9001 48.4168L39.9351 51.088Z" fill="#9DD765"/>
<path d="M9.45704 5.86646H4.29869C3.82391 5.86646 3.43896 6.2514 3.43896 6.72618C3.43896 7.20096 3.82391 7.5859 4.29869 7.5859H9.45704C9.93182 7.5859 10.3168 7.20096 10.3168 6.72618C10.3168 6.2514 9.93182 5.86646 9.45704 5.86646Z" fill="#9DD765"/>
<path d="M9.45704 9.30518H4.29869C3.82391 9.30518 3.43896 9.69012 3.43896 10.1649C3.43896 10.6397 3.82391 11.0246 4.29869 11.0246H9.45704C9.93182 11.0246 10.3168 10.6397 10.3168 10.1649C10.3168 9.69012 9.93182 9.30518 9.45704 9.30518Z" fill="#9DD765"/>
<path d="M21.4929 5.86646H16.3346C15.8598 5.86646 15.4749 6.2514 15.4749 6.72618C15.4749 7.20096 15.8598 7.5859 16.3346 7.5859H21.4929C21.9677 7.5859 22.3526 7.20096 22.3526 6.72618C22.3526 6.2514 21.9677 5.86646 21.4929 5.86646Z" fill="#9DD765"/>
<path d="M21.4929 9.30518H16.3346C15.8598 9.30518 15.4749 9.69012 15.4749 10.1649C15.4749 10.6397 15.8598 11.0246 16.3346 11.0246H21.4929C21.9677 11.0246 22.3526 10.6397 22.3526 10.1649C22.3526 9.69012 21.9677 9.30518 21.4929 9.30518Z" fill="#9DD765"/>
<path d="M36.9161 6.52617C36.8055 6.06439 36.3415 5.77971 35.8798 5.89029C35.8648 5.89395 35.8499 5.89792 35.835 5.90233L30.8486 7.23662C30.3894 7.3572 30.1148 7.82725 30.2354 8.28645C30.356 8.74565 30.8261 9.02023 31.2853 8.89965C31.2878 8.89901 31.2904 8.89825 31.2931 8.89761L36.2804 7.56246C36.7421 7.45188 37.0267 6.98795 36.9161 6.52617Z" fill="#9DD765"/>
<path d="M37.7849 9.83121C37.662 9.37254 37.1904 9.10044 36.7317 9.22338H36.7283L31.7462 10.5585C31.287 10.6791 31.0124 11.1492 31.133 11.6084C31.2536 12.0676 31.7236 12.3421 32.1828 12.2216C32.1854 12.2209 32.188 12.2202 32.1907 12.2195L37.1771 10.8844C37.6357 10.7614 37.9079 10.2899 37.7849 9.83121Z" fill="#9DD765"/>
<path d="M46.2322 41.3849C46.1081 40.9299 45.6407 40.6599 45.1845 40.7796L40.1981 42.1147C39.7394 42.2375 39.4671 42.7088 39.5899 43.1675C39.6905 43.5436 40.0314 43.8051 40.4208 43.805H40.4242C40.4993 43.8049 40.5742 43.7951 40.6469 43.7757L45.629 42.4406C46.087 42.3157 46.3571 41.8431 46.2322 41.3849Z" fill="#9DD765"/>
<path d="M47.1297 44.7072C47.0055 44.2522 46.5382 43.9821 46.082 44.1019L41.0947 45.437C40.6361 45.5597 40.3637 46.0311 40.4865 46.4897C40.5872 46.8659 40.928 47.1273 41.3174 47.1272C41.3926 47.1273 41.4675 47.1172 41.5401 47.0971L46.5265 45.7628C46.9845 45.638 47.2545 45.1653 47.1297 44.7072Z" fill="#9DD765"/>
<path d="M21.4929 41.9749H16.3346C15.8598 41.9749 15.4749 42.3598 15.4749 42.8346C15.4749 43.3094 15.8598 43.6943 16.3346 43.6943H21.4929C21.9677 43.6943 22.3526 43.3094 22.3526 42.8346C22.3526 42.3598 21.9677 41.9749 21.4929 41.9749Z" fill="#9DD765"/>
<path d="M21.4929 45.4141H16.3346C15.8598 45.4141 15.4749 45.799 15.4749 46.2738C15.4749 46.7486 15.8598 47.1335 16.3346 47.1335H21.4929C21.9677 47.1335 22.3526 46.7486 22.3526 46.2738C22.3526 45.799 21.9677 45.4141 21.4929 45.4141Z" fill="#9DD765"/>
<path d="M9.45704 41.9749H4.29869C3.82391 41.9749 3.43896 42.3598 3.43896 42.8346C3.43896 43.3094 3.82391 43.6943 4.29869 43.6943H9.45704C9.93182 43.6943 10.3168 43.3094 10.3168 42.8346C10.3168 42.3598 9.93182 41.9749 9.45704 41.9749Z" fill="#9DD765"/>
<path d="M9.45704 45.4141H4.29869C3.82391 45.4141 3.43896 45.799 3.43896 46.2738C3.43896 46.7486 3.82391 47.1335 4.29869 47.1335H9.45704C9.93182 47.1335 10.3168 46.7486 10.3168 46.2738C10.3168 45.799 9.93182 45.4141 9.45704 45.4141Z" fill="#9DD765"/>
</svg>
