<svg width="46" height="53" viewBox="0 0 46 53" fill="none" xmlns="http://www.w3.org/2000/svg">
<path d="M42.4655 1.7667H39.7655V0.883299C39.7655 0.39543 39.3626 0 38.8655 0C38.3684 0 37.9655 0.39543 37.9655 0.883299V1.7666H27.1655V0.883299C27.1655 0.39543 26.7627 0 26.2656 0C25.7685 0 25.3656 0.39543 25.3656 0.883299V1.7666H14.5656V0.883299C14.5656 0.39543 14.1627 0 13.6657 0C13.1686 0 12.7657 0.39543 12.7657 0.883299V1.7666H10.0657C8.5752 1.76815 7.36727 2.95371 7.36569 4.4166V21.2C7.36569 21.6879 7.76858 22.0833 8.26565 22.0833C8.76273 22.0833 9.16562 21.6878 9.16562 21.2V4.4167C9.16625 3.92914 9.56883 3.53402 10.0656 3.5334H12.7656V5.46283C11.5258 5.89304 10.7821 7.1373 11.0045 8.4094C11.2268 9.68151 12.3506 10.6113 13.6655 10.6113C14.9805 10.6113 16.1043 9.68151 16.3266 8.4094C16.549 7.1373 15.8053 5.89304 14.5655 5.46283V3.5333H25.3655V5.46273C24.1257 5.89294 23.3821 7.1372 23.6044 8.4093C23.8267 9.6814 24.9505 10.6112 26.2655 10.6112C27.5805 10.6112 28.7042 9.6814 28.9266 8.4093C29.1489 7.1372 28.4052 5.89294 27.1654 5.46273V3.5333H37.9654V5.46273C36.7257 5.89294 35.982 7.1372 36.2043 8.4093C36.4267 9.6814 37.5504 10.6112 38.8654 10.6112C40.1804 10.6112 41.3042 9.6814 41.5265 8.4093C41.7488 7.1372 41.0052 5.89294 39.7654 5.46273V3.5333H42.4654C42.9621 3.53392 43.3647 3.92904 43.3653 4.4166V50.35C43.3647 50.8376 42.9621 51.2327 42.4654 51.2333H10.0654C9.56861 51.2327 9.16604 50.8376 9.16541 50.35V37.9833C9.16541 37.4954 8.76252 37.1 8.26544 37.1C7.76837 37.1 7.36548 37.4954 7.36548 37.9833V50.35C7.36706 51.8129 8.57499 52.9984 10.0655 53H42.4655C43.956 52.9984 45.1639 51.8129 45.1655 50.35V4.4167C45.1639 2.95382 43.956 1.76825 42.4655 1.7667ZM13.6654 8.8333C13.1684 8.8333 12.7655 8.43787 12.7655 7.95C12.7655 7.46213 13.1684 7.0667 13.6654 7.0667C14.1625 7.0667 14.5654 7.46213 14.5654 7.95C14.5649 8.43756 14.1623 8.83268 13.6654 8.8333ZM26.2655 8.8333C25.7684 8.8333 25.3655 8.43787 25.3655 7.95C25.3655 7.46213 25.7684 7.0667 26.2655 7.0667C26.7626 7.0667 27.1654 7.46213 27.1654 7.95C27.1648 8.43756 26.7622 8.83268 26.2655 8.8333ZM38.8655 8.8333C38.3684 8.8333 37.9655 8.43787 37.9655 7.95C37.9655 7.46213 38.3684 7.0667 38.8655 7.0667C39.3626 7.0667 39.7655 7.46213 39.7655 7.95C39.7648 8.43756 39.3623 8.83268 38.8655 8.8333Z" fill="#9DD765"/>
<path d="M13.6656 18.55C13.6867 18.55 13.7083 18.549 13.7293 18.5478C13.9895 18.5297 14.229 18.4015 14.3855 18.1967L17.0855 14.6634C17.2785 14.411 17.3195 14.0767 17.1933 13.7865C17.067 13.4962 16.7926 13.2942 16.4734 13.2564C16.1543 13.2186 15.8387 13.3508 15.6458 13.6031L13.5681 16.3218L12.5019 15.2754C12.1495 14.9358 11.5842 14.9384 11.235 15.281C10.8858 15.6237 10.8833 16.1786 11.2293 16.5245L13.0294 18.2912C13.198 18.4569 13.427 18.5501 13.6656 18.55Z" fill="#9DD765"/>
<path d="M11.2293 26.2413L13.0294 28.008C13.198 28.1738 13.427 28.2669 13.6656 28.2668C13.6867 28.2668 13.7083 28.266 13.7293 28.2646C13.9895 28.2465 14.229 28.1183 14.3855 27.9135L17.0855 24.3802C17.3837 23.99 17.3033 23.4363 16.9057 23.1436C16.5082 22.8508 15.9441 22.9298 15.6458 23.32L13.5681 26.0386L12.5019 24.9923C12.1495 24.6526 11.5842 24.6552 11.235 24.9979C10.8858 25.3406 10.8833 25.8954 11.2293 26.2413Z" fill="#9DD765"/>
<path d="M19.9656 17.6665H40.6657C41.1627 17.6665 41.5656 17.2711 41.5656 16.7832C41.5656 16.2953 41.1627 15.8999 40.6657 15.8999H19.9656C19.4686 15.8999 19.0657 16.2953 19.0657 16.7832C19.0657 17.2711 19.4686 17.6665 19.9656 17.6665Z" fill="#9DD765"/>
<path d="M19.9656 27.3835H40.6657C41.1627 27.3835 41.5656 26.9881 41.5656 26.5002C41.5656 26.0124 41.1627 25.6169 40.6657 25.6169H19.9656C19.4686 25.6169 19.0657 26.0124 19.0657 26.5002C19.0657 26.9881 19.4686 27.3835 19.9656 27.3835Z" fill="#9DD765"/>
<path d="M19.9656 37.1001H40.6657C41.1627 37.1001 41.5656 36.7047 41.5656 36.2168C41.5656 35.7289 41.1627 35.3335 40.6657 35.3335H19.9656C19.4686 35.3335 19.0657 35.7289 19.0657 36.2168C19.0657 36.7047 19.4686 37.1001 19.9656 37.1001Z" fill="#9DD765"/>
<path d="M19.9656 46.8166H40.6657C41.1627 46.8166 41.5656 46.4212 41.5656 45.9333C41.5656 45.4455 41.1627 45.05 40.6657 45.05H19.9656C19.4686 45.05 19.0657 45.4455 19.0657 45.9333C19.0657 46.4212 19.4686 46.8166 19.9656 46.8166Z" fill="#9DD765"/>
<path d="M13.2724 36.1964L13.9293 36.8412C14.1561 37.0668 14.4887 37.156 14.8009 37.0746C15.1131 36.9932 15.3568 36.754 15.4397 36.4476C15.5226 36.1412 15.4318 35.8147 15.2019 35.5922L14.5615 34.9636C14.5433 33.2504 13.8772 31.6049 12.6927 30.3465L4.87398 22.0329C4.39252 21.5222 3.73028 21.2117 3.02301 21.165C2.97048 21.1611 2.92018 21.1476 2.86702 21.1466H2.8666C2.2996 21.1423 1.74357 21.3005 1.26685 21.6017C1.1077 21.7038 0.959828 21.8217 0.825355 21.9536C-0.244203 22.9977 -0.278586 24.6859 0.747519 25.7711L2.09615 27.2052L2.09646 27.2054L8.47395 33.9863C9.72154 35.305 11.4416 36.0972 13.2724 36.1964ZM2.0702 24.5728C1.79873 24.2842 1.72701 23.8654 1.88732 23.5056C2.04763 23.1458 2.40971 22.9131 2.80986 22.9127L2.83095 22.9132C3.10517 22.9174 3.36557 23.0324 3.55077 23.2311L4.20953 23.9316L2.7837 25.3314L2.0702 24.5728ZM5.4316 25.2306L11.3699 31.5446C12.1062 32.3253 12.5778 33.3108 12.7199 34.3654C11.5974 34.1635 10.5717 33.6102 9.79663 32.7881L4.00534 26.6304L5.4316 25.2306Z" fill="#9DD765"/>
</svg>
