<svg width="55" height="55" viewBox="0 0 55 55" fill="none" xmlns="http://www.w3.org/2000/svg">
<path d="M4.4354 48.7717H27.5V46.9971H4.4354C2.96568 46.9971 1.77411 45.8056 1.77411 44.3358V5.30356C1.77411 3.8334 2.96568 2.64228 4.4354 2.64228H43.4677C44.9381 2.64228 46.129 3.8334 46.129 5.30356V25.7066H47.9035V5.30356C47.9006 2.85506 45.9164 0.871055 43.4677 0.868164H4.4354C1.98735 0.871055 0.00311287 2.85506 0 5.30356V44.3358C0.00311287 46.7843 1.98735 48.7684 4.4354 48.7717Z" fill="#9DD765"/>
<path d="M3.54871 8.85212C3.54871 8.36209 3.94595 7.96484 4.43599 7.96484H43.4676C43.9576 7.96484 44.3549 8.36209 44.3549 8.85212C44.3549 9.34216 43.9576 9.7394 43.4676 9.7394H4.43599C3.94596 9.7394 3.54871 9.34216 3.54871 8.85212Z" fill="#9DD765"/>
<path d="M12.6793 11.7732L10.4261 14.0265C8.52142 12.7655 5.97087 13.1524 4.52539 14.9214C3.08012 16.6902 3.20975 19.2668 4.82489 20.8817C6.4398 22.4973 9.01659 22.6269 10.7856 21.1814C12.5544 19.7361 12.9415 17.1851 11.6803 15.281L13.9334 13.0277L12.6793 11.7732ZM7.98356 20.3841C6.51406 20.3841 5.3225 19.1927 5.3225 17.723C5.3225 16.2531 6.51406 15.0619 7.98356 15.0619C8.37934 15.0633 8.76867 15.154 9.12376 15.3276L7.35676 17.0949L8.6108 18.3494L10.3791 16.5832C10.5528 16.9381 10.6437 17.3274 10.6451 17.723C10.6451 19.1927 9.45395 20.3841 7.98356 20.3841Z" fill="#9DD765"/>
<path d="M15.0807 15.949C15.0807 15.4591 15.4778 15.062 15.9676 15.062H29.274C29.7639 15.062 30.161 15.4591 30.161 15.949C30.161 16.4388 29.7639 16.8359 29.274 16.8359H15.9676C15.4778 16.8359 15.0807 16.4388 15.0807 15.949Z" fill="#9DD765"/>
<path d="M15.0807 19.4973C15.0807 19.0075 15.4778 18.6104 15.9676 18.6104H20.4032C20.8931 18.6104 21.2902 19.0075 21.2902 19.4973C21.2902 19.9871 20.8931 20.3842 20.4032 20.3842H15.9676C15.4778 20.3842 15.0807 19.9871 15.0807 19.4973Z" fill="#9DD765"/>
<path d="M23.0646 19.4973C23.0646 19.0075 23.4617 18.6104 23.9515 18.6104H34.5966C35.0865 18.6104 35.4836 19.0075 35.4836 19.4973C35.4836 19.9871 35.0865 20.3842 34.5966 20.3842H23.9515C23.4617 20.3842 23.0646 19.9871 23.0646 19.4973Z" fill="#9DD765"/>
<path d="M12.6793 22.4182L10.4261 24.6715C8.52142 23.4106 5.97087 23.7974 4.52539 25.5664C3.08012 27.3354 3.20975 29.9118 4.82489 31.5271C6.4398 33.1423 9.01659 33.2719 10.7856 31.8264C12.5544 30.3809 12.9415 27.8308 11.6803 25.926L13.9334 23.6727L12.6793 22.4182ZM7.98356 31.0293C6.51406 31.0293 5.3225 29.8377 5.3225 28.368C5.3225 26.8981 6.51406 25.7065 7.98356 25.7065C8.37934 25.7081 8.76867 25.799 9.12376 25.9727L7.35676 27.7403L8.6108 28.9944L10.3791 27.228C10.5528 27.5831 10.6437 27.9725 10.6451 28.368C10.6451 29.8377 9.45395 31.0293 7.98356 31.0293Z" fill="#9DD765"/>
<path d="M15.0807 26.5937C15.0807 26.1037 15.4779 25.7065 15.9679 25.7065H29.2738C29.7638 25.7065 30.161 26.1037 30.161 26.5937C30.161 27.0837 29.7638 27.4809 29.2738 27.4809H15.9679C15.4779 27.4809 15.0807 27.0837 15.0807 26.5937Z" fill="#9DD765"/>
<path d="M12.6793 33.0635L10.4261 35.3168C8.52142 34.0558 5.97087 34.4427 4.52539 36.2117C3.08012 37.9807 3.20975 40.5571 4.82489 42.1724C6.4398 43.7878 9.01659 43.917 10.7856 42.4717C12.5544 41.0262 12.9415 38.4759 11.6803 36.571L13.9334 34.318L12.6793 33.0635ZM7.98356 41.6746C6.51406 41.6746 5.3225 40.483 5.3225 39.0133C5.3225 37.5433 6.51406 36.352 7.98356 36.352C8.37934 36.3533 8.76867 36.4441 9.12376 36.6179L7.35676 38.3856L8.6108 39.6396L10.3791 37.8733C10.5528 38.2284 10.6437 38.618 10.6451 39.0133C10.6451 40.483 9.45395 41.6746 7.98356 41.6746Z" fill="#9DD765"/>
<path d="M15.0807 37.2393C15.0807 36.7493 15.4779 36.3521 15.968 36.3521H25.7255C26.2155 36.3521 26.6128 36.7493 26.6128 37.2393C26.6128 37.7294 26.2155 38.1266 25.7255 38.1266H15.968C15.4779 38.1266 15.0807 37.7294 15.0807 37.2393Z" fill="#9DD765"/>
<path d="M41.6938 54.0942C49.0431 54.0942 55 48.1362 55 40.7876C55 33.4383 49.0431 27.481 41.6938 27.481C34.3446 27.481 28.3872 33.4383 28.3872 40.7876C28.3959 48.1329 34.3481 54.0853 41.6938 54.0942ZM41.6938 29.2553C48.0626 29.2553 53.2262 34.4184 53.2262 40.7876C53.2262 47.1568 48.0626 52.3197 41.6938 52.3197C35.3245 52.3197 30.1611 47.1568 30.1611 40.7876C30.1687 34.4216 35.3274 29.2624 41.6938 29.2553Z" fill="#9DD765"/>
<path d="M36.6781 42.0726C36.4597 41.6339 35.9267 41.4555 35.4882 41.6745C35.0499 41.8933 34.8721 42.4262 35.0913 42.8644L36.4688 45.6193C36.596 45.8745 36.8388 46.0531 37.1205 46.0986C37.1663 46.1058 37.2121 46.1095 37.2581 46.1102C37.4932 46.1102 37.7188 46.0166 37.8856 45.8503L47.9033 35.8322C48.2496 35.4859 48.2496 34.9244 47.9034 34.578C47.557 34.2316 46.9954 34.2315 46.649 34.5779L38.6248 42.6017C38.0723 43.1542 37.1408 43.0022 36.7926 42.3028L36.6781 42.0726Z" fill="#9DD765"/>
</svg>
