<svg width="55" height="53" viewBox="0 0 55 53" fill="none" xmlns="http://www.w3.org/2000/svg">
<path d="M40.6771 0C34.5764 0 29.5377 5.95684 27.5 8.76825C25.4623 5.95684 20.4236 0 14.3229 0C6.42522 0 0 7.63312 0 17.0142C0 22.1324 1.93252 26.9022 5.31513 30.1666C5.36433 30.256 5.4248 30.3384 5.49527 30.4124L26.691 52.6482C26.9148 52.8823 27.2068 53 27.5 53C27.7932 53 28.0863 52.8823 28.3102 52.6471L50.2108 29.6326L50.4368 29.402C50.6159 29.2243 50.7927 29.0443 50.9907 28.8139C51.0735 28.728 51.1417 28.6315 51.1944 28.5268C53.6506 25.3649 55 21.2865 55 17.0142C55 7.63312 48.5749 0 40.6771 0ZM49.2876 27.1717C49.2563 27.2105 49.2271 27.2516 49.2015 27.294C49.0941 27.4234 48.9765 27.5374 48.8602 27.654L27.4989 50.0933L7.37634 28.982C7.31146 28.8478 7.22079 28.7255 7.11004 28.6232C4.04733 25.8118 2.29163 21.5806 2.29163 17.0142C2.29163 8.96113 7.68851 2.40916 14.3229 2.40916C20.8824 2.40916 26.4806 11.4033 26.5365 11.4938C26.9596 12.1808 28.0404 12.1808 28.4635 11.4938C28.5194 11.4033 34.1176 2.40916 40.6771 2.40916C47.3115 2.40916 52.7084 8.96124 52.7084 17.0142C52.7084 20.809 51.4931 24.4167 49.2876 27.1717Z" fill="#9DD765"/>
</svg>
