<svg width="17" height="19" fill="none" xmlns="http://www.w3.org/2000/svg"><path d="M6.623 16.643a945.87 945.87 0 01-4.091-.018C1.527 16.605.7 15.46 1.105 14.472A1.6 1.6 0 012.55 13.5h.938c0-1.582-.004-3.165 0-4.747.02-2.006 1.261-3.94 3.108-4.783l.017-.008c0-.53-.023-1.105.137-1.537A2.204 2.204 0 018.83 1c1.14.021 2.153 1.008 2.16 2.186v.776l.108.05c1.796.86 3.011 2.765 3.017 4.773V13.5c.535 0 1.094-.075 1.563.13.902.395 1.221 1.742.519 2.497-.287.308-.7.49-1.124.498-1.354.009-2.709.015-4.063.018-.02.218-.116.462-.2.642A1.969 1.969 0 019.083 18.4c-.413.003-.826.02-1.201-.117a1.98 1.98 0 01-1.259-1.64zm3.704.138h-3.05c.14.556.665.983 1.252.994.33.003.658.034.963-.073.408-.144.73-.5.835-.92zM8.782 1.625c-.812.015-1.538.718-1.543 1.563v.98c-.017.26-.105.248-.358.36-1.621.726-2.75 2.41-2.767 4.229v5.055s-.065.297-.312.313c-.851 0-1.85-.125-2.127.604-.21.552.234 1.25.852 1.27 4.183.08 8.367.08 12.55 0 .705-.022 1.199-1.011.653-1.583a.952.952 0 00-.68-.291h-1.248c-.17-.011-.298-.085-.313-.313 0-1.685.005-3.37 0-5.055-.017-1.83-1.184-3.593-2.93-4.299 0 0-.18-.074-.195-.29 0-.714.062-1.476-.366-1.986a1.53 1.53 0 00-1.216-.557z" fill="#fff" stroke="#fff" stroke-width=".3"/></svg>