<svg width="18" height="22" fill="none" xmlns="http://www.w3.org/2000/svg"><path d="M13.654 3.526a.196.196 0 00-.056-.137l-.004-.004-2.327-2.327a.199.199 0 00-.027-.022l-.009-.006a.193.193 0 00-.023-.012l-.01-.004a.191.191 0 00-.031-.01h-.002A.203.203 0 0011.131 1H4.996a.96.96 0 00-.96.96v5.913c0 .11.089.199.199.199h9.22a.2.2 0 00.198-.199V3.526zm-2.329-1.848l.825.824.825.825h-1.356a.294.294 0 01-.294-.293V1.678v0zM4.433 7.675V1.959c0-.31.252-.562.563-.562h5.932v1.637c0 .38.31.69.69.69h1.637v3.95H4.434v0zm9.59 7.309H3.727a.228.228 0 010-.455h10.296a.228.228 0 010 .455z" fill="#2F2F2F" stroke="#2F2F2F" stroke-width=".5"/><path d="M15.648 7.675H2.045A1.59 1.59 0 00.457 9.263v6.265a1.59 1.59 0 001.588 1.588H4.04v3.5a1.012 1.012 0 001.014 1.013h7.59c.559 0 1.013-.454 1.014-1.012l.002-3.5h1.988a1.59 1.59 0 001.588-1.589V9.263a1.59 1.59 0 00-1.588-1.588zM13.26 20.616c0 .34-.276.616-.616.616h-7.59a.612.612 0 01-.617-.616v-5.661h8.827l-.004 5.661zm3.58-5.088c0 .657-.535 1.191-1.192 1.191H13.66l.001-1.963a.198.198 0 00-.198-.198H4.239a.199.199 0 00-.199.198v1.963H2.045a1.193 1.193 0 01-1.191-1.191v-2.962h15.985v2.962zm0-3.36H.853V9.264c0-.657.534-1.191 1.19-1.191h13.604c.657 0 1.191.534 1.191 1.19v2.906h0z" fill="#2F2F2F" stroke="#2F2F2F" stroke-width=".5"/></svg>