<svg width="19" height="19" fill="none" xmlns="http://www.w3.org/2000/svg"><path d="M9.5 19a9.5 9.5 0 100-19 9.5 9.5 0 000 19z" fill="#FCCC53"/><path d="M9.5 14.023A4.305 4.305 0 015.61 11.6a.342.342 0 11.614-.302 3.65 3.65 0 006.552 0 .342.342 0 11.615.302A4.304 4.304 0 019.5 14.023zm1.972-4.549a.342.342 0 01-.308-.493 2.339 2.339 0 014.198 0 .342.342 0 01-.615.302 1.654 1.654 0 00-2.969 0 .342.342 0 01-.306.191zm-3.944 0a.342.342 0 01-.308-.191 1.654 1.654 0 00-2.969 0 .342.342 0 01-.614-.302 2.339 2.339 0 014.197 0 .342.342 0 01-.308.493h.002z" fill="#858B8C"/></svg>