<svg width="19" height="19" fill="none" xmlns="http://www.w3.org/2000/svg"><path d="M9.5 19a9.5 9.5 0 100-19 9.5 9.5 0 000 19z" fill="#FCCC53"/><path d="M9.5 14.023A4.305 4.305 0 015.61 11.6a.342.342 0 11.614-.301 3.651 3.651 0 006.552 0 .342.342 0 11.614.301 4.305 4.305 0 01-3.89 2.423zm1.973-4.548a.342.342 0 01-.308-.493 2.338 2.338 0 014.197 0 .342.342 0 01-.614.302 1.654 1.654 0 00-2.969 0 .342.342 0 01-.306.19z" fill="#090A0A"/><path d="M7.669 9.062s0 0 0 0h0zm-.141-.088v.001h0s0 0 0 0zm-.308.309a1.654 1.654 0 00-2.969 0h2.97z" fill="#090A0A" stroke="#0A0909"/></svg>