<svg width="70" height="65" viewBox="0 0 70 65" fill="none" xmlns="http://www.w3.org/2000/svg">
<path d="M55.7351 43.1294C57.6338 43.1294 59.1731 41.5901 59.1731 39.6914C59.1731 37.7927 57.6338 36.2534 55.7351 36.2534C53.8364 36.2534 52.2971 37.7927 52.2971 39.6914C52.2971 41.5901 53.8364 43.1294 55.7351 43.1294Z" fill="#EDEDED"/>
<path d="M55.7351 63.7574C57.6338 63.7574 59.1731 62.2182 59.1731 60.3195C59.1731 58.4207 57.6338 56.8815 55.7351 56.8815C53.8364 56.8815 52.2971 58.4207 52.2971 60.3195C52.2971 62.2182 53.8364 63.7574 55.7351 63.7574Z" fill="#EDEDED"/>
<path d="M28.2314 13.9067C28.2314 15.8062 26.6929 17.3447 24.7934 17.3447H4.16552C2.26604 17.3447 0.727539 15.8062 0.727539 13.9067C0.727539 12.0072 2.26604 10.4688 4.16552 10.4688H24.7934C26.6929 10.4688 28.2314 12.0072 28.2314 13.9067Z" fill="#F0F0F0"/>
<path d="M69.487 13.9067C69.487 15.8062 67.9485 17.3447 66.049 17.3447H45.4211C43.5217 17.3447 41.9832 15.8062 41.9832 13.9067C41.9832 12.0072 43.5217 10.4688 45.4211 10.4688H66.049C67.9485 10.4688 69.487 12.0072 69.487 13.9067Z" fill="#9BBADA"/>
<path d="M14.4792 27.6586C12.5798 27.6586 11.0413 26.1201 11.0413 24.2207V3.59277C11.0413 1.69328 12.5798 0.154785 14.4792 0.154785C16.3787 0.154785 17.9172 1.69328 17.9172 3.59277V24.2207C17.9172 26.1201 16.3787 27.6586 14.4792 27.6586Z" fill="#EDEDED"/>
<path d="M69.487 50.0054C69.487 51.9049 67.9485 53.4433 66.049 53.4433H45.4211C43.5217 53.4433 41.9832 51.9049 41.9832 50.0054C41.9832 48.1059 43.5217 46.5674 45.4211 46.5674H66.049C67.9485 46.5674 69.487 48.1059 69.487 50.0054Z" fill="#EDEDED"/>
<path d="M26.2166 63.4623C24.874 64.8048 22.6978 64.8048 21.3552 63.4623L2.74201 44.849C1.39947 43.5065 1.39947 41.3303 2.74201 39.9877C4.08454 38.6452 6.26078 38.6452 7.60331 39.9877L26.2166 58.601C27.5591 59.9435 27.5591 62.1197 26.2166 63.4623Z" fill="#9BBADA"/>
<path d="M2.74201 63.4623C1.39947 62.1197 1.39947 59.9435 2.74201 58.601L21.3552 39.9877C22.6978 38.6452 24.874 38.6452 26.2166 39.9877C27.5591 41.3303 27.5591 43.5065 26.2166 44.849L7.60331 63.4623C6.26078 64.8048 4.08454 64.8048 2.74201 63.4623Z" fill="#9BBADA"/>
</svg>
