<svg width="89" height="67" viewBox="0 0 89 67" fill="none" xmlns="http://www.w3.org/2000/svg">
<path d="M13.3694 8.38598C13.3697 9.85654 13.7597 11.3008 14.4996 12.5716H0.8125L0.8125 26.2587C2.08485 25.5206 3.52921 25.1308 5.00013 25.1286C6.47105 25.1263 7.9166 25.5117 9.1912 26.2458C10.4658 26.98 11.5245 28.037 12.2606 29.3105C12.9967 30.584 13.3843 32.0289 13.3843 33.4999C13.3843 34.9708 12.9967 36.4157 12.2606 37.6892C11.5245 38.9627 10.4658 40.0197 9.1912 40.7539C7.9166 41.4881 6.47105 41.8734 5.00013 41.8711C3.52921 41.8689 2.08485 41.4791 0.8125 40.741L0.8125 54.4281H14.4996C13.7615 55.7004 13.3717 57.1448 13.3695 58.6157C13.3672 60.0867 13.7525 61.5322 14.4867 62.8068C15.2209 64.0814 16.2779 65.1401 17.5514 65.8762C18.8249 66.6123 20.2698 66.9999 21.7407 66.9999C23.2117 66.9999 24.6566 66.6123 25.9301 65.8762C27.2036 65.1401 28.2606 64.0814 28.9948 62.8068C29.7289 61.5322 30.1143 60.0867 30.112 58.6157C30.1098 57.1448 29.72 55.7004 28.9819 54.4281H42.669V40.741C41.3966 41.4791 39.9523 41.8689 38.4813 41.8711C37.0104 41.8734 35.5649 41.4881 34.2903 40.7539C33.0157 40.0197 31.957 38.9627 31.2209 37.6892C30.4848 36.4157 30.0972 34.9708 30.0972 33.4999C30.0972 32.0289 30.4848 30.584 31.2209 29.3105C31.957 28.037 33.0157 26.98 34.2903 26.2458C35.5649 25.5117 37.0104 25.1263 38.4813 25.1286C39.9523 25.1308 41.3966 25.5206 42.669 26.2587V12.5716H28.9819C29.6269 11.4598 30.0071 10.2143 30.0932 8.93177C30.1793 7.64925 29.9689 6.36414 29.4783 5.17605C28.9877 3.98796 28.2301 2.9288 27.2642 2.08069C26.2983 1.23257 25.15 0.618271 23.9085 0.285416C22.6669 -0.0474396 21.3654 -0.0899124 20.1048 0.161278C18.8442 0.412476 17.6583 0.9506 16.6392 1.73393C15.62 2.51727 14.795 3.52477 14.228 4.67834C13.6609 5.83192 13.3672 7.10058 13.3694 8.38598Z" fill="#0E80A4"/>
<path d="M80.3546 24.9429C78.8841 24.9432 77.4398 25.3332 76.169 26.0731V12.386H62.4819C63.22 13.6583 63.6098 15.1027 63.612 16.5736C63.6143 18.0445 63.2289 19.4901 62.4948 20.7647C61.7606 22.0393 60.7036 23.098 59.4301 23.8341C58.1566 24.5702 56.7117 24.9578 55.2407 24.9578C53.7698 24.9578 52.3249 24.5702 51.0514 23.8341C49.7779 23.098 48.7209 22.0393 47.9867 20.7647C47.2525 19.4901 46.8672 18.0445 46.8695 16.5736C46.8717 15.1027 47.2615 13.6583 47.9996 12.386H34.3125V26.0731C33.0402 25.335 31.5958 24.9452 30.1249 24.9429C28.654 24.9407 27.2084 25.326 25.9338 26.0602C24.6592 26.7943 23.6005 27.8514 22.8644 29.1249C22.1283 30.3983 21.7407 31.8433 21.7407 33.3142C21.7407 34.7851 22.1283 36.2301 22.8644 37.5036C23.6005 38.7771 24.6592 39.8341 25.9338 40.5683C27.2084 41.3024 28.654 41.6878 30.1249 41.6855C31.5958 41.6832 33.0402 41.2935 34.3125 40.5554V54.2425H47.9996C47.2615 52.9701 46.8717 51.5258 46.8695 50.0548C46.8672 48.5839 47.2525 47.1384 47.9867 45.8638C48.7209 44.5891 49.7779 43.5305 51.0514 42.7944C52.3249 42.0583 53.7698 41.6707 55.2407 41.6707C56.7117 41.6707 58.1566 42.0583 59.4301 42.7944C60.7036 43.5305 61.7606 44.5891 62.4948 45.8638C63.2289 47.1384 63.6143 48.5839 63.612 50.0548C63.6098 51.5258 63.22 52.9701 62.4819 54.2425H76.169V40.5554C77.2808 41.2004 78.5263 41.5806 79.8088 41.6667C81.0914 41.7528 82.3765 41.5424 83.5645 41.0518C84.7526 40.5612 85.8118 39.8035 86.6599 38.8377C87.508 37.8718 88.1223 36.7235 88.4552 35.482C88.788 34.2404 88.8305 32.9389 88.5793 31.6783C88.3281 30.4176 87.79 29.2318 87.0067 28.2127C86.2233 27.1935 85.2158 26.3685 84.0623 25.8014C82.9087 25.2344 81.64 24.9407 80.3546 24.9429Z" fill="#369CB7"/>
</svg>
