<svg width="73" height="83" viewBox="0 0 73 83" fill="none" xmlns="http://www.w3.org/2000/svg">
<path d="M36.6391 51.623L36.8606 72.0977L19.2413 82.5233L1.3999 72.4813L1.17841 52.0066L18.7983 41.5739L36.6391 51.623Z" fill="#369CB7"/>
<path d="M19.0171 62.0487L19.2386 82.5234L1.40215 72.4814L1.18066 52.0067L19.0171 62.0487Z" fill="#0E80A4"/>
<path d="M36.6391 51.6231L36.8606 72.0978L19.2384 82.5234L19.017 62.0487L36.6391 51.6231Z" fill="#EDEDED"/>
<path d="M36.196 10.6739L36.4175 31.1486L18.7982 41.5742L0.956784 31.5322L0.735295 11.0575L18.3552 0.624844L36.196 10.6739Z" fill="#0E80A4"/>
<path d="M18.5742 21.0994L18.7957 41.5741L0.959282 31.5321L0.737793 11.0574L18.5742 21.0994Z" fill="#EDEDED"/>
<path d="M36.196 10.6735L36.4175 31.1482L18.7953 41.5738L18.5738 21.0991L36.196 10.6735Z" fill="#369CB7"/>
<path d="M71.8784 30.7648L72.0999 51.2394L54.4799 61.665L36.6392 51.623L36.4177 31.1484L54.0369 20.7157L71.8784 30.7648Z" fill="#EDEDED"/>
<path d="M71.8764 30.7649L72.0979 51.2396L54.4828 61.6651L54.2613 41.1904L71.8764 30.7649Z" fill="#369CB7"/>
<path d="M54.2613 41.1906L54.4828 61.6653L36.6392 51.6234L36.4177 31.1487L54.2613 41.1906Z" fill="#0E80A4"/>
</svg>
