<svg width="68" height="68" viewBox="0 0 68 68" fill="none" xmlns="http://www.w3.org/2000/svg">
<path d="M41.3212 49.3716L0.451172 15.347H16.759V0.454102L49.5127 44.8064L47.6754 48.4713L41.3212 49.3716Z" fill="#369CB7"/>
<path d="M61.2132 67.0696L50.4422 61.3708L39.6711 67.0696L41.7629 55.0859L33.0547 46.5859L45.073 44.8507L50.4383 33.937L55.8209 44.8545L67.8354 46.5801L59.1214 55.0859L61.2132 67.0696Z" fill="#0E80A4"/>
<path d="M26.7521 46.9771C23.4864 46.9771 20.8297 44.3205 20.8297 41.0547V39.0806H16.8814V41.0547C16.8814 44.3205 14.2248 46.9771 10.959 46.9771H8.98486V50.9254H10.959C14.2248 50.9254 16.8814 53.5821 16.8814 56.8479V58.822H20.8297V56.8479C20.8297 53.5821 23.4864 50.9254 26.7521 50.9254H28.7263V46.9771H26.7521Z" fill="#0E80A4"/>
<path d="M54.3903 15.3908C51.1246 15.3908 48.4679 12.7342 48.4679 9.46841V7.49426H44.5196V9.46841C44.5196 12.7342 41.8629 15.3908 38.5972 15.3908H36.623V19.3391H38.5972C41.8629 19.3391 44.5196 21.9958 44.5196 25.2615V27.2357H48.4679V25.2615C48.4679 21.9958 51.1246 19.3391 54.3903 19.3391H56.3645V15.3908H54.3903Z" fill="#0E80A4"/>
<path d="M67.8351 46.5801L55.8206 44.8547L50.438 33.9371L45.0727 44.8507L42.4746 45.2257L61.2129 67.0696L59.1211 55.0859L67.8351 46.5801Z" fill="#0E80A4"/>
</svg>
