<svg width="83" height="90" viewBox="0 0 83 90" fill="none" xmlns="http://www.w3.org/2000/svg">
<path d="M61.4564 30.8752L69.3496 11.5145C69.4985 11.0677 69.4985 10.472 69.2007 10.0252L68.6049 9.28057H67.8603L47.7549 14.642L32.4152 1.08949L31.8195 0.6427H31.2238C30.3302 0.6427 29.5856 1.38734 29.5856 2.13199L28.3942 22.982L10.9695 33.8538C10.3738 34.1517 10.2249 34.7474 10.2249 35.3431L10.3738 36.3856L30.3302 44.4278L40.0106 73.9157C40.1595 74.6603 40.9042 75.1071 41.4999 75.1071C42.0956 75.1071 42.8403 74.6603 42.9892 74.0646L52.3717 48.7467L70.9878 50.9806H71.1367C71.7325 50.9806 72.3282 50.6828 72.4771 50.0871L72.9239 49.1935L61.4564 30.8752Z" fill="#EDEDED"/>
<path d="M57.8827 72.1287H25.1183V79.5751H57.8827V72.1287Z" fill="#0E80A4"/>
<path d="M63.8397 76.5966H19.1611V88.5109H63.8397V76.5966Z" fill="#0E80A4"/>
<path d="M65.3287 87.0219H17.6715V90.0004H65.3287V87.0219Z" fill="#0E80A4"/>
<path d="M51.9253 76.5966H31.0753V85.5323H51.9253V76.5966Z" fill="#EDEDED"/>
<path d="M18.8626 70.6392L12.6076 62.1503C11.1183 57.5335 11.1183 52.7678 12.6076 48.2999C12.7565 47.8531 13.2033 47.4063 13.799 47.2574C14.3947 47.1085 14.8415 47.4063 15.2883 47.7042C20.3519 54.1081 21.8412 62.8949 18.8626 70.6392Z" fill="#0E80A4"/>
<path d="M10.8208 58.8736C10.2251 57.5332 9.77835 56.4907 9.48049 55.4482C12.0123 47.7039 10.3741 39.215 5.16155 33.1089C4.86369 32.811 4.41691 32.6621 4.11905 32.6621C3.37441 32.6621 2.92762 33.1089 2.62976 33.7046C0.246901 41.5978 2.48083 50.2357 8.14013 56.1929C8.43799 57.2354 8.88477 58.2779 9.48049 59.6182L10.8208 58.8736Z" fill="#0E80A4"/>
<path d="M15.4377 63.1925C14.2463 63.1925 13.2038 61.8521 13.2038 60.2139C13.2038 58.5757 14.2463 57.2354 15.4377 57.2354C16.6291 57.2354 17.6716 58.5757 17.6716 60.2139C17.6716 61.8521 16.6291 63.1925 15.4377 63.1925Z" fill="#EDEDED"/>
<path d="M5.45902 56.3419C4.71438 56.3419 3.82081 55.8951 3.07616 55.2994C2.48045 54.7037 2.18259 54.108 2.03366 53.5123C1.88473 52.7676 2.03366 52.023 2.48045 51.5762C3.37402 50.6826 5.01224 50.9805 6.20367 52.1719C6.79938 52.7676 7.09724 53.3633 7.24617 53.9591C7.3951 54.7037 7.24617 55.4484 6.79938 55.8951C6.50153 56.193 5.90581 56.3419 5.45902 56.3419Z" fill="#EDEDED"/>
<path d="M22.1393 72.724C21.0968 71.9794 19.9054 71.0858 18.7139 69.8944C16.1821 62.1501 9.7782 56.1929 1.73604 54.5547C1.14033 54.4058 0.544611 54.7037 0.246754 55.1504C-0.0511039 55.5972 -0.0511045 56.044 0.0978243 56.4908C2.92747 64.0862 9.7782 69.7455 17.8204 71.0858C19.0118 72.1283 20.2032 73.1708 21.2457 73.9155L22.1393 72.724Z" fill="#0E80A4"/>
<path d="M64.1373 70.6392L70.3923 62.1503C71.8816 57.5335 71.8816 52.7678 70.3923 48.2999C70.2434 47.8531 69.7966 47.4063 69.2009 47.2574C68.6052 47.1085 68.1584 47.4063 67.7116 47.7042C62.648 54.1081 61.1587 62.8949 64.1373 70.6392Z" fill="#0E80A4"/>
<path d="M72.1792 58.8736C72.7749 57.5332 73.2217 56.4907 73.5196 55.4482C70.9878 47.7039 72.626 39.215 77.8385 33.1089C78.1364 32.811 78.5831 32.6621 78.881 32.6621C79.6256 32.6621 80.0724 33.1089 80.3703 33.7046C82.7532 41.5978 80.5192 50.2357 74.8599 56.1929C74.5621 57.2354 74.1153 58.2779 73.5196 59.6182L72.1792 58.8736Z" fill="#0E80A4"/>
<path d="M65.3286 60.2139C65.3286 58.5757 66.3711 57.2354 67.5625 57.2354C68.754 57.2354 69.7965 58.5757 69.7965 60.2139C69.7965 61.8521 68.754 63.1925 67.5625 63.1925C66.3711 63.1925 65.3286 61.8521 65.3286 60.2139Z" fill="#EDEDED"/>
<path d="M76.2002 55.7463C75.7534 55.2995 75.6045 54.5548 75.7534 53.8102C75.9023 53.2145 76.2002 52.4698 76.7959 52.023C77.9873 50.8316 79.6255 50.6827 80.5191 51.4273C80.9659 51.8741 81.1148 52.6188 80.9659 53.3634C80.817 53.9591 80.5191 54.7038 79.9234 55.1505C79.1788 55.8952 78.4341 56.193 77.5405 56.193C77.0938 56.342 76.498 56.193 76.2002 55.7463Z" fill="#EDEDED"/>
<path d="M60.8607 72.724C61.9032 71.9794 63.0946 71.0858 64.286 69.8944C66.8178 62.1501 73.2218 56.1929 81.2639 54.5547C81.8596 54.4058 82.4553 54.7037 82.7532 55.1504C83.0511 55.5972 83.0511 56.044 82.9021 56.4908C80.0725 64.0862 73.2218 69.7455 65.1796 71.0858C63.9882 72.1283 62.7967 73.1708 61.7542 73.9155L60.8607 72.724Z" fill="#0E80A4"/>
</svg>
