<svg width="155" height="55" viewBox="0 0 155 55" fill="none" xmlns="http://www.w3.org/2000/svg">
<rect x="6.8125" y="7.06958" width="148" height="36" rx="18" fill="#0E80A4"/>
<path d="M21.1573 0.968182L16.9375 2.47144L20.1319 11.4385L24.3517 9.9352L21.1573 0.968182Z" fill="#0E80A4"/>
<path d="M21.1626 0.965863L16.9429 2.46912L18.2582 6.16142L22.478 4.65817L21.1626 0.965863Z" fill="#369CB7"/>
<path d="M40.3847 6.00144L37.3496 4.56091L34.1084 11.3899L37.1435 12.8304L40.3847 6.00144Z" fill="#0E80A4"/>
<path d="M12.0429 21.7077L13.4834 18.6726L6.65443 15.4314L5.2139 18.4665L12.0429 21.7077Z" fill="#0E80A4"/>
<path d="M35.4103 47.5707C46.4802 43.6271 52.2573 31.4563 48.3138 20.3863C44.3702 9.31636 32.1993 3.53927 21.1294 7.48284C10.0594 11.4264 4.28234 23.5973 8.2259 34.6672C12.1695 45.7372 24.3403 51.5143 35.4103 47.5707Z" fill="#B4E0E7"/>
<path d="M33.9072 43.3507C42.6466 40.2374 47.2074 30.6288 44.0941 21.8894C40.9808 13.1499 31.3722 8.58906 22.6328 11.7024C13.8933 14.8157 9.33245 24.4243 12.4458 33.1638C15.5591 41.9032 25.1677 46.4641 33.9072 43.3507Z" fill="white"/>
<path opacity="0.2" d="M29.7732 31.7462C32.1037 30.916 33.3199 28.3537 32.4897 26.0232C31.6595 23.6927 29.0972 22.4765 26.7667 23.3067C24.4361 24.1369 23.2199 26.6992 24.0501 29.0297C24.8804 31.3602 27.4426 32.5765 29.7732 31.7462Z" fill="#0E80A4"/>
<path d="M23.3895 13.8325L25.0928 18.6038C30.0324 16.8456 35.5026 19.4027 37.2603 24.3983L42.0316 22.695C39.2835 15.1168 30.9673 11.1404 23.3895 13.8325Z" fill="#0E80A4"/>
<path d="M23.3896 13.8326L25.093 18.6038C27.5628 17.7248 30.1933 17.9107 32.3697 18.9895L34.5288 14.4125C31.1239 12.8214 27.1503 12.5144 23.3896 13.8326Z" fill="#0E80A4"/>
<path d="M24.07 29.0682L41.976 22.6948" stroke="#0E80A4" stroke-width="3" stroke-miterlimit="10" stroke-linecap="round"/>
<path d="M29.0213 29.6367C30.1866 29.2216 30.7947 27.9405 30.3796 26.7752C29.9645 25.61 28.6834 25.0018 27.5181 25.417C26.3528 25.8321 25.7447 27.1132 26.1598 28.2785C26.5749 29.4437 27.8561 30.0518 29.0213 29.6367Z" fill="#0E80A4"/>
<path opacity="0.2" d="M32.7855 40.2145L31.8516 37.5763" stroke="#0E80A4" stroke-width="2" stroke-miterlimit="10" stroke-linecap="round" stroke-linejoin="round"/>
<path opacity="0.2" d="M22.4857 39.6964L23.6788 37.1848" stroke="#0E80A4" stroke-width="2" stroke-miterlimit="10" stroke-linecap="round" stroke-linejoin="round"/>
<path opacity="0.2" d="M15.5937 32.09L18.2323 31.1001" stroke="#0E80A4" stroke-width="2" stroke-miterlimit="10" stroke-linecap="round" stroke-linejoin="round"/>
<path opacity="0.2" d="M37.8799 32.1298L40.3915 33.3228" stroke="#0E80A4" stroke-width="2" stroke-miterlimit="10" stroke-linecap="round" stroke-linejoin="round"/>
<path opacity="0.2" d="M16.1123 21.7904L18.68 22.9838" stroke="#0E80A4" stroke-width="2" stroke-miterlimit="10" stroke-linecap="round" stroke-linejoin="round"/>
</svg>
