<svg width="16" height="10" viewBox="0 0 16 10" fill="none" xmlns="http://www.w3.org/2000/svg">
<path d="M-0.00012207 0.632113C-9.77277e-05 0.507061 0.0337433 0.384824 0.0971203 0.280863C0.160497 0.176903 0.250564 0.0958875 0.355929 0.0480628C0.461295 0.00023808 0.577227 -0.0122476 0.689064 0.012185C0.800901 0.0366176 0.903618 0.0968706 0.984227 0.185324L7.68327 7.53162L14.3823 0.185324C14.491 0.0701554 14.6367 0.00642824 14.7878 0.00786876C14.939 0.00930929 15.0836 0.0758024 15.1905 0.193026C15.2974 0.31025 15.358 0.468826 15.3594 0.634599C15.3607 0.800372 15.3026 0.96008 15.1975 1.07932L8.09069 8.87283C7.98257 8.99136 7.83595 9.05795 7.68307 9.05795C7.53019 9.05795 7.38358 8.99136 7.27546 8.87283L0.168613 1.07932C0.115085 1.02058 0.0726311 0.950858 0.0436792 0.874124C0.0147274 0.797391 -0.00015638 0.715155 -0.00012207 0.632113Z" fill="#2F2F2F"/>
</svg>
