<svg width="32" height="26" viewBox="0 0 32 26" fill="none" xmlns="http://www.w3.org/2000/svg">
<path d="M11.4259 19.4971C10.9201 18.6565 10.2362 18.0271 9.47275 17.4465C8.68366 16.8455 7.8217 16.2256 6.88287 15.9144C6.01289 15.6274 4.9405 15.7411 4.07859 16.0077C3.24498 16.2649 2.64611 16.7833 2.33047 17.6333C2.01345 18.486 1.93792 19.3238 2.62584 19.9978C3.25578 20.615 4.18785 21.017 5.04167 21.0847C5.29661 21.105 5.96432 21.1496 6.14506 20.9209C6.35416 20.657 6.28937 19.9288 6.22331 19.6378C6.03853 18.8162 5.21433 18.134 4.51561 18.8257C3.79668 19.5363 2.82957 18.2681 3.54306 17.5629C4.32811 16.786 5.54752 16.7359 6.45533 17.3396C7.36713 17.9459 7.80686 19.049 7.80824 20.1373C7.80824 21.2498 7.46021 22.2311 6.36224 22.5505C5.31013 22.8565 4.16221 22.6642 3.16541 22.2135C2.22387 21.7858 1.31069 21.1213 0.829155 20.1508C0.332777 19.1506 0.532402 17.927 0.923568 16.9335C1.78553 14.7463 4.11503 14.0329 6.23815 14.167C7.56005 14.2509 8.77675 15.0115 9.85179 15.7681C10.9066 16.5099 11.9452 17.3639 12.6278 18.4995C13.1552 19.3725 11.956 20.3782 11.4259 19.4971Z" fill="#497FA0"/>
<path d="M30.7213 10.4296C30.9251 12.3746 30.194 14.0286 29.0865 14.1179C27.9791 14.2114 26.9148 12.709 26.7112 10.7639C26.5075 8.81899 27.2386 7.16905 28.346 7.07569C29.4534 6.98497 30.5177 8.48467 30.7213 10.4296Z" fill="#0E80A4"/>
<path d="M9.26355 12.2C9.26355 17.6425 13.8173 21.2875 19.3504 21.2875C24.8835 21.2875 29.1769 18.3883 29.2929 12.2C29.3968 6.76031 24.8093 2.34521 19.2803 2.34521C13.7472 2.34521 9.26355 6.75762 9.26355 12.2Z" fill="#0E80A4"/>
<path d="M21.8459 2.86099C21.8162 2.36833 18.9404 2.30875 18.2525 0.541091C18.1661 0.316391 18.1351 0.122831 18.123 0.0253906C17.8398 0.116111 17.2421 0.350231 16.712 0.925511C16.2049 1.47499 16.0147 2.05699 15.9418 2.34127C15.8191 2.29117 15.525 2.15041 15.3012 1.82557C15.0381 1.44391 15.0381 1.04863 15.0435 0.925511C14.7967 1.13257 14.5134 1.42765 14.2733 1.82557C13.5328 3.07081 13.7958 4.39585 13.8902 4.78837C20.4349 3.79219 21.8688 3.21289 21.8459 2.86099Z" fill="#0E80A4"/>
<path d="M14.7428 16.5813C15.2999 19.1218 18.6761 20.5348 22.283 19.7376C25.8926 18.9405 28.3651 16.2361 27.808 13.6996C27.2509 11.1591 23.8747 9.74605 20.2638 10.5433C16.6609 11.3364 14.1844 14.0407 14.7428 16.5813Z" fill="white"/>
<path d="M13.5002 11.9121C13.9373 14.2117 15.9632 15.6477 18.0284 15.1185C20.0935 14.5893 21.4154 12.2965 20.9784 9.99686C20.5413 7.69724 18.5126 6.2612 16.4502 6.79039C14.3851 7.31965 13.0632 9.61244 13.5002 11.9121Z" fill="white"/>
<path d="M26.1366 8.65504C26.5736 10.9547 25.3826 13.2137 23.4807 13.7022C21.5788 14.1909 19.6809 12.721 19.2466 10.4214C18.8096 8.12177 20.0006 5.86283 21.9025 5.37419C23.8044 4.88561 25.6996 6.35141 26.1366 8.65504Z" fill="white"/>
<path d="M10.7488 17.4081C10.1054 17.5407 9.42957 17.201 8.85495 16.523C8.28165 15.8462 7.819 14.8419 7.60453 13.6657C7.39007 12.4909 7.46692 11.3742 7.75963 10.5188C8.05367 9.66208 8.56224 9.07738 9.20563 8.94334C9.84903 8.81074 10.5248 9.15046 11.0994 9.82852C11.6727 10.5053 12.1354 11.5096 12.3499 12.6844C12.5657 13.8593 12.4901 14.9759 12.1974 15.8327C11.9034 16.6921 11.3949 17.2769 10.7488 17.4081Z" fill="#0E80A4" stroke="white" stroke-width="0.7"/>
<path d="M9.14203 13.574C10.5543 16.4177 10.7593 18.5359 11.7224 18.2584C12.6882 17.981 12.9459 14.9545 12.6329 12.5669C12.3227 10.1794 10.2198 8.5525 9.8866 8.88676C9.55341 8.88676 8.83177 11.1864 9.14203 13.574Z" fill="#0E80A4"/>
<path d="M24.4652 16.7493C24.3384 16.8968 22.9977 18.3992 20.625 18.3667C18.9227 18.3437 17.3323 17.537 16.4772 16.2715C16.8036 16.5395 18.286 17.6899 20.5939 17.7644C22.6564 17.8335 24.0713 16.9997 24.4652 16.7493Z" fill="#0E80A4"/>
<path d="M20.2473 14.7932C20.3633 14.8528 20.795 15.0545 21.3413 14.934C21.8889 14.8135 22.1951 14.4481 22.2787 14.3452C21.9955 14.4521 21.6583 14.5591 21.2779 14.643C20.9016 14.7256 20.5508 14.7689 20.2473 14.7932Z" fill="#0E80A4"/>
<path d="M29.3943 12.3556C29.4819 12.3083 29.6007 12.3705 29.6087 12.5018L30.0862 21.3903C30.0889 21.4661 30.0511 21.5351 29.9931 21.5635L22.1225 25.4927L22.1211 25.4941C22.0915 25.5103 22.0537 25.5131 22.0213 25.5009H22.02L13.6717 22.6625H13.6704C13.6124 22.6436 13.5665 22.5827 13.5612 22.5029L13.0837 13.6103C13.0796 13.5467 13.1053 13.4912 13.1444 13.4574C13.1821 13.4236 13.2307 13.4114 13.2793 13.429H13.2806L21.5991 16.3349H21.6005C21.6639 16.3566 21.7326 16.3525 21.792 16.3214L29.3943 12.3556Z" fill="#0E80A4" stroke="white" stroke-width="0.8"/>
<path d="M21.8526 24.977L21.4425 17.0333L22.0468 16.856L22.3976 24.6521L21.8526 24.977Z" fill="white"/>
<path d="M13.8646 13.2344L13.8215 13.612L13.7999 13.5903L13.7513 13.2357V12.9434L19.9009 15.3932L13.9011 13.2127L13.8687 13.2005L13.8646 13.2344Z" fill="#0E80A4" stroke="white" stroke-width="0.4"/>
<path d="M28.9786 12.5616L28.7183 11.7725L22.6012 15.5744L28.7251 12.2096L28.748 12.1974L28.7615 12.2205L28.9638 12.5629H28.9786V12.5616Z" fill="#0E80A4" stroke="white" stroke-width="0.4"/>
<path d="M15.7637 20.7084C15.7771 21.3851 14.8923 21.9468 13.7889 21.9671C12.6882 21.9874 11.7831 21.4555 11.7696 20.7788C11.7602 20.102 12.641 19.5404 13.7444 19.52C14.8491 19.5011 15.7529 20.033 15.7637 20.7084Z" fill="#0E80A4"/>
<path d="M14.9895 20.7217C14.9962 21.1332 14.4553 21.4783 13.7809 21.4918C13.1065 21.5053 12.5561 21.1764 12.5467 20.765C12.5399 20.3535 13.0808 20.0083 13.7539 19.9948C14.4284 19.9854 14.9787 20.3102 14.9895 20.7217Z" fill="white"/>
<path d="M16.0699 19.2558C16.0834 20.0462 15.0528 20.7013 13.7674 20.7256C12.4792 20.7486 11.4284 20.1261 11.4122 19.3396C11.3987 18.5533 12.4293 17.8941 13.7148 17.8698C15.003 17.8468 16.0564 18.4694 16.0699 19.2558Z" fill="#0E80A4"/>
<path d="M15.1663 19.2734C15.173 19.7553 14.5458 20.1572 13.7581 20.1708C12.9703 20.1843 12.3269 19.8053 12.3202 19.3235C12.3107 18.8416 12.9406 18.4396 13.7284 18.4261C14.5121 18.4126 15.1555 18.7902 15.1663 19.2734Z" fill="white"/>
<path d="M15.3835 17.9335C15.397 18.6089 14.5122 19.172 13.4088 19.1923C12.3081 19.2126 11.403 18.6807 11.3895 18.0039C11.3895 17.9741 11.3895 17.943 11.3936 17.9132C11.4597 17.2811 12.3108 16.7655 13.3616 16.7451C14.469 16.7262 15.3701 17.2581 15.3835 17.9335Z" fill="#0E80A4"/>
<path d="M14.605 17.9469C14.6118 18.3583 14.0709 18.7035 13.3978 18.717C12.8946 18.7265 12.2607 18.4693 12.173 18.0782C12.1689 18.0579 12.1636 18.0308 12.1636 17.9916C12.1703 17.6072 12.8178 17.2323 13.3708 17.2215C14.0479 17.2106 14.5983 17.5354 14.605 17.9469Z" fill="white"/>
<path d="M13.0136 15.6406C12.7937 15.7448 12.0828 16.0697 11.7025 16.7749C11.4286 17.2798 11.3922 17.7562 11.3922 18.0038C11.9223 17.6059 12.4498 17.2066 12.9812 16.806C12.9542 16.4216 13.0378 16.0291 13.0136 15.6406Z" fill="#0E80A4"/>
<path d="M12.7799 17.4786C12.587 17.706 12.3928 17.9307 12.1999 18.1554C12.173 18.0755 12.0097 17.5422 12.2201 16.9873C12.3968 16.515 12.7246 16.3444 12.8002 16.3105C12.5438 16.7464 12.4804 17.1808 12.6072 17.3717C12.6369 17.4123 12.6828 17.4583 12.7799 17.4786Z" fill="white"/>
<path d="M27.5004 18.7512C27.5476 19.4265 28.4743 19.9125 29.5763 19.8394C30.677 19.7663 31.5322 19.1558 31.485 18.4832C31.4378 17.8104 30.5111 17.3219 29.4131 17.3949C28.3111 17.468 27.4532 18.0744 27.5004 18.7512Z" fill="#0E80A4"/>
<path d="M28.2731 18.6969C28.3001 19.1084 28.8666 19.4062 29.541 19.3602C30.2115 19.3168 30.7361 18.9446 30.7092 18.5331C30.6822 18.1217 30.1157 17.8239 29.4413 17.8699C28.7668 17.9132 28.2475 18.2854 28.2731 18.6969Z" fill="white"/>
<path d="M27.0728 17.3284C27.1268 18.1147 28.2072 18.6846 29.4913 18.5966C30.7755 18.51 31.7737 17.7994 31.7197 17.013C31.6671 16.2267 30.5826 15.6568 29.3011 15.7448C28.017 15.8355 27.0202 16.542 27.0728 17.3284Z" fill="#0E80A4"/>
<path d="M27.9738 17.2678C28.0075 17.7496 28.6671 18.0948 29.4522 18.0407C30.2359 17.9865 30.8469 17.5547 30.8132 17.0729C30.7794 16.591 30.1199 16.2459 29.3348 16.3C28.5511 16.3541 27.9441 16.786 27.9738 17.2678Z" fill="white"/>
<path d="M27.5126 15.952C27.5598 16.6287 28.4865 17.1133 29.5845 17.0402C30.6851 16.9671 31.539 16.358 31.4931 15.6854C31.4931 15.6556 31.4864 15.6244 31.4837 15.5947C31.3636 14.968 30.4734 14.5308 29.4213 14.6012C28.3192 14.6702 27.4654 15.2766 27.5126 15.952Z" fill="#0E80A4"/>
<path d="M28.2855 15.8991C28.3124 16.3106 28.879 16.6083 29.5534 16.5623C30.0565 16.5284 30.6649 16.2212 30.7175 15.8219C30.7215 15.8016 30.7242 15.7746 30.7215 15.7353C30.681 15.3536 30.0039 15.0329 29.4536 15.0721C28.7791 15.1154 28.2598 15.4863 28.2855 15.8991Z" fill="white"/>
<path d="M29.722 13.4561C29.9446 13.5291 30.6163 13.7822 31.079 14.482C31.396 14.9625 31.4715 15.4349 31.4931 15.6798C30.9333 15.3279 30.3722 14.9733 29.811 14.6214C29.7841 14.4414 29.7598 14.2478 29.745 14.0421C29.7274 13.835 29.722 13.6388 29.722 13.4561Z" fill="#0E80A4"/>
<path d="M30.0646 15.2766C30.2751 15.4837 30.4881 15.6949 30.6986 15.9033C30.7188 15.8235 30.8348 15.2766 30.5785 14.742C30.3613 14.2872 30.0214 14.1465 29.9446 14.1167C30.2386 14.5282 30.3384 14.9572 30.2251 15.1575C30.2009 15.1954 30.1577 15.2496 30.0646 15.2766Z" fill="white"/>
<path d="M18.7557 12.1732C18.8487 12.8798 18.409 13.5186 17.7751 13.6025C17.1411 13.6865 16.5543 13.1802 16.464 12.4751C16.3709 11.7685 16.8106 11.1297 17.4446 11.0457C18.0759 10.9618 18.6667 11.4667 18.7557 12.1732Z" fill="#0E80A4"/>
<path d="M17.4808 11.5504C17.5212 11.8482 17.3337 12.1162 17.0707 12.1501C16.8036 12.1839 16.5568 11.9728 16.5204 11.675C16.4799 11.3772 16.6674 11.1092 16.9304 11.0753C17.1975 11.0415 17.4444 11.2526 17.4808 11.5504Z" fill="white"/>
<path d="M24.645 10.9643C24.7354 11.6708 24.2983 12.3097 23.6644 12.3936C23.0304 12.4775 22.4436 11.9713 22.3533 11.2648C22.2602 10.5582 22.6999 9.91942 23.3312 9.83548C23.9652 9.75292 24.5519 10.2591 24.645 10.9643Z" fill="#0E80A4"/>
<path d="M23.4742 10.212C23.5146 10.5098 23.3271 10.7778 23.0641 10.8117C22.797 10.8454 22.5502 10.6343 22.5138 10.3366C22.4733 10.0388 22.6608 9.77079 22.9238 9.73695C23.1869 9.70317 23.4337 9.91431 23.4742 10.212Z" fill="white"/>
<path d="M13.8416 13.1978V13.6038L14.3137 13.7391L14.1113 13.3331L13.8416 13.1978Z" fill="white"/>
<path d="M13.8685 13.3818L17.8827 14.8829L21.3939 16.2147L14.0317 13.5335L13.8685 13.3818Z" fill="#0E80A4"/>
<path d="M27.2629 12.9947L22.9465 15.634L26.2513 13.9422L28.949 12.5886L28.7467 12.1826L27.2629 12.9947Z" fill="white"/>
<path d="M28.7143 12.3965L24.9536 14.4538L21.665 16.2716L28.574 12.5711L28.7143 12.3965Z" fill="#0E80A4"/>
</svg>
