<svg width="177" height="26" viewBox="0 0 177 26" fill="none" xmlns="http://www.w3.org/2000/svg">
<path d="M11.4259 19.4971C10.9201 18.6565 10.2362 18.0271 9.47275 17.4465C8.68366 16.8455 7.8217 16.2256 6.88287 15.9144C6.01289 15.6274 4.9405 15.7411 4.07859 16.0077C3.24498 16.2649 2.64611 16.7833 2.33047 17.6333C2.01345 18.486 1.93792 19.3238 2.62584 19.9978C3.25578 20.615 4.18785 21.017 5.04167 21.0847C5.29661 21.105 5.96432 21.1496 6.14506 20.9209C6.35416 20.657 6.28937 19.9288 6.22331 19.6378C6.03853 18.8162 5.21433 18.134 4.51561 18.8257C3.79668 19.5363 2.82957 18.2681 3.54306 17.5629C4.32811 16.786 5.54752 16.7359 6.45533 17.3396C7.36713 17.9459 7.80686 19.049 7.80824 20.1373C7.80824 21.2498 7.46021 22.2311 6.36224 22.5505C5.31013 22.8565 4.16221 22.6642 3.16541 22.2135C2.22387 21.7858 1.31069 21.1213 0.829155 20.1508C0.332777 19.1506 0.532402 17.927 0.923568 16.9335C1.78553 14.7463 4.11503 14.0329 6.23815 14.167C7.56005 14.2509 8.77675 15.0115 9.85179 15.7681C10.9066 16.5099 11.9452 17.3639 12.6278 18.4995C13.1552 19.3725 11.956 20.3782 11.4259 19.4971Z" fill="#497FA0"/>
<path d="M30.7214 10.4296C30.9251 12.3746 30.194 14.0286 29.0866 14.1179C27.9791 14.2114 26.9149 12.709 26.7112 10.7639C26.5076 8.81899 27.2386 7.16905 28.3461 7.07569C29.4535 6.98497 30.5177 8.48467 30.7214 10.4296Z" fill="#0E80A4"/>
<path d="M9.26355 12.2C9.26355 17.6425 13.8173 21.2875 19.3504 21.2875C24.8835 21.2875 29.1769 18.3883 29.2929 12.2C29.3968 6.76031 24.8093 2.34521 19.2803 2.34521C13.7472 2.34521 9.26355 6.75762 9.26355 12.2Z" fill="#0E80A4"/>
<path d="M21.8459 2.86099C21.8163 2.36833 18.9404 2.30875 18.2525 0.541091C18.1662 0.316391 18.1352 0.122831 18.1231 0.0253906C17.8398 0.116111 17.2422 0.350231 16.7121 0.925511C16.2049 1.47499 16.0148 2.05699 15.9419 2.34127C15.8192 2.29117 15.5251 2.15041 15.3012 1.82557C15.0382 1.44391 15.0382 1.04863 15.0436 0.925511C14.7968 1.13257 14.5135 1.42765 14.2733 1.82557C13.5328 3.07081 13.7959 4.39585 13.8903 4.78837C20.435 3.79219 21.8689 3.21289 21.8459 2.86099Z" fill="#0E80A4"/>
<path d="M14.7428 16.5813C15.2999 19.1218 18.6761 20.5348 22.283 19.7376C25.8926 18.9405 28.3651 16.2361 27.808 13.6996C27.2509 11.1591 23.8747 9.74605 20.2638 10.5433C16.6609 11.3364 14.1844 14.0407 14.7428 16.5813Z" fill="white"/>
<path d="M13.5003 11.9121C13.9373 14.2117 15.9633 15.6477 18.0285 15.1185C20.0936 14.5893 21.4155 12.2965 20.9784 9.99686C20.5414 7.69724 18.5127 6.2612 16.4503 6.79039C14.3851 7.31965 13.0633 9.61244 13.5003 11.9121Z" fill="white"/>
<path d="M26.1366 8.65504C26.5736 10.9547 25.3826 13.2137 23.4807 13.7022C21.5788 14.1909 19.6809 12.721 19.2466 10.4214C18.8096 8.12177 20.0006 5.86283 21.9025 5.37419C23.8044 4.88561 25.6996 6.35141 26.1366 8.65504Z" fill="white"/>
<path d="M10.7488 17.4081C10.1054 17.5407 9.42963 17.201 8.85501 16.523C8.28171 15.8462 7.81906 14.8419 7.60459 13.6657C7.39013 12.4909 7.46698 11.3742 7.7597 10.5188C8.05373 9.66208 8.5623 9.07738 9.20569 8.94334C9.84909 8.81074 10.5249 9.15046 11.0995 9.82852C11.6728 10.5053 12.1355 11.5096 12.3499 12.6844C12.5657 13.8593 12.4902 14.9759 12.1975 15.8327C11.9034 16.6921 11.3949 17.2769 10.7488 17.4081Z" fill="#0E80A4" stroke="white" stroke-width="0.7"/>
<path d="M9.14203 13.574C10.5543 16.4177 10.7593 18.5359 11.7224 18.2584C12.6882 17.981 12.9459 14.9545 12.6329 12.5669C12.3227 10.1794 10.2198 8.5525 9.8866 8.88676C9.55341 8.88676 8.83177 11.1864 9.14203 13.574Z" fill="#0E80A4"/>
<path d="M24.4652 16.7493C24.3384 16.8968 22.9977 18.3992 20.625 18.3667C18.9227 18.3437 17.3324 17.537 16.4772 16.2715C16.8037 16.5395 18.286 17.6899 20.594 17.7644C22.6564 17.8335 24.0714 16.9997 24.4652 16.7493Z" fill="#0E80A4"/>
<path d="M20.2473 14.7932C20.3633 14.8528 20.7949 15.0545 21.3412 14.934C21.8888 14.8135 22.1951 14.4481 22.2787 14.3452C21.9954 14.4521 21.6582 14.5591 21.2778 14.643C20.9015 14.7256 20.5508 14.7689 20.2473 14.7932Z" fill="#0E80A4"/>
<path d="M29.3943 12.3556C29.4819 12.3083 29.6007 12.3705 29.6087 12.5018L30.0862 21.3903C30.0889 21.4661 30.0511 21.5351 29.9931 21.5635L22.1225 25.4927L22.1211 25.4941C22.0915 25.5103 22.0537 25.5131 22.0213 25.5009H22.02L13.6717 22.6625H13.6704C13.6124 22.6436 13.5665 22.5827 13.5612 22.5029L13.0837 13.6103C13.0796 13.5467 13.1053 13.4912 13.1444 13.4574C13.1821 13.4236 13.2307 13.4114 13.2793 13.429H13.2806L21.5991 16.3349H21.6005C21.6639 16.3566 21.7326 16.3525 21.792 16.3214L29.3943 12.3556Z" fill="#0E80A4" stroke="white" stroke-width="0.8"/>
<path d="M21.8526 24.977L21.4424 17.0333L22.0467 16.856L22.3975 24.6521L21.8526 24.977Z" fill="white"/>
<path d="M13.8646 13.2344L13.8214 13.612L13.7998 13.5903L13.7513 13.2357V12.9434L19.9008 15.3932L13.901 13.2127L13.8686 13.2005L13.8646 13.2344Z" fill="#0E80A4" stroke="white" stroke-width="0.4"/>
<path d="M28.9786 12.5616L28.7183 11.7725L22.6012 15.5744L28.7251 12.2096L28.748 12.1974L28.7615 12.2205L28.9638 12.5629H28.9786V12.5616Z" fill="#0E80A4" stroke="white" stroke-width="0.4"/>
<path d="M15.7637 20.7084C15.7771 21.3851 14.8923 21.9468 13.7889 21.9671C12.6882 21.9874 11.7831 21.4555 11.7696 20.7788C11.7602 20.102 12.641 19.5404 13.7444 19.52C14.8491 19.5011 15.7529 20.033 15.7637 20.7084Z" fill="#0E80A4"/>
<path d="M14.9895 20.7217C14.9962 21.1332 14.4553 21.4783 13.7809 21.4918C13.1065 21.5053 12.5561 21.1764 12.5467 20.765C12.5399 20.3535 13.0808 20.0083 13.7539 19.9948C14.4284 19.9854 14.9787 20.3102 14.9895 20.7217Z" fill="white"/>
<path d="M16.0699 19.2558C16.0834 20.0462 15.0528 20.7013 13.7674 20.7256C12.4792 20.7486 11.4284 20.1261 11.4122 19.3396C11.3987 18.5533 12.4293 17.8941 13.7148 17.8698C15.003 17.8468 16.0564 18.4694 16.0699 19.2558Z" fill="#0E80A4"/>
<path d="M15.1664 19.2734C15.1731 19.7553 14.5458 20.1572 13.7581 20.1708C12.9704 20.1843 12.327 19.8053 12.3202 19.3235C12.3108 18.8416 12.9407 18.4396 13.7285 18.4261C14.5121 18.4126 15.1556 18.7902 15.1664 19.2734Z" fill="white"/>
<path d="M15.3835 17.9335C15.397 18.6089 14.5122 19.172 13.4088 19.1923C12.3081 19.2126 11.403 18.6807 11.3895 18.0039C11.3895 17.9741 11.3895 17.943 11.3936 17.9132C11.4597 17.2811 12.3108 16.7655 13.3616 16.7451C14.469 16.7262 15.3701 17.2581 15.3835 17.9335Z" fill="#0E80A4"/>
<path d="M14.605 17.9469C14.6117 18.3583 14.0708 18.7035 13.3977 18.717C12.8946 18.7265 12.2606 18.4693 12.1729 18.0782C12.1689 18.0579 12.1635 18.0308 12.1635 17.9916C12.1703 17.6072 12.8177 17.2323 13.3707 17.2215C14.0479 17.2106 14.5982 17.5354 14.605 17.9469Z" fill="white"/>
<path d="M13.0136 15.6406C12.7937 15.7448 12.0828 16.0697 11.7025 16.7749C11.4286 17.2798 11.3922 17.7562 11.3922 18.0038C11.9223 17.6059 12.4498 17.2066 12.9812 16.806C12.9542 16.4216 13.0378 16.0291 13.0136 15.6406Z" fill="#0E80A4"/>
<path d="M12.78 17.4786C12.5871 17.706 12.3928 17.9307 12.2 18.1554C12.173 18.0755 12.0098 17.5422 12.2202 16.9873C12.3969 16.515 12.7246 16.3444 12.8002 16.3105C12.5439 16.7464 12.4805 17.1808 12.6073 17.3717C12.637 17.4123 12.6828 17.4583 12.78 17.4786Z" fill="white"/>
<path d="M27.5004 18.7512C27.5476 19.4265 28.4743 19.9125 29.5763 19.8394C30.677 19.7663 31.5322 19.1558 31.485 18.4832C31.4378 17.8104 30.5111 17.3219 29.4131 17.3949C28.3111 17.468 27.4532 18.0744 27.5004 18.7512Z" fill="#0E80A4"/>
<path d="M28.2732 18.6969C28.3002 19.1084 28.8667 19.4062 29.5411 19.3602C30.2115 19.3168 30.7362 18.9446 30.7092 18.5331C30.6823 18.1217 30.1157 17.8239 29.4413 17.8699C28.7668 17.9132 28.2475 18.2854 28.2732 18.6969Z" fill="white"/>
<path d="M27.0728 17.3284C27.1268 18.1147 28.2072 18.6846 29.4913 18.5966C30.7755 18.51 31.7737 17.7994 31.7197 17.013C31.6671 16.2267 30.5826 15.6568 29.3011 15.7448C28.017 15.8355 27.0202 16.542 27.0728 17.3284Z" fill="#0E80A4"/>
<path d="M27.9738 17.2678C28.0075 17.7496 28.6671 18.0948 29.4522 18.0407C30.2359 17.9865 30.8469 17.5547 30.8132 17.0729C30.7794 16.591 30.1199 16.2459 29.3348 16.3C28.5511 16.3541 27.9441 16.786 27.9738 17.2678Z" fill="white"/>
<path d="M27.5127 15.952C27.5598 16.6287 28.4865 17.1133 29.5845 17.0402C30.6852 16.9671 31.5391 16.358 31.4932 15.6854C31.4932 15.6556 31.4865 15.6244 31.4838 15.5947C31.3637 14.968 30.4734 14.5308 29.4213 14.6012C28.3193 14.6702 27.4654 15.2766 27.5127 15.952Z" fill="#0E80A4"/>
<path d="M28.2854 15.8991C28.3124 16.3106 28.8789 16.6083 29.5533 16.5623C30.0564 16.5284 30.6648 16.2212 30.7174 15.8219C30.7214 15.8016 30.7242 15.7746 30.7214 15.7353C30.681 15.3536 30.0038 15.0329 29.4535 15.0721C28.7791 15.1154 28.2598 15.4863 28.2854 15.8991Z" fill="white"/>
<path d="M29.722 13.4561C29.9445 13.5291 30.6163 13.7822 31.0789 14.482C31.3959 14.9625 31.4714 15.4349 31.493 15.6798C30.9332 15.3279 30.3721 14.9733 29.811 14.6214C29.784 14.4414 29.7597 14.2478 29.7449 14.0421C29.7274 13.835 29.722 13.6388 29.722 13.4561Z" fill="#0E80A4"/>
<path d="M30.0646 15.2766C30.2751 15.4837 30.4881 15.6949 30.6986 15.9033C30.7188 15.8235 30.8348 15.2766 30.5785 14.742C30.3613 14.2872 30.0214 14.1465 29.9446 14.1167C30.2386 14.5282 30.3384 14.9572 30.2251 15.1575C30.2009 15.1954 30.1577 15.2496 30.0646 15.2766Z" fill="white"/>
<path d="M18.7556 12.1732C18.8487 12.8798 18.4089 13.5186 17.775 13.6025C17.141 13.6865 16.5543 13.1802 16.4639 12.4751C16.3708 11.7685 16.8106 11.1297 17.4445 11.0457C18.0758 10.9618 18.6666 11.4667 18.7556 12.1732Z" fill="#0E80A4"/>
<path d="M17.4809 11.5504C17.5213 11.8482 17.3338 12.1162 17.0708 12.1501C16.8037 12.1839 16.5569 11.9728 16.5205 11.675C16.48 11.3772 16.6675 11.1092 16.9305 11.0753C17.1976 11.0415 17.4444 11.2526 17.4809 11.5504Z" fill="white"/>
<path d="M24.6449 10.9643C24.7353 11.6708 24.2982 12.3097 23.6643 12.3936C23.0303 12.4775 22.4436 11.9713 22.3532 11.2648C22.2601 10.5582 22.6998 9.91942 23.3311 9.83548C23.9651 9.75292 24.5518 10.2591 24.6449 10.9643Z" fill="#0E80A4"/>
<path d="M23.4742 10.212C23.5146 10.5098 23.3271 10.7778 23.0641 10.8117C22.797 10.8454 22.5502 10.6343 22.5138 10.3366C22.4733 10.0388 22.6608 9.77079 22.9238 9.73695C23.1869 9.70317 23.4337 9.91431 23.4742 10.212Z" fill="white"/>
<path d="M13.8416 13.1978V13.6038L14.3137 13.7391L14.1113 13.3331L13.8416 13.1978Z" fill="white"/>
<path d="M13.8685 13.3818L17.8827 14.8829L21.3939 16.2147L14.0317 13.5335L13.8685 13.3818Z" fill="#0E80A4"/>
<path d="M27.263 12.9947L22.9466 15.634L26.2514 13.9422L28.9491 12.5886L28.7468 12.1826L27.263 12.9947Z" fill="white"/>
<path d="M28.7142 12.3965L24.9536 14.4538L21.665 16.2716L28.5739 12.5711L28.7142 12.3965Z" fill="#0E80A4"/>
<path d="M110.118 21.4678L108.809 19.6514C108.201 21.4678 107.12 21.8807 106.33 21.8807C104.99 21.8807 104.78 20.6747 104.78 19.9722V10.874H100.004V13.742H101.371V19.9248C100.778 21.6654 99.3155 22.169 98.343 22.169C97.0037 22.169 96.4722 21.1457 96.4722 20.2605V13.7597H98.1608V10.8753H96.4722V5.104L93.0637 7.15048V10.8902H91.6948V13.7583H93.0637V17.7119C91.9373 19.9857 89.5339 22.598 86.7021 22.598C83.5825 22.598 82.2433 20.7221 82.2433 18.3223C82.2433 14.6286 84.374 13.3157 86.1223 13.3157C86.7914 13.3157 87.2016 13.5147 87.2016 13.5147V15.6816H90.0919V10.8117C90.0919 10.8117 88.6326 10.3394 86.941 10.3394C79.5315 10.3394 78.7093 16.2176 78.7093 18.4143C78.7093 18.8867 78.7563 19.4213 78.8601 19.9857C78.4649 21.5287 77.6421 21.8617 77.0496 21.8617C75.7725 21.8617 75.7725 20.6084 75.7725 20.3349V10.9024C75.7725 10.8713 73.4444 10.292 71.482 10.292C64.9237 10.292 62.7924 14.8573 62.7924 18.9462C62.7924 20.3512 63.3697 25.5256 68.2243 25.5256C70.1258 25.5256 71.9212 24.6255 72.8345 23.0676C72.8345 23.0676 72.8943 22.977 72.925 22.977C72.9558 22.977 72.9558 23.0081 72.9841 23.0676C73.2417 24.2127 74.2335 25.2969 75.8751 25.2969C78.2477 25.2969 79.5116 23.8175 80.0148 22.778C81.0952 24.2885 82.9672 25.4796 86.1157 25.4796C89.5996 25.4796 91.6538 23.6632 93.0854 22.0295C93.3738 24.0124 94.821 25.4174 97.3596 25.4174C99.78 25.4174 101.225 24.5484 102.018 23.6321C102.687 24.6242 103.813 25.282 105.319 25.282C108.759 25.282 110.188 22.5046 110.188 21.7398C110.224 21.6343 110.118 21.4678 110.118 21.4678ZM72.4273 18.597C72.4273 20.2307 71.2256 22.108 69.0508 22.108C66.4018 22.108 66.3734 19.2995 66.3734 18.4752C66.3734 14.385 69.2643 13.2087 70.8304 13.2087C71.9724 13.2087 72.4273 13.4077 72.4273 13.4077V18.597Z" fill="#0E80A4"/>
<path d="M44.0227 5.10254H32.8688V8.26298H35.4708V24.9178H39.3812V18.3384H44.051C45.953 18.3384 51.6588 18.1395 51.6588 11.6982C51.6588 5.10254 46.7903 5.10254 44.0227 5.10254ZM43.8541 15.224C43.154 15.224 39.3663 15.1929 39.3663 15.1929V8.26298H44.0671C45.4981 8.26298 47.6886 8.29412 47.6886 11.6508C47.7037 15.0548 44.8428 15.224 43.8541 15.224Z" fill="#0E80A4"/>
<path d="M173.946 18.1838C173.534 19.222 172.973 20.183 172.211 21.0547C171.451 21.9236 170.629 22.3675 169.76 22.3675C168.969 22.3675 168.238 22.0779 167.554 21.4986C166.854 20.9193 166.305 20.2331 165.91 19.4386C167.142 19.1178 168.175 18.4776 169.013 17.5153C169.851 16.5542 170.276 15.485 170.276 14.2939C170.276 13.1353 169.912 12.1879 169.181 11.4542C168.433 10.7207 167.476 10.3715 166.274 10.3715C163.747 10.3715 161.862 11.7006 160.584 14.3548V5.10498H155.883V7.97304H157.192V21.634C156.844 21.8167 156.477 21.8924 156.156 21.8924C154.816 21.8924 154.559 20.746 154.559 20.0761V14.903C154.559 11.8969 152.491 10.5677 150.009 10.5677C147.238 10.5677 146.007 12.2014 146.007 12.2014C145.948 12.2921 145.916 12.3245 145.886 12.3245C145.853 12.3245 145.853 12.265 145.853 12.2339V10.8898H141.121V13.7606H142.643V19.7458C142.034 21.4864 140.97 21.883 140.193 21.883C138.853 21.883 138.64 20.677 138.64 19.9745V10.8763H133.863V13.7444H135.23V19.8338C134.639 21.4986 133.587 21.8803 132.813 21.8803C131.502 21.8803 131.214 20.6743 131.214 19.9718V14.903C131.214 11.8969 129.146 10.5677 126.636 10.5677C123.868 10.5677 122.666 12.2014 122.666 12.2014V5.10498H105.685C106.141 5.68428 106.416 6.4179 106.416 7.21104C106.416 7.56294 106.357 7.91352 106.265 8.23428H110.1V19.1178C110.1 19.1178 111.013 20.3549 111.286 20.7826C111.392 20.9491 111.574 21.3172 111.574 21.7585C111.574 22.5516 111.072 23.7129 110.098 24.6901V24.9202H114.009V8.23698H119.287V24.9202H122.696V17.4557C122.696 15.4714 123.806 13.762 125.783 13.762C126.226 13.762 127.884 14.0205 127.884 15.868V21.393C127.884 23.4991 129.374 25.3154 131.884 25.3154C133.786 25.3154 135.08 24.4303 135.842 23.5302C136.495 24.5981 137.668 25.3154 139.234 25.3154C140.756 25.3154 141.879 24.7646 142.674 24.0946V24.9351H146.081V17.4543C146.081 15.4701 147.161 13.7606 149.14 13.7606C149.613 13.7606 151.24 14.0191 151.24 15.8666V21.3917C151.24 23.4977 152.731 25.3141 155.213 25.3141C155.989 25.3141 156.672 25.1625 157.253 24.9324H160.63C160.63 20.7203 160.843 19.4832 161.042 18.6887C161.361 17.2852 161.923 16.0318 162.698 14.9639C163.474 13.8959 164.371 13.3451 165.39 13.3451C166.442 13.3451 167.079 13.9867 167.079 14.9639C167.079 16.3688 165.846 17.5585 162.592 18.5493C162.683 19.2667 163.429 21.0993 164.219 22.1983C165.679 24.2286 167.339 25.3127 169.379 25.3127C170.536 25.3127 171.586 24.9757 172.558 24.2895C174.508 22.9171 175.449 21.1913 176.057 19.3127L173.946 18.1838Z" fill="#0E80A4"/>
<path d="M62.7959 16.2918V10.6287C62.598 10.5056 62.0056 10.4771 61.7154 10.4771C57.9872 10.4622 56.2395 13.2099 56.161 13.3005C56.1019 13.3926 56.0705 13.4237 56.0386 13.4237C55.9788 13.4237 55.9788 13.3005 55.9788 13.3005V10.8737H52.7688V24.9149H56.1773V19.7107C56.1773 19.0692 56.269 17.0538 57.2886 15.6204C57.8659 14.8273 58.7201 14.0625 59.9382 14.0625V16.2918H62.7959Z" fill="#0E80A4"/>
<path d="M136.821 9.34574C137.964 9.34574 138.92 8.38478 138.92 7.2086C138.92 6.06218 137.964 5.10254 136.821 5.10254C135.65 5.10254 134.721 6.0635 134.721 7.2086C134.721 8.3861 135.634 9.34574 136.821 9.34574Z" fill="#0E80A4"/>
<path d="M102.966 9.34574C104.109 9.34574 105.066 8.38478 105.066 7.2086C105.066 6.06218 104.109 5.10254 102.966 5.10254C101.795 5.10254 100.865 6.0635 100.865 7.2086C100.865 8.3861 101.795 9.34574 102.966 9.34574Z" fill="#0E80A4"/>
</svg>
