<svg width="69" height="65" viewBox="0 0 69 65" fill="none" xmlns="http://www.w3.org/2000/svg">
<path d="M55.0076 42.9746C56.9063 42.9746 58.4455 41.4354 58.4455 39.5366C58.4455 37.6379 56.9063 36.0986 55.0076 36.0986C53.1088 36.0986 51.5696 37.6379 51.5696 39.5366C51.5696 41.4354 53.1088 42.9746 55.0076 42.9746Z" fill="#EDEDED"/>
<path d="M55.0076 63.6025C56.9063 63.6025 58.4455 62.0633 58.4455 60.1645C58.4455 58.2658 56.9063 56.7266 55.0076 56.7266C53.1088 56.7266 51.5696 58.2658 51.5696 60.1645C51.5696 62.0633 53.1088 63.6025 55.0076 63.6025Z" fill="#EDEDED"/>
<path d="M27.5039 13.7519C27.5039 15.6514 25.9654 17.1899 24.0659 17.1899H3.43798C1.5385 17.1899 0 15.6514 0 13.7519C0 11.8525 1.5385 10.314 3.43798 10.314H24.0659C25.9654 10.314 27.5039 11.8525 27.5039 13.7519Z" fill="#F0F0F0"/>
<path d="M68.7595 13.7519C68.7595 15.6514 67.221 17.1899 65.3215 17.1899H44.6936C42.7941 17.1899 41.2556 15.6514 41.2556 13.7519C41.2556 11.8525 42.7941 10.314 44.6936 10.314H65.3215C67.221 10.314 68.7595 11.8525 68.7595 13.7519Z" fill="#369CB7"/>
<path d="M13.7517 27.5039C11.8522 27.5039 10.3137 25.9654 10.3137 24.0659V3.43798C10.3137 1.5385 11.8522 0 13.7517 0C15.6512 0 17.1897 1.5385 17.1897 3.43798V24.0659C17.1897 25.9654 15.6512 27.5039 13.7517 27.5039Z" fill="#EDEDED"/>
<path d="M68.7595 49.8506C68.7595 51.7501 67.221 53.2886 65.3215 53.2886H44.6936C42.7941 53.2886 41.2556 51.7501 41.2556 49.8506C41.2556 47.9511 42.7941 46.4126 44.6936 46.4126H65.3215C67.221 46.4126 68.7595 47.9511 68.7595 49.8506Z" fill="#EDEDED"/>
<path d="M25.4891 63.3076C24.1466 64.6501 21.9704 64.6501 20.6278 63.3076L2.01459 44.6944C0.672057 43.3518 0.672057 41.1756 2.01459 39.8331C3.35712 38.4905 5.53337 38.4905 6.8759 39.8331L25.4891 58.4463C26.8317 59.7888 26.8317 61.9651 25.4891 63.3076Z" fill="#369CB7"/>
<path d="M2.01459 63.3076C0.672057 61.9651 0.672057 59.7888 2.01459 58.4463L20.6278 39.8331C21.9704 38.4905 24.1466 38.4905 25.4891 39.8331C26.8317 41.1756 26.8317 43.3518 25.4891 44.6944L6.8759 63.3076C5.53337 64.6501 3.35712 64.6501 2.01459 63.3076Z" fill="#369CB7"/>
</svg>
