<svg width="49" height="49" viewBox="0 0 49 49" fill="none" xmlns="http://www.w3.org/2000/svg">
<path d="M24.5 48C37.4787 48 48 37.4787 48 24.5C48 11.5213 37.4787 1 24.5 1C11.5213 1 1 11.5213 1 24.5C1 37.4787 11.5213 48 24.5 48Z" stroke="#9DD765" stroke-width="2" stroke-miterlimit="10"/>
<path d="M14.283 33.6958C14.283 33.6958 23.305 43.2286 34.7178 33.6958" stroke="#9DD765" stroke-width="2" stroke-miterlimit="10" stroke-linecap="round"/>
<path d="M17.3482 23.4781C19.0411 23.4781 20.4135 21.6483 20.4135 19.3912C20.4135 17.134 19.0411 15.3042 17.3482 15.3042C15.6554 15.3042 14.283 17.134 14.283 19.3912C14.283 21.6483 15.6554 23.4781 17.3482 23.4781Z" fill="#9DD765"/>
<path d="M31.6517 23.4781C33.3446 23.4781 34.7169 21.6483 34.7169 19.3912C34.7169 17.134 33.3446 15.3042 31.6517 15.3042C29.9588 15.3042 28.5865 17.134 28.5865 19.3912C28.5865 21.6483 29.9588 23.4781 31.6517 23.4781Z" fill="#9DD765"/>
</svg>
