<svg width="48" height="48" viewBox="0 0 48 48" fill="none" xmlns="http://www.w3.org/2000/svg">
<path d="M24 47C36.7025 47 47 36.7025 47 24C47 11.2975 36.7025 1 24 1C11.2975 1 1 11.2975 1 24C1 36.7025 11.2975 47 24 47Z" stroke="#F3967C" stroke-width="2" stroke-miterlimit="10"/>
<path d="M17.0004 23C18.6572 23 20.0004 21.2091 20.0004 19C20.0004 16.7909 18.6572 15 17.0004 15C15.3435 15 14.0004 16.7909 14.0004 19C14.0004 21.2091 15.3435 23 17.0004 23Z" fill="#F3967C"/>
<path d="M29.4333 33.9668C29.4333 36.1637 28.7847 38.1242 27.7708 39.5183C26.7564 40.9131 25.4145 41.7001 24 41.7001C22.5854 41.7001 21.2436 40.9131 20.2292 39.5183C19.2153 38.1242 18.5666 36.1637 18.5666 33.9668C18.5666 31.7699 19.2153 29.8094 20.2292 28.4152C21.2436 27.0204 22.5854 26.2334 24 26.2334C25.4145 26.2334 26.7564 27.0204 27.7708 28.4152C28.7847 29.8094 29.4333 31.7699 29.4333 33.9668Z" stroke="#F3967C" stroke-width="1.4"/>
<path d="M30.9996 23C32.6564 23 33.9996 21.2091 33.9996 19C33.9996 16.7909 32.6564 15 30.9996 15C29.3427 15 27.9996 16.7909 27.9996 19C27.9996 21.2091 29.3427 23 30.9996 23Z" fill="#F3967C"/>
</svg>
