<svg width="11" height="7" viewBox="0 0 11 7" fill="none" xmlns="http://www.w3.org/2000/svg">
<path d="M0 0.488498C1.74334e-05 0.391858 0.0242525 0.297393 0.0696411 0.217052C0.11503 0.136711 0.179534 0.0741021 0.254993 0.037143C0.330453 0.000183988 0.413479 -0.00946497 0.493573 0.00941658C0.573667 0.0282981 0.647231 0.0748618 0.704961 0.143219L5.50261 5.82046L10.3003 0.143219C10.3781 0.0542162 10.4824 0.00496776 10.5907 0.006081C10.6989 0.00719424 10.8025 0.0585802 10.8791 0.149171C10.9556 0.239762 10.999 0.36231 11 0.49042C11.0009 0.61853 10.9593 0.741952 10.8841 0.834103L5.79439 6.85694C5.71696 6.94854 5.61195 7 5.50247 7C5.39298 7 5.28798 6.94854 5.21055 6.85694L0.120843 0.834103C0.0825072 0.78871 0.0521036 0.734825 0.0313692 0.675525C0.0106348 0.616226 -2.45712e-05 0.552674 0 0.488498Z" fill="#2F2F2F"/>
</svg>
