<svg width="59" height="59" viewBox="0 0 59 59" fill="none" xmlns="http://www.w3.org/2000/svg">
<path d="M54.332 29.6569C54.332 43.3712 43.2143 54.4888 29.5 54.4888C15.7857 54.4888 4.66809 43.3712 4.66809 29.6569C4.66809 15.9426 15.7857 4.82495 29.5 4.82495C43.2143 4.82495 54.332 15.9426 54.332 29.6569Z" fill="white" stroke="#F3967C"/>
<path d="M29.5 0C36.325 8.13871e-08 42.9388 2.36647 48.2146 6.69619C53.4904 11.0259 57.1017 17.051 58.4332 23.7448C59.7647 30.4387 58.734 37.3871 55.5167 43.4062C52.2994 49.4253 47.0946 54.1426 40.7892 56.7544C34.4837 59.3663 27.4677 59.7109 20.9366 57.7297C14.4055 55.7486 8.7634 51.5641 4.97164 45.8893C1.17989 40.2146 -0.526916 33.4006 0.142051 26.6085C0.811019 19.8164 3.81436 13.4663 8.64036 8.64034L29.5 29.5V0Z" fill="#F3967C" fill-opacity="0.8"/>
<path d="M9.11092 27.8035H5.40381V30.2749H9.11092V27.8035Z" fill="#F3967C"/>
<path d="M52.9784 27.8035H49.2712V30.2749H52.9784V27.8035Z" fill="#F3967C"/>
<path d="M30.4268 8.95882V5.25171H27.9553V8.95882H30.4268Z" fill="#F3967C"/>
<path d="M30.4268 52.8265V49.1194H27.9553V52.8265H30.4268Z" fill="#F3967C"/>
</svg>
