<svg width="59" height="59" viewBox="0 0 59 59" fill="none" xmlns="http://www.w3.org/2000/svg">
<path d="M54.332 29.6569C54.332 43.3712 43.2143 54.4888 29.5 54.4888C15.7857 54.4888 4.66809 43.3712 4.66809 29.6569C4.66809 15.9426 15.7857 4.82495 29.5 4.82495C43.2143 4.82495 54.332 15.9426 54.332 29.6569Z" fill="white" stroke="#9DD765"/>
<path d="M29.5 0C34.5301 5.9983e-08 39.4766 1.28619 43.8696 3.73636C48.2626 6.18654 51.9561 9.7193 54.5992 13.999C57.2423 18.2787 58.7471 23.1631 58.9708 28.1882C59.1945 33.2133 58.1295 38.2121 55.8771 42.7097L29.5 29.5L29.5 0Z" fill="#9DD765" fill-opacity="0.8"/>
<path d="M9.11092 27.8035H5.40381V30.2749H9.11092V27.8035Z" fill="#9DD765"/>
<path d="M52.9784 27.8035H49.2712V30.2749H52.9784V27.8035Z" fill="#9DD765"/>
<path d="M30.4268 8.95882V5.25171H27.9553V8.95882H30.4268Z" fill="#9DD765"/>
<path d="M30.4268 52.8265V49.1194H27.9553V52.8265H30.4268Z" fill="#9DD765"/>
</svg>
