<svg width="16" height="10" viewBox="0 0 16 10" fill="none" xmlns="http://www.w3.org/2000/svg">
<path d="M15.3595 0.632113C15.3595 0.507061 15.3256 0.384824 15.2623 0.280863C15.1989 0.176903 15.1088 0.0958875 15.0034 0.0480628C14.8981 0.000238078 14.7821 -0.0122476 14.6703 0.012185C14.5585 0.0366176 14.4558 0.0968706 14.3751 0.185324L7.67611 7.53162L0.977073 0.185324C0.868336 0.0701554 0.7227 0.00642824 0.571532 0.00786876C0.420365 0.00930929 0.275761 0.0758024 0.168865 0.193026C0.0619698 0.31025 0.0013354 0.468826 2.17948e-05 0.634599C-0.00129181 0.800372 0.0568204 0.96008 0.161842 1.07932L7.26869 8.87283C7.3768 8.99136 7.52342 9.05795 7.6763 9.05795C7.82918 9.05795 7.9758 8.99136 8.08392 8.87283L15.1908 1.07932C15.2443 1.02058 15.2867 0.950858 15.3157 0.874124C15.3446 0.797391 15.3595 0.715155 15.3595 0.632113Z" fill="#68C2D0"/>
</svg>
