<svg width="15" height="18" fill="none" xmlns="http://www.w3.org/2000/svg"><path d="M11.106 1.761h-.868C10.018.762 8.95 0 7.666 0h-.327C6.055 0 4.986.762 4.767 1.761h-.869c-.812 0-1.47.54-1.47 1.206v.25h-.603C.817 3.216 0 3.886 0 4.712v11.79C0 17.33.817 18 1.825 18h11.35C14.183 18 15 17.33 15 16.503V4.713c0-.827-.817-1.497-1.825-1.497h-.603v-.249c.005-.666-.658-1.206-1.466-1.206zM3.361 2.967c0-.24.243-.44.537-.44h1.293c.257 0 .467-.172.467-.383 0-.758.752-1.378 1.68-1.378h.328c.924 0 1.68.616 1.68 1.378 0 .21.21.383.467.383h1.293c.295 0 .537.2.537.44v1.46H3.361v-1.46zm9.818 1.015c.49 0 .892.33.892.731v11.79c0 .402-.402.731-.892.731H1.825c-.49 0-.891-.33-.891-.731V4.713c0-.402.401-.73.891-.73h.603v.826c0 .21.21.383.466.383h9.211c.257 0 .467-.172.467-.383v-.827h.607z" fill="#68C2D0"/></svg>