<svg width="25" height="20" fill="none" xmlns="http://www.w3.org/2000/svg"><path d="M4.713 3.2l-.336-2H3.17A1.609 1.609 0 001.614 0C.724 0 0 .718 0 1.6c0 .882.724 1.6 1.614 1.6A1.61 1.61 0 003.171 2h.522l.202 1.2h-.016l2.087 10.406c-.995.076-1.823.835-1.92 1.79a1.988 1.988 0 00.51 1.543c.384.42.93.661 1.497.661h.807c0 1.324 1.085 2.4 2.42 2.4 1.336 0 2.422-1.076 2.422-2.4h4.438c0 1.324 1.086 2.4 2.421 2.4 1.336 0 2.422-1.076 2.422-2.4h1.613a.401.401 0 00.404-.4c0-.221-.18-.4-.404-.4h-1.755a2.421 2.421 0 00-2.28-1.6c-1.052 0-1.946.67-2.28 1.6h-4.72a2.421 2.421 0 00-2.28-1.6c-1.052 0-1.947.67-2.28 1.6h-.948a1.22 1.22 0 01-.898-.397 1.18 1.18 0 01-.307-.927c.061-.603.624-1.076 1.28-1.076h16.07c1.11 0 2.012-.895 2.012-1.995V3.2H4.713zm-3.099-.8a.804.804 0 01-.807-.8c0-.441.362-.8.807-.8.445 0 .807.359.807.8 0 .441-.362.8-.807.8zM18.561 16c.89 0 1.614.718 1.614 1.6 0 .882-.724 1.6-1.614 1.6-.89 0-1.614-.718-1.614-1.6 0-.882.724-1.6 1.614-1.6zm-9.28 0c.89 0 1.614.718 1.614 1.6 0 .882-.724 1.6-1.614 1.6-.89 0-1.614-.718-1.614-1.6 0-.882.724-1.6 1.614-1.6zm14.123-3.595c0 .659-.541 1.195-1.206 1.195H6.788L4.862 4h18.54v8.405z" fill="#2F2F2F"/></svg>