<svg width="23" height="24" fill="none" xmlns="http://www.w3.org/2000/svg"><path d="M8.47 21.573c-1.898-.004-3.796-.012-5.694-.025-1.398-.026-2.549-1.605-1.986-2.97.324-.785 1.144-1.334 2.012-1.34h1.306c0-2.181-.006-4.364 0-6.546.027-2.766 1.756-5.435 4.325-6.597l.024-.01c0-.732-.033-1.524.191-2.12A3.067 3.067 0 0111.54 0c1.587.03 2.996 1.39 3.007 3.015v1.07l.15.068c2.5 1.187 4.19 3.815 4.199 6.584v6.502c.744 0 1.522-.104 2.175.18 1.255.544 1.7 2.402.721 3.443a2.218 2.218 0 01-1.563.686c-1.885.013-3.77.02-5.655.025-.027.3-.161.638-.279.886-.423.9-1.375 1.519-2.402 1.538-.573.004-1.149.028-1.67-.162-.951-.344-1.65-1.252-1.752-2.262zm5.154.191H9.379c.194.766.926 1.356 1.743 1.371.46.003.916.047 1.34-.101a1.843 1.843 0 001.162-1.27zM11.474.862c-1.13.02-2.14.99-2.147 2.156V4.37c-.024.359-.146.34-.499.494-2.256 1.002-3.826 3.325-3.85 5.833v6.973s-.09.408-.435.43c-1.184 0-2.574-.172-2.96.834-.292.762.326 1.725 1.187 1.752 5.82.11 11.643.11 17.463 0 .983-.03 1.67-1.396.91-2.184a1.33 1.33 0 00-.945-.401H18.46c-.235-.016-.414-.118-.435-.431 0-2.325.007-4.649 0-6.973-.023-2.524-1.647-4.954-4.077-5.928 0 0-.252-.102-.272-.4 0-.985.086-2.036-.51-2.738a2.138 2.138 0 00-1.691-.769z" fill="#2F2F2F"/></svg>