<svg width="24" height="22" fill="none" xmlns="http://www.w3.org/2000/svg"><path d="M4 22h16v-1.833h4v-5.5c0-2.674-1.931-4.942-4.582-5.693C20.668 8.24 21.5 6.958 21.5 5.5c0-2.274-2.018-4.125-4.5-4.125-.427 0-.852.059-1.265.171C14.818.6 13.485 0 12 0c-1.486 0-2.818.6-3.735 1.546A4.828 4.828 0 007 1.375c-2.481 0-4.5 1.85-4.5 4.125 0 1.458.833 2.74 2.082 3.474C1.932 9.725 0 11.993 0 14.667v5.5h4V22zm15-.917H5v-6.875c0-.153.01-.304.025-.454a4.439 4.439 0 01.069-.454c.01-.051.019-.103.031-.154a4.75 4.75 0 01.109-.388c.021-.063.046-.125.07-.187a4.738 4.738 0 01.178-.418 5.01 5.01 0 01.264-.47c.05-.078.1-.156.154-.232.042-.059.087-.116.132-.173a4.673 4.673 0 01.481-.533 5.506 5.506 0 01.433-.379c.055-.043.112-.083.169-.124a5.354 5.354 0 01.391-.258c.066-.04.134-.075.201-.112.128-.07.259-.134.394-.194.067-.03.133-.062.202-.09l.081-.033a5.907 5.907 0 012.116-.388h3a5.9 5.9 0 012.116.389l.08.033c.069.027.136.06.203.09.135.06.266.124.393.194.068.036.136.072.201.112a5.694 5.694 0 01.392.257c.056.041.113.082.168.125a5.247 5.247 0 01.433.378 4.95 4.95 0 01.482.534c.044.057.09.113.131.172a4.94 4.94 0 01.316.508c.035.065.07.129.102.194a4.415 4.415 0 01.179.418c.023.063.048.124.07.187.042.128.078.257.109.389.012.05.02.102.03.154a4.82 4.82 0 01.095.907v6.875zm4-6.416v4.583h-3v-5.042c0-.217-.015-.432-.04-.644-.006-.05-.017-.098-.024-.148a5.563 5.563 0 00-.09-.485c-.012-.052-.03-.103-.044-.154a5.541 5.541 0 00-.143-.46c-.018-.05-.04-.1-.06-.15a5.686 5.686 0 00-.514-.991 6.166 6.166 0 00-.382-.523c-.036-.045-.071-.09-.109-.135a6.076 6.076 0 00-.347-.366c-.034-.034-.065-.07-.1-.102a6.297 6.297 0 00-.497-.423c2.963.073 5.35 2.306 5.35 5.04zm-6.639-12.32A3.7 3.7 0 0117 2.292c1.93 0 3.5 1.439 3.5 3.208 0 1.77-1.57 3.208-3.5 3.208a3.703 3.703 0 01-1.913-.524 4.77 4.77 0 001.12-1.134l.027-.042c.087-.126.166-.256.24-.39l.034-.067c.067-.127.126-.257.18-.39.01-.028.022-.055.033-.083.048-.127.09-.258.125-.391.01-.033.02-.066.028-.099.032-.13.056-.261.076-.395.005-.035.013-.07.017-.106a3.989 3.989 0 00-.004-1.039c-.007-.056-.018-.11-.028-.167a4.416 4.416 0 00-.125-.537 4.192 4.192 0 00-.141-.39c-.015-.034-.027-.07-.043-.105a4.405 4.405 0 00-.26-.493l-.005-.009zm-1.28-.099l.031.036.07.086c.255.308.45.643.587.996.009.023.019.045.027.069.06.164.105.333.139.504l.018.109c.027.176.047.354.047.535 0 .15-.012.3-.033.446-.004.035-.011.069-.017.103a3.35 3.35 0 01-.079.36l-.021.074a3.52 3.52 0 01-.662 1.223l-.027.032c-.203.242-.44.46-.707.651l-.047.033a4.07 4.07 0 01-.387.238l-.072.04-.056.03A4.262 4.262 0 0112 8.25a4.259 4.259 0 01-1.891-.437l-.057-.03-.071-.04a4.07 4.07 0 01-.387-.238l-.048-.033a3.89 3.89 0 01-.707-.65l-.027-.033a3.695 3.695 0 01-.267-.367l-.009-.014a3.514 3.514 0 01-.386-.842l-.021-.074a3.383 3.383 0 01-.08-.36c-.005-.034-.012-.068-.016-.103A3.306 3.306 0 018 4.583c0-.18.02-.359.047-.535l.018-.109c.034-.17.079-.34.139-.504l.027-.069c.137-.353.332-.688.587-.996.024-.028.046-.058.07-.085l.03-.036C9.653 1.435 10.762.917 12 .917c1.239 0 2.347.518 3.082 1.331zM3.5 5.5c0-1.77 1.57-3.208 3.5-3.208.215 0 .428.018.638.055l-.004.009a4.442 4.442 0 00-.26.492c-.015.035-.027.072-.042.107a4.233 4.233 0 00-.267.926c-.01.056-.02.11-.028.167A4.21 4.21 0 007 4.583c0 .17.012.339.032.505l.018.105c.019.134.043.266.075.396.008.033.019.065.027.098.037.132.078.264.127.392l.032.083c.054.133.114.263.18.39l.035.066c.073.135.152.265.239.391l.028.042c.298.425.669.803 1.099 1.117l.02.017A3.708 3.708 0 017 8.708c-1.93 0-3.5-1.439-3.5-3.208zM1 19.25v-4.583c0-2.734 2.386-4.967 5.35-5.04a6.384 6.384 0 00-.496.423c-.035.032-.067.068-.101.101a6.1 6.1 0 00-.347.367l-.109.134a5.875 5.875 0 00-.623.93l-.079.149a5.498 5.498 0 00-.194.436c-.02.05-.042.1-.06.15a5.697 5.697 0 00-.144.46c-.014.052-.03.102-.043.154a5.62 5.62 0 00-.09.486c-.008.05-.019.098-.024.148a5.26 5.26 0 00-.04.643v5.042H1z" fill="#fff"/></svg>