<svg width="16" height="18" fill="none" xmlns="http://www.w3.org/2000/svg"><path d="M4.981.852h5.874a.427.427 0 00.426-.426.427.427 0 00-.426-.426H4.981a.425.425 0 100 .852zm10.426.946H.426A.428.428 0 000 2.224c0 .233.192.425.426.425h.68l.322 3.404v.013l1.078 11.421c.021.22.203.384.422.384H12.9c.22 0 .402-.168.423-.384l1.4-14.838h.68a.428.428 0 00.426-.425.42.42 0 00-.422-.426zm-2.89 15.221H3.316L2.318 6.443h11.197l-.998 10.576zm1.078-11.427H2.237l-.279-2.943h11.913l-.276 2.943z" fill="#68C2D0"/></svg>