<svg width="24" height="24" fill="none" xmlns="http://www.w3.org/2000/svg"><path d="M14.455 0H10.32a.95.95 0 00-.943.955v10.192H7.913a.932.932 0 00-.817.478.956.956 0 000 .955l4.474 7.846a.93.93 0 00.817.477.932.932 0 00.817-.477l4.475-7.846a.956.956 0 000-.955.932.932 0 00-.818-.477h-1.463V.955A.95.95 0 0014.455 0zm2.289 12.172l-4.357 7.638-4.356-7.638h1.85a.51.51 0 00.506-.513V1.024h4V11.66a.51.51 0 00.506.512h1.85z" fill="#68C2D0"/><path d="M4.662 12.624a.51.51 0 00.515-.506.51.51 0 00-.515-.505H.515a.51.51 0 00-.515.505v11.376c0 .28.23.506.515.506h22.97a.51.51 0 00.515-.506V12.118a.51.51 0 00-.515-.505h-4.147a.51.51 0 00-.515.505c0 .28.23.506.515.506h3.632v10.365H1.03V12.624h3.632z" fill="#68C2D0"/></svg>