<svg width="23" height="23" fill="none" xmlns="http://www.w3.org/2000/svg"><path d="M17.01 0c-2.55 0-4.658 2.491-5.51 3.667C10.648 2.49 8.54 0 5.99 0 2.687 0 0 3.192 0 7.115c0 2.14.808 4.135 2.223 5.5.02.037.046.072.075.103l8.864 9.299a.466.466 0 00.677 0l9.158-9.625.095-.097c.075-.074.149-.15.231-.246a.492.492 0 00.086-.12C22.436 10.607 23 8.902 23 7.115 23 3.192 20.313 0 17.01 0zm3.601 11.363a.461.461 0 00-.036.05c-.045.055-.094.103-.143.151L11.5 20.948 3.085 12.12a.503.503 0 00-.112-.15C1.693 10.794.958 9.025.958 7.115c0-3.368 2.257-6.108 5.032-6.108 2.743 0 5.084 3.762 5.107 3.8.177.287.629.287.806 0 .023-.038 2.364-3.8 5.107-3.8 2.775 0 5.032 2.74 5.032 6.108 0 1.587-.509 3.096-1.43 4.248z" fill="#2F2F2F"/></svg>