<svg width="42" height="43" fill="none" xmlns="http://www.w3.org/2000/svg"><path d="M22.021 38.755h-4.004c-.934 0-2.002-.82-2.002-2.46v-2.87c0-1.368-.667-2.598-1.735-3.555-2.402-1.913-3.603-4.647-3.603-7.654.133-5.195 4.27-9.296 9.209-9.432 2.536 0 4.938.957 6.673 2.734 1.735 1.777 2.802 4.237 2.802 6.834 0 2.87-1.2 5.605-3.47 7.382-1.2.956-1.868 2.46-1.868 3.827v3.144c0 1.093-.934 2.05-2.002 2.05zM20.02 14.151c-4.27 0-7.874 3.69-8.007 8.065 0 2.597 1.067 5.057 3.07 6.56 1.467 1.231 2.268 2.871 2.268 4.648v2.87c0 .274 0 1.094.667 1.094h4.004c.4 0 .667-.273.667-.683v-3.144c0-1.777.935-3.69 2.403-4.92 1.868-1.504 2.936-3.828 2.936-6.289 0-2.187-.8-4.237-2.402-5.878-1.468-1.503-3.47-2.323-5.606-2.323z" fill="#FFFEFC"/><path d="M23.356 34.655h-6.673c-.4 0-.668-.274-.668-.684 0-.41.267-.683.668-.683h6.673c.4 0 .667.273.667.683 0 .41-.267.684-.667.684zM20.019 10.05c-.4 0-.668-.273-.668-.683V6.633c0-.41.267-.684.668-.684.4 0 .667.274.667.684v2.734c0 .41-.267.683-.667.683zm8.941 3.827c-.133 0-.4 0-.533-.136a.672.672 0 010-.957l1.869-1.914a.635.635 0 01.934 0 .672.672 0 010 .957l-1.869 1.914s-.267.136-.4.136zm6.407 9.159h-2.669c-.4 0-.667-.274-.667-.684 0-.41.267-.683.667-.683h2.67c.4 0 .666.273.666.683 0 .41-.266.684-.667.684zM30.83 34.108c-.134 0-.401 0-.534-.137l-1.869-1.914a.672.672 0 010-.957.635.635 0 01.934 0l1.869 1.914a.672.672 0 010 .957c0 .137-.134.137-.4.137zm-21.621 0c-.134 0-.4 0-.534-.137a.672.672 0 010-.957l1.868-1.914a.635.635 0 01.934 0 .672.672 0 010 .957L9.61 33.971c-.134.137-.267.137-.4.137zM7.34 23.036H4.671c-.4 0-.667-.274-.667-.684 0-.41.267-.683.667-.683h2.67c.4 0 .667.273.667.683 0 .41-.267.684-.668.684zm3.737-9.159c-.133 0-.4 0-.534-.136l-1.868-2.05a.672.672 0 010-.958.635.635 0 01.934 0l1.868 1.914a.672.672 0 010 .957c-.133.137-.267.273-.4.273zm14.28 9.159c-.4 0-.667-.274-.667-.684 0-2.597-2.136-4.784-4.671-4.784-.4 0-.668-.273-.668-.683 0-.41.267-.684.668-.684 3.336 0 6.006 2.734 6.006 6.151 0 .41-.267.684-.668.684z" fill="#FFFEFC"/></svg>