<svg width="21" height="21" fill="none" xmlns="http://www.w3.org/2000/svg"><path d="M11.812 21H9.187c-.612 0-1.312-.526-1.312-1.576v-1.837c0-.875-.438-1.662-1.138-2.275-1.575-1.225-2.362-2.975-2.362-4.9.087-3.325 2.8-5.95 6.037-6.037 1.662 0 3.237.612 4.375 1.75 1.137 1.137 1.838 2.712 1.838 4.374 0 1.838-.788 3.588-2.275 4.726-.788.612-1.226 1.574-1.226 2.45v2.012c0 .7-.612 1.313-1.312 1.313zM10.499 5.25c-2.8 0-5.162 2.362-5.25 5.162 0 1.662.7 3.237 2.013 4.2.963.787 1.488 1.838 1.488 2.975v1.837c0 .175 0 .7.437.7h2.625c.263 0 .438-.174.438-.437v-2.013c0-1.137.612-2.362 1.575-3.15 1.225-.962 1.925-2.45 1.925-4.024 0-1.4-.525-2.713-1.575-3.763-.963-.962-2.276-1.487-3.676-1.487z" fill="#0E80A4"/><path d="M12.688 18.375H8.311c-.262 0-.437-.175-.437-.438s.175-.438.438-.438h4.374c.263 0 .438.175.438.438 0 .262-.175.438-.438.438zM10.5 2.625c-.262 0-.437-.175-.437-.438V.438c0-.262.175-.437.438-.437.262 0 .437.175.437.438v1.75c0 .262-.175.437-.438.437zm5.862 2.451c-.087 0-.262 0-.35-.088a.423.423 0 010-.612l1.225-1.225a.423.423 0 01.613 0 .423.423 0 010 .612l-1.225 1.225s-.175.088-.263.088zm4.201 5.862h-1.75c-.263 0-.438-.175-.438-.438 0-.262.175-.437.438-.437h1.75c.262 0 .437.175.437.438 0 .262-.175.437-.438.437zm-2.976 7.088c-.087 0-.262 0-.35-.088l-1.225-1.225a.423.423 0 010-.613.423.423 0 01.613 0l1.225 1.226a.423.423 0 010 .612c0 .088-.088.088-.263.088zm-14.175 0c-.087 0-.262 0-.35-.088a.423.423 0 010-.612L4.287 16.1a.423.423 0 01.613 0 .423.423 0 010 .613l-1.225 1.225c-.088.088-.175.088-.263.088zm-1.224-7.088H.438c-.263 0-.438-.175-.438-.438 0-.262.175-.437.438-.437h1.75c.262 0 .437.175.437.438 0 .262-.175.437-.438.437zm2.449-5.863c-.087 0-.262 0-.35-.088L3.062 3.675a.423.423 0 010-.613.423.423 0 01.613 0L4.9 4.287a.423.423 0 010 .613c-.088.087-.175.175-.263.175zM14 10.938c-.262 0-.437-.176-.437-.438 0-1.662-1.4-3.063-3.063-3.063-.262 0-.437-.175-.437-.437 0-.263.175-.438.438-.438a3.921 3.921 0 013.937 3.938c0 .262-.175.438-.438.438z" fill="#0E80A4"/></svg>