<svg width="13" height="13" fill="none" xmlns="http://www.w3.org/2000/svg"><path d="M7.313 13H5.688c-.38 0-.813-.325-.813-.975v-1.138c0-.541-.27-1.029-.704-1.408-.975-.758-1.463-1.841-1.463-3.033.055-2.058 1.734-3.683 3.738-3.738 1.029 0 2.004.38 2.708 1.084A3.856 3.856 0 0110.292 6.5c0 1.138-.488 2.22-1.409 2.925a1.98 1.98 0 00-.758 1.517v1.245c0 .434-.38.813-.812.813zM6.5 3.25c-1.733 0-3.196 1.463-3.25 3.196 0 1.029.433 2.004 1.246 2.6.596.487.92 1.137.92 1.841v1.138c0 .108 0 .433.272.433h1.625c.162 0 .27-.108.27-.27v-1.246c0-.704.38-1.463.975-1.95A3.159 3.159 0 009.75 6.5a3.24 3.24 0 00-.975-2.33A3.193 3.193 0 006.5 3.25z" fill="#68C2D0"/><path d="M7.854 11.375H5.146c-.163 0-.271-.108-.271-.27 0-.163.108-.272.27-.272h2.71c.162 0 .27.109.27.271 0 .163-.108.271-.27.271zM6.5 1.625c-.163 0-.271-.108-.271-.27V.27c0-.163.108-.271.27-.271.163 0 .272.108.272.27v1.084c0 .163-.109.271-.271.271zm3.63 1.517c-.055 0-.163 0-.218-.054a.262.262 0 010-.38l.759-.758a.262.262 0 01.379 0 .262.262 0 010 .38l-.758.758s-.109.054-.163.054zm2.6 3.628h-1.084c-.163 0-.271-.108-.271-.27 0-.163.108-.27.27-.27h1.084c.163 0 .271.107.271.27 0 .162-.108.27-.27.27zm-1.843 4.388c-.054 0-.162 0-.216-.054l-.759-.758a.262.262 0 010-.38.262.262 0 01.38 0l.758.759a.262.262 0 010 .38c0 .053-.054.053-.163.053zm-8.775 0c-.054 0-.162 0-.216-.054a.262.262 0 010-.379l.758-.758a.262.262 0 01.38 0 .262.262 0 010 .379l-.76.758c-.053.054-.107.054-.162.054zM1.354 6.77H.271C.108 6.77 0 6.663 0 6.5c0-.163.108-.27.27-.27h1.084c.163 0 .271.107.271.27 0 .162-.108.27-.27.27zM2.87 3.142c-.053 0-.162 0-.216-.055l-.758-.812a.262.262 0 010-.38.262.262 0 01.379 0l.758.76a.262.262 0 010 .378c-.054.054-.108.109-.162.109zM8.666 6.77c-.162 0-.27-.107-.27-.27A1.92 1.92 0 006.5 4.604c-.163 0-.271-.108-.271-.27 0-.163.108-.271.27-.271A2.427 2.427 0 018.938 6.5c0 .162-.108.27-.27.27z" fill="#68C2D0"/></svg>