<svg width="21" height="24" fill="none" xmlns="http://www.w3.org/2000/svg"><path d="M5.272 19.343L7.75 24l2.751-4.765L13.252 24l2.476-4.657 5.272.185-4.129-7.15.618-.275-.232-2.225 1.313-1.81-1.313-1.811.233-2.225-2.044-.909-.91-2.043-2.224.232L10.5 0 8.69 1.312 6.464 1.08l-.91 2.043-2.043.909.232 2.225-1.312 1.81 1.312 1.811-.232 2.225.619.275L0 19.528l5.272-.185zm10.686-6.559l3.284 5.688-4.1-.144-1.926 3.622-2.142-3.709 1.932-3.345.475.05 1.055.11.91-2.044.512-.228zM4.574 11.488l.197-1.885-1.113-1.536 1.113-1.535-.197-1.885 1.734-.771.771-1.733 1.885.197L10.5 1.227l1.536 1.113 1.886-.197.77 1.733 1.734.771-.197 1.885 1.113 1.535-1.113 1.536.197 1.885-.055.024-1.678.747-.771 1.733-1.886-.197-1.536 1.112-1.536-1.112-1.885.197-.771-1.733-1.679-.747-.055-.024zm1.89 3.567l2.225-.232 1.811 1.312 1.105-.8-1.678 2.906-2.142 3.71-1.926-3.623-4.1.144 3.284-5.688.512.228.909 2.043z" fill="#FFBE40"/></svg>