<svg width="15" height="15" fill="none" xmlns="http://www.w3.org/2000/svg"><path d="M7.5 0C3.365 0 0 3.365 0 7.5S3.365 15 7.5 15 15 11.635 15 7.5 11.635 0 7.5 0zm0 14.375A6.883 6.883 0 01.625 7.5 6.883 6.883 0 017.5.625 6.883 6.883 0 0114.375 7.5 6.883 6.883 0 017.5 14.375z" fill="#68C2D0"/><path d="M8.415 2.5H6.899a2.525 2.525 0 00-2.523 2.522v.916H5v-.916a1.9 1.9 0 011.897-1.897h1.518a1.9 1.9 0 011.342 3.239l-2.57 2.57v1.691h.626V9.192l2.386-2.386c.476-.476.739-1.11.739-1.784A2.525 2.525 0 008.415 2.5zm-.602 9.062h-.625v.938h.625v-.938z" fill="#68C2D0"/></svg>