<svg width="16" height="15" fill="none" xmlns="http://www.w3.org/2000/svg"><path d="M12.809 13.57c1.828-1.359 3.004-3.474 3.004-5.85 0-4.098-3.487-7.414-7.801-7.42C3.692.296.187 3.619.187 7.72c0 2.324 1.124 4.396 2.883 5.756a.164.164 0 00.223-.024l.77-.937a.144.144 0 00-.024-.206 5.976 5.976 0 01-.457-.393 5.905 5.905 0 01-1.34-1.887 5.589 5.589 0 01-.492-2.308c0-.802.164-1.58.49-2.31a5.906 5.906 0 011.34-1.887A6.251 6.251 0 015.566 2.25 6.496 6.496 0 018 1.785a6.48 6.48 0 012.432.466 6.25 6.25 0 011.986 1.273 5.905 5.905 0 011.34 1.887c.326.73.49 1.508.49 2.31 0 .801-.164 1.579-.49 2.31a5.905 5.905 0 01-1.34 1.887 6.292 6.292 0 01-.572.482l-.795-.966a.163.163 0 00-.232-.016.147.147 0 00-.044.071l-.773 3.01a.15.15 0 00.15.183l3.262.015c.13 0 .205-.142.123-.239l-.728-.889z" fill="#fff"/></svg>