<svg width="16" height="18" fill="none" xmlns="http://www.w3.org/2000/svg"><path d="M11.126 1.761h-.87C10.036.762 8.966 0 7.679 0h-.327C6.066 0 4.995.762 4.775 1.761h-.87c-.814 0-1.473.54-1.473 1.206v.25h-.603C.819 3.216 0 3.886 0 4.712v11.79C0 17.33.818 18 1.829 18h11.368c1.01 0 1.83-.67 1.83-1.497V4.713c0-.827-.82-1.497-1.83-1.497h-.603v-.249c.005-.666-.66-1.206-1.468-1.206zM3.367 2.967c0-.24.243-.44.538-.44H5.2c.258 0 .468-.172.468-.383 0-.758.753-1.378 1.684-1.378h.327c.926 0 1.684.616 1.684 1.378 0 .21.21.383.467.383h1.296c.294 0 .538.2.538.44v1.46H3.367v-1.46zm9.835 1.015c.491 0 .893.33.893.731v11.79c0 .402-.402.731-.893.731H1.83c-.491 0-.894-.33-.894-.731V4.713c0-.402.403-.73.894-.73h.603v.826c0 .21.21.383.468.383h9.227c.257 0 .467-.172.467-.383v-.827h.608z" fill="#68C2D0"/><path d="M3.742 11.395l-.749-.613-.659.54 1.08.885a.52.52 0 00.332.11.543.543 0 00.332-.11l2.17-1.777-.66-.54-1.846 1.505zm0 3.324l-.749-.613-.659.54 1.08.88c.094.077.21.111.332.111a.54.54 0 00.332-.11l2.17-1.777-.66-.54-1.846 1.509zm0-6.651l-.749-.613-.659.54 1.08.885a.52.52 0 00.332.11.543.543 0 00.332-.11l2.17-1.777-.66-.54-1.846 1.505zm8.754-.728H7.557v.766h4.939V7.34zm0 3.324H7.557v.765h4.939v-.765zm0 3.323H7.557v.766h4.939v-.766z" fill="#68C2D0"/></svg>