<svg width="20" height="23" fill="none" xmlns="http://www.w3.org/2000/svg"><path d="M14.216 2.25h-1.111C12.824.975 11.455 0 9.812 0h-.418C7.75 0 6.382.974 6.1 2.25H4.99c-1.04 0-1.883.69-1.883 1.542v.318h-.77C1.046 4.11 0 4.966 0 6.023v15.064C0 22.144 1.046 23 2.337 23h14.526c1.291 0 2.337-.856 2.337-1.913V6.023c0-1.057-1.046-1.913-2.337-1.913h-.77v-.318c.006-.852-.843-1.541-1.877-1.541zM4.303 3.793c0-.308.31-.563.687-.563h1.655c.329 0 .598-.22.598-.49 0-.968.962-1.76 2.15-1.76h.42c1.182 0 2.15.787 2.15 1.76 0 .27.27.49.598.49h1.655c.377 0 .688.255.688.563v1.864H4.302V3.792zm12.566 1.296c.628 0 1.142.421 1.142.935v15.064c0 .514-.514.934-1.142.934H2.337c-.628 0-1.142-.42-1.142-.934V6.023c0-.514.514-.935 1.142-.935h.77v1.057c0 .27.27.49.598.49h11.79c.329 0 .598-.22.598-.49V5.088h.776z" fill="#68C2D0"/><path d="M4.78 14.56l-.955-.783-.843.69 1.38 1.13a.664.664 0 00.425.142c.16 0 .31-.054.424-.142l2.773-2.27-.843-.69-2.36 1.923zm0 4.247l-.955-.783-.843.69 1.38 1.125a.66.66 0 00.425.142.689.689 0 00.424-.142l2.773-2.27-.843-.69-2.36 1.928zm0-8.498l-.955-.783-.843.69 1.38 1.13a.665.665 0 00.425.142c.16 0 .31-.054.424-.142l2.773-2.27-.843-.69-2.36 1.923zm11.187-.929h-6.31v.978h6.31v-.979zm0 4.246h-6.31v.978h6.31v-.978zm0 4.247h-6.31v.978h6.31v-.978z" fill="#68C2D0"/></svg>