<svg width="24" height="24" fill="none" xmlns="http://www.w3.org/2000/svg"><path d="M23.555 10.018L24 8.824l-1.27-3.063-1.158-.529-1.341.447-.335-.105a10.132 10.132 0 00-1.47-1.466l-.104-.338.447-1.342-.529-1.159L15.176 0l-1.193.446-.633 1.266-.312.163a10.106 10.106 0 00-2.076-.003l-.312-.162-.632-1.263L8.825 0 5.76 1.27l-.529 1.158.447 1.34-.106.336c-.536.436-1.03.93-1.466 1.469l-.337.105-1.341-.447-1.159.528L0 8.824l.445 1.194 1.265.633.164.312a10.19 10.19 0 00-.003 2.076l-.162.312-1.263.632L0 15.177l1.27 3.064 1.158.528 1.34-.446.335.105c.437.536.93 1.028 1.47 1.467l.104.335-.447 1.342.53 1.159L8.825 24l1.194-.446.632-1.264.312-.163c.692.071 1.39.071 2.077 0l.311.164.632 1.263 1.193.445 3.064-1.27.529-1.158-.446-1.34.105-.335c.537-.437 1.03-.93 1.466-1.469l.335-.105 1.343.447 1.159-.528L24 15.176l-.445-1.194-1.265-.633-.164-.311c.072-.69.072-1.388.003-2.077l.162-.312 1.264-.63zm-2.094-.213l-.49.94.02.173c.085.714.085 1.44-.003 2.158l-.02.174.492.941 1.194.597.135.363-.93 2.245-.353.161-1.267-.421-1.013.318-.109.137a9 9 0 01-1.524 1.528l-.138.107-.317 1.014.421 1.265-.16.352-2.246.93-.363-.134-.597-1.193-.94-.492-.174.02a9.012 9.012 0 01-2.158-.002l-.173-.02-.942.492-.597 1.195-.363.135-2.245-.93-.161-.352.421-1.266-.318-1.014-.137-.108a9.003 9.003 0 01-1.528-1.525l-.107-.138-1.013-.318-1.265.423-.352-.161-.931-2.245.135-.363 1.03-.517.185-.123.47-.899-.02-.173a9.001 9.001 0 01.002-2.157l.02-.174-.492-.942-1.194-.597-.136-.363.93-2.245.353-.16 1.267.42 1.013-.317.109-.138A8.997 8.997 0 016.406 4.88l.137-.109.317-1.013-.42-1.263.16-.352 2.246-.931.363.135.597 1.193.94.492.173-.021a9.003 9.003 0 012.158.002l.174.021.942-.493.598-1.195.363-.135 2.245.93.161.352-.421 1.267.316 1.014.138.108a9.006 9.006 0 011.528 1.525l.107.138 1.014.318 1.265-.422.352.161.931 2.245-.135.363-1.194.596z" fill="#68C2D0"/><path d="M11.993 5.753c-3.416 0-6.195 2.774-6.195 6.185 0 3.41 2.779 6.184 6.195 6.184 3.416 0 6.195-2.773 6.195-6.184 0-3.41-2.78-6.185-6.195-6.185zm0 11.244a5.07 5.07 0 01-5.068-5.059 5.07 5.07 0 0110.136 0c0 2.79-2.274 5.059-5.068 5.059z" fill="#68C2D0"/></svg>