<svg width="25" height="24" fill="none" xmlns="http://www.w3.org/2000/svg"><path d="M12.312 5.996c1.605 0 3.11.625 4.241 1.756a5.958 5.958 0 011.756 4.241 5.97 5.97 0 01-1.756 4.242 5.969 5.969 0 01-4.241 1.755 5.958 5.958 0 01-4.242-1.755 5.958 5.958 0 01-1.755-4.242A5.97 5.97 0 018.07 7.752a5.958 5.958 0 014.242-1.756zm0 10.995a4.996 4.996 0 004.997-4.998 4.996 4.996 0 00-4.997-4.997 4.996 4.996 0 00-4.998 4.997 4.996 4.996 0 004.998 4.998z" fill="#2F2F2F"/><path d="M1.836 9.495h.95c.774 0 1.424-.65 1.424-1.45 0-.399-.169-.755-.469-1.024l-.612-.6a1.535 1.535 0 010-2.18l1.393-1.38a1.565 1.565 0 011.093-.437c.413 0 .813.162 1.094.437l.587.587c.28.313.668.481 1.074.481.8 0 1.48-.65 1.48-1.418v-.943C9.85.725 10.508 0 11.35 0h1.899c.862 0 1.55.718 1.55 1.568v.95c0 .768.661 1.417 1.46 1.417.4 0 .763-.168 1.038-.462l.606-.6a1.54 1.54 0 011.093-.437c.412 0 .812.163 1.093.438l1.393 1.374c.6.6.6 1.58 0 2.174l-.587.587c-.312.28-.487.637-.487 1.043 0 .8.65 1.45 1.424 1.45h.95c.855-.007 1.574.693 1.574 1.542v1.9c0 .843-.719 1.548-1.575 1.548h-.949c-.775 0-1.424.65-1.424 1.45 0 .4.175.768.487 1.05l.587.574c.6.6.6 1.574 0 2.174l-1.393 1.387a1.54 1.54 0 01-1.093.437c-.412 0-.812-.163-1.093-.438l-.606-.6a1.373 1.373 0 00-1.03-.461c-.8 0-1.463.65-1.463 1.418v.95c0 .842-.687 1.567-1.543 1.567h-1.898c-.85 0-1.556-.718-1.556-1.568v-.95c0-.768-.656-1.417-1.455-1.417-.4 0-.769.174-1.056.48l-.587.588a1.577 1.577 0 01-1.094.437c-.412 0-.812-.162-1.093-.437L3.13 19.746c-.6-.6-.6-1.58 0-2.18l.612-.6c.3-.268.469-.65.469-1.043 0-.8-.65-1.474-1.424-1.474h-.95c-.85 0-1.455-.644-1.455-1.493v-1.912c0-.85.606-1.549 1.455-1.549zm-.468 2.499v.943c0 .262.143.494.456.494h.95c.643 0 1.255.274 1.717.75a2.48 2.48 0 01.706 1.736 2.36 2.36 0 01-.78 1.761l-.594.587a.555.555 0 000 .769l1.393 1.387c.1.093.243.15.393.15.15 0 .3-.057.394-.15l.568-.569c.481-.506 1.112-.787 1.78-.787.65 0 1.25.25 1.718.7.475.462.725 1.068.725 1.718v.95a.58.58 0 00.556.567h1.899c.287 0 .543-.262.543-.568v-.95c0-.643.257-1.255.731-1.717.469-.45 1.081-.7 1.724-.7.663 0 1.3.281 1.756.775l.58.58c.1.094.244.15.394.15.15 0 .3-.05.381-.137l.007-.006.006-.006 1.393-1.387a.547.547 0 000-.762l-.569-.563a2.408 2.408 0 01-.087-3.491 2.37 2.37 0 011.718-.719h.956c.312 0 .574-.268.574-.55v-1.904c0-.28-.262-.55-.575-.55h-.949a2.37 2.37 0 01-1.718-.718 2.446 2.446 0 01-.706-1.718c0-.674.281-1.305.794-1.774l.574-.568a.527.527 0 00.157-.381.536.536 0 00-.157-.381l-1.386-1.38a.58.58 0 00-.394-.15c-.15 0-.3.05-.381.137l-.006.006-.007.006-.587.587a2.37 2.37 0 01-1.755.775c-.65 0-1.256-.25-1.724-.7a2.379 2.379 0 01-.737-1.718v-.95c0-.305-.25-.568-.531-.568h-1.905c-.282 0-.5.263-.5.569v.95a2.4 2.4 0 01-.75 1.717 2.5 2.5 0 01-1.736.7 2.439 2.439 0 01-1.787-.787l-.568-.569a.58.58 0 00-.394-.15.6.6 0 00-.394.144l-1.393 1.38a.539.539 0 00-.006.762l.594.588c.5.462.78 1.087.78 1.762 0 .65-.25 1.243-.705 1.711a2.37 2.37 0 01-1.718.719h-.95c-.337 0-.462.312-.468.562v.937z" fill="#2F2F2F"/></svg>