<svg width="25" height="18" fill="none" xmlns="http://www.w3.org/2000/svg"><path d="M12.22.557l.022-.011.02-.014a.236.236 0 01.055-.029.05.05 0 01.016-.003.05.05 0 01.016.003c.01.004.029.012.055.029l.02.014.022.011L24.02 6.73c.104.075.146.158.146.268 0 .11-.042.193-.146.268l-11.574 6.172-.035.019h-.124a.235.235 0 01-.026-.003h-.002l-.006-.002a.349.349 0 01-.039-.017L.647 7.265C.543 7.192.5 7.108.5 6.999c0-.11.043-.193.147-.268L12.22.557z" stroke="#68C2D0"/><path d="M12.372 13.684c.433 0 .926-.083 1.347-.384l5.885-3.079v2.19c0 .931-.755 1.96-2.143 2.789-1.361.813-3.205 1.35-5.09 1.35-1.883 0-3.727-.537-5.088-1.35-1.388-.829-2.144-1.857-2.144-2.79v-2.189l5.886 3.08c.42.3.914.383 1.347.383z" stroke="#68C2D0"/></svg>