<svg width="22" height="15" fill="none" xmlns="http://www.w3.org/2000/svg"><path d="M10.78.543l.02-.011.02-.014a.185.185 0 01.03-.016.185.185 0 01.028.016l.02.014.022.011L21.1 5.972a.27.27 0 01.076.08.2.2 0 01.026.104.2.2 0 01-.026.106.27.27 0 01-.076.08L10.921 11.77l-.017.009h-.02a2.088 2.088 0 01-.086-.002.286.286 0 01-.025-.01L.6 6.34a.27.27 0 01-.076-.08.2.2 0 01-.025-.105.2.2 0 01.025-.105.27.27 0 01.076-.08L10.78.544z" stroke="#68C2D0"/><path d="M10.884 12.099c.387 0 .834-.074 1.217-.347l5.086-2.66v1.826c0 .788-.642 1.677-1.857 2.403-1.187.71-2.799 1.18-4.446 1.18-1.646 0-3.258-.47-4.446-1.18-1.214-.726-1.856-1.615-1.856-2.403V9.091l5.085 2.662c.384.272.83.346 1.217.346z" stroke="#68C2D0"/></svg>