<svg width="15" height="16" fill="none" xmlns="http://www.w3.org/2000/svg"><path d="M12.938 4.04l.64-.6a.32.32 0 00-.35-.518.319.319 0 00-.104.07l-.582.581a7.39 7.39 0 00-4.833-2.256v-.53a.294.294 0 00-.038-.148h.32a.32.32 0 100-.639h-1.28a.32.32 0 100 .64h.37a.307.307 0 00-.044.146v.53A7.67 7.67 0 000 8.65 7.67 7.67 0 007.351 16a7.632 7.632 0 007.351-7.351 7.224 7.224 0 00-1.764-4.609zM7.351 15.36A6.98 6.98 0 01.64 8.65a6.98 6.98 0 016.712-6.712 6.968 6.968 0 016.712 6.712 6.968 6.968 0 01-6.712 6.712z" fill="#68C2D0"/><path d="M7.352 7.69a.965.965 0 00-.41.096L3.746 3.951a.32.32 0 00-.486.409l3.197 3.835c-.061.13-.094.272-.096.416a.959.959 0 10.99-.92zm0 1.279a.32.32 0 110-.64.32.32 0 010 .64zM7.35 3.855a.32.32 0 00.32-.32v-.64a.32.32 0 10-.639 0v.64a.32.32 0 00.32.32zm0 9.588a.32.32 0 00-.319.32v.64a.32.32 0 10.64 0v-.64a.32.32 0 00-.32-.32zm5.754-5.113h-.639a.32.32 0 000 .638h.64a.32.32 0 000-.639zm-10.867 0h-.64a.32.32 0 000 .638h.64a.32.32 0 100-.639z" fill="#68C2D0"/></svg>