<svg width="20" height="20" fill="none" xmlns="http://www.w3.org/2000/svg"><path d="M10.387 2.946V.43c0-.236-.158-.43-.351-.43-.193 0-.351.194-.351.43v2.516c-.28.172-.491.516-.491.925 0 .56.368 1.032.842 1.032.473 0 .842-.473.842-1.032 0-.409-.193-.774-.491-.925zm5.263 0V.43c0-.236-.158-.43-.35-.43-.194 0-.352.194-.352.43v2.516c-.28.172-.491.516-.491.925 0 .56.368 1.032.842 1.032s.842-.473.842-1.032c0-.409-.193-.774-.491-.925zM9.334 1.505h-3.86v.86h3.86v-.86zm5.263 0h-3.86v.86h3.86v-.86zM5.123 2.946V.43c0-.236-.158-.43-.35-.43-.194 0-.351.194-.351.43v2.516a1.083 1.083 0 00-.492.925c0 .56.369 1.032.842 1.032.474 0 .843-.473.843-1.032 0-.409-.193-.774-.492-.925z" fill="#68C2D0"/><path d="M18.246 1.505h-2.28v.86h2.28c.579 0 1.053.581 1.053 1.29v2.367H.701V3.656c0-.71.473-1.29 1.052-1.29h2.281v-.86h-2.28C.788 1.505 0 2.472 0 3.655V17.85C0 19.032.79 20 1.754 20h16.492C19.21 20 20 19.032 20 17.85V3.656c0-1.183-.79-2.15-1.754-2.15zm0 17.635H1.754c-.579 0-1.052-.58-1.052-1.29V6.882h18.597V17.85c0 .71-.474 1.29-1.053 1.29z" fill="#68C2D0"/></svg>