<svg width="20" height="20" fill="none" xmlns="http://www.w3.org/2000/svg"><path d="M7.146 2.461h5.478a.399.399 0 00.397-.397.399.399 0 00-.397-.397H7.146a.397.397 0 100 .794zm9.722.882H2.897a.399.399 0 00-.397.397.4.4 0 00.397.398h.635l.3 3.173v.013l1.005 10.651c.02.205.189.358.394.358h9.3a.396.396 0 00.394-.358L16.23 4.138h.635a.399.399 0 00.397-.398.392.392 0 00-.394-.397zM14.173 17.54h-8.58L4.66 7.676h10.443l-.931 9.863zm1.006-10.657H4.587l-.26-2.744h11.109l-.257 2.744z" fill="#2F2F2F"/></svg>