<svg width="17" height="17" fill="none" xmlns="http://www.w3.org/2000/svg"><path d="M13.806 3.195a7.51 7.51 0 00-10.611 0c-2.927 2.927-2.927 7.687 0 10.61A7.481 7.481 0 008.5 16a7.482 7.482 0 005.306-2.194 7.51 7.51 0 000-10.611zm-.504 10.107a6.796 6.796 0 01-9.6 0c-2.649-2.648-2.649-6.955 0-9.6A6.76 6.76 0 018.5 1.716c1.738 0 3.478.662 4.802 1.986 2.645 2.645 2.645 6.952 0 9.6z" fill="#FFB27D" stroke="#FFB27D" stroke-width=".4"/><path d="M8.5 4.21a.359.359 0 00-.357.358v4.734c0 .197.161.358.357.358a.359.359 0 00.358-.358V4.568a.359.359 0 00-.358-.357zm0 6.88a.359.359 0 00-.357.357v.981c0 .197.161.358.357.358a.359.359 0 00.358-.358v-.981a.359.359 0 00-.358-.357z" fill="#FFB27D" stroke="#FFB27D" stroke-width=".4"/></svg>