<svg width="10" height="6" viewBox="0 0 10 6" fill="none" xmlns="http://www.w3.org/2000/svg">
<path d="M0 0.418713C1.58486e-05 0.335878 0.0220482 0.254908 0.0633106 0.186044C0.104573 0.117181 0.163212 0.063516 0.231812 0.0318369C0.300411 0.000157703 0.37589 -0.00811283 0.448703 0.00807135C0.521516 0.0242555 0.588392 0.0641673 0.640873 0.122759L5.00237 4.98896L9.36386 0.122759C9.43466 0.0464711 9.52948 0.00425808 9.6279 0.00521228C9.72632 0.00616649 9.82046 0.0502116 9.89006 0.127861C9.95965 0.20551 9.99913 0.310551 9.99999 0.42036C10.0008 0.530168 9.96301 0.635959 9.89463 0.714946L5.26763 5.87738C5.19724 5.95589 5.10178 6 5.00224 6C4.90271 6 4.80725 5.95589 4.73686 5.87738L0.109857 0.714946C0.0750059 0.676037 0.0473662 0.62985 0.0285168 0.579022C0.0096673 0.528193 -2.23375e-05 0.47372 0 0.418713Z" fill="#2F2F2F"/>
</svg>
