<svg width="21" height="19" viewBox="0 0 21 19" fill="none" xmlns="http://www.w3.org/2000/svg">
<path d="M11.124 3.00758L11.1241 3.00751C12.143 2.00544 13.5268 1.44109 14.9713 1.44109C16.4159 1.44109 17.7997 2.00544 18.8186 3.00751L18.8187 3.00766C19.8375 4.0087 20.4087 5.36544 20.4087 6.77853C20.4087 8.19161 19.8375 9.54835 18.8186 10.5495L18.8185 10.5496L10.814 18.4183C10.6354 18.5938 10.3429 18.5938 10.1643 18.4183L2.1598 10.5496C0.0402227 8.46601 0.0402228 5.09105 2.1598 3.00744C4.28367 0.919608 7.73028 0.919608 9.85414 3.00744L10.1737 3.32156L10.4891 3.63167L10.8046 3.32156L11.124 3.00758Z" fill="white" stroke="#2F2F2F" stroke-width="0.9"/>
</svg>
