<svg width="19" height="19" viewBox="0 0 19 19" fill="none" xmlns="http://www.w3.org/2000/svg">
<path d="M10.275 9.49994L18.1086 1.6663C18.3227 1.4522 18.3227 1.10537 18.1086 0.891282C17.8945 0.67719 17.5477 0.67719 17.3336 0.891282L9.49994 8.72493L1.6663 0.891282C1.4522 0.67719 1.10537 0.67719 0.891282 0.891282C0.67719 1.10537 0.67719 1.4522 0.891282 1.6663L8.72493 9.49994L0.891282 17.3336C0.67719 17.5477 0.67719 17.8945 0.891282 18.1086C0.998329 18.2156 1.1382 18.2692 1.27879 18.2692C1.41938 18.2692 1.55925 18.2156 1.6663 18.1086L9.49994 10.275L17.3336 18.1086C17.4406 18.2156 17.5805 18.2692 17.7211 18.2692C17.8617 18.2692 18.0016 18.2156 18.1086 18.1086C18.3227 17.8945 18.3227 17.5477 18.1086 17.3336L10.275 9.49994Z" fill="white"/>
</svg>
