<svg width="18" height="20" viewBox="0 0 18 20" fill="none" xmlns="http://www.w3.org/2000/svg">
<path d="M9.79541 10.2876L17.8352 1.956C18.0549 1.72829 18.0549 1.35942 17.8352 1.13171C17.6155 0.904012 17.2595 0.904012 17.0398 1.13171L9 9.46335L0.960205 1.13171C0.740479 0.904012 0.384522 0.904012 0.164795 1.13171C-0.0549317 1.35942 -0.0549317 1.72829 0.164795 1.956L8.20459 10.2876L0.164795 18.6193C-0.0549316 18.847 -0.0549316 19.2158 0.164795 19.4436C0.274658 19.5574 0.418213 19.6143 0.5625 19.6143C0.706787 19.6143 0.850342 19.5574 0.960205 19.4436L9 11.1119L17.0398 19.4436C17.1497 19.5574 17.2932 19.6143 17.4375 19.6143C17.5818 19.6143 17.7253 19.5574 17.8352 19.4436C18.0549 19.2158 18.0549 18.847 17.8352 18.6193L9.79541 10.2876Z" fill="#282828"/>
</svg>
