<svg width="14" height="16" viewBox="0 0 14 16" fill="none" xmlns="http://www.w3.org/2000/svg">
<path d="M4.26421 0.729105H9.29324C9.49345 0.729105 9.6578 0.564758 9.6578 0.364553C9.6578 0.164348 9.49345 0 9.29324 0H4.26421C4.06401 0 3.89966 0.164348 3.89966 0.364553C3.89966 0.564758 4.06102 0.729105 4.26421 0.729105Z" fill="#5A5A5A"/>
<path d="M13.1896 1.53906H12.2753H1.27593H0.364553C0.164348 1.53906 0 1.70341 0 1.90362C0 2.10382 0.164348 2.26817 0.364553 2.26817H0.947239L1.22215 5.1816C1.22215 5.18459 1.22215 5.19057 1.22215 5.19355L2.14548 14.9707C2.16341 15.159 2.31879 15.2994 2.50705 15.2994H11.0442C11.2324 15.2994 11.3878 15.156 11.4057 14.9707L12.604 2.26817H13.1866C13.3869 2.26817 13.5512 2.10382 13.5512 1.90362C13.5542 1.70341 13.3928 1.53906 13.1896 1.53906ZM10.7155 14.5703H2.83873L1.98412 5.51627H11.5701L10.7155 14.5703ZM11.6388 4.78717H1.9154L1.67634 2.26817H11.8749L11.6388 4.78717Z" fill="#5A5A5A"/>
</svg>
