<svg width="18" height="18" viewBox="0 0 18 18" fill="none" xmlns="http://www.w3.org/2000/svg">
<path d="M0.845012 2.54401L0.845799 2.54305L2.22987 0.864176C2.34166 0.730347 2.48628 0.625901 2.65046 0.563822L2.55242 0.68412L1.73742 1.68412L1.07248 2.5H2.125H15.875H17.027L16.2402 1.65852L15.3052 0.658516L15.1709 0.514832C15.4083 0.55643 15.6206 0.683224 15.7767 0.866028L17.1573 2.54071C17.1576 2.54107 17.1579 2.54144 17.1582 2.5418C17.3735 2.80673 17.5 3.13596 17.5 3.5V16C17.5 16.8289 16.8289 17.5 16 17.5H2C1.17114 17.5 0.5 16.8289 0.5 16V3.5C0.5 3.13576 0.626556 2.80766 0.845012 2.54401ZM8.64645 14.8536L9 15.2071L9.35355 14.8536L14.8536 9.35355L15.7071 8.5H14.5H11.5V7V6.5H11H7H6.5V7V8.5H3.5H2.29289L3.14645 9.35355L8.64645 14.8536Z" fill="white" stroke="#5A5A5A"/>
</svg>
