<svg width="23" height="23" viewBox="0 0 23 23" fill="none" xmlns="http://www.w3.org/2000/svg">
<path d="M11.9446 3.38818V0.494625C11.9446 0.222581 11.763 0 11.5411 0C11.3192 0 11.1376 0.222581 11.1376 0.494625V3.38818C10.8148 3.58603 10.5727 3.98173 10.5727 4.45162C10.5727 5.09464 10.9963 5.63872 11.5411 5.63872C12.0858 5.63872 12.5095 5.09464 12.5095 4.45162C12.5095 3.98173 12.2876 3.5613 11.9446 3.38818Z" fill="#68C2D0"/>
<path d="M17.9973 3.38818V0.494625C17.9973 0.222581 17.8157 0 17.5937 0C17.3718 0 17.1902 0.222581 17.1902 0.494625V3.38818C16.8674 3.58603 16.6253 3.98173 16.6253 4.45162C16.6253 5.09464 17.049 5.63872 17.5937 5.63872C18.1385 5.63872 18.5622 5.09464 18.5622 4.45162C18.5622 3.98173 18.3402 3.5613 17.9973 3.38818Z" fill="#68C2D0"/>
<path d="M10.7336 1.73108H6.295V2.71982H10.7336V1.73108Z" fill="#68C2D0"/>
<path d="M16.7863 1.73108H12.3477V2.71982H16.7863V1.73108Z" fill="#68C2D0"/>
<path d="M5.89193 3.38818V0.494625C5.89193 0.222581 5.71035 0 5.48842 0C5.26648 0 5.0849 0.222581 5.0849 0.494625V3.38818C4.7621 3.58603 4.51999 3.98173 4.51999 4.45162C4.51999 5.09464 4.94368 5.63872 5.48842 5.63872C6.03316 5.63872 6.45684 5.09464 6.45684 4.45162C6.45684 3.98173 6.23491 3.5613 5.89193 3.38818Z" fill="#68C2D0"/>
<path d="M20.9826 1.73108H18.3597V2.72033H20.9826C21.6484 2.72033 22.1931 3.38807 22.1931 4.2042V6.92464H0.807022V4.2042C0.807022 3.38807 1.35176 2.72033 2.01755 2.72033H4.64037V1.73108H2.01755C0.907899 1.73108 0 2.84399 0 4.2042V20.5268C0 21.887 0.907899 23 2.01755 23H20.9826C22.0922 23 23.0001 21.887 23.0001 20.5268V4.2042C23.0001 2.84399 22.0922 1.73108 20.9826 1.73108ZM20.9826 22.0107H2.01755C1.35176 22.0107 0.807022 21.343 0.807022 20.5268V7.91389H22.1931V20.5268C22.1931 21.343 21.6484 22.0107 20.9826 22.0107Z" fill="#68C2D0"/>
<path d="M10.8769 14.1073L9.34767 12.8454L8 13.9574L10.2079 15.7713C10.399 15.929 10.638 16 10.8865 16C11.135 16 11.374 15.9211 11.5651 15.7713L16 12.112L14.6523 11L10.8769 14.1073Z" fill="#68C2D0"/>
</svg>
