<svg width="22" height="21" viewBox="0 0 22 21" fill="none" xmlns="http://www.w3.org/2000/svg">
<path d="M11.4356 0.791083L14.1485 5.60437C14.3626 5.98414 14.7313 6.25199 15.1586 6.33821L20.5747 7.43101C20.9565 7.50805 21.1075 7.97278 20.8439 8.25953L17.1045 12.3271C16.8095 12.648 16.6686 13.0814 16.7187 13.5145L17.353 19.0032C17.3978 19.3901 17.0024 19.6773 16.6483 19.5152L11.6242 17.2158C11.2279 17.0344 10.7721 17.0344 10.3758 17.2158L5.35174 19.5152C4.99756 19.6773 4.60224 19.3901 4.64696 19.0032L5.2813 13.5145C5.33135 13.0814 5.19053 12.648 4.8955 12.3271L1.15614 8.25953C0.89253 7.97278 1.04353 7.50805 1.42534 7.43101L6.84141 6.33821C7.26873 6.25199 7.6374 5.98414 7.85145 5.60437L10.5644 0.791083C10.7557 0.451761 11.2443 0.451761 11.4356 0.791083Z" stroke="#68C2D0"/>
</svg>
