<svg width="19" height="23" viewBox="0 0 19 23" fill="none" xmlns="http://www.w3.org/2000/svg">
<path d="M3.96797 7.11365L0.140875 10.9642C0.0469581 11.0581 0 11.1755 0 11.2929C0 11.4338 0.0469581 11.5512 0.140875 11.6216L3.94449 15.4253C4.13233 15.6131 4.41408 15.6131 4.60191 15.4253C4.69583 15.3313 4.74278 15.214 4.74278 15.0966C4.74278 14.9792 4.69583 14.8383 4.60191 14.7678L1.59658 11.739H16.5528C16.8111 11.739 17.0224 11.5277 17.0224 11.2695C17.0224 11.0112 16.8111 10.7999 16.5528 10.7999H1.59658L4.62539 7.77107C4.71931 7.67715 4.76626 7.55976 4.76626 7.44236C4.76626 7.32497 4.71931 7.20757 4.62539 7.11365C4.46103 6.92582 4.15581 6.92582 3.96797 7.11365Z" fill="#5A5A5A"/>
<path d="M16.9688 0H8.03125C6.91406 0 6 1.06701 6 2.37113V6.23608H6.8125V2.37113C6.8125 1.58866 7.36094 0.948454 8.03125 0.948454H16.9688C17.6391 0.948454 18.1875 1.58866 18.1875 2.37113V20.6289C18.1875 21.4113 17.6391 22.0515 16.9688 22.0515H8.03125C7.36094 22.0515 6.8125 21.4113 6.8125 20.6289V16.5268H6V20.6289C6 21.933 6.91406 23 8.03125 23H16.9688C18.0859 23 19 21.933 19 20.6289V2.37113C19 1.06701 18.0859 0 16.9688 0Z" fill="#5A5A5A"/>
</svg>
