<svg width="24" height="23" viewBox="0 0 24 23" fill="none" xmlns="http://www.w3.org/2000/svg">
<path d="M6.97649 0.00012855C6.95608 0.000215723 6.93571 0.00182423 6.91554 0.00494057H3.28567C2.83052 0.00494057 2.43367 0.212001 2.16767 0.506995C1.90168 0.801907 1.745 1.17072 1.65439 1.5512L0.0118877 8.45004C0.000537922 8.49618 -0.00271838 8.54394 0.00226362 8.5912C0.00117605 8.60346 0.000640829 8.61577 0.000659608 8.62809C0.000663468 9.81521 0.623657 10.9143 1.63996 11.5105L1.64316 11.5121V22.5894C1.64317 22.6983 1.68644 22.8027 1.76345 22.8797C1.84045 22.9567 1.94489 23 2.05379 23H21.7638C21.8727 23 21.9772 22.9567 22.0542 22.8797C22.1312 22.8027 22.1745 22.6983 22.1745 22.5894V11.5121L22.1761 11.5105C23.1924 10.9143 23.817 9.81521 23.817 8.62809C23.8169 8.61738 23.8163 8.60668 23.8154 8.59601V8.5928C23.8154 8.59066 23.8154 8.58852 23.8154 8.58638C23.8198 8.54072 23.8165 8.49463 23.8057 8.45004L22.1632 1.5512C22.0726 1.17072 21.916 0.801907 21.65 0.506995C21.384 0.212001 20.9871 0.00494057 20.532 0.00494057H16.9021C16.8777 0.00112122 16.853 -0.000489354 16.8283 0.00012855C16.809 0.000370887 16.7897 0.00197894 16.7706 0.00494057H11.9746C11.9507 0.00121647 11.9266 -0.000393822 11.9024 0.00012855C11.8815 0.000134978 11.8605 0.00174372 11.8398 0.00494057H7.04546C7.02265 0.00140065 6.99958 -0.000209104 6.97649 0.00012855ZM3.28567 0.826193H6.52737L5.7799 8.21746H3.28567H0.911736L2.45319 1.74208C2.52065 1.45875 2.63738 1.21222 2.7772 1.05717C2.91701 0.902117 3.05835 0.826193 3.28567 0.826193ZM7.35343 0.826193H11.4982V8.21746H9.03443H6.60757L7.35343 0.826193ZM12.3194 0.826193H16.4642L17.2101 8.21746H14.7832H12.3194V0.826193ZM17.2903 0.826193H20.532C20.7593 0.826193 20.899 0.902528 21.0388 1.05717C21.1786 1.21222 21.297 1.45875 21.3644 1.74208L22.9059 8.21746H20.532H18.0377L17.2903 0.826193ZM0.92938 9.03871H3.28567H5.64035C5.5153 9.76478 5.15204 10.429 4.51434 10.8031C3.75196 11.2503 2.81777 11.2503 2.05539 10.8031C1.41761 10.429 1.05437 9.76495 0.92938 9.03871ZM6.67814 9.03871H9.03443H11.3891C11.2641 9.76478 10.9008 10.429 10.2631 10.8031C9.50073 11.2503 8.56653 11.2503 7.80416 10.8031C7.16637 10.429 6.80313 9.76495 6.67814 9.03871ZM12.4269 9.03871H14.7832H17.1379C17.0128 9.76478 16.6496 10.429 16.0119 10.8031C15.2495 11.2503 14.3153 11.2503 13.5529 10.8031C12.9151 10.429 12.5519 9.76495 12.4269 9.03871ZM18.1757 9.03871H20.532H22.8866C22.7616 9.76478 22.3983 10.429 21.7606 10.8031C20.9983 11.2503 20.0641 11.2503 19.3017 10.8031C18.6639 10.429 18.3007 9.76495 18.1757 9.03871ZM6.15845 10.2321C6.44191 10.7542 6.86149 11.2012 7.38872 11.5105C8.40502 12.1066 9.66224 12.1066 10.6785 11.5105C11.2056 11.2013 11.6233 10.7539 11.9072 10.2321C12.1907 10.7542 12.6103 11.2012 13.1375 11.5105C14.1538 12.1066 15.411 12.1066 16.4273 11.5105C16.9543 11.2013 17.3721 10.7539 17.656 10.2321C17.9394 10.7542 18.359 11.2012 18.8862 11.5105C19.6416 11.9536 20.5295 12.0661 21.3532 11.8505V22.1787H2.46442V11.8505C3.28772 12.0656 4.17485 11.9533 4.92978 11.5105C5.4568 11.2013 5.87457 10.7539 6.15845 10.2321Z" fill="#2F2F2F"/>
</svg>
