<svg width="23" height="17" viewBox="0 0 23 17" fill="none" xmlns="http://www.w3.org/2000/svg">
<path d="M0.334906 16.2271C0.327984 16.2258 0.321323 16.2238 0.314507 16.2221C0.308107 16.2206 0.301706 16.2191 0.295357 16.2172C0.288801 16.2152 0.282452 16.2127 0.275999 16.2104C0.269598 16.2081 0.263199 16.206 0.256903 16.2034C0.251022 16.2009 0.245352 16.1981 0.239574 16.1954C0.233019 16.1923 0.226357 16.1894 0.219904 16.1859C0.214544 16.183 0.209549 16.1798 0.204346 16.1767C0.197842 16.1728 0.191284 16.1691 0.184937 16.1649C0.179523 16.1613 0.174477 16.1572 0.169273 16.1534C0.163601 16.1491 0.157721 16.1452 0.152205 16.1406C0.144712 16.1344 0.137688 16.1278 0.130661 16.1211C0.127748 16.1184 0.124729 16.116 0.121868 16.1132C0.118902 16.1102 0.116457 16.1071 0.113646 16.104C0.10709 16.0971 0.100533 16.0903 0.0944958 16.0829C0.0897617 16.0772 0.0855999 16.0711 0.0812283 16.0651C0.0775852 16.0601 0.0736828 16.0553 0.0702496 16.0502C0.0658264 16.0436 0.0619736 16.0368 0.0580196 16.03C0.0550537 16.0251 0.0520344 16.0203 0.0492783 16.0153C0.0457382 16.0086 0.0426178 16.0016 0.0394421 15.9948C0.0368938 15.9893 0.0341358 15.9839 0.0318451 15.9783C0.0290871 15.9717 0.0268497 15.965 0.0245075 15.9583C0.0222702 15.9522 0.019928 15.9461 0.0180035 15.9399C0.015974 15.9332 0.0145168 15.9263 0.0128002 15.9195C0.0111866 15.9131 0.00941849 15.9068 0.00806427 15.9003C0.00650406 15.8925 0.00556755 15.8845 0.00447464 15.8765C0.00369453 15.871 0.00265121 15.8656 0.00207901 15.86C0.0007267 15.8463 0 15.8324 0 15.8186V0.416135C0 0.411451 0.000572205 0.406872 0.000728607 0.402189C0.000988007 0.394227 0.00119591 0.386214 0.00192451 0.378304C0.00249672 0.371904 0.00343513 0.365607 0.00431824 0.359311C0.00530815 0.352182 0.00624275 0.345105 0.00759697 0.338028C0.00884628 0.331367 0.0105114 0.324863 0.0120716 0.318306C0.0136318 0.311698 0.0152454 0.305089 0.01717 0.298532C0.0190964 0.292028 0.0212822 0.285732 0.0235195 0.279383C0.0257568 0.272879 0.0280457 0.266374 0.0306492 0.259974C0.0330944 0.253937 0.0358524 0.248057 0.038559 0.242125C0.0415249 0.235673 0.0444393 0.229272 0.0477695 0.222976C0.0508385 0.217252 0.0541172 0.211736 0.0573959 0.206116C0.0609341 0.200028 0.0645237 0.193939 0.068428 0.187955C0.0721741 0.182231 0.0762329 0.176819 0.0802917 0.171304C0.0842457 0.165892 0.0880966 0.160428 0.0923634 0.15512C0.0971508 0.149188 0.102198 0.14362 0.107298 0.138C0.110628 0.134306 0.113594 0.130403 0.117081 0.126813C0.117914 0.125928 0.118851 0.125251 0.119682 0.124367C0.125198 0.118747 0.13113 0.113543 0.136959 0.108236C0.141382 0.104229 0.145649 0.100014 0.150175 0.0962151C0.155535 0.091792 0.161207 0.0877854 0.166775 0.0836225C0.172188 0.0795637 0.177391 0.0752446 0.183012 0.0714979C0.187643 0.0683237 0.192638 0.0656699 0.197372 0.0627039C0.204086 0.058541 0.210695 0.0541699 0.217615 0.0504233C0.222143 0.0479776 0.226982 0.0459483 0.231665 0.0436587C0.239054 0.0400162 0.24634 0.0361134 0.253937 0.0329392C0.260389 0.0301812 0.267206 0.0279958 0.273867 0.0256021C0.279799 0.0234166 0.285679 0.0209709 0.291714 0.0190976C0.298374 0.0169641 0.305347 0.0155068 0.312164 0.0137376C0.31846 0.0121245 0.324705 0.0101994 0.331055 0.00889848C0.336727 0.00770165 0.342607 0.00702513 0.348331 0.00608848C0.356136 0.00478757 0.363941 0.00333054 0.371798 0.00249796C0.376793 0.0019776 0.381842 0.00187327 0.386837 0.00150902C0.395683 0.000884583 0.40453 0.000260096 0.413429 0.000156023C0.414469 0.000156023 0.415405 0 0.416445 0H22.5837C22.5848 0 22.5858 0.000156023 22.5869 0.000156023C22.5955 0.00020806 22.6041 0.000884611 22.6127 0.00145701C22.618 0.00182127 22.6233 0.00192556 22.6285 0.00249796C22.6362 0.00333054 22.6438 0.00473519 22.6514 0.00598407C22.6573 0.00697276 22.6633 0.00764924 22.6692 0.00884608C22.6754 0.010147 22.6815 0.0120204 22.6877 0.0136336C22.6947 0.0154028 22.7017 0.0169121 22.7085 0.0190456C22.7141 0.0208148 22.7195 0.0231563 22.7251 0.0251336C22.7322 0.0276834 22.7394 0.0300251 22.7463 0.0329392C22.7534 0.0359573 22.7603 0.0395998 22.7672 0.0430342C22.7723 0.045532 22.7775 0.0477174 22.7825 0.0504233C22.789 0.0539618 22.7952 0.0580726 22.8015 0.0619754C22.8067 0.0652016 22.8121 0.0681676 22.8171 0.071602C22.8223 0.0750884 22.8272 0.0791474 22.8322 0.082842C22.8382 0.0873171 22.8443 0.0915842 22.85 0.0963715C22.8541 0.099858 22.858 0.103761 22.8621 0.107403C22.8683 0.113023 22.8746 0.118643 22.8805 0.124679C22.8813 0.12546 22.8821 0.126084 22.8829 0.126865C22.8861 0.130143 22.8888 0.133785 22.8919 0.137168C22.8973 0.143152 22.9027 0.149084 22.9078 0.15538C22.9119 0.160376 22.9155 0.165579 22.9193 0.170731C22.9236 0.176507 22.9278 0.182231 22.9317 0.188216C22.9355 0.19394 22.9389 0.199768 22.9423 0.205596C22.9457 0.211424 22.9492 0.2172 22.9523 0.223184C22.9555 0.229272 22.9583 0.235465 22.9612 0.241657C22.964 0.247797 22.9669 0.253885 22.9694 0.260182C22.9719 0.266374 22.9741 0.27267 22.9763 0.278967C22.9786 0.285523 22.9809 0.292028 22.9828 0.298741C22.9847 0.305141 22.9862 0.311594 22.9878 0.318046C22.9894 0.324759 22.991 0.331419 22.9923 0.338184C22.9936 0.345157 22.9945 0.35213 22.9955 0.359103C22.9964 0.365555 22.9974 0.371904 22.998 0.37846C22.9987 0.386318 22.9989 0.394175 22.9992 0.402033C22.9994 0.406716 23 0.411347 23 0.416135V15.8187C23 15.8325 22.9993 15.8463 22.9979 15.86C22.9973 15.8659 22.9962 15.8717 22.9954 15.8775C22.9943 15.8851 22.9934 15.8927 22.9919 15.9003C22.9906 15.9071 22.9887 15.9138 22.987 15.9205C22.9854 15.927 22.984 15.9334 22.982 15.9398C22.98 15.9464 22.9776 15.9528 22.9752 15.9593C22.973 15.9656 22.9709 15.972 22.9683 15.9783C22.9658 15.9843 22.9629 15.9901 22.9601 15.996C22.9571 16.0024 22.9542 16.0089 22.9508 16.0152C22.9478 16.0207 22.9444 16.0261 22.9411 16.0315C22.9375 16.0378 22.9339 16.044 22.9299 16.0501C22.9259 16.056 22.9215 16.0615 22.9173 16.0672C22.9134 16.0724 22.9098 16.0777 22.9056 16.0828C22.8977 16.0925 22.8893 16.1017 22.8806 16.1106C22.8797 16.1114 22.879 16.1124 22.8781 16.1133C22.8771 16.1143 22.8759 16.1151 22.8749 16.1162C22.8662 16.1247 22.8572 16.133 22.8477 16.1408C22.8427 16.1449 22.8374 16.1484 22.8323 16.1523C22.8266 16.1566 22.8209 16.1611 22.815 16.1651C22.809 16.1691 22.8028 16.1726 22.7966 16.1762C22.7911 16.1795 22.7857 16.183 22.78 16.186C22.7738 16.1893 22.7674 16.1921 22.761 16.1952C22.7551 16.198 22.7492 16.2009 22.743 16.2035C22.737 16.206 22.7307 16.2081 22.7245 16.2103C22.7179 16.2126 22.7114 16.2152 22.7046 16.2173C22.6984 16.2192 22.6921 16.2205 22.6859 16.2221C22.6789 16.2238 22.6721 16.2258 22.6651 16.2272C22.6579 16.2286 22.6506 16.2295 22.6433 16.2305C22.6372 16.2314 22.6311 16.2325 22.6249 16.2331C22.6111 16.2344 22.5974 16.2352 22.5837 16.2352H0.416237C0.4025 16.2352 0.388815 16.2344 0.375128 16.2331C0.36904 16.2325 0.363056 16.2314 0.356968 16.2305C0.34963 16.2295 0.34219 16.2286 0.334906 16.2271ZM22.1674 1.39785L15.3474 7.99382L22.1674 14.8139V1.39785ZM11.5 10.5565L21.5545 0.832425H1.44552L11.5 10.5565ZM14.7488 8.57272L11.7894 11.4349C11.7855 11.4386 11.7813 11.4419 11.7774 11.4454C11.7725 11.4498 11.7676 11.4542 11.7627 11.4583C11.7568 11.4631 11.7508 11.4674 11.7448 11.4718C11.7395 11.4756 11.7343 11.4796 11.7289 11.4832C11.7227 11.4873 11.7163 11.4909 11.7099 11.4947C11.7045 11.4979 11.6991 11.5012 11.6935 11.5041C11.6868 11.5077 11.6799 11.5108 11.673 11.5139C11.6676 11.5164 11.6622 11.5191 11.6567 11.5213C11.6493 11.5243 11.6417 11.5267 11.6342 11.5293C11.629 11.5311 11.6239 11.5331 11.6187 11.5346C11.6105 11.5371 11.6022 11.5389 11.5939 11.5408C11.5892 11.5419 11.5844 11.5433 11.5796 11.5442C11.5703 11.546 11.5608 11.5472 11.5514 11.5484C11.5476 11.5488 11.5438 11.5496 11.54 11.55C11.5267 11.5512 11.5134 11.5519 11.5 11.5519H11.5C11.4867 11.5519 11.4733 11.5512 11.46 11.55C11.4561 11.5496 11.4523 11.5488 11.4485 11.5483C11.4391 11.5472 11.4297 11.546 11.4204 11.5442C11.4154 11.5432 11.4106 11.5419 11.4058 11.5407C11.3976 11.5388 11.3894 11.5371 11.3814 11.5347C11.376 11.5331 11.3708 11.531 11.3655 11.5293C11.358 11.5267 11.3506 11.5243 11.3433 11.5214C11.3377 11.5191 11.3323 11.5164 11.3268 11.5139C11.32 11.5107 11.3131 11.5077 11.3065 11.5042C11.3008 11.5012 11.2953 11.4978 11.2898 11.4946C11.2836 11.4909 11.2773 11.4873 11.2712 11.4832C11.2656 11.4796 11.2602 11.4756 11.2549 11.4716C11.2491 11.4673 11.2432 11.463 11.2375 11.4584C11.2323 11.4542 11.2274 11.4496 11.2223 11.4451C11.2185 11.4416 11.2144 11.4385 11.2106 11.4349L8.25119 8.57272L1.42127 15.4026H21.5787L14.7488 8.57272ZM7.65256 7.99382L0.832529 1.39785V14.8138L7.65256 7.99382Z" fill="#68C2D0"/>
</svg>
