<svg width="6" height="10" viewBox="0 0 6 10" fill="none" xmlns="http://www.w3.org/2000/svg">
<path d="M0.418713 0C0.335878 1.58486e-05 0.254908 0.0220482 0.186044 0.0633106C0.117181 0.104573 0.063516 0.163212 0.0318369 0.231812C0.000157703 0.300411 -0.00811283 0.37589 0.00807135 0.448703C0.0242555 0.521516 0.0641673 0.588392 0.122759 0.640873L4.98896 5.00237L0.122759 9.36386C0.0464711 9.43466 0.00425808 9.52948 0.00521228 9.6279C0.00616649 9.72632 0.0502116 9.82046 0.127861 9.89006C0.20551 9.95965 0.310551 9.99913 0.42036 9.99999C0.530168 10.0008 0.635959 9.96301 0.714946 9.89463L5.87738 5.26763C5.95589 5.19724 6 5.10178 6 5.00224C6 4.90271 5.95589 4.80725 5.87738 4.73686L0.714946 0.109857C0.676037 0.0750059 0.62985 0.0473662 0.579022 0.0285168C0.528193 0.0096673 0.47372 -2.23375e-05 0.418713 0Z" fill="#C4C4C4"/>
</svg>
