<svg width="23" height="21" viewBox="0 0 23 21" fill="none" xmlns="http://www.w3.org/2000/svg">
<path d="M3.83333 21H19.1667V19.25H23V14C23 11.4476 21.149 9.28331 18.6084 8.56581C19.8064 7.86538 20.6042 6.64213 20.6042 5.25C20.6042 3.07912 18.6698 1.3125 16.2917 1.3125C15.882 1.3125 15.4756 1.3685 15.0789 1.47569C14.2006 0.573125 12.9236 0 11.5 0C10.0764 0 8.79942 0.573125 7.9211 1.47569C7.52435 1.3685 7.11802 1.3125 6.70833 1.3125C4.33023 1.3125 2.39583 3.07912 2.39583 5.25C2.39583 6.64213 3.19365 7.86538 4.39156 8.56581C1.85102 9.28331 0 11.4476 0 14V19.25H3.83333V21ZM18.2083 20.125H4.79167V19.25V13.5625C4.79167 13.4164 4.80173 13.272 4.81563 13.1289C4.82042 13.0821 4.82665 13.0357 4.8324 12.9889C4.84533 12.8901 4.8621 12.7925 4.88175 12.6958C4.89181 12.6468 4.89996 12.5974 4.91146 12.5488C4.94117 12.4233 4.97615 12.2999 5.01592 12.1778C5.03604 12.1174 5.06 12.0588 5.08252 11.9993C5.1084 11.9302 5.13571 11.8619 5.16494 11.7941C5.19321 11.7289 5.22292 11.6642 5.25406 11.6003C5.28473 11.5377 5.31827 11.4765 5.35181 11.4152C5.40069 11.326 5.45244 11.2385 5.50706 11.1523C5.55498 11.0775 5.6029 11.0027 5.65465 10.9305C5.6949 10.8745 5.73802 10.8203 5.78067 10.7656C5.82571 10.7078 5.87219 10.6509 5.9201 10.5954C5.96419 10.5442 6.00827 10.4934 6.05475 10.444C6.11512 10.3797 6.1779 10.3176 6.24162 10.2563C6.30056 10.1994 6.36094 10.1434 6.42275 10.0892C6.49894 10.0227 6.57608 9.9575 6.65658 9.89494C6.70929 9.85425 6.76392 9.81531 6.81854 9.77637C6.88131 9.73175 6.94456 9.688 7.00973 9.646C7.0701 9.60662 7.13048 9.56769 7.19325 9.5305C7.2565 9.49288 7.32167 9.45831 7.38635 9.42331C7.50854 9.35725 7.63408 9.29556 7.76298 9.23825C7.82767 9.20937 7.8914 9.17919 7.95752 9.1525L8.03467 9.121C8.6595 8.88256 9.34423 8.75 10.0625 8.75H12.9375C13.6558 8.75 14.3405 8.88256 14.9649 9.12144L15.042 9.15294C15.1081 9.17919 15.1719 9.20981 15.2365 9.23869C15.3654 9.296 15.491 9.35769 15.6132 9.42375C15.6783 9.45875 15.7435 9.49331 15.8063 9.53094C15.8686 9.56812 15.9294 9.60706 15.9898 9.64644C16.0545 9.68844 16.1182 9.73219 16.181 9.77681C16.2356 9.81575 16.2902 9.85469 16.3429 9.89538C16.4234 9.9575 16.5006 10.0231 16.5768 10.0896C16.6391 10.1439 16.699 10.1999 16.7579 10.2568C16.8216 10.318 16.8849 10.3801 16.9448 10.4444C16.9908 10.4939 17.0353 10.5446 17.0794 10.5958C17.1273 10.6514 17.1738 10.7082 17.2189 10.766C17.2615 10.8207 17.3051 10.8745 17.3449 10.9309C17.3966 11.0031 17.445 11.0779 17.4925 11.1528C17.5471 11.2389 17.5988 11.3269 17.6477 11.4157C17.6813 11.4769 17.7148 11.5382 17.7455 11.6007C17.7771 11.6646 17.8063 11.7294 17.8346 11.7946C17.8638 11.8619 17.8906 11.9306 17.917 11.9998C17.9395 12.0593 17.9635 12.1183 17.9836 12.1783C18.0239 12.2999 18.0588 12.4237 18.0881 12.5492C18.0996 12.5978 18.1082 12.6472 18.1178 12.6962C18.1369 12.7929 18.1542 12.8909 18.1671 12.9894C18.1734 13.0358 18.1796 13.0826 18.1839 13.1294C18.1983 13.272 18.2083 13.4164 18.2083 13.5625V19.25V20.125ZM22.0417 14V18.375H19.1667V13.5625C19.1667 13.3547 19.1528 13.1499 19.1288 12.9478C19.1231 12.9001 19.112 12.8537 19.1053 12.8065C19.0823 12.6503 19.0555 12.495 19.0191 12.3432C19.0071 12.2933 18.9908 12.2452 18.9774 12.1957C18.9371 12.0474 18.8926 11.9009 18.8399 11.7574C18.8221 11.7088 18.8015 11.6616 18.7824 11.6139C18.7258 11.4726 18.664 11.3334 18.596 11.1978C18.572 11.1501 18.5466 11.1029 18.5208 11.0561C18.4494 10.9235 18.3727 10.7944 18.2903 10.668C18.2601 10.6216 18.2299 10.5752 18.1978 10.5293C18.1115 10.4055 18.02 10.2856 17.9242 10.1684C17.8892 10.1255 17.8557 10.0822 17.8193 10.0402C17.7143 9.919 17.6027 9.80306 17.4872 9.69019C17.4546 9.65825 17.4244 9.62456 17.3909 9.5935C17.2395 9.45175 17.0813 9.31612 16.9146 9.18969C19.7546 9.25925 22.0417 11.3903 22.0417 14ZM15.6798 2.24044C15.882 2.20544 16.0861 2.1875 16.2917 2.1875C18.1408 2.1875 19.6458 3.56125 19.6458 5.25C19.6458 6.93875 18.1408 8.3125 16.2917 8.3125C15.6338 8.3125 15.0008 8.1375 14.4584 7.812C14.4656 7.80719 14.4713 7.80106 14.478 7.79581C14.8906 7.49613 15.2461 7.13563 15.5317 6.72919C15.5408 6.71606 15.549 6.70294 15.5581 6.68981C15.641 6.56906 15.7171 6.44481 15.7871 6.31662C15.7986 6.29562 15.8091 6.27462 15.8202 6.25362C15.8839 6.13244 15.9409 6.00819 15.9922 5.88088C16.0027 5.85463 16.0138 5.82837 16.0238 5.80212C16.0703 5.68006 16.1101 5.55538 16.1446 5.4285C16.1532 5.397 16.1633 5.36594 16.1709 5.33444C16.2016 5.21062 16.2246 5.08462 16.2433 4.95687C16.2485 4.92319 16.2562 4.88994 16.26 4.85581C16.2802 4.69831 16.2917 4.53775 16.2917 4.375C16.2917 4.20175 16.2778 4.032 16.2562 3.864C16.2495 3.81062 16.2385 3.75813 16.2294 3.70475C16.2092 3.5875 16.1853 3.47156 16.1556 3.35737C16.1412 3.30181 16.1259 3.24669 16.1091 3.192C16.0703 3.06556 16.0248 2.94175 15.974 2.82056C15.9596 2.78688 15.9481 2.75231 15.9332 2.71906C15.8604 2.55719 15.7775 2.40056 15.6846 2.24875C15.6822 2.24569 15.6812 2.24306 15.6798 2.24044ZM14.4531 2.14594L14.4823 2.1805C14.5058 2.20719 14.5269 2.23519 14.5494 2.26231C14.7938 2.55587 14.9807 2.87569 15.112 3.213C15.1206 3.23487 15.1302 3.25631 15.1383 3.27863C15.1953 3.43569 15.2385 3.59625 15.2706 3.75987C15.2773 3.794 15.2825 3.829 15.2878 3.86356C15.3146 4.032 15.3333 4.20219 15.3333 4.375C15.3333 4.5185 15.3214 4.66025 15.3022 4.80069C15.2979 4.8335 15.2912 4.86587 15.2859 4.89869C15.2663 5.01462 15.2418 5.12925 15.2097 5.24169C15.203 5.26531 15.1968 5.28938 15.1896 5.313C15.1029 5.59475 14.9792 5.86513 14.8201 6.11713C14.8173 6.1215 14.8144 6.12587 14.8115 6.13025C14.7344 6.25144 14.6481 6.36825 14.5552 6.48025C14.5465 6.49031 14.5384 6.50081 14.5298 6.51131C14.3348 6.74187 14.1076 6.95056 13.8522 7.13256C13.8374 7.14306 13.8216 7.15313 13.8067 7.16363C13.6884 7.24544 13.5647 7.32156 13.4354 7.39112C13.4124 7.40337 13.3908 7.41694 13.3673 7.42875L13.3127 7.45762C12.7722 7.72362 12.1555 7.875 11.5 7.875C10.8445 7.875 10.2278 7.72362 9.68779 7.45762L9.63317 7.42875C9.61017 7.41694 9.58812 7.40337 9.56512 7.39112C9.43575 7.32156 9.31212 7.24544 9.19377 7.16363C9.17844 7.15313 9.1631 7.14306 9.14825 7.13256C8.89333 6.95056 8.66621 6.74187 8.47071 6.51131C8.46208 6.50125 8.45394 6.49075 8.44531 6.48025C8.35235 6.36825 8.26658 6.25144 8.18896 6.13025C8.18608 6.12587 8.18321 6.1215 8.18033 6.11713C8.02077 5.86469 7.89715 5.59431 7.81042 5.31256C7.80323 5.28937 7.797 5.26531 7.79029 5.24213C7.75819 5.12925 7.73375 5.01462 7.7141 4.89869C7.70883 4.86587 7.70213 4.83394 7.69781 4.80069C7.67865 4.66025 7.66667 4.5185 7.66667 4.375C7.66667 4.20219 7.68535 4.032 7.71219 3.864C7.71794 3.82944 7.72273 3.79488 7.72944 3.76031C7.76154 3.59713 7.80467 3.43613 7.86169 3.27906C7.86983 3.25675 7.87942 3.23531 7.88804 3.21344C8.01933 2.87613 8.20621 2.55587 8.45058 2.26275C8.4731 2.23562 8.49419 2.20719 8.51767 2.18094L8.5469 2.14638C9.25079 1.37025 10.3131 0.875 11.5 0.875C12.6869 0.875 13.7492 1.37025 14.4531 2.14594ZM3.35417 5.25C3.35417 3.56125 4.85923 2.1875 6.70833 2.1875C6.9139 2.1875 7.11802 2.20544 7.32023 2.24044C7.31879 2.24306 7.31735 2.24612 7.31592 2.24875C7.22344 2.40012 7.14006 2.55675 7.06723 2.71863C7.0519 2.75231 7.0404 2.78688 7.02602 2.821C6.97523 2.94219 6.92971 3.066 6.8909 3.192C6.87412 3.24669 6.85879 3.30181 6.84442 3.35737C6.81471 3.47156 6.79075 3.5875 6.77063 3.70475C6.76152 3.75769 6.75098 3.81019 6.74379 3.864C6.72223 4.032 6.70833 4.20175 6.70833 4.375C6.70833 4.53775 6.71983 4.69831 6.739 4.85625C6.74331 4.89038 6.75098 4.92319 6.75577 4.95687C6.77446 5.08462 6.79794 5.21106 6.82812 5.33488C6.83579 5.36638 6.84585 5.397 6.85448 5.42806C6.88898 5.55494 6.92875 5.68006 6.97523 5.80256C6.98529 5.82925 6.99631 5.85506 7.00685 5.88175C7.05812 6.00863 7.11562 6.13288 7.17887 6.25406C7.1899 6.27506 7.20092 6.2965 7.21242 6.3175C7.28237 6.44569 7.35856 6.56994 7.44146 6.69069C7.45056 6.70381 7.45871 6.71694 7.46781 6.73006C7.7534 7.1365 8.10942 7.49656 8.5215 7.79669C8.52821 7.80194 8.53444 7.80762 8.54115 7.81287C7.99921 8.1375 7.36623 8.3125 6.70833 8.3125C4.85923 8.3125 3.35417 6.93875 3.35417 5.25ZM0.958333 18.375V14C0.958333 11.3903 3.2454 9.25925 6.0859 9.18925C5.91915 9.31569 5.76102 9.45175 5.6096 9.59306C5.57606 9.62412 5.54587 9.65781 5.51329 9.68975C5.39781 9.80263 5.28617 9.91856 5.18075 10.0402C5.14481 10.0817 5.11127 10.1251 5.07629 10.1679C4.97998 10.2852 4.88846 10.4051 4.80221 10.5293C4.77058 10.5752 4.7404 10.6212 4.70973 10.668C4.62731 10.7944 4.55065 10.9235 4.47925 11.0561C4.45385 11.1033 4.42846 11.1501 4.40402 11.1978C4.3355 11.3334 4.27417 11.4726 4.21763 11.6139C4.19846 11.662 4.17785 11.7088 4.16012 11.7574C4.10742 11.9013 4.06285 12.0479 4.02212 12.1966C4.00871 12.2456 3.9929 12.2937 3.98092 12.3432C3.9445 12.4954 3.91767 12.6507 3.89467 12.8074C3.88748 12.8546 3.87694 12.9006 3.87119 12.9482C3.84723 13.1499 3.83333 13.3547 3.83333 13.5625V18.375H0.958333Z" fill="#68C2D0"/>
</svg>
