<svg width="26" height="22" viewBox="0 0 26 22" fill="none" xmlns="http://www.w3.org/2000/svg">
<path d="M9.41135 16.5583C9.02566 15.8913 8.49972 15.382 7.90365 14.9212C7.29589 14.4361 6.6297 13.9511 5.90507 13.6964C5.23888 13.466 4.40906 13.563 3.74287 13.7692C3.10005 13.9753 2.64424 14.3876 2.3988 15.0667C2.15336 15.7458 2.09492 16.4128 2.62086 16.9585C3.11174 17.4556 3.82468 17.7709 4.47919 17.8316C4.67788 17.8437 5.19213 17.8801 5.33238 17.6982C5.49601 17.492 5.44926 16.9099 5.39082 16.6674C5.25057 16.0126 4.61944 15.4669 4.07012 16.0126C3.52081 16.5825 2.7728 15.5639 3.32212 15.0061C3.92987 14.3876 4.86488 14.3513 5.56613 14.8242C6.26739 15.3093 6.60633 16.1945 6.60633 17.0555C6.60633 17.9407 6.33751 18.7289 5.49601 18.9836C4.68956 19.2261 3.80131 19.0685 3.02993 18.7168C2.3053 18.3773 1.60404 17.8437 1.23004 17.0676C0.84435 16.2672 0.996289 15.285 1.30017 14.4968C1.96636 12.7506 3.75456 12.1806 5.39082 12.2898C6.40764 12.3625 7.34265 12.9688 8.17246 13.563C8.97891 14.1572 9.78535 14.8363 10.3113 15.7458C10.732 16.4613 9.80872 17.2737 9.41135 16.5583Z" fill="white" stroke="#68C2D0" stroke-width="0.7" stroke-miterlimit="10"/>
<path d="M24.2663 9.31876C24.1144 7.76657 23.2846 6.56605 22.4314 6.63881C22.3262 6.65094 22.221 6.67519 22.1158 6.72369C21.0522 4.8926 19.264 3.53443 17.1603 3.04937C16.5525 2.79472 15.0799 2.52794 14.6591 1.4123C14.589 1.2304 14.5656 1.07276 14.5539 1C14.3319 1.07276 13.8761 1.25466 13.467 1.71546C13.0813 2.15201 12.9294 2.62495 12.8709 2.84322C12.7774 2.80684 12.5554 2.68558 12.3801 2.43092C12.1814 2.12776 12.1814 1.81247 12.1814 1.71546C12.0061 1.89736 11.784 2.12776 11.597 2.44305C11.2464 3.04937 11.1879 3.67995 11.2113 4.15288C9.82048 5.08662 8.74522 6.46904 8.18422 8.09399C8.17253 8.10611 8.14915 8.11824 8.13747 8.13036C7.98553 8.09399 7.84528 8.09399 7.69334 8.13036C7.20246 8.2395 6.80508 8.70031 6.58302 9.39152C6.36095 10.0706 6.30252 10.968 6.46614 11.9017C6.62977 12.8354 6.99208 13.6479 7.42452 14.1815C7.86865 14.715 8.3829 14.9939 8.87378 14.8848C9.09585 15.382 9.29454 15.6366 9.6101 15.5639C11.036 17.0918 13.1631 17.9771 15.5123 17.9771C19.3108 17.9771 22.3379 16.1338 23.0274 12.2412C23.869 12.1806 24.4183 10.8588 24.2663 9.31876Z" fill="white" stroke="#68C2D0" stroke-width="0.7" stroke-miterlimit="10"/>
<path d="M22.0223 11.938C21.847 11.1256 21.3328 10.4586 20.5847 9.98568C20.7951 9.35511 20.8653 8.62752 20.7367 7.89993C20.3977 6.05671 18.9368 4.89257 17.4759 5.28062C16.6694 5.49889 16.0266 6.14159 15.6643 6.99045C15.0098 6.4205 14.1449 6.17797 13.2683 6.40838C11.6905 6.8328 10.662 8.6639 11.0009 10.5071C11.1529 11.356 11.5736 12.0472 12.1229 12.5201C11.9009 13.0779 11.8308 13.6721 11.9593 14.2421C12.3918 16.2672 14.9864 17.395 17.768 16.7644C20.5497 16.1217 22.4548 13.9632 22.0223 11.938Z" fill="white" stroke="#68C2D0" stroke-width="0.7" stroke-miterlimit="10"/>
<path d="M19.4509 14.3633C19.3574 14.4846 18.3172 15.6851 16.4939 15.6609C15.1849 15.6366 13.9577 14.9939 13.3032 13.9874C13.5603 14.2057 14.694 15.1152 16.4706 15.1758C18.0484 15.2364 19.147 14.5695 19.4509 14.3633Z" fill="#68C2D0"/>
<path d="M16.2019 12.8112C16.2954 12.8597 16.6227 13.0173 17.0434 12.9203C17.4642 12.8233 17.6979 12.5323 17.768 12.4474C17.546 12.5323 17.2888 12.6172 16.9967 12.6899C16.7045 12.7505 16.4357 12.7869 16.2019 12.8112Z" fill="#68C2D0"/>
<path d="M23.2377 10.8588C23.3079 10.8224 23.4014 10.8709 23.4014 10.9801L23.7637 18.0862C23.7637 18.1468 23.7403 18.2075 23.6936 18.2196L17.6277 21.3603C17.6043 21.3725 17.5809 21.3725 17.5459 21.3603L11.1177 19.0927C11.071 19.0806 11.0359 19.0321 11.0359 18.9593L10.6736 11.8532C10.6736 11.8047 10.6853 11.7562 10.7203 11.7319C10.7437 11.7077 10.7905 11.6955 10.8255 11.7077L17.2303 14.0238C17.2771 14.0359 17.3355 14.0359 17.3823 14.0117L23.2377 10.8588Z" fill="white" stroke="#68C2D0" stroke-width="0.7" stroke-miterlimit="10"/>
<path d="M17.4408 20.948L17.1252 14.6059L17.5927 14.4604L17.8616 20.6934L17.4408 20.948Z" fill="white"/>
<path d="M12.7424 17.5283C12.7541 18.074 12.0762 18.5227 11.2231 18.5348C10.3699 18.547 9.68029 18.1225 9.66861 17.589C9.65692 17.0433 10.3348 16.5946 11.188 16.5825C12.0412 16.5703 12.7424 16.9948 12.7424 17.5283Z" fill="white" stroke="#68C2D0" stroke-width="0.7" stroke-miterlimit="10"/>
<path d="M12.9879 16.3764C12.9996 17.007 12.2048 17.5284 11.2114 17.5527C10.2179 17.5769 9.41147 17.0676 9.39979 16.4491C9.3881 15.8186 10.1829 15.2971 11.1763 15.2729C12.1581 15.2486 12.9762 15.7458 12.9879 16.3764Z" fill="white" stroke="#68C2D0" stroke-width="0.7" stroke-miterlimit="10"/>
<path d="M12.4501 15.3092C12.4617 15.8428 11.7839 16.3036 10.9307 16.3157C10.0775 16.3278 9.38791 15.9034 9.37622 15.3698C9.37622 15.3456 9.37622 15.3213 9.37622 15.2971C9.42297 14.7878 10.0775 14.3755 10.8956 14.3634C11.7488 14.3512 12.4384 14.7757 12.4501 15.3092Z" fill="white" stroke="#68C2D0" stroke-width="0.7" stroke-miterlimit="10"/>
<path d="M21.6949 15.9641C21.73 16.4977 22.4429 16.8979 23.2961 16.8372C24.1493 16.7766 24.8038 16.2915 24.7688 15.758C24.7337 15.2244 24.0208 14.8242 23.1676 14.8849C22.3261 14.9455 21.6599 15.4306 21.6949 15.9641Z" fill="white" stroke="#68C2D0" stroke-width="0.7" stroke-miterlimit="10"/>
<path d="M21.3677 14.8363C21.4145 15.4669 22.2443 15.9155 23.2261 15.8549C24.2195 15.7821 24.9792 15.2122 24.9441 14.5937C24.9091 13.9632 24.0676 13.5145 23.0858 13.5751C22.0924 13.6358 21.321 14.2057 21.3677 14.8363Z" fill="white" stroke="#68C2D0" stroke-width="0.7" stroke-miterlimit="10"/>
<path d="M21.7067 13.7328C21.7417 14.2785 22.4547 14.6665 23.3079 14.6059C24.1611 14.5453 24.8156 14.0602 24.7805 13.5267C24.7805 13.5024 24.7805 13.4781 24.7688 13.4539C24.6753 12.9567 23.9857 12.605 23.1793 12.6657C22.3261 12.7021 21.6716 13.1871 21.7067 13.7328Z" fill="white" stroke="#68C2D0" stroke-width="0.7" stroke-miterlimit="10"/>
<path d="M15.0448 10.7133C15.1149 11.2832 14.7759 11.7925 14.2851 11.8532C13.7942 11.9259 13.3501 11.5136 13.2799 10.9558C13.2098 10.3859 13.5488 9.87654 14.0396 9.81591C14.5305 9.74315 14.9863 10.1433 15.0448 10.7133Z" fill="#68C2D0"/>
<path d="M14.0629 10.2161C14.098 10.4586 13.946 10.6648 13.7473 10.7012C13.537 10.7254 13.35 10.5556 13.3266 10.3252C13.2915 10.0827 13.4435 9.87656 13.6422 9.84018C13.8525 9.8038 14.0395 9.97357 14.0629 10.2161Z" fill="white"/>
<path d="M19.5794 9.74316C19.6496 10.3131 19.3106 10.8224 18.8197 10.883C18.3289 10.9558 17.8847 10.5435 17.8146 9.98569C17.7445 9.41574 18.0834 8.90643 18.5626 8.8458C19.0652 8.77304 19.5093 9.18534 19.5794 9.74316Z" fill="#68C2D0"/>
<path d="M18.6796 9.14902C18.7147 9.39155 18.5627 9.5977 18.364 9.63408C18.1537 9.65833 17.9667 9.48856 17.9433 9.25816C17.9082 9.01563 18.0602 8.80948 18.2588 8.7731C18.4575 8.73672 18.6562 8.90649 18.6796 9.14902Z" fill="white"/>
</svg>
