<svg width="6" height="10" viewBox="0 0 6 10" fill="none" xmlns="http://www.w3.org/2000/svg">
<path d="M5.58129 10C5.66412 9.99998 5.74509 9.97795 5.81396 9.93669C5.88282 9.89543 5.93648 9.83679 5.96816 9.76819C5.99984 9.69959 6.00811 9.62411 5.99193 9.5513C5.97574 9.47848 5.93583 9.41161 5.87724 9.35913L1.01104 4.99763L5.87724 0.636136C5.95353 0.565341 5.99574 0.470523 5.99479 0.372104C5.99383 0.273684 5.94979 0.179538 5.87214 0.109942C5.79449 0.0403462 5.68945 0.000869429 5.57964 1.41898e-05C5.46983 -0.00084105 5.36404 0.0369936 5.28505 0.105369L0.12262 4.73237C0.0441068 4.80276 0 4.89822 0 4.99776C0 5.09729 0.0441068 5.19275 0.12262 5.26314L5.28505 9.89014C5.32396 9.92499 5.37015 9.95263 5.42098 9.97148C5.47181 9.99033 5.52628 10 5.58129 10Z" fill="#C4C4C4"/>
</svg>
