<svg width="20" height="25" viewBox="0 0 20 25" fill="none" xmlns="http://www.w3.org/2000/svg">
<path d="M10.3439 12.5C9.20663 12.5 8.09493 12.1628 7.14935 11.531C6.20376 10.8991 5.46677 10.0011 5.03157 8.95043C4.59636 7.89976 4.48249 6.74362 4.70436 5.62823C4.92622 4.51284 5.47386 3.48829 6.27801 2.68414C7.08216 1.87999 8.10671 1.33235 9.22211 1.11049C10.3375 0.888622 11.4936 1.00249 12.5443 1.4377C13.595 1.8729 14.493 2.60989 15.1248 3.55547C15.7566 4.50106 16.0939 5.61276 16.0939 6.75C16.0939 8.275 15.4881 9.73753 14.4097 10.8159C13.3314 11.8942 11.8689 12.5 10.3439 12.5ZM10.3439 1.71875C9.34879 1.71875 8.37605 2.01383 7.54866 2.56667C6.72128 3.11951 6.07641 3.90529 5.69561 4.82463C5.3148 5.74397 5.21517 6.75558 5.4093 7.73155C5.60343 8.70752 6.08261 9.604 6.78624 10.3076C7.48988 11.0113 8.38636 11.4904 9.36233 11.6846C10.3383 11.8787 11.3499 11.7791 12.2692 11.3983C13.1886 11.0175 13.9744 10.3726 14.5272 9.54522C15.08 8.71783 15.3751 7.74509 15.3751 6.75C15.3751 5.41563 14.845 4.13591 13.9015 3.19237C12.958 2.24883 11.6782 1.71875 10.3439 1.71875Z" fill="#2F2F2F" stroke="#282828" stroke-width="0.2"/>
<path d="M18.9688 24H1.35938C1.26406 24 1.17265 23.9621 1.10526 23.8947C1.03786 23.8273 1 23.7359 1 23.6406V20.9453C1 18.5149 1.9655 16.1839 3.68409 14.4653C5.40269 12.7467 7.7336 11.7813 10.1641 11.7812C12.5945 11.7813 14.9254 12.7467 16.644 14.4653C18.3626 16.1839 19.3281 18.5149 19.3281 20.9453V23.6406C19.3281 23.7359 19.2903 23.8273 19.2229 23.8947C19.1555 23.9621 19.0641 24 18.9688 24ZM1.71875 23.2812H18.6094V20.9453C18.6094 18.7055 17.7196 16.5574 16.1358 14.9736C14.552 13.3898 12.4039 12.5 10.1641 12.5C7.92423 12.5 5.77613 13.3898 4.19232 14.9736C2.60852 16.5574 1.71875 18.7055 1.71875 20.9453V23.2812Z" fill="#2F2F2F" stroke="#282828" stroke-width="0.2"/>
</svg>
