<svg width="14" height="14" viewBox="0 0 14 14" fill="none" xmlns="http://www.w3.org/2000/svg">
<path d="M12.8279 12.2498C12.8281 12.2263 12.8281 12.2031 12.8281 12.18C12.8281 11.5659 12.7807 11.0051 12.6821 10.5004C12.585 10.003 12.4476 9.55758 12.2645 9.17053C12.079 8.77854 11.8366 8.43408 11.5359 8.14198C11.2494 7.8637 10.9373 7.63259 10.5992 7.45167C10.2578 7.26894 9.86761 7.13122 9.43487 7.03302C9.0144 6.93761 8.59082 6.87135 8.16429 6.83437C7.74316 6.79785 7.27132 6.78 6.75 6.78H5H4.5V7.28V9.52C4.5 9.53394 4.49881 9.54406 4.49618 9.55249L0.521406 5.10074C0.506113 5.08361 0.5 5.07164 0.5 5.04C0.5 5.00836 0.506113 4.99639 0.521406 4.97926L4.49618 0.527513C4.49881 0.53594 4.5 0.546062 4.5 0.56V2.8V3.3H5H6.75C8.56027 3.3 9.97107 3.58747 11.0149 4.12593C12.0447 4.65714 12.7369 5.44161 13.1149 6.49389C13.3659 7.20521 13.5 8.11555 13.5 9.24C13.5 9.97398 13.2859 10.9716 12.8279 12.2498ZM12.75 13.6939L12.75 13.6938L12.75 13.6939Z" stroke="white"/>
</svg>
