<svg width="22" height="22" viewBox="0 0 22 22" fill="none" xmlns="http://www.w3.org/2000/svg">
<g clip-path="url(#clip0)">
<path d="M0.203836 18.4708L9.69817 2.02613C10.2769 1.02371 11.7229 1.02332 12.3019 2.02613L21.7962 18.4708C22.3748 19.4728 21.6526 20.7257 20.4944 20.7257H1.5057C0.34864 20.7257 -0.375298 19.4738 0.203836 18.4708ZM1.5057 19.4372H20.4944C20.6595 19.4372 20.7637 19.2593 20.6803 19.115L11.186 2.6704C11.1034 2.52732 10.8973 2.52611 10.814 2.6704L1.31969 19.1151C1.23693 19.2584 1.33941 19.4372 1.5057 19.4372Z" fill="#F3967C"/>
<path d="M10.5817 17.5813C10.2155 17.355 10.1021 16.8745 10.3285 16.5083C10.5549 16.142 11.0353 16.0286 11.4015 16.255C11.7678 16.4814 11.8812 16.9618 11.6548 17.3281C11.4284 17.6943 10.948 17.8077 10.5817 17.5813Z" fill="#F3967C"/>
<path d="M10.9917 15.0058C10.6358 15.0058 10.3474 14.7174 10.3474 14.3615V6.9973C10.3474 6.64148 10.6358 6.35303 10.9917 6.35303C11.3475 6.35303 11.6359 6.64148 11.6359 6.9973V14.3615C11.6359 14.7174 11.3475 15.0058 10.9917 15.0058Z" fill="#F3967C"/>
</g>
<defs>
<clipPath id="clip0">
<rect width="22" height="22" fill="white" transform="matrix(-1 0 0 1 22 0)"/>
</clipPath>
</defs>
</svg>
