<svg width="19" height="18" viewBox="0 0 19 18" fill="none" xmlns="http://www.w3.org/2000/svg">
<path d="M9.93558 0.791083L12.1724 4.75967C12.3865 5.13944 12.7552 5.4073 13.1825 5.49352L17.6481 6.39454C18.0299 6.47158 18.1809 6.9363 17.9173 7.22305L14.8341 10.5768C14.5391 10.8977 14.3983 11.3311 14.4483 11.7642L14.9714 16.2896C15.0161 16.6766 14.6208 16.9638 14.2666 16.8017L10.1242 14.9058C9.72785 14.7244 9.27215 14.7244 8.87576 14.9058L4.73342 16.8017C4.37924 16.9638 3.98392 16.6766 4.02864 16.2896L4.55166 11.7642C4.60171 11.3311 4.46089 10.8977 4.16585 10.5768L1.08273 7.22305C0.819114 6.9363 0.970112 6.47158 1.35193 6.39454L5.81751 5.49352C6.24483 5.4073 6.61351 5.13944 6.82756 4.75968L9.06442 0.791083C9.25568 0.451761 9.74432 0.451761 9.93558 0.791083Z" stroke="#A6A0A0"/>
</svg>
