<svg width="23" height="16" viewBox="0 0 23 16" fill="none" xmlns="http://www.w3.org/2000/svg">
<path d="M11.4108 0.549327L11.4325 0.537783L11.4529 0.524176C11.4751 0.509397 11.4894 0.503546 11.4959 0.501379C11.4978 0.500756 11.4991 0.50039 11.5 0.50018C11.5009 0.50039 11.5022 0.500756 11.5041 0.501379C11.5106 0.503546 11.5249 0.509397 11.5471 0.524176L11.5675 0.537783L11.5892 0.549327L22.3791 6.30394C22.4673 6.36788 22.5 6.4361 22.5 6.52508C22.5 6.61406 22.4673 6.68228 22.3791 6.74622L11.5892 12.5008L11.5643 12.5141C11.5561 12.5141 11.5468 12.5141 11.536 12.5141C11.4975 12.5141 11.4762 12.514 11.4584 12.5133C11.4449 12.5128 11.4395 12.5121 11.4383 12.5119C11.4379 12.5118 11.4372 12.5116 11.436 12.5112C11.4321 12.5098 11.4223 12.5061 11.4042 12.4973L0.620946 6.74622C0.532654 6.68228 0.5 6.61406 0.5 6.52508C0.5 6.4361 0.532655 6.36788 0.620948 6.30394L11.4108 0.549327Z" stroke="#68C2D0"/>
<path d="M11.536 12.7931C11.943 12.7931 12.41 12.7151 12.81 12.4306L18.246 9.58613V11.5721C18.246 12.423 17.5542 13.3731 16.2635 14.144C15.0002 14.8986 13.2866 15.3981 11.536 15.3981C9.78531 15.3981 8.07176 14.8986 6.80843 14.144C5.51776 13.3731 4.82593 12.423 4.82593 11.5721V9.58613L10.2619 12.4306C10.6619 12.7151 11.129 12.7931 11.536 12.7931Z" stroke="#68C2D0"/>
</svg>
