<svg width="10" height="17" viewBox="0 0 10 17" fill="none" xmlns="http://www.w3.org/2000/svg">
<path d="M9.11509 16.3464C9.24553 16.3464 9.37303 16.3116 9.48146 16.2466C9.5899 16.1815 9.6744 16.089 9.72428 15.9808C9.77417 15.8726 9.78719 15.7536 9.7617 15.6387C9.73622 15.5239 9.67337 15.4184 9.58111 15.3357L1.9186 8.45706L9.58111 1.57846C9.70124 1.46681 9.76771 1.31727 9.76621 1.16205C9.7647 1.00683 9.69535 0.858348 9.57308 0.748587C9.45081 0.638826 9.28541 0.576567 9.1125 0.575218C8.93959 0.573869 8.77301 0.633539 8.64863 0.741376L0.519663 8.03872C0.396032 8.14974 0.32658 8.30028 0.32658 8.45726C0.32658 8.61424 0.396032 8.76479 0.519663 8.8758L8.64863 16.1731C8.7099 16.2281 8.78263 16.2717 8.86266 16.3014C8.9427 16.3312 9.02848 16.3464 9.11509 16.3464Z" fill="#0E80A4"/>
</svg>
