<svg width="10" height="17" viewBox="0 0 10 17" fill="none" xmlns="http://www.w3.org/2000/svg">
<path d="M9.11534 16.1211C9.24577 16.121 9.37327 16.0863 9.48171 16.0212C9.59014 15.9561 9.67464 15.8637 9.72453 15.7555C9.77441 15.6473 9.78743 15.5282 9.76195 15.4134C9.73646 15.2986 9.67362 15.1931 9.58136 15.1103L1.91884 8.23172L9.58136 1.35312C9.70148 1.24147 9.76795 1.09193 9.76645 0.936706C9.76495 0.781486 9.69559 0.633006 9.57332 0.523245C9.45105 0.413484 9.28565 0.351225 9.11274 0.349876C8.93983 0.348527 8.77325 0.408197 8.64888 0.516034L0.519907 7.81338C0.396277 7.92439 0.326824 8.07494 0.326824 8.23192C0.326824 8.3889 0.396277 8.53944 0.519907 8.65046L8.64888 15.9478C8.71014 16.0028 8.78287 16.0464 8.86291 16.0761C8.94294 16.1058 9.02872 16.1211 9.11534 16.1211Z" fill="#68C2D0"/>
</svg>
