<svg width="17" height="19" viewBox="0 0 17 19" fill="none" xmlns="http://www.w3.org/2000/svg">
<path d="M6.62345 16.6427C5.25939 16.6397 3.89548 16.6336 2.53158 16.6247C1.5272 16.6058 0.700485 15.461 1.10486 14.4716C1.33783 13.9014 1.92705 13.5039 2.55064 13.4999H3.48923C3.48923 11.9175 3.48455 10.3352 3.48939 8.75285C3.5083 6.74707 4.75048 4.81207 6.59673 3.96957L6.61423 3.96176C6.61423 3.43145 6.59064 2.85723 6.75142 2.42473C7.06595 1.57957 7.89111 0.994415 8.82892 1.00004C9.96892 1.02129 10.9816 2.0077 10.9892 3.18645V3.96176C11.0253 3.97801 11.0614 3.99457 11.0972 4.0116C12.8928 4.87207 14.1081 6.77738 14.1142 8.7852V13.4999C14.6489 13.4999 15.2081 13.425 15.6775 13.6304C16.5789 14.0247 16.8985 15.3721 16.1956 16.1269C15.9088 16.4347 15.4967 16.6168 15.0719 16.6247C13.7175 16.6336 12.363 16.6396 11.0086 16.6427C10.9895 16.8608 10.8928 17.105 10.8086 17.2854C10.5041 17.9379 9.82064 18.3863 9.08252 18.4004C8.67048 18.403 8.25705 18.4207 7.88173 18.2832C7.19892 18.0333 6.69658 17.3747 6.62345 16.6427ZM10.3267 16.7811H7.27673C7.41611 17.3369 7.94158 17.7641 8.52892 17.7754C8.85908 17.7775 9.18705 17.8091 9.49189 17.7018C9.89986 17.558 10.2211 17.2024 10.3267 16.7811ZM8.78236 1.62504C7.97048 1.6402 7.24439 2.34254 7.23923 3.18832V4.16863C7.22205 4.42879 7.13392 4.41551 6.88095 4.52707C5.25986 5.25363 4.13158 6.93754 4.11423 8.75676V13.8124C4.11423 13.8124 4.04892 14.1086 3.80173 14.1249C2.9508 14.1249 1.95236 13.9997 1.67502 14.7293C1.46517 15.2814 1.90861 15.9799 2.52736 15.9996C6.70955 16.0786 10.8939 16.0788 15.0761 15.9996C15.782 15.9772 16.2756 14.9875 15.7303 14.4157C15.5558 14.2324 15.3072 14.1266 15.0506 14.1249H13.8017C13.6327 14.1138 13.5041 14.0397 13.4892 13.8124C13.4892 12.1271 13.4942 10.4419 13.4891 8.7566C13.4725 6.92629 12.3055 5.16395 10.5597 4.45832C10.5597 4.45832 10.3785 4.3841 10.3642 4.16863C10.3642 3.45395 10.426 2.6916 9.99814 2.18238C9.69767 1.82488 9.28064 1.62207 8.78236 1.62504Z" fill="white" stroke="white" stroke-width="0.3"/>
</svg>
