<svg width="18" height="14" viewBox="0 0 18 14" fill="none" xmlns="http://www.w3.org/2000/svg">
<path d="M14.4503 1.1272L5.85613 9.72174L1.70613 5.57174C1.62755 5.49584 1.52229 5.45384 1.41305 5.45479C1.3038 5.45574 1.19929 5.49956 1.12204 5.57682C1.04479 5.65407 1.00097 5.75857 1.00002 5.86782C0.999066 5.97707 1.04106 6.08232 1.11696 6.16091L5.56155 10.6055C5.60022 10.6442 5.64614 10.6749 5.69669 10.6959C5.74724 10.7168 5.80141 10.7276 5.85613 10.7276C5.91084 10.7276 5.96502 10.7168 6.01557 10.6959C6.06611 10.6749 6.11204 10.6442 6.15071 10.6055L15.0395 1.71637C15.0793 1.67793 15.111 1.63196 15.1328 1.58112C15.1547 1.53029 15.1662 1.47561 15.1666 1.42029C15.1671 1.36496 15.1566 1.3101 15.1356 1.25889C15.1147 1.20768 15.0837 1.16116 15.0446 1.12204C15.0055 1.08292 14.959 1.05198 14.9078 1.03103C14.8566 1.01008 14.8017 0.999535 14.7464 1.00002C14.6911 1.0005 14.6364 1.01199 14.5855 1.03383C14.5347 1.05567 14.4887 1.08741 14.4503 1.1272V1.1272Z" fill="white" stroke="white" stroke-width="0.4"/>
<path d="M16.9726 4.1272L8.37843 12.7217L7.70614 12.1596C7.62756 12.0837 7.52231 12.0417 7.41306 12.0427C7.30381 12.0436 7.19931 12.0875 7.12205 12.1647C7.0448 12.242 7.00098 12.3465 7.00003 12.4557C6.99908 12.565 7.04108 12.6702 7.11698 12.7488L8.08384 13.6055C8.12252 13.6442 8.16844 13.6749 8.21899 13.6959C8.26954 13.7168 8.32371 13.7276 8.37843 13.7276C8.43314 13.7276 8.48732 13.7168 8.53787 13.6959C8.58841 13.6749 8.63434 13.6442 8.67301 13.6055L17.5618 4.71637C17.6016 4.67793 17.6333 4.63196 17.6551 4.58112C17.677 4.53029 17.6885 4.47561 17.689 4.42029C17.6894 4.36496 17.6789 4.3101 17.6579 4.25889C17.637 4.20768 17.606 4.16116 17.5669 4.12204C17.5278 4.08292 17.4813 4.05198 17.4301 4.03103C17.3789 4.01008 17.324 3.99953 17.2687 4.00002C17.2134 4.0005 17.1587 4.01199 17.1078 4.03383C17.057 4.05567 17.011 4.08741 16.9726 4.1272Z" fill="white" stroke="white" stroke-width="0.4"/>
</svg>
