<svg width="15" height="11" viewBox="0 0 15 11" fill="none" xmlns="http://www.w3.org/2000/svg">
<path d="M13.872 0.760992L5.27782 9.35553L1.12782 5.20553C1.04924 5.12963 0.943987 5.08763 0.834738 5.08858C0.725489 5.08953 0.620984 5.13335 0.543731 5.21061C0.466477 5.28786 0.422657 5.39236 0.421708 5.50161C0.420758 5.61086 0.462756 5.71611 0.538655 5.7947L4.98324 10.2393C5.02191 10.278 5.06784 10.3087 5.11838 10.3297C5.16893 10.3506 5.22311 10.3614 5.27782 10.3614C5.33254 10.3614 5.38671 10.3506 5.43726 10.3297C5.48781 10.3087 5.53373 10.278 5.5724 10.2393L14.4612 1.35016C14.5009 1.31172 14.5327 1.26575 14.5545 1.21491C14.5764 1.16408 14.5879 1.1094 14.5883 1.05408C14.5888 0.998751 14.5783 0.943885 14.5573 0.892678C14.5364 0.841471 14.5054 0.79495 14.4663 0.755828C14.4272 0.716706 14.3807 0.685767 14.3295 0.664817C14.2783 0.643866 14.2234 0.633324 14.1681 0.633805C14.1127 0.634286 14.0581 0.64578 14.0072 0.667617C13.9564 0.689454 13.9104 0.721196 13.872 0.760992V0.760992Z" fill="white" stroke="white" stroke-width="0.4"/>
</svg>
