<svg width="19" height="19" viewBox="0 0 19 19" fill="none" xmlns="http://www.w3.org/2000/svg">
<circle cx="9.5" cy="9.5" r="9.5" fill="#89B65D"/>
<path d="M14.3423 5.89843L7.81078 12.4303L4.65678 9.27628C4.59705 9.2186 4.51706 9.18668 4.43403 9.1874C4.351 9.18812 4.27158 9.22143 4.21287 9.28014C4.15415 9.33885 4.12085 9.41827 4.12013 9.5013C4.11941 9.58433 4.15133 9.66432 4.20901 9.72405L7.58689 13.102C7.61629 13.1314 7.65119 13.1547 7.6896 13.1706C7.72802 13.1865 7.76919 13.1947 7.81078 13.1947C7.85236 13.1947 7.89353 13.1865 7.93195 13.1706C7.97036 13.1547 8.00527 13.1314 8.03466 13.102L14.7901 6.3462C14.8204 6.31699 14.8445 6.28204 14.8611 6.24341C14.8777 6.20478 14.8864 6.16322 14.8868 6.12118C14.8871 6.07913 14.8791 6.03743 14.8632 5.99851C14.8473 5.9596 14.8238 5.92424 14.794 5.89451C14.7643 5.86477 14.7289 5.84126 14.69 5.82534C14.6511 5.80942 14.6094 5.8014 14.5674 5.80177C14.5253 5.80214 14.4838 5.81087 14.4451 5.82747C14.4065 5.84406 14.3716 5.86819 14.3423 5.89843V5.89843Z" fill="white" stroke="white" stroke-width="0.4"/>
</svg>
