<svg width="19" height="19" viewBox="0 0 19 19" fill="none" xmlns="http://www.w3.org/2000/svg">
<circle cx="9.5" cy="9.5" r="9.5" fill="#BAE78E"/>
<path d="M14.3427 5.89831L7.81114 12.4302L4.65714 9.27616C4.59742 9.21848 4.51743 9.18656 4.4344 9.18728C4.35137 9.188 4.27195 9.2213 4.21323 9.28002C4.15452 9.33873 4.12122 9.41815 4.1205 9.50118C4.11977 9.58421 4.15169 9.6642 4.20938 9.72393L7.58726 13.1018C7.61665 13.1313 7.65155 13.1546 7.68997 13.1705C7.72838 13.1864 7.76956 13.1946 7.81114 13.1946C7.85272 13.1946 7.8939 13.1864 7.93232 13.1705C7.97073 13.1546 8.00563 13.1313 8.03502 13.1018L14.7905 6.34608C14.8207 6.31687 14.8448 6.28192 14.8614 6.24329C14.878 6.20465 14.8868 6.1631 14.8871 6.12105C14.8875 6.07901 14.8795 6.03731 14.8636 5.99839C14.8476 5.95947 14.8241 5.92412 14.7944 5.89439C14.7647 5.86465 14.7293 5.84114 14.6904 5.82522C14.6515 5.80929 14.6098 5.80128 14.5677 5.80165C14.5257 5.80201 14.4841 5.81075 14.4455 5.82735C14.4069 5.84394 14.3719 5.86807 14.3427 5.89831V5.89831Z" fill="white" stroke="white" stroke-width="0.4"/>
</svg>
