<svg width="13" height="21" viewBox="0 0 13 21" fill="none" xmlns="http://www.w3.org/2000/svg">
<path d="M5.64645 16.6036C5.84171 16.7988 6.15829 16.7988 6.35355 16.6036L9.53553 13.4216C9.7308 13.2263 9.7308 12.9097 9.53553 12.7145C9.34027 12.5192 9.02369 12.5192 8.82843 12.7145L6 15.5429L3.17157 12.7145C2.97631 12.5192 2.65973 12.5192 2.46447 12.7145C2.2692 12.9097 2.2692 13.2263 2.46447 13.4216L5.64645 16.6036ZM5.5 2.18557e-08L5.5 16.25L6.5 16.25L6.5 -2.18557e-08L5.5 2.18557e-08Z" fill="#2F2F2F"/>
<line x1="4.37114e-08" y1="20.5" x2="13" y2="20.5" stroke="#2F2F2F" stroke-linejoin="round"/>
</svg>
