<svg width="18" height="22" viewBox="0 0 18 22" fill="none" xmlns="http://www.w3.org/2000/svg">
<path d="M13.6536 3.52564C13.6536 3.48539 13.6408 3.44856 13.6202 3.4173C13.6197 3.41645 13.6192 3.41561 13.6187 3.41481C13.6124 3.40548 13.6053 3.39705 13.5975 3.38896C13.5964 3.38782 13.5956 3.38643 13.5944 3.38529L11.2672 1.05807C11.2587 1.04963 11.2495 1.04233 11.2398 1.03563C11.237 1.03365 11.234 1.03196 11.2311 1.03017C11.2238 1.02561 11.2162 1.02159 11.2084 1.01806C11.2052 1.01663 11.2021 1.01514 11.1988 1.0139C11.1884 1.00978 11.1777 1.0064 11.1668 1.00417C11.1663 1.00412 11.1659 1.00392 11.1655 1.00382C11.1541 1.00159 11.1425 1.00065 11.1309 1.0004C11.1296 1.0004 11.1282 1 11.1268 1H4.99565C4.46656 1 4.03613 1.43048 4.03613 1.95951V7.87327C4.03613 7.9829 4.12502 8.07179 4.23465 8.07179H13.4541C13.5637 8.07179 13.6526 7.9829 13.6526 7.87327V3.53551C13.6528 3.53219 13.6536 3.52901 13.6536 3.52564ZM11.3254 1.67767L12.1501 2.50245L12.9748 3.32717H11.6188C11.457 3.32717 11.3254 3.19556 11.3254 3.03372V1.67767V1.67767ZM4.43316 7.67466V1.95941C4.43316 1.64924 4.68547 1.39693 4.99565 1.39693H10.9284V3.03367C10.9284 3.41437 11.238 3.72415 11.6188 3.72415H13.2555V7.67466H4.43316V7.67466Z" fill="#2F2F2F" stroke="#2F2F2F" stroke-width="0.5"/>
<path d="M14.023 14.9837H3.72694C3.60128 14.9837 3.49939 14.8818 3.49939 14.7561C3.49939 14.6305 3.60128 14.5286 3.72694 14.5286H14.0229C14.1485 14.5286 14.2504 14.6305 14.2504 14.7561C14.2505 14.8818 14.1486 14.9837 14.023 14.9837Z" fill="#2F2F2F" stroke="#2F2F2F" stroke-width="0.5"/>
<path d="M15.6482 7.67468H2.04499C1.16925 7.67468 0.456787 8.38715 0.456787 9.26294V15.5281C0.456787 16.4038 1.16925 17.1163 2.04499 17.1163H4.04045V20.6161C4.04045 20.8868 4.14586 21.1413 4.33728 21.3326C4.52869 21.5241 4.78314 21.6294 5.05381 21.6294H12.6441C13.2025 21.6294 13.6571 21.1751 13.6575 20.6167L13.6598 17.1163H15.6482C16.5239 17.1163 17.2364 16.4038 17.2364 15.5281V9.26294C17.2364 8.38715 16.5239 7.67468 15.6482 7.67468ZM13.2604 20.6165C13.2601 20.9561 12.9837 21.2324 12.6441 21.2324H5.05381C4.88919 21.2324 4.7344 21.1683 4.61802 21.0519C4.50164 20.9355 4.43747 20.7807 4.43747 20.6161V14.9547H13.2641L13.2604 20.6165ZM16.8393 15.528C16.8393 16.1848 16.3049 16.7192 15.6482 16.7192H13.6599L13.6611 14.7562C13.6612 14.7036 13.6403 14.6531 13.6031 14.6158C13.5659 14.5786 13.5153 14.5576 13.4626 14.5576H4.23896C4.12933 14.5576 4.04045 14.6465 4.04045 14.7561V16.7192H2.04499C1.38816 16.7192 0.853814 16.1848 0.853814 15.528V12.5656H16.8393V15.528ZM16.8393 12.1685H0.853764V9.26294C0.853764 8.60611 1.38816 8.07171 2.04494 8.07171H15.6481C16.3049 8.07171 16.8393 8.60611 16.8393 9.26294V12.1685H16.8393Z" fill="#2F2F2F" stroke="#2F2F2F" stroke-width="0.5"/>
</svg>
