<svg width="19" height="19" viewBox="0 0 19 19" fill="none" xmlns="http://www.w3.org/2000/svg">
<path d="M9.5 19C14.7467 19 19 14.7467 19 9.5C19 4.25329 14.7467 0 9.5 0C4.25329 0 0 4.25329 0 9.5C0 14.7467 4.25329 19 9.5 19Z" fill="#FCCC53"/>
<path d="M9.49999 14.0227C8.68915 14.0262 7.89382 13.8006 7.20556 13.372C6.51731 12.9433 5.96412 12.3289 5.6097 11.5996C5.58876 11.5592 5.57611 11.5149 5.57249 11.4695C5.56887 11.4241 5.57436 11.3784 5.58862 11.3352C5.60289 11.2919 5.62565 11.2519 5.65557 11.2176C5.68549 11.1832 5.72197 11.1552 5.76286 11.1351C5.80376 11.115 5.84825 11.1033 5.89373 11.1007C5.93921 11.098 5.98476 11.1045 6.02772 11.1197C6.07067 11.1348 6.11016 11.1585 6.14387 11.1891C6.17758 11.2197 6.20483 11.2568 6.22403 11.2981C6.525 11.9103 6.99146 12.4258 7.57051 12.7864C8.14955 13.1469 8.81803 13.338 9.50016 13.338C10.1823 13.338 10.8508 13.1469 11.4298 12.7864C12.0089 12.4258 12.4753 11.9103 12.7763 11.2981C12.7955 11.2568 12.8227 11.2197 12.8564 11.1891C12.8902 11.1585 12.9296 11.1348 12.9726 11.1197C13.0155 11.1045 13.0611 11.098 13.1066 11.1007C13.1521 11.1033 13.1966 11.115 13.2375 11.1351C13.2783 11.1552 13.3148 11.1832 13.3447 11.2176C13.3747 11.2519 13.3974 11.2919 13.4117 11.3352C13.426 11.3784 13.4314 11.4241 13.4278 11.4695C13.4242 11.5149 13.4116 11.5592 13.3906 11.5996C13.0362 12.329 12.4829 12.9434 11.7946 13.372C11.1063 13.8007 10.3109 14.0263 9.49999 14.0227V14.0227Z" fill="#858B8C"/>
<path d="M11.472 9.47428C11.4138 9.4744 11.3566 9.45969 11.3057 9.43155C11.2548 9.4034 11.2119 9.36275 11.1811 9.31343C11.1502 9.26411 11.1325 9.20774 11.1295 9.14966C11.1265 9.09157 11.1383 9.03368 11.1639 8.98145C11.3567 8.58922 11.6555 8.25886 12.0265 8.02782C12.3974 7.79678 12.8257 7.67432 13.2627 7.67432C13.6998 7.67432 14.1281 7.79678 14.499 8.02782C14.87 8.25886 15.1688 8.58922 15.3616 8.98145C15.4012 9.06287 15.407 9.15668 15.3776 9.24234C15.3482 9.32799 15.2861 9.39851 15.2048 9.43845C15.1235 9.47838 15.0297 9.48448 14.944 9.4554C14.8582 9.42632 14.7875 9.36444 14.7472 9.28331C14.6108 9.006 14.3994 8.77245 14.137 8.60912C13.8747 8.4458 13.5718 8.35923 13.2627 8.35923C12.9537 8.35923 12.6508 8.4458 12.3884 8.60912C12.1261 8.77245 11.9147 9.006 11.7783 9.28331C11.7501 9.34052 11.7065 9.38872 11.6523 9.42246C11.5982 9.4562 11.5357 9.47415 11.472 9.47428Z" fill="#858B8C"/>
<path d="M7.52803 9.47436C7.46388 9.47448 7.40099 9.45658 7.34653 9.4227C7.29207 9.38881 7.24823 9.3403 7.22001 9.2827C7.08358 9.00539 6.8722 8.77184 6.60983 8.60851C6.34745 8.44518 6.04458 8.35862 5.73552 8.35862C5.42647 8.35862 5.12359 8.44518 4.86122 8.60851C4.59885 8.77184 4.38747 9.00539 4.25104 9.2827C4.21082 9.36383 4.14007 9.42571 4.05431 9.45479C3.96855 9.48387 3.87476 9.47777 3.79349 9.43784C3.71221 9.3979 3.65008 9.32738 3.62069 9.24173C3.59131 9.15607 3.59707 9.06226 3.63671 8.98084C3.82947 8.58861 4.12827 8.25825 4.49924 8.02721C4.87021 7.79617 5.29849 7.67371 5.73552 7.67371C6.17255 7.67371 6.60084 7.79617 6.97181 8.02721C7.34278 8.25825 7.64158 8.58861 7.83433 8.98084C7.85992 9.03307 7.87178 9.09096 7.86879 9.14905C7.86579 9.20713 7.84805 9.2635 7.81722 9.31282C7.7864 9.36214 7.74351 9.40279 7.69261 9.43094C7.64171 9.45908 7.58448 9.47379 7.52631 9.47367L7.52803 9.47436Z" fill="#858B8C"/>
</svg>
