<svg width="19" height="19" viewBox="0 0 19 19" fill="none" xmlns="http://www.w3.org/2000/svg">
<path d="M9.5 19C14.7467 19 19 14.7467 19 9.5C19 4.25329 14.7467 0 9.5 0C4.25329 0 0 4.25329 0 9.5C0 14.7467 4.25329 19 9.5 19Z" fill="#FCCC53"/>
<path d="M9.49986 14.0232C8.68903 14.0267 7.8937 13.8011 7.20544 13.3724C6.51719 12.9438 5.964 12.3294 5.60958 11.6001C5.58864 11.5597 5.57599 11.5154 5.57237 11.47C5.56875 11.4246 5.57423 11.3789 5.5885 11.3357C5.60277 11.2924 5.62552 11.2524 5.65544 11.2181C5.68537 11.1837 5.72184 11.1557 5.76274 11.1356C5.80364 11.1155 5.84813 11.1038 5.89361 11.1012C5.93909 11.0985 5.98464 11.105 6.0276 11.1202C6.07055 11.1353 6.11004 11.1589 6.14375 11.1896C6.17746 11.2202 6.20471 11.2573 6.22391 11.2986C6.52488 11.9107 6.99133 12.4263 7.57038 12.7869C8.14943 13.1474 8.81791 13.3385 9.50004 13.3385C10.1822 13.3385 10.8506 13.1474 11.4297 12.7869C12.0087 12.4263 12.4752 11.9107 12.7762 11.2986C12.7954 11.2573 12.8226 11.2202 12.8563 11.1896C12.89 11.1589 12.9295 11.1353 12.9725 11.1202C13.0154 11.105 13.061 11.0985 13.1065 11.1012C13.1519 11.1038 13.1964 11.1155 13.2373 11.1356C13.2782 11.1557 13.3147 11.1837 13.3446 11.2181C13.3745 11.2524 13.3973 11.2924 13.4116 11.3357C13.4258 11.3789 13.4313 11.4246 13.4277 11.47C13.4241 11.5154 13.4114 11.5597 13.3905 11.6001C13.036 12.3295 12.4828 12.9438 11.7945 13.3725C11.1062 13.8012 10.3108 14.0268 9.49986 14.0232V14.0232Z" fill="#090A0A"/>
<path d="M11.4728 9.47477C11.4147 9.47489 11.3574 9.46018 11.3065 9.43203C11.2556 9.40389 11.2127 9.36324 11.1819 9.31392C11.1511 9.26459 11.1333 9.20823 11.1303 9.15014C11.1273 9.09206 11.1392 9.03417 11.1648 8.98194C11.3575 8.58971 11.6563 8.25934 12.0273 8.02831C12.3983 7.79727 12.8266 7.6748 13.2636 7.6748C13.7006 7.6748 14.1289 7.79727 14.4999 8.02831C14.8709 8.25934 15.1697 8.58971 15.3624 8.98194C15.4021 9.06336 15.4078 9.15717 15.3784 9.24282C15.3491 9.32848 15.2869 9.399 15.2056 9.43894C15.1244 9.47887 15.0306 9.48497 14.9448 9.45589C14.8591 9.42681 14.7883 9.36493 14.7481 9.2838C14.6117 9.00649 14.4003 8.77293 14.1379 8.60961C13.8755 8.44628 13.5727 8.35972 13.2636 8.35972C12.9545 8.35972 12.6517 8.44628 12.3893 8.60961C12.1269 8.77293 11.9156 9.00649 11.7791 9.2838C11.7509 9.34101 11.7073 9.38921 11.6532 9.42295C11.5991 9.45669 11.5366 9.47464 11.4728 9.47477Z" fill="#090A0A"/>
<path d="M7.66902 9.0621C7.66902 9.06211 7.66903 9.06212 7.66903 9.06214L7.66902 9.0621ZM7.52755 8.97448L7.52739 8.97529L7.52739 8.97448C7.52744 8.97448 7.5275 8.97448 7.52755 8.97448ZM7.22037 9.28282C7.08394 9.00551 6.87256 8.77196 6.61019 8.60863C6.34782 8.44531 6.04494 8.35874 5.73589 8.35874C5.42684 8.35874 5.12396 8.44531 4.86159 8.60863C4.59922 8.77196 4.38784 9.00551 4.25141 9.28282H7.22037Z" fill="#090A0A" stroke="#0A0909"/>
</svg>
