<svg width="30" height="21" fill="none" xmlns="http://www.w3.org/2000/svg"><path d="M.683 20.99l-.026-.007-.025-.006-.025-.009-.025-.01c-.008-.002-.015-.006-.022-.01a.15.15 0 01-.026-.012c-.007-.003-.013-.008-.02-.012L.49 20.91l-.02-.015-.022-.016a.506.506 0 01-.028-.026l-.012-.01-.01-.012-.025-.027-.017-.023-.014-.02-.016-.025-.011-.02a.126.126 0 01-.013-.026l-.01-.021-.01-.026-.008-.024-.007-.026-.006-.025-.004-.03-.004-.022a.551.551 0 01-.002-.054V.52L.253.49.255.464.26.437.265.412A.49.49 0 01.29.336L.3.313.313.288.324.267A.53.53 0 01.338.243L.354.222.369.2A.504.504 0 01.39.179L.4.164.405.161.427.14.444.124.466.108l.02-.016.02-.01L.53.064.55.056C.56.052.57.046.58.043l.025-.01.023-.008.027-.007.024-.006L.7.008.73.003.75.002A.585.585 0 01.785 0h28.681l.033.002.02.001.03.005.023.003.024.007.027.007.021.008.028.01.027.013.02.01.024.014.02.013.02.014.023.018.016.014.024.022.003.003c.004.004.007.01.011.013l.02.024.016.02.016.022.013.023c.005.007.01.015.013.023l.012.024a.511.511 0 01.01.024l.01.024a.547.547 0 01.014.05l.006.026.004.027c.001.009.003.017.003.026L30 .52v19.941a.53.53 0 01-.003.054l-.003.022-.004.03-.007.026-.006.025-.009.025-.009.025-.01.023-.013.024c-.003.008-.008.015-.012.022l-.015.024-.016.022-.015.02a.525.525 0 01-.032.036c-.002 0-.003.002-.004.003l-.004.004a.59.59 0 01-.035.032l-.02.015-.022.016-.024.015c-.007.004-.014.009-.022.012l-.024.012-.023.011-.024.009-.026.009-.024.006-.027.007-.028.004-.024.003a.56.56 0 01-.053.003H.788c-.018 0-.035 0-.053-.003-.008 0-.016-.002-.023-.003l-.029-.004zm28.24-19.182l-8.822 8.532 8.822 8.822V1.808zM15.125 13.655L28.13 1.077H2.12l13.005 12.578zm4.202-2.566L15.5 14.79l-.015.014-.02.016-.023.018-.02.014c-.008.006-.016.01-.025.015l-.02.012c-.01.005-.018.01-.027.013l-.021.01-.03.01-.02.007-.032.008-.018.004a.574.574 0 01-.037.006l-.014.002a.557.557 0 01-.103 0l-.016-.002-.036-.006-.019-.004-.031-.008-.021-.007-.029-.01-.021-.01-.027-.013-.021-.012-.024-.015-.021-.015-.023-.017-.02-.017-.014-.013-3.828-3.702-8.835 8.834h26.074l-8.835-8.834zm-9.179-.75L1.327 1.81v17.35l8.821-8.821z" fill="#fff"/></svg>