<svg width="22" height="24" fill="none" xmlns="http://www.w3.org/2000/svg"><path d="M16.912 8.538c0 3.37-2.682 6.039-5.912 6.039s-5.912-2.668-5.912-6.039C5.088 5.168 7.77 2.5 11 2.5s5.912 2.668 5.912 6.038z" stroke="#fff" stroke-width="5"/><path fill="#fff" d="M0 6.462h22V24H0z"/><path d="M11.001 21.12a5.694 5.694 0 01-2.972-.82 5.48 5.48 0 01-2.067-2.233.423.423 0 01.198-.586.454.454 0 01.494.068.432.432 0 01.104.138c.39.77.994 1.42 1.744 1.875a4.83 4.83 0 002.5.695 4.82 4.82 0 002.499-.695 4.648 4.648 0 001.744-1.875.432.432 0 01.254-.225.455.455 0 01.482.123.425.425 0 01.06.482 5.48 5.48 0 01-2.068 2.233 5.693 5.693 0 01-2.972.82zm2.555-5.732a.454.454 0 01-.377-.202.424.424 0 01-.023-.419c.25-.494.637-.91 1.118-1.201a3.093 3.093 0 011.601-.446c.566 0 1.121.155 1.602.446.48.29.867.707 1.117 1.201a.42.42 0 01.02.33.435.435 0 01-.223.246.455.455 0 01-.338.021.44.44 0 01-.255-.216 2.107 2.107 0 00-.79-.85 2.187 2.187 0 00-2.265 0c-.34.206-.614.5-.79.85a.451.451 0 01-.397.24zm-5.11.001a.452.452 0 01-.399-.242 2.106 2.106 0 00-.79-.85 2.188 2.188 0 00-2.265 0c-.34.207-.614.5-.79.85a.44.44 0 01-.255.217.455.455 0 01-.338-.021.435.435 0 01-.224-.247.42.42 0 01.02-.33c.25-.493.637-.91 1.118-1.2a3.093 3.093 0 011.601-.446c.566 0 1.121.154 1.602.445.48.291.867.708 1.117 1.202a.421.421 0 01-.022.418.44.44 0 01-.377.203h.002z" fill="#369CB7"/></svg>