<svg width="11" height="13" fill="none" xmlns="http://www.w3.org/2000/svg"><path d="M.15 13V.31h5.815c1.356 0 2.4.294 3.132.882.744.588 1.116 1.392 1.116 2.412 0 .672-.168 1.254-.504 1.746-.336.48-.804.84-1.404 1.08.72.204 1.272.564 1.656 1.08.396.516.594 1.152.594 1.908 0 1.128-.396 2.01-1.188 2.646-.78.624-1.848.936-3.204.936H.15zm2.665-7.47h2.664c1.368 0 2.052-.528 2.052-1.584 0-1.044-.684-1.566-2.052-1.566H2.815v3.15zm0 5.4h2.97c.72 0 1.248-.138 1.584-.414.336-.276.504-.696.504-1.26 0-.552-.168-.966-.504-1.242-.336-.276-.864-.414-1.584-.414h-2.97v3.33z" fill="#2F2F2F"/></svg>