<svg width="20" height="19" fill="none" xmlns="http://www.w3.org/2000/svg"><g clip-path="url(#clip0)"><path fill-rule="evenodd" clip-rule="evenodd" d="M4.343 3.265h.742v2.597h.52v.668H3.824v-.668h.52v-1.78l-.298.296-.37-.37.667-.743zm3.191.594h8.905v1.78H7.534V3.86zm8.905 4.749H7.534v1.78h8.905v-1.78zm-.074 4.823H7.46v1.781h8.905v-1.78zm-12.86-.554a2.304 2.304 0 011.102-.262c.296 0 .594.065.83.217a.9.9 0 01.434.77.866.866 0 01-.247.62.91.91 0 01.278.657c0 .38-.247.639-.484.782a1.61 1.61 0 01-.811.22c-.426 0-.859-.154-1.228-.372l.36-.593c.26.153.567.222.868.222.158 0 .347-.04.466-.111.079-.048.1-.1.106-.128a.234.234 0 00.002-.095.29.29 0 00-.108-.148.419.419 0 00-.206-.074 1.497 1.497 0 00-.348-.017 5.25 5.25 0 01-.403.017h-.005v-.705h.005c.067 0 .133-.004.209-.008l.15-.008c.125-.01.25-.026.359-.045a.637.637 0 00.253-.096.166.166 0 00.05-.052.131.131 0 00.013-.066c0-.044-.014-.09-.094-.14a.855.855 0 00-.449-.105c-.308 0-.541.061-.779.184l-.322-.664zm1.119-4.269a.933.933 0 00-.437.113c-.125.062-.22.117-.305.192l-.446-.572c.152-.134.31-.22.452-.291a1.6 1.6 0 01.736-.184c.307 0 .608.077.844.237a.94.94 0 01.434.784c0 .612-.434 1.001-.945 1.059a6.652 6.652 0 00-.365.05 1.628 1.628 0 00-.264.06c-.154.063-.2.12-.216.145-.016.026-.033.072-.033.188h1.823v.742H3.379v-.742c0-.18.024-.394.146-.594.123-.2.314-.335.552-.431.112-.046.272-.078.404-.1.142-.025.292-.044.402-.056.222-.025.318-.156.318-.321 0-.036-.015-.094-.11-.159a.849.849 0 00-.467-.12z" fill="#2F2F2F"/></g><defs><clipPath id="clip0"><path fill="#fff" transform="translate(.41)" d="M0 0h18.997v18.997H0z"/></clipPath></defs></svg>