<svg width="19" height="19" fill="none" xmlns="http://www.w3.org/2000/svg"><path d="M5.556 14.582A3.543 3.543 0 013.05 8.534l2.4-2.4a3.549 3.549 0 015.013 0 3.55 3.55 0 010 5.012l-2.4 2.4a3.533 3.533 0 01-2.507 1.036zm2.4-8.374a2.422 2.422 0 00-1.72.711l-2.4 2.401a2.432 2.432 0 103.44 3.438l2.4-2.4a2.43 2.43 0 00-1.72-4.15z" fill="#2F2F2F"/><path d="M10.982 13.384c-.302 0-.603-.039-.895-.116a.556.556 0 01.282-1.075 2.432 2.432 0 002.332-.634l2.4-2.4a2.432 2.432 0 00-3.438-3.44l-2.4 2.401a2.443 2.443 0 00-.634 2.334.557.557 0 01-1.076.28 3.559 3.559 0 01.924-3.4l2.4-2.401a3.545 3.545 0 115.012 5.01l-2.4 2.4a3.522 3.522 0 01-2.507 1.04z" fill="#2F2F2F"/></svg>