<svg width="1280" height="720" fill="none" xmlns="http://www.w3.org/2000/svg"><mask id="a" maskUnits="userSpaceOnUse" x="-80" y="-2" width="1440" height="725"><path fill="#68C2D0" d="M-80-2h1440v725H-80z"/></mask><g mask="url(#a)"><path d="M1359.75-70H-113v957.955h1472.75V-70z" fill="#EDEDED"/><path opacity=".2" d="M1207.36 1338.67s59.13-260.05-340.275-349.951c-459.629-103.533-441.164-402.262-56.492-437.652C1197.9 515.457 1337.05 381.59 1013.7 127.043 663.539-148.385 1081.18-231.915 500.657-488L1696-74.747 1207.36 1338.67z" fill="url(#paint0_linear)"/><path opacity=".2" d="M1164.27 170.347c281.36 221.354 173.43 373.027-163.54 404.021-334.554 30.774-378.077 238.719-36.048 320.271 346.868 82.87 306.418 259.601 306.418 259.601L1696-74.747 656.505-434.145C1161.41-211.472 859.832-69.032 1164.27 170.347zm73.42 639.003c-141.56 133.208-481.61-.439-451.716-61.548 31.653-64.846 178.708 74.078 295.426-21.102 87.49-71.221 229.49 13.848 156.29 82.65zm231.9-682.966c-8.13 143.539-268.83 89.904-303.34-125.295-24.84-154.53-155.41-209.704-114.96-238.06 57.59-40.666 430.17 158.707 418.3 363.355z" fill="url(#paint1_linear)"/><path opacity=".2" d="M134.229 583.38C27.399 241.787 202.371 177.821 497.58 342.682c293.23 163.763 446.66 16.926 210.8-243.775-239.156-264.438-105.73-387.315-105.73-387.315l-850.896 81.772L-443 484.683 210.944 1369c-290.373-469.306 38.687-415.891-76.715-785.62zm554.808-231.026C476.038 357.41 296.89-.23 365.912-28.366c73.197-29.675 91.442 191.239 256.302 198.933 123.535 5.935 176.949 179.149 66.823 181.787zm-831.553 94.521c87.925-113.645 272.568 78.034 179.368 274.989-66.823 141.341 9.452 260.701-40.006 261.36-70.56 1.099-264.875-374.126-139.362-536.349zm20.443-581.412c-3.737-143.759 260.478-111.666 312.794 99.796 37.588 151.893 172.113 196.075 134.086 227.949-53.855 45.062-441.605-122.877-446.88-327.745z" fill="url(#paint2_linear)"/></g><defs><linearGradient id="paint0_linear" x1="439.994" y1="793.538" x2="899.912" y2="384.569" gradientUnits="userSpaceOnUse"><stop stop-color="#1895EE"/><stop offset=".092" stop-color="#229AEF" stop-opacity=".908"/><stop offset=".249" stop-color="#3EA6F1" stop-opacity=".75"/><stop offset=".454" stop-color="#6ABBF4" stop-opacity=".546"/><stop offset=".697" stop-color="#A8D7F9" stop-opacity=".303"/><stop offset=".969" stop-color="#F6FBFE" stop-opacity=".031"/><stop offset="1" stop-color="#fff" stop-opacity="0"/></linearGradient><linearGradient id="paint1_linear" x1="1472" y1="583.106" x2="787.154" y2="-39.055" gradientUnits="userSpaceOnUse"><stop stop-color="#1895EE"/><stop offset="1" stop-color="#fff" stop-opacity="0"/></linearGradient><linearGradient id="paint2_linear" x1="-75.224" y1="-48.191" x2="427.554" y2="565.634" gradientUnits="userSpaceOnUse"><stop stop-color="#1895EE"/><stop offset=".127" stop-color="#1C97EE" stop-opacity=".873"/><stop offset=".258" stop-color="#299DEF" stop-opacity=".742"/><stop offset=".392" stop-color="#3DA6F1" stop-opacity=".608"/><stop offset=".527" stop-color="#5AB4F3" stop-opacity=".473"/><stop offset=".663" stop-color="#80C5F6" stop-opacity=".337"/><stop offset=".8" stop-color="#AEDAF9" stop-opacity=".2"/><stop offset=".936" stop-color="#E3F2FD" stop-opacity=".064"/><stop offset="1" stop-color="#fff" stop-opacity="0"/></linearGradient></defs></svg>