<svg width="164" height="32" fill="none" xmlns="http://www.w3.org/2000/svg"><path d="M11.967 19.997c-.451-.747-1.06-1.307-1.741-1.823-.703-.534-1.472-1.085-2.309-1.362-.775-.255-1.73-.154-2.499.083-.743.229-1.277.69-1.558 1.445-.283.758-.35 1.503.263 2.102.562.549 1.392.906 2.153.966.228.018.823.058.984-.146.186-.234.128-.881.07-1.14-.165-.73-.9-1.337-1.522-.722-.641.632-1.503-.496-.867-1.122.7-.691 1.786-.735 2.595-.199.813.54 1.205 1.52 1.206 2.487 0 .989-.31 1.861-1.289 2.145-.937.272-1.96.101-2.849-.3-.84-.38-1.653-.97-2.082-1.833-.443-.89-.265-1.977.084-2.86.768-1.944 2.844-2.578 4.737-2.459 1.178.075 2.262.75 3.22 1.423.94.66 1.867 1.419 2.475 2.428.47.776-.599 1.67-1.071.887z" fill="#497FA0"/><path d="M29.165 11.937c.181 1.73-.47 3.2-1.457 3.279-.987.083-1.936-1.253-2.117-2.982-.182-1.729.47-3.195 1.457-3.278.987-.08 1.935 1.252 2.117 2.981z" fill="#0E80A4"/><path d="M10.04 13.51c0 4.839 4.058 8.079 8.99 8.079 4.931 0 8.758-2.577 8.862-8.078.092-4.835-3.997-8.76-8.925-8.76-4.931 0-8.928 3.922-8.928 8.76z" fill="#0E80A4"/><path d="M21.254 5.21c-.026-.438-2.59-.491-3.203-2.063a1.962 1.962 0 01-.115-.458 2.936 2.936 0 00-1.944 2.059 1.292 1.292 0 01-.8-1.259c-.22.184-.473.446-.687.8-.66 1.107-.426 2.285-.342 2.634 5.834-.886 7.111-1.4 7.091-1.713z" fill="#0E80A4"/><path d="M14.923 17.405c.496 2.259 3.506 3.515 6.72 2.806 3.218-.708 5.422-3.112 4.925-5.367-.496-2.258-3.506-3.514-6.724-2.806-3.211.705-5.419 3.11-4.921 5.367z" fill="#fff"/><path d="M13.816 13.255c.39 2.044 2.195 3.32 4.036 2.85 1.84-.47 3.018-2.509 2.629-4.553-.39-2.044-2.198-3.32-4.036-2.85-1.84.47-3.019 2.508-2.63 4.553z" fill="#fff"/><path d="M25.078 10.36c.39 2.044-.672 4.052-2.367 4.486-1.695.435-3.387-.872-3.774-2.916-.39-2.044.672-4.052 2.367-4.486 1.696-.435 3.385.868 3.774 2.916z" fill="#fff"/><path d="M11.363 18.14c-.573.118-1.176-.184-1.688-.786-.51-.602-.923-1.495-1.114-2.54-.191-1.044-.123-2.037.138-2.797.262-.762.715-1.282 1.289-1.4.573-.119 1.176.183 1.688.786.51.602.923 1.494 1.114 2.539.193 1.044.125 2.037-.136 2.798-.262.764-.715 1.284-1.29 1.4z" fill="#0E80A4" stroke="#fff" stroke-width=".7"/><path d="M9.931 14.732c1.259 2.528 1.442 4.41 2.3 4.164.86-.247 1.09-2.937.812-5.059-.277-2.122-2.151-3.568-2.448-3.271-.297 0-.94 2.044-.664 4.166zm13.658 2.823c-.113.13-1.308 1.466-3.423 1.437-1.517-.02-2.935-.737-3.697-1.862.29.238 1.612 1.26 3.67 1.327 1.838.061 3.099-.68 3.45-.902zm-3.759-1.739c.103.053.487.232.974.125.488-.107.761-.432.836-.523a6.527 6.527 0 01-1.81.398z" fill="#0E80A4"/><path d="M27.982 13.65c.078-.043.184.012.191.13l.426 7.9c.002.067-.032.129-.083.154L21.5 25.327h-.002a.11.11 0 01-.089.007h0l-7.442-2.523h0c-.053-.017-.093-.07-.098-.142l-.426-7.904a.165.165 0 01.054-.136.116.116 0 01.12-.026h.002l7.414 2.583h.001c.057.02.118.016.171-.012l6.776-3.525z" fill="#0E80A4" stroke="#fff" stroke-width=".8"/><path d="M21.26 24.868l-.366-7.06.54-.158.312 6.93-.486.288z" fill="#fff"/><path d="M14.14 14.43l-.038.336-.02-.02-.043-.315v-.26l5.481 2.178-5.347-1.938-.03-.011-.003.03zm13.471-.598l-.232-.701-5.452 3.38 5.459-2.992.02-.01.012.02.18.305h.014v-.002z" fill="#0E80A4" stroke="#fff" stroke-width=".4"/><path d="M15.833 21.074c.012.601-.777 1.1-1.76 1.118-.981.018-1.788-.454-1.8-1.056-.008-.601.777-1.1 1.76-1.119.985-.017 1.79.456 1.8 1.057z" fill="#0E80A4"/><path d="M15.143 21.086c.006.366-.476.672-1.077.684-.601.012-1.092-.28-1.1-.646-.006-.365.476-.672 1.076-.684.6-.009 1.091.28 1.1.646z" fill="#fff"/><path d="M16.106 19.783c.012.702-.907 1.285-2.052 1.306-1.149.02-2.085-.533-2.1-1.232-.011-.699.907-1.284 2.053-1.306 1.148-.02 2.087.533 2.099 1.232z" fill="#0E80A4"/><path d="M15.3 19.798c.007.429-.553.786-1.255.798-.702.012-1.275-.325-1.281-.753-.009-.428.553-.786 1.255-.798.698-.012 1.272.324 1.282.753z" fill="#fff"/><path d="M15.494 18.607c.012.6-.777 1.101-1.76 1.12-.981.017-1.788-.456-1.8-1.057 0-.027 0-.054.004-.08.059-.563.817-1.02 1.754-1.039.987-.017 1.79.456 1.802 1.056z" fill="#0E80A4"/><path d="M14.8 18.62c.006.365-.476.672-1.076.684-.448.008-1.013-.22-1.091-.568a.361.361 0 01-.009-.077c.006-.341.583-.675 1.076-.684.604-.01 1.094.279 1.1.644z" fill="#fff"/><path d="M13.382 16.57c-.196.092-.83.38-1.169 1.008a2.3 2.3 0 00-.276 1.092l1.416-1.065c-.024-.341.05-.69.029-1.036z" fill="#0E80A4"/><path d="M13.174 18.203c-.172.202-.345.402-.517.602a1.64 1.64 0 01.018-1.039c.157-.42.45-.571.517-.601-.229.387-.285.773-.172.943a.234.234 0 00.154.095z" fill="#fff"/><path d="M26.294 19.334c.042.6.868 1.032 1.85.967.981-.065 1.744-.607 1.701-1.205-.042-.598-.868-1.032-1.846-.968-.982.066-1.747.605-1.705 1.206z" fill="#0E80A4"/><path d="M26.983 19.286c.024.366.529.63 1.13.59.597-.04 1.065-.37 1.04-.736-.023-.365-.528-.63-1.13-.59-.6.04-1.063.37-1.04.736z" fill="#fff"/><path d="M25.913 18.07c.048.699 1.01 1.205 2.155 1.127 1.145-.077 2.035-.709 1.987-1.408-.047-.699-1.014-1.205-2.156-1.127-1.145.08-2.033.709-1.986 1.408z" fill="#0E80A4"/><path d="M26.716 18.015c.03.429.618.735 1.318.687.698-.048 1.243-.432 1.213-.86-.03-.428-.618-.735-1.318-.687-.698.048-1.24.432-1.213.86z" fill="#fff"/><path d="M26.305 16.846c.042.602.868 1.032 1.846.967.982-.065 1.743-.606 1.702-1.204 0-.027-.006-.054-.009-.08-.107-.558-.9-.946-1.838-.884-.982.062-1.743.6-1.701 1.201z" fill="#0E80A4"/><path d="M26.994 16.799c.024.366.529.63 1.13.59.448-.03.99-.304 1.037-.659a.282.282 0 00.004-.077c-.036-.339-.64-.624-1.13-.59-.601.04-1.064.37-1.041.736z" fill="#fff"/><path d="M28.274 14.627c.198.065.797.29 1.21.912.282.428.35.847.369 1.065-.5-.313-1-.628-1.5-.94a6.667 6.667 0 01-.079-1.037z" fill="#0E80A4"/><path d="M28.58 16.246l.564.557a1.642 1.642 0 00-.107-1.033c-.193-.404-.496-.529-.565-.555.262.365.351.747.25.925a.24.24 0 01-.143.106z" fill="#fff"/><path d="M18.5 13.487c.083.628-.31 1.196-.874 1.27-.565.075-1.088-.375-1.169-1.002-.083-.628.309-1.196.874-1.27.563-.075 1.09.374 1.169 1.002z" fill="#0E80A4"/><path d="M17.363 12.934c.037.264-.13.502-.365.533-.238.03-.458-.158-.49-.423-.037-.264.13-.503.365-.533.238-.03.458.158.49.423z" fill="#fff"/><path d="M23.749 12.413c.08.628-.31 1.195-.874 1.27-.565.075-1.088-.375-1.169-1.003-.083-.628.31-1.196.872-1.27.565-.074 1.088.376 1.17 1.003z" fill="#0E80A4"/><path d="M22.705 11.744c.036.264-.13.502-.365.533-.238.03-.458-.158-.49-.423-.037-.264.13-.503.365-.533.234-.03.454.158.49.423zm-8.585 2.654v.36l.42.12-.18-.36-.24-.12z" fill="#fff"/><path d="M14.144 14.561l3.578 1.335 3.13 1.183-6.563-2.383-.145-.135z" fill="#0E80A4"/><path d="M26.082 14.217l-3.847 2.346 2.946-1.504 2.404-1.203-.18-.36-1.323.721z" fill="#fff"/><path d="M27.376 13.685l-3.352 1.83-2.931 1.615 6.158-3.29.125-.155zm72.555 8.064l-1.166-1.615c-.543 1.615-1.506 1.982-2.21 1.982-1.194 0-1.382-1.072-1.382-1.697v-8.087h-4.257v2.55h1.22v5.495c-.53 1.547-1.833 1.995-2.7 1.995-1.194 0-1.667-.91-1.667-1.696v-5.779h1.505v-2.564h-1.505v-5.13l-3.038 1.82v3.323h-1.22v2.55h1.22v3.514c-1.004 2.021-3.146 4.343-5.67 4.343-2.78 0-3.975-1.667-3.975-3.8 0-3.284 1.9-4.45 3.458-4.45.596 0 .962.176.962.176v1.926h2.576v-4.328s-1.3-.42-2.808-.42c-6.605 0-7.337 5.225-7.337 7.178 0 .42.042.895.134 1.396-.352 1.372-1.086 1.668-1.614 1.668-1.138 0-1.138-1.114-1.138-1.357v-8.385c0-.027-2.075-.542-3.824-.542-5.846 0-7.745 4.058-7.745 7.692 0 1.25.514 5.849 4.841 5.849 1.695 0 3.295-.8 4.11-2.185 0 0 .053-.08.08-.08.027 0 .027.027.053.08.23 1.018 1.113 1.981 2.576 1.981 2.115 0 3.242-1.315 3.69-2.239.963 1.343 2.632 2.402 5.438 2.402 3.105 0 4.936-1.615 6.212-3.067.257 1.763 1.547 3.011 3.81 3.011 2.157 0 3.445-.772 4.151-1.587.597.882 1.6 1.467 2.943 1.467 3.066 0 4.34-2.469 4.34-3.148.032-.094-.063-.242-.063-.242zm-33.593-2.552c0 1.452-1.072 3.12-3.01 3.12-2.361 0-2.386-2.496-2.386-3.228 0-3.636 2.576-4.682 3.972-4.682 1.018 0 1.424.177 1.424.177v4.613zM41.02 7.202h-9.94v2.81h2.319v14.803h3.485v-5.848h4.163c1.695 0 6.78-.177 6.78-5.902 0-5.863-4.339-5.863-6.806-5.863zm-.15 8.997c-.624 0-4-.028-4-.028v-6.16h4.19c1.275 0 3.228.028 3.228 3.012.013 3.025-2.537 3.176-3.418 3.176z" fill="#0E80A4"/><path d="M156.821 18.83a8.677 8.677 0 01-1.545 2.552c-.679.772-1.411 1.167-2.185 1.167-.706 0-1.357-.258-1.967-.773a5.586 5.586 0 01-1.465-1.83 5.389 5.389 0 002.766-1.71c.746-.855 1.125-1.805 1.125-2.864 0-1.03-.324-1.872-.976-2.524-.666-.652-1.519-.962-2.591-.962-2.251 0-3.932 1.181-5.071 3.54V7.204h-4.19v2.55h1.166v12.143a2.01 2.01 0 01-.923.23c-1.194 0-1.423-1.02-1.423-1.615v-4.598c0-2.672-1.844-3.854-4.056-3.854-2.469 0-3.567 1.452-3.567 1.452-.052.08-.08.11-.108.11-.029 0-.029-.053-.029-.08v-1.196h-4.217v2.552h1.356v5.32c-.543 1.548-1.491 1.9-2.184 1.9-1.194 0-1.384-1.072-1.384-1.696v-8.088h-4.258v2.55h1.219v5.413c-.527 1.48-1.465 1.819-2.155 1.819-1.168 0-1.425-1.072-1.425-1.697v-4.505c0-2.672-1.843-3.854-4.08-3.854-2.467 0-3.539 1.452-3.539 1.452V7.204H95.98c.407.515.652 1.167.652 1.872 0 .313-.053.625-.135.91h3.418v9.674s.814 1.1 1.057 1.48c.095.148.257.475.257.867 0 .705-.447 1.738-1.315 2.606v.205h3.485V9.988h4.705v14.83h3.038v-6.635c0-1.764.989-3.284 2.752-3.284.394 0 1.872.23 1.872 1.873v4.91c0 1.873 1.328 3.487 3.566 3.487 1.695 0 2.848-.787 3.527-1.587.582.95 1.628 1.587 3.024 1.587 1.356 0 2.357-.49 3.065-1.085v.747h3.037v-6.65c0-1.763.963-3.283 2.727-3.283.421 0 1.872.23 1.872 1.872v4.911c0 1.872 1.328 3.487 3.541 3.487.691 0 1.3-.135 1.818-.34h3.01c0-3.743.19-4.843.367-5.55.284-1.247.785-2.36 1.476-3.31.691-.95 1.491-1.44 2.4-1.44.937 0 1.505.571 1.505 1.44 0 1.249-1.099 2.306-4 3.187.082.637.747 2.267 1.451 3.243 1.301 1.805 2.781 2.769 4.599 2.769 1.031 0 1.967-.3 2.834-.91 1.737-1.22 2.576-2.754 3.118-4.424l-1.882-1.003zm-99.068-1.682v-5.034c-.176-.11-.704-.135-.963-.135-3.323-.013-4.88 2.43-4.95 2.51-.053.082-.081.11-.11.11-.053 0-.053-.11-.053-.11v-2.157h-2.861v12.48h3.038v-4.625c0-.57.082-2.362.99-3.636.515-.705 1.276-1.385 2.362-1.385v1.982h2.547z" fill="#0E80A4"/><path d="M123.732 10.974c1.019 0 1.871-.854 1.871-1.9a1.89 1.89 0 00-1.871-1.872 1.876 1.876 0 00-1.872 1.872c0 1.047.814 1.9 1.872 1.9zm-30.175 0c1.018 0 1.871-.854 1.871-1.9a1.892 1.892 0 00-1.871-1.872 1.876 1.876 0 00-1.873 1.872c0 1.047.829 1.9 1.873 1.9z" fill="#0E80A4"/></svg>