<svg width="111" height="17" fill="none" xmlns="http://www.w3.org/2000/svg"><path d="M6.888 12.381c-.32-.534-.753-.935-1.236-1.304-.499-.382-1.044-.776-1.637-.974-.55-.183-1.229-.11-1.774.06-.527.163-.906.492-1.105 1.033-.2.542-.249 1.075.186 1.503.399.393.988.649 1.528.691.161.013.584.042.698-.104.132-.167.091-.63.05-.816-.117-.522-.639-.956-1.08-.516-.455.452-1.067-.354-.615-.803.496-.494 1.267-.526 1.841-.142.577.386.855 1.087.856 1.78 0 .707-.22 1.33-.915 1.534-.665.194-1.39.072-2.021-.215-.596-.272-1.173-.694-1.478-1.311-.314-.636-.187-1.414.06-2.046.545-1.39 2.018-1.844 3.36-1.76.837.054 1.606.538 2.286 1.019.667.472 1.324 1.015 1.756 1.737.333.555-.425 1.194-.76.634zM19.09 6.616c.129 1.236-.334 2.288-1.034 2.345-.7.06-1.373-.896-1.502-2.133-.13-1.236.333-2.286 1.034-2.345.7-.058 1.373.896 1.502 2.133z" fill="#0E80A4"/><path d="M5.52 7.741c0 3.461 2.88 5.779 6.379 5.779 3.499 0 6.214-1.844 6.287-5.779.066-3.458-2.835-6.266-6.332-6.266-3.499 0-6.334 2.806-6.334 6.266z" fill="#0E80A4"/><path d="M13.477 1.803c-.018-.313-1.837-.351-2.272-1.475A1.417 1.417 0 0111.123 0a2.081 2.081 0 00-1.38 1.473.918.918 0 01-.405-.328.957.957 0 01-.163-.573c-.156.132-.335.32-.487.573-.468.791-.302 1.634-.242 1.884 4.139-.634 5.046-1.002 5.031-1.226z" fill="#0E80A4"/><path d="M8.985 10.527c.353 1.616 2.488 2.514 4.769 2.007 2.282-.507 3.846-2.226 3.494-3.84-.353-1.615-2.488-2.513-4.771-2.006-2.279.504-3.845 2.224-3.492 3.84z" fill="#fff"/><path d="M8.2 7.558c.276 1.462 1.557 2.375 2.863 2.039 1.306-.337 2.142-1.795 1.865-3.257-.276-1.462-1.559-2.375-2.863-2.039-1.306.337-2.142 1.795-1.866 3.257z" fill="#fff"/><path d="M16.19 5.487c.277 1.463-.476 2.899-1.679 3.21-1.203.31-2.403-.624-2.677-2.087-.277-1.462.476-2.898 1.68-3.209 1.202-.31 2.4.622 2.677 2.086z" fill="#fff"/><path d="M6.46 11.053c-.407.084-.835-.132-1.198-.563-.363-.43-.655-1.069-.791-1.817-.136-.747-.087-1.457.098-2 .186-.545.508-.917.915-1.002.406-.085.834.131 1.197.563.363.43.655 1.068.79 1.815.137.748.09 1.458-.095 2.002-.186.547-.508.919-.917 1.002z" fill="#0E80A4" stroke="#fff" stroke-width=".7"/><path d="M5.443 8.615c.894 1.808 1.023 3.155 1.632 2.978.611-.176.774-2.1.576-3.619-.196-1.518-1.526-2.552-1.737-2.34-.21 0-.667 1.462-.47 2.98zm9.691 2.019c-.08.094-.928 1.05-2.429 1.028-1.076-.014-2.082-.527-2.623-1.332.207.17 1.144.902 2.603.95a4.316 4.316 0 002.449-.646zM12.466 9.39c.073.038.346.166.692.09.346-.077.54-.31.593-.375a4.59 4.59 0 01-1.285.285z" fill="#0E80A4"/><path d="M18.25 7.84c.056-.03.131.01.136.093l.302 5.652c.002.048-.022.092-.059.11l-4.977 2.498v.001a.077.077 0 01-.064.005h0l-5.28-1.805h-.001c-.037-.012-.066-.05-.07-.102l-.301-5.654a.118.118 0 01.038-.097.082.082 0 01.085-.018h.001l5.261 1.848h0c.04.013.084.01.122-.01l4.808-2.52z" fill="#0E80A4" stroke="#fff" stroke-width=".8"/><path d="M13.481 15.865l-.26-5.05.383-.114.222 4.958-.345.206z" fill="#fff"/><path d="M8.43 8.399l-.027.24-.014-.014-.03-.225v-.186l3.888 1.558-3.794-1.387-.02-.008-.003.022zm9.558-.428l-.165-.502-3.868 2.418 3.873-2.14.014-.008.009.015.128.218h.01V7.97z" fill="#0E80A4" stroke="#fff" stroke-width=".4"/><path d="M9.631 13.151c.009.43-.55.787-1.248.8-.697.013-1.269-.325-1.277-.755-.006-.43.55-.788 1.248-.8.699-.013 1.27.326 1.277.755z" fill="#0E80A4"/><path d="M9.142 13.16c.004.262-.338.481-.765.49-.426.008-.774-.2-.78-.463-.005-.261.338-.48.763-.49.427-.005.775.201.782.463z" fill="#fff"/><path d="M9.824 12.228c.009.502-.643.919-1.456.934-.814.015-1.479-.38-1.489-.88-.009-.5.643-.92 1.456-.935.815-.015 1.481.38 1.49.88z" fill="#0E80A4"/><path d="M9.253 12.239c.004.306-.392.562-.89.57-.499.01-.906-.232-.91-.538-.006-.307.393-.562.89-.57.496-.01.903.23.91.538z" fill="#fff"/><path d="M9.39 11.387c.009.43-.551.787-1.249.8-.696.013-1.268-.325-1.277-.755 0-.02 0-.039.003-.058.042-.402.58-.73 1.244-.743.7-.012 1.27.326 1.28.756z" fill="#0E80A4"/><path d="M8.898 11.395c.005.262-.337.481-.763.49-.318.006-.72-.158-.775-.406a.26.26 0 01-.006-.055c.005-.245.414-.483.764-.49.428-.007.776.2.78.461z" fill="#fff"/><path d="M7.892 9.929c-.14.066-.589.273-.83.721a1.656 1.656 0 00-.196.781c.335-.252.669-.506 1.005-.761-.017-.245.036-.494.02-.741z" fill="#0E80A4"/><path d="M7.744 11.098l-.367.43c-.017-.05-.12-.39.013-.743.112-.3.32-.408.367-.43-.162.277-.202.553-.122.675a.166.166 0 00.11.068z" fill="#fff"/><path d="M17.053 11.906c.03.43.616.739 1.313.692.696-.046 1.237-.434 1.207-.862-.03-.428-.616-.738-1.31-.692-.697.047-1.24.432-1.21.862z" fill="#0E80A4"/><path d="M17.542 11.872c.017.262.375.451.801.422.424-.027.756-.264.74-.526-.018-.261-.376-.45-.803-.421-.426.027-.755.264-.738.525z" fill="#fff"/><path d="M16.782 11.002c.035.5.718.862 1.53.806.812-.055 1.443-.507 1.41-1.007-.034-.5-.72-.862-1.53-.806-.812.058-1.443.507-1.41 1.007z" fill="#0E80A4"/><path d="M17.352 10.963c.021.307.439.526.935.492.496-.034.882-.309.86-.615-.02-.307-.438-.526-.934-.492-.496.035-.88.31-.86.615z" fill="#fff"/><path d="M17.06 10.127c.03.43.617.738 1.311.692.696-.047 1.236-.434 1.207-.862 0-.019-.004-.038-.006-.057-.076-.399-.639-.677-1.304-.632-.697.044-1.237.43-1.207.859z" fill="#0E80A4"/><path d="M17.55 10.093c.017.262.375.451.801.422.318-.022.703-.217.736-.47a.204.204 0 00.003-.056c-.026-.243-.454-.447-.802-.422-.426.028-.755.264-.739.526z" fill="#fff"/><path d="M18.458 8.54c.14.047.566.207.858.652.2.306.248.606.262.762-.354-.224-.709-.45-1.064-.673a4.821 4.821 0 01-.056-.741z" fill="#0E80A4"/><path d="M18.675 9.697l.4.399A1.181 1.181 0 0019 9.357a.759.759 0 00-.401-.397c.186.261.249.534.177.662a.17.17 0 01-.101.075z" fill="#fff"/><path d="M11.523 7.724c.058.45-.22.856-.62.909-.402.053-.773-.269-.83-.717-.059-.45.22-.856.62-.909.4-.053.773.268.83.717z" fill="#0E80A4"/><path d="M10.716 7.328c.026.19-.093.36-.259.381-.169.022-.325-.112-.348-.302-.026-.189.093-.36.26-.38.168-.022.324.112.347.301z" fill="#fff"/><path d="M15.247 6.955c.057.45-.219.856-.62.91-.4.053-.772-.27-.83-.719-.058-.449.22-.855.62-.908.4-.053.771.269.83.717z" fill="#0E80A4"/><path d="M14.506 6.477c.026.19-.093.36-.259.381-.169.022-.325-.113-.348-.302-.026-.19.093-.36.26-.381.166-.022.322.113.347.302zM8.415 8.375v.259l.299.086-.128-.259-.171-.086z" fill="#fff"/><path d="M8.433 8.492l2.538.955 2.22.847-4.655-1.705-.103-.097z" fill="#0E80A4"/><path d="M16.902 8.246l-2.73 1.679 2.09-1.076 1.707-.86-.128-.259-.939.516z" fill="#fff"/><path d="M17.821 7.866l-2.378 1.308-2.08 1.156 4.37-2.353.088-.111zM69.3 13.634l-.827-1.155c-.385 1.155-1.068 1.418-1.568 1.418-.847 0-.98-.767-.98-1.214V6.898h-3.02v1.824h.864v3.931c-.375 1.107-1.3 1.427-1.915 1.427-.847 0-1.183-.65-1.183-1.214V8.733h1.068V6.899h-1.068v-3.67L58.516 4.53v2.378h-.866v1.824h.866v2.514c-.713 1.446-2.233 3.107-4.023 3.107-1.973 0-2.82-1.193-2.82-2.719 0-2.349 1.347-3.183 2.453-3.183.423 0 .682.126.682.126v1.378h1.828V6.858s-.923-.3-1.992-.3c-4.686 0-5.206 3.738-5.206 5.135 0 .3.03.64.095.999-.25.98-.77 1.193-1.145 1.193-.807 0-.807-.797-.807-.971V6.916c0-.02-1.473-.388-2.714-.388-4.147 0-5.495 2.903-5.495 5.503 0 .893.365 4.183 3.435 4.183 1.203 0 2.338-.572 2.916-1.563 0 0 .037-.057.057-.057.02 0 .02.02.038.057.162.729.79 1.418 1.828 1.418 1.5 0 2.3-.94 2.617-1.602.684.96 1.868 1.718 3.859 1.718 2.203 0 3.502-1.155 4.407-2.194.183 1.261 1.098 2.154 2.703 2.154 1.53 0 2.445-.552 2.946-1.135.423.631 1.135 1.05 2.088 1.05 2.175 0 3.079-1.767 3.079-2.253.023-.067-.045-.173-.045-.173zM45.465 11.81c0 1.039-.76 2.232-2.135 2.232-1.675 0-1.693-1.786-1.693-2.31 0-2.6 1.828-3.348 2.818-3.348.723 0 1.01.126 1.01.126v3.3zM27.502 3.228h-7.054v2.01h1.646v10.59h2.473v-4.184h2.953c1.203 0 4.81-.127 4.81-4.222 0-4.194-3.078-4.194-4.828-4.194zm-.107 6.436c-.442 0-2.838-.02-2.838-.02V5.237h2.973c.905 0 2.29.02 2.29 2.155.01 2.164-1.8 2.272-2.425 2.272z" fill="#0E80A4"/><path d="M109.665 11.546a6.22 6.22 0 01-1.097 1.826c-.481.552-1 .834-1.55.834-.5 0-.963-.184-1.395-.552a3.99 3.99 0 01-1.04-1.31 3.816 3.816 0 001.963-1.223c.529-.611.798-1.29.798-2.048 0-.737-.23-1.34-.693-1.806-.472-.466-1.078-.688-1.838-.688-1.598 0-2.79.845-3.598 2.533V3.23h-2.973v1.824h.828v8.686c-.22.116-.452.164-.655.164-.847 0-1.01-.729-1.01-1.155V9.46c0-1.911-1.308-2.757-2.878-2.757-1.752 0-2.53 1.04-2.53 1.04-.038.057-.058.078-.077.078-.02 0-.02-.038-.02-.058v-.855h-2.993v1.826h.962v3.805c-.385 1.107-1.058 1.36-1.549 1.36-.848 0-.983-.767-.983-1.214V6.9h-3.02v1.823h.865v3.872c-.375 1.059-1.04 1.302-1.53 1.302-.828 0-1.01-.767-1.01-1.214V9.46c0-1.911-1.308-2.757-2.896-2.757-1.75 0-2.51 1.04-2.51 1.04V3.23H66.497c.288.368.462.835.462 1.34 0 .223-.037.446-.095.65h2.425v6.92s.578.787.75 1.059c.067.106.182.34.182.62 0 .504-.317 1.243-.933 1.864v.147h2.473V5.22H75.1v10.61h2.156v-4.747c0-1.261.702-2.348 1.952-2.348.28 0 1.328.164 1.328 1.339v3.513c0 1.339.943 2.494 2.53 2.494 1.203 0 2.021-.563 2.503-1.135.413.679 1.155 1.135 2.145 1.135.963 0 1.673-.35 2.176-.776v.534h2.154v-4.757c0-1.261.684-2.348 1.935-2.348.299 0 1.328.164 1.328 1.339v3.513c0 1.339.943 2.494 2.512 2.494.49 0 .923-.096 1.29-.243h2.136c0-2.678.135-3.465.26-3.97a6.456 6.456 0 011.048-2.368c.49-.68 1.058-1.03 1.702-1.03.666 0 1.068.408 1.068 1.03 0 .893-.779 1.65-2.838 2.28.058.456.53 1.621 1.03 2.32.923 1.29 1.973 1.98 3.263 1.98.732 0 1.395-.214 2.01-.65 1.233-.873 1.828-1.97 2.213-3.165l-1.335-.718zm-70.291-1.203V6.742c-.126-.078-.5-.096-.684-.096-2.357-.01-3.463 1.737-3.512 1.795-.038.058-.058.078-.078.078-.038 0-.038-.078-.038-.078V6.898h-2.03v8.928h2.156v-3.31c0-.407.058-1.689.703-2.6.365-.504.905-.99 1.675-.99v1.417h1.808z" fill="#0E80A4"/><path d="M86.188 5.926c.722 0 1.327-.611 1.327-1.359 0-.729-.605-1.34-1.328-1.34-.74 0-1.328.612-1.328 1.34 0 .749.578 1.359 1.329 1.359zm-21.411 0c.723 0 1.329-.611 1.329-1.359 0-.729-.606-1.34-1.329-1.34-.74 0-1.328.612-1.328 1.34 0 .749.588 1.359 1.328 1.359z" fill="#0E80A4"/></svg>