<svg width="154" height="23" fill="none" xmlns="http://www.w3.org/2000/svg"><path d="M9.556 17.177c-.444-.741-1.044-1.296-1.714-1.809-.692-.53-1.448-1.077-2.272-1.351-.764-.253-1.704-.153-2.46.082-.732.227-1.257.684-1.534 1.434-.279.752-.345 1.491.259 2.086.552.544 1.37.9 2.12.959.223.018.809.057.967-.145.184-.232.127-.875.07-1.132-.163-.724-.886-1.326-1.5-.716-.63.627-1.479-.492-.852-1.114.688-.685 1.758-.73 2.555-.197.8.535 1.185 1.508 1.187 2.468 0 .982-.306 1.847-1.269 2.129-.923.27-1.93.1-2.805-.297-.826-.378-1.627-.964-2.05-1.82-.435-.883-.26-1.962.083-2.838.756-1.93 2.8-2.56 4.663-2.44 1.16.073 2.227.744 3.17 1.412.926.654 1.837 1.407 2.436 2.41.463.77-.59 1.657-1.054.88zm16.929-7.999c.179 1.716-.462 3.175-1.434 3.254-.972.082-1.905-1.243-2.084-2.959-.179-1.715.463-3.171 1.434-3.253.972-.08 1.905 1.243 2.084 2.958z" fill="#fff"/><path d="M7.659 10.74c0 4.801 3.995 8.017 8.85 8.017 4.854 0 8.621-2.558 8.723-8.017.091-4.799-3.934-8.693-8.785-8.693-4.855 0-8.788 3.892-8.788 8.693z" fill="#fff"/><path d="M18.698 2.501c-.026-.434-2.55-.487-3.153-2.046A1.97 1.97 0 0115.432 0a2.887 2.887 0 00-1.914 2.043 1.273 1.273 0 01-.562-.455 1.328 1.328 0 01-.226-.794 3.186 3.186 0 00-.676.794c-.65 1.099-.419 2.268-.336 2.614 5.742-.879 7-1.39 6.98-1.7z" fill="#fff"/><path d="M12.466 14.605c.489 2.241 3.451 3.488 6.616 2.785 3.167-.704 5.336-3.09 4.847-5.327-.489-2.241-3.45-3.488-6.62-2.784-3.16.7-5.333 3.085-4.843 5.326z" fill="#68C2D0"/><path d="M11.376 10.486c.383 2.029 2.16 3.295 3.973 2.829 1.812-.467 2.971-2.49 2.588-4.519-.383-2.028-2.163-3.295-3.973-2.828-1.812.467-2.972 2.49-2.588 4.518z" fill="#68C2D0"/><path d="M22.463 7.613c.383 2.029-.662 4.021-2.33 4.453-1.67.43-3.334-.866-3.715-2.895-.384-2.028.661-4.021 2.33-4.452 1.668-.431 3.331.862 3.715 2.894z" fill="#68C2D0"/><path d="M8.962 15.335c-.565.117-1.158-.183-1.662-.781-.503-.597-.909-1.483-1.097-2.52-.188-1.037-.12-2.022.136-2.777.258-.756.704-1.271 1.269-1.39.564-.117 1.157.183 1.661.781.503.597.91 1.483 1.097 2.52.19 1.036.123 2.021-.133 2.777-.258.758-.705 1.274-1.271 1.39z" fill="#fff" stroke="#68C2D0" stroke-width=".7"/><path d="M7.552 11.952c1.24 2.509 1.419 4.377 2.264 4.133.847-.245 1.073-2.915.799-5.021-.272-2.107-2.117-3.542-2.41-3.247-.292 0-.925 2.029-.653 4.135zm13.444 2.801c-.111.13-1.287 1.456-3.37 1.427-1.493-.02-2.888-.732-3.638-1.848.286.236 1.587 1.251 3.612 1.317 1.81.06 3.05-.675 3.396-.896zm-3.7-1.725c.101.053.48.23.96.124.48-.106.748-.428.822-.52a6.364 6.364 0 01-1.782.396z" fill="#fff"/><path d="M25.32 10.878c.078-.042.182.013.189.129l.419 7.84c.002.068-.03.128-.082.153l-6.905 3.467-.002.001a.107.107 0 01-.087.006h-.001l-7.325-2.504h0c-.052-.017-.092-.07-.097-.14l-.419-7.846a.164.164 0 01.053-.134.114.114 0 01.119-.026h.001l7.299 2.564h0c.056.02.117.015.169-.012l6.67-3.498z" fill="#fff" stroke="#68C2D0" stroke-width=".8"/><path d="M18.704 22.012l-.36-7.008.53-.156.308 6.877-.478.287z" fill="#68C2D0"/><path d="M11.695 11.652l-.037.334-.02-.02-.042-.312v-.258l5.395 2.16-5.264-1.923-.028-.01-.004.03zm13.261-.593l-.228-.696-5.367 3.354 5.373-2.968.02-.011.012.02.177.302h.013v-.001z" fill="#fff" stroke="#68C2D0" stroke-width=".4"/><path d="M13.362 18.246c.011.597-.765 1.092-1.733 1.11-.966.018-1.76-.451-1.772-1.048-.008-.597.765-1.093 1.733-1.11.97-.017 1.762.452 1.772 1.048z" fill="#fff"/><path d="M12.682 18.258c.006.363-.468.667-1.06.68-.592.011-1.075-.279-1.083-.642-.006-.363.469-.667 1.06-.68.591-.008 1.074.279 1.083.642z" fill="#68C2D0"/><path d="M13.63 16.965c.012.697-.892 1.275-2.02 1.296-1.13.02-2.052-.529-2.066-1.222-.012-.694.892-1.276 2.02-1.297 1.13-.02 2.054.529 2.066 1.223z" fill="#fff"/><path d="M12.838 16.98c.006.425-.545.78-1.236.792-.691.012-1.256-.323-1.262-.748-.008-.425.545-.78 1.236-.791.688-.012 1.252.32 1.262.747z" fill="#68C2D0"/><path d="M13.028 15.798c.012.596-.764 1.093-1.732 1.11-.966.018-1.76-.45-1.772-1.048 0-.026 0-.053.003-.08.058-.557.805-1.012 1.727-1.03.972-.017 1.762.452 1.774 1.048z" fill="#fff"/><path d="M12.345 15.81c.006.363-.469.667-1.06.68-.44.008-.997-.22-1.074-.564a.357.357 0 01-.008-.077c.006-.339.574-.67 1.06-.679.593-.01 1.076.277 1.082.64z" fill="#68C2D0"/><path d="M10.949 13.775c-.193.092-.817.379-1.15 1.001-.24.445-.273.866-.273 1.084.465-.35.928-.703 1.394-1.056-.023-.34.05-.686.029-1.029z" fill="#fff"/><path d="M10.744 15.397l-.51.597a1.64 1.64 0 01.019-1.03c.155-.417.442-.568.509-.598-.225.385-.28.768-.17.937a.231.231 0 00.152.094z" fill="#68C2D0"/><path d="M23.66 16.52c.04.595.854 1.024 1.82.96.966-.065 1.717-.604 1.675-1.197-.041-.594-.854-1.025-1.818-.96-.966.064-1.72.6-1.678 1.196z" fill="#fff"/><path d="M24.337 16.472c.024.362.521.625 1.113.585.588-.039 1.048-.367 1.025-.73-.024-.363-.521-.626-1.113-.585-.591.038-1.047.367-1.025.73z" fill="#68C2D0"/><path d="M23.284 15.264c.047.694.995 1.197 2.122 1.12 1.127-.077 2.003-.704 1.955-1.398-.046-.694-.998-1.196-2.122-1.119-1.127.08-2.001.704-1.955 1.397z" fill="#fff"/><path d="M24.075 15.21c.03.426.608.73 1.297.682.687-.047 1.223-.428 1.194-.853-.03-.425-.608-.73-1.297-.682-.688.048-1.22.429-1.194.854z" fill="#68C2D0"/><path d="M23.67 14.05c.041.597.854 1.024 1.818.96.965-.064 1.715-.602 1.674-1.195 0-.026-.005-.054-.008-.08-.105-.553-.886-.939-1.81-.877-.966.061-1.715.596-1.674 1.192z" fill="#fff"/><path d="M24.348 14.004c.024.363.52.625 1.112.585.442-.03.976-.301 1.022-.654a.287.287 0 00.003-.076c-.035-.337-.63-.62-1.112-.585-.592.038-1.047.365-1.025.73z" fill="#68C2D0"/><path d="M25.608 11.848a2.3 2.3 0 011.191.905 2.3 2.3 0 01.363 1.057l-1.476-.934a6.682 6.682 0 01-.078-1.028z" fill="#fff"/><path d="M25.909 13.454l.556.553c.018-.07.12-.553-.105-1.024-.19-.402-.489-.526-.556-.552.258.363.345.742.246.918a.236.236 0 01-.141.105z" fill="#68C2D0"/><path d="M15.987 10.716c.081.624-.304 1.187-.86 1.261-.557.074-1.072-.372-1.151-.994-.082-.624.304-1.187.86-1.261.554-.074 1.073.371 1.15.994z" fill="#fff"/><path d="M14.868 10.167c.036.263-.129.5-.36.53-.234.029-.45-.157-.482-.42-.036-.263.129-.5.36-.529.234-.03.45.156.482.42z" fill="#68C2D0"/><path d="M21.154 9.65c.08.623-.304 1.187-.86 1.261-.557.074-1.072-.373-1.15-.996-.083-.623.303-1.187.857-1.26.556-.074 1.071.373 1.153.995z" fill="#fff"/><path d="M20.127 8.986c.035.263-.13.5-.36.53-.235.029-.451-.157-.483-.42-.035-.263.129-.5.36-.529.23-.03.447.157.483.42zm-8.452 2.634v.358l.414.12-.177-.358-.237-.12z" fill="#68C2D0"/><path d="M11.699 11.783l3.522 1.324 3.08 1.175-6.459-2.366-.143-.133z" fill="#fff"/><path d="M23.45 11.441l-3.786 2.329 2.9-1.493 2.366-1.194-.177-.358-1.302.716z" fill="#68C2D0"/><path d="M24.724 10.913l-3.3 1.815-2.885 1.604 6.062-3.265.123-.154zm71.422 8.003l-1.148-1.603c-.534 1.603-1.482 1.967-2.175 1.967-1.175 0-1.36-1.064-1.36-1.684V9.57h-4.19v2.53h1.2v5.455c-.522 1.535-1.804 1.98-2.658 1.98-1.175 0-1.641-.904-1.641-1.684v-5.735h1.481V9.57h-1.481V4.48l-2.99 1.805v3.3h-1.202v2.53h1.201v3.487c-.988 2.006-3.097 4.31-5.581 4.31-2.737 0-3.913-1.654-3.913-3.771 0-3.259 1.87-4.417 3.404-4.417.587 0 .947.176.947.176v1.911h2.536V9.515s-1.28-.417-2.765-.417c-6.5 0-7.222 5.186-7.222 7.124 0 .417.041.888.132 1.386-.347 1.361-1.069 1.655-1.588 1.655-1.12 0-1.12-1.106-1.12-1.347v-8.32c0-.028-2.043-.54-3.765-.54-5.755 0-7.624 4.028-7.624 7.635 0 1.24.506 5.804 4.765 5.804 1.67 0 3.244-.794 4.046-2.168 0 0 .052-.08.079-.08.027 0 .027.027.052.08.226 1.01 1.096 1.967 2.536 1.967 2.082 0 3.19-1.305 3.632-2.223.948 1.333 2.59 2.384 5.353 2.384 3.057 0 4.86-1.603 6.115-3.044.253 1.75 1.523 2.989 3.75 2.989 2.124 0 3.392-.767 4.087-1.575.587.875 1.575 1.456 2.897 1.456 3.018 0 4.271-2.45 4.271-3.125.032-.093-.061-.24-.061-.24zm-33.069-2.533c0 1.441-1.054 3.098-2.962 3.098-2.324 0-2.35-2.478-2.35-3.205 0-3.609 2.537-4.646 3.911-4.646 1.002 0 1.401.175 1.401.175v4.578zM38.156 4.479h-9.787v2.788h2.283v14.692h3.431v-5.804h4.097c1.67 0 6.675-.175 6.675-5.858 0-5.818-4.271-5.818-6.7-5.818zm-.148 8.929c-.615 0-3.938-.028-3.938-.028V7.267h4.125c1.255 0 3.177.027 3.177 2.988.013 3.003-2.497 3.153-3.364 3.153z" fill="#fff"/><path d="M152.148 16.02a8.632 8.632 0 01-1.522 2.532c-.668.766-1.388 1.158-2.15 1.158-.695 0-1.337-.256-1.937-.767a5.544 5.544 0 01-1.442-1.817 5.297 5.297 0 002.723-1.697c.735-.848 1.108-1.79 1.108-2.842 0-1.022-.32-1.857-.961-2.505-.656-.647-1.496-.955-2.551-.955-2.216 0-3.871 1.173-4.992 3.514v-8.16H136.3v2.53h1.148v12.052a1.966 1.966 0 01-.909.228c-1.175 0-1.401-1.012-1.401-1.603v-4.563c0-2.652-1.814-3.825-3.992-3.825-2.431 0-3.511 1.441-3.511 1.441-.053.08-.08.11-.107.11-.028 0-.028-.053-.028-.08V9.583h-4.152v2.533h1.335v5.28c-.534 1.536-1.468 1.885-2.149 1.885-1.177 0-1.364-1.064-1.364-1.683V9.573h-4.19v2.53h1.2v5.372c-.52 1.468-1.443 1.805-2.122 1.805-1.149 0-1.403-1.064-1.403-1.684v-4.471c0-2.652-1.814-3.825-4.016-3.825-2.429 0-3.483 1.441-3.483 1.441v-6.26H92.257c.4.511.641 1.158.641 1.858 0 .31-.052.62-.132.903h3.364v9.6s.802 1.092 1.04 1.47c.094.146.254.471.254.86 0 .7-.44 1.725-1.295 2.587v.203h3.431V7.244h4.631v14.718h2.991v-6.585c0-1.75.974-3.259 2.709-3.259.388 0 1.842.228 1.842 1.858v4.874c0 1.858 1.308 3.46 3.511 3.46 1.668 0 2.803-.78 3.472-1.575.573.942 1.602 1.575 2.976 1.575 1.335 0 2.321-.486 3.018-1.077v.742h2.99v-6.6c0-1.75.948-3.258 2.684-3.258.414 0 1.842.228 1.842 1.858v4.874c0 1.858 1.308 3.46 3.486 3.46.68 0 1.28-.134 1.789-.337h2.964c0-3.715.187-4.807.361-5.508.28-1.238.772-2.343 1.453-3.285.68-.943 1.467-1.429 2.362-1.429.923 0 1.482.566 1.482 1.428 0 1.24-1.082 2.29-3.938 3.163.081.633.735 2.25 1.429 3.22 1.28 1.79 2.737 2.747 4.527 2.747 1.015 0 1.936-.297 2.789-.903 1.71-1.21 2.536-2.733 3.07-4.39l-1.852-.996zm-97.521-1.67V9.354c-.174-.109-.693-.134-.948-.134-3.271-.013-4.805 2.41-4.873 2.49-.052.082-.08.11-.108.11-.052 0-.052-.11-.052-.11V9.57h-2.817v12.387h2.99v-4.591c0-.566.081-2.344.976-3.608.506-.7 1.256-1.375 2.324-1.375v1.967h2.508z" fill="#fff"/><path d="M119.575 8.222c1.003 0 1.842-.848 1.842-1.885 0-1.012-.839-1.858-1.842-1.858-1.027 0-1.842.848-1.842 1.858 0 1.038.801 1.885 1.842 1.885zm-29.704 0c1.003 0 1.843-.848 1.843-1.885 0-1.012-.84-1.858-1.843-1.858-1.027 0-1.843.848-1.843 1.858 0 1.038.816 1.885 1.843 1.885z" fill="#fff"/></svg>