<svg width="197" height="179" fill="none" xmlns="http://www.w3.org/2000/svg"><path d="M140.947 3.44c-31.403-8.567-57.072-1.027-64.838 21.438-7.782 22.534-1.382 45.497-29.577 54.767-23.109 7.386-50.228 20.41-46.115 56.893 3.908 34.615 25.123 40.99 52.293 42.395 28.912 1.508 59.906-22.963 86.82-11.019 24.987 11.087 53.181 13.555 56.885-18.49 2.167-18.764-13.842-25.036-16.879-39.653-4.216-20.255 4.215-27.846 6.758-41.384 6.298-33.638-15.241-55.401-45.347-64.946z" fill="#91DFEB"/><mask id="a" maskUnits="userSpaceOnUse" x="0" y="0" width="197" height="179"><path d="M140.947 3.44c-31.403-8.567-57.072-1.027-64.838 21.438-7.782 22.534-1.382 45.497-29.577 54.767-23.109 7.386-50.228 20.41-46.115 56.893 3.908 34.615 25.123 40.99 52.293 42.395 28.912 1.508 59.906-22.963 86.82-11.019 24.987 11.087 53.181 13.555 56.885-18.49 2.167-18.764-13.842-25.036-16.879-39.653-4.216-20.255 4.215-27.846 6.758-41.384 6.298-33.638-15.241-55.401-45.347-64.946z" fill="#91DFEB"/></mask><g mask="url(#a)"><path d="M132.865 100.802l-1.366 7.054c13.238 2.632 24.48 10.633 31.835 22.319 7.355 11.792 9.876 26.11 7.145 40.218l7.039 1.368c3.152-15.897.315-32.11-8.09-45.481-8.511-13.371-21.434-22.425-36.563-25.478z" fill="#0E80A4"/><path d="M175.417 161.338c3.467 1.158 3.362 5.054 2.101 8.739-1.156 3.79-3.047 6.001-6.514 4.843-3.467-1.158-5.359-5.054-4.098-8.844 1.156-3.685 5.043-5.79 8.511-4.738z" fill="#0E80A4"/><path d="M174.156 165.444c-.525 0-.946.106-1.366.421-.735.632-.841 1.79-.105 2.527.946 1.053 1.366 2.527 1.261 4.106-.105 1.579-.946 3.053-2.102 4.106-.735.632-.84 1.79-.21 2.527.631.737 1.786.842 2.522.21 1.891-1.684 3.152-4 3.362-6.422.21-2.526-.525-4.948-2.101-6.738-.421-.526-.736-.737-1.261-.737z" fill="#0E80A4"/><path d="M170.899 166.918c-.525 0-.946.105-1.366.421-.735.632-.841 1.79-.21 2.527 1.576 1.79.42 5.58-2.732 8.317-.735.632-.84 1.79-.21 2.527.63.737 1.786.842 2.522.211 4.622-4.106 5.988-10.002 3.047-13.371-.211-.421-.631-.527-1.051-.632z" fill="#0E80A4"/><path d="M169.008 165.55c-.526 0-.946.105-1.366.421-.736.631-.841 1.684-.21 2.421.105.737-1.261 3.79-5.254 7.37-.63.632-.945 1.579-.42 2.421.63.948 1.891 1.053 2.732.421 2.311-2 4.202-4.316 5.358-6.316 1.891-3.369 1.261-5.159.42-6.107-.42-.421-.84-.631-1.26-.631z" fill="#0E80A4"/><path d="M169.953 165.76c1.156 1.264-.105 2.527-.63 3.053-.42.316-.946.843-1.576 1.474a180.94 180.94 0 01-5.359 4.738c-.735.632-1.891.632-2.521-.211-.631-.737-.631-1.895.105-2.526 4.203-3.685 6.724-6.001 7.144-6.528.105-.105.211-.21.211-.316.42-.315.84-.526 1.365-.421.526.106.946.316 1.261.737zm-2.837.211c-.105.21-.21.421-.21.737 0-.316 0-.527.21-.737zm-.21 1.368c.105.211.21.527.421.737-.211-.21-.421-.526-.421-.737z" fill="#0E80A4"/><path d="M167.116 160.496c-1.996-.21-3.887.421-5.358 1.685-.735.631-.84 1.789-.105 2.526.63.737 1.786.843 2.522.106.735-.632 1.681-.948 2.626-.843 1.051.106 1.997.632 2.732 1.474.63.737 1.786.843 2.522.211.735-.632.84-1.79.21-2.527-1.366-1.474-3.152-2.421-5.149-2.632zm-60.413-48.956c-14.92-1.473-28.368-8.843-37.824-20.95-9.456-12.003-13.764-27.268-12.293-42.955l6.935.632C62.26 62.163 66.042 75.64 74.448 86.273c8.3 10.633 19.962 17.056 32.99 18.319l-.735 6.948zm-12.398 21.057s-.315.526-.84 1.684c-.316.527-.526 1.158-1.156 2.001-.21.421-.525.842-.84 1.263-.106.211-.316.421-.42.737-.211.211-.316.421-.526.737-.736.947-1.576 2-2.627 2.948l-.735.737c-.21.316-.526.526-.84.737l-1.892 1.579c-2.627 2-5.989 3.895-9.876 5.264-3.888 1.263-8.406 2-13.134 1.579-.63-.105-1.155-.105-1.786-.21-.63-.106-1.156-.211-1.786-.316a19.843 19.843 0 01-3.572-.948l-.946-.316-.84-.315a12.96 12.96 0 01-1.786-.737l-.42-.211-.526-.21-.84-.422c-.526-.315-1.051-.526-1.682-.947-.63-.421-1.155-.737-1.786-1.158l-1.576-1.264c-.21-.21-.525-.421-.735-.631l-.736-.737c-.42-.527-1.05-.948-1.47-1.474-.421-.527-.841-1.053-1.367-1.579-.42-.527-.735-1.159-1.155-1.685-.42-.526-.736-1.158-1.051-1.79l-.525-.947c-.21-.316-.316-.632-.42-.948-1.156-2.527-1.892-5.369-2.207-8.212-.315-2.842-.315-5.79.315-8.527.105-.737.315-1.369.526-2.106.21-.737.315-1.369.63-2.106l.84-1.895.946-1.895c.315-.632.84-1.263 1.26-2 .421-.632.947-1.158 1.367-1.79.42-.526 1.05-1.053 1.576-1.579.525-.527 1.155-.948 1.68-1.474 4.624-3.685 10.508-5.37 16.181-4.843l1.05.105 1.051.21c.736.106 1.366.211 1.997.422l.945.316.526.105.525.21.946.422.525.21.21.106h.105s.315.21.21.105h.105l.736.421c.315.105.525.211.84.421l.946.632c.315.21.63.421.84.631 1.051.843 2.102 1.79 2.942 2.843 3.573 4.106 5.043 9.475 4.623 14.213-.21 2.421-.735 4.632-1.68 6.633v.105l-.211.211-.105.105-.105.316c-.105.21-.21.421-.315.526 0 .105-.105.211-.21.316l-.21.421c-.21.211-.316.526-.526.737-.315.526-.63.842-1.05 1.263-.316.422-.736.737-1.051 1.159-1.471 1.368-3.152 2.421-4.728 3.158-.84.421-1.576.632-2.417.842-.84.211-1.576.421-2.311.421-2.942.316-5.254-.105-6.724-.526-.736-.211-1.366-.421-1.682-.632-.42-.105-.525-.21-.525-.21-1.996-.843-3.047-3.159-2.206-5.159.84-2 3.152-3.053 5.148-2.211l.315.105s.105 0 .315.106c.21.105.526.21.84.315.736.316 1.997.527 3.573.422 1.576-.106 3.467-.737 5.148-2.211l.63-.632c.211-.211.421-.421.526-.632.105-.105.105-.21.21-.316l.105-.105s.105-.105.105-.21c.106-.211.21-.422.316-.527l.21-.316.105-.105c0 .105.105-.211-.105.105v-.105c.63-1.263.945-2.632 1.156-4.106.315-2.948-.526-6.422-2.732-9.054-.526-.737-1.156-1.263-1.891-1.895-.21-.211-.316-.316-.526-.421l-.525-.316c-.105-.105-.42-.316-.63-.421l-.526-.211c-.42-.21-.84-.316-1.26-.526l-.316-.106-.315-.105-.736-.316c-.42-.21-.945-.21-1.47-.316l-.736-.105-.735-.105c-3.993-.421-8.406.632-11.768 3.264-.42.315-.84.631-1.26 1.052-.42.422-.841.737-1.156 1.159-.316.421-.736.842-1.051 1.263-.315.421-.525.737-.84 1.263l-.841 1.58-.63 1.579c-.21.526-.42 1.053-.526 1.579-.315.421-.42.947-.525 1.474-.526 2.211-.63 4.527-.42 6.843.21 2.316.735 4.527 1.576 6.633.105.21.21.526.315.737l.42.737c.315.526.525 1.053.84 1.474.316.526.631.947.946 1.368.315.422.736.843 1.05 1.369.316.421.736.842 1.157 1.263l.525.632c.21.211.42.316.63.527.42.315.84.737 1.261 1.052.42.316.84.632 1.26.843a6.78 6.78 0 001.472.842l.735.421.21.105.105.106c.106.105-.105 0-.105 0l.42.21c.526.211 1.051.421 1.472.632l.735.316c.21.105.525.21.736.21 1.05.316 1.996.737 3.047.842l1.575.316c.526.106 1.051.106 1.576.211 4.098.421 7.986 0 11.453-1.053 3.467-1.053 6.409-2.632 8.825-4.316.63-.422 1.156-.948 1.681-1.369.316-.211.526-.421.736-.632.21-.21.42-.421.735-.632.946-.842 1.681-1.789 2.417-2.632.21-.21.315-.421.525-.631.105-.211.315-.421.42-.632.21-.421.526-.737.736-1.053.525-.631.84-1.368 1.156-1.79l.945-1.579c.526-.842 1.576-1.158 2.417-.737.63.527.945 1.58.525 2.422z" fill="#0E80A4"/><path d="M153.773 140.703c-.736 18.846-16.075 30.742-34.462 30.005-18.387-.737-32.78-13.791-32.045-32.531.735-18.846 16.705-47.482 35.092-46.745 18.387.737 32.15 30.531 31.415 49.271z" fill="#0E80A4"/><path d="M141.585 145.02c-.42 11.265-9.666 18.424-20.593 18.003-11.032-.421-19.647-8.212-19.227-19.477.42-11.265 9.981-28.426 21.013-28.005 10.927.316 19.227 18.214 18.807 29.479z" fill="#fff"/><path d="M153.563 67.954c.105-2.527-.42-4.843-1.261-7.16-2.206-11.264-8.721-20.213-21.539-22.845-3.047-1.158-10.296-2.316-12.398-7.16-.42-.736-.525-1.473-.525-1.789-1.051.316-3.362 1.158-5.358 3.158-1.891 1.895-2.627 4.001-2.942 4.949-.42-.21-1.576-.632-2.417-1.79-1.05-1.369-1.05-2.737-.945-3.159-.946.737-1.997 1.79-2.942 3.159-1.681 2.632-1.996 5.474-1.891 7.58-5.359 3.159-8.3 7.686-9.982 12.95-2.311 3.263-3.677 6.843-3.782 10.738-.105 3.264.63 6.317 2.101 9.16 1.366 17.055 13.029 28.005 32.781 28.005 21.118 0 30.259-9.37 30.785-31.058v-2c.105-.843.21-1.79.315-2.738z" fill="#0E80A4"/><path d="M90.418 66.375c-.21-6.843 2.836-13.055 7.985-17.792a13.967 13.967 0 00-8.09-2.211c-7.46.21-13.449 5.895-13.239 12.844.21 6.949 6.41 12.423 13.974 12.318h.105c-.42-1.58-.735-3.37-.735-5.159zm59.993-21.267c-2.942.106-5.674.948-7.88 2.527 5.463 4.422 8.825 10.633 9.035 17.477 0 1.79-.105 3.474-.525 5.158 7.46-.21 13.449-5.895 13.239-12.844-.211-6.949-6.41-12.423-13.869-12.318z" fill="#0E80A4"/><path d="M157.66 78.588c.316 11.054-14.079 26.636-36.038 27.057-21.959.526-36.983-13.792-37.298-24.847-.105-5.158 1.05-11.475 7.46-12.317 7.25-.843 17.125 3.053 28.893 2.842 12.503-.316 21.644-5.79 28.998-4.948 5.464.737 7.775 7.37 7.985 12.213z" fill="#0E80A4"/><path d="M148.099 79.535c.315 10.423-9.666 23.057-25.426 23.372-15.76.316-28.998-11.054-29.314-21.477-.21-6.106 1.997-10.107 9.772-10.633 5.463-.421 12.082-.106 18.597-.21 5.883-.106 11.242-.738 15.76-.843 7.774-.316 10.401 3.158 10.611 9.791z" fill="#fff"/><path d="M93.885 78.272c5.778.105 19.963-6.528 26.687-6.738 6.829-.106 20.593 3.58 26.372 3.263 1.155-1.684-5.359-7.79-5.149-10.001.736-6.528-4.097-12.318-10.611-12.845-4.413-.316-8.511 1.685-10.927 5.054-2.627-3.264-6.83-5.159-11.137-4.527-6.515.947-11.032 6.843-9.877 13.37.315 2.106-6.619 10.844-5.358 12.424z" fill="#fff"/><path d="M120.467 74.376c-1.471.105-2.732 0-3.888-.105.421.316 1.786 1.369 3.888 1.263 2.101-.105 3.467-1.158 3.782-1.579-1.05.21-2.311.421-3.782.421zm-3.993-8.106c-.21 2.526-2.206 4.421-4.413 4.21-2.311-.21-3.887-2.42-3.677-4.842.21-2.527 2.207-4.422 4.413-4.211 2.206.21 3.887 2.316 3.677 4.843z" fill="#0E80A4"/><path d="M112.587 63.216c-.105 1.053-.946 1.895-1.891 1.79-.946-.105-1.681-.947-1.576-2.105.105-1.053.945-1.896 1.891-1.79.945.105 1.576 1.053 1.576 2.105z" fill="#fff"/><path d="M133.705 66.48c-.21 2.527-2.206 4.422-4.413 4.211-2.311-.21-3.887-2.421-3.677-4.948.21-2.527 2.206-4.422 4.413-4.211 2.206.21 3.887 2.421 3.677 4.948z" fill="#0E80A4"/><path d="M130.133 63.006c-.105 1.053-.946 1.895-1.891 1.79-.946-.106-1.681-.948-1.576-2.106.105-1.053.945-1.895 1.891-1.79.945.105 1.681.948 1.576 2.106z" fill="#fff"/><path d="M100.189 209.136c-11.873-14.95-10.717-51.377-4.098-56.325l5.464 7.475c.735 2-.21 6.632-.841 11.265-1.05 8.001-3.362 19.055 6.619 31.689l-7.144 5.896zm39.715-1.053c11.873-14.95 10.717-51.377 4.098-56.325l-5.464 7.475c-.735 2 .21 6.632.841 11.265 1.05 8.001 3.362 19.056-6.619 31.69l7.144 5.895z" fill="#0E80A4"/><path d="M105.547 82.799s3.467 8.738 16.286 8.738c12.818-.21 13.973-9.896 13.973-9.896" stroke="#0E80A4" stroke-miterlimit="10"/><path d="M64.781 41.844c0-1.158-.525-2.21-1.366-2.947-1.47-1.37-4.307-2.527-3.572-4.949.21-.737.526-1.368.315-2.21-.21-.738-.735-1.053-1.47-1.159-1.577-.21-3.047.948-3.888 2.211-1.576 2.422-1.786 6.001-1.576 6.528-.105-.106-2.732-1.685-4.728-1.369-.946.105-2.101.737-2.416 1.684-.316.632 0 1.685.42 2.211-1.05.211-1.681 1.474-1.891 2.527-.21 1.369.315 1.895 1.05 2.948-.84.737-.735 2.843-.315 3.79.42.842 1.576 1.58 2.417 2 2.1 1.053 3.992 1.053 6.619 1.37 2.206.21 6.934-1.159 9.035-2.422 3.573-2.527 1.261-9.476 1.366-10.213z" fill="#0E80A4"/><path d="M61.21 50.372s-2.523 2.211-3.468 2.948c-.63.421-1.891 1.684-2.417 1.895-1.68.526-3.047 1.369-6.724-.21-2.942-1.264-3.782-4.633-3.782-4.633l15.13-1.053 1.26 1.053z" fill="#0E80A4"/><path d="M45.554 52.162c0 .21.315.316.42.421.106.21.21.421.42.526.21.21.21.737 2.838 1.79.315.105.63.21.84.316.63.21.946.21 1.681.316.63 0 1.156 0 1.786-.105.526-.106 1.156-.211 1.576-.422l.63-.315c.106-.106.21-.106.21-.211.106-.21 0-.737-.104-.947-.21-.632 0-.737.105-.527.105.21.315.421.315.632.105.21.105.42.105.737 0 .105-.105.316-.105.316-.105.105-.105.21-.21.315-.21.106-.42.316-.63.422-.526.21-1.051.315-1.576.42-.63.106-1.156.211-1.787.211-.63 0-1.365-.21-1.996-.42l-.946-.317c-.315-.105-.63-.21-.84-.42-.525-.317-1.05-.633-1.576-.948-.21-.21-.42-.421-.63-.527-.21-.21-.316-.42-.42-.631l-.316-.632c0-.21.105-.105.21 0z" fill="#fff"/><path d="M52.909 38.791l.315.632s-.63-.21-.63-.316c-.105 0-.526-.316-.63-.316-1.051-.526-1.682-.631-1.787-.631-1.366-.211-1.891-.106-2.206 0-.946.42-1.261.631-1.366.842-.315.316-.525.737-.525.947 0 .316-.106.737.105 1.474.21.527.315.632.42.737 0 0 .105.21.735.632.526.316.736.421.84.526.421.21.841.421 1.157.527.42.105 1.68.737 3.782 1.158.42.105.84.105 1.26.105.421 0 .841 0 1.157-.105.105 0 .21-.105.315-.105.105 0 .42-.106.63-.527a.805.805 0 00.21-.526c0-.21.105-.316.105-.527 0-.316-.105-.631-.21-.947-.105-.316-.315-.527-.525-.737-.315-.316-.946-.632-1.05-.632-.106-.105-.526-.21-.631-.316 0 0-1.05-.42-1.156-.42-.21-.106-.315-.106-.315-.106-.526-.105-.526-.21 0-.105 0 0 .42.105 1.786.631.105 0 .21.105.315.105.105.106.21.106.315.211.21.105.526.316.736.526.21.211.42.422.63.738.21.315.315.631.315 1.052 0 .21 0 .421-.105.527 0 .21-.105.42-.21.526-.42.421-.63.526-.735.526-.105 0-.21.106-.316.106-.42.105-.84.105-1.26.105-.42 0-.84-.105-1.261-.105l-1.26-.316c-.106 0-1.262-.316-3.783-1.369-1.05-.631-1.261-.737-1.261-.842l-.315-.316c-.105-.21-.316-.316-.42-.526 0-.105-.21-.527-.21-.527s-.106-.526-.106-.737v-.631c0-.105.105-.421.21-.632.106-.21.21-.316.42-.526.106-.106.946-.948 2.522-1.053 0 0 .63 0 1.892.316.525.21.945.316 1.365.526 0 .105.736.421.736.421z" fill="#fff" stroke="#fff" stroke-width=".25" stroke-miterlimit="10"/><path d="M46.29 41.634l.105.526s-.316 0-.63.316c-.21.21-.42.421-.526.737-.105.21-.105.316-.21.526-.105.211-.105.422-.105.632v.737c0 .21.105.527.21.737.105.21.21.526.42.737.84.842 1.681 1.263 2.312 1.474l.945.316c.21 0 .84.105.946.21.63.106 1.366.21 1.996.21h1.891c.105 0 1.261-.104 1.366-.21.105 0 .526-.105 1.156-.42.21-.106.42-.317.525-.527.105-.105.105-.21.21-.316.105-.21.21-.737.21-.948 0-.21 0-.42-.104-.526 0-.21-.106-.316-.21-.421-.106-.105-.106-.21-.21-.316-.421-.21-.631-.21-.631-.21.105 0 .21-.106.21-.106s.21 0 .525.21l.316.317c.21.316.21.631.21 1.052 0 .211 0 .632-.21 1.053 0 .105-.106.21-.21.316-.106.21-.316.421-.631.526-.735.422-1.05.422-1.26.422-.106 0-.421.105-.421.105-.105 0-.84.105-.946.105-.315 0-.63 0-.945.105h-.946c-.63 0-1.366-.105-1.996-.21-.21 0-.84-.105-1.05-.21l-.946-.316c-2.417-.948-2.312-1.264-2.522-1.58-.21-.21-.315-.526-.42-.842-.105-.316-.21-.632-.21-.842v-.843c.105-.526.21-1.052.42-1.368.21-.421.42-.737.63-.948.315-.21.736-.21.736-.21zm-1.471 8.317c0 .21.21.527.315.842.105.211.21.527.42.737.21.211.21.948 3.152 2.106.315.105.63.21.946.21.735.106 1.26.211 2.101.211.736 0 1.471-.105 2.101-.316.63-.21 1.366-.42 1.892-.737.315-.21.525-.316.84-.526l.315-.316c.21-.316.21-1.053.21-1.263 0-.316-.105-.527-.315-.737-.315-.632-.84-.737-1.786-.948-.21 0-.315 0-.525-.105h-1.261s.315-.105.525-.105h1.261c.105 0 .736.105.946.21.525.21.735.527.84.737.105.21.21.527.316.842v.948c0 .21-.106.421-.21.421-.106.105-.21.316-.316.421-.21.21-.525.421-.84.632-.63.316-1.261.632-1.997.842a7.986 7.986 0 01-2.206.316c-.736 0-1.471 0-2.206-.21-.316-.106-.736-.211-1.051-.316-.315-.106-.63-.211-.946-.422a9.077 9.077 0 01-1.68-1.052l-.631-.632c-.21-.21-.315-.526-.42-.737-.105-.21-.21-.526-.21-.737.21-.421.315-.526.42-.316z" fill="#fff" stroke="#fff" stroke-width=".25" stroke-miterlimit="10"/></g><path d="M132.865 100.802l-1.366 7.054c13.238 2.632 24.48 10.633 31.835 22.319 7.355 11.792 9.876 26.11 7.145 40.218l7.039 1.368c3.152-15.897.315-32.11-8.09-45.481-8.511-13.371-21.434-22.425-36.563-25.478zm-26.162 10.738c-14.92-1.473-28.368-8.843-37.824-20.95-9.456-12.003-13.764-27.268-12.293-42.955l6.935.632C62.26 62.163 66.042 75.64 74.448 86.273c8.3 10.633 19.962 17.056 32.99 18.319l-.735 6.948zm-12.398 21.057s-.315.526-.84 1.684c-.316.527-.526 1.158-1.156 2.001-.21.421-.525.842-.84 1.263-.106.211-.316.421-.42.737-.211.211-.316.421-.526.737-.736.947-1.576 2-2.627 2.948l-.735.737c-.21.316-.526.526-.84.737l-1.892 1.579c-2.627 2-5.989 3.895-9.876 5.264-3.888 1.263-8.406 2-13.134 1.579-.63-.105-1.155-.105-1.786-.21-.63-.106-1.156-.211-1.786-.316a19.843 19.843 0 01-3.572-.948l-.946-.316-.84-.315a12.96 12.96 0 01-1.786-.737l-.42-.211-.526-.21-.84-.422c-.526-.315-1.051-.526-1.682-.947-.63-.421-1.155-.737-1.786-1.158l-1.576-1.264c-.21-.21-.525-.421-.735-.631l-.736-.737c-.42-.527-1.05-.948-1.47-1.474-.421-.527-.841-1.053-1.367-1.579-.42-.527-.735-1.159-1.155-1.685-.42-.526-.736-1.158-1.051-1.79l-.525-.947c-.21-.316-.316-.632-.42-.948-1.156-2.527-1.892-5.369-2.207-8.212-.315-2.842-.315-5.79.315-8.527.105-.737.315-1.369.526-2.106.21-.737.315-1.369.63-2.106l.84-1.895.946-1.895c.315-.632.84-1.263 1.26-2 .421-.632.947-1.158 1.367-1.79.42-.526 1.05-1.053 1.576-1.579.525-.527 1.155-.948 1.68-1.474 4.624-3.685 10.508-5.37 16.181-4.843l1.05.105 1.051.21c.736.106 1.366.211 1.997.422l.945.316.526.105.525.21.946.422.525.21.21.106h.105s.315.21.21.105h.105l.736.421c.315.105.525.211.84.421l.946.632c.315.21.63.421.84.631 1.051.843 2.102 1.79 2.942 2.843 3.573 4.106 5.043 9.475 4.623 14.213-.21 2.421-.735 4.632-1.68 6.633v.105l-.211.211-.105.105-.105.316c-.105.21-.21.421-.315.526 0 .105-.105.211-.21.316l-.21.421c-.21.211-.316.526-.526.737-.315.526-.63.842-1.05 1.263-.316.422-.736.737-1.051 1.159-1.471 1.368-3.152 2.421-4.728 3.158-.84.421-1.576.632-2.417.842-.84.211-1.576.421-2.311.421-2.942.316-5.254-.105-6.724-.526-.736-.211-1.366-.421-1.682-.632-.42-.105-.525-.21-.525-.21-1.996-.843-3.047-3.159-2.206-5.159.84-2 3.152-3.053 5.148-2.211l.315.105s.105 0 .315.106c.21.105.526.21.84.315.736.316 1.997.527 3.573.422 1.576-.106 3.467-.737 5.148-2.211l.63-.632c.211-.211.421-.421.526-.632.105-.105.105-.21.21-.316l.105-.105s.105-.105.105-.21c.106-.211.21-.422.316-.527l.21-.316.105-.105c0 .105.105-.211-.105.105v-.105c.63-1.263.945-2.632 1.156-4.106.315-2.948-.526-6.422-2.732-9.054-.526-.737-1.156-1.263-1.891-1.895-.21-.211-.316-.316-.526-.421l-.525-.316c-.105-.105-.42-.316-.63-.421l-.526-.211c-.42-.21-.84-.316-1.26-.526l-.316-.106-.315-.105-.736-.316c-.42-.21-.945-.21-1.47-.316l-.736-.105-.735-.105c-3.993-.421-8.406.632-11.768 3.264-.42.315-.84.631-1.26 1.052-.42.422-.841.737-1.156 1.159-.316.421-.736.842-1.051 1.263-.315.421-.525.737-.84 1.263l-.841 1.58-.63 1.579c-.21.526-.42 1.053-.526 1.579-.315.421-.42.947-.525 1.474-.526 2.211-.63 4.527-.42 6.843.21 2.316.735 4.527 1.576 6.633.105.21.21.526.315.737l.42.737c.315.526.525 1.053.84 1.474.316.526.631.947.946 1.368.315.422.736.843 1.05 1.369.316.421.736.842 1.157 1.263l.525.632c.21.211.42.316.63.527.42.315.84.737 1.261 1.052.42.316.84.632 1.26.843a6.78 6.78 0 001.472.842l.735.421.21.105.105.106c.106.105-.105 0-.105 0l.42.21c.526.211 1.051.421 1.472.632l.735.316c.21.105.525.21.736.21 1.05.316 1.996.737 3.047.842l1.575.316c.526.106 1.051.106 1.576.211 4.098.421 7.986 0 11.453-1.053 3.467-1.053 6.409-2.632 8.825-4.316.63-.422 1.156-.948 1.681-1.369.316-.211.526-.421.736-.632.21-.21.42-.421.735-.632.946-.842 1.681-1.789 2.417-2.632.21-.21.315-.421.525-.631.105-.211.315-.421.42-.632.21-.421.526-.737.736-1.053.525-.631.84-1.368 1.156-1.79l.945-1.579c.526-.842 1.576-1.158 2.417-.737.63.527.945 1.58.525 2.422z" fill="#0E80A4"/><path d="M153.563 67.954c.105-2.527-.42-4.843-1.261-7.16-2.206-11.264-8.721-20.213-21.539-22.845-3.047-1.158-10.296-2.316-12.398-7.16-.42-.736-.525-1.473-.525-1.789-1.051.316-3.362 1.158-5.358 3.158-1.891 1.895-2.627 4.001-2.942 4.949-.42-.21-1.576-.632-2.417-1.79-1.05-1.369-1.05-2.737-.945-3.159-.946.737-1.997 1.79-2.942 3.159-1.681 2.632-1.996 5.474-1.891 7.58-5.359 3.159-8.3 7.686-9.982 12.95-2.311 3.263-3.677 6.843-3.782 10.738-.105 3.264.63 6.317 2.101 9.16 1.366 17.055 13.029 28.005 32.781 28.005 21.118 0 30.259-9.37 30.785-31.058v-2c.105-.843.21-1.79.315-2.738z" fill="#0E80A4"/><path d="M90.418 66.375c-.21-6.843 2.836-13.055 7.985-17.792a13.967 13.967 0 00-8.09-2.211c-7.46.21-13.449 5.895-13.239 12.844.21 6.949 6.41 12.423 13.974 12.318h.105c-.42-1.58-.735-3.37-.735-5.159zm59.993-21.267c-2.942.106-5.674.948-7.88 2.527 5.463 4.422 8.825 10.633 9.035 17.477 0 1.79-.105 3.474-.525 5.158 7.46-.21 13.449-5.895 13.239-12.844-.211-6.949-6.41-12.423-13.869-12.318z" fill="#0E80A4"/><path d="M157.66 78.588c.316 11.054-14.079 26.636-36.038 27.057-21.959.526-36.983-13.792-37.298-24.847-.105-5.158 1.05-11.475 7.46-12.317 7.25-.843 17.125 3.053 28.893 2.842 12.503-.316 21.644-5.79 28.998-4.948 5.464.737 7.775 7.37 7.985 12.213z" fill="#0E80A4"/><path d="M148.099 79.535c.315 10.423-9.666 23.057-25.426 23.372-15.76.316-28.998-11.054-29.314-21.477-.21-6.106 1.997-10.107 9.772-10.633 5.463-.421 12.082-.106 18.597-.21 5.883-.106 11.242-.738 15.76-.843 7.774-.316 10.401 3.158 10.611 9.791z" fill="#fff"/><path d="M93.885 78.272c5.778.105 19.963-6.528 26.687-6.738 6.829-.106 20.593 3.58 26.372 3.263 1.155-1.684-5.359-7.79-5.149-10.001.736-6.528-4.097-12.318-10.611-12.845-4.413-.316-8.511 1.685-10.927 5.054-2.627-3.264-6.83-5.159-11.137-4.527-6.515.947-11.032 6.843-9.877 13.37.315 2.106-6.619 10.844-5.358 12.424z" fill="#fff"/><path d="M120.467 74.376c-1.471.105-2.732 0-3.888-.105.421.316 1.786 1.369 3.888 1.263 2.101-.105 3.467-1.158 3.782-1.579-1.05.21-2.311.421-3.782.421zm-3.993-8.106c-.21 2.526-2.206 4.421-4.413 4.21-2.311-.21-3.887-2.42-3.677-4.842.21-2.527 2.207-4.422 4.413-4.211 2.206.21 3.887 2.316 3.677 4.843z" fill="#0E80A4"/><path d="M112.587 63.216c-.105 1.053-.946 1.895-1.891 1.79-.946-.105-1.681-.947-1.576-2.105.105-1.053.945-1.896 1.891-1.79.945.105 1.576 1.053 1.576 2.105z" fill="#fff"/><path d="M133.705 66.48c-.21 2.527-2.206 4.422-4.413 4.211-2.311-.21-3.887-2.421-3.677-4.948.21-2.527 2.206-4.422 4.413-4.211 2.206.21 3.887 2.421 3.677 4.948z" fill="#0E80A4"/><path d="M130.133 63.006c-.105 1.053-.946 1.895-1.891 1.79-.946-.106-1.681-.948-1.576-2.106.105-1.053.945-1.895 1.891-1.79.945.105 1.681.948 1.576 2.106z" fill="#fff"/><path d="M105.547 82.799s3.467 8.738 16.286 8.738c12.818-.21 13.973-9.896 13.973-9.896" stroke="#0E80A4" stroke-miterlimit="10"/><path d="M64.781 41.844c0-1.158-.525-2.21-1.366-2.947-1.47-1.37-4.307-2.527-3.572-4.949.21-.737.526-1.368.315-2.21-.21-.738-.735-1.053-1.47-1.159-1.577-.21-3.047.948-3.888 2.211-1.576 2.422-1.786 6.001-1.576 6.528-.105-.106-2.732-1.685-4.728-1.369-.946.105-2.101.737-2.416 1.684-.316.632 0 1.685.42 2.211-1.05.211-1.681 1.474-1.891 2.527-.21 1.369.315 1.895 1.05 2.948-.84.737-.735 2.843-.315 3.79.42.842 1.576 1.58 2.417 2 2.1 1.053 3.992 1.053 6.619 1.37 2.206.21 6.934-1.159 9.035-2.422 3.573-2.527 1.261-9.476 1.366-10.213z" fill="#0E80A4"/><path d="M61.21 50.372s-2.523 2.211-3.468 2.948c-.63.421-1.891 1.684-2.417 1.895-1.68.526-3.047 1.369-6.724-.21-2.942-1.264-3.782-4.633-3.782-4.633l15.13-1.053 1.26 1.053z" fill="#0E80A4"/><path d="M45.554 52.162c0 .21.315.316.42.421.106.21.21.421.42.526.21.21.21.737 2.838 1.79.315.105.63.21.84.316.63.21.946.21 1.681.316.63 0 1.156 0 1.786-.105.526-.106 1.156-.211 1.576-.422l.63-.315c.106-.106.21-.106.21-.211.106-.21 0-.737-.104-.947-.21-.632 0-.737.105-.527.105.21.315.421.315.632.105.21.105.42.105.737 0 .105-.105.316-.105.316-.105.105-.105.21-.21.315-.21.106-.42.316-.63.422-.526.21-1.051.315-1.576.42-.63.106-1.156.211-1.787.211-.63 0-1.365-.21-1.996-.42l-.946-.317c-.315-.105-.63-.21-.84-.42-.525-.317-1.05-.633-1.576-.948-.21-.21-.42-.421-.63-.527-.21-.21-.316-.42-.42-.631l-.316-.632c0-.21.105-.105.21 0z" fill="#fff"/><path d="M52.909 38.791l.315.632s-.63-.21-.63-.316c-.105 0-.526-.316-.63-.316-1.051-.526-1.682-.631-1.787-.631-1.366-.211-1.891-.106-2.206 0-.946.42-1.261.631-1.366.842-.315.316-.525.737-.525.947 0 .316-.106.737.105 1.474.21.527.315.632.42.737 0 0 .105.21.735.632.526.316.736.421.84.526.421.21.841.421 1.157.527.42.105 1.68.737 3.782 1.158.42.105.84.105 1.26.105.421 0 .841 0 1.157-.105.105 0 .21-.105.315-.105.105 0 .42-.106.63-.527a.805.805 0 00.21-.526c0-.21.105-.316.105-.527 0-.316-.105-.631-.21-.947-.105-.316-.315-.527-.525-.737-.315-.316-.946-.632-1.05-.632-.106-.105-.526-.21-.631-.316 0 0-1.05-.42-1.156-.42-.21-.106-.315-.106-.315-.106-.526-.105-.526-.21 0-.105 0 0 .42.105 1.786.631.105 0 .21.105.315.105.105.106.21.106.315.211.21.105.526.316.736.526.21.211.42.422.63.738.21.315.315.631.315 1.052 0 .21 0 .421-.105.527 0 .21-.105.42-.21.526-.42.421-.63.526-.735.526-.105 0-.21.106-.316.106-.42.105-.84.105-1.26.105-.42 0-.84-.105-1.261-.105l-1.26-.316c-.106 0-1.262-.316-3.783-1.369-1.05-.631-1.261-.737-1.261-.842l-.315-.316c-.105-.21-.316-.316-.42-.526 0-.105-.21-.527-.21-.527s-.106-.526-.106-.737v-.631c0-.105.105-.421.21-.632.106-.21.21-.316.42-.526.106-.106.946-.948 2.522-1.053 0 0 .63 0 1.892.316.525.21.945.316 1.365.526 0 .105.736.421.736.421z" fill="#fff" stroke="#fff" stroke-width=".25" stroke-miterlimit="10"/><path d="M46.29 41.634l.105.526s-.316 0-.63.316c-.21.21-.42.421-.526.737-.105.21-.105.316-.21.526-.105.211-.105.422-.105.632v.737c0 .21.105.527.21.737.105.21.21.526.42.737.84.842 1.681 1.263 2.312 1.474l.945.316c.21 0 .84.105.946.21.63.106 1.366.21 1.996.21h1.891c.105 0 1.261-.104 1.366-.21.105 0 .526-.105 1.156-.42.21-.106.42-.317.525-.527.105-.105.105-.21.21-.316.105-.21.21-.737.21-.948 0-.21 0-.42-.104-.526 0-.21-.106-.316-.21-.421-.106-.105-.106-.21-.21-.316-.421-.21-.631-.21-.631-.21.105 0 .21-.106.21-.106s.21 0 .525.21l.316.317c.21.316.21.631.21 1.052 0 .211 0 .632-.21 1.053 0 .105-.106.21-.21.316-.106.21-.316.421-.631.526-.735.422-1.05.422-1.26.422-.106 0-.421.105-.421.105-.105 0-.84.105-.946.105-.315 0-.63 0-.945.105h-.946c-.63 0-1.366-.105-1.996-.21-.21 0-.84-.105-1.05-.21l-.946-.316c-2.417-.948-2.312-1.264-2.522-1.58-.21-.21-.315-.526-.42-.842-.105-.316-.21-.632-.21-.842v-.843c.105-.526.21-1.052.42-1.368.21-.421.42-.737.63-.948.315-.21.736-.21.736-.21zm-1.471 8.317c0 .21.21.527.315.842.105.211.21.527.42.737.21.211.21.948 3.152 2.106.315.105.63.21.946.21.735.106 1.26.211 2.101.211.736 0 1.471-.105 2.101-.316.63-.21 1.366-.42 1.892-.737.315-.21.525-.316.84-.526l.315-.316c.21-.316.21-1.053.21-1.263 0-.316-.105-.527-.315-.737-.315-.632-.84-.737-1.786-.948-.21 0-.315 0-.525-.105h-1.261s.315-.105.525-.105h1.261c.105 0 .736.105.946.21.525.21.735.527.84.737.105.21.21.527.316.842v.948c0 .21-.106.421-.21.421-.106.105-.21.316-.316.421-.21.21-.525.421-.84.632-.63.316-1.261.632-1.997.842a7.986 7.986 0 01-2.206.316c-.736 0-1.471 0-2.206-.21-.316-.106-.736-.211-1.051-.316-.315-.106-.63-.211-.946-.422a9.077 9.077 0 01-1.68-1.052l-.631-.632c-.21-.21-.315-.526-.42-.737-.105-.21-.21-.526-.21-.737.21-.421.315-.526.42-.316z" fill="#fff" stroke="#fff" stroke-width=".25" stroke-miterlimit="10"/></svg>