<svg width="20" height="20" fill="none" xmlns="http://www.w3.org/2000/svg"><circle cx="9.649" cy="6.065" stroke="#979797" stroke-linecap="round" stroke-linejoin="round" r="3.982"/><path clip-rule="evenodd" d="M3.333 15.584c0-.28.062-.556.183-.808.382-.763 1.457-1.167 2.35-1.35.643-.138 1.296-.23 1.953-.275a20.873 20.873 0 013.653 0c.657.046 1.31.138 1.953.275.892.183 1.968.549 2.35 1.35.244.514.244 1.11 0 1.625-.382.8-1.458 1.167-2.35 1.342a13 13 0 01-1.953.282c-.99.084-1.983.1-2.975.046-.228 0-.45 0-.678-.046a12.852 12.852 0 01-1.946-.282c-.9-.175-1.968-.541-2.357-1.342a1.9 1.9 0 01-.183-.817z" stroke="#979797" stroke-linecap="round" stroke-linejoin="round"/></svg>