<svg width="124" height="123" fill="none" xmlns="http://www.w3.org/2000/svg"><path d="M88.891 2.364C69.086-3.523 52.897 1.658 48 17.095c-4.908 15.484-.872 31.263-18.654 37.633C14.772 59.803-2.33 68.754.263 93.822c2.465 23.786 15.844 28.166 32.98 29.132 18.234 1.036 37.78-15.779 54.755-7.572 15.758 7.619 33.539 9.314 35.875-12.705 1.367-12.894-8.729-17.204-10.645-27.248-2.659-13.918 2.659-19.135 4.262-28.437 3.972-23.114-9.612-38.069-28.599-44.628z" fill="#91DFEB"/><mask id="a" maskUnits="userSpaceOnUse" x="0" y="0" width="124" height="123"><path d="M88.891 2.364C69.086-3.523 52.897 1.658 48 17.095c-4.908 15.484-.872 31.263-18.654 37.633C14.772 59.803-2.33 68.754.263 93.822c2.465 23.786 15.844 28.166 32.98 29.132 18.234 1.036 37.78-15.779 54.755-7.572 15.758 7.619 33.539 9.314 35.875-12.705 1.367-12.894-8.729-17.204-10.645-27.248-2.659-13.918 2.659-19.135 4.262-28.437 3.972-23.114-9.612-38.069-28.599-44.628z" fill="#91DFEB"/></mask><g mask="url(#a)"><path d="M83.794 69.266l-.862 4.847c8.35 1.809 15.44 7.307 20.078 15.337 4.638 8.102 6.229 17.941 4.506 27.635l4.439.941c1.988-10.924.199-22.065-5.102-31.253-5.367-9.187-13.517-15.409-23.06-17.507z" fill="#0E80A4"/><path d="M110.631 110.864c2.186.796 2.12 3.472 1.325 6.004-.729 2.605-1.922 4.124-4.108 3.328-2.187-.796-3.38-3.472-2.585-6.077.729-2.532 3.181-3.979 5.368-3.255z" fill="#0E80A4"/><path d="M109.835 113.685c-.331 0-.596.073-.861.29-.464.434-.53 1.229-.066 1.736.596.723.861 1.736.795 2.821-.066 1.085-.596 2.098-1.325 2.822-.464.434-.53 1.23-.133 1.736.398.506 1.127.579 1.59.145 1.193-1.158 1.988-2.749 2.121-4.413.132-1.737-.331-3.401-1.325-4.63-.265-.362-.464-.507-.796-.507z" fill="#0E80A4"/><path d="M107.781 114.698c-.331 0-.596.072-.861.289-.464.434-.53 1.23-.133 1.737.994 1.229.265 3.834-1.722 5.715-.464.434-.531 1.23-.133 1.736s1.126.579 1.59.145c2.916-2.822 3.777-6.873 1.922-9.188-.133-.289-.398-.362-.663-.434z" fill="#0E80A4"/><path d="M106.589 113.758c-.332 0-.597.072-.862.289a1.236 1.236 0 00-.132 1.664c.066.506-.795 2.604-3.313 5.064-.398.434-.597 1.085-.265 1.664.397.651 1.192.723 1.722.289 1.458-1.374 2.651-2.966 3.38-4.34 1.192-2.315.795-3.545.265-4.196-.265-.29-.53-.434-.795-.434z" fill="#0E80A4"/><path d="M107.185 113.902c.729.868-.067 1.736-.398 2.098-.265.217-.596.579-.994 1.013-.861.868-2.054 2.026-3.379 3.255-.464.435-1.193.435-1.59-.144-.398-.507-.398-1.302.066-1.736 2.65-2.533 4.241-4.124 4.506-4.486.066-.072.132-.144.132-.217.265-.217.53-.362.862-.289.331.072.596.217.795.506zm-1.789.145c-.067.145-.133.289-.133.506 0-.217 0-.361.133-.506zm-.133.94c.066.145.133.362.265.507-.132-.145-.265-.362-.265-.507z" fill="#0E80A4"/><path d="M105.396 110.285c-1.259-.145-2.452.289-3.38 1.158-.463.434-.53 1.229-.066 1.736.398.506 1.127.579 1.59.072.464-.434 1.061-.651 1.657-.579.663.073 1.259.434 1.723 1.013.397.507 1.126.579 1.59.145.464-.434.53-1.23.133-1.736-.862-1.013-1.988-1.664-3.247-1.809zm-38.101-33.64c-9.41-1.013-17.891-6.077-23.855-14.396C37.476 54 34.76 43.51 35.687 32.732l4.374.434c-.795 9.55 1.59 18.81 6.891 26.116 5.235 7.307 12.59 11.72 20.806 12.588l-.463 4.775zm-7.819 14.469s-.2.362-.53 1.157c-.2.362-.332.796-.73 1.375-.132.29-.33.579-.53.868-.066.145-.198.29-.265.507-.132.144-.198.289-.33.506-.465.651-.995 1.374-1.657 2.025l-.464.507c-.133.217-.332.362-.53.506l-1.193 1.085c-1.657 1.375-3.777 2.677-6.229 3.618-2.452.868-5.3 1.374-8.283 1.085-.397-.073-.728-.072-1.126-.145-.398-.072-.729-.145-1.127-.217a11.725 11.725 0 01-2.252-.651l-.597-.217-.53-.217a7.75 7.75 0 01-1.126-.506l-.265-.145-.332-.145-.53-.289c-.331-.217-.663-.362-1.06-.651-.398-.29-.729-.507-1.127-.796l-.993-.868c-.133-.145-.332-.29-.464-.434l-.464-.507c-.265-.361-.663-.65-.928-1.013a12.34 12.34 0 00-.861-1.085c-.265-.361-.464-.795-.73-1.157-.264-.362-.463-.796-.662-1.23l-.331-.651c-.133-.217-.199-.434-.265-.651-.729-1.737-1.193-3.69-1.392-5.643-.198-1.953-.198-3.979.2-5.86.065-.506.198-.94.33-1.447.133-.506.2-.94.398-1.447l.53-1.302.597-1.302c.198-.434.53-.868.795-1.375.265-.434.596-.795.861-1.23.265-.361.663-.723.994-1.085.331-.361.729-.65 1.06-1.012 2.916-2.532 6.627-3.69 10.205-3.328l.662.072.663.145c.464.072.861.145 1.259.29l.596.216.332.073.33.144.597.29.332.144.132.073h.066s.2.144.133.072h.066l.464.29c.199.072.331.144.53.289l.596.434c.2.145.398.29.53.434.663.579 1.326 1.23 1.856 1.953 2.253 2.822 3.18 6.511 2.916 9.767-.133 1.663-.464 3.183-1.06 4.557v.073l-.133.144-.066.073-.067.217c-.066.144-.132.29-.199.361 0 .073-.066.145-.132.217l-.133.29c-.132.145-.198.362-.331.506-.199.362-.398.579-.663.868-.198.29-.463.507-.662.796a11.684 11.684 0 01-2.982 2.17c-.53.29-.994.434-1.524.58-.53.144-.994.289-1.458.289-1.855.217-3.313-.073-4.24-.362-.465-.145-.862-.29-1.06-.434-.266-.073-.332-.145-.332-.145-1.26-.579-1.922-2.17-1.392-3.545.53-1.374 1.988-2.098 3.247-1.519l.199.072s.066 0 .199.073c.132.072.331.144.53.217.464.217 1.259.362 2.253.29.994-.073 2.186-.507 3.247-1.52l.397-.434c.133-.145.265-.29.332-.434.066-.073.066-.145.132-.217l.066-.073s.067-.072.067-.144c.066-.145.132-.29.198-.362l.133-.217.066-.072c0 .072.066-.145-.066.072v-.072c.398-.869.596-1.809.729-2.822.199-2.025-.332-4.413-1.723-6.221-.331-.507-.729-.868-1.193-1.303-.132-.144-.199-.217-.331-.289l-.331-.217a2.063 2.063 0 00-.398-.29l-.331-.144c-.265-.145-.53-.217-.795-.362l-.2-.072-.198-.073-.464-.216c-.265-.145-.596-.145-.927-.218l-.464-.072-.464-.072c-2.518-.29-5.301.434-7.422 2.242-.265.218-.53.434-.795.724s-.53.506-.729.796c-.198.289-.463.578-.662.868a9.14 9.14 0 00-.53.868l-.53 1.085-.398 1.085c-.133.362-.265.724-.331 1.085-.2.29-.265.651-.332 1.013-.33 1.52-.397 3.111-.265 4.703.133 1.591.464 3.11.994 4.557.066.145.133.362.199.507l.265.506c.199.362.331.724.53 1.013.199.362.398.651.597.94.198.29.463.58.662.94.199.29.464.58.73.869l.33.434c.133.145.265.217.398.362.265.217.53.506.795.723.265.217.53.434.795.579.265.217.597.434.928.579l.464.29.132.071.067.073c.066.072-.067 0-.067 0l.265.144c.332.145.663.29.928.434l.464.218c.132.072.331.144.464.144.662.217 1.259.507 1.921.579l.994.217c.332.072.663.072.994.145 2.584.289 5.036 0 7.223-.724 2.187-.723 4.042-1.808 5.566-2.966.397-.29.729-.65 1.06-.94.199-.145.331-.29.464-.434.132-.145.265-.29.464-.434.596-.58 1.06-1.23 1.524-1.809.132-.145.199-.29.331-.434.066-.145.199-.29.265-.434.133-.29.331-.507.464-.724.331-.434.53-.94.729-1.23l.596-1.085c.332-.578.994-.795 1.524-.506.398.362.597 1.085.332 1.664z" fill="#0E80A4"/><path d="M96.98 96.684c-.464 12.95-10.138 21.125-21.734 20.618-11.596-.506-20.674-9.477-20.21-22.354.464-12.95 10.536-32.627 22.132-32.12 11.596.506 20.276 20.98 19.812 33.856z" fill="#0E80A4"/><path d="M89.293 99.65c-.265 7.741-6.096 12.661-12.987 12.371-6.957-.289-12.391-5.643-12.126-13.383.265-7.741 6.295-19.533 13.252-19.244 6.892.217 12.127 12.516 11.861 20.256z" fill="#fff"/><path d="M96.848 46.695c.066-1.737-.266-3.328-.796-4.92-1.391-7.74-5.5-13.89-13.583-15.698-1.922-.796-6.494-1.592-7.82-4.92a2.905 2.905 0 01-.33-1.23 8.02 8.02 0 00-3.38 2.17c-1.193 1.303-1.657 2.75-1.855 3.4-.266-.144-.994-.433-1.525-1.229-.662-.94-.662-1.881-.596-2.17a9.615 9.615 0 00-1.855 2.17c-1.06 1.809-1.26 3.762-1.193 5.209-3.38 2.17-5.235 5.28-6.295 8.898-1.458 2.243-2.319 4.702-2.385 7.38a13.552 13.552 0 001.325 6.293c.861 11.72 8.216 19.244 20.674 19.244 13.319 0 19.084-6.439 19.415-21.342v-1.374c.066-.58.132-1.23.199-1.881z" fill="#0E80A4"/><path d="M57.024 45.61c-.133-4.703 1.789-8.971 5.036-12.227-1.458-1.013-3.18-1.591-5.102-1.519-4.705.145-8.482 4.051-8.35 8.826.133 4.775 4.043 8.537 8.813 8.464h.067c-.265-1.085-.464-2.315-.464-3.545zM94.86 30.996c-1.856.072-3.578.651-4.97 1.736 3.446 3.039 5.566 7.307 5.699 12.01 0 1.23-.067 2.387-.332 3.544 4.705-.144 8.482-4.051 8.349-8.826-.132-4.774-4.041-8.536-8.746-8.464z" fill="#0E80A4"/><path d="M99.432 54.001c.199 7.597-8.88 18.304-22.728 18.593-13.849.362-23.325-9.477-23.523-17.073-.067-3.545.662-7.886 4.704-8.465 4.572-.578 10.801 2.098 18.223 1.954 7.885-.217 13.65-3.98 18.288-3.4 3.446.506 4.903 5.064 5.036 8.391z" fill="#0E80A4"/><path d="M93.402 54.653c.199 7.162-6.096 15.843-16.036 16.06-9.939.217-18.288-7.596-18.487-14.758-.132-4.196 1.26-6.945 6.163-7.307 3.445-.29 7.62-.072 11.728-.145 3.71-.072 7.09-.506 9.94-.578 4.903-.217 6.56 2.17 6.692 6.728z" fill="#fff"/><path d="M59.21 53.784c3.645.073 12.59-4.485 16.831-4.63 4.307-.072 12.988 2.46 16.632 2.243.729-1.157-3.38-5.353-3.247-6.873.464-4.485-2.584-8.464-6.692-8.826-2.783-.217-5.367 1.158-6.891 3.473-1.657-2.243-4.308-3.545-7.024-3.11-4.109.65-6.958 4.702-6.229 9.187.199 1.447-4.175 7.451-3.38 8.536z" fill="#fff"/><path d="M75.975 51.108c-.928.072-1.723 0-2.452-.073.265.217 1.127.94 2.452.868 1.325-.072 2.186-.795 2.385-1.085-.662.145-1.457.29-2.385.29zm-2.518-5.571c-.133 1.736-1.392 3.039-2.783 2.894-1.458-.145-2.452-1.664-2.32-3.328.133-1.736 1.392-3.038 2.784-2.894 1.391.145 2.451 1.592 2.319 3.328z" fill="#0E80A4"/><path d="M71.005 43.44c-.066.723-.596 1.301-1.193 1.229-.596-.072-1.06-.651-.994-1.447.067-.723.597-1.302 1.193-1.23.597.073.994.724.994 1.447z" fill="#fff"/><path d="M84.324 45.682c-.133 1.736-1.392 3.038-2.783 2.894-1.458-.145-2.452-1.664-2.32-3.4.133-1.737 1.392-3.039 2.784-2.894 1.391.144 2.451 1.664 2.319 3.4z" fill="#0E80A4"/><path d="M82.071 43.294c-.066.724-.596 1.303-1.193 1.23-.596-.072-1.06-.65-.994-1.447.067-.723.597-1.302 1.193-1.23.597.073 1.06.652.994 1.447z" fill="#fff"/><path d="M63.186 143.708c-7.488-10.273-6.759-35.304-2.584-38.704l3.445 5.136c.464 1.375-.132 4.558-.53 7.741-.662 5.498-2.12 13.094 4.175 21.776l-4.506 4.051zm25.047-.723c7.488-10.273 6.76-35.304 2.585-38.704l-3.446 5.136c-.464 1.374.132 4.558.53 7.741.663 5.498 2.12 13.094-4.174 21.775l4.505 4.052z" fill="#0E80A4"/><path d="M66.566 56.895s2.186 6.005 10.27 6.005c8.084-.145 8.813-6.8 8.813-6.8" stroke="#0E80A4" stroke-miterlimit="10"/><path d="M40.856 28.753c0-.795-.332-1.519-.862-2.025-.927-.94-2.716-1.737-2.253-3.4.133-.507.332-.94.2-1.52-.133-.506-.465-.723-.929-.795-.993-.145-1.921.65-2.451 1.519-.994 1.664-1.127 4.123-.994 4.485-.066-.072-1.723-1.157-2.982-.94-.596.072-1.325.506-1.524 1.157-.199.434 0 1.158.265 1.52-.663.144-1.06 1.012-1.193 1.736-.132.94.199 1.302.663 2.025-.53.507-.464 1.954-.199 2.605.265.578.994 1.085 1.524 1.374 1.325.724 2.518.724 4.175.94 1.391.145 4.373-.795 5.698-1.663 2.253-1.736.795-6.511.862-7.018z" fill="#0E80A4"/><path d="M38.603 34.613s-1.59 1.52-2.187 2.026c-.397.29-1.193 1.157-1.524 1.302-1.06.362-1.922.94-4.24-.145-1.856-.868-2.386-3.183-2.386-3.183l9.542-.723.795.723z" fill="#0E80A4"/><path d="M28.73 35.843c0 .145.198.217.265.29.066.144.132.289.265.361.132.145.132.507 1.789 1.23.199.072.397.145.53.217.398.145.596.145 1.06.217.398 0 .729 0 1.127-.072.33-.073.729-.145.994-.29l.397-.217c.066-.072.133-.072.133-.144.066-.145 0-.507-.067-.652-.132-.434 0-.506.067-.361.066.145.198.29.198.434.067.145.067.29.067.506 0 .073-.067.217-.067.217-.066.073-.066.145-.132.217-.133.073-.265.217-.398.29-.331.144-.662.217-.994.29-.397.071-.728.144-1.126.144-.398 0-.861-.145-1.26-.29l-.595-.217c-.2-.072-.398-.144-.53-.289l-.994-.651c-.133-.145-.265-.29-.398-.362-.133-.145-.199-.29-.265-.434l-.199-.434c0-.145.066-.072.133 0z" fill="#fff"/><path d="M33.368 26.655l.199.434s-.398-.144-.398-.217c-.066 0-.331-.217-.398-.217-.662-.361-1.06-.434-1.126-.434-.861-.144-1.193-.072-1.392 0-.596.29-.795.434-.861.58-.199.216-.331.506-.331.65 0 .217-.067.507.066 1.013.133.362.199.434.265.506 0 0 .066.145.464.434.331.218.464.29.53.362.265.145.53.29.729.362.265.072 1.06.506 2.385.796.265.072.53.072.795.072s.53 0 .73-.072c.066 0 .132-.073.198-.073s.265-.072.398-.361a.58.58 0 00.132-.362c0-.145.066-.217.066-.362 0-.217-.066-.434-.132-.65-.066-.218-.199-.363-.331-.507-.2-.217-.597-.434-.663-.434-.066-.073-.331-.145-.398-.217 0 0-.662-.29-.728-.29-.133-.072-.2-.072-.2-.072-.33-.073-.33-.145 0-.073 0 0 .266.073 1.127.435.066 0 .133.072.199.072.066.072.133.072.199.145.132.072.331.217.464.361.132.145.265.29.397.507.133.217.199.434.199.723 0 .145 0 .29-.066.362a.58.58 0 01-.133.362c-.265.289-.397.361-.464.361-.066 0-.132.073-.198.073-.265.072-.53.072-.796.072-.265 0-.53-.072-.795-.072l-.795-.217c-.066 0-.795-.217-2.385-.94-.663-.435-.795-.507-.795-.58l-.2-.217c-.066-.144-.198-.217-.264-.361 0-.073-.133-.362-.133-.362s-.066-.362-.066-.506v-.434c0-.073.066-.29.133-.435.066-.144.132-.217.264-.361.067-.073.597-.651 1.59-.724 0 0 .398 0 1.193.217.332.145.597.217.862.362 0 .072.464.29.464.29z" fill="#fff" stroke="#fff" stroke-width=".25" stroke-miterlimit="10"/><path d="M29.193 28.609l.067.361s-.2 0-.398.217c-.132.145-.265.29-.331.507-.067.145-.067.217-.133.361-.066.145-.066.29-.066.435v.506c0 .145.066.362.132.506.067.145.133.362.266.507.53.579 1.06.868 1.457 1.013l.597.217c.132 0 .53.072.596.144.398.073.861.145 1.259.145h1.193c.066 0 .795-.072.861-.145.066 0 .331-.072.729-.289a.84.84 0 00.331-.362c.066-.072.066-.144.133-.217.066-.145.132-.506.132-.65 0-.146 0-.29-.066-.363 0-.144-.066-.217-.133-.289-.066-.072-.066-.145-.132-.217-.265-.145-.398-.145-.398-.145.067 0 .133-.072.133-.072s.133 0 .331.145l.2.217c.132.217.132.434.132.723 0 .145 0 .434-.133.724 0 .072-.066.144-.133.217a.698.698 0 01-.397.361c-.464.29-.663.29-.795.29-.066 0-.265.072-.265.072-.067 0-.53.072-.597.072-.198 0-.397 0-.596.073h-.596c-.398 0-.862-.073-1.26-.145-.132 0-.53-.072-.662-.145l-.596-.217c-1.524-.65-1.458-.868-1.59-1.085-.133-.145-.2-.362-.266-.579-.066-.217-.132-.434-.132-.578v-.58c.066-.36.132-.723.265-.94.132-.289.265-.506.398-.65.198-.145.463-.145.463-.145zm-.927 5.715c0 .145.132.362.199.579.066.144.132.361.265.506.132.145.132.651 1.988 1.447.198.072.397.145.596.145.464.072.795.144 1.325.144a3.93 3.93 0 001.325-.217c.398-.144.862-.29 1.193-.506.199-.145.332-.217.53-.362l.2-.217c.132-.217.132-.723.132-.868a.686.686 0 00-.2-.507c-.198-.434-.53-.506-1.126-.65-.132 0-.198 0-.33-.073h-.796s.199-.072.331-.072h.795c.067 0 .464.072.597.144a.977.977 0 01.53.507c.066.145.132.362.199.579v.65c0 .145-.067.29-.133.29-.066.072-.132.217-.199.29-.132.144-.331.289-.53.433-.397.218-.795.435-1.259.58a4.65 4.65 0 01-1.391.216c-.464 0-.928 0-1.392-.144-.199-.073-.464-.145-.662-.217-.2-.073-.398-.145-.597-.29a5.673 5.673 0 01-1.06-.723l-.398-.434c-.132-.145-.198-.362-.265-.507a1.435 1.435 0 01-.132-.506c.132-.29.199-.362.265-.217z" fill="#fff" stroke="#fff" stroke-width=".25" stroke-miterlimit="10"/></g><path d="M83.794 69.266l-.862 4.847c8.35 1.809 15.44 7.307 20.078 15.337 4.638 8.103 6.229 17.941 4.506 27.635l4.439.941c1.988-10.924.199-22.065-5.102-31.253-5.367-9.187-13.517-15.409-23.06-17.507zm-16.499 7.379c-9.41-1.013-17.891-6.077-23.855-14.396C37.476 54 34.76 43.51 35.687 32.732l4.374.434c-.795 9.55 1.59 18.81 6.891 26.117 5.235 7.306 12.59 11.72 20.806 12.587l-.463 4.775zm-7.819 14.469s-.2.362-.53 1.157c-.2.362-.332.796-.73 1.375-.132.29-.33.579-.53.868-.066.145-.198.29-.265.507-.132.144-.198.289-.33.506-.465.651-.995 1.374-1.657 2.025l-.464.507c-.133.217-.332.362-.53.506l-1.193 1.085c-1.657 1.375-3.777 2.677-6.229 3.618-2.452.868-5.3 1.374-8.283 1.085-.397-.072-.728-.072-1.126-.145-.398-.072-.729-.145-1.127-.217a11.725 11.725 0 01-2.252-.651l-.597-.217-.53-.217a7.75 7.75 0 01-1.126-.506l-.265-.145-.332-.145-.53-.289c-.331-.217-.663-.362-1.06-.651-.398-.29-.729-.507-1.127-.796l-.993-.868c-.133-.145-.332-.29-.464-.434l-.464-.507c-.265-.361-.663-.65-.928-1.013-.265-.361-.53-.723-.861-1.085-.265-.361-.464-.795-.73-1.157-.264-.362-.463-.796-.662-1.23l-.331-.651c-.133-.217-.199-.434-.265-.651-.729-1.736-1.193-3.69-1.392-5.643-.198-1.953-.198-3.979.2-5.86.065-.506.198-.94.33-1.447.133-.506.2-.94.398-1.447l.53-1.302.597-1.302c.198-.434.53-.868.795-1.375.265-.434.596-.795.861-1.23.265-.361.663-.723.994-1.085.331-.361.729-.65 1.06-1.012 2.916-2.532 6.627-3.69 10.205-3.328l.662.072.663.145c.464.072.861.145 1.259.29l.596.216.332.073.33.144.597.29.332.144.132.073h.066s.2.144.133.072h.066l.464.29c.199.072.331.144.53.289l.596.434c.2.145.398.29.53.434.663.579 1.326 1.23 1.856 1.953 2.253 2.822 3.18 6.511 2.916 9.767-.133 1.663-.464 3.183-1.06 4.557v.073l-.133.144-.066.073-.067.217c-.066.144-.132.29-.199.361 0 .073-.066.145-.132.218l-.133.289c-.132.145-.198.362-.331.506-.199.362-.398.579-.663.868-.198.29-.463.507-.662.796a11.683 11.683 0 01-2.982 2.17c-.53.29-.994.434-1.524.58-.53.144-.994.289-1.458.289-1.855.217-3.313-.073-4.24-.362-.465-.145-.862-.29-1.06-.434-.266-.073-.332-.145-.332-.145-1.26-.579-1.922-2.17-1.392-3.545.53-1.374 1.988-2.098 3.247-1.519l.199.072s.066 0 .199.073c.132.072.331.144.53.217.464.217 1.259.362 2.253.29.994-.073 2.186-.507 3.247-1.52l.397-.434c.133-.145.265-.29.332-.434.066-.073.066-.145.132-.217l.066-.073s.067-.072.067-.144c.066-.145.132-.29.198-.362l.133-.217.066-.072c0 .072.066-.145-.066.072v-.072c.398-.869.596-1.809.729-2.822.199-2.025-.332-4.413-1.723-6.221-.331-.507-.729-.868-1.193-1.303-.132-.144-.199-.217-.331-.289l-.331-.217a2.059 2.059 0 00-.398-.29l-.331-.144c-.265-.145-.53-.217-.795-.362l-.2-.072-.198-.072-.464-.218c-.265-.144-.596-.144-.927-.216l-.464-.073-.464-.072c-2.518-.29-5.301.434-7.422 2.243-.265.216-.53.433-.795.723s-.53.506-.729.796c-.198.29-.463.579-.662.868a9.13 9.13 0 00-.53.868l-.53 1.085-.398 1.085c-.133.362-.265.724-.331 1.085-.2.29-.265.651-.332 1.013-.33 1.52-.397 3.111-.265 4.703.133 1.591.464 3.11.994 4.557.066.145.133.362.199.507l.265.506c.199.362.331.724.53 1.013.199.362.398.651.597.94.198.29.463.58.662.94.199.29.464.58.73.869l.33.434c.133.145.265.217.398.362.265.217.53.506.795.723.265.217.53.434.795.579.265.217.597.434.928.579l.464.29.132.071.067.073c.066.072-.067 0-.067 0l.265.144c.332.145.663.29.928.434l.464.218c.132.072.331.144.464.144.662.217 1.259.507 1.921.579l.994.217c.332.072.663.072.994.145 2.584.289 5.036 0 7.223-.724 2.187-.723 4.042-1.808 5.566-2.966.397-.29.729-.65 1.06-.94.199-.145.331-.29.464-.434.132-.145.265-.29.464-.434.596-.58 1.06-1.23 1.524-1.809.132-.145.199-.29.331-.434.066-.145.199-.29.265-.434.133-.29.331-.507.464-.724.331-.434.53-.94.729-1.23l.596-1.085c.332-.578.994-.795 1.524-.506.398.362.597 1.085.332 1.664z" fill="#0E80A4"/><path d="M96.848 46.695c.066-1.737-.266-3.328-.796-4.92-1.391-7.74-5.5-13.89-13.583-15.698-1.922-.796-6.494-1.592-7.82-4.92a2.905 2.905 0 01-.33-1.23 8.019 8.019 0 00-3.38 2.17c-1.193 1.303-1.657 2.75-1.855 3.4-.266-.144-.994-.433-1.525-1.229-.662-.94-.662-1.88-.596-2.17a9.615 9.615 0 00-1.855 2.17c-1.06 1.809-1.26 3.762-1.193 5.209-3.38 2.17-5.235 5.28-6.295 8.898-1.458 2.243-2.319 4.703-2.385 7.38a13.552 13.552 0 001.325 6.293c.861 11.72 8.216 19.244 20.674 19.244 13.319 0 19.084-6.439 19.415-21.342v-1.374c.066-.58.132-1.23.199-1.881z" fill="#0E80A4"/><path d="M57.024 45.61c-.133-4.703 1.789-8.971 5.036-12.227-1.458-1.012-3.18-1.591-5.102-1.519-4.705.145-8.482 4.051-8.35 8.826.133 4.775 4.043 8.537 8.813 8.464h.067c-.265-1.085-.464-2.315-.464-3.545zM94.86 30.996c-1.856.072-3.578.651-4.97 1.736 3.446 3.039 5.566 7.307 5.699 12.01 0 1.23-.067 2.387-.332 3.544 4.705-.144 8.482-4.051 8.349-8.826-.132-4.774-4.041-8.536-8.746-8.464z" fill="#0E80A4"/><path d="M99.432 54.002c.199 7.596-8.88 18.303-22.728 18.592-13.849.362-23.325-9.477-23.523-17.073-.067-3.545.662-7.886 4.704-8.465 4.572-.578 10.801 2.098 18.223 1.954 7.885-.217 13.65-3.98 18.288-3.4 3.446.506 4.903 5.064 5.036 8.392z" fill="#0E80A4"/><path d="M93.402 54.653c.199 7.162-6.096 15.843-16.036 16.06-9.939.217-18.288-7.596-18.487-14.758-.132-4.196 1.26-6.945 6.163-7.307 3.445-.29 7.62-.072 11.728-.145 3.71-.072 7.09-.506 9.94-.578 4.903-.217 6.56 2.17 6.692 6.728z" fill="#fff"/><path d="M59.21 53.784c3.645.073 12.59-4.485 16.831-4.63 4.307-.072 12.988 2.46 16.632 2.243.729-1.157-3.38-5.353-3.247-6.873.464-4.485-2.584-8.464-6.692-8.826-2.783-.217-5.367 1.158-6.891 3.473-1.657-2.243-4.308-3.545-7.024-3.11-4.109.65-6.958 4.702-6.229 9.187.199 1.447-4.175 7.451-3.38 8.536z" fill="#fff"/><path d="M75.975 51.108c-.928.072-1.723 0-2.452-.073.265.217 1.127.94 2.452.868 1.325-.072 2.186-.795 2.385-1.085-.662.145-1.457.29-2.385.29zm-2.518-5.571c-.133 1.736-1.392 3.039-2.783 2.894-1.458-.145-2.452-1.664-2.32-3.328.133-1.736 1.392-3.038 2.784-2.894 1.391.145 2.451 1.592 2.319 3.328z" fill="#0E80A4"/><path d="M71.005 43.44c-.066.723-.596 1.301-1.193 1.23-.596-.073-1.06-.652-.994-1.448.067-.723.597-1.302 1.193-1.23.597.073.994.724.994 1.447z" fill="#fff"/><path d="M84.324 45.682c-.133 1.736-1.392 3.038-2.783 2.894-1.458-.145-2.452-1.664-2.32-3.4.133-1.737 1.392-3.039 2.784-2.894 1.391.144 2.451 1.664 2.319 3.4z" fill="#0E80A4"/><path d="M82.071 43.294c-.066.724-.596 1.303-1.193 1.23-.596-.072-1.06-.65-.994-1.447.067-.723.597-1.302 1.193-1.23.597.073 1.06.652.994 1.447z" fill="#fff"/><path d="M66.566 56.895s2.186 6.005 10.27 6.005c8.084-.145 8.813-6.8 8.813-6.8" stroke="#0E80A4" stroke-miterlimit="10"/><path d="M40.856 28.753c0-.795-.332-1.519-.862-2.025-.927-.94-2.716-1.737-2.253-3.4.133-.507.332-.94.2-1.52-.133-.506-.465-.723-.929-.795-.993-.145-1.921.65-2.451 1.519-.994 1.664-1.127 4.123-.994 4.485-.066-.072-1.723-1.157-2.982-.94-.596.072-1.325.506-1.524 1.157-.199.434 0 1.158.265 1.52-.663.144-1.06 1.012-1.193 1.736-.132.94.199 1.302.663 2.025-.53.507-.464 1.954-.199 2.605.265.578.994 1.085 1.524 1.374 1.325.724 2.518.724 4.175.94 1.391.145 4.373-.795 5.698-1.663 2.253-1.736.795-6.511.862-7.018z" fill="#0E80A4"/><path d="M38.603 34.613s-1.59 1.52-2.187 2.026c-.397.29-1.193 1.157-1.524 1.302-1.06.362-1.922.94-4.24-.145-1.856-.868-2.386-3.183-2.386-3.183l9.542-.723.795.723z" fill="#0E80A4"/><path d="M28.73 35.843c0 .145.198.217.265.29.066.144.132.289.265.361.132.145.132.507 1.789 1.23.199.072.397.145.53.217.398.145.596.145 1.06.217.398 0 .729 0 1.127-.072.33-.073.729-.145.994-.29l.397-.217c.066-.072.133-.072.133-.144.066-.145 0-.507-.067-.652-.132-.434 0-.506.067-.361.066.145.198.29.198.434.067.145.067.29.067.506 0 .073-.067.217-.067.217-.066.073-.066.145-.132.217-.133.073-.265.217-.398.29-.331.144-.662.217-.994.29-.397.072-.728.144-1.126.144-.398 0-.861-.145-1.26-.29l-.595-.217c-.2-.072-.398-.144-.53-.289l-.994-.651c-.133-.145-.265-.29-.398-.362-.133-.145-.199-.29-.265-.434l-.199-.434c0-.145.066-.072.133 0z" fill="#fff"/><path d="M33.368 26.655l.199.434s-.398-.144-.398-.217c-.066 0-.331-.217-.398-.217-.662-.361-1.06-.434-1.126-.434-.861-.144-1.193-.072-1.392 0-.596.29-.795.434-.861.58-.199.216-.331.506-.331.65 0 .217-.067.507.066 1.013.133.362.199.434.265.506 0 0 .066.145.464.434.331.218.464.29.53.362.265.145.53.29.729.362.265.072 1.06.506 2.385.796.265.072.53.072.795.072s.53 0 .73-.072c.066 0 .132-.073.198-.073s.265-.072.398-.361a.58.58 0 00.132-.362c0-.145.066-.217.066-.362 0-.217-.066-.434-.132-.65-.066-.218-.199-.363-.331-.507-.2-.217-.597-.434-.663-.434-.066-.073-.331-.145-.398-.217 0 0-.662-.29-.728-.29-.133-.072-.2-.072-.2-.072-.33-.073-.33-.145 0-.073 0 0 .266.073 1.127.435.066 0 .133.072.199.072.066.072.133.072.199.145.132.072.331.217.464.361.132.145.265.29.397.507.133.217.199.434.199.723 0 .145 0 .29-.066.362a.58.58 0 01-.133.362c-.265.289-.397.361-.464.361-.066 0-.132.073-.198.073-.265.072-.53.072-.796.072-.265 0-.53-.072-.795-.072l-.795-.217c-.066 0-.795-.217-2.385-.94-.663-.435-.795-.507-.795-.58l-.2-.217c-.066-.144-.198-.217-.264-.361 0-.073-.133-.362-.133-.362s-.066-.362-.066-.506v-.434c0-.073.066-.29.133-.435.066-.144.132-.217.264-.361.067-.073.597-.651 1.59-.724 0 0 .398 0 1.193.217.332.145.597.217.862.362 0 .072.464.29.464.29z" fill="#fff" stroke="#fff" stroke-width=".25" stroke-miterlimit="10"/><path d="M29.193 28.609l.067.361s-.2 0-.398.217c-.132.145-.265.29-.331.507-.067.145-.067.217-.133.361-.066.145-.066.29-.066.435v.506c0 .145.066.362.132.506.067.145.133.362.266.507.53.579 1.06.868 1.457 1.013l.597.217c.132 0 .53.072.596.144.398.073.861.145 1.259.145h1.193c.066 0 .795-.072.861-.145.066 0 .331-.072.729-.289a.84.84 0 00.331-.362c.066-.072.066-.144.133-.217.066-.145.132-.506.132-.65 0-.145 0-.29-.066-.363 0-.144-.066-.217-.133-.289-.066-.072-.066-.145-.132-.217-.265-.145-.398-.145-.398-.145.067 0 .133-.072.133-.072s.133 0 .331.145l.2.217c.132.217.132.434.132.723 0 .145 0 .434-.133.724 0 .072-.066.144-.133.217a.698.698 0 01-.397.361c-.464.29-.663.29-.795.29-.066 0-.265.072-.265.072-.067 0-.53.072-.597.072-.198 0-.397 0-.596.073h-.596c-.398 0-.862-.073-1.26-.145-.132 0-.53-.072-.662-.145l-.596-.217c-1.524-.65-1.458-.868-1.59-1.085-.133-.145-.2-.362-.266-.579-.066-.217-.132-.434-.132-.578v-.58c.066-.36.132-.723.265-.94.132-.289.265-.506.398-.65.198-.145.463-.145.463-.145zm-.927 5.715c0 .145.132.362.199.579.066.144.132.361.265.506.132.145.132.651 1.988 1.447.198.072.397.145.596.145.464.072.795.144 1.325.144a3.93 3.93 0 001.325-.217c.398-.144.862-.29 1.193-.506.199-.145.332-.217.53-.362l.2-.217c.132-.217.132-.723.132-.868a.686.686 0 00-.2-.506c-.198-.434-.53-.507-1.126-.651-.132 0-.198 0-.33-.073h-.796s.199-.072.331-.072h.795c.067 0 .464.072.597.145a.977.977 0 01.53.506c.066.145.132.362.199.579v.65c0 .145-.067.29-.133.29-.066.072-.132.217-.199.29-.132.144-.331.289-.53.434-.397.217-.795.434-1.259.578a4.65 4.65 0 01-1.391.217c-.464 0-.928 0-1.392-.144-.199-.073-.464-.145-.662-.217-.2-.073-.398-.145-.597-.29a5.669 5.669 0 01-1.06-.723l-.398-.434c-.132-.145-.198-.362-.265-.507a1.435 1.435 0 01-.132-.506c.132-.29.199-.362.265-.217z" fill="#fff" stroke="#fff" stroke-width=".25" stroke-miterlimit="10"/></svg>