<svg width="18" height="18" fill="none" xmlns="http://www.w3.org/2000/svg"><path clip-rule="evenodd" d="M12.612 1.292H5.388c-2.517 0-4.096 1.782-4.096 4.305v6.806c0 2.523 1.57 4.306 4.096 4.306h7.223c2.526 0 4.098-1.783 4.098-4.306V5.597c0-2.523-1.572-4.305-4.097-4.305z" stroke="#979797" stroke-linecap="round" stroke-linejoin="round"/><path d="M5.267 9.998A.999.999 0 115.268 8a.999.999 0 010 1.998m3.732 0A.999.999 0 119.001 8a.999.999 0 010 1.998m3.732 0a.999.999 0 110-1.998.999.999 0 010 1.998" fill="#979797"/></svg>