<svg width="29" height="29" fill="none" xmlns="http://www.w3.org/2000/svg"><circle cx="14.5" cy="14.5" r="14" stroke="#CFCFCF"/><path d="M22.185 10.803a6.27 6.27 0 01-1.668.434c.58-.362 1.088-.942 1.306-1.595-.58.363-1.16.58-1.886.726a2.853 2.853 0 00-2.102-.943 2.909 2.909 0 00-2.9 2.9c0 .218 0 .435.072.652A8.546 8.546 0 018.99 9.932a3.3 3.3 0 00-.363 1.45c0 1.016.508 1.886 1.305 2.393-.507 0-.942-.145-1.305-.363 0 1.378 1.015 2.61 2.32 2.828-.217.073-.507.073-.797.073-.218 0-.363 0-.58-.073a2.894 2.894 0 002.755 2.03c-1.015.797-2.247 1.233-3.625 1.233-.218 0-.435 0-.725-.073 1.305.797 2.828 1.305 4.495 1.305 5.365 0 8.265-4.422 8.265-8.265v-.363c.58-.217 1.088-.724 1.45-1.304z" fill="#CFCFCF"/></svg>