<svg width="14" height="16" fill="none" xmlns="http://www.w3.org/2000/svg"><path d="M4.264.73h5.03c.2 0 .364-.165.364-.365 0-.2-.165-.365-.365-.365H4.264a.364.364 0 100 .73zm8.926.81H.365c-.2 0-.365.163-.365.364 0 .2.164.364.365.364h.582l.275 2.914v.012l.923 9.777a.361.361 0 00.362.328h8.537a.363.363 0 00.362-.328l1.198-12.703h.583c.2 0 .364-.164.364-.364a.36.36 0 00-.361-.365zm-2.474 13.03H2.839l-.855-9.054h9.586l-.854 9.054zm.923-9.783H1.915l-.239-2.519h10.199l-.236 2.52z" fill="#5A5A5A"/></svg>