<svg width="23" height="23" fill="none" xmlns="http://www.w3.org/2000/svg"><path d="M11.945 3.388V.495c0-.272-.182-.495-.404-.495-.222 0-.403.223-.403.495v2.893c-.323.198-.565.594-.565 1.064 0 .643.423 1.187.968 1.187.545 0 .968-.544.968-1.187 0-.47-.221-.89-.564-1.064zm6.052 0V.495c0-.272-.181-.495-.403-.495-.222 0-.404.223-.404.495v2.893c-.323.198-.565.594-.565 1.064 0 .643.424 1.187.969 1.187.544 0 .968-.544.968-1.187 0-.47-.222-.89-.565-1.064zm-7.263-1.657H6.295v.989h4.439v-.99zm6.052 0h-4.438v.989h4.438v-.99zM5.892 3.388V.495C5.892.223 5.71 0 5.488 0c-.222 0-.403.223-.403.495v2.893c-.323.198-.565.594-.565 1.064 0 .643.424 1.187.968 1.187.545 0 .969-.544.969-1.187 0-.47-.222-.89-.565-1.064z" fill="#68C2D0"/><path d="M20.983 1.731H18.36v.99h2.623c.665 0 1.21.667 1.21 1.483v2.72H.807v-2.72c0-.816.545-1.484 1.21-1.484H4.64v-.989H2.018C.908 1.731 0 2.844 0 4.204v16.323C0 21.887.908 23 2.018 23h18.965C22.093 23 23 21.887 23 20.527V4.204c0-1.36-.908-2.473-2.017-2.473zm0 20.28H2.018c-.666 0-1.211-.668-1.211-1.484V7.914h21.386v12.613c0 .816-.545 1.484-1.21 1.484z" fill="#68C2D0"/><path d="M10.877 14.107l-1.53-1.262L8 13.957l2.208 1.814c.191.158.43.229.678.229a1.1 1.1 0 00.68-.229L16 12.112 14.652 11l-3.775 3.107z" fill="#68C2D0"/></svg>