<svg width="28" height="25" fill="none" xmlns="http://www.w3.org/2000/svg"><path d="M10.344 12.5a5.75 5.75 0 110-11.5 5.75 5.75 0 010 11.5zm0-10.781a5.031 5.031 0 100 10.062 5.031 5.031 0 000-10.062z" fill="#2F2F2F" stroke="#282828" stroke-width=".2"/><path d="M18.969 24H1.359A.36.36 0 011 23.64v-2.695a9.164 9.164 0 0118.328 0v2.696a.36.36 0 01-.36.359zm-17.25-.719h16.89v-2.336a8.445 8.445 0 00-16.89 0v2.336z" fill="#2F2F2F" stroke="#282828" stroke-width=".2"/><path stroke="#2F2F2F" stroke-linecap="round" d="M19.5 10.409h8M23.409 14.5v-8"/></svg>