<svg width="19" height="23" fill="none" xmlns="http://www.w3.org/2000/svg"><path d="M3.968 7.114l-3.827 3.85a.464.464 0 00-.141.329c0 .14.047.258.14.329l3.804 3.803c.188.188.47.188.658 0a.464.464 0 00.14-.328c0-.118-.046-.259-.14-.33L1.597 11.74h14.956a.47.47 0 00.47-.47.471.471 0 00-.47-.47H1.597l3.028-3.028a.464.464 0 00.141-.329.464.464 0 00-.14-.328c-.165-.188-.47-.188-.658 0z" fill="#5A5A5A"/><path d="M16.969 0H8.03C6.914 0 6 1.067 6 2.371v3.865h.813V2.371c0-.782.548-1.423 1.218-1.423h8.938c.67 0 1.218.64 1.218 1.423V20.63c0 .782-.548 1.422-1.218 1.422H8.03c-.67 0-1.219-.64-1.219-1.422v-4.102H6v4.102C6 21.933 6.914 23 8.031 23h8.938C18.086 23 19 21.933 19 20.629V2.37C19 1.067 18.086 0 16.969 0z" fill="#5A5A5A"/></svg>