<svg width="23" height="17" fill="none" xmlns="http://www.w3.org/2000/svg"><path d="M.335 16.227l-.02-.005-.02-.005-.019-.007-.02-.007-.016-.008-.02-.01-.016-.008-.02-.012-.015-.012-.017-.012a.412.412 0 01-.021-.02l-.01-.008-.007-.009-.02-.021-.013-.018-.01-.015-.013-.02-.009-.015-.01-.02-.007-.017-.007-.02-.007-.018-.005-.02-.005-.02-.004-.024-.002-.016A.423.423 0 010 15.819V.402L.003.378.004.36.008.338c0-.007.003-.013.004-.02A.38.38 0 01.031.26L.039.242.048.223l.01-.017a.41.41 0 01.01-.018L.08.171.092.155A.39.39 0 01.107.138l.01-.011L.12.124.137.108.15.096.167.084.183.07.197.063.217.05.233.044.254.033l.02-.007.018-.007.02-.005.02-.005.016-.003.024-.004h.015A.452.452 0 01.413 0h22.174l.026.001.015.001.023.004.018.003.019.005.02.005.017.006.021.008.021.01.015.007.02.012.015.01.015.01.018.014.012.011.019.018.002.002.009.01.016.018.011.016a.343.343 0 01.023.035l.01.017.01.019.007.018a.42.42 0 01.007.019l.007.02.005.019.004.02.003.021.003.02.001.023.001.014V15.82c0 .013 0 .027-.002.041l-.003.018-.003.022-.005.02-.005.02-.007.02-.007.018-.008.018-.01.02-.009.016a.353.353 0 01-.011.018l-.013.017-.011.016a.413.413 0 01-.025.028l-.003.002-.003.003a.425.425 0 01-.027.025l-.016.011a.07.07 0 01-.017.013l-.018.011-.017.01-.019.01-.018.007-.018.007-.02.007-.02.005-.02.005a.078.078 0 01-.022.003l-.018.003a.439.439 0 01-.041.002H.416c-.013 0-.027 0-.04-.002-.007 0-.013-.002-.019-.003a.083.083 0 01-.022-.003zm21.832-14.83l-6.82 6.597 6.82 6.82V1.398zM11.5 10.558L21.555.832H1.445L11.5 10.556zm3.249-1.984l-2.96 2.862c-.003.004-.008.007-.012.01a.565.565 0 01-.014.013l-.018.014-.016.011-.02.012-.015.01a.32.32 0 01-.021.009l-.016.007-.023.008-.015.006-.025.006c-.005 0-.01.002-.014.003l-.029.004-.011.002a.446.446 0 01-.08 0l-.012-.002a.38.38 0 01-.028-.004c-.005 0-.01-.002-.014-.003l-.025-.006-.015-.006-.023-.008-.016-.007-.02-.01-.017-.01-.019-.01a.267.267 0 01-.016-.012l-.018-.014-.015-.013-.011-.01-2.96-2.862-6.83 6.83H21.58l-6.83-6.83zm-7.096-.58L.833 1.399v13.416l6.82-6.82z" fill="#68C2D0"/></svg>