<svg width="24" height="23" fill="none" xmlns="http://www.w3.org/2000/svg"><path d="M6.976 0a.41.41 0 00-.06.005h-3.63c-.455 0-.852.207-1.118.502-.266.295-.423.664-.514 1.044L.012 8.45a.41.41 0 00-.01.141 3.338 3.338 0 001.638 2.92l.003.001V22.59a.41.41 0 00.41.411h19.71a.41.41 0 00.411-.41v-11.08l.002-.002a3.34 3.34 0 001.64-2.914v-.01a.412.412 0 00-.01-.136L22.163 1.55c-.09-.38-.247-.75-.513-1.044a1.508 1.508 0 00-1.118-.502h-3.63a.41.41 0 00-.131 0h-4.796a.41.41 0 00-.135 0H7.045A.41.41 0 006.976 0zm-3.69.826h3.241L5.78 8.217H.912l1.541-6.475c.068-.283.184-.53.324-.685a.62.62 0 01.509-.23zm4.067 0h4.145v7.391h-4.89l.745-7.39zm4.966 0h4.145l.746 7.391h-4.89V.827zm4.971 0h3.242a.62.62 0 01.507.231c.14.155.258.402.325.685l1.542 6.475h-4.868L17.29.827zM.93 9.04h4.71c-.125.726-.488 1.39-1.126 1.764a2.421 2.421 0 01-2.459 0c-.637-.374-1-1.038-1.126-1.764zm5.748 0h4.711c-.125.726-.488 1.39-1.126 1.764a2.421 2.421 0 01-2.459 0c-.638-.374-1-1.038-1.126-1.764zm5.749 0h4.711c-.125.726-.488 1.39-1.126 1.764a2.421 2.421 0 01-2.46 0c-.637-.374-1-1.038-1.125-1.764zm5.749 0h4.711c-.125.726-.489 1.39-1.126 1.764a2.421 2.421 0 01-2.46 0c-.637-.374-1-1.038-1.125-1.764zM6.158 10.232c.284.522.703.97 1.23 1.279a3.25 3.25 0 003.29 0c.528-.31.945-.757 1.23-1.279.283.522.702.97 1.23 1.279a3.25 3.25 0 003.29 0 3.32 3.32 0 001.228-1.279c.283.522.703.97 1.23 1.279a3.247 3.247 0 002.467.34v10.328H2.464V11.85a3.253 3.253 0 003.694-1.619z" fill="#68C2D0"/></svg>