<svg width="23" height="21" fill="none" xmlns="http://www.w3.org/2000/svg"><path d="M3.833 21h15.334v-1.75H23V14c0-2.552-1.851-4.717-4.392-5.434 1.198-.7 1.996-1.924 1.996-3.316 0-2.17-1.934-3.938-4.312-3.938-.41 0-.816.056-1.213.164C14.2.573 12.924 0 11.5 0c-1.424 0-2.7.573-3.579 1.476a4.644 4.644 0 00-1.213-.163c-2.378 0-4.312 1.766-4.312 3.937 0 1.392.798 2.615 1.996 3.316C1.85 9.283 0 11.448 0 14v5.25h3.833V21zm14.375-.875H4.792v-6.563c0-.146.01-.29.024-.433.004-.047.01-.093.016-.14.013-.099.03-.197.05-.293.01-.05.018-.099.03-.147.03-.126.064-.25.104-.371.02-.06.044-.12.067-.179a4.537 4.537 0 01.171-.399c.03-.062.064-.123.098-.185a4.805 4.805 0 01.303-.484c.04-.056.083-.11.126-.165a4.388 4.388 0 01.274-.322 5.208 5.208 0 01.368-.355c.076-.066.153-.132.234-.194a5.076 5.076 0 01.537-.364c.063-.038.128-.073.192-.108a5.43 5.43 0 01.377-.185c.065-.029.128-.059.195-.085l.077-.032a5.681 5.681 0 012.027-.371h2.876c.718 0 1.402.133 2.027.371l.077.032c.066.026.13.057.194.086a5.97 5.97 0 01.57.292 5.453 5.453 0 01.375.246 5.2 5.2 0 01.162.118 5.038 5.038 0 01.415.362 4.79 4.79 0 01.321.339c.048.055.095.112.14.17.043.055.086.108.126.165a4.743 4.743 0 01.303.485 4.603 4.603 0 01.187.379c.029.067.056.136.082.205.022.06.046.118.067.178.04.122.075.246.104.371.012.049.02.098.03.147a4.596 4.596 0 01.09.867v6.562zM22.042 14v4.375h-2.875v-4.813c0-.207-.014-.412-.038-.614-.006-.048-.017-.094-.024-.142a5.298 5.298 0 00-.086-.463c-.012-.05-.028-.098-.042-.147a5.304 5.304 0 00-.137-.439c-.018-.048-.038-.095-.058-.143a5.444 5.444 0 00-.584-1.085 5.918 5.918 0 00-.274-.36c-.035-.043-.068-.087-.105-.129a5.815 5.815 0 00-.332-.35c-.032-.032-.063-.065-.096-.096a6.027 6.027 0 00-.476-.404c2.84.07 5.127 2.2 5.127 4.81zM15.68 2.24c.202-.035.406-.053.612-.053 1.849 0 3.354 1.374 3.354 3.063s-1.505 3.063-3.354 3.063a3.56 3.56 0 01-1.834-.501c.008-.005.013-.01.02-.016.413-.3.768-.66 1.054-1.067l.026-.04c.083-.12.16-.244.23-.372l.032-.063c.064-.122.12-.246.172-.373l.032-.079c.046-.122.086-.247.12-.373.01-.032.02-.063.027-.095.03-.123.054-.25.072-.377.006-.034.013-.067.017-.101a3.779 3.779 0 00-.004-.992c-.006-.053-.018-.106-.027-.16a4.236 4.236 0 00-.12-.512 3.986 3.986 0 00-.135-.371l-.04-.102a4.202 4.202 0 00-.25-.47l-.004-.009zm-1.227-.094l.03.034.066.082c.245.294.432.614.563.951l.026.066c.057.157.1.317.133.48l.017.105c.027.168.045.338.045.511 0 .144-.012.285-.03.426l-.017.098a3.33 3.33 0 01-.076.343l-.02.071c-.087.282-.21.552-.37.804l-.008.013a3.454 3.454 0 01-.257.35l-.025.031c-.195.23-.422.44-.678.622l-.045.03a3.906 3.906 0 01-.372.228c-.023.012-.044.026-.068.038l-.054.029a4.098 4.098 0 01-1.813.417 4.095 4.095 0 01-1.812-.417l-.055-.03c-.023-.011-.045-.025-.068-.037a3.905 3.905 0 01-.371-.227l-.046-.031a3.723 3.723 0 01-.677-.622l-.026-.03a3.527 3.527 0 01-.256-.35l-.009-.014a3.348 3.348 0 01-.37-.804l-.02-.07a3.221 3.221 0 01-.076-.344c-.005-.033-.012-.065-.016-.098a3.145 3.145 0 01-.031-.426c0-.173.018-.343.045-.511.006-.035.01-.07.017-.104.033-.163.076-.324.133-.48l.026-.067c.131-.337.318-.657.563-.95.022-.027.043-.056.067-.082l.029-.035C9.25 1.37 10.313.875 11.5.875c1.187 0 2.25.495 2.953 1.27zM3.354 5.25c0-1.689 1.505-3.063 3.354-3.063.206 0 .41.018.612.053l-.004.009a4.232 4.232 0 00-.249.47c-.015.033-.027.068-.041.102a4.03 4.03 0 00-.255.884c-.01.053-.02.105-.027.159a4.003 4.003 0 00-.036.511c0 .163.012.323.031.481.004.034.012.067.017.1.018.129.042.255.072.379l.026.093c.035.127.075.252.121.375l.032.079c.051.127.109.25.172.372l.033.064c.07.128.147.252.23.373l.026.04A4.58 4.58 0 008.52 7.796l.02.016c-.542.324-1.175.5-1.833.5-1.849 0-3.354-1.374-3.354-3.063zM.958 18.375V14c0-2.61 2.287-4.74 5.128-4.81a6.119 6.119 0 00-.476.403c-.034.031-.064.065-.097.097a5.84 5.84 0 00-.332.35c-.036.042-.07.085-.105.128a5.63 5.63 0 00-.597.888l-.075.142c-.069.135-.13.275-.186.416-.02.048-.04.095-.058.143-.053.144-.097.29-.138.44-.013.049-.03.097-.041.146a5.304 5.304 0 00-.086.464c-.008.048-.018.094-.024.141a5.203 5.203 0 00-.038.614v4.813H.958z" fill="#68C2D0"/></svg>