<svg width="26" height="22" fill="none" xmlns="http://www.w3.org/2000/svg"><path d="M9.411 16.558c-.385-.667-.911-1.176-1.507-1.637-.608-.485-1.274-.97-1.999-1.225-.666-.23-1.496-.133-2.162.073-.643.206-1.099.619-1.344 1.298-.246.679-.304 1.346.222 1.892.49.497 1.204.812 1.858.873.199.012.713.048.853-.134.164-.206.117-.788.059-1.03-.14-.655-.772-1.201-1.32-.655-.55.57-1.298-.45-.749-1.007.608-.618 1.543-.655 2.244-.182.701.485 1.04 1.37 1.04 2.231 0 .886-.268 1.674-1.11 1.929-.806.242-1.695.084-2.466-.267-.725-.34-1.426-.873-1.8-1.65-.386-.8-.234-1.782.07-2.57.666-1.746 2.455-2.316 4.09-2.207 1.018.073 1.953.679 2.782 1.273.807.594 1.613 1.273 2.14 2.183.42.715-.503 1.528-.9.812z" fill="#fff" stroke="#68C2D0" stroke-width=".7" stroke-miterlimit="10"/><path d="M24.266 9.319c-.152-1.552-.981-2.753-1.835-2.68a1.02 1.02 0 00-.315.085 7.778 7.778 0 00-4.956-3.675c-.608-.254-2.08-.521-2.5-1.637-.071-.182-.094-.34-.106-.412a2.48 2.48 0 00-1.087.715c-.386.437-.538.91-.596 1.128a1.152 1.152 0 01-.49-.412c-.2-.303-.2-.619-.2-.716a3.914 3.914 0 00-.584.728c-.35.606-.41 1.237-.386 1.71a7.83 7.83 0 00-3.027 3.941c-.011.012-.035.024-.047.036a.918.918 0 00-.444 0c-.49.11-.888.57-1.11 1.262-.222.679-.28 1.576-.117 2.51.164.933.526 1.746.959 2.28.444.533.958.812 1.449.703.222.497.42.752.736.679 1.426 1.528 3.553 2.413 5.902 2.413 3.799 0 6.826-1.843 7.515-5.736.842-.06 1.391-1.382 1.24-2.922z" fill="#fff" stroke="#68C2D0" stroke-width=".7" stroke-miterlimit="10"/><path d="M22.022 11.938c-.175-.812-.69-1.48-1.437-1.952.21-.63.28-1.358.152-2.086-.34-1.843-1.8-3.007-3.261-2.62-.807.219-1.45.862-1.812 1.71-.654-.57-1.52-.812-2.396-.582-1.578.425-2.606 2.256-2.267 4.1.152.848.573 1.54 1.122 2.012-.222.558-.292 1.152-.164 1.722.433 2.025 3.027 3.153 5.809 2.522 2.782-.642 4.687-2.8 4.254-4.826z" fill="#fff" stroke="#68C2D0" stroke-width=".7" stroke-miterlimit="10"/><path d="M19.45 14.363c-.093.122-1.133 1.322-2.956 1.298-1.31-.024-2.536-.667-3.19-1.674a5.237 5.237 0 003.167 1.189c1.577.06 2.676-.607 2.98-.813zm-3.248-1.552c.093.049.42.206.841.11.421-.098.655-.389.725-.474-.222.085-.48.17-.771.243-.293.06-.561.097-.795.121z" fill="#68C2D0"/><path d="M23.238 10.859c.07-.037.163.012.163.121l.363 7.106c0 .06-.024.122-.07.134l-6.066 3.14c-.024.012-.047.012-.082 0l-6.428-2.267c-.047-.012-.082-.06-.082-.134l-.362-7.106c0-.048.011-.097.046-.121.024-.024.07-.037.105-.024l6.405 2.316a.22.22 0 00.152-.012l5.856-3.153z" fill="#fff" stroke="#68C2D0" stroke-width=".7" stroke-miterlimit="10"/><path d="M17.44 20.948l-.315-6.342.468-.146.269 6.233-.421.255z" fill="#fff"/><path d="M12.742 17.528c.012.546-.666.995-1.519 1.007-.853.012-1.543-.413-1.554-.946-.012-.546.666-.994 1.519-1.006.853-.013 1.554.412 1.554.945z" fill="#fff" stroke="#68C2D0" stroke-width=".7" stroke-miterlimit="10"/><path d="M12.988 16.376c.012.631-.783 1.152-1.777 1.177-.993.024-1.8-.485-1.811-1.104-.012-.63.783-1.152 1.776-1.176.982-.024 1.8.473 1.812 1.103z" fill="#fff" stroke="#68C2D0" stroke-width=".7" stroke-miterlimit="10"/><path d="M12.45 15.31c.012.533-.666.994-1.52 1.006-.852.012-1.542-.413-1.554-.946v-.073c.047-.51.702-.921 1.52-.934.853-.012 1.542.413 1.554.946zm9.245.654c.035.534.748.934 1.601.873.853-.06 1.508-.546 1.473-1.079-.035-.534-.748-.934-1.601-.873-.842.06-1.508.546-1.473 1.08z" fill="#fff" stroke="#68C2D0" stroke-width=".7" stroke-miterlimit="10"/><path d="M21.368 14.836c.047.63.876 1.08 1.858 1.019.994-.073 1.753-.643 1.718-1.261-.035-.63-.876-1.08-1.858-1.019-.994.06-1.765.63-1.718 1.261z" fill="#fff" stroke="#68C2D0" stroke-width=".7" stroke-miterlimit="10"/><path d="M21.707 13.733c.035.545.748.933 1.6.873.854-.06 1.509-.546 1.474-1.08 0-.024 0-.048-.012-.072-.094-.497-.783-.849-1.59-.788-.853.036-1.507.521-1.472 1.067z" fill="#fff" stroke="#68C2D0" stroke-width=".7" stroke-miterlimit="10"/><path d="M15.045 10.713c.07.57-.27 1.08-.76 1.14-.49.073-.935-.34-1.005-.897-.07-.57.269-1.08.76-1.14.49-.073.946.327 1.005.897z" fill="#68C2D0"/><path d="M14.063 10.216c.035.243-.117.449-.316.485-.21.024-.397-.145-.42-.376-.036-.242.117-.448.315-.485.21-.036.398.134.42.376z" fill="#fff"/><path d="M19.58 9.743c.07.57-.27 1.08-.76 1.14-.491.073-.935-.34-1.005-.897-.07-.57.268-1.08.748-1.14.502-.073.946.34 1.016.897z" fill="#68C2D0"/><path d="M18.68 9.149c.035.243-.117.449-.316.485-.21.024-.397-.145-.42-.376-.036-.242.116-.449.315-.485.198-.036.397.133.42.376z" fill="#fff"/></svg>