<svg width="14" height="14" fill="none" xmlns="http://www.w3.org/2000/svg"><path d="M12.828 12.25v-.07a8.8 8.8 0 00-.146-1.68 5.638 5.638 0 00-.418-1.33 3.518 3.518 0 00-.728-1.028 4.16 4.16 0 00-.937-.69 4.635 4.635 0 00-1.164-.419 9.408 9.408 0 00-1.27-.199A16.514 16.514 0 006.75 6.78H4.5v2.74a.109.109 0 01-.004.032L.521 5.101C.506 5.084.5 5.07.5 5.04c0-.032.006-.044.021-.06L4.496.527A.109.109 0 014.5.56V3.3h2.25c1.81 0 3.221.287 4.265.826 1.03.531 1.722 1.316 2.1 2.368.25.711.385 1.622.385 2.746 0 .734-.214 1.732-.672 3.01zm-.078 1.444h0z" stroke="#fff"/></svg>