<svg width="22" height="22" fill="none" xmlns="http://www.w3.org/2000/svg"><g clip-path="url(#clip0)" fill="#F3967C"><path d="M.204 18.47L9.698 2.027a1.503 1.503 0 012.604 0l9.494 16.445a1.503 1.503 0 01-1.302 2.255H1.506A1.503 1.503 0 01.204 18.47zm1.302.967h18.988c.166 0 .27-.178.186-.322L11.186 2.67a.214.214 0 00-.372 0L1.32 19.115a.214.214 0 00.186.322z"/><path d="M10.582 17.581a.78.78 0 11.82-1.326.78.78 0 01-.82 1.326zm.41-2.575a.644.644 0 01-.645-.645V6.997a.644.644 0 111.289 0v7.364a.644.644 0 01-.644.645z"/></g><defs><clipPath id="clip0"><path fill="#fff" transform="matrix(-1 0 0 1 22 0)" d="M0 0h22v22H0z"/></clipPath></defs></svg>