<svg width="23" height="16" fill="none" xmlns="http://www.w3.org/2000/svg"><path d="M11.41.55l.022-.012.02-.014A.19.19 0 0111.5.5l.004.001a.19.19 0 01.043.023l.02.014.022.011 10.79 5.755c.088.064.121.132.121.221 0 .09-.033.157-.12.221l-10.79 5.755-.026.013h-.028a2.11 2.11 0 01-.1-.003.324.324 0 01-.032-.014L.621 6.747C.533 6.681.5 6.613.5 6.524s.033-.157.12-.221L11.41.549z" stroke="#68C2D0"/><path d="M11.536 12.793c.407 0 .874-.078 1.274-.362l5.436-2.845v1.986c0 .851-.692 1.801-1.982 2.572-1.264.755-2.977 1.254-4.728 1.254-1.75 0-3.464-.5-4.728-1.254-1.29-.77-1.982-1.721-1.982-2.572V9.586l5.436 2.845c.4.284.867.362 1.274.362z" stroke="#68C2D0"/></svg>