<svg width="198" height="183" fill="none" xmlns="http://www.w3.org/2000/svg"><g clip-path="url(#clip0)"><path d="M122.655 183l-.124-.003c-1.015-.018-1.797-.809-1.701-1.719l6.764-64.519 5.902.504-9.713 64.865c-.075.507-.561.882-1.128.872z" fill="#ACC7EB"/><path d="M187.785 183l.124-.003c1.015-.018 1.797-.809 1.701-1.719l-6.764-64.519-5.902.504 9.713 64.865c.075.507.561.882 1.128.872z" fill="#C8DBF4"/><path d="M74.938 183l-.124-.003c-1.015-.018-1.797-.809-1.701-1.719l6.764-64.519 5.902.504-9.713 64.865c-.077.507-.561.882-1.128.872zm110.833-75.626l12.006-56.63c1.542-7.668-5.11-14.678-13.748-14.49l-23.156.506c-7.988.175-14.933 5.28-17.153 12.61l-17.564 58.004h59.615z" fill="#BAD4F4"/><path d="M178.508 107.374l12.006-56.63c1.541-7.668-5.111-14.678-13.749-14.49l-23.155.506c-7.989.175-14.933 5.28-17.154 12.61l-17.565 58.004h59.617z" fill="#ACC7EB"/><path d="M182.425 117.701H90.814c-1.84 0-3.346-1.438-3.346-3.195v-3.936c0-1.758 1.506-3.196 3.346-3.196h94.957v7.132c0 1.758-1.506 3.195-3.346 3.195z" fill="#C8DBF4"/><path d="M139.435 117.701h-58.4c-1.483 0-2.697-1.159-2.697-2.575v-5.178c0-1.416 1.214-2.576 2.697-2.576h58.4c1.482 0 2.696 1.158 2.696 2.576v5.178c-.002 1.418-1.214 2.575-2.696 2.575z" fill="#ACC7EB"/><path d="M103.803 53.782c-1.29-1.01 26.841-23.693 32.875-10.975 0 0 14.445-10.63 1.144-16.853-7.489-3.503-8.563-10.872-10.34-15.21-1.775-4.34-10.751-16.168-21.115-7.853 0 0-5.261.89-8.094 4.196-6.442 7.518-20.763 57.8 5.53 46.695z" fill="#163560"/><path d="M121.99 45.207s-4.892 8.401-11.75 15.373c-3.622 3.682-7.795 6.965-12.084 8.397-2.093.698-4.213.957-6.311.605-1.338-.223-.756-7.772 1.103-13.51 2.45-7.558 10.089-26.337 10.089-26.337l4.369 1.78s-6.061 23.652-5.339 23.752l6.41-15.494 13.513 5.434z" fill="#FFC69E"/><path d="M131.33 83.531s-48.708-.74-55.207 3.209c-6.498 3.947 6.496 66.986 6.496 66.986s12.598.384 13.6-2.801c0 0-2.267-29.538-.284-34.641 1.983-5.102.76-12.174.76-12.174s24.64 3.591 32.464 1.824c7.824-1.769 2.171-22.403 2.171-22.403z" fill="#0E80A4"/><path d="M85.285 150.519s2.773 7.09 2.184 9.72c-.589 2.63.362 7.729-.766 10.008-1.127 2.279-3.14 5.593-1.208 6.432.733.319 9.263-6.001 9.751-7.865.49-1.865.869-7.366 2.502-10.352 1.633-2.987.264-5.394-2.096-6.493-2.359-1.099-5.647-7.112-5.647-7.112l-4.72 5.662z" fill="#163560"/><path d="M77.014 161.521s-2.671 7.125-4.898 8.772c-2.227 1.646-4.945 6.128-7.346 7.174-2.4 1.047-6.178 2.339-5.268 4.171.344.695 11.13 1.122 12.762 0 1.633-1.123 5.639-5.092 8.903-6.368 3.265-1.276 3.847-3.959 2.785-6.252-1.061-2.293.489-8.914.489-8.914l-7.427 1.417z" fill="#2A4E96"/><path d="M158.949 81.874s-57.801 8.64-62.254 13.552c-4.453 4.912-22.091 68.9-22.091 68.9s5.146 2.757 9.84.206c0 0 13.428-21.686 19.361-28.49 5.933-6.803 8.208-27.852 9.186-28.065.977-.213 32.081 3.588 43.541-3.655 6.751-4.269 2.417-22.448 2.417-22.448z" fill="#68C2D0"/><path d="M138.989 35.88c-3.411-2.453-13.676-5.16-20.097-2.402-3.04 1.307-7.653 3.02-10.414 6.295-2.98 3.536-6.41 15.494-6.41 15.494 1.123 6.298 6.364 7.07 6.364 7.07-3.069 11.088 11.395 8.191 10.46 14.339-1.63 10.728 8.878 16.362 14.605 18.862 7.495 3.274 28.559 7.397 28.582 0 .102-33.696-13.283-52.605-23.09-59.658z" fill="#fff"/><path d="M137.822 47.835s-3.799 19.582-14.089 25.332h-9.682l10.222-12.204 13.549-13.128z" fill="#EBF3FA"/><path d="M103.381 31.715s-3.145-3.578-3.696-4.661c-.55-1.083.48-5.751 1.763-5.722.809.02 1.805 2.846 2.689 3.874.885 1.029 4.731 2.491 3.104 6.81-.185.489-3.86-.301-3.86-.301z" fill="#FFC69E"/><path d="M111.375 38.87c-.887 1.272.197 4.834 5.224 3.724 3.302-.728 9.735-5.843 8.573-8.453-.552-1.241-3.716-4.154-5.707-11.726l-.576.261-9.681 4.41s1.049 3.009 1.826 5.894c.656 2.424.709 5.363.341 5.89z" fill="#FFDAC0"/><path d="M109.209 27.088s1.05 3.008 1.827 5.893c5.664-1.541 7.354-7.247 7.855-10.303l-9.682 4.41z" fill="#FFC69E"/><path d="M103.697 28.743s13.573 3.009 15.404-5.094c1.831-8.102 4.815-13.169-3.773-15.433-8.588-2.262-10.975.481-12.276 3.043-1.3 2.563-2.838 16.494.645 17.484z" fill="#FFDAC0"/><path d="M109.169 6.747s.086 9.323 7.274 13.85c4.207 2.648 4.404 5.357 4.404 5.357s2.491-7.978 2.887-13.98c0 0-10.735-9.176-14.565-5.227z" fill="#163560"/><path d="M110.023 8.394s-4.012 1.275-5.796 2.685c-2.643 2.089-3.331 8.883-3.017 10.575 0 0-.72-11.807 3.259-14.815 4.22-3.192 5.554 1.555 5.554 1.555z" fill="#163560"/><path d="M137.824 47.835a66.77 66.77 0 01-4.675 8.783c-6.478 10.228-14.397 16.408-17.258 13.526-.792-.796-2.788-1.954-.702-6.236 1.613-3.309 3.61-7.445 5.568-11.518 4.04-8.395 7.915-16.512 7.915-16.512 1.234.002 14.21.433 9.152 11.957z" fill="#FFDAC0"/><path d="M124.273 60.963c-.444-.254-24.864 5.412-32.427 7.175a616.62 616.62 0 00-2.209.516v2.722s25.269 1.132 29.214-.598c3.947-1.732 7.714-5.76 7.714-5.76l-2.292-4.055z" fill="#FFDAC0"/><path d="M137.824 47.835a66.652 66.652 0 01-4.675 8.783c-5.276-.654-10.149-3.008-12.39-4.227 4.04-8.395 7.914-16.511 7.914-16.511 1.233 0 14.209.431 9.151 11.955z" fill="#fff"/><path d="M45.211 71.379h27.127c0-1.141-.969-2.065-2.162-2.065H45.21v2.065z" fill="#0E80A4"/><path d="M45.29 43.161H3.35l10.06 28.218h42.21L45.29 43.16z" fill="#0E80A4"/><path d="M2.732 43.16l10.06 28.219h42.212l-10.333-28.22H2.73z" fill="#68C2D0"/><path d="M25.344 57.009c.26 1.077 1.386 1.952 2.516 1.952 1.13 0 1.832-.875 1.573-1.952-.262-1.078-1.387-1.952-2.516-1.952-1.13 0-1.834.873-1.573 1.952z" fill="#fff"/><path d="M2.53 77.726h141.147c1.398 0 2.531-1.082 2.531-2.417v-1.515c0-1.335-1.133-2.417-2.531-2.417H2.531C1.133 71.38 0 72.46 0 73.796v1.514c0 1.335 1.133 2.416 2.53 2.416z" fill="#2A4E96"/><path d="M4.315 182.299l-.079-.01c-.942-.111-1.608-.914-1.49-1.792l14.34-105.945 8.035.22-19.27 106.462c-.125.682-.803 1.151-1.536 1.065zm139.886 0l.078-.01c.942-.111 1.608-.914 1.49-1.792L131.43 74.553l-8.035.22 19.27 106.461c.123.682.801 1.151 1.536 1.065z" fill="#2A4E96"/><path d="M91.846 68.136s-8.044-2.207-10.283-1.598c-1.58.43-3.597 2.662-4.648 3.94-.307.372-.025.917.472.913 1.347-.013 3.523-.097 4.663-.67 1.075-.538 2.676.649 4.458.656 1.369.006 3.129-.004 3.129-.004l2.209-3.237z" fill="#FFDAC0"/></g><defs><clipPath id="clip0"><path fill="#fff" d="M0 0h198v183H0z"/></clipPath></defs></svg>