<svg width="239" height="184" fill="none" xmlns="http://www.w3.org/2000/svg"><path d="M89.49 62.373l-8.242 114.623s-.864 6.947 3.554 6.96c7.266.02 36.159 0 36.159 0s-5.468-1.446-5.402-4.701c.078-3.836 9.632-117.966 9.632-117.966L89.49 62.373z" fill="#0E80A4"/><path d="M123.307 181.875c-1.428.005-29.026.106-36.101 0-3.083-.044-3.624-3.207-3.65-5.252-.012-.981.094-1.707.094-1.707l.214-2.978.546-7.594.483-6.709.62-8.621.521-7.276 5.855-81.447 35.704-1.083s-4.023 47.762-6.87 82.53a6870.4 6870.4 0 00-.899 11.055c-.091 1.108-.178 2.19-.263 3.243-.264 3.29-.505 6.31-.715 8.977-.111 1.406-.212 2.711-.305 3.909-.363 4.688-.576 7.682-.579 8.253-.002.331.023.64.069.927.588 3.655 4.74 3.773 5.276 3.773z" fill="#68C2D0"/><path d="M2.782 0l20.074 94.32 2.75 12.917 9.35 43.931h173.7L174.196 0H2.782z" fill="#68C2D0"/><path d="M2.782 0L0 1.085 31.257 154.45l3.698-3.281L2.782 0z" fill="#3693A1"/><path d="M31.257 154.45h172.632l4.767-3.281h-173.7l-3.7 3.281z" fill="#0E80A4"/><path d="M91.88 184h37.377v-2.078H91.88V184zm108.361-60.686L172.056 1.998H2.505V0h171.689l28.092 123.043-2.045.271z" fill="#3693A2"/><path d="M119.756 154.45l-.193 1.587-35.152 8.307.482-6.709.23-3.185h34.633z" fill="#0E80A4"/><path opacity=".4" d="M123.308 181.875c-1.429.005-29.027.106-36.102 0-3.082-.044-3.624-3.207-3.65-5.252l34.986-7.7c-.362 4.688-.575 7.683-.579 8.253-.001.332.023.64.07.928.586 3.653 4.738 3.771 5.275 3.771zm-12.048-61.308l-76.305 30.602-9.35-43.932 85.655 13.33z" fill="#6B9197"/><path d="M2.782 0h171.413l27.812 121.491H27.756L2.782 0z" fill="#699DEE"/><path d="M126.411 136.85c-.495-2.98-2.962-5.396-5.509-5.396s-4.21 2.416-3.715 5.396c.495 2.98 2.962 5.395 5.508 5.395 2.548 0 4.21-2.415 3.716-5.395z" fill="#0E80A4"/><path d="M193.924 116.227H33.429L15.253 31.533 13.86 25.04l-1.19-5.541-.951-4.435-1.836-8.556h158.181l.11.472 1.905 8.084 1.045 4.435 1.307 5.54 1.531 6.495 19.962 84.694z" fill="#E9F3FE"/><path d="M193.924 116.517H33.429L15.253 31.822l-1.393-6.494-1.19-5.54-.951-4.435-1.836-8.556h158.181l.11.47 1.905 8.086 1.045 4.435 1.307 5.54 1.531 6.494 19.962 84.695z" fill="#E9F3FE"/><path d="M170.079 15.063H11.719L9.883 6.507h158.12l.171.472 1.905 8.084z" fill="#AFCDFB"/><path d="M14.282 10.785c-.19-.896.275-1.624 1.043-1.624.767 0 1.543.728 1.733 1.624.191.896-.274 1.624-1.042 1.624-.767 0-1.542-.726-1.734-1.624zm7.181 1.219c.448-.593.284-1.62-.367-2.292-.651-.673-1.542-.737-1.99-.143-.448.593-.284 1.62.367 2.292.651.672 1.542.736 1.99.143zm2.4-1.219c-.19-.896.275-1.624 1.043-1.624.767 0 1.543.728 1.734 1.624.19.896-.275 1.624-1.043 1.624-.766 0-1.543-.726-1.734-1.624z" fill="#E9F3FE"/><path d="M83.424 116.517h-15.87c-.152-1.45-.285-2.984-.406-4.583a252.27 252.27 0 01-.496-9.167 428.949 428.949 0 01-.25-10.148v-.006a568.48 568.48 0 01-.046-6.455v-.002l-.001-1.61.002-1.509c.014-4.63.074-9.172.158-13.396.182-9.344.479-17.13.637-20.874v-.001c.063-1.537.105-2.391.105-2.391l.003.001c.036.006.276.059.655.164.278.079.63.188 1.032.332a16.509 16.509 0 011.187.473c.715.322 1.486.733 2.21 1.25a.233.233 0 01.034.02c1.185.86 2.255 2 2.743 3.507.419 1.279 1.399 8.155 2.584 17.288.033.26.066.523.101.787.627 4.85 1.304 10.29 1.985 15.848.72 5.888 1.44 11.9 2.103 17.474.566 4.777 1.09 9.231 1.53 12.998z" fill="#2B478B"/><path d="M78.98 116.517H60.508a331.977 331.977 0 01-.98-5.115c-.81-4.445-1.345-8.088-1.315-10.044.013-.918.31-1.636.818-2.187.349-.379.797-.68 1.324-.914 1.557-.691 3.797-.806 6.14-.63a36.03 36.03 0 012.402.262c4.39.623 8.466 1.894 8.466 1.894s.272 1.289.595 3.543a99.73 99.73 0 01.712 6.566c.116 1.533.21 3.204.263 4.985.012.533.03 1.082.046 1.64z" fill="#233862"/><path d="M70.45 101.383l-.185 1.561-.895 7.579-.152 1.294-.555 4.699h-19.25c-.15-3.106-.288-6.131-.315-8.77l-.003-.86c0-3.973.298-6.92 1.272-7.662 1.103-.844 4.764-.612 8.662-.053.388.054.78.114 1.171.176 2.272.357 4.546.799 6.374 1.179a154.685 154.685 0 013.875.857z" fill="#C65447"/><path d="M49.095 50.28s10.575-7.999 18.162-3.907c1.208.652 2.587 2.471 3.575 3.743 2.742 3.535 8.1 59.674 8.1 59.674s-15.21 6.026-29.836-2.045V50.281h-.001z" fill="#fff"/><path d="M67.858 46.17s10.706 5.133 12.156 9.076c1.45 3.943 6.163 28.16 6.163 31s-8.206.635-9.527-3.944c-1.097-3.804-4.797-15.488-6.748-22.877L67.858 46.17z" fill="#2B478B"/><path d="M65.634 50.08c-2.337.537-5.77-.035-8.284-1.973 1.135-3.17 1.6-5.674 1.766-7.295.01-.086.017-.17.024-.25.075-.84.064-1.41.03-1.67h6.042s1.652.882 1.652 1.493a57.304 57.304 0 00.083 3.07c.114 1.983.309 2.917.309 2.917s.739 3.167-1.622 3.709z" fill="#FFB27D"/><path d="M66.948 43.455c-4.579 1.035-7.236-1.891-7.831-2.643-.085-.107-.129-.171-.129-.171.05-.03.1-.055.153-.08 1.705-.807 5.572-.165 7.73.761.012.813.04 1.524.077 2.133z" fill="#FFC7A0"/><path d="M57.621 37.73c.818 5.15 6.5 4.982 8.954 4.657.69-.09 1.125-.193 1.125-.193.78-.243 1.214-1.68 1.416-3.559.401-3.72-.105-9.183-.642-10.579-.81-2.102-2.333-4.375-8.054-2.736-5.721 1.643-3.848 5.812-2.799 12.41z" fill="#FFB27D"/><path d="M68.686 25.183c-.782-1.266-2.44-2.814-3.945-3.766-3.236-2.047-7.375.064-7.392.073-4.673 2.403-5.893 6.585-3.417 13.1 2.62 6.888 5.115 6.112 5.115 6.112s-.529-.386-.481-2.533c.002-.121.007-.224.012-.311.024-.44-.109-.882-.39-1.175-.58-.606-.864-2.438-.377-2.949.586-.616 1.41.132 1.674.708.23.406.641.549 1.025.264 1.454-1.075.51-3.227 1.898-4.542 1.39-1.316 4.21-.211 6.296-1.259 2.728-1.19.571-2.767-.017-3.722z" fill="#233862"/><path d="M69.436 116.518H46.41c.165-5.586.377-12.255.599-19.007.056-1.75.116-3.508.175-5.252.026-.739.05-1.474.074-2.208.509-14.994 1.014-28.535 1.12-29.265.242-1.65.471-3.056.718-4.275.723-3.552 1.623-5.5 3.582-7.175.191-.17 1.76-1.093 3.14-1.9a280.053 280.053 0 012.163-1.243v-.001h.002c.228.13.48.501.745 1.053.265.552.545 1.286.83 2.144 1.053 3.163 2.19 8.002 2.98 11.617l.002.011a.015.015 0 01.001.007v.002c.509 2.334.874 4.15.978 4.673.177.88.41 2.583.684 4.89v.006c.371 3.145.816 7.415 1.287 12.26v.001l.145 1.51.169 1.76v.001l.052.574v.001a1334.477 1334.477 0 01.546 5.916c.156 1.66 2.307 2.861 2.456 4.552.011.123.022.371.036.717.028.715.06 1.85.101 3.162.017.584.034 1.203.054 1.835.084 2.811.188 5.891.305 7.373.007.07.011.159.015.268.014.296.025.731.034 1.277.022 1.161.032 2.822.034 4.716z" fill="#2B478B"/><path d="M53.729 66.83c-.008.034-.367 15.163 9.362 17 9.728 1.837 3.264 2.323 3.264 2.323s-18.304-.91-18.606-1.475c-.302-.564 5.98-17.848 5.98-17.848zm8.22 23.495s-.182.152-.533.416c-.006.003-.012.009-.018.013-1.485 1.108-5.89 4.13-12.303 6.154-.673.213-1.37.416-2.086.602.056-1.75.116-3.507.174-5.251a16.082 16.082 0 01-2.411-.39c.026-.23.053-.46.077-.692a142.44 142.44 0 012.408-1.126 147.49 147.49 0 011.837-.826 172.025 172.025 0 014.587-1.964l7.798 2.89.47.174z" fill="#233862"/><path d="M64.013 90.072s-1.002.293-2.597.67a.037.037 0 00-.017.004c-2.94.691-7.887 1.66-12.304 1.607a25.12 25.12 0 01-1.912-.094 16.084 16.084 0 01-2.411-.39c-1.614-.399-2.967-1.073-3.851-2.128-6.572-7.828 3.586-35.926 5.72-38.66 2.493-3.191 7.043-4.312 9.557-4.696l.303-.046a16.86 16.86 0 011.482-.15h.001s-.197.74-.527 1.998c-.128.486-.277 1.05-.44 1.68-1.543 5.91-4.52 17.529-5.833 24.082-.481 2.398-.738 4.116-.62 4.63.511 2.238 5.82 3.388 9.184 3.897a46.49 46.49 0 002.756.337l.194.933.465 2.239.459 2.198.39 1.89z" fill="#2B478B"/><path d="M82.338 103.54l-22.565-1.112 4.578-32.897 22.566 1.112-4.579 32.897z" fill="#68C2D0"/><path d="M62.502 82.815s4.393-.36 4.613.839c.513 2.79-3.777 5.083-5.166 4.928-1.39-.158-.458-5.953.553-5.767zm23.182-5.492s-4.204-1.536-4.654-.431c-1.052 2.577 2.668 5.968 4.051 6.191 1.383.225 1.623-5.667.603-5.76z" fill="#FFB27D"/><path d="M58.438 44.538s-1.847 1.03-2.774 2.586c0 0 6.908 14.029 6.876 13.898-.03-.132-2.334-14.686-4.102-16.484zm8.605.199c.608.268 1.775 1.666 2.038 2.44l.821 12.247s-1.753-8.989-2.645-13.052c-.228-1.032-.186-1.345-.214-1.635z" fill="#233862"/><path d="M71.832 69.9s.178-.913 1.206-.806c1.027.106 6.798.437 6.798.437s1.113-.021 1.01.813l-9.014-.444z" fill="#C65447"/><path d="M65.211 38.893s.75.798 1.958.551c.717-.147 1.118-1.236 1.118-1.236s-1.377-.292-3.076.685zm106.931 10.236l-16.669.073-5.405-24.207 16.668-.072 5.406 24.206z" fill="#fff"/><path d="M162.602 28.103l-6.989.03-.08-.357 6.989-.032.08.36zm1.116.995l-8.775.039-.081-.36 8.776-.036.08.357zm2.413 4.927l-11.398.048-.079-.357 11.397-.05.08.359zm.263 1.18l-11.398.049-.081-.358 11.399-.05.08.36zm.265 1.181l-11.399.048-.08-.358 11.398-.05.081.36zm.262 1.179l-11.397.05-.08-.359 11.398-.049.079.358zm.264 1.18l-11.398.05-.08-.358 11.399-.049.079.357zm.642 2.873l-11.398.049-.081-.358 11.399-.05.08.359zm.263 1.181l-11.399.048-.079-.358 11.397-.05.081.36zm.263 1.179l-11.397.05-.08-.359 11.398-.049.079.358zm.264 1.18l-11.397.05-.081-.358 11.399-.05.079.358zm.264 1.181l-11.398.049-.08-.358 11.397-.05.081.359z" fill="#ADCBF9"/><path d="M178.858 79.209l-16.668.071-5.406-24.207L173.453 55l5.405 24.208z" fill="#fff"/><path d="M169.319 58.181l-6.99.032-.08-.359 6.989-.03.081.358zm1.115.997l-8.775.037-.08-.358 8.774-.038.081.359zm2.414 4.926l-11.399.049-.079-.359 11.397-.048.081.358zm.262 1.18l-11.398.05-.08-.36 11.399-.048.079.358zm.264 1.18l-11.397.05-.081-.359 11.398-.05.08.359zm.264 1.18l-11.398.05-.08-.358 11.398-.05.08.358zm.263 1.181l-11.397.049-.08-.358 11.398-.05.079.36zm.642 2.871l-11.398.05-.081-.358 11.399-.049.08.357zm.262 1.181l-11.397.05-.081-.359 11.399-.05.079.359zm.266 1.181l-11.399.048-.08-.357 11.398-.05.081.359zm.262 1.18l-11.397.049-.08-.36 11.398-.048.079.36zm.264 1.179l-11.398.05-.08-.359 11.399-.048.079.357z" fill="#ADCBF9"/><path d="M185.62 109.49l-16.669.071-5.405-24.205 16.669-.073 5.405 24.207z" fill="#fff"/><path d="M176.081 88.464l-6.989.03-.081-.359 6.989-.03.081.36zm1.115.995l-8.776.037-.079-.357 8.775-.039.08.359zm2.414 4.927l-11.399.048-.08-.359 11.398-.048.081.359zm.261 1.179l-11.397.05-.079-.359 11.397-.049.079.358zm.265 1.18l-11.397.05-.081-.359 11.399-.048.079.357zm.264 1.181l-11.399.048-.079-.357 11.397-.05.081.359zm.263 1.18l-11.398.049-.079-.359 11.398-.049.079.36zm.641 2.872l-11.397.05-.08-.359 11.398-.049.079.358zm.263 1.18l-11.398.05-.08-.358 11.399-.051.079.359zm.265 1.181l-11.399.048-.079-.357 11.397-.05.081.359zm.263 1.18l-11.398.049-.079-.359 11.397-.048.08.358zm.264 1.179l-11.398.05-.081-.358 11.399-.049.08.357z" fill="#ADCBF9"/><path d="M163.702 109.693l-58.3.251-16.778-75.138 7.595-9.566 48.578-.21 18.905 84.663z" fill="#fff"/><path d="M128.738 37.73l-20.547.088-.235-1.054 20.547-.088.235 1.053zm3.28 2.923l-25.796.112-.236-1.053 25.798-.11.234 1.051zm7.093 14.483l-33.507.144-.235-1.053 33.507-.144.235 1.053zm.775 3.47l-33.507.144-.235-1.053 33.507-.144.235 1.053zm.774 3.469l-33.507.144-.235-1.052 33.508-.146.234 1.054zm.775 3.47l-33.506.144-.236-1.053 33.507-.144.235 1.053zm.776 3.469l-33.507.145-.236-1.053 33.507-.144.236 1.052zm1.886 8.444l-33.508.144-.235-1.053 33.507-.145.236 1.054zm.775 3.469l-33.508.145-.236-1.053 33.508-.144.236 1.052zm.774 3.47l-33.507.144-.235-1.052 33.506-.146.236 1.054zm.775 3.47l-33.508.144-.234-1.053 33.506-.144.236 1.053zm.774 3.469l-33.507.145-.235-1.053 33.507-.144.235 1.052zm-58.571-56.53l9.722-.041-2.127-9.525-7.595 9.566z" fill="#ADCBF9"/><path d="M177.334 168.623h-47.462v-19.608h47.614c3.702 0 6.703 3.511 6.703 7.841v3.751c0 4.426-3.068 8.016-6.855 8.016z" fill="#FCECDB"/><path d="M224.7 157.082v2.95a9.66 9.66 0 01-.996 4.321c-1.272 2.552-3.639 4.269-6.349 4.269h-88.937c-.589 0-1.065-.558-1.065-1.245v-.442c0-.687.476-1.245 1.065-1.245h54.216c.289-.413.544-.86.761-1.337a9.065 9.065 0 00.794-3.749v-3.751c0-.69-.076-1.359-.22-1.995a8.39 8.39 0 00-1.257-2.911h-54.294c-.589 0-1.065-.558-1.065-1.246v-.441c0-.689.476-1.246 1.065-1.246h89.385c3.149 0 5.806 2.47 6.631 5.844.173.708.266 1.454.266 2.224z" fill="#699DEE"/><path d="M224.434 154.861h-40.465a8.403 8.403 0 00-1.257-2.912h-54.294c-.589 0-1.065-.557-1.065-1.246v-.44c0-.689.476-1.246 1.065-1.246h89.385c3.15 0 5.806 2.469 6.631 5.844z" fill="#548EE2"/><path d="M129.873 158.819l6.585.33-6.585.199v-.529zm0 3.077l15.667.329-15.667.198v-.527z" fill="#F4D2B8"/><path d="M130.143 183.833h50.524v-15.251h-50.934c-3.488 0-6.315 3.307-6.315 7.386.001 4.344 3.012 7.865 6.725 7.865z" fill="#2B478B"/><path d="M177.768 183.833h57.501v-15.251h-57.648c-3.546 0-6.419 3.361-6.419 7.509v.062c.001 4.242 2.939 7.68 6.566 7.68z" fill="#FCECDB"/><path d="M167.362 183.833h69.903c.539 0 .975-.51.975-1.14 0-.631-.436-1.141-.975-1.141h-69.903c-.539 0-.975.51-.975 1.141 0 .63.438 1.14.975 1.14zm0-12.97h69.903c.539 0 .976-.51.976-1.141 0-.63-.437-1.14-.976-1.14h-69.903c-.538 0-.975.51-.975 1.14 0 .631.438 1.141.975 1.141z" fill="#2B478B"/><path d="M235.269 176.207l-7.768.257 7.768.154v-.411zm0-3.509l-18.478.256 18.478.154v-.41z" fill="#F4D2B8"/><path d="M216.98 172.902s.792.655 1.054 1.733c.047.188.076.39.082.603.044 1.43 0 4.669 0 4.669l2.338-1.619 2.331 1.619v-4.389c0-.83-.2-1.638-.572-2.167-.179-.256-.398-.449-.646-.449h-4.587z" fill="#699DEE"/><path d="M216.98 172.902s.792.655 1.054 1.733l4.686.064s-.183-1.542-1.151-1.797h-4.589z" fill="#568CDB"/><path d="M182.937 149.057h51.621v-22.409h-51.791c-4.133 0-7.485 3.92-7.485 8.755v4.698c0 4.947 3.427 8.956 7.655 8.956z" fill="#FCECDB"/><path d="M176.495 135.343v4.822c.012 2.06.987 3.846 2.419 4.803.705.468 1.52.737 2.387.737h56.059c.657 0 1.19.623 1.19 1.392v.569c0 .769-.533 1.392-1.19 1.392h-96.844c-2.779 0-5.235-1.615-6.718-4.089-.935-1.558-1.485-3.456-1.485-5.505v-3.805c0-1.404.275-2.734.765-3.918 1.245-3.012 3.883-5.091 6.937-5.091h97.345c.657 0 1.19.622 1.19 1.391v.569c0 .769-.533 1.392-1.19 1.392h-56.23c-1.344 0-2.56.669-3.411 1.739-.751.948-1.215 2.211-1.224 3.602z" fill="#B5453C"/><path d="M234.557 137.852l-7.185.377 7.185.227v-.604zm0-5.157l-17.096.377 17.096.228v-.605z" fill="#F4D2B8"/><path d="M217.637 132.998s1.128.71 1.501 1.878c.066.204.109.423.118.653.062 1.552 0 5.064 0 5.064l3.331-1.757 3.322 1.757v-4.759c0-.901-.285-1.775-.815-2.349-.257-.277-.568-.487-.92-.487h-6.537z" fill="#68C2D0"/><path d="M183.834 118.34c2.954 6.015 6.671 8.336 6.671 8.336h15.462c-.001.002-24.388-12.926-22.133-8.336z" fill="#233862"/><path d="M195.709 164.883c.403.54.455 1.143.255 1.788a.011.011 0 01-.003.008c-.369 1.192-1.587 2.523-3.002 3.852-.181.17-.342.326-.482.471l-.107.112-.083.088c-1.32 1.423-.824 1.749-3.194 4.636-2.703 3.29-4.565 3.349-5.094 3.05-.449-.256.462-2.001 1.471-3.962l.146-.286c.135-.26.268-.526.401-.787 1.182-2.361.879-3.467.598-6.981-.228-2.854-3.797-15.947-3.797-15.947l5.181-1.043s1.56 10.426 3.28 12.031c.918.856 1.947.866 2.831 1.501.062.044.123.09.183.135.5.391 1.012.792 1.416 1.334z" fill="#FFB27D"/><path d="M195.709 164.883c.403.54.455 1.143.256 1.788 0 .003-.002.006-.004.009-.452 1.19-1.64 2.515-3.007 3.84-.179.173-.336.333-.477.482l-.107.112-.083.088c-1.32 1.423-.824 1.749-3.194 4.636-2.703 3.29-4.565 3.349-5.094 3.05-.449-.256.462-2.001 1.471-3.962.527-.226 2.97-1.386 4.819-4.153 1.628-2.43 2.714-5.551 3.822-7.359.062.044.123.09.183.135.499.391 1.011.792 1.415 1.334z" fill="#233862"/><path d="M153.937 161.098c-.32 1.871-2.598 1.558-5.145.831-2.546-.728-1.941.137-5.565-.332-3.625-.469-4.723-2.049-4.833-2.68-.099-.559 1.692-.756 3.613-1.014.242-.032.484-.068.727-.102 2.169-.319 3.757-1.955 5.727-3.3 1.866-1.274 4.65-6.462 4.65-6.462l4.971.461s-2.609 4.633-3.617 6.648c-.594 1.185-.562 2.752-.487 3.962.035.656.072 1.329-.041 1.988z" fill="#FFB27D"/><path d="M148.791 161.929c-2.547-.728-1.942.137-5.566-.332-3.624-.469-4.722-2.049-4.832-2.68-.099-.559 1.692-.756 3.613-1.014l.018.042s2.174 1.803 5.19 1.887c2.459.07 5.064-.755 6.762-.722.039.658.076 1.331-.038 1.99-.321 1.868-2.601 1.556-5.147.829z" fill="#233862"/><path d="M172.985 123.921l4.647 14.625 6.066 19.096s1.646.186 3.224-.344c1.451-.49 3.116-1.775 3.116-1.775s-1.684-20.504-4.826-32.274c-.805-3.021-1.708-5.465-2.704-6.84-4.873-6.733-9.523 7.512-9.523 7.512z" fill="#68C2D0"/><path d="M177.709 100.694c3.043-1.149 11.726.326 20.448 2.323l1.826-3.523 18.838-1.721s6.217 16.125 2.813 26.399c-.5 1.511-1.495 2.479-3.188 2.512 0 .001-.275-.002-.275 0 0 0-11.212-.007-14.853-.007-9.368 0-19.828-7.534-21.18-7.85-2.214-.519-3.1 4.662-5.315 10.102-2.214 5.44-20.816 24.09-20.816 24.09s-2.859.033-4.04-.485c-1.269-.557-1.735-1.28-1.735-1.28s20.612-47.968 27.477-50.56z" fill="#0E80A4"/><path d="M200.093 69.15c6.708 4.32 20.318 13.277 20.388 13.219 0 0 5.003 2.205 7.84 0 4.73-3.675 7.266-13.563-1.383-22.072-4.313-4.244-7.379-5.277-7.845-12.054-.252-3.676-4.549-15.81-11.687-14.687-.596.094-4.268.294-6.681 1.776-6.151 3.778-10.688 32.145-.632 33.818z" fill="#233862"/><path d="M205.716 65.472c-.029.023 3.3 1.352 5.528.199 2.094-1.084 3.681-5.114 3.651-5.117-.953-.051-1.999-1.026-2.806-7.42l-.405.17-6.823 2.87s.495 2.562.814 4.999c.268 2.048.414 4.009.041 4.3z" fill="#FFB27D"/><path d="M204.861 56.176s.495 2.561.814 4.998c3.918-.824 5.456-5.392 6.008-7.87l-6.822 2.872z" fill="#ED975D"/><path d="M203.844 58.718s9.334-1.466 8.465-8.252c-.87-6.786-.25-11.544-6.247-10.896-5.997.649-6.82 3.44-7 5.788-.181 2.347 2.332 13.565 4.782 13.36z" fill="#FFB27D"/><path d="M199.402 41.64s5.975 6.022 10.04 6.508c4.065.486 5.603-1.04 5.603-1.04s-2.396-2.327-3.837-6.082c-.426-1.106-1.323-1.866-2.356-1.97-2.903-.294-8.404-.428-9.45 2.584z" fill="#233862"/><path d="M203.137 41.1s-1.999 2.26-2.628 3.937c-.607 1.618-.789 5.488-.306 7.026 0 0-3.114-7.085-1.351-10.526 1.87-3.65 4.285-.438 4.285-.438z" fill="#233862"/><path d="M197.856 81.557c.282 22.102.077 17.484 2.144 19.58.499.505 1.899.806 3.742.948 5.794.45 15.978-.666 16.365-1.92 1.337-4.333.394-5.68 1.508-12.314.116-.706.26-1.47.429-2.3.93-4.557 1.834-6.108-1.464-13.429-2.991-6.631-6.098-12.014-6.378-11.82-7.891 5.48-8.527.874-8.527.874s-7.957 9.599-7.819 20.38z" fill="#fff"/><path d="M177.631 138.546l6.067 19.096s1.646.186 3.223-.344c1.452-.49 3.117-1.775 3.117-1.775s-1.685-20.504-4.826-32.274l-7.581 15.297z" fill="#68C2D0"/><path d="M205.675 61.174s-8.119 1.611-9.074 5.7l-6.565 28.13s4.128.868 6.035-1.363 6.635-20.694 6.635-20.694l2.969-11.773z" fill="#fff"/><path d="M203.74 102.085c5.794.45 15.979-.666 16.366-1.92 1.337-4.333.393-5.68 1.508-12.314l-2.795-9.204s.462 10.25-2.122 12.946c-2.582 2.695-10.58 5.204-11.838 7.456-.603 1.081-1.003 2.166-1.119 3.036z" fill="#EBF3FF"/><path d="M210.379 97.774s-5.716-1.489-6.639-.894c-.922.593-3.176 2.754-3.459 3.506-.282.751 2.053-.57 2.813-.81.493-.154 1.788.372 2.428.622 2.698 1.052 4.351.511 4.351.511l.506-2.935z" fill="#FFB27D"/><path d="M214.207 60.297s7.676.553 10.332 4.888c3.74 6.101 11.159 32.106 6.907 35.575-4.788 3.906-21.794 1.022-21.794 1.022s-.566-3.094.221-4.59c.787-1.497 13.582-3.915 14.174-4.606.59-.69-7.382-13.47-7.382-15.543 0-2.072-2.458-16.746-2.458-16.746z" fill="#fff"/><path d="M203.465 98.74s-1.198 1.806-1.59 2.021c-.392.216-.646.162-.646.162l.807-1.7 1.429-.484zm.276-1.862l-3.483 1.978s.148.283.577.26c.429-.022 1.51-.486 1.51-.486l1.396-1.752z" fill="#FFB27D"/><path d="M201.874 103.531h-27.545l-8.286-24.102h27.502l8.329 24.102z" fill="#68C2D0"/><path d="M174.006 102.592h36.373v.939h-36.05l-.323-.939z" fill="#3C8F9C"/><path d="M181.283 91.48c-.208-.848.211-1.534.936-1.534.724 0 1.479.688 1.687 1.534.208.847-.211 1.533-.936 1.533-.724 0-1.48-.686-1.687-1.533z" fill="#fff"/></svg>