<svg width="104" height="94" fill="none" xmlns="http://www.w3.org/2000/svg"><path d="M102.919 27.593c-.739-.722-1.793-1.177-2.965-1.177h-9.918V1.5c0-.829-.743-1.5-1.66-1.5H15.623c-.916 0-1.66.671-1.66 1.5v24.916H4.046c-1.171 0-2.225.455-2.964 1.177C.412 28.245 0 29.115 0 30.073v60.27C0 92.36 1.815 94 4.045 94h95.91c2.23 0 4.045-1.64 4.045-3.656V30.072c0-.957-.412-1.827-1.081-2.48zm-87.296 6.305c.917 0 1.66-.672 1.66-1.5V3h69.434v29.398c0 .828.743 1.5 1.66 1.5.916 0 1.66-.672 1.66-1.5v-2.982h8.41l-44.58 41.963a2.708 2.708 0 01-1.867.729 2.71 2.71 0 01-1.868-.73L5.554 29.417h8.41v2.982c0 .828.743 1.5 1.66 1.5zM99.955 91H4.045c-.393 0-.726-.3-.726-.656v-58.7l30.345 28.564-26.7 25.134c-.635.597-.614 1.547.047 2.12.322.28.736.419 1.15.419.435 0 .87-.155 1.197-.462l26.606-25.045 11.774 11.082c1.131 1.065 2.645 1.652 4.262 1.652 1.617 0 3.131-.587 4.263-1.652l11.773-11.082 10.407 9.796c.326.306.761.46 1.197.46.413 0 .828-.138 1.15-.417.66-.574.682-1.524.047-2.121l-10.5-9.884 30.344-28.564v58.7c0 .355-.333.656-.726.656z" fill="#0E80A4"/><path d="M86.119 75.064c-.635-.598-1.686-.616-2.347-.043-.661.574-.682 1.523-.048 2.12L94.642 87.42c.326.307.761.461 1.198.461.413 0 .827-.138 1.149-.418.66-.573.682-1.523.047-2.12L86.12 75.064zM32.394 49.6H63.75c2.859 0 5.185-2.102 5.185-4.686a4.34 4.34 0 00-.808-2.51c1.36-.846 2.252-2.262 2.252-3.863a4.34 4.34 0 00-.808-2.51c1.36-.846 2.252-2.262 2.252-3.863a4.34 4.34 0 00-.808-2.51c1.36-.846 2.252-2.262 2.252-3.863 0-2.584-2.326-4.686-5.185-4.686h-9.414c1.572-3.042 2.42-6.653 2.42-10.423C61.086 8.102 58.76 6 55.9 6s-5.185 2.102-5.185 4.686c0 5.747-5.173 10.423-11.531 10.423h-6.79c-.917 0-1.66.671-1.66 1.5V48.1c0 .829.743 1.5 1.66 1.5zm21.641-38.914c0-.93.837-1.686 1.866-1.686 1.029 0 1.866.756 1.866 1.686 0 4.208-1.172 8.152-3.3 11.105a1.378 1.378 0 00-.069 1.533c.29.484.85.785 1.46.785H68.08c1.028 0 1.865.757 1.865 1.687s-.836 1.686-1.865 1.686h-4.332c-.917 0-1.66.671-1.66 1.5s.743 1.5 1.66 1.5h2.888c1.028 0 1.866.757 1.866 1.687s-.837 1.686-1.866 1.686h-2.888c-.917 0-1.66.671-1.66 1.5s.743 1.5 1.66 1.5h1.444c1.029 0 1.866.756 1.866 1.686 0 .93-.837 1.687-1.866 1.687h-1.444c-.917 0-1.66.671-1.66 1.5 0 .828.743 1.5 1.66 1.5 1.029 0 1.866.756 1.866 1.686 0 .93-.837 1.686-1.866 1.686H40.844V24.023c7.41-.748 13.191-6.443 13.191-13.337zM34.054 24.11h3.471V46.6h-3.471V24.109z" fill="#0E80A4"/></svg>