<svg width="15" height="10" viewBox="0 0 15 10" fill="none" xmlns="http://www.w3.org/2000/svg">
<path fill-rule="evenodd" clip-rule="evenodd" d="M2.83817 7.71739C0.898449 6.57229 0 5 0 5C0 5 2.22222 1.11111 7.22222 1.11111C7.94695 1.11111 8.61332 1.19281 9.22302 1.33253L8.75106 1.8045C8.27619 1.7167 7.76672 1.66667 7.22222 1.66667C2.77778 1.66667 0.66664 5 0.66664 5C0.66664 5 1.50818 6.32874 3.24718 7.30837L2.83817 7.71739ZM5.22142 8.66747C5.83112 8.80719 6.49749 8.88889 7.22222 8.88889C12.2222 8.88889 14.4444 5 14.4444 5C14.4444 5 13.546 3.42771 11.6063 2.28261L11.1973 2.69163C12.9363 3.67127 13.7778 5 13.7778 5C13.7778 5 11.6667 8.33333 7.22222 8.33333C6.67773 8.33333 6.16825 8.2833 5.69339 8.1955L5.22142 8.66747ZM9.38814 4.50075C9.42498 4.66123 9.44444 4.82834 9.44444 5C9.44444 6.2273 8.44952 7.22222 7.22222 7.22222C7.05056 7.22222 6.88345 7.20276 6.72297 7.16592L7.22222 6.66667C7.64876 6.66667 8.0753 6.50395 8.40073 6.17851C8.72617 5.85308 8.88889 5.42654 8.88889 5L9.38814 4.50075ZM7.72147 2.83408C7.56099 2.79724 7.39388 2.77778 7.22222 2.77778C5.99492 2.77778 5 3.7727 5 5C5 5.17166 5.01946 5.33877 5.0563 5.49925L5.55556 5C5.55556 4.57346 5.71827 4.14693 6.04371 3.82149C6.36915 3.49605 6.79569 3.33333 7.22222 3.33333L7.72147 2.83408ZM11.6667 0L2.22222 9.44444L2.77778 10L12.2222 0.555556L11.6667 0Z" fill="#7A7A7A"/>
</svg>
