<svg width="15" height="9" viewBox="0 0 15 9" fill="none" xmlns="http://www.w3.org/2000/svg">
<path d="M7.2825 8.4C11.1933 8.4 14.2881 4.5501 14.4177 4.3863L14.565 4.2L14.4177 4.0137C14.2881 3.8499 11.1933 0 7.2825 0C3.3717 0 0.2769 3.8499 0.1473 4.0137L0 4.2L0.1473 4.3863C0.2769 4.5501 3.3717 8.4 7.2825 8.4ZM7.2825 0.6C10.4307 0.6 13.1235 3.438 13.7895 4.2C13.1244 4.9626 10.4352 7.8 7.2825 7.8C4.1343 7.8 1.4415 4.962 0.7755 4.2C1.4406 3.4374 4.1298 0.6 7.2825 0.6Z" fill="#0E80A4"/>
<path d="M7.28252 6.89999C8.77142 6.89999 9.98252 5.68859 9.98252 4.19999C9.98252 2.71139 8.77142 1.49999 7.28252 1.49999C5.79362 1.49999 4.58252 2.71139 4.58252 4.19999C4.58252 5.68859 5.79362 6.89999 7.28252 6.89999ZM7.28252 2.09999C8.44022 2.09999 9.38252 3.04199 9.38252 4.19999C9.38252 5.35799 8.44022 6.29999 7.28252 6.29999C6.12482 6.29999 5.18252 5.35799 5.18252 4.19999C5.18252 3.04199 6.12482 2.09999 7.28252 2.09999Z" fill="#0E80A4"/>
</svg>
