<svg width="14" height="13" viewBox="0 0 14 13" fill="none" xmlns="http://www.w3.org/2000/svg">
<path d="M6.1507 0.732781C6.34402 0.40409 6.81935 0.404091 7.01267 0.732781L8.79622 3.76526C8.86897 3.88896 8.99137 3.97544 9.13228 4.00269L12.6585 4.68453C13.0474 4.75972 13.1986 5.23572 12.9244 5.52156L10.514 8.03432C10.4102 8.14248 10.3604 8.2915 10.3784 8.44031L10.7897 11.8511C10.8361 12.2354 10.447 12.5243 10.0925 12.3689L6.78252 10.9171C6.65452 10.8609 6.50886 10.8609 6.38085 10.9171L3.07089 12.3689C2.71642 12.5243 2.32731 12.2354 2.37365 11.8511L2.78499 8.44031C2.80293 8.2915 2.75317 8.14248 2.64941 8.03432L0.238978 5.52156C-0.0352231 5.23572 0.115987 4.75972 0.504878 4.68453L4.0311 4.00269C4.172 3.97544 4.2944 3.88896 4.36716 3.76526L6.1507 0.732781Z" fill="#68C2D0"/>
</svg>
