<svg width="14" height="13" viewBox="0 0 14 13" fill="none" xmlns="http://www.w3.org/2000/svg">
<path d="M6.23139 0.732781C6.42471 0.40409 6.90004 0.404091 7.09336 0.732781L8.8769 3.76526C8.94966 3.88896 9.07206 3.97544 9.21296 4.00269L12.7392 4.68453C13.1281 4.75972 13.2793 5.23572 13.0051 5.52156L10.5947 8.03432C10.4909 8.14248 10.4411 8.2915 10.4591 8.44031L10.8704 11.8511C10.9168 12.2354 10.5276 12.5243 10.1732 12.3689L6.86321 10.9171C6.73521 10.8609 6.58954 10.8609 6.46154 10.9171L3.15158 12.3689C2.79711 12.5243 2.408 12.2354 2.45434 11.8511L2.86567 8.44031C2.88362 8.2915 2.83386 8.14248 2.7301 8.03432L0.319667 5.52156C0.0454654 5.23572 0.196675 4.75972 0.585567 4.68453L4.11178 4.00269C4.25269 3.97544 4.37509 3.88896 4.44784 3.76526L6.23139 0.732781Z" fill="#C4C4C4"/>
</svg>
