<svg width="25" height="25" viewBox="0 0 25 25" fill="none" xmlns="http://www.w3.org/2000/svg">
<path d="M13.5198 12.4999L23.8272 2.19246C24.1089 1.91076 24.1089 1.4544 23.8272 1.1727C23.5455 0.891001 23.0891 0.891001 22.8074 1.1727L12.5 11.4801L2.19258 1.1727C1.91088 0.891001 1.45452 0.891001 1.17282 1.1727C0.891123 1.4544 0.891123 1.91076 1.17282 2.19246L11.4803 12.4999L1.17282 22.8073C0.891123 23.089 0.891123 23.5454 1.17282 23.8271C1.31367 23.9679 1.49772 24.0383 1.6827 24.0383C1.86769 24.0383 2.05173 23.9679 2.19258 23.8271L12.5 13.5196L22.8074 23.8271C22.9483 23.9679 23.1323 24.0383 23.3173 24.0383C23.5023 24.0383 23.6863 23.9679 23.8272 23.8271C24.1089 23.5454 24.1089 23.089 23.8272 22.8073L13.5198 12.4999Z" fill="#5A5A5A"/>
</svg>
