<svg width="29" height="29" viewBox="0 0 29 29" fill="none" xmlns="http://www.w3.org/2000/svg">
<circle cx="14.5" cy="14.5" r="14" stroke="#CFCFCF"/>
<path d="M21.025 10.0185C21.025 8.93288 20.0671 7.97498 18.9814 7.97498H10.7435C9.65785 7.97498 8.69995 8.93288 8.69995 10.0185V18.2564C8.69995 19.3421 9.65785 20.3 10.7435 20.3H14.8944V15.6382H13.3617V13.5947H14.8944V12.7645C14.8944 11.3596 15.9161 10.1462 17.1933 10.1462H18.8537V12.1897H17.1933C17.0018 12.1897 16.8102 12.3813 16.8102 12.7645V13.5947H18.8537V15.6382H16.8102V20.3H18.9814C20.0671 20.3 21.025 19.3421 21.025 18.2564V10.0185Z" fill="#CFCFCF"/>
</svg>
