<svg width="29" height="29" viewBox="0 0 29 29" fill="none" xmlns="http://www.w3.org/2000/svg">
<circle cx="14.5" cy="14.5" r="14" stroke="#CFCFCF"/>
<path d="M14.7477 13.3702V16.24H18.6506C18.0766 17.7897 16.5844 18.8228 14.8625 18.8228C12.624 18.8228 10.8448 17.0435 10.8448 14.8051C10.8448 12.5666 12.624 10.7874 14.8625 10.7874C15.7234 10.7874 16.527 11.0744 17.2157 11.5335L17.4453 11.7057L19.1672 9.46727L18.9376 9.29508C17.7323 8.43414 16.3548 7.97498 14.8625 7.97498C11.0744 7.97498 7.97498 11.0744 7.97498 14.8625C7.97498 18.6506 11.0744 21.75 14.8625 21.75C18.6506 21.75 21.75 18.6506 21.75 14.8625V13.4276H14.7477V13.3702Z" fill="#CFCFCF"/>
</svg>
