<svg width="154" height="23" viewBox="0 0 154 23" fill="none" xmlns="http://www.w3.org/2000/svg">
<path d="M9.55576 17.1772C9.11196 16.4357 8.51194 15.8805 7.84209 15.3683C7.14976 14.8381 6.39352 14.2912 5.56982 14.0166C4.80648 13.7635 3.86561 13.8638 3.10937 14.099C2.37798 14.3259 1.85252 14.7832 1.57559 15.533C1.29747 16.2853 1.2312 17.0244 1.83477 17.619C2.38745 18.1635 3.20523 18.5181 3.95437 18.5778C4.17805 18.5957 4.76387 18.6351 4.92246 18.4333C5.10589 18.2005 5.04909 17.5581 4.9911 17.3014C4.82896 16.5766 4.10586 15.9748 3.49282 16.585C2.86203 17.2118 2.01347 16.093 2.63953 15.4709C3.32831 14.7856 4.39818 14.7414 5.19466 15.2739C5.99469 15.8088 6.3805 16.782 6.38168 17.742C6.38168 18.7235 6.07634 19.5891 5.113 19.8709C4.18988 20.1408 3.18275 19.9712 2.30816 19.5736C1.48209 19.1963 0.68088 18.61 0.258379 17.7539C-0.17714 16.8715 -0.00198518 15.7921 0.341223 14.9157C1.09746 12.9862 3.14133 12.3569 5.00412 12.4751C6.16392 12.5492 7.23142 13.2202 8.17465 13.8877C9.10012 14.542 10.0114 15.2954 10.6102 16.2972C11.073 17.0674 10.0209 17.9545 9.55576 17.1772Z" fill="white"/>
<path d="M26.4852 9.17843C26.6639 10.8942 26.0225 12.3533 25.0509 12.4322C24.0792 12.5145 23.1455 11.1892 22.9668 9.47336C22.7881 7.75754 23.4295 6.30202 24.4011 6.21963C25.3728 6.13963 26.3065 7.46261 26.4852 9.17843Z" fill="white"/>
<path d="M7.65857 10.7402C7.65857 15.5414 11.654 18.7569 16.5086 18.7569C21.3632 18.7569 25.1302 16.1993 25.232 10.7402C25.3231 5.94141 21.2981 2.04651 16.4471 2.04651C11.5924 2.04651 7.65857 5.93903 7.65857 10.7402Z" fill="white"/>
<path d="M18.698 2.50149C18.672 2.06686 16.1488 2.01432 15.5452 0.454924C15.4695 0.256715 15.4423 0.0859699 15.4316 0C15.1831 0.0799998 14.6588 0.286566 14.1937 0.794027C13.7487 1.2788 13.5818 1.79224 13.5179 2.04298C13.4102 1.9988 13.1522 1.87462 12.9558 1.58806C12.725 1.25134 12.725 0.902684 12.7297 0.794027C12.5132 0.976713 12.2646 1.23701 12.054 1.58806C11.4043 2.68656 11.635 3.85551 11.7179 4.20178C17.4601 3.32298 18.7181 2.81193 18.698 2.50149Z" fill="white"/>
<path d="M12.466 14.6053C12.9547 16.8465 15.917 18.093 19.0816 17.3898C22.2486 16.6865 24.4179 14.3008 23.9291 12.0632C23.4403 9.822 20.4781 8.57543 17.3099 9.27872C14.1489 9.97842 11.976 12.3641 12.466 14.6053Z" fill="#68C2D0"/>
<path d="M11.3759 10.4859C11.7593 12.5146 13.5369 13.7814 15.3488 13.3146C17.1607 12.8477 18.3205 10.825 17.9371 8.79637C17.5536 6.76772 15.7737 5.50085 13.9641 5.96772C12.1522 6.43458 10.9924 8.45727 11.3759 10.4859Z" fill="#68C2D0"/>
<path d="M22.4627 7.61309C22.8462 9.64173 21.8011 11.6345 20.1324 12.0656C18.4637 12.4966 16.7986 11.1999 16.4175 9.17128C16.0341 7.14264 17.0791 5.14982 18.7478 4.71878C20.4165 4.28774 22.0793 5.58086 22.4627 7.61309Z" fill="#68C2D0"/>
<path d="M8.9616 15.3349C8.39708 15.4519 7.80416 15.1522 7.29999 14.554C6.79702 13.957 6.39108 13.071 6.20291 12.0334C6.01474 10.997 6.0822 10.0119 6.33901 9.25729C6.59701 8.50148 7.04318 7.98566 7.6077 7.86745C8.17222 7.75044 8.76514 8.05013 9.2693 8.64834C9.77228 9.24535 10.1782 10.1313 10.3664 11.1677C10.5557 12.2041 10.4895 13.1892 10.2326 13.945C9.97465 14.7032 9.52848 15.219 8.9616 15.3349Z" fill="white" stroke="#68C2D0" stroke-width="0.7"/>
<path d="M7.55205 11.9521C8.79115 14.4607 8.97104 16.3294 9.81604 16.0846C10.6634 15.8398 10.8895 13.17 10.6149 11.0637C10.3427 8.95749 8.49764 7.52227 8.20532 7.8172C7.91301 7.8172 7.27985 9.84584 7.55205 11.9521Z" fill="white"/>
<path d="M20.9962 14.7533C20.885 14.8835 19.7086 16.2089 17.6269 16.1802C16.1333 16.1599 14.738 15.4483 13.9877 14.3318C14.2741 14.5683 15.5747 15.5832 17.5996 15.6489C19.4092 15.7098 20.6506 14.9742 20.9962 14.7533Z" fill="white"/>
<path d="M17.2955 13.028C17.3973 13.0805 17.776 13.2584 18.2553 13.1521C18.7358 13.0459 19.0045 12.7235 19.0778 12.6328C18.8293 12.7271 18.5335 12.8214 18.1997 12.8954C17.8695 12.9683 17.5618 13.0065 17.2955 13.028Z" fill="white"/>
<path d="M25.3208 10.8776C25.3978 10.8358 25.5019 10.8907 25.509 11.0065L25.928 18.8477C25.9303 18.9146 25.8972 18.9755 25.8463 19.0005L18.9407 22.4668L18.9395 22.468C18.9135 22.4823 18.8804 22.4847 18.852 22.474H18.8508L11.5263 19.9701H11.5251C11.4742 19.9534 11.4339 19.8996 11.4292 19.8292L11.0103 11.9844C11.0067 11.9283 11.0292 11.8794 11.0635 11.8495C11.0966 11.8197 11.1393 11.8089 11.1819 11.8244H11.183L18.4815 14.388H18.4827C18.5383 14.4071 18.5987 14.4035 18.6508 14.3761L25.3208 10.8776Z" fill="white" stroke="#68C2D0" stroke-width="0.8"/>
<path d="M18.7039 22.0119L18.3441 15.0041L18.8743 14.8477L19.182 21.7253L18.7039 22.0119Z" fill="#68C2D0"/>
<path d="M11.6955 11.6525L11.6576 11.9856L11.6387 11.9665L11.5961 11.6537V11.3958L16.9915 13.5569L11.7274 11.6334L11.699 11.6226L11.6955 11.6525Z" fill="white" stroke="#68C2D0" stroke-width="0.4"/>
<path d="M24.9563 11.059L24.7279 10.3629L19.3608 13.7169L24.7338 10.7486L24.7539 10.7378L24.7658 10.7581L24.9433 11.0602H24.9563V11.059Z" fill="white" stroke="#68C2D0" stroke-width="0.4"/>
<path d="M13.3616 18.2458C13.3735 18.8429 12.5971 19.3384 11.629 19.3563C10.6633 19.3742 9.8692 18.9049 9.85737 18.3079C9.84908 17.7109 10.6219 17.2154 11.59 17.1975C12.5592 17.1808 13.3522 17.65 13.3616 18.2458Z" fill="white"/>
<path d="M12.6825 18.2578C12.6884 18.6208 12.2139 18.9253 11.6221 18.9372C11.0304 18.9492 10.5475 18.659 10.5392 18.296C10.5333 17.9331 11.0079 17.6286 11.5985 17.6166C12.1902 17.6083 12.6731 17.8948 12.6825 18.2578Z" fill="#68C2D0"/>
<path d="M13.6304 16.9647C13.6422 17.662 12.738 18.2399 11.6102 18.2614C10.4799 18.2817 9.55802 17.7324 9.54382 17.0387C9.53198 16.345 10.4362 15.7635 11.564 15.742C12.6942 15.7217 13.6185 16.2709 13.6304 16.9647Z" fill="white"/>
<path d="M12.8376 16.9802C12.8435 17.4052 12.2932 17.7599 11.602 17.7718C10.9109 17.7838 10.3463 17.4494 10.3404 17.0244C10.3321 16.5993 10.8848 16.2447 11.576 16.2327C12.2636 16.2208 12.8281 16.5539 12.8376 16.9802Z" fill="#68C2D0"/>
<path d="M13.0282 15.7981C13.04 16.3939 12.2637 16.8907 11.2956 16.9086C10.3299 16.9265 9.53576 16.4572 9.52393 15.8602C9.52393 15.8339 9.52393 15.8065 9.52748 15.7802C9.58547 15.2226 10.3322 14.7677 11.2542 14.7498C12.2258 14.733 13.0164 15.2023 13.0282 15.7981Z" fill="white"/>
<path d="M12.3451 15.81C12.351 16.173 11.8764 16.4775 11.2859 16.4894C10.8444 16.4978 10.2882 16.2709 10.2113 15.9258C10.2077 15.9079 10.203 15.8841 10.203 15.8494C10.2089 15.5103 10.777 15.1796 11.2622 15.17C11.8563 15.1605 12.3392 15.447 12.3451 15.81Z" fill="#68C2D0"/>
<path d="M10.9487 13.7755C10.7558 13.8674 10.1321 14.154 9.79832 14.776C9.55808 15.2214 9.52612 15.6417 9.52612 15.8602C9.99123 15.5092 10.454 15.1569 10.9203 14.8035C10.8966 14.4644 10.97 14.1181 10.9487 13.7755Z" fill="white"/>
<path d="M10.7438 15.3969C10.5746 15.5975 10.4042 15.7957 10.2349 15.994C10.2113 15.9235 10.068 15.4531 10.2527 14.9635C10.4077 14.5468 10.6953 14.3964 10.7616 14.3665C10.5367 14.751 10.4811 15.1343 10.5923 15.3026C10.6184 15.3384 10.6586 15.379 10.7438 15.3969Z" fill="#68C2D0"/>
<path d="M23.6592 16.5193C23.7006 17.1152 24.5137 17.5438 25.4806 17.4793C26.4463 17.4148 27.1966 16.8763 27.1552 16.2829C27.1138 15.6895 26.3007 15.2584 25.3374 15.3229C24.3705 15.3874 23.6178 15.9223 23.6592 16.5193Z" fill="white"/>
<path d="M24.3373 16.4716C24.361 16.8345 24.8581 17.0972 25.4498 17.0566C26.038 17.0184 26.4984 16.6901 26.4747 16.3271C26.451 15.9641 25.954 15.7014 25.3622 15.742C24.7705 15.7802 24.3149 16.1086 24.3373 16.4716Z" fill="#68C2D0"/>
<path d="M23.2841 15.2644C23.3314 15.9581 24.2794 16.4608 25.4061 16.3832C26.5327 16.3068 27.4085 15.6799 27.3612 14.9862C27.315 14.2925 26.3635 13.7898 25.2392 13.8674C24.1125 13.9474 23.2379 14.5707 23.2841 15.2644Z" fill="white"/>
<path d="M24.0746 15.2107C24.1042 15.6357 24.683 15.9402 25.3717 15.8925C26.0593 15.8447 26.5954 15.4638 26.5659 15.0387C26.5363 14.6136 25.9575 14.3092 25.2688 14.3569C24.5812 14.4047 24.0486 14.7856 24.0746 15.2107Z" fill="#68C2D0"/>
<path d="M23.67 14.05C23.7114 14.647 24.5244 15.0745 25.4878 15.01C26.4535 14.9456 27.2027 14.4083 27.1624 13.8148C27.1624 13.7886 27.1565 13.7611 27.1541 13.7348C27.0488 13.182 26.2677 12.7963 25.3446 12.8584C24.3777 12.9193 23.6286 13.4542 23.67 14.05Z" fill="white"/>
<path d="M24.348 14.0035C24.3716 14.3665 24.8687 14.6291 25.4604 14.5885C25.9019 14.5587 26.4356 14.2876 26.4818 13.9354C26.4853 13.9175 26.4877 13.8936 26.4853 13.859C26.4498 13.5223 25.8557 13.2393 25.3729 13.2739C24.7811 13.3121 24.3255 13.6393 24.348 14.0035Z" fill="#68C2D0"/>
<path d="M25.6084 11.8483C25.8037 11.9128 26.393 12.1361 26.799 12.7534C27.0771 13.1773 27.1434 13.594 27.1623 13.8101C26.6712 13.4997 26.1788 13.1868 25.6865 12.8764C25.6628 12.7176 25.6415 12.5468 25.6285 12.3653C25.6131 12.1827 25.6084 12.0095 25.6084 11.8483Z" fill="white"/>
<path d="M25.909 13.4542C26.0937 13.6369 26.2807 13.8232 26.4653 14.0071C26.483 13.9366 26.5848 13.4542 26.3599 12.9826C26.1694 12.5814 25.8712 12.4572 25.8037 12.431C26.0617 12.794 26.1493 13.1725 26.0499 13.3492C26.0286 13.3826 25.9907 13.4304 25.909 13.4542Z" fill="#68C2D0"/>
<path d="M15.9867 10.7164C16.0684 11.3396 15.6826 11.9032 15.1263 11.9772C14.5701 12.0513 14.0553 11.6047 13.976 10.9826C13.8943 10.3593 14.2801 9.79576 14.8364 9.72173C15.3902 9.6477 15.9086 10.0931 15.9867 10.7164Z" fill="white"/>
<path d="M14.8682 10.1671C14.9037 10.4298 14.7392 10.6662 14.5084 10.6961C14.2741 10.7259 14.0575 10.5397 14.0256 10.277C13.9901 10.0143 14.1546 9.77786 14.3854 9.74801C14.6197 9.71816 14.8363 9.90444 14.8682 10.1671Z" fill="#68C2D0"/>
<path d="M21.1538 9.65009C21.2331 10.2734 20.8497 10.8369 20.2934 10.911C19.7372 10.985 19.2224 10.5384 19.1431 9.91516C19.0614 9.29188 19.4473 8.7283 20.0011 8.65427C20.5574 8.58143 21.0722 9.028 21.1538 9.65009Z" fill="white"/>
<path d="M20.1266 8.9862C20.1621 9.24889 19.9976 9.4853 19.7669 9.51515C19.5325 9.545 19.316 9.35873 19.284 9.09605C19.2485 8.83337 19.413 8.59695 19.6438 8.5671C19.8745 8.53725 20.0911 8.72352 20.1266 8.9862Z" fill="#68C2D0"/>
<path d="M11.6753 11.6202V11.9784L12.0895 12.0978L11.912 11.7396L11.6753 11.6202Z" fill="#68C2D0"/>
<path d="M11.699 11.7826L15.221 13.1068L18.3016 14.2817L11.8422 11.9163L11.699 11.7826Z" fill="white"/>
<path d="M23.4509 11.4411L19.6638 13.7695L22.5633 12.277L24.9303 11.0829L24.7528 10.7247L23.4509 11.4411Z" fill="#68C2D0"/>
<path d="M24.7243 10.9133L21.4247 12.7283L18.5394 14.3319L24.6012 11.0674L24.7243 10.9133Z" fill="white"/>
<path d="M96.1459 18.9157L94.9979 17.3133C94.4642 18.9157 93.5162 19.2799 92.8227 19.2799C91.6475 19.2799 91.4629 18.216 91.4629 17.5963V9.5701H87.2722V12.1002H88.4722V17.5545C87.9515 19.0901 86.6686 19.5342 85.8153 19.5342C84.6401 19.5342 84.1738 18.6315 84.1738 17.8507V12.1158H85.6555V9.5713H84.1738V4.47998L81.1832 6.28534V9.58443H79.982V12.1146H81.1832V15.6023C80.195 17.6083 78.086 19.9127 75.6019 19.9127C72.8645 19.9127 71.6894 18.2578 71.6894 16.1408C71.6894 12.8823 73.5593 11.7241 75.093 11.7241C75.68 11.7241 76.0398 11.8996 76.0398 11.8996V13.8113H78.576V9.51518C78.576 9.51518 77.2955 9.09846 75.8114 9.09846C69.3106 9.09846 68.5887 14.2841 68.5887 16.222C68.5887 16.6387 68.6301 17.1104 68.7212 17.6083C68.3745 18.9695 67.6525 19.2632 67.133 19.2632C66.0122 19.2632 66.0122 18.1575 66.0122 17.9163V9.59517C66.0122 9.56771 63.9696 9.05668 62.2476 9.05668C56.4935 9.05668 54.6237 13.0841 54.6237 16.6913C54.6237 17.9307 55.1302 22.4954 59.3895 22.4954C61.0582 22.4954 62.6334 21.7014 63.4346 20.3271C63.4346 20.3271 63.4867 20.2471 63.5139 20.2471C63.5411 20.2471 63.5411 20.2745 63.566 20.3271C63.792 21.3372 64.6619 22.2936 66.1022 22.2936C68.1839 22.2936 69.2928 20.9886 69.7343 20.0715C70.6822 21.4041 72.3249 22.4548 75.0871 22.4548C78.144 22.4548 79.9465 20.8524 81.2021 19.4112C81.4554 21.1605 82.7253 22.3999 84.9526 22.3999C87.0757 22.3999 88.3444 21.6333 89.0391 20.825C89.6261 21.7002 90.6143 22.2805 91.9362 22.2805C94.9541 22.2805 96.2074 19.8303 96.2074 19.1557C96.2394 19.0626 96.1459 18.9157 96.1459 18.9157ZM63.0772 16.3832C63.0772 17.8244 62.0227 19.4805 60.115 19.4805C57.7906 19.4805 57.7658 17.0029 57.7658 16.2757C57.7658 12.6674 60.302 11.6298 61.676 11.6298C62.6784 11.6298 63.0772 11.8053 63.0772 11.8053V16.3832Z" fill="white"/>
<path d="M38.1555 4.47876H28.3694V7.2668H30.6523V21.9593H34.0832V16.1551H38.1804C39.8491 16.1551 44.8552 15.9796 44.8552 10.2972C44.8552 4.47876 40.584 4.47876 38.1555 4.47876ZM38.0076 13.4077C37.3934 13.4077 34.0702 13.3802 34.0702 13.3802V7.2668H38.1946C39.4503 7.2668 41.3722 7.29427 41.3722 10.2555C41.3852 13.2584 38.8751 13.4077 38.0076 13.4077Z" fill="white"/>
<path d="M152.148 16.0191C151.787 16.9349 151.295 17.7826 150.626 18.5516C149.958 19.3181 149.238 19.7098 148.476 19.7098C147.781 19.7098 147.139 19.4543 146.539 18.9432C145.925 18.4322 145.444 17.8268 145.097 17.1259C146.178 16.8429 147.085 16.2782 147.82 15.4292C148.555 14.5815 148.928 13.6382 148.928 12.5874C148.928 11.5653 148.608 10.7295 147.967 10.0824C147.311 9.43521 146.471 9.12715 145.416 9.12715C143.2 9.12715 141.545 10.2997 140.424 12.6412V4.4812H136.3V7.01134H137.448V19.0626C137.143 19.2238 136.821 19.2907 136.539 19.2907C135.364 19.2907 135.138 18.2793 135.138 17.6883V13.1247C135.138 10.4728 133.324 9.30028 131.146 9.30028C128.715 9.30028 127.635 10.7415 127.635 10.7415C127.582 10.8215 127.555 10.8501 127.528 10.8501C127.5 10.8501 127.5 10.7976 127.5 10.7701V9.58446H123.348V12.117H124.683V17.397C124.149 18.9325 123.215 19.2823 122.534 19.2823C121.357 19.2823 121.17 18.2185 121.17 17.5988V9.57252H116.98V12.1027H118.18V17.4746C117.66 18.9432 116.737 19.2799 116.058 19.2799C114.909 19.2799 114.655 18.2161 114.655 17.5964V13.1247C114.655 10.4728 112.841 9.30028 110.639 9.30028C108.21 9.30028 107.156 10.7415 107.156 10.7415V4.4812H92.257C92.657 4.99224 92.8984 5.6394 92.8984 6.3391C92.8984 6.64955 92.8463 6.9588 92.7659 7.24179H96.1305V16.8429C96.1305 16.8429 96.9317 17.9343 97.1707 18.3116C97.2642 18.4584 97.424 18.7832 97.424 19.1725C97.424 19.8722 96.9838 20.8966 96.1293 21.7587V21.9617H99.5602V7.24417H104.191V21.9617H107.182V15.3767C107.182 13.6262 108.156 12.1182 109.891 12.1182C110.279 12.1182 111.733 12.3462 111.733 13.9761V18.8501C111.733 20.708 113.041 22.3104 115.244 22.3104C116.912 22.3104 118.047 21.5295 118.716 20.7355C119.289 21.6775 120.318 22.3104 121.692 22.3104C123.027 22.3104 124.013 21.8244 124.71 21.2334V21.9748H127.7V15.3755C127.7 13.625 128.648 12.117 130.384 12.117C130.798 12.117 132.226 12.345 132.226 13.9749V18.8489C132.226 20.7068 133.534 22.3092 135.712 22.3092C136.392 22.3092 136.992 22.1754 137.501 21.9725H140.465C140.465 18.2567 140.652 17.1653 140.826 16.4644C141.106 15.2262 141.598 14.1206 142.279 13.1785C142.959 12.2364 143.746 11.7504 144.641 11.7504C145.564 11.7504 146.123 12.3164 146.123 13.1785C146.123 14.4179 145.041 15.4674 142.185 16.3414C142.266 16.9743 142.92 18.591 143.614 19.5605C144.894 21.3516 146.351 22.308 148.141 22.308C149.156 22.308 150.077 22.0107 150.93 21.4053C152.64 20.1946 153.466 18.6722 154 17.0149L152.148 16.0191Z" fill="white"/>
<path d="M54.6271 14.3497V9.35394C54.4531 9.24528 53.9336 9.22021 53.6791 9.22021C50.408 9.20707 48.8742 11.6309 48.8056 11.7109C48.7535 11.7921 48.7263 11.8196 48.6979 11.8196C48.6458 11.8196 48.6458 11.7109 48.6458 11.7109V9.57006H45.8291V21.9569H48.8198V17.3658C48.8198 16.7999 48.9002 15.022 49.7949 13.7575C50.3015 13.0578 51.0506 12.3832 52.1193 12.3832V14.3497H54.6271Z" fill="white"/>
<path d="M119.575 8.22202C120.578 8.22202 121.417 7.37427 121.417 6.33666C121.417 5.32532 120.578 4.47876 119.575 4.47876C118.548 4.47876 117.733 5.32652 117.733 6.33666C117.733 7.37546 118.534 8.22202 119.575 8.22202Z" fill="white"/>
<path d="M89.8711 8.22202C90.8735 8.22202 91.7138 7.37427 91.7138 6.33666C91.7138 5.32532 90.8735 4.47876 89.8711 4.47876C88.8439 4.47876 88.0284 5.32652 88.0284 6.33666C88.0284 7.37546 88.8439 8.22202 89.8711 8.22202Z" fill="white"/>
</svg>
