<svg width="164" height="32" viewBox="0 0 164 32" fill="none" xmlns="http://www.w3.org/2000/svg">
<path d="M11.9667 19.9969C11.5158 19.2497 10.9063 18.6902 10.2258 18.1741C9.52251 17.6399 8.75424 17.0889 7.91746 16.8122C7.14204 16.5571 6.18621 16.6582 5.41799 16.8952C4.67499 17.1238 4.14121 17.5846 3.85989 18.3402C3.57732 19.0981 3.51 19.8428 4.12315 20.442C4.68462 20.9906 5.51537 21.3479 6.27639 21.4081C6.50362 21.4261 7.09875 21.4658 7.25985 21.2625C7.44622 21.0279 7.38847 20.3806 7.32959 20.122C7.16489 19.3917 6.43028 18.7853 5.80751 19.4001C5.16672 20.0317 4.30473 18.9044 4.94067 18.2776C5.64039 17.587 6.72725 17.5425 7.53639 18.0791C8.34908 18.6181 8.74101 19.5986 8.74225 20.5659C8.74225 21.5549 8.43204 22.4271 7.45342 22.711C6.51566 22.983 5.49252 22.8121 4.60407 22.4115C3.76487 22.0313 2.95095 21.4406 2.52175 20.5779C2.07933 19.6889 2.25726 18.6012 2.60591 17.7181C3.37418 15.7739 5.45047 15.1398 7.34282 15.259C8.52103 15.3335 9.60548 16.0097 10.5637 16.6822C11.5038 17.3415 12.4296 18.1007 13.0379 19.1101C13.508 19.8861 12.4392 20.7801 11.9667 19.9969Z" fill="#497FA0"/>
<path d="M29.1648 11.9371C29.3464 13.6661 28.6947 15.1362 27.7077 15.2157C26.7206 15.2987 25.7721 13.9632 25.5905 12.2343C25.409 10.5055 26.0606 9.03885 27.0477 8.95587C28.0347 8.87523 28.9833 10.2083 29.1648 11.9371Z" fill="#0E80A4"/>
<path d="M10.0394 13.5108C10.0394 18.3485 14.0982 21.5885 19.0298 21.5885C23.9615 21.5885 27.7883 19.0115 27.8917 13.5108C27.9842 8.67551 23.8954 4.75098 18.9673 4.75098C14.0356 4.75098 10.0394 8.67311 10.0394 13.5108Z" fill="#0E80A4"/>
<path d="M21.2541 5.2095C21.2277 4.77158 18.6644 4.71862 18.0513 3.14736C17.9743 2.94763 17.9467 2.77558 17.9359 2.68896C17.6834 2.7696 17.1508 2.97771 16.6783 3.48907C16.2263 3.9775 16.0568 4.49483 15.9918 4.74753C15.8824 4.70299 15.6203 4.57787 15.4208 4.28913C15.1863 3.94987 15.1863 3.59851 15.1911 3.48907C14.9711 3.67313 14.7186 3.93542 14.5046 4.28913C13.8446 5.39601 14.079 6.57382 14.1632 6.92273C19.9965 6.03723 21.2745 5.5223 21.2541 5.2095Z" fill="#0E80A4"/>
<path d="M14.923 17.4054C15.4195 19.6637 18.4288 20.9197 21.6436 20.2111C24.8609 19.5025 27.0646 17.0987 26.5681 14.844C26.0716 12.5857 23.0623 11.3297 19.8439 12.0383C16.6327 12.7433 14.4253 15.1472 14.923 17.4054Z" fill="white"/>
<path d="M13.8156 13.2546C14.2051 15.2987 16.0109 16.5752 17.8515 16.1048C19.6922 15.6344 20.8704 13.5963 20.4809 11.5522C20.0913 9.50811 18.2831 8.23163 16.4449 8.70203C14.6042 9.17248 13.4261 11.2105 13.8156 13.2546Z" fill="white"/>
<path d="M25.0784 10.3599C25.4679 12.404 24.4063 14.412 22.7111 14.8463C21.016 15.2806 19.3244 13.9741 18.9373 11.93C18.5478 9.88588 19.6093 7.87793 21.3045 7.44359C22.9997 7.00929 24.6889 8.31222 25.0784 10.3599Z" fill="white"/>
<path d="M11.3632 18.1405C10.7897 18.2584 10.1874 17.9564 9.6752 17.3537C9.16422 16.7521 8.75185 15.8594 8.5607 14.8139C8.36955 13.7696 8.43805 12.777 8.69895 12.0166C8.96102 11.2551 9.41431 10.7354 9.98777 10.6162C10.5612 10.4984 11.1636 10.8003 11.6757 11.403C12.1867 12.0046 12.5991 12.8973 12.7902 13.9416C12.9826 14.9859 12.9153 15.9785 12.6544 16.7401C12.3923 17.504 11.939 18.0238 11.3632 18.1405Z" fill="#0E80A4" stroke="white" stroke-width="0.7"/>
<path d="M9.93104 14.7322C11.1898 17.2599 11.3725 19.1428 12.231 18.8961C13.0918 18.6495 13.3214 15.9593 13.0425 13.837C12.766 11.7148 10.8916 10.2686 10.5947 10.5658C10.2977 10.5658 9.6545 12.6099 9.93104 14.7322Z" fill="#0E80A4"/>
<path d="M23.5887 17.5546C23.4757 17.6857 22.2807 19.0212 20.1659 18.9923C18.6487 18.9719 17.2312 18.2548 16.469 17.1299C16.7599 17.3681 18.0812 18.3907 20.1383 18.4569C21.9765 18.5183 23.2377 17.7772 23.5887 17.5546Z" fill="#0E80A4"/>
<path d="M19.8292 15.8162C19.9326 15.8691 20.3173 16.0484 20.8043 15.9413C21.2924 15.8342 21.5653 15.5094 21.6398 15.418C21.3874 15.513 21.0868 15.608 20.7478 15.6827C20.4124 15.756 20.0997 15.7946 19.8292 15.8162Z" fill="#0E80A4"/>
<path d="M27.9819 13.6493C28.0601 13.6072 28.1659 13.6625 28.1731 13.7793L28.5987 21.6801C28.6011 21.7475 28.5674 21.8088 28.5157 21.8341L21.5005 25.3267L21.4994 25.3279C21.4729 25.3423 21.4392 25.3448 21.4104 25.334H21.4092L13.9684 22.811H13.9672C13.9155 22.7942 13.8746 22.7401 13.8698 22.6691L13.4442 14.7646C13.4406 14.7081 13.4635 14.6587 13.4983 14.6286C13.532 14.5986 13.5753 14.5877 13.6185 14.6034H13.6197L21.0341 17.1865H21.0353C21.0918 17.2057 21.1531 17.2021 21.206 17.1744L27.9819 13.6493Z" fill="#0E80A4" stroke="white" stroke-width="0.8"/>
<path d="M21.2601 24.8683L20.8945 17.8073L21.4331 17.6497L21.7458 24.5796L21.2601 24.8683Z" fill="white"/>
<path d="M14.1402 14.4301L14.1018 14.7657L14.0825 14.7465L14.0392 14.4313V14.1714L19.5203 16.349L14.1727 14.4108L14.1438 14.4L14.1402 14.4301Z" fill="#0E80A4" stroke="white" stroke-width="0.4"/>
<path d="M27.6115 13.8323L27.3795 13.1309L21.9272 16.5104L27.3855 13.5194L27.4059 13.5086L27.418 13.5291L27.5983 13.8335H27.6115V13.8323Z" fill="#0E80A4" stroke="white" stroke-width="0.4"/>
<path d="M15.8329 21.0736C15.8449 21.6751 15.0563 22.1745 14.0728 22.1925C13.0918 22.2105 12.2851 21.7377 12.273 21.1362C12.2646 20.5346 13.0497 20.0354 14.0331 20.0173C15.0178 20.0004 15.8233 20.4733 15.8329 21.0736Z" fill="#0E80A4"/>
<path d="M15.1429 21.0857C15.1489 21.4515 14.6668 21.7582 14.0657 21.7703C13.4646 21.7823 12.974 21.4899 12.9656 21.1242C12.9596 20.7585 13.4417 20.4516 14.0416 20.4396C14.6428 20.4312 15.1333 20.72 15.1429 21.0857Z" fill="white"/>
<path d="M16.1059 19.7828C16.1179 20.4855 15.1994 21.0677 14.0537 21.0894C12.9055 21.1098 11.9689 20.5564 11.9545 19.8574C11.9425 19.1584 12.861 18.5725 14.0068 18.5508C15.1549 18.5304 16.0939 19.0839 16.1059 19.7828Z" fill="#0E80A4"/>
<path d="M15.3006 19.7984C15.3066 20.2267 14.7475 20.584 14.0454 20.596C13.3433 20.6081 12.7698 20.2712 12.7638 19.8429C12.7554 19.4146 13.3169 19.0572 14.019 19.0452C14.7175 19.0332 15.291 19.3689 15.3006 19.7984Z" fill="white"/>
<path d="M15.4941 18.6073C15.5062 19.2077 14.7175 19.7082 13.7341 19.7262C12.753 19.7443 11.9463 19.2715 11.9343 18.6699C11.9343 18.6434 11.9343 18.6158 11.9379 18.5893C11.9968 18.0274 12.7554 17.5691 13.692 17.551C14.679 17.5341 15.4822 18.007 15.4941 18.6073Z" fill="#0E80A4"/>
<path d="M14.8002 18.6195C14.8063 18.9852 14.3242 19.292 13.7242 19.304C13.2757 19.3124 12.7107 19.0838 12.6325 18.7361C12.6289 18.7181 12.6241 18.694 12.6241 18.6591C12.6302 18.3175 13.2072 17.9842 13.7001 17.9746C14.3037 17.9649 14.7942 18.2537 14.8002 18.6195Z" fill="white"/>
<path d="M13.3818 16.5693C13.1858 16.662 12.5522 16.9507 12.2132 17.5775C11.9691 18.0263 11.9366 18.4498 11.9366 18.67C12.4091 18.3163 12.8792 17.9613 13.3529 17.6052C13.3289 17.2636 13.4034 16.9147 13.3818 16.5693Z" fill="#0E80A4"/>
<path d="M13.1735 18.2031C13.0016 18.4052 12.8285 18.6049 12.6566 18.8046C12.6326 18.7336 12.4871 18.2596 12.6746 17.7663C12.8321 17.3465 13.1242 17.1949 13.1916 17.1648C12.9631 17.5522 12.9066 17.9384 13.0197 18.108C13.0461 18.1442 13.087 18.1851 13.1735 18.2031Z" fill="white"/>
<path d="M26.294 19.3341C26.3361 19.9344 27.162 20.3663 28.1442 20.3014C29.1253 20.2363 29.8875 19.6937 29.8454 19.0958C29.8033 18.4978 28.9774 18.0635 27.9987 18.1285C27.0165 18.1935 26.2519 18.7325 26.294 19.3341Z" fill="#0E80A4"/>
<path d="M26.9827 19.2859C27.0067 19.6517 27.5117 19.9164 28.1128 19.8754C28.7103 19.8369 29.178 19.5061 29.1539 19.1403C29.1299 18.7746 28.6249 18.5099 28.0238 18.5508C27.4227 18.5893 26.9598 18.9201 26.9827 19.2859Z" fill="white"/>
<path d="M25.9128 18.0696C25.961 18.7686 26.9239 19.2751 28.0685 19.1969C29.2131 19.1199 30.1028 18.4883 30.0546 17.7893C30.0077 17.0903 29.0412 16.5838 27.899 16.662C26.7545 16.7426 25.866 17.3707 25.9128 18.0696Z" fill="#0E80A4"/>
<path d="M26.716 18.0154C26.746 18.4436 27.3339 18.7505 28.0336 18.7024C28.7321 18.6542 29.2767 18.2704 29.2467 17.8421C29.2166 17.4138 28.6287 17.107 27.929 17.1551C27.2305 17.2032 26.6895 17.5871 26.716 18.0154Z" fill="white"/>
<path d="M26.3049 16.846C26.3469 17.4475 27.1729 17.8782 28.1515 17.8133C29.1326 17.7483 29.8936 17.2069 29.8527 16.609C29.8527 16.5825 29.8468 16.5548 29.8443 16.5284C29.7373 15.9714 28.9438 15.5827 28.0061 15.6453C27.0238 15.7067 26.2628 16.2456 26.3049 16.846Z" fill="#0E80A4"/>
<path d="M26.9936 16.799C27.0176 17.1648 27.5226 17.4294 28.1237 17.3885C28.5721 17.3584 29.1144 17.0854 29.1613 16.7304C29.1649 16.7124 29.1673 16.6884 29.1649 16.6534C29.1288 16.3142 28.5253 16.0291 28.0348 16.0639C27.4336 16.1024 26.9708 16.4321 26.9936 16.799Z" fill="white"/>
<path d="M28.274 14.6274C28.4724 14.6924 29.0711 14.9174 29.4835 15.5394C29.766 15.9665 29.8333 16.3864 29.8526 16.6041C29.3537 16.2913 28.8535 15.9761 28.3534 15.6633C28.3293 15.5033 28.3077 15.3312 28.2945 15.1484C28.2788 14.9643 28.274 14.7898 28.274 14.6274Z" fill="#0E80A4"/>
<path d="M28.5794 16.2456C28.767 16.4297 28.9569 16.6174 29.1444 16.8027C29.1625 16.7317 29.2658 16.2456 29.0374 15.7704C28.8439 15.3662 28.5409 15.2411 28.4724 15.2146C28.7345 15.5804 28.8234 15.9617 28.7224 16.1398C28.7008 16.1735 28.6623 16.2216 28.5794 16.2456Z" fill="white"/>
<path d="M18.4997 13.4868C18.5826 14.1149 18.1907 14.6828 17.6257 14.7574C17.0606 14.832 16.5376 14.382 16.4571 13.7552C16.3741 13.1271 16.766 12.5593 17.3311 12.4847C17.8938 12.4101 18.4203 12.8588 18.4997 13.4868Z" fill="#0E80A4"/>
<path d="M17.3635 12.9335C17.3995 13.1982 17.2324 13.4364 16.998 13.4665C16.7599 13.4966 16.5399 13.3089 16.5075 13.0442C16.4714 12.7795 16.6385 12.5413 16.8729 12.5112C17.111 12.4811 17.331 12.6688 17.3635 12.9335Z" fill="white"/>
<path d="M23.7489 12.4126C23.8295 13.0406 23.4399 13.6085 22.8749 13.6831C22.3098 13.7577 21.7868 13.3077 21.7063 12.6797C21.6233 12.0517 22.0152 11.4838 22.5779 11.4092C23.143 11.3358 23.6659 11.7858 23.7489 12.4126Z" fill="#0E80A4"/>
<path d="M22.7053 11.7436C22.7414 12.0083 22.5743 12.2465 22.3398 12.2766C22.1018 12.3066 21.8817 12.1189 21.8493 11.8543C21.8132 11.5896 21.9804 11.3513 22.2148 11.3213C22.4492 11.2912 22.6692 11.4789 22.7053 11.7436Z" fill="white"/>
<path d="M14.1198 14.3977V14.7586L14.5406 14.8789L14.3602 14.518L14.1198 14.3977Z" fill="white"/>
<path d="M14.1438 14.5613L17.7217 15.8956L20.8512 17.0794L14.2892 14.6961L14.1438 14.5613Z" fill="#0E80A4"/>
<path d="M26.0823 14.2172L22.2351 16.5633L25.1807 15.0594L27.5852 13.8563L27.4048 13.4954L26.0823 14.2172Z" fill="white"/>
<path d="M27.3759 13.6853L24.024 15.5141L21.0928 17.1298L27.2508 13.8405L27.3759 13.6853Z" fill="#0E80A4"/>
<path d="M99.9311 21.7487L98.7648 20.1342C98.2223 21.7487 97.2593 22.1157 96.5549 22.1157C95.3612 22.1157 95.1735 21.0437 95.1735 20.4193V12.332H90.9165V14.8814H92.1355V20.3772C91.6064 21.9244 90.303 22.372 89.4362 22.372C88.2425 22.372 87.7688 21.4624 87.7688 20.6756V14.897H89.2738V12.3332H87.7688V7.20312L84.7308 9.02222V12.3464H83.5107V14.8958H84.7308V18.4101C83.7269 20.4313 81.5846 22.7534 79.0607 22.7534C76.2802 22.7534 75.0865 21.0858 75.0865 18.9527C75.0865 15.6694 76.9857 14.5024 78.5439 14.5024C79.1402 14.5024 79.5059 14.6793 79.5059 14.6793V16.6054H82.082V12.2767C82.082 12.2767 80.7813 11.8568 79.2736 11.8568C72.6695 11.8568 71.9366 17.0818 71.9366 19.0345C71.9366 19.4544 71.9786 19.9296 72.071 20.4313C71.7188 21.8029 70.9854 22.0989 70.4574 22.0989C69.3191 22.0989 69.3191 20.9848 69.3191 20.7417V12.3573C69.3191 12.3296 67.2441 11.8146 65.4949 11.8146C59.6495 11.8146 57.7498 15.8727 57.7498 19.5073C57.7498 20.7562 58.2644 25.3557 62.5913 25.3557C64.2862 25.3557 65.8864 24.5556 66.7004 23.1708C66.7004 23.1708 66.7537 23.0902 66.7811 23.0902C66.8085 23.0902 66.8085 23.1179 66.8338 23.1708C67.0634 24.1887 67.9474 25.1524 69.4105 25.1524C71.5253 25.1524 72.6518 23.8374 73.1002 22.9134C74.0632 24.256 75.7317 25.3147 78.538 25.3147C81.6433 25.3147 83.4741 23.7002 84.7501 22.248C85.0071 24.0106 86.2971 25.2594 88.5597 25.2594C90.717 25.2594 92.0054 24.487 92.7114 23.6725C93.3077 24.5544 94.3116 25.1391 95.6542 25.1391C98.7202 25.1391 99.9935 22.6703 99.9935 21.9905C100.026 21.8967 99.9311 21.7487 99.9311 21.7487ZM66.3375 19.1969C66.3375 20.6491 65.2664 22.3178 63.328 22.3178C60.9669 22.3178 60.9416 19.8214 60.9416 19.0887C60.9416 15.4529 63.5183 14.4073 64.9142 14.4073C65.9321 14.4073 66.3375 14.5842 66.3375 14.5842V19.1969Z" fill="#0E80A4"/>
<path d="M41.0204 7.2019H31.0789V10.0112H33.398V24.8155H36.8834V18.9671H41.0456C42.7409 18.9671 47.8265 18.7903 47.8265 13.0647C47.8265 7.2019 43.4872 7.2019 41.0204 7.2019ZM40.8701 16.1988C40.2461 16.1988 36.8702 16.1711 36.8702 16.1711V10.0112H41.06C42.3354 10.0112 44.2879 10.0389 44.2879 13.0225C44.3013 16.0484 41.7513 16.1988 40.8701 16.1988Z" fill="#0E80A4"/>
<path d="M156.821 18.83C156.455 19.7528 155.955 20.607 155.276 21.3818C154.597 22.1542 153.865 22.5488 153.091 22.5488C152.385 22.5488 151.734 22.2914 151.124 21.7765C150.5 21.2615 150.011 20.6515 149.659 19.9453C150.757 19.6602 151.678 19.0911 152.425 18.2357C153.171 17.3815 153.55 16.431 153.55 15.3723C153.55 14.3424 153.226 13.5002 152.574 12.8481C151.908 12.1961 151.055 11.8857 149.983 11.8857C147.732 11.8857 146.051 13.0671 144.912 15.4264V7.20435H140.722V9.75373H141.888V21.8968C141.578 22.0592 141.251 22.1265 140.965 22.1265C139.771 22.1265 139.542 21.1075 139.542 20.512V15.9137C139.542 13.2416 137.698 12.0601 135.486 12.0601C133.017 12.0601 131.919 13.5122 131.919 13.5122C131.867 13.5929 131.839 13.6217 131.811 13.6217C131.782 13.6217 131.782 13.5688 131.782 13.5411V12.3464H127.565V14.8983H128.921V20.2184C128.378 21.7656 127.43 22.1181 126.737 22.1181C125.543 22.1181 125.353 21.0462 125.353 20.4217V12.3344H121.095V14.8838H122.314V20.2966C121.787 21.7765 120.849 22.1157 120.159 22.1157C118.991 22.1157 118.734 21.0438 118.734 20.4193V15.9137C118.734 13.2416 116.891 12.0601 114.654 12.0601C112.187 12.0601 111.115 13.5122 111.115 13.5122V7.20435H95.9801C96.3866 7.71928 96.6318 8.37139 96.6318 9.0764C96.6318 9.3892 96.5791 9.70083 96.4974 9.98595H99.915V19.6602C99.915 19.6602 100.729 20.7598 100.972 21.14C101.067 21.288 101.229 21.6152 101.229 22.0074C101.229 22.7125 100.782 23.7447 99.9139 24.6134V24.8179H103.399V9.98835H108.104V24.8179H111.142V18.1827C111.142 16.419 112.131 14.8994 113.894 14.8994C114.288 14.8994 115.766 15.1293 115.766 16.7715V21.6826C115.766 23.5546 117.094 25.1692 119.332 25.1692C121.027 25.1692 122.18 24.3824 122.859 23.5823C123.441 24.5315 124.487 25.1692 125.883 25.1692C127.239 25.1692 128.24 24.6795 128.948 24.084V24.8311H131.985V18.1815C131.985 16.4178 132.948 14.8983 134.712 14.8983C135.133 14.8983 136.584 15.128 136.584 16.7703V21.6814C136.584 23.5534 137.912 25.168 140.125 25.168C140.816 25.168 141.425 25.0333 141.943 24.8287H144.953C144.953 21.0847 145.143 19.985 145.32 19.2788C145.604 18.0312 146.105 16.9171 146.796 15.9678C147.487 15.0185 148.287 14.5289 149.196 14.5289C150.133 14.5289 150.701 15.0992 150.701 15.9678C150.701 17.2167 149.602 18.2742 146.701 19.1549C146.783 19.7925 147.448 21.4215 148.152 22.3984C149.453 24.2031 150.933 25.1668 152.751 25.1668C153.782 25.1668 154.718 24.8672 155.585 24.2573C157.322 23.0373 158.161 21.5033 158.703 19.8334L156.821 18.83Z" fill="#0E80A4"/>
<path d="M57.753 17.1479V12.1141C57.5767 12.0046 57.0487 11.9793 56.79 11.9793C53.467 11.9661 51.9093 14.4084 51.8394 14.489C51.7867 14.5708 51.7587 14.5985 51.7302 14.5985C51.677 14.5985 51.677 14.489 51.677 14.489V12.3318H48.8159V24.8129H51.8539V20.1869C51.8539 19.6167 51.9356 17.8252 52.8443 16.5511C53.3589 15.8461 54.1203 15.1663 55.2059 15.1663V17.1479H57.753Z" fill="#0E80A4"/>
<path d="M123.732 10.9736C124.751 10.9736 125.603 10.1195 125.603 9.07396C125.603 8.05492 124.751 7.2019 123.732 7.2019C122.688 7.2019 121.86 8.05609 121.86 9.07396C121.86 10.1206 122.674 10.9736 123.732 10.9736Z" fill="#0E80A4"/>
<path d="M93.5567 10.9736C94.5751 10.9736 95.4284 10.1195 95.4284 9.07396C95.4284 8.05492 94.5751 7.2019 93.5567 7.2019C92.513 7.2019 91.6844 8.05609 91.6844 9.07396C91.6844 10.1206 92.513 10.9736 93.5567 10.9736Z" fill="#0E80A4"/>
</svg>
