<svg width="111" height="17" viewBox="0 0 111 17" fill="none" xmlns="http://www.w3.org/2000/svg">
<path d="M6.8876 12.381C6.56771 11.8466 6.13523 11.4464 5.65242 11.0772C5.1534 10.695 4.60831 10.3009 4.01461 10.1029C3.46441 9.92047 2.78625 9.99277 2.24117 10.1623C1.714 10.3258 1.33526 10.6555 1.13565 11.1959C0.93519 11.7381 0.887421 12.2709 1.32246 12.6994C1.72083 13.0919 2.31027 13.3475 2.85023 13.3905C3.01145 13.4034 3.4337 13.4318 3.548 13.2864C3.68022 13.1186 3.63928 12.6556 3.59748 12.4705C3.48062 11.9481 2.95942 11.5144 2.51755 11.9541C2.06289 12.406 1.45127 11.5996 1.90252 11.1512C2.39898 10.6572 3.17011 10.6253 3.7442 11.0092C4.32085 11.3947 4.59893 12.0961 4.59978 12.7881C4.59978 13.4955 4.3797 14.1195 3.68534 14.3226C3.01998 14.5171 2.29406 14.3949 1.66367 14.1083C1.06826 13.8363 0.490764 13.4138 0.186234 12.7967C-0.127679 12.1607 -0.00143088 11.3827 0.245946 10.751C0.791029 9.3602 2.2642 8.90665 3.60686 8.99185C4.44283 9.04521 5.21226 9.52888 5.89212 10.01C6.55918 10.4816 7.21601 11.0247 7.64764 11.7467C7.98117 12.3018 7.22283 12.9413 6.8876 12.381Z" fill="#0E80A4"/>
<path d="M19.0898 6.61571C19.2186 7.85244 18.7563 8.90413 18.0559 8.96093C17.3556 9.02031 16.6826 8.06502 16.5538 6.82829C16.4249 5.59157 16.8873 4.54246 17.5876 4.48307C18.288 4.42541 18.961 5.37899 19.0898 6.61571Z" fill="#0E80A4"/>
<path d="M5.51953 7.74145C5.51953 11.202 8.39934 13.5197 11.8985 13.5197C15.3976 13.5197 18.1127 11.6762 18.1861 7.74145C18.2518 4.28259 15.3506 1.47522 11.8541 1.47522C8.35499 1.47522 5.51953 4.28087 5.51953 7.74145Z" fill="#0E80A4"/>
<path d="M13.4772 1.80302C13.4585 1.48975 11.6398 1.45188 11.2048 0.3279C11.1502 0.185035 11.1306 0.0619653 11.1229 0C10.9438 0.0576622 10.5659 0.206551 10.2306 0.572318C9.90989 0.921734 9.78962 1.29181 9.74355 1.47254C9.66593 1.4407 9.47997 1.35119 9.33837 1.14464C9.17203 0.901941 9.17203 0.650636 9.17544 0.572318C9.01934 0.703995 8.8402 0.891614 8.68836 1.14464C8.22005 1.93642 8.38639 2.77897 8.4461 3.02856C12.585 2.39513 13.4917 2.02678 13.4772 1.80302Z" fill="#0E80A4"/>
<path d="M8.98527 10.5271C9.33756 12.1425 11.4727 13.041 13.7537 12.5341C16.0364 12.0272 17.6 10.3077 17.2477 8.69484C16.8954 7.07943 14.7602 6.18093 12.4767 6.68785C10.1983 7.19218 8.63211 8.91171 8.98527 10.5271Z" fill="white"/>
<path d="M8.19929 7.55797C8.47567 9.02018 9.75691 9.93331 11.0629 9.5968C12.3689 9.26029 13.2048 7.80239 12.9285 6.34018C12.6521 4.87797 11.3691 3.96484 10.0649 4.30134C8.75887 4.63785 7.92291 6.09576 8.19929 7.55797Z" fill="white"/>
<path d="M16.1907 5.48731C16.4671 6.94951 15.7139 8.38589 14.5111 8.69658C13.3084 9.00727 12.1082 8.07263 11.8335 6.61042C11.5571 5.14822 12.3103 3.71184 13.5131 3.40115C14.7159 3.09047 15.9144 4.02252 16.1907 5.48731Z" fill="white"/>
<path d="M6.45941 11.0531C6.05251 11.1374 5.62515 10.9214 5.26176 10.4902C4.89922 10.0599 4.60664 9.42132 4.471 8.67344C4.33537 7.92642 4.384 7.2164 4.5691 6.67249C4.75506 6.12771 5.07665 5.75592 5.48355 5.67072C5.89044 5.58637 6.3178 5.80239 6.68119 6.23356C7.04373 6.66388 7.33632 7.30246 7.47195 8.04949C7.60843 8.79651 7.56066 9.50652 7.37556 10.0513C7.1896 10.5978 6.86801 10.9696 6.45941 11.0531Z" fill="#0E80A4" stroke="white" stroke-width="0.7"/>
<path d="M5.4434 8.61459C6.33652 10.4228 6.46618 11.7696 7.07524 11.5932C7.68601 11.4168 7.84894 9.49243 7.65104 7.97428C7.45484 6.45614 6.12497 5.42166 5.91427 5.63424C5.70358 5.63424 5.24721 7.09644 5.4434 8.61459Z" fill="#0E80A4"/>
<path d="M15.1337 10.634C15.0535 10.7278 14.2056 11.6831 12.7051 11.6625C11.6286 11.6478 10.6228 11.1349 10.082 10.3302C10.2885 10.5006 11.2259 11.2321 12.6855 11.2795C13.9897 11.3234 14.8846 10.7932 15.1337 10.634Z" fill="#0E80A4"/>
<path d="M12.4658 9.39033C12.5392 9.42819 12.8121 9.55643 13.1576 9.47983C13.504 9.40324 13.6976 9.17087 13.7505 9.10547C13.5713 9.17346 13.3581 9.24145 13.1175 9.2948C12.8795 9.3473 12.6578 9.37484 12.4658 9.39033Z" fill="#0E80A4"/>
<path d="M18.2506 7.84024C18.306 7.81012 18.3811 7.8497 18.3862 7.93318L18.6882 13.5849C18.6899 13.6331 18.666 13.677 18.6293 13.6951L13.6519 16.1935L13.6511 16.1944C13.6323 16.2047 13.6084 16.2064 13.588 16.1987H13.5871L8.30773 14.3939H8.30688C8.2702 14.3819 8.24119 14.3432 8.23778 14.2924L7.93581 8.63804C7.93325 8.59759 7.94946 8.5623 7.9742 8.54079C7.99808 8.51927 8.02879 8.51153 8.0595 8.52272H8.06035L13.321 10.3705H13.3218C13.3619 10.3843 13.4054 10.3817 13.4429 10.3619L18.2506 7.84024Z" fill="#0E80A4" stroke="white" stroke-width="0.8"/>
<path d="M13.481 15.8653L13.2217 10.8143L13.6038 10.7015L13.8256 15.6588L13.481 15.8653Z" fill="white"/>
<path d="M8.43005 8.3989L8.40276 8.63902L8.38911 8.62525L8.3584 8.39977V8.21387L12.2473 9.7716L8.45308 8.38513L8.43261 8.37739L8.43005 8.3989Z" fill="#0E80A4" stroke="white" stroke-width="0.4"/>
<path d="M17.9882 7.97099L17.8235 7.46924L13.9551 9.88674L17.8278 7.74722L17.8423 7.73948L17.8508 7.75411L17.9788 7.97185H17.9882V7.97099Z" fill="#0E80A4" stroke="white" stroke-width="0.4"/>
<path d="M9.63133 13.1511C9.63986 13.5814 9.08027 13.9385 8.3825 13.9514C7.68643 13.9644 7.11405 13.6261 7.10552 13.1958C7.09955 12.7655 7.65657 12.4084 8.35435 12.3955C9.05297 12.3834 9.6245 12.7216 9.63133 13.1511Z" fill="#0E80A4"/>
<path d="M9.14155 13.1599C9.14582 13.4216 8.80375 13.641 8.37724 13.6496C7.95073 13.6582 7.60269 13.4491 7.59672 13.1875C7.59245 12.9258 7.93452 12.7064 8.36018 12.6978C8.78669 12.6917 9.13473 12.8983 9.14155 13.1599Z" fill="white"/>
<path d="M9.82448 12.2277C9.83301 12.7303 9.1813 13.1469 8.36837 13.1624C7.55373 13.177 6.88923 12.7811 6.87899 12.2811C6.87046 11.7811 7.52217 11.362 8.3351 11.3465C9.14974 11.3318 9.81595 11.7277 9.82448 12.2277Z" fill="#0E80A4"/>
<path d="M9.25308 12.2389C9.25734 12.5453 8.86069 12.8009 8.36252 12.8095C7.86435 12.8181 7.45746 12.5771 7.45319 12.2708C7.44722 11.9644 7.84558 11.7088 8.34375 11.7002C8.83936 11.6916 9.24626 11.9317 9.25308 12.2389Z" fill="white"/>
<path d="M9.39006 11.3869C9.39859 11.8164 8.83901 12.1744 8.14123 12.1873C7.44517 12.2002 6.87279 11.862 6.86426 11.4317C6.86426 11.4127 6.86426 11.393 6.86682 11.374C6.90861 10.9721 7.44687 10.6442 8.11138 10.6313C8.81171 10.6192 9.38153 10.9575 9.39006 11.3869Z" fill="#0E80A4"/>
<path d="M8.89847 11.3953C8.90273 11.6569 8.56067 11.8764 8.13501 11.885C7.81683 11.891 7.41591 11.7275 7.36046 11.4788C7.3579 11.4659 7.35449 11.4487 7.35449 11.4237C7.35876 11.1793 7.76821 10.9409 8.11795 10.934C8.54617 10.9271 8.8942 11.1337 8.89847 11.3953Z" fill="white"/>
<path d="M7.89155 9.92883C7.75251 9.9951 7.30296 10.2017 7.06241 10.65C6.88924 10.9711 6.86621 11.274 6.86621 11.4315C7.20145 11.1785 7.53498 10.9246 7.87108 10.6698C7.85402 10.4254 7.9069 10.1758 7.89155 9.92883Z" fill="#0E80A4"/>
<path d="M7.74429 11.0978C7.6223 11.2424 7.49947 11.3853 7.37748 11.5281C7.36042 11.4774 7.2572 11.1383 7.39028 10.7854C7.50203 10.4851 7.70931 10.3766 7.75708 10.3551C7.59501 10.6322 7.55491 10.9085 7.6351 11.0298C7.65387 11.0556 7.68287 11.0849 7.74429 11.0978Z" fill="white"/>
<path d="M17.0529 11.9065C17.0828 12.336 17.6688 12.6449 18.3657 12.5985C19.0618 12.552 19.6026 12.1638 19.5728 11.7361C19.5429 11.3084 18.9569 10.9977 18.2625 11.0442C17.5656 11.0906 17.0231 11.4762 17.0529 11.9065Z" fill="#0E80A4"/>
<path d="M17.5416 11.8723C17.5587 12.134 17.9169 12.3233 18.3434 12.2941C18.7674 12.2665 19.0992 12.0298 19.0821 11.7682C19.0651 11.5066 18.7068 11.3172 18.2803 11.3465C17.8538 11.374 17.5254 11.6107 17.5416 11.8723Z" fill="white"/>
<path d="M16.7825 11.0018C16.8166 11.5018 17.4999 11.8641 18.312 11.8082C19.1241 11.7531 19.7553 11.3013 19.7212 10.8012C19.6879 10.3012 19.0021 9.93889 18.1917 9.99483C17.3796 10.0525 16.7492 10.5017 16.7825 11.0018Z" fill="#0E80A4"/>
<path d="M17.3522 10.9635C17.3735 11.2699 17.7907 11.4894 18.2871 11.4549C18.7827 11.4205 19.1692 11.146 19.1478 10.8396C19.1265 10.5332 18.7094 10.3137 18.2129 10.3482C17.7173 10.3826 17.3335 10.6571 17.3522 10.9635Z" fill="white"/>
<path d="M17.0608 10.1268C17.0906 10.5571 17.6766 10.8652 18.371 10.8187C19.0671 10.7723 19.607 10.385 19.578 9.95726C19.578 9.93833 19.5738 9.91854 19.5721 9.8996C19.4961 9.50114 18.9331 9.22316 18.2678 9.26791C17.5709 9.3118 17.0309 9.69735 17.0608 10.1268Z" fill="#0E80A4"/>
<path d="M17.5494 10.0932C17.5665 10.3548 17.9247 10.5442 18.3512 10.5149C18.6694 10.4934 19.0541 10.298 19.0874 10.0442C19.09 10.0313 19.0917 10.014 19.09 9.98908C19.0644 9.74639 18.6362 9.54242 18.2881 9.56738C17.8616 9.59492 17.5332 9.83073 17.5494 10.0932Z" fill="white"/>
<path d="M18.458 8.54004C18.5988 8.58651 19.0236 8.74745 19.3161 9.1924C19.5166 9.49792 19.5644 9.79828 19.578 9.95406C19.224 9.73029 18.8692 9.50481 18.5143 9.28104C18.4972 9.16658 18.4819 9.04351 18.4725 8.91269C18.4614 8.78102 18.458 8.65622 18.458 8.54004Z" fill="#0E80A4"/>
<path d="M18.6746 9.69728C18.8076 9.82895 18.9424 9.96321 19.0755 10.0957C19.0883 10.045 19.1616 9.69727 18.9996 9.35733C18.8622 9.06816 18.6473 8.97865 18.5986 8.95972C18.7846 9.22135 18.8477 9.49417 18.7761 9.62154C18.7607 9.64564 18.7334 9.68006 18.6746 9.69728Z" fill="white"/>
<path d="M11.5226 7.72405C11.5814 8.1733 11.3034 8.57951 10.9024 8.63287C10.5015 8.68623 10.1304 8.36435 10.0733 7.91596C10.0144 7.46672 10.2925 7.0605 10.6934 7.00714C11.0927 6.95378 11.4663 7.2748 11.5226 7.72405Z" fill="#0E80A4"/>
<path d="M10.7163 7.32816C10.7419 7.5175 10.6233 7.68791 10.457 7.70942C10.2881 7.73094 10.132 7.59668 10.1089 7.40733C10.0834 7.21799 10.2019 7.04758 10.3683 7.02607C10.5372 7.00455 10.6933 7.13881 10.7163 7.32816Z" fill="white"/>
<path d="M15.2472 6.95543C15.3043 7.40468 15.028 7.8109 14.627 7.86425C14.2261 7.91761 13.8551 7.59574 13.7979 7.14649C13.739 6.69724 14.0171 6.29102 14.4163 6.23767C14.8173 6.18517 15.1883 6.50704 15.2472 6.95543Z" fill="#0E80A4"/>
<path d="M14.5063 6.47695C14.5319 6.66628 14.4134 6.83669 14.247 6.8582C14.0781 6.87972 13.922 6.74546 13.899 6.55612C13.8734 6.36679 13.992 6.19639 14.1583 6.17487C14.3246 6.15336 14.4807 6.28761 14.5063 6.47695Z" fill="white"/>
<path d="M8.41504 8.37537V8.63355L8.7136 8.71961L8.58565 8.46143L8.41504 8.37537Z" fill="white"/>
<path d="M8.43262 8.49243L10.9712 9.44687L13.1916 10.2937L8.53583 8.58882L8.43262 8.49243Z" fill="#0E80A4"/>
<path d="M16.9025 8.24636L14.1729 9.92458L16.2628 8.84879L17.9688 7.98817L17.8409 7.72998L16.9025 8.24636Z" fill="white"/>
<path d="M17.8212 7.86597L15.443 9.17414L13.3633 10.33L17.7325 7.97699L17.8212 7.86597Z" fill="#0E80A4"/>
<path d="M69.3004 13.6341L68.473 12.4791C68.0883 13.6341 67.405 13.8966 66.9051 13.8966C66.0581 13.8966 65.925 13.1298 65.925 12.6831V6.89798H62.9044V8.72165H63.7694V12.653C63.3941 13.7598 62.4694 14.0799 61.8544 14.0799C61.0073 14.0799 60.6712 13.4293 60.6712 12.8664V8.73284H61.7392V6.89884H60.6712V3.22913L58.5156 4.53039V6.90831H57.6498V8.73198H58.5156V11.2459C57.8034 12.6917 56.2833 14.3527 54.4928 14.3527C52.5197 14.3527 51.6727 13.1599 51.6727 11.634C51.6727 9.28536 53.0205 8.45055 54.126 8.45055C54.5491 8.45055 54.8084 8.57707 54.8084 8.57707V9.95493H56.6364V6.85839C56.6364 6.85839 55.7134 6.55803 54.6438 6.55803C49.9581 6.55803 49.4378 10.2957 49.4378 11.6925C49.4378 11.9929 49.4676 12.3328 49.5333 12.6917C49.2834 13.6728 48.763 13.8846 48.3885 13.8846C47.5807 13.8846 47.5807 13.0876 47.5807 12.9138V6.91605C47.5807 6.89626 46.1084 6.52791 44.8672 6.52791C40.7198 6.52791 39.3721 9.4308 39.3721 12.0308C39.3721 12.9241 39.7372 16.2143 42.8072 16.2143C44.01 16.2143 45.1453 15.642 45.7228 14.6514C45.7228 14.6514 45.7604 14.5937 45.78 14.5937C45.7996 14.5937 45.7996 14.6135 45.8175 14.6514C45.9804 15.3795 46.6074 16.0688 47.6455 16.0688C49.146 16.0688 49.9453 15.1282 50.2635 14.4672C50.9468 15.4277 52.1307 16.185 54.1217 16.185C56.3251 16.185 57.6242 15.0301 58.5293 13.9913C58.7118 15.2521 59.6271 16.1454 61.2325 16.1454C62.7628 16.1454 63.6773 15.5929 64.178 15.0103C64.6011 15.6411 65.3134 16.0594 66.2662 16.0594C68.4414 16.0594 69.3448 14.2934 69.3448 13.8071C69.3678 13.74 69.3004 13.6341 69.3004 13.6341ZM45.4652 11.8087C45.4652 12.8475 44.7052 14.0412 43.3301 14.0412C41.6548 14.0412 41.6368 12.2554 41.6368 11.7313C41.6368 9.13045 43.4649 8.38256 44.4552 8.38256C45.1777 8.38256 45.4652 8.50907 45.4652 8.50907V11.8087Z" fill="#0E80A4"/>
<path d="M27.5019 3.22791H20.4482V5.23747H22.0937V15.8275H24.5666V11.644H27.5198C28.7226 11.644 32.3309 11.5175 32.3309 7.42174C32.3309 3.2279 29.2523 3.22791 27.5019 3.22791ZM27.3953 9.66368C26.9526 9.66368 24.5573 9.64389 24.5573 9.64389V5.23747H27.53C28.4351 5.23747 29.8204 5.25727 29.8204 7.39162C29.8298 9.5561 28.0205 9.66368 27.3953 9.66368Z" fill="#0E80A4"/>
<path d="M109.665 11.5462C109.405 12.2063 109.05 12.8174 108.568 13.3716C108.087 13.9241 107.568 14.2064 107.018 14.2064C106.518 14.2064 106.055 14.0223 105.623 13.6539C105.18 13.2856 104.833 12.8492 104.583 12.344C105.363 12.1401 106.016 11.733 106.546 11.1211C107.075 10.51 107.344 9.83013 107.344 9.07278C107.344 8.33608 107.114 7.73364 106.651 7.26718C106.179 6.80072 105.573 6.57868 104.813 6.57868C103.215 6.57868 102.023 7.42382 101.215 9.11151V3.22998H98.2424V5.05365H99.0698V13.74C98.8497 13.8562 98.6177 13.9043 98.4147 13.9043C97.5676 13.9043 97.4047 13.1754 97.4047 12.7494V9.46006C97.4047 7.54861 96.097 6.70347 94.5274 6.70347C92.7753 6.70347 91.9965 7.74225 91.9965 7.74225C91.959 7.79991 91.9394 7.82057 91.9198 7.82057C91.8993 7.82057 91.8993 7.7827 91.8993 7.76291V6.9083H88.9069V8.73369H89.8691V12.5394C89.4844 13.6462 88.8113 13.8983 88.32 13.8983C87.4721 13.8983 87.3373 13.1315 87.3373 12.6848V6.89969H84.3167V8.72336H85.1817V12.5953C84.8072 13.6539 84.1419 13.8966 83.6522 13.8966C82.824 13.8966 82.6414 13.1298 82.6414 12.6831V9.46006C82.6414 7.54861 81.3337 6.70347 79.7462 6.70347C77.9958 6.70347 77.2358 7.74225 77.2358 7.74225V3.22998H66.4971C66.7854 3.59833 66.9594 4.06479 66.9594 4.56912C66.9594 4.79288 66.9219 5.01578 66.8639 5.21975H69.289V12.1401C69.289 12.1401 69.8665 12.9267 70.0388 13.1986C70.1062 13.3045 70.2214 13.5386 70.2214 13.8191C70.2214 14.3235 69.904 15.0619 69.2882 15.6833V15.8296H71.7611V5.22147H75.099V15.8296H77.2546V11.0832C77.2546 9.82153 77.9566 8.73455 79.2071 8.73455C79.4869 8.73455 80.5353 8.89893 80.5353 10.0737V13.5868C80.5353 14.9259 81.4779 16.0809 83.0654 16.0809C84.2681 16.0809 85.0862 15.518 85.5681 14.9457C85.981 15.6247 86.7231 16.0809 87.7135 16.0809C88.6757 16.0809 89.3863 15.7306 89.8887 15.3046V15.839H92.0434V11.0823C92.0434 9.82067 92.7267 8.73369 93.9781 8.73369C94.2767 8.73369 95.3063 8.89807 95.3063 10.0728V13.5859C95.3063 14.925 96.2488 16.08 97.8184 16.08C98.3089 16.08 98.7414 15.9836 99.1082 15.8373H101.244C101.244 13.159 101.379 12.3724 101.504 11.8672C101.707 10.9748 102.061 10.1778 102.552 9.49879C103.042 8.81976 103.61 8.46948 104.254 8.46948C104.92 8.46948 105.322 8.87742 105.322 9.49879C105.322 10.3921 104.543 11.1486 102.484 11.7786C102.542 12.2347 103.014 13.4 103.514 14.0988C104.437 15.3898 105.487 16.0792 106.777 16.0792C107.509 16.0792 108.172 15.8649 108.787 15.4285C110.02 14.5558 110.615 13.4585 111 12.264L109.665 11.5462Z" fill="#0E80A4"/>
<path d="M39.3736 10.3428V6.74194C39.2482 6.66362 38.8738 6.64555 38.6904 6.64555C36.3326 6.63608 35.2271 8.38315 35.1776 8.44081C35.1401 8.49934 35.1204 8.51913 35.1 8.51913C35.0624 8.51913 35.0624 8.44081 35.0624 8.44081V6.89771H33.0322V15.8259H35.1878V12.5167C35.1878 12.1088 35.2458 10.8273 35.8907 9.91593C36.2558 9.4116 36.7958 8.92535 37.5661 8.92535V10.3428H39.3736Z" fill="#0E80A4"/>
<path d="M86.1875 5.92597C86.91 5.92597 87.5148 5.31493 87.5148 4.56704C87.5148 3.83809 86.91 3.22791 86.1875 3.22791C85.4471 3.22791 84.8594 3.83895 84.8594 4.56704C84.8594 5.31579 85.4369 5.92597 86.1875 5.92597Z" fill="#0E80A4"/>
<path d="M64.7774 5.92597C65.4999 5.92597 66.1055 5.31493 66.1055 4.56704C66.1055 3.83809 65.4999 3.22791 64.7774 3.22791C64.037 3.22791 63.4492 3.83895 63.4492 4.56704C63.4492 5.31579 64.037 5.92597 64.7774 5.92597Z" fill="#0E80A4"/>
</svg>
