<svg width="197" height="179" viewBox="0 0 197 179" fill="none" xmlns="http://www.w3.org/2000/svg">
<path d="M140.947 3.4407C109.544 -5.12741 83.8748 2.41253 76.1093 24.8781C68.3267 47.4122 74.7268 70.3748 46.5321 79.6455C23.4233 87.0312 -3.69623 100.055 0.416927 136.538C4.32528 171.153 25.5396 177.528 52.7103 178.933C81.6219 180.441 112.616 155.97 139.53 167.914C164.517 179.001 192.711 181.469 196.415 149.424C198.582 130.66 182.573 124.388 179.536 109.771C175.32 89.5159 183.751 81.9246 186.294 68.387C192.592 34.7486 171.053 12.9856 140.947 3.4407Z" fill="#91DFEB"/>
<mask id="mask0" mask-type="alpha" maskUnits="userSpaceOnUse" x="0" y="0" width="197" height="179">
<path d="M140.947 3.4407C109.544 -5.12741 83.8748 2.41253 76.1093 24.8781C68.3267 47.4122 74.7268 70.3748 46.5321 79.6455C23.4233 87.0312 -3.69623 100.055 0.416927 136.538C4.32528 171.153 25.5396 177.528 52.7103 178.933C81.6219 180.441 112.616 155.97 139.53 167.914C164.517 179.001 192.711 181.469 196.415 149.424C198.582 130.66 182.573 124.388 179.536 109.771C175.32 89.5159 183.751 81.9246 186.294 68.387C192.592 34.7486 171.053 12.9856 140.947 3.4407Z" fill="#91DFEB"/>
</mask>
<g mask="url(#mask0)">
<path d="M132.865 100.802L131.499 107.856C144.737 110.488 155.979 118.489 163.334 130.175C170.689 141.967 173.21 156.285 170.479 170.393L177.518 171.761C180.67 155.864 177.833 139.651 169.428 126.28C160.917 112.909 147.994 103.855 132.865 100.802Z" fill="#0E80A4"/>
<path d="M175.417 161.338C178.884 162.496 178.779 166.392 177.518 170.077C176.362 173.867 174.471 176.078 171.004 174.92C167.537 173.762 165.645 169.866 166.906 166.076C168.062 162.391 171.949 160.286 175.417 161.338Z" fill="#0E80A4"/>
<path d="M174.156 165.444C173.631 165.444 173.21 165.55 172.79 165.865C172.055 166.497 171.949 167.655 172.685 168.392C173.631 169.445 174.051 170.919 173.946 172.498C173.841 174.077 173 175.551 171.844 176.604C171.109 177.236 171.004 178.394 171.634 179.131C172.265 179.868 173.42 179.973 174.156 179.341C176.047 177.657 177.308 175.341 177.518 172.919C177.728 170.393 176.993 167.971 175.417 166.181C174.996 165.655 174.681 165.444 174.156 165.444Z" fill="#0E80A4"/>
<path d="M170.899 166.918C170.374 166.918 169.953 167.023 169.533 167.339C168.798 167.971 168.692 169.129 169.323 169.866C170.899 171.656 169.743 175.446 166.591 178.183C165.856 178.815 165.751 179.973 166.381 180.71C167.011 181.447 168.167 181.552 168.903 180.921C173.525 176.815 174.891 170.919 171.95 167.55C171.739 167.129 171.319 167.023 170.899 166.918Z" fill="#0E80A4"/>
<path d="M169.008 165.55C168.482 165.55 168.062 165.655 167.642 165.971C166.906 166.602 166.801 167.655 167.432 168.392C167.537 169.129 166.171 172.182 162.178 175.762C161.548 176.394 161.233 177.341 161.758 178.183C162.388 179.131 163.649 179.236 164.49 178.604C166.801 176.604 168.692 174.288 169.848 172.288C171.739 168.919 171.109 167.129 170.268 166.181C169.848 165.76 169.428 165.55 169.008 165.55Z" fill="#0E80A4"/>
<path d="M169.953 165.76C171.109 167.024 169.848 168.287 169.323 168.813C168.903 169.129 168.377 169.656 167.747 170.287C166.381 171.551 164.49 173.235 162.388 175.025C161.653 175.657 160.497 175.657 159.867 174.814C159.236 174.077 159.236 172.919 159.972 172.288C164.175 168.603 166.696 166.287 167.116 165.76C167.221 165.655 167.327 165.55 167.327 165.444C167.747 165.129 168.167 164.918 168.692 165.023C169.218 165.129 169.638 165.339 169.953 165.76ZM167.116 165.971C167.011 166.181 166.906 166.392 166.906 166.708C166.906 166.392 166.906 166.181 167.116 165.971ZM166.906 167.339C167.011 167.55 167.116 167.866 167.327 168.076C167.116 167.866 166.906 167.55 166.906 167.339Z" fill="#0E80A4"/>
<path d="M167.116 160.496C165.12 160.286 163.229 160.917 161.758 162.181C161.023 162.812 160.918 163.97 161.653 164.707C162.283 165.444 163.439 165.55 164.175 164.813C164.91 164.181 165.856 163.865 166.801 163.97C167.852 164.076 168.798 164.602 169.533 165.444C170.163 166.181 171.319 166.287 172.055 165.655C172.79 165.023 172.895 163.865 172.265 163.128C170.899 161.654 169.113 160.707 167.116 160.496Z" fill="#0E80A4"/>
<path d="M106.703 111.54C91.7835 110.067 78.335 102.697 68.879 90.5895C59.423 78.5874 55.1153 63.3217 56.5862 47.6348L63.5206 48.2665C62.2598 62.1636 66.0422 75.6396 74.4475 86.273C82.7478 96.9064 94.4102 103.329 107.438 104.592L106.703 111.54Z" fill="#0E80A4"/>
<path d="M94.3052 132.597C94.3052 132.597 93.99 133.123 93.4646 134.281C93.1494 134.808 92.9393 135.439 92.3089 136.282C92.0988 136.703 91.7836 137.124 91.4684 137.545C91.3633 137.756 91.1532 137.966 91.0481 138.282C90.838 138.493 90.7329 138.703 90.5228 139.019C89.7873 139.966 88.9468 141.019 87.8961 141.967C87.686 142.177 87.3708 142.493 87.1606 142.704C86.9505 143.02 86.6353 143.23 86.3201 143.441C85.6897 143.967 85.0593 144.494 84.4289 145.02C81.8022 147.02 78.4401 148.915 74.5526 150.284C70.6652 151.547 66.1473 152.284 61.4193 151.863C60.7889 151.758 60.2636 151.758 59.6332 151.653C59.0028 151.547 58.4774 151.442 57.847 151.337C56.5862 151.126 55.4305 150.81 54.2748 150.389C53.9596 150.284 53.6444 150.179 53.3292 150.073L52.4886 149.758C51.8582 149.547 51.3329 149.336 50.7025 149.021L50.2822 148.81L49.7569 148.6L48.9164 148.178C48.391 147.863 47.8657 147.652 47.2353 147.231C46.6049 146.81 46.0796 146.494 45.4492 146.073C44.9238 145.652 44.3985 145.231 43.8732 144.809C43.663 144.599 43.3478 144.388 43.1377 144.178L42.4022 143.441C41.982 142.914 41.3516 142.493 40.9313 141.967C40.511 141.44 40.0908 140.914 39.5654 140.388C39.1452 139.861 38.83 139.229 38.4097 138.703C37.9894 138.177 37.6742 137.545 37.359 136.913L36.8337 135.966C36.6236 135.65 36.5185 135.334 36.4134 135.018C35.2577 132.491 34.5222 129.649 34.207 126.806C33.8918 123.964 33.8918 121.016 34.5222 118.279C34.6273 117.542 34.8374 116.91 35.0476 116.173C35.2577 115.436 35.3628 114.804 35.678 114.067L36.5185 112.172L37.4641 110.277C37.7793 109.645 38.3046 109.014 38.7249 108.277C39.1452 107.645 39.6705 107.119 40.0908 106.487C40.511 105.961 41.1414 105.434 41.6668 104.908C42.1921 104.381 42.8225 103.96 43.3478 103.434C47.9708 99.749 53.8545 98.0645 59.5281 98.5909L60.5788 98.6962L61.6294 98.9068C62.3649 99.0121 62.9953 99.1174 63.6257 99.3279L64.5713 99.6438L65.0966 99.749L65.622 99.9596L66.5676 100.381L67.0929 100.591L67.303 100.697H67.4081C67.4081 100.697 67.7233 100.907 67.6182 100.802H67.7233L68.4588 101.223C68.774 101.328 68.9841 101.434 69.2993 101.644L70.2449 102.276C70.5601 102.486 70.8753 102.697 71.0854 102.907C72.1361 103.75 73.1868 104.697 74.0273 105.75C77.5996 109.856 79.0705 115.225 78.6502 119.963C78.4401 122.384 77.9148 124.595 76.9692 126.596V126.701L76.759 126.912L76.654 127.017L76.5489 127.333C76.4438 127.543 76.3388 127.754 76.2337 127.859C76.2337 127.964 76.1286 128.07 76.0236 128.175L75.8134 128.596C75.6033 128.807 75.4982 129.122 75.2881 129.333C74.9729 129.859 74.6577 130.175 74.2374 130.596C73.9222 131.018 73.502 131.333 73.1868 131.755C71.7158 133.123 70.0348 134.176 68.4588 134.913C67.6182 135.334 66.8828 135.545 66.0422 135.755C65.2017 135.966 64.4662 136.176 63.7308 136.176C60.7889 136.492 58.4774 136.071 57.0065 135.65C56.271 135.439 55.6406 135.229 55.3254 135.018C54.9052 134.913 54.8001 134.808 54.8001 134.808C52.8038 133.965 51.7532 131.649 52.5937 129.649C53.4342 127.649 55.7457 126.596 57.742 127.438L58.0572 127.543C58.0572 127.543 58.1622 127.543 58.3724 127.649C58.5825 127.754 58.8977 127.859 59.2129 127.964C59.9484 128.28 61.2092 128.491 62.7852 128.386C64.3612 128.28 66.2524 127.649 67.9334 126.175C68.1436 125.964 68.3537 125.753 68.5638 125.543C68.774 125.332 68.9841 125.122 69.0892 124.911C69.1942 124.806 69.1942 124.701 69.2993 124.595L69.4044 124.49C69.4044 124.49 69.5094 124.385 69.5094 124.28C69.6145 124.069 69.7196 123.858 69.8246 123.753L70.0348 123.437L70.1398 123.332C70.1398 123.437 70.2449 123.121 70.0348 123.437V123.332C70.6652 122.069 70.9804 120.7 71.1905 119.226C71.5057 116.278 70.6652 112.804 68.4588 110.172C67.9334 109.435 67.303 108.909 66.5676 108.277C66.3574 108.066 66.2524 107.961 66.0422 107.856L65.5169 107.54C65.4118 107.435 65.0966 107.224 64.8865 107.119L64.3612 106.908C63.9409 106.698 63.5206 106.592 63.1004 106.382L62.7852 106.276L62.47 106.171L61.7345 105.855C61.3142 105.645 60.7889 105.645 60.2636 105.539L59.5281 105.434L58.7926 105.329C54.8001 104.908 50.3873 105.961 47.0252 108.593C46.6049 108.908 46.1846 109.224 45.7644 109.645C45.3441 110.067 44.9238 110.382 44.6086 110.804C44.2934 111.225 43.8732 111.646 43.558 112.067C43.2428 112.488 43.0326 112.804 42.7174 113.33L41.8769 114.91L41.2465 116.489C41.0364 117.015 40.8262 117.542 40.7212 118.068C40.406 118.489 40.3009 119.015 40.1958 119.542C39.6705 121.753 39.5654 124.069 39.7756 126.385C39.9857 128.701 40.511 130.912 41.3516 133.018C41.4566 133.228 41.5617 133.544 41.6668 133.755L42.087 134.492C42.4022 135.018 42.6124 135.545 42.9276 135.966C43.2428 136.492 43.558 136.913 43.8732 137.334C44.1884 137.756 44.6086 138.177 44.9238 138.703C45.239 139.124 45.6593 139.545 46.0796 139.966L46.6049 140.598C46.815 140.809 47.0252 140.914 47.2353 141.125C47.6556 141.44 48.0758 141.862 48.4961 142.177C48.9164 142.493 49.3366 142.809 49.7569 143.02C50.1772 143.335 50.7025 143.651 51.2278 143.862L51.9633 144.283L52.1734 144.388L52.2785 144.494C52.3836 144.599 52.1734 144.494 52.1734 144.494L52.5937 144.704C53.119 144.915 53.6444 145.125 54.0646 145.336L54.8001 145.652C55.0102 145.757 55.3254 145.862 55.5356 145.862C56.5862 146.178 57.5318 146.599 58.5825 146.704C59.1078 146.81 59.6332 146.915 60.1585 147.02C60.6838 147.126 61.2092 147.126 61.7345 147.231C65.8321 147.652 69.7196 147.231 73.1868 146.178C76.654 145.125 79.5958 143.546 82.0124 141.862C82.6428 141.44 83.1681 140.914 83.6934 140.493C84.0086 140.282 84.2188 140.072 84.4289 139.861C84.639 139.651 84.8492 139.44 85.1644 139.229C86.11 138.387 86.8454 137.44 87.5809 136.597C87.791 136.387 87.8961 136.176 88.1062 135.966C88.2113 135.755 88.4214 135.545 88.5265 135.334C88.7366 134.913 89.0518 134.597 89.262 134.281C89.7873 133.65 90.1025 132.913 90.4177 132.491C91.0481 131.439 91.3633 130.912 91.3633 130.912C91.8886 130.07 92.9393 129.754 93.7798 130.175C94.4102 130.702 94.7254 131.755 94.3052 132.597Z" fill="#0E80A4"/>
<path d="M153.773 140.703C153.037 159.549 137.698 171.445 119.311 170.708C100.924 169.971 86.5303 156.917 87.2657 138.177C88.0012 119.331 103.971 90.6947 122.358 91.4317C140.745 92.1686 154.508 121.963 153.773 140.703Z" fill="#0E80A4"/>
<path d="M141.585 145.02C141.165 156.285 131.919 163.444 120.992 163.023C109.96 162.602 101.345 154.811 101.765 143.546C102.185 132.281 111.746 115.12 122.778 115.541C133.705 115.857 142.005 133.755 141.585 145.02Z" fill="white"/>
<path d="M153.563 67.954C153.668 65.4273 153.143 63.1111 152.302 60.7949C150.096 49.5298 143.581 40.5809 130.763 37.9489C127.716 36.7908 120.467 35.6327 118.365 30.7898C117.945 30.0528 117.84 29.3158 117.84 29C116.789 29.3158 114.478 30.1581 112.482 32.1584C110.591 34.0535 109.855 36.1591 109.54 37.1067C109.12 36.8961 107.964 36.475 107.123 35.3169C106.073 33.9482 106.073 32.5796 106.178 32.1584C105.232 32.8954 104.181 33.9482 103.236 35.3169C101.555 37.9489 101.24 40.7915 101.345 42.8971C95.9863 46.0556 93.0444 50.5826 91.3633 55.8467C89.0519 59.1104 87.686 62.69 87.5809 66.5854C87.4759 69.8491 88.2113 72.9023 89.6823 75.7449C91.0481 92.8004 102.711 103.75 122.463 103.75C143.581 103.75 152.722 94.3796 153.248 72.6917C153.248 72.06 153.248 71.4283 153.248 70.6914C153.353 69.8491 153.458 68.9016 153.563 67.954Z" fill="#0E80A4"/>
<path d="M90.4177 66.375C90.2076 59.5318 93.2545 53.3202 98.4028 48.5825C96.0913 47.1086 93.3595 46.2663 90.3126 46.3716C82.8529 46.5822 76.8641 52.2674 77.0742 59.2159C77.2843 66.1645 83.4833 71.6391 91.0481 71.5338H91.1532C90.7329 69.9546 90.4177 68.1648 90.4177 66.375Z" fill="#0E80A4"/>
<path d="M150.411 45.1082C147.469 45.2135 144.737 46.0557 142.531 47.6349C147.994 52.0567 151.356 58.2683 151.566 65.1116C151.566 66.9014 151.461 68.5859 151.041 70.2704C158.501 70.0598 164.49 64.3746 164.28 57.4261C164.069 50.4775 157.87 45.0029 150.411 45.1082Z" fill="#0E80A4"/>
<path d="M157.66 78.5875C157.976 89.642 143.581 105.224 121.622 105.645C99.6635 106.171 84.639 91.8529 84.3238 80.7984C84.2187 75.6396 85.3745 69.3227 91.7835 68.4805C99.0331 67.6382 108.909 71.5336 120.677 71.3231C133.18 71.0072 142.321 65.5326 149.675 66.3748C155.139 67.1118 157.45 73.7445 157.66 78.5875Z" fill="#0E80A4"/>
<path d="M148.099 79.5351C148.414 89.9579 138.433 102.592 122.673 102.907C106.913 103.223 93.6747 91.853 93.3595 81.4301C93.1494 75.3238 95.3558 71.3231 103.131 70.7967C108.594 70.3756 115.213 70.6914 121.728 70.5862C127.611 70.4809 132.97 69.8492 137.488 69.7439C145.262 69.4281 147.889 72.9023 148.099 79.5351Z" fill="white"/>
<path d="M93.8849 78.2716C99.6635 78.3769 113.848 71.7442 120.572 71.5336C127.401 71.4283 141.165 75.1132 146.944 74.7973C148.099 73.1128 141.585 67.0065 141.795 64.7956C142.531 58.2682 137.698 52.4777 131.184 51.9513C126.771 51.6355 122.673 53.6358 120.257 57.0048C117.63 53.7411 113.427 51.846 109.12 52.4777C102.605 53.4252 98.0875 59.321 99.2432 65.8484C99.5584 67.9541 92.6241 76.6924 93.8849 78.2716Z" fill="white"/>
<path d="M120.467 74.3762C118.996 74.4815 117.735 74.3762 116.579 74.2709C117 74.5868 118.365 75.6396 120.467 75.5343C122.568 75.429 123.934 74.3762 124.249 73.9551C123.199 74.1656 121.938 74.3762 120.467 74.3762Z" fill="#0E80A4"/>
<path d="M116.474 66.2696C116.264 68.7963 114.268 70.6914 112.061 70.4808C109.75 70.2702 108.174 68.0593 108.384 65.6379C108.594 63.1111 110.591 61.2161 112.797 61.4266C115.003 61.6372 116.684 63.7428 116.474 66.2696Z" fill="#0E80A4"/>
<path d="M112.587 63.2163C112.482 64.2691 111.641 65.1114 110.696 65.0061C109.75 64.9008 109.015 64.0586 109.12 62.9005C109.225 61.8477 110.065 61.0054 111.011 61.1107C111.956 61.216 112.587 62.1635 112.587 63.2163Z" fill="white"/>
<path d="M133.705 66.4801C133.495 69.0068 131.499 70.9019 129.292 70.6913C126.981 70.4807 125.405 68.2698 125.615 65.7431C125.825 63.2164 127.821 61.3213 130.028 61.5319C132.234 61.7424 133.915 63.9533 133.705 66.4801Z" fill="#0E80A4"/>
<path d="M130.133 63.0059C130.028 64.0587 129.187 64.9009 128.242 64.7957C127.296 64.6904 126.561 63.8481 126.666 62.69C126.771 61.6372 127.611 60.795 128.557 60.9003C129.502 61.0055 130.238 61.8478 130.133 63.0059Z" fill="white"/>
<path d="M100.189 209.136C88.3164 194.186 89.4721 157.759 96.0913 152.811L101.555 160.286C102.29 162.286 101.345 166.918 100.714 171.551C99.6636 179.552 97.3521 190.606 107.333 203.24L100.189 209.136Z" fill="#0E80A4"/>
<path d="M139.904 208.083C151.777 193.133 150.621 156.706 144.002 151.758L138.538 159.233C137.803 161.233 138.748 165.865 139.379 170.498C140.429 178.499 142.741 189.554 132.76 202.188L139.904 208.083Z" fill="#0E80A4"/>
<path d="M105.547 82.7987C105.547 82.7987 109.014 91.5371 121.833 91.5371C134.651 91.3265 135.806 81.6406 135.806 81.6406" stroke="#0E80A4" stroke-miterlimit="10"/>
<path d="M64.7814 41.8444C64.7814 40.6863 64.256 39.6335 63.4155 38.8966C61.9446 37.5279 59.1078 36.3698 59.8432 33.9483C60.0534 33.2114 60.3686 32.5797 60.1584 31.7374C59.9483 31.0005 59.423 30.6846 58.6875 30.5793C57.1115 30.3688 55.6406 31.5269 54.8 32.7903C53.224 35.2117 53.0139 38.7913 53.224 39.3177C53.119 39.2124 50.4923 37.6332 48.496 37.949C47.5504 38.0543 46.3947 38.686 46.0795 39.6335C45.7643 40.2652 46.0795 41.318 46.4998 41.8444C45.4491 42.055 44.8187 43.3184 44.6086 44.3712C44.3984 45.7398 44.9238 46.2662 45.6592 47.3191C44.8187 48.056 44.9238 50.1616 45.344 51.1092C45.7643 51.9514 46.92 52.6884 47.7606 53.1095C49.8619 54.1623 51.7531 54.1623 54.3798 54.4782C56.5862 54.6887 61.3142 53.3201 63.4155 52.0567C66.9878 49.53 64.6763 42.5814 64.7814 41.8444Z" fill="#0E80A4"/>
<path d="M61.2091 50.3721C61.2091 50.3721 58.6875 52.5831 57.7419 53.32C57.1115 53.7411 55.8507 55.0045 55.3254 55.2151C53.6443 55.7415 52.2785 56.5837 48.6011 55.0045C45.6593 53.7411 44.8187 50.3721 44.8187 50.3721L59.9483 49.3193L61.2091 50.3721Z" fill="#0E80A4"/>
<path d="M45.5542 52.1619C45.5542 52.3724 45.8694 52.4777 45.9745 52.583C46.0796 52.7935 46.1846 53.0041 46.3948 53.1094C46.6049 53.3199 46.6049 53.8464 49.2316 54.8992C49.5468 55.0044 49.862 55.1097 50.0721 55.215C50.7025 55.4256 51.0177 55.4256 51.7532 55.5308C52.3836 55.5308 52.9089 55.5308 53.5393 55.4256C54.0646 55.3203 54.695 55.215 55.1153 55.0044C55.3254 54.8992 55.5356 54.7939 55.7457 54.6886C55.8508 54.5833 55.9558 54.5833 55.9558 54.478C56.0609 54.2675 55.9558 53.7411 55.8508 53.5305C55.6406 52.8988 55.8508 52.7935 55.9558 53.0041C56.0609 53.2147 56.271 53.4252 56.271 53.6358C56.3761 53.8463 56.3761 54.0569 56.3761 54.3728C56.3761 54.478 56.271 54.6886 56.271 54.6886C56.166 54.7939 56.166 54.8992 56.0609 55.0044C55.8508 55.1097 55.6406 55.3203 55.4305 55.4256C54.9052 55.6361 54.3798 55.7414 53.8545 55.8467C53.2241 55.952 52.6988 56.0573 52.0684 56.0573C51.438 56.0573 50.7025 55.8467 50.0721 55.6361C49.7569 55.5308 49.4417 55.4256 49.1265 55.3203C48.8113 55.215 48.4961 55.1097 48.286 54.8992C47.7606 54.5833 47.2353 54.2675 46.71 53.9516C46.4998 53.7411 46.2897 53.5305 46.0796 53.4252C45.8694 53.2147 45.7644 53.0041 45.6593 52.7935C45.5542 52.583 45.4492 52.3724 45.3441 52.1619C45.3441 51.9513 45.4492 52.0566 45.5542 52.1619Z" fill="white"/>
<path d="M52.9088 38.7912L53.224 39.4229C53.224 39.4229 52.5936 39.2123 52.5936 39.107C52.4885 39.107 52.0683 38.7912 51.9632 38.7912C50.9125 38.2648 50.2821 38.1595 50.1771 38.1595C48.8112 37.949 48.2859 38.0542 47.9707 38.1595C47.0251 38.5806 46.7099 38.7912 46.6048 39.0018C46.2896 39.3176 46.0795 39.7387 46.0795 39.9493C46.0795 40.2651 45.9744 40.6863 46.1845 41.4232C46.3947 41.9496 46.4997 42.0549 46.6048 42.1602C46.6048 42.1602 46.7099 42.3708 47.3403 42.7919C47.8656 43.1077 48.0757 43.213 48.1808 43.3183C48.6011 43.5289 49.0213 43.7394 49.3365 43.8447C49.7568 43.95 51.0176 44.5817 53.1189 45.0028C53.5392 45.1081 53.9595 45.1081 54.3797 45.1081C54.8 45.1081 55.2203 45.1081 55.5355 45.0028C55.6405 45.0028 55.7456 44.8975 55.8507 44.8975C55.9557 44.8975 56.2709 44.7922 56.4811 44.3711C56.5861 44.2658 56.6912 44.0553 56.6912 43.8447C56.6912 43.6341 56.7963 43.5289 56.7963 43.3183C56.7963 43.0025 56.6912 42.6866 56.5861 42.3708C56.4811 42.0549 56.2709 41.8444 56.0608 41.6338C55.7456 41.318 55.1152 41.0021 55.0101 41.0021C54.9051 40.8968 54.4848 40.7915 54.3797 40.6863C54.3797 40.6863 53.3291 40.2651 53.224 40.2651C53.0139 40.1599 52.9088 40.1599 52.9088 40.1599C52.3835 40.0546 52.3835 39.9493 52.9088 40.0546C52.9088 40.0546 53.3291 40.1599 54.6949 40.6863C54.8 40.6863 54.9051 40.7915 55.0101 40.7915C55.1152 40.8968 55.2203 40.8968 55.3253 41.0021C55.5355 41.1074 55.8507 41.318 56.0608 41.5285C56.2709 41.7391 56.4811 41.9496 56.6912 42.2655C56.9013 42.5813 57.0064 42.8972 57.0064 43.3183C57.0064 43.5289 57.0064 43.7394 56.9013 43.8447C56.9013 44.0553 56.7963 44.2658 56.6912 44.3711C56.2709 44.7922 56.0608 44.8975 55.9557 44.8975C55.8507 44.8975 55.7456 45.0028 55.6405 45.0028C55.2203 45.1081 54.8 45.1081 54.3797 45.1081C53.9595 45.1081 53.5392 45.0028 53.1189 45.0028C52.6987 44.8975 52.2784 44.7922 51.8581 44.687C51.7531 44.687 50.5973 44.3711 48.0757 43.3183C47.0251 42.6866 46.8149 42.5813 46.8149 42.476L46.4997 42.1602C46.3947 41.9496 46.1845 41.8444 46.0795 41.6338C46.0795 41.5285 45.8693 41.1074 45.8693 41.1074C45.8693 41.1074 45.7643 40.581 45.7643 40.3704C45.7643 40.1599 45.7643 39.9493 45.7643 39.7387C45.7643 39.6335 45.8693 39.3176 45.9744 39.107C46.0795 38.8965 46.1845 38.7912 46.3947 38.5806C46.4997 38.4754 47.3403 37.6331 48.9163 37.5278C48.9163 37.5278 49.5467 37.5278 50.8075 37.8437C51.3328 38.0542 51.7531 38.1595 52.1733 38.3701C52.1733 38.4754 52.9088 38.7912 52.9088 38.7912Z" fill="white" stroke="white" stroke-width="0.25" stroke-miterlimit="10"/>
<path d="M46.2897 41.6338L46.3947 42.1602C46.3947 42.1602 46.0795 42.1602 45.7643 42.476C45.5542 42.6866 45.3441 42.8972 45.239 43.213C45.1339 43.4236 45.1339 43.5289 45.0289 43.7394C44.9238 43.95 44.9238 44.1605 44.9238 44.3711C44.9238 44.4764 44.9238 44.5817 44.9238 44.6869C44.9238 44.7922 44.9238 44.8975 44.9238 45.1081C44.9238 45.3186 45.0289 45.6345 45.1339 45.845C45.239 46.0556 45.3441 46.3714 45.5542 46.582C46.3947 47.4243 47.2353 47.8454 47.8657 48.0559C48.1809 48.1612 48.4961 48.2665 48.8113 48.3718C49.0214 48.3718 49.6518 48.4771 49.7569 48.5823C50.3873 48.6876 51.1227 48.7929 51.7531 48.7929C51.8582 48.7929 52.6987 48.7929 52.6987 48.7929C53.0139 48.7929 53.3291 48.7929 53.6443 48.7929C53.7494 48.7929 54.9051 48.6876 55.0102 48.5823C55.1153 48.5823 55.5355 48.4771 56.1659 48.1612C56.3761 48.0559 56.5862 47.8454 56.6913 47.6348C56.7963 47.5295 56.7963 47.4243 56.9014 47.319C57.0065 47.1084 57.1115 46.582 57.1115 46.3714C57.1115 46.1609 57.1115 45.9503 57.0065 45.845C57.0065 45.6345 56.9014 45.5292 56.7963 45.4239C56.6913 45.3186 56.6913 45.2133 56.5862 45.1081C56.1659 44.8975 55.9558 44.8975 55.9558 44.8975C56.0609 44.8975 56.1659 44.7922 56.1659 44.7922C56.1659 44.7922 56.3761 44.7922 56.6913 45.0028C56.7963 45.1081 56.9014 45.2133 57.0065 45.3186C57.2166 45.6345 57.2166 45.9503 57.2166 46.3714C57.2166 46.582 57.2166 47.0031 57.0065 47.4243C57.0065 47.5295 56.9014 47.6348 56.7963 47.7401C56.6913 47.9507 56.4811 48.1612 56.1659 48.2665C55.4305 48.6876 55.1153 48.6876 54.9051 48.6876C54.8001 48.6876 54.4849 48.7929 54.4849 48.7929C54.3798 48.7929 53.6443 48.8982 53.5393 48.8982C53.2241 48.8982 52.9089 48.8982 52.5937 49.0035H51.6481C51.0177 49.0035 50.2822 48.8982 49.6518 48.7929C49.4417 48.7929 48.8113 48.6876 48.6011 48.5823C48.2859 48.4771 47.9707 48.3718 47.6555 48.2665C45.239 47.319 45.3441 47.0031 45.1339 46.6873C44.9238 46.4767 44.8187 46.1609 44.7137 45.845C44.6086 45.5292 44.5035 45.2133 44.5035 45.0028C44.5035 44.8975 44.5035 44.6869 44.5035 44.5817C44.5035 44.4764 44.5035 44.2658 44.5035 44.1605C44.6086 43.6341 44.7137 43.1077 44.9238 42.7919C45.1339 42.3708 45.3441 42.0549 45.5542 41.8444C45.8694 41.6338 46.2897 41.6338 46.2897 41.6338Z" fill="white" stroke="white" stroke-width="0.25" stroke-miterlimit="10"/>
<path d="M44.8187 49.9512C44.8187 50.1618 45.0288 50.4776 45.1339 50.7934C45.239 51.004 45.344 51.3198 45.5542 51.5304C45.7643 51.741 45.7643 52.4779 48.7062 53.636C49.0214 53.7413 49.3366 53.8466 49.6518 53.8466C50.3872 53.9519 50.9126 54.0572 51.7531 54.0572C52.4886 54.0572 53.224 53.9519 53.8544 53.7413C54.4848 53.5308 55.2203 53.3202 55.7456 53.0043C56.0608 52.7938 56.271 52.6885 56.5862 52.4779C56.6912 52.3727 56.7963 52.2674 56.9014 52.1621C57.1115 51.8463 57.1115 51.1093 57.1115 50.8987C57.1115 50.5829 57.0064 50.3723 56.7963 50.1618C56.4811 49.5301 55.9558 49.4248 55.0102 49.2142C54.8 49.2142 54.695 49.2142 54.4848 49.1089C54.1696 49.1089 53.9595 49.1089 53.7494 49.1089C53.5392 49.1089 53.224 49.1089 53.224 49.1089C53.224 49.1089 53.5392 49.0037 53.7494 49.0037C53.9595 49.0037 54.1696 49.0037 54.4848 49.0037C54.695 49.0037 54.8 49.0037 55.0102 49.0037C55.1152 49.0037 55.7456 49.1089 55.9558 49.2142C56.4811 49.4248 56.6912 49.7406 56.7963 49.9512C56.9014 50.1618 57.0064 50.4776 57.1115 50.7934C57.1115 51.1093 57.1115 51.4251 57.1115 51.741C57.1115 51.9515 57.0064 52.1621 56.9014 52.1621C56.7963 52.2674 56.6912 52.4779 56.5862 52.5832C56.376 52.7938 56.0608 53.0043 55.7456 53.2149C55.1152 53.5308 54.4848 53.8466 53.7494 54.0572C53.0139 54.2677 52.2784 54.373 51.543 54.373C50.8075 54.373 50.072 54.373 49.3366 54.1624C49.0214 54.0572 48.6011 53.9519 48.2859 53.8466C47.9707 53.7413 47.6555 53.636 47.3403 53.4255C46.7099 53.1096 46.1846 52.7938 45.6592 52.3727C45.4491 52.1621 45.239 51.9515 45.0288 51.741C44.8187 51.5304 44.7136 51.2146 44.6086 51.004C44.5035 50.7934 44.3984 50.4776 44.3984 50.267C44.6086 49.8459 44.7136 49.7406 44.8187 49.9512Z" fill="white" stroke="white" stroke-width="0.25" stroke-miterlimit="10"/>
</g>
<path d="M132.865 100.802L131.499 107.856C144.737 110.488 155.979 118.489 163.334 130.175C170.689 141.967 173.21 156.285 170.479 170.393L177.518 171.761C180.67 155.864 177.833 139.651 169.428 126.28C160.917 112.909 147.994 103.855 132.865 100.802Z" fill="#0E80A4"/>
<path d="M106.703 111.54C91.7835 110.067 78.335 102.697 68.879 90.5895C59.423 78.5874 55.1153 63.3217 56.5862 47.6348L63.5206 48.2665C62.2598 62.1636 66.0422 75.6396 74.4475 86.273C82.7478 96.9064 94.4102 103.329 107.438 104.592L106.703 111.54Z" fill="#0E80A4"/>
<path d="M94.3052 132.597C94.3052 132.597 93.99 133.123 93.4646 134.281C93.1494 134.808 92.9393 135.439 92.3089 136.282C92.0988 136.703 91.7836 137.124 91.4684 137.545C91.3633 137.756 91.1532 137.966 91.0481 138.282C90.838 138.493 90.7329 138.703 90.5228 139.019C89.7873 139.966 88.9468 141.019 87.8961 141.967C87.686 142.177 87.3708 142.493 87.1606 142.704C86.9505 143.02 86.6353 143.23 86.3201 143.441C85.6897 143.967 85.0593 144.494 84.4289 145.02C81.8022 147.02 78.4401 148.915 74.5526 150.284C70.6652 151.547 66.1473 152.284 61.4193 151.863C60.7889 151.758 60.2636 151.758 59.6332 151.653C59.0028 151.547 58.4774 151.442 57.847 151.337C56.5862 151.126 55.4305 150.81 54.2748 150.389C53.9596 150.284 53.6444 150.179 53.3292 150.073L52.4886 149.758C51.8582 149.547 51.3329 149.336 50.7025 149.021L50.2822 148.81L49.7569 148.6L48.9164 148.178C48.391 147.863 47.8657 147.652 47.2353 147.231C46.6049 146.81 46.0796 146.494 45.4492 146.073C44.9238 145.652 44.3985 145.231 43.8732 144.809C43.663 144.599 43.3478 144.388 43.1377 144.178L42.4022 143.441C41.982 142.914 41.3516 142.493 40.9313 141.967C40.511 141.44 40.0908 140.914 39.5654 140.388C39.1452 139.861 38.83 139.229 38.4097 138.703C37.9894 138.177 37.6742 137.545 37.359 136.913L36.8337 135.966C36.6236 135.65 36.5185 135.334 36.4134 135.018C35.2577 132.491 34.5222 129.649 34.207 126.806C33.8918 123.964 33.8918 121.016 34.5222 118.279C34.6273 117.542 34.8374 116.91 35.0476 116.173C35.2577 115.436 35.3628 114.804 35.678 114.067L36.5185 112.172L37.4641 110.277C37.7793 109.645 38.3046 109.014 38.7249 108.277C39.1452 107.645 39.6705 107.119 40.0908 106.487C40.511 105.961 41.1414 105.434 41.6668 104.908C42.1921 104.381 42.8225 103.96 43.3478 103.434C47.9708 99.749 53.8545 98.0645 59.5281 98.5909L60.5788 98.6962L61.6294 98.9068C62.3649 99.0121 62.9953 99.1174 63.6257 99.3279L64.5713 99.6438L65.0966 99.749L65.622 99.9596L66.5676 100.381L67.0929 100.591L67.303 100.697H67.4081C67.4081 100.697 67.7233 100.907 67.6182 100.802H67.7233L68.4588 101.223C68.774 101.328 68.9841 101.434 69.2993 101.644L70.2449 102.276C70.5601 102.486 70.8753 102.697 71.0854 102.907C72.1361 103.75 73.1868 104.697 74.0273 105.75C77.5996 109.856 79.0705 115.225 78.6502 119.963C78.4401 122.384 77.9148 124.595 76.9692 126.596V126.701L76.759 126.912L76.654 127.017L76.5489 127.333C76.4438 127.543 76.3388 127.754 76.2337 127.859C76.2337 127.964 76.1286 128.07 76.0236 128.175L75.8134 128.596C75.6033 128.807 75.4982 129.122 75.2881 129.333C74.9729 129.859 74.6577 130.175 74.2374 130.596C73.9222 131.018 73.502 131.333 73.1868 131.755C71.7158 133.123 70.0348 134.176 68.4588 134.913C67.6182 135.334 66.8828 135.545 66.0422 135.755C65.2017 135.966 64.4662 136.176 63.7308 136.176C60.7889 136.492 58.4774 136.071 57.0065 135.65C56.271 135.439 55.6406 135.229 55.3254 135.018C54.9052 134.913 54.8001 134.808 54.8001 134.808C52.8038 133.965 51.7532 131.649 52.5937 129.649C53.4342 127.649 55.7457 126.596 57.742 127.438L58.0572 127.543C58.0572 127.543 58.1622 127.543 58.3724 127.649C58.5825 127.754 58.8977 127.859 59.2129 127.964C59.9484 128.28 61.2092 128.491 62.7852 128.386C64.3612 128.28 66.2524 127.649 67.9334 126.175C68.1436 125.964 68.3537 125.753 68.5638 125.543C68.774 125.332 68.9841 125.122 69.0892 124.911C69.1942 124.806 69.1942 124.701 69.2993 124.595L69.4044 124.49C69.4044 124.49 69.5094 124.385 69.5094 124.28C69.6145 124.069 69.7196 123.858 69.8246 123.753L70.0348 123.437L70.1398 123.332C70.1398 123.437 70.2449 123.121 70.0348 123.437V123.332C70.6652 122.069 70.9804 120.7 71.1905 119.226C71.5057 116.278 70.6652 112.804 68.4588 110.172C67.9334 109.435 67.303 108.909 66.5676 108.277C66.3574 108.066 66.2524 107.961 66.0422 107.856L65.5169 107.54C65.4118 107.435 65.0966 107.224 64.8865 107.119L64.3612 106.908C63.9409 106.698 63.5206 106.592 63.1004 106.382L62.7852 106.276L62.47 106.171L61.7345 105.855C61.3142 105.645 60.7889 105.645 60.2636 105.539L59.5281 105.434L58.7926 105.329C54.8001 104.908 50.3873 105.961 47.0252 108.593C46.6049 108.908 46.1846 109.224 45.7644 109.645C45.3441 110.067 44.9238 110.382 44.6086 110.804C44.2934 111.225 43.8732 111.646 43.558 112.067C43.2428 112.488 43.0326 112.804 42.7174 113.33L41.8769 114.91L41.2465 116.489C41.0364 117.015 40.8262 117.542 40.7212 118.068C40.406 118.489 40.3009 119.015 40.1958 119.542C39.6705 121.753 39.5654 124.069 39.7756 126.385C39.9857 128.701 40.511 130.912 41.3516 133.018C41.4566 133.228 41.5617 133.544 41.6668 133.755L42.087 134.492C42.4022 135.018 42.6124 135.545 42.9276 135.966C43.2428 136.492 43.558 136.913 43.8732 137.334C44.1884 137.756 44.6086 138.177 44.9238 138.703C45.239 139.124 45.6593 139.545 46.0796 139.966L46.6049 140.598C46.815 140.809 47.0252 140.914 47.2353 141.125C47.6556 141.44 48.0758 141.862 48.4961 142.177C48.9164 142.493 49.3366 142.809 49.7569 143.02C50.1772 143.335 50.7025 143.651 51.2278 143.862L51.9633 144.283L52.1734 144.388L52.2785 144.494C52.3836 144.599 52.1734 144.494 52.1734 144.494L52.5937 144.704C53.119 144.915 53.6444 145.125 54.0646 145.336L54.8001 145.652C55.0102 145.757 55.3254 145.862 55.5356 145.862C56.5862 146.178 57.5318 146.599 58.5825 146.704C59.1078 146.81 59.6332 146.915 60.1585 147.02C60.6838 147.126 61.2092 147.126 61.7345 147.231C65.8321 147.652 69.7196 147.231 73.1868 146.178C76.654 145.125 79.5958 143.546 82.0124 141.862C82.6428 141.44 83.1681 140.914 83.6934 140.493C84.0086 140.282 84.2188 140.072 84.4289 139.861C84.639 139.651 84.8492 139.44 85.1644 139.229C86.11 138.387 86.8454 137.44 87.5809 136.597C87.791 136.387 87.8961 136.176 88.1062 135.966C88.2113 135.755 88.4214 135.545 88.5265 135.334C88.7366 134.913 89.0518 134.597 89.262 134.281C89.7873 133.65 90.1025 132.913 90.4177 132.491C91.0481 131.439 91.3633 130.912 91.3633 130.912C91.8886 130.07 92.9393 129.754 93.7798 130.175C94.4102 130.702 94.7254 131.755 94.3052 132.597Z" fill="#0E80A4"/>
<path d="M153.563 67.954C153.668 65.4273 153.143 63.1111 152.302 60.7949C150.096 49.5298 143.581 40.5809 130.763 37.9489C127.716 36.7908 120.467 35.6327 118.365 30.7898C117.945 30.0528 117.84 29.3158 117.84 29C116.789 29.3158 114.478 30.1581 112.482 32.1584C110.591 34.0535 109.855 36.1591 109.54 37.1067C109.12 36.8961 107.964 36.475 107.123 35.3169C106.073 33.9482 106.073 32.5796 106.178 32.1584C105.232 32.8954 104.181 33.9482 103.236 35.3169C101.555 37.9489 101.24 40.7915 101.345 42.8971C95.9863 46.0556 93.0444 50.5826 91.3633 55.8467C89.0519 59.1104 87.686 62.69 87.5809 66.5854C87.4759 69.8491 88.2113 72.9023 89.6823 75.7449C91.0481 92.8004 102.711 103.75 122.463 103.75C143.581 103.75 152.722 94.3796 153.248 72.6917C153.248 72.06 153.248 71.4283 153.248 70.6914C153.353 69.8491 153.458 68.9016 153.563 67.954Z" fill="#0E80A4"/>
<path d="M90.4177 66.375C90.2076 59.5318 93.2545 53.3202 98.4028 48.5825C96.0913 47.1086 93.3595 46.2663 90.3126 46.3716C82.8529 46.5822 76.8641 52.2674 77.0742 59.2159C77.2843 66.1645 83.4833 71.6391 91.0481 71.5338H91.1532C90.7329 69.9546 90.4177 68.1648 90.4177 66.375Z" fill="#0E80A4"/>
<path d="M150.411 45.1082C147.469 45.2135 144.737 46.0557 142.531 47.6349C147.994 52.0567 151.356 58.2683 151.566 65.1116C151.566 66.9014 151.461 68.5859 151.041 70.2704C158.501 70.0598 164.49 64.3746 164.28 57.4261C164.069 50.4775 157.87 45.0029 150.411 45.1082Z" fill="#0E80A4"/>
<path d="M157.66 78.5875C157.976 89.642 143.581 105.224 121.622 105.645C99.6635 106.171 84.639 91.8529 84.3238 80.7984C84.2187 75.6396 85.3745 69.3227 91.7835 68.4805C99.0331 67.6382 108.909 71.5336 120.677 71.3231C133.18 71.0072 142.321 65.5326 149.675 66.3748C155.139 67.1118 157.45 73.7445 157.66 78.5875Z" fill="#0E80A4"/>
<path d="M148.099 79.5351C148.414 89.9579 138.433 102.592 122.673 102.907C106.913 103.223 93.6747 91.853 93.3595 81.4301C93.1494 75.3238 95.3558 71.3231 103.131 70.7967C108.594 70.3756 115.213 70.6914 121.728 70.5862C127.611 70.4809 132.97 69.8492 137.488 69.7439C145.262 69.4281 147.889 72.9023 148.099 79.5351Z" fill="white"/>
<path d="M93.8849 78.2716C99.6635 78.3769 113.848 71.7442 120.572 71.5336C127.401 71.4283 141.165 75.1132 146.944 74.7973C148.099 73.1128 141.585 67.0065 141.795 64.7956C142.531 58.2682 137.698 52.4777 131.184 51.9513C126.771 51.6355 122.673 53.6358 120.257 57.0048C117.63 53.7411 113.427 51.846 109.12 52.4777C102.605 53.4252 98.0875 59.321 99.2432 65.8484C99.5584 67.9541 92.6241 76.6924 93.8849 78.2716Z" fill="white"/>
<path d="M120.467 74.3762C118.996 74.4815 117.735 74.3762 116.579 74.2709C117 74.5868 118.365 75.6396 120.467 75.5343C122.568 75.429 123.934 74.3762 124.249 73.9551C123.199 74.1656 121.938 74.3762 120.467 74.3762Z" fill="#0E80A4"/>
<path d="M116.474 66.2696C116.264 68.7963 114.268 70.6914 112.061 70.4808C109.75 70.2702 108.174 68.0593 108.384 65.6379C108.594 63.1111 110.591 61.2161 112.797 61.4266C115.003 61.6372 116.684 63.7428 116.474 66.2696Z" fill="#0E80A4"/>
<path d="M112.587 63.2163C112.482 64.2691 111.641 65.1114 110.696 65.0061C109.75 64.9008 109.015 64.0586 109.12 62.9005C109.225 61.8477 110.065 61.0054 111.011 61.1107C111.956 61.216 112.587 62.1635 112.587 63.2163Z" fill="white"/>
<path d="M133.705 66.4801C133.495 69.0068 131.499 70.9019 129.292 70.6913C126.981 70.4807 125.405 68.2698 125.615 65.7431C125.825 63.2164 127.821 61.3213 130.028 61.5319C132.234 61.7424 133.915 63.9533 133.705 66.4801Z" fill="#0E80A4"/>
<path d="M130.133 63.0059C130.028 64.0587 129.187 64.9009 128.242 64.7957C127.296 64.6904 126.561 63.8481 126.666 62.69C126.771 61.6372 127.611 60.795 128.557 60.9003C129.502 61.0055 130.238 61.8478 130.133 63.0059Z" fill="white"/>
<path d="M105.547 82.7987C105.547 82.7987 109.014 91.5371 121.833 91.5371C134.651 91.3265 135.806 81.6406 135.806 81.6406" stroke="#0E80A4" stroke-miterlimit="10"/>
<path d="M64.7814 41.8444C64.7814 40.6863 64.256 39.6335 63.4155 38.8966C61.9446 37.5279 59.1078 36.3698 59.8432 33.9483C60.0534 33.2114 60.3686 32.5797 60.1584 31.7374C59.9483 31.0005 59.423 30.6846 58.6875 30.5793C57.1115 30.3688 55.6406 31.5269 54.8 32.7903C53.224 35.2117 53.0139 38.7913 53.224 39.3177C53.119 39.2124 50.4923 37.6332 48.496 37.949C47.5504 38.0543 46.3947 38.686 46.0795 39.6335C45.7643 40.2652 46.0795 41.318 46.4998 41.8444C45.4491 42.055 44.8187 43.3184 44.6086 44.3712C44.3984 45.7398 44.9238 46.2662 45.6592 47.3191C44.8187 48.056 44.9238 50.1616 45.344 51.1092C45.7643 51.9514 46.92 52.6884 47.7606 53.1095C49.8619 54.1623 51.7531 54.1623 54.3798 54.4782C56.5862 54.6887 61.3142 53.3201 63.4155 52.0567C66.9878 49.53 64.6763 42.5814 64.7814 41.8444Z" fill="#0E80A4"/>
<path d="M61.2091 50.3721C61.2091 50.3721 58.6875 52.5831 57.7419 53.32C57.1115 53.7411 55.8507 55.0045 55.3254 55.2151C53.6443 55.7415 52.2785 56.5837 48.6011 55.0045C45.6593 53.7411 44.8187 50.3721 44.8187 50.3721L59.9483 49.3193L61.2091 50.3721Z" fill="#0E80A4"/>
<path d="M45.5542 52.1619C45.5542 52.3724 45.8694 52.4777 45.9745 52.583C46.0796 52.7935 46.1846 53.0041 46.3948 53.1094C46.6049 53.3199 46.6049 53.8464 49.2316 54.8992C49.5468 55.0044 49.862 55.1097 50.0721 55.215C50.7025 55.4256 51.0177 55.4256 51.7532 55.5308C52.3836 55.5308 52.9089 55.5308 53.5393 55.4256C54.0646 55.3203 54.695 55.215 55.1153 55.0044C55.3254 54.8992 55.5356 54.7939 55.7457 54.6886C55.8508 54.5833 55.9558 54.5833 55.9558 54.478C56.0609 54.2675 55.9558 53.7411 55.8508 53.5305C55.6406 52.8988 55.8508 52.7935 55.9558 53.0041C56.0609 53.2147 56.271 53.4252 56.271 53.6358C56.3761 53.8463 56.3761 54.0569 56.3761 54.3728C56.3761 54.478 56.271 54.6886 56.271 54.6886C56.166 54.7939 56.166 54.8992 56.0609 55.0044C55.8508 55.1097 55.6406 55.3203 55.4305 55.4256C54.9052 55.6361 54.3798 55.7414 53.8545 55.8467C53.2241 55.952 52.6988 56.0573 52.0684 56.0573C51.438 56.0573 50.7025 55.8467 50.0721 55.6361C49.7569 55.5308 49.4417 55.4256 49.1265 55.3203C48.8113 55.215 48.4961 55.1097 48.286 54.8992C47.7606 54.5833 47.2353 54.2675 46.71 53.9516C46.4998 53.7411 46.2897 53.5305 46.0796 53.4252C45.8694 53.2147 45.7644 53.0041 45.6593 52.7935C45.5542 52.583 45.4492 52.3724 45.3441 52.1619C45.3441 51.9513 45.4492 52.0566 45.5542 52.1619Z" fill="white"/>
<path d="M52.9088 38.7912L53.224 39.4229C53.224 39.4229 52.5936 39.2123 52.5936 39.107C52.4885 39.107 52.0683 38.7912 51.9632 38.7912C50.9125 38.2648 50.2821 38.1595 50.1771 38.1595C48.8112 37.949 48.2859 38.0542 47.9707 38.1595C47.0251 38.5806 46.7099 38.7912 46.6048 39.0018C46.2896 39.3176 46.0795 39.7387 46.0795 39.9493C46.0795 40.2651 45.9744 40.6863 46.1845 41.4232C46.3947 41.9496 46.4997 42.0549 46.6048 42.1602C46.6048 42.1602 46.7099 42.3708 47.3403 42.7919C47.8656 43.1077 48.0757 43.213 48.1808 43.3183C48.6011 43.5289 49.0213 43.7394 49.3365 43.8447C49.7568 43.95 51.0176 44.5817 53.1189 45.0028C53.5392 45.1081 53.9595 45.1081 54.3797 45.1081C54.8 45.1081 55.2203 45.1081 55.5355 45.0028C55.6405 45.0028 55.7456 44.8975 55.8507 44.8975C55.9557 44.8975 56.2709 44.7922 56.4811 44.3711C56.5861 44.2658 56.6912 44.0553 56.6912 43.8447C56.6912 43.6341 56.7963 43.5289 56.7963 43.3183C56.7963 43.0025 56.6912 42.6866 56.5861 42.3708C56.4811 42.0549 56.2709 41.8444 56.0608 41.6338C55.7456 41.318 55.1152 41.0021 55.0101 41.0021C54.9051 40.8968 54.4848 40.7915 54.3797 40.6863C54.3797 40.6863 53.3291 40.2651 53.224 40.2651C53.0139 40.1599 52.9088 40.1599 52.9088 40.1599C52.3835 40.0546 52.3835 39.9493 52.9088 40.0546C52.9088 40.0546 53.3291 40.1599 54.6949 40.6863C54.8 40.6863 54.9051 40.7915 55.0101 40.7915C55.1152 40.8968 55.2203 40.8968 55.3253 41.0021C55.5355 41.1074 55.8507 41.318 56.0608 41.5285C56.2709 41.7391 56.4811 41.9496 56.6912 42.2655C56.9013 42.5813 57.0064 42.8972 57.0064 43.3183C57.0064 43.5289 57.0064 43.7394 56.9013 43.8447C56.9013 44.0553 56.7963 44.2658 56.6912 44.3711C56.2709 44.7922 56.0608 44.8975 55.9557 44.8975C55.8507 44.8975 55.7456 45.0028 55.6405 45.0028C55.2203 45.1081 54.8 45.1081 54.3797 45.1081C53.9595 45.1081 53.5392 45.0028 53.1189 45.0028C52.6987 44.8975 52.2784 44.7922 51.8581 44.687C51.7531 44.687 50.5973 44.3711 48.0757 43.3183C47.0251 42.6866 46.8149 42.5813 46.8149 42.476L46.4997 42.1602C46.3947 41.9496 46.1845 41.8444 46.0795 41.6338C46.0795 41.5285 45.8693 41.1074 45.8693 41.1074C45.8693 41.1074 45.7643 40.581 45.7643 40.3704C45.7643 40.1599 45.7643 39.9493 45.7643 39.7387C45.7643 39.6335 45.8693 39.3176 45.9744 39.107C46.0795 38.8965 46.1845 38.7912 46.3947 38.5806C46.4997 38.4754 47.3403 37.6331 48.9163 37.5278C48.9163 37.5278 49.5467 37.5278 50.8075 37.8437C51.3328 38.0542 51.7531 38.1595 52.1733 38.3701C52.1733 38.4754 52.9088 38.7912 52.9088 38.7912Z" fill="white" stroke="white" stroke-width="0.25" stroke-miterlimit="10"/>
<path d="M46.2897 41.6338L46.3947 42.1602C46.3947 42.1602 46.0795 42.1602 45.7643 42.476C45.5542 42.6866 45.3441 42.8972 45.239 43.213C45.1339 43.4236 45.1339 43.5289 45.0289 43.7394C44.9238 43.95 44.9238 44.1605 44.9238 44.3711C44.9238 44.4764 44.9238 44.5817 44.9238 44.6869C44.9238 44.7922 44.9238 44.8975 44.9238 45.1081C44.9238 45.3186 45.0289 45.6345 45.1339 45.845C45.239 46.0556 45.3441 46.3714 45.5542 46.582C46.3947 47.4243 47.2353 47.8454 47.8657 48.0559C48.1809 48.1612 48.4961 48.2665 48.8113 48.3718C49.0214 48.3718 49.6518 48.4771 49.7569 48.5823C50.3873 48.6876 51.1227 48.7929 51.7531 48.7929C51.8582 48.7929 52.6987 48.7929 52.6987 48.7929C53.0139 48.7929 53.3291 48.7929 53.6443 48.7929C53.7494 48.7929 54.9051 48.6876 55.0102 48.5823C55.1153 48.5823 55.5355 48.4771 56.1659 48.1612C56.3761 48.0559 56.5862 47.8454 56.6913 47.6348C56.7963 47.5295 56.7963 47.4243 56.9014 47.319C57.0065 47.1084 57.1115 46.582 57.1115 46.3714C57.1115 46.1609 57.1115 45.9503 57.0065 45.845C57.0065 45.6345 56.9014 45.5292 56.7963 45.4239C56.6913 45.3186 56.6913 45.2133 56.5862 45.1081C56.1659 44.8975 55.9558 44.8975 55.9558 44.8975C56.0609 44.8975 56.1659 44.7922 56.1659 44.7922C56.1659 44.7922 56.3761 44.7922 56.6913 45.0028C56.7963 45.1081 56.9014 45.2133 57.0065 45.3186C57.2166 45.6345 57.2166 45.9503 57.2166 46.3714C57.2166 46.582 57.2166 47.0031 57.0065 47.4243C57.0065 47.5295 56.9014 47.6348 56.7963 47.7401C56.6913 47.9507 56.4811 48.1612 56.1659 48.2665C55.4305 48.6876 55.1153 48.6876 54.9051 48.6876C54.8001 48.6876 54.4849 48.7929 54.4849 48.7929C54.3798 48.7929 53.6443 48.8982 53.5393 48.8982C53.2241 48.8982 52.9089 48.8982 52.5937 49.0035H51.6481C51.0177 49.0035 50.2822 48.8982 49.6518 48.7929C49.4417 48.7929 48.8113 48.6876 48.6011 48.5823C48.2859 48.4771 47.9707 48.3718 47.6555 48.2665C45.239 47.319 45.3441 47.0031 45.1339 46.6873C44.9238 46.4767 44.8187 46.1609 44.7137 45.845C44.6086 45.5292 44.5035 45.2133 44.5035 45.0028C44.5035 44.8975 44.5035 44.6869 44.5035 44.5817C44.5035 44.4764 44.5035 44.2658 44.5035 44.1605C44.6086 43.6341 44.7137 43.1077 44.9238 42.7919C45.1339 42.3708 45.3441 42.0549 45.5542 41.8444C45.8694 41.6338 46.2897 41.6338 46.2897 41.6338Z" fill="white" stroke="white" stroke-width="0.25" stroke-miterlimit="10"/>
<path d="M44.8187 49.9512C44.8187 50.1618 45.0288 50.4776 45.1339 50.7934C45.239 51.004 45.344 51.3198 45.5542 51.5304C45.7643 51.741 45.7643 52.4779 48.7062 53.636C49.0214 53.7413 49.3366 53.8466 49.6518 53.8466C50.3872 53.9519 50.9126 54.0572 51.7531 54.0572C52.4886 54.0572 53.224 53.9519 53.8544 53.7413C54.4848 53.5308 55.2203 53.3202 55.7456 53.0043C56.0608 52.7938 56.271 52.6885 56.5862 52.4779C56.6912 52.3727 56.7963 52.2674 56.9014 52.1621C57.1115 51.8463 57.1115 51.1093 57.1115 50.8987C57.1115 50.5829 57.0064 50.3723 56.7963 50.1618C56.4811 49.5301 55.9558 49.4248 55.0102 49.2142C54.8 49.2142 54.695 49.2142 54.4848 49.1089C54.1696 49.1089 53.9595 49.1089 53.7494 49.1089C53.5392 49.1089 53.224 49.1089 53.224 49.1089C53.224 49.1089 53.5392 49.0037 53.7494 49.0037C53.9595 49.0037 54.1696 49.0037 54.4848 49.0037C54.695 49.0037 54.8 49.0037 55.0102 49.0037C55.1152 49.0037 55.7456 49.1089 55.9558 49.2142C56.4811 49.4248 56.6912 49.7406 56.7963 49.9512C56.9014 50.1618 57.0064 50.4776 57.1115 50.7934C57.1115 51.1093 57.1115 51.4251 57.1115 51.741C57.1115 51.9515 57.0064 52.1621 56.9014 52.1621C56.7963 52.2674 56.6912 52.4779 56.5862 52.5832C56.376 52.7938 56.0608 53.0043 55.7456 53.2149C55.1152 53.5308 54.4848 53.8466 53.7494 54.0572C53.0139 54.2677 52.2784 54.373 51.543 54.373C50.8075 54.373 50.072 54.373 49.3366 54.1624C49.0214 54.0572 48.6011 53.9519 48.2859 53.8466C47.9707 53.7413 47.6555 53.636 47.3403 53.4255C46.7099 53.1096 46.1846 52.7938 45.6592 52.3727C45.4491 52.1621 45.239 51.9515 45.0288 51.741C44.8187 51.5304 44.7136 51.2146 44.6086 51.004C44.5035 50.7934 44.3984 50.4776 44.3984 50.267C44.6086 49.8459 44.7136 49.7406 44.8187 49.9512Z" fill="white" stroke="white" stroke-width="0.25" stroke-miterlimit="10"/>
</svg>
