<svg width="124" height="123" viewBox="0 0 124 123" fill="none" xmlns="http://www.w3.org/2000/svg">
<path d="M88.8912 2.36428C69.086 -3.5233 52.8974 1.65777 47.9999 17.095C43.0917 32.5794 47.1281 48.3581 29.3464 54.7285C14.7724 59.8035 -2.33111 68.7527 0.262944 93.822C2.72783 117.608 16.1071 121.988 33.2429 122.954C51.4766 123.99 71.0235 107.175 87.9978 115.382C103.756 123.001 121.537 124.696 123.873 102.677C125.24 89.7831 115.144 85.4734 113.228 75.4292C110.569 61.5109 115.887 56.2945 117.49 46.9922C121.462 23.8775 107.878 8.92305 88.8912 2.36428Z" fill="#91DFEB"/>
<mask id="mask0" mask-type="alpha" maskUnits="userSpaceOnUse" x="0" y="0" width="124" height="123">
<path d="M88.8912 2.36428C69.086 -3.5233 52.8974 1.65777 47.9999 17.095C43.0917 32.5794 47.1281 48.3581 29.3464 54.7285C14.7724 59.8035 -2.33111 68.7527 0.262944 93.822C2.72783 117.608 16.1071 121.988 33.2429 122.954C51.4766 123.99 71.0235 107.175 87.9978 115.382C103.756 123.001 121.537 124.696 123.873 102.677C125.24 89.7831 115.144 85.4734 113.228 75.4292C110.569 61.5109 115.887 56.2945 117.49 46.9922C121.462 23.8775 107.878 8.92305 88.8912 2.36428Z" fill="#91DFEB"/>
</mask>
<g mask="url(#mask0)">
<path d="M83.7937 69.266L82.9323 74.1131C91.2814 75.9217 98.3715 81.4198 103.01 89.45C107.648 97.5525 109.239 107.391 107.516 117.085L111.955 118.026C113.943 107.102 112.154 95.961 106.853 86.7733C101.486 77.5856 93.3355 71.364 83.7937 69.266Z" fill="#0E80A4"/>
<path d="M110.631 110.864C112.817 111.66 112.751 114.336 111.956 116.868C111.227 119.473 110.034 120.992 107.848 120.196C105.661 119.4 104.468 116.724 105.263 114.119C105.992 111.587 108.444 110.14 110.631 110.864Z" fill="#0E80A4"/>
<path d="M109.835 113.685C109.504 113.685 109.239 113.758 108.974 113.975C108.51 114.409 108.444 115.204 108.908 115.711C109.504 116.434 109.769 117.447 109.703 118.532C109.637 119.617 109.107 120.63 108.378 121.354C107.914 121.788 107.848 122.584 108.245 123.09C108.643 123.596 109.372 123.669 109.835 123.235C111.028 122.077 111.823 120.486 111.956 118.822C112.088 117.085 111.625 115.421 110.631 114.192C110.366 113.83 110.167 113.685 109.835 113.685Z" fill="#0E80A4"/>
<path d="M107.781 114.698C107.45 114.698 107.185 114.77 106.92 114.987C106.456 115.421 106.39 116.217 106.787 116.724C107.781 117.953 107.052 120.558 105.065 122.439C104.601 122.873 104.534 123.669 104.932 124.175C105.33 124.681 106.058 124.754 106.522 124.32C109.438 121.498 110.299 117.447 108.444 115.132C108.311 114.843 108.046 114.77 107.781 114.698Z" fill="#0E80A4"/>
<path d="M106.589 113.758C106.257 113.758 105.992 113.83 105.727 114.047C105.263 114.481 105.197 115.204 105.595 115.711C105.661 116.217 104.8 118.315 102.282 120.775C101.884 121.209 101.685 121.86 102.017 122.439C102.414 123.09 103.209 123.162 103.739 122.728C105.197 121.354 106.39 119.762 107.119 118.388C108.311 116.073 107.914 114.843 107.384 114.192C107.119 113.902 106.854 113.758 106.589 113.758Z" fill="#0E80A4"/>
<path d="M107.185 113.902C107.914 114.77 107.118 115.638 106.787 116C106.522 116.217 106.191 116.579 105.793 117.013C104.932 117.881 103.739 119.039 102.414 120.268C101.95 120.703 101.221 120.703 100.824 120.124C100.426 119.617 100.426 118.822 100.89 118.388C103.54 115.855 105.131 114.264 105.396 113.902C105.462 113.83 105.528 113.758 105.528 113.685C105.793 113.468 106.058 113.323 106.39 113.396C106.721 113.468 106.986 113.613 107.185 113.902ZM105.396 114.047C105.329 114.192 105.263 114.336 105.263 114.553C105.263 114.336 105.263 114.192 105.396 114.047ZM105.263 114.987C105.329 115.132 105.396 115.349 105.528 115.494C105.396 115.349 105.263 115.132 105.263 114.987Z" fill="#0E80A4"/>
<path d="M105.396 110.285C104.137 110.14 102.944 110.574 102.016 111.443C101.553 111.877 101.486 112.672 101.95 113.179C102.348 113.685 103.077 113.758 103.54 113.251C104.004 112.817 104.601 112.6 105.197 112.672C105.86 112.745 106.456 113.106 106.92 113.685C107.317 114.192 108.046 114.264 108.51 113.83C108.974 113.396 109.04 112.6 108.643 112.094C107.781 111.081 106.655 110.43 105.396 110.285Z" fill="#0E80A4"/>
<path d="M67.2946 76.645C57.8853 75.6322 49.4037 70.5681 43.44 62.2486C37.4764 54.0013 34.7597 43.5114 35.6873 32.7322L40.0607 33.1662C39.2655 42.7157 41.651 51.9757 46.952 59.2824C52.1867 66.5892 59.5418 71.0022 67.7584 71.8703L67.2946 76.645Z" fill="#0E80A4"/>
<path d="M59.4756 91.1139C59.4756 91.1139 59.2768 91.4756 58.9455 92.2714C58.7467 92.6331 58.6142 93.0672 58.2166 93.6459C58.0841 93.9353 57.8853 94.2247 57.6865 94.5141C57.6202 94.6587 57.4877 94.8034 57.4214 95.0205C57.2889 95.1652 57.2226 95.3098 57.0901 95.5269C56.6263 96.178 56.0962 96.9014 55.4336 97.5525C55.301 97.6972 55.1022 97.9142 54.9697 98.0589C54.8372 98.2759 54.6384 98.4206 54.4396 98.5653C54.042 98.927 53.6445 99.2888 53.2469 99.6505C51.5903 101.025 49.4699 102.327 47.0182 103.268C44.5665 104.136 41.7172 104.642 38.7354 104.353C38.3378 104.28 38.0065 104.281 37.6089 104.208C37.2114 104.136 36.88 104.063 36.4825 103.991C35.6873 103.846 34.9584 103.629 34.2295 103.34C34.0308 103.268 33.832 103.195 33.6332 103.123L33.1031 102.906C32.7055 102.761 32.3742 102.617 31.9766 102.4L31.7116 102.255L31.3803 102.11L30.8502 101.821C30.5188 101.604 30.1875 101.459 29.79 101.17C29.3924 100.88 29.0611 100.663 28.6635 100.374C28.3322 100.085 28.0009 99.7952 27.6696 99.5058C27.537 99.3611 27.3382 99.2164 27.2057 99.0717L26.7419 98.5653C26.4768 98.2036 26.0793 97.9142 25.8142 97.5525C25.5492 97.1908 25.2841 96.8291 24.9528 96.4673C24.6877 96.1056 24.489 95.6716 24.2239 95.3098C23.9589 94.9481 23.7601 94.5141 23.5613 94.08L23.23 93.4289C23.0974 93.2119 23.0312 92.9948 22.9649 92.7778C22.236 91.0415 21.7722 89.0883 21.5734 87.135C21.3746 85.1817 21.3746 83.156 21.7722 81.2751C21.8384 80.7687 21.971 80.3346 22.1035 79.8282C22.236 79.3218 22.3023 78.8877 22.5011 78.3813L23.0312 77.0791L23.6275 75.7769C23.8263 75.3429 24.1576 74.9088 24.4227 74.4024C24.6877 73.9683 25.0191 73.6066 25.2841 73.1726C25.5492 72.8108 25.9467 72.4491 26.278 72.0874C26.6094 71.7257 27.0069 71.4363 27.3382 71.0746C30.2538 68.5425 33.9645 67.385 37.5427 67.7468L38.2053 67.8191L38.8679 67.9638C39.3318 68.0361 39.7293 68.1085 40.1269 68.2532L40.7233 68.4702L41.0546 68.5425L41.3859 68.6872L41.9823 68.9766L42.3136 69.1213L42.4461 69.1936H42.5124C42.5124 69.1936 42.7111 69.3383 42.6449 69.266H42.7111L43.175 69.5554C43.3738 69.6277 43.5063 69.7 43.7051 69.8447L44.3014 70.2788C44.5002 70.4235 44.699 70.5682 44.8315 70.7129C45.4942 71.2916 46.1568 71.9427 46.6869 72.6662C48.9398 75.4876 49.8675 79.1771 49.6025 82.4326C49.4699 84.0965 49.1386 85.6157 48.5423 86.9903V87.0626L48.4097 87.2073L48.3435 87.2796L48.2772 87.4967C48.2109 87.6414 48.1447 87.7861 48.0784 87.8584C48.0784 87.9307 48.0122 88.0031 47.9459 88.0754L47.8134 88.3648C47.6808 88.5095 47.6146 88.7265 47.482 88.8712C47.2833 89.2329 47.0845 89.45 46.8194 89.7393C46.6206 90.0287 46.3556 90.2458 46.1568 90.5351C45.2291 91.4756 44.1689 92.199 43.175 92.7055C42.6449 92.9948 42.181 93.1395 41.6509 93.2842C41.1208 93.4289 40.657 93.5736 40.1932 93.5736C38.3378 93.7906 36.88 93.5012 35.9524 93.2119C35.4885 93.0672 35.091 92.9225 34.8922 92.7778C34.6271 92.7055 34.5609 92.6331 34.5609 92.6331C33.3019 92.0544 32.6392 90.4628 33.1693 89.0883C33.6994 87.7137 35.1572 86.9903 36.4162 87.569L36.615 87.6414C36.615 87.6414 36.6813 87.6414 36.8138 87.7137C36.9463 87.7861 37.1451 87.8584 37.3439 87.9307C37.8077 88.1478 38.6029 88.2925 39.5968 88.2201C40.5907 88.1478 41.7835 87.7137 42.8437 86.7009C42.9762 86.5562 43.1087 86.4115 43.2412 86.2668C43.3738 86.1221 43.5063 85.9775 43.5726 85.8328C43.6388 85.7604 43.6388 85.6881 43.7051 85.6157L43.7713 85.5434C43.7713 85.5434 43.8376 85.471 43.8376 85.3987C43.9039 85.254 43.9701 85.1093 44.0364 85.037L44.1689 84.82L44.2352 84.7476C44.2352 84.82 44.3014 84.6029 44.1689 84.82V84.7476C44.5665 83.8795 44.7653 82.939 44.8978 81.9262C45.0966 79.9006 44.5665 77.5132 43.175 75.7046C42.8437 75.1982 42.4461 74.8365 41.9823 74.4024C41.8497 74.2577 41.7835 74.1854 41.6509 74.113L41.3196 73.896C41.2534 73.8237 41.0546 73.679 40.9221 73.6066L40.5907 73.4619C40.3257 73.3172 40.0606 73.2449 39.7956 73.1002L39.5968 73.0279L39.398 72.9555L38.9342 72.7385C38.6691 72.5938 38.3378 72.5938 38.0065 72.5215L37.5427 72.4491L37.0788 72.3768C34.5609 72.0874 31.7778 72.8108 29.6574 74.6194C29.3924 74.8365 29.1273 75.0535 28.8623 75.3429C28.5972 75.6323 28.3322 75.8493 28.1334 76.1387C27.9346 76.428 27.6696 76.7174 27.4708 77.0068C27.272 77.2962 27.1395 77.5132 26.9407 77.8749L26.4106 78.9601L26.013 80.0452C25.8805 80.407 25.7479 80.7687 25.6817 81.1304C25.4829 81.4198 25.4166 81.7815 25.3504 82.1432C25.0191 83.6624 24.9528 85.254 25.0853 86.8456C25.2178 88.4372 25.5492 89.9564 26.0793 91.4033C26.1455 91.548 26.2118 91.765 26.278 91.9097L26.5431 92.4161C26.7419 92.7778 26.8744 93.1395 27.0732 93.4289C27.272 93.7906 27.4708 94.08 27.6696 94.3694C27.8683 94.6587 28.1334 94.9481 28.3322 95.3098C28.531 95.5992 28.796 95.8886 29.0611 96.178L29.3924 96.612C29.5249 96.7567 29.6574 96.8291 29.79 96.9738C30.055 97.1908 30.3201 97.4802 30.5851 97.6972C30.8502 97.9142 31.1152 98.1313 31.3803 98.2759C31.6453 98.493 31.9766 98.71 32.3079 98.8547L32.7718 99.1441L32.9043 99.2164L32.9706 99.2888C33.0368 99.3611 32.9043 99.2888 32.9043 99.2888L33.1693 99.4335C33.5007 99.5781 33.832 99.7228 34.097 99.8675L34.5609 100.085C34.6934 100.157 34.8922 100.229 35.0247 100.229C35.6873 100.446 36.2837 100.736 36.9463 100.808C37.2776 100.88 37.6089 100.953 37.9402 101.025C38.2716 101.097 38.6029 101.097 38.9342 101.17C41.5184 101.459 43.9701 101.17 46.1568 100.446C48.3435 99.7228 50.1988 98.6377 51.7229 97.4802C52.1204 97.1908 52.4517 96.8291 52.7831 96.5397C52.9818 96.395 53.1144 96.2503 53.2469 96.1056C53.3794 95.9609 53.5119 95.8162 53.7107 95.6716C54.3071 95.0928 54.7709 94.4417 55.2348 93.863C55.3673 93.7183 55.4336 93.5736 55.5661 93.4289C55.6323 93.2842 55.7649 93.1395 55.8311 92.9948C55.9637 92.7055 56.1624 92.4884 56.295 92.2714C56.6263 91.8373 56.8251 91.3309 57.0239 91.0415C57.4214 90.3181 57.6202 89.9564 57.6202 89.9564C57.9515 89.3776 58.6142 89.1606 59.1443 89.45C59.5418 89.8117 59.7406 90.5351 59.4756 91.1139Z" fill="#0E80A4"/>
<path d="M96.9801 96.6844C96.5163 109.634 86.842 117.809 75.246 117.302C63.6501 116.796 54.5721 107.825 55.036 94.9482C55.4998 81.9986 65.5717 62.321 77.1676 62.8274C88.7636 63.3338 97.444 83.8072 96.9801 96.6844Z" fill="#0E80A4"/>
<path d="M89.2935 99.6504C89.0285 107.391 83.1974 112.311 76.3061 112.021C69.3485 111.732 63.915 106.378 64.18 98.6376C64.4451 90.8968 70.475 79.1047 77.4325 79.3941C84.3238 79.6111 89.5586 91.9096 89.2935 99.6504Z" fill="white"/>
<path d="M96.8476 46.6946C96.9138 44.9584 96.5825 43.3668 96.0524 41.7752C94.6609 34.0344 90.5526 27.8852 82.4686 26.0766C80.547 25.2808 75.9749 24.485 74.6496 21.1572C74.3846 20.6508 74.3183 20.1444 74.3183 19.9273C73.6557 20.1444 72.1979 20.7231 70.9389 22.0977C69.7462 23.3999 69.2824 24.8467 69.0836 25.4978C68.8185 25.3531 68.0896 25.0638 67.5595 24.268C66.8969 23.3275 66.8969 22.387 66.9632 22.0977C66.3668 22.6041 65.7042 23.3275 65.1078 24.268C64.0476 26.0766 63.8488 28.0299 63.9151 29.4768C60.5357 31.6471 58.6804 34.7579 57.6202 38.3751C56.1624 40.6177 55.301 43.0774 55.2347 45.7542C55.1685 47.9968 55.6323 50.0948 56.56 52.0481C57.4214 63.7678 64.7765 71.2916 77.2339 71.2916C90.5526 71.2916 96.3175 64.853 96.6488 49.9501C96.6488 49.5161 96.6488 49.082 96.6488 48.5756C96.7151 47.9968 96.7813 47.3457 96.8476 46.6946Z" fill="#0E80A4"/>
<path d="M57.0238 45.6095C56.8913 40.9071 58.8129 36.6388 62.0597 33.3833C60.602 32.3705 58.8791 31.7918 56.9575 31.8641C52.2529 32.0088 48.4759 35.9154 48.6085 40.6901C48.741 45.4648 52.6505 49.2267 57.4214 49.1543H57.4876C57.2226 48.0692 57.0238 46.8393 57.0238 45.6095Z" fill="#0E80A4"/>
<path d="M94.8598 30.996C93.0045 31.0684 91.2817 31.6471 89.8902 32.7323C93.3358 35.7707 95.4562 40.039 95.5887 44.7414C95.5887 45.9713 95.5225 47.1288 95.2574 48.2863C99.9621 48.1416 103.739 44.235 103.606 39.4603C103.474 34.6856 99.5645 30.9237 94.8598 30.996Z" fill="#0E80A4"/>
<path d="M99.4319 54.0014C99.6307 61.5976 90.5527 72.3045 76.7038 72.5939C62.855 72.9556 53.3794 63.1168 53.1806 55.5207C53.1144 51.9758 53.8432 47.6352 57.8853 47.0564C62.4574 46.4777 68.6861 49.1544 76.1075 49.0097C83.9927 48.7927 89.7575 45.0308 94.3959 45.6095C97.8416 46.1159 99.2994 50.6736 99.4319 54.0014Z" fill="#0E80A4"/>
<path d="M93.4019 54.6526C93.6007 61.8147 87.3058 70.4959 77.3664 70.713C67.427 70.93 59.0779 63.1169 58.8791 55.9548C58.7466 51.7588 60.1381 49.0098 65.0416 48.648C68.4872 48.3587 72.6618 48.5757 76.77 48.5034C80.4807 48.431 83.8601 47.997 86.7094 47.9246C91.6128 47.7076 93.2694 50.0949 93.4019 54.6526Z" fill="white"/>
<path d="M59.2106 53.7844C62.855 53.8568 71.8005 49.2991 76.0413 49.1544C80.3483 49.082 89.0287 51.6141 92.6732 51.3971C93.402 50.2395 89.2938 46.0436 89.4263 44.5244C89.8901 40.039 86.842 36.0601 82.7338 35.6984C79.9507 35.4814 77.3665 36.8559 75.8425 39.1709C74.1859 36.9282 71.5354 35.626 68.8186 36.0601C64.7104 36.7112 61.8611 40.7625 62.59 45.2478C62.7887 46.6947 58.4154 52.6992 59.2106 53.7844Z" fill="white"/>
<path d="M75.9748 51.1076C75.0471 51.18 74.2519 51.1076 73.5231 51.0353C73.7881 51.2523 74.6495 51.9757 75.9748 51.9034C77.3 51.8311 78.1614 51.1076 78.3602 50.8182C77.6976 50.9629 76.9025 51.1076 75.9748 51.1076Z" fill="#0E80A4"/>
<path d="M73.4568 45.5372C73.3243 47.2734 72.0653 48.5756 70.6738 48.4309C69.216 48.2862 68.2221 46.767 68.3546 45.1031C68.4872 43.3669 69.7461 42.0647 71.1377 42.2093C72.5292 42.354 73.5894 43.8009 73.4568 45.5372Z" fill="#0E80A4"/>
<path d="M71.0051 43.4392C70.9388 44.1626 70.4087 44.7414 69.8124 44.669C69.216 44.5967 68.7522 44.0179 68.8184 43.2222C68.8847 42.4987 69.4148 41.92 70.0112 41.9923C70.6075 42.0647 71.0051 42.7158 71.0051 43.4392Z" fill="white"/>
<path d="M84.3239 45.6818C84.1914 47.4181 82.9324 48.7203 81.5409 48.5756C80.0831 48.4309 79.0892 46.9117 79.2217 45.1754C79.3542 43.4392 80.6132 42.137 82.0047 42.2817C83.3962 42.4263 84.4564 43.9456 84.3239 45.6818Z" fill="#0E80A4"/>
<path d="M82.0711 43.2945C82.0048 44.0179 81.4747 44.5967 80.8784 44.5243C80.282 44.452 79.8182 43.8732 79.8844 43.0774C79.9507 42.354 80.4808 41.7753 81.0772 41.8476C81.6735 41.9199 82.1373 42.4987 82.0711 43.2945Z" fill="white"/>
<path d="M63.186 143.708C55.6983 133.435 56.4272 108.404 60.6018 105.004L64.0474 110.14C64.5113 111.515 63.9149 114.698 63.5173 117.881C62.8547 123.379 61.3969 130.975 67.6919 139.657L63.186 143.708Z" fill="#0E80A4"/>
<path d="M88.2333 142.985C95.721 132.712 94.9921 107.681 90.8176 104.281L87.3719 109.417C86.9081 110.791 87.5045 113.975 87.902 117.158C88.5647 122.656 90.0224 130.252 83.7275 138.933L88.2333 142.985Z" fill="#0E80A4"/>
<path d="M66.5657 56.8952C66.5657 56.8952 68.7523 62.8997 76.8363 62.8997C84.9204 62.755 85.6493 56.0994 85.6493 56.0994" stroke="#0E80A4" stroke-miterlimit="10"/>
<path d="M40.8556 28.7534C40.8556 27.9576 40.5243 27.2342 39.9942 26.7277C39.0666 25.7873 37.2775 24.9915 37.7413 23.3276C37.8738 22.8212 38.0726 22.3871 37.9401 21.8084C37.8076 21.3019 37.4762 21.0849 37.0124 21.0126C36.0185 20.8679 35.0908 21.6637 34.5607 22.5318C33.5668 24.1957 33.4342 26.6554 33.5668 27.0171C33.5005 26.9448 31.8439 25.8596 30.5849 26.0767C29.9886 26.149 29.2597 26.5831 29.0609 27.2342C28.8621 27.6682 29.0609 28.3917 29.326 28.7534C28.6633 28.8981 28.2658 29.7662 28.1332 30.4896C28.0007 31.4301 28.332 31.7918 28.7959 32.5153C28.2658 33.0217 28.332 34.4686 28.5971 35.1197C28.8621 35.6984 29.591 36.2048 30.1211 36.4942C31.4464 37.2176 32.6391 37.2176 34.2956 37.4347C35.6872 37.5794 38.669 36.6389 39.9942 35.7708C42.2472 34.0345 40.7894 29.2598 40.8556 28.7534Z" fill="#0E80A4"/>
<path d="M38.6027 34.6132C38.6027 34.6132 37.0124 36.1324 36.4161 36.6388C36.0185 36.9282 35.2233 37.7963 34.892 37.941C33.8318 38.3028 32.9704 38.8815 30.6512 37.7964C28.7959 36.9282 28.2658 34.6132 28.2658 34.6132L37.8076 33.8898L38.6027 34.6132Z" fill="#0E80A4"/>
<path d="M28.7296 35.843C28.7296 35.9877 28.9284 36.0601 28.9947 36.1324C29.0609 36.2771 29.1272 36.4218 29.2597 36.4941C29.3923 36.6388 29.3923 37.0005 31.0488 37.724C31.2476 37.7963 31.4464 37.8687 31.5789 37.941C31.9765 38.0857 32.1753 38.0857 32.6391 38.1581C33.0367 38.1581 33.368 38.1581 33.7656 38.0857C34.0969 38.0134 34.4945 37.941 34.7595 37.7963C34.8921 37.724 35.0246 37.6516 35.1571 37.5793C35.2234 37.507 35.2896 37.507 35.2896 37.4346C35.3559 37.2899 35.2896 36.9282 35.2234 36.7835C35.0908 36.3494 35.2234 36.2771 35.2896 36.4218C35.3559 36.5665 35.4884 36.7112 35.4884 36.8559C35.5547 37.0005 35.5547 37.1452 35.5547 37.3623C35.5547 37.4346 35.4884 37.5793 35.4884 37.5793C35.4222 37.6516 35.4222 37.724 35.3559 37.7963C35.2234 37.8687 35.0908 38.0134 34.9583 38.0857C34.627 38.2304 34.2957 38.3027 33.9644 38.3751C33.5668 38.4474 33.2355 38.5198 32.8379 38.5198C32.4403 38.5198 31.9765 38.3751 31.5789 38.2304C31.3801 38.1581 31.1814 38.0857 30.9826 38.0134C30.7838 37.941 30.585 37.8687 30.4525 37.724C30.1212 37.507 29.7898 37.2899 29.4585 37.0729C29.326 36.9282 29.1935 36.7835 29.061 36.7112C28.9284 36.5665 28.8622 36.4218 28.7959 36.2771C28.7296 36.1324 28.6634 35.9877 28.5971 35.843C28.5971 35.6984 28.6634 35.7707 28.7296 35.843Z" fill="white"/>
<path d="M33.3678 26.6554L33.5666 27.0894C33.5666 27.0894 33.169 26.9448 33.169 26.8724C33.1027 26.8724 32.8377 26.6554 32.7714 26.6554C32.1088 26.2937 31.7112 26.2213 31.645 26.2213C30.7836 26.0766 30.4522 26.149 30.2535 26.2213C29.6571 26.5107 29.4583 26.6554 29.392 26.8001C29.1933 27.0171 29.0607 27.3065 29.0607 27.4512C29.0607 27.6682 28.9945 27.9576 29.127 28.464C29.2595 28.8257 29.3258 28.898 29.392 28.9704C29.392 28.9704 29.4583 29.1151 29.8559 29.4044C30.1872 29.6215 30.3197 29.6938 30.386 29.7662C30.651 29.9109 30.9161 30.0555 31.1149 30.1279C31.3799 30.2002 32.1751 30.6343 33.5003 30.9237C33.7654 30.996 34.0304 30.996 34.2955 30.996C34.5605 30.996 34.8256 30.996 35.0244 30.9237C35.0906 30.9237 35.1569 30.8513 35.2231 30.8513C35.2894 30.8513 35.4882 30.779 35.6207 30.4896C35.687 30.4173 35.7532 30.2726 35.7532 30.1279C35.7532 29.9832 35.8195 29.9109 35.8195 29.7662C35.8195 29.5491 35.7532 29.3321 35.687 29.1151C35.6207 28.898 35.4882 28.7534 35.3557 28.6087C35.1569 28.3916 34.7593 28.1746 34.693 28.1746C34.6268 28.1023 34.3617 28.0299 34.2955 27.9576C34.2955 27.9576 33.6328 27.6682 33.5666 27.6682C33.4341 27.5958 33.3678 27.5958 33.3678 27.5958C33.0365 27.5235 33.0365 27.4512 33.3678 27.5235C33.3678 27.5235 33.6328 27.5958 34.4943 27.9576C34.5605 27.9576 34.6268 28.0299 34.693 28.0299C34.7593 28.1023 34.8256 28.1023 34.8918 28.1746C35.0244 28.2469 35.2231 28.3916 35.3557 28.5363C35.4882 28.681 35.6207 28.8257 35.7532 29.0427C35.8858 29.2598 35.952 29.4768 35.952 29.7662C35.952 29.9109 35.952 30.0555 35.8858 30.1279C35.8858 30.2726 35.8195 30.4173 35.7532 30.4896C35.4882 30.779 35.3557 30.8513 35.2894 30.8513C35.2231 30.8513 35.1569 30.9237 35.0906 30.9237C34.8256 30.996 34.5605 30.996 34.2955 30.996C34.0304 30.996 33.7654 30.9237 33.5003 30.9237C33.2353 30.8513 32.9702 30.779 32.7052 30.7066C32.6389 30.7066 31.91 30.4896 30.3197 29.7662C29.6571 29.3321 29.5246 29.2598 29.5246 29.1874L29.3258 28.9704C29.2595 28.8257 29.127 28.7534 29.0607 28.6087C29.0607 28.5363 28.9282 28.2469 28.9282 28.2469C28.9282 28.2469 28.8619 27.8852 28.8619 27.7405C28.8619 27.5958 28.8619 27.4512 28.8619 27.3065C28.8619 27.2341 28.9282 27.0171 28.9945 26.8724C29.0607 26.7277 29.127 26.6554 29.2595 26.5107C29.3258 26.4383 29.8559 25.8596 30.8498 25.7872C30.8498 25.7872 31.2474 25.7872 32.0425 26.0043C32.3739 26.149 32.6389 26.2213 32.904 26.366C32.904 26.4383 33.3678 26.6554 33.3678 26.6554Z" fill="white" stroke="white" stroke-width="0.25" stroke-miterlimit="10"/>
<path d="M29.1933 28.6086L29.2596 28.9704C29.2596 28.9704 29.0608 28.9704 28.862 29.1874C28.7295 29.3321 28.5969 29.4768 28.5307 29.6938C28.4644 29.8385 28.4644 29.9108 28.3981 30.0555C28.3319 30.2002 28.3319 30.3449 28.3319 30.4896C28.3319 30.5619 28.3319 30.6343 28.3319 30.7066C28.3319 30.779 28.3319 30.8513 28.3319 30.996C28.3319 31.1407 28.3981 31.3577 28.4644 31.5024C28.5307 31.6471 28.5969 31.8641 28.7295 32.0088C29.2596 32.5876 29.7897 32.8769 30.1872 33.0216C30.386 33.094 30.5848 33.1663 30.7836 33.2387C30.9161 33.2387 31.3137 33.311 31.38 33.3834C31.7775 33.4557 32.2414 33.528 32.6389 33.528C32.7052 33.528 33.2353 33.528 33.2353 33.528C33.4341 33.528 33.6329 33.528 33.8317 33.528C33.8979 33.528 34.6268 33.4557 34.6931 33.3834C34.7593 33.3834 35.0244 33.311 35.422 33.094C35.5545 33.0216 35.687 32.8769 35.7533 32.7323C35.8195 32.6599 35.8195 32.5876 35.8858 32.5152C35.9521 32.3705 36.0183 32.0088 36.0183 31.8641C36.0183 31.7194 36.0183 31.5747 35.9521 31.5024C35.9521 31.3577 35.8858 31.2854 35.8195 31.213C35.7533 31.1407 35.7533 31.0683 35.687 30.996C35.422 30.8513 35.2894 30.8513 35.2894 30.8513C35.3557 30.8513 35.422 30.779 35.422 30.779C35.422 30.779 35.5545 30.779 35.7533 30.9237C35.8195 30.996 35.8858 31.0683 35.9521 31.1407C36.0846 31.3577 36.0846 31.5747 36.0846 31.8641C36.0846 32.0088 36.0846 32.2982 35.9521 32.5876C35.9521 32.6599 35.8858 32.7323 35.8195 32.8046C35.7533 32.9493 35.6208 33.094 35.422 33.1663C34.9581 33.4557 34.7593 33.4557 34.6268 33.4557C34.5606 33.4557 34.3618 33.528 34.3618 33.528C34.2955 33.528 33.8317 33.6004 33.7654 33.6004C33.5666 33.6004 33.3678 33.6004 33.169 33.6727H32.5727C32.1751 33.6727 31.7113 33.6004 31.3137 33.528C31.1812 33.528 30.7836 33.4557 30.6511 33.3834C30.4523 33.311 30.2535 33.2387 30.0547 33.1663C28.5307 32.5152 28.5969 32.2982 28.4644 32.0812C28.3319 31.9365 28.2656 31.7194 28.1994 31.5024C28.1331 31.2854 28.0668 31.0683 28.0668 30.9237C28.0668 30.8513 28.0668 30.7066 28.0668 30.6343C28.0668 30.5619 28.0668 30.4172 28.0668 30.3449C28.1331 29.9832 28.1994 29.6215 28.3319 29.4044C28.4644 29.1151 28.5969 28.898 28.7295 28.7533C28.9282 28.6086 29.1933 28.6086 29.1933 28.6086Z" fill="white" stroke="white" stroke-width="0.25" stroke-miterlimit="10"/>
<path d="M28.2659 34.3239C28.2659 34.4685 28.3984 34.6856 28.4647 34.9026C28.531 35.0473 28.5972 35.2643 28.7298 35.409C28.8623 35.5537 28.8623 36.0601 30.7176 36.8559C30.9164 36.9282 31.1152 37.0006 31.314 37.0006C31.7778 37.0729 32.1091 37.1453 32.6392 37.1453C33.1031 37.1453 33.5669 37.0729 33.9645 36.9282C34.3621 36.7836 34.8259 36.6389 35.1572 36.4218C35.356 36.2771 35.4885 36.2048 35.6873 36.0601C35.7536 35.9878 35.8198 35.9154 35.8861 35.8431C36.0186 35.6261 36.0186 35.1196 36.0186 34.975C36.0186 34.7579 35.9524 34.6132 35.8198 34.4685C35.6211 34.0345 35.2897 33.9621 34.6934 33.8174C34.5609 33.8174 34.4946 33.8174 34.3621 33.7451C34.1633 33.7451 34.0308 33.7451 33.8982 33.7451C33.7657 33.7451 33.5669 33.7451 33.5669 33.7451C33.5669 33.7451 33.7657 33.6728 33.8982 33.6728C34.0308 33.6728 34.1633 33.6728 34.3621 33.6728C34.4946 33.6728 34.5609 33.6728 34.6934 33.6728C34.7596 33.6728 35.1572 33.7451 35.2897 33.8174C35.6211 33.9621 35.7536 34.1792 35.8198 34.3239C35.8861 34.4685 35.9524 34.6856 36.0186 34.9026C36.0186 35.1196 36.0186 35.3367 36.0186 35.5537C36.0186 35.6984 35.9524 35.8431 35.8861 35.8431C35.8198 35.9154 35.7536 36.0601 35.6873 36.1325C35.5548 36.2771 35.356 36.4218 35.1572 36.5665C34.7596 36.7836 34.3621 37.0006 33.8982 37.1453C33.4344 37.29 32.9706 37.3623 32.5067 37.3623C32.0429 37.3623 31.579 37.3623 31.1152 37.2176C30.9164 37.1453 30.6514 37.0729 30.4526 37.0006C30.2538 36.9282 30.055 36.8559 29.8562 36.7112C29.4586 36.4942 29.1273 36.2771 28.796 35.9878C28.6635 35.8431 28.531 35.6984 28.3984 35.5537C28.2659 35.409 28.1997 35.192 28.1334 35.0473C28.0671 34.9026 28.0009 34.6856 28.0009 34.5409C28.1334 34.2515 28.1997 34.1792 28.2659 34.3239Z" fill="white" stroke="white" stroke-width="0.25" stroke-miterlimit="10"/>
</g>
<path d="M83.7937 69.2661L82.9323 74.1131C91.2814 75.9217 98.3715 81.4199 103.01 89.45C107.648 97.5526 109.239 107.391 107.516 117.085L111.955 118.026C113.943 107.102 112.154 95.961 106.853 86.7733C101.486 77.5856 93.3355 71.364 83.7937 69.2661Z" fill="#0E80A4"/>
<path d="M67.2946 76.6451C57.8853 75.6322 49.4037 70.5681 43.44 62.2486C37.4764 54.0014 34.7597 43.5115 35.6873 32.7322L40.0607 33.1663C39.2655 42.7157 41.651 51.9757 46.952 59.2825C52.1867 66.5892 59.5418 71.0022 67.7584 71.8703L67.2946 76.6451Z" fill="#0E80A4"/>
<path d="M59.4756 91.1139C59.4756 91.1139 59.2768 91.4756 58.9455 92.2714C58.7467 92.6331 58.6142 93.0672 58.2166 93.646C58.0841 93.9353 57.8853 94.2247 57.6865 94.5141C57.6202 94.6588 57.4877 94.8035 57.4214 95.0205C57.2889 95.1652 57.2226 95.3099 57.0901 95.5269C56.6263 96.178 56.0962 96.9014 55.4336 97.5525C55.301 97.6972 55.1022 97.9143 54.9697 98.0589C54.8372 98.276 54.6384 98.4207 54.4396 98.5653C54.042 98.9271 53.6445 99.2888 53.2469 99.6505C51.5903 101.025 49.4699 102.327 47.0182 103.268C44.5665 104.136 41.7172 104.642 38.7354 104.353C38.3378 104.281 38.0065 104.281 37.6089 104.208C37.2114 104.136 36.88 104.063 36.4825 103.991C35.6873 103.846 34.9584 103.629 34.2295 103.34C34.0308 103.268 33.832 103.195 33.6332 103.123L33.1031 102.906C32.7055 102.761 32.3742 102.617 31.9766 102.4L31.7116 102.255L31.3803 102.11L30.8502 101.821C30.5188 101.604 30.1875 101.459 29.79 101.17C29.3924 100.88 29.0611 100.663 28.6635 100.374C28.3322 100.085 28.0009 99.7952 27.6696 99.5058C27.537 99.3611 27.3382 99.2164 27.2057 99.0718L26.7419 98.5653C26.4768 98.2036 26.0793 97.9143 25.8142 97.5525C25.5492 97.1908 25.2841 96.8291 24.9528 96.4674C24.6877 96.1057 24.489 95.6716 24.2239 95.3099C23.9589 94.9481 23.7601 94.5141 23.5613 94.08L23.23 93.4289C23.0974 93.2119 23.0312 92.9949 22.9649 92.7778C22.236 91.0416 21.7722 89.0883 21.5734 87.135C21.3746 85.1817 21.3746 83.1561 21.7722 81.2751C21.8384 80.7687 21.971 80.3347 22.1035 79.8282C22.236 79.3218 22.3023 78.8878 22.5011 78.3814L23.0312 77.0792L23.6275 75.777C23.8263 75.3429 24.1576 74.9088 24.4227 74.4024C24.6877 73.9684 25.0191 73.6067 25.2841 73.1726C25.5492 72.8109 25.9467 72.4491 26.278 72.0874C26.6094 71.7257 27.0069 71.4363 27.3382 71.0746C30.2538 68.5426 33.9645 67.3851 37.5427 67.7468L38.2053 67.8191L38.8679 67.9638C39.3318 68.0362 39.7293 68.1085 40.1269 68.2532L40.7233 68.4702L41.0546 68.5426L41.3859 68.6873L41.9823 68.9766L42.3136 69.1213L42.4461 69.1937H42.5124C42.5124 69.1937 42.7111 69.3384 42.6449 69.266H42.7111L43.175 69.5554C43.3738 69.6277 43.5063 69.7001 43.7051 69.8448L44.3014 70.2788C44.5002 70.4235 44.699 70.5682 44.8315 70.7129C45.4942 71.2916 46.1568 71.9427 46.6869 72.6662C48.9398 75.4876 49.8675 79.1771 49.6025 82.4326C49.4699 84.0965 49.1386 85.6158 48.5423 86.9903V87.0627L48.4097 87.2073L48.3435 87.2797L48.2772 87.4967C48.2109 87.6414 48.1447 87.7861 48.0784 87.8584C48.0784 87.9308 48.0122 88.0031 47.9459 88.0755L47.8134 88.3648C47.6808 88.5095 47.6146 88.7266 47.482 88.8713C47.2833 89.233 47.0845 89.45 46.8194 89.7394C46.6206 90.0288 46.3556 90.2458 46.1568 90.5352C45.2291 91.4756 44.1689 92.1991 43.175 92.7055C42.6449 92.9949 42.181 93.1395 41.6509 93.2842C41.1208 93.4289 40.657 93.5736 40.1932 93.5736C38.3378 93.7906 36.88 93.5013 35.9524 93.2119C35.4885 93.0672 35.091 92.9225 34.8922 92.7778C34.6271 92.7055 34.5609 92.6331 34.5609 92.6331C33.3019 92.0544 32.6392 90.4628 33.1693 89.0883C33.6994 87.7137 35.1572 86.9903 36.4162 87.5691L36.615 87.6414C36.615 87.6414 36.6813 87.6414 36.8138 87.7137C36.9463 87.7861 37.1451 87.8584 37.3439 87.9308C37.8077 88.1478 38.6029 88.2925 39.5968 88.2202C40.5907 88.1478 41.7835 87.7137 42.8437 86.7009C42.9762 86.5562 43.1087 86.4116 43.2412 86.2669C43.3738 86.1222 43.5063 85.9775 43.5726 85.8328C43.6388 85.7605 43.6388 85.6881 43.7051 85.6158L43.7713 85.5434C43.7713 85.5434 43.8376 85.4711 43.8376 85.3987C43.9039 85.254 43.9701 85.1094 44.0364 85.037L44.1689 84.82L44.2352 84.7476C44.2352 84.82 44.3014 84.6029 44.1689 84.82V84.7476C44.5665 83.8795 44.7653 82.939 44.8978 81.9262C45.0966 79.9006 44.5665 77.5132 43.175 75.7046C42.8437 75.1982 42.4461 74.8365 41.9823 74.4024C41.8497 74.2578 41.7835 74.1854 41.6509 74.1131L41.3196 73.896C41.2534 73.8237 41.0546 73.679 40.9221 73.6067L40.5907 73.462C40.3257 73.3173 40.0606 73.2449 39.7956 73.1002L39.5968 73.0279L39.398 72.9556L38.9342 72.7385C38.6691 72.5938 38.3378 72.5938 38.0065 72.5215L37.5427 72.4491L37.0788 72.3768C34.5609 72.0874 31.7778 72.8109 29.6574 74.6195C29.3924 74.8365 29.1273 75.0535 28.8623 75.3429C28.5972 75.6323 28.3322 75.8493 28.1334 76.1387C27.9346 76.4281 27.6696 76.7175 27.4708 77.0068C27.272 77.2962 27.1395 77.5132 26.9407 77.875L26.4106 78.9601L26.013 80.0453C25.8805 80.407 25.7479 80.7687 25.6817 81.1304C25.4829 81.4198 25.4166 81.7815 25.3504 82.1433C25.0191 83.6625 24.9528 85.254 25.0853 86.8456C25.2178 88.4372 25.5492 89.9564 26.0793 91.4033C26.1455 91.548 26.2118 91.765 26.278 91.9097L26.5431 92.4161C26.7419 92.7778 26.8744 93.1395 27.0732 93.4289C27.272 93.7906 27.4708 94.08 27.6696 94.3694C27.8683 94.6588 28.1334 94.9481 28.3322 95.3099C28.531 95.5992 28.796 95.8886 29.0611 96.178L29.3924 96.6121C29.5249 96.7568 29.6574 96.8291 29.79 96.9738C30.055 97.1908 30.3201 97.4802 30.5851 97.6972C30.8502 97.9143 31.1152 98.1313 31.3803 98.276C31.6453 98.493 31.9766 98.71 32.3079 98.8547L32.7718 99.1441L32.9043 99.2164L32.9706 99.2888C33.0368 99.3611 32.9043 99.2888 32.9043 99.2888L33.1693 99.4335C33.5007 99.5782 33.832 99.7229 34.097 99.8675L34.5609 100.085C34.6934 100.157 34.8922 100.229 35.0247 100.229C35.6873 100.446 36.2837 100.736 36.9463 100.808C37.2776 100.88 37.6089 100.953 37.9402 101.025C38.2716 101.097 38.6029 101.097 38.9342 101.17C41.5184 101.459 43.9701 101.17 46.1568 100.446C48.3435 99.7229 50.1988 98.6377 51.7229 97.4802C52.1204 97.1908 52.4517 96.8291 52.7831 96.5397C52.9818 96.395 53.1144 96.2503 53.2469 96.1057C53.3794 95.961 53.5119 95.8163 53.7107 95.6716C54.3071 95.0928 54.7709 94.4417 55.2348 93.863C55.3673 93.7183 55.4336 93.5736 55.5661 93.4289C55.6323 93.2842 55.7649 93.1395 55.8311 92.9949C55.9637 92.7055 56.1624 92.4885 56.295 92.2714C56.6263 91.8374 56.8251 91.3309 57.0239 91.0416C57.4214 90.3181 57.6202 89.9564 57.6202 89.9564C57.9515 89.3777 58.6142 89.1606 59.1443 89.45C59.5418 89.8117 59.7406 90.5352 59.4756 91.1139Z" fill="#0E80A4"/>
<path d="M96.8476 46.6947C96.9138 44.9584 96.5825 43.3668 96.0524 41.7753C94.6609 34.0345 90.5526 27.8852 82.4686 26.0766C80.547 25.2808 75.9749 24.485 74.6496 21.1572C74.3846 20.6508 74.3183 20.1444 74.3183 19.9274C73.6557 20.1444 72.1979 20.7232 70.9389 22.0977C69.7462 23.3999 69.2824 24.8468 69.0836 25.4979C68.8185 25.3532 68.0896 25.0638 67.5595 24.268C66.8969 23.3275 66.8969 22.3871 66.9632 22.0977C66.3668 22.6041 65.7042 23.3275 65.1078 24.268C64.0476 26.0766 63.8488 28.0299 63.9151 29.4768C60.5357 31.6471 58.6804 34.7579 57.6202 38.3751C56.1624 40.6178 55.301 43.0775 55.2347 45.7542C55.1685 47.9969 55.6323 50.0948 56.56 52.0481C57.4214 63.7679 64.7765 71.2917 77.2339 71.2917C90.5526 71.2917 96.3175 64.853 96.6488 49.9502C96.6488 49.5161 96.6488 49.082 96.6488 48.5756C96.7151 47.9969 96.7813 47.3458 96.8476 46.6947Z" fill="#0E80A4"/>
<path d="M57.0238 45.6095C56.8913 40.9072 58.8129 36.6389 62.0597 33.3834C60.602 32.3706 58.8791 31.7918 56.9575 31.8641C52.2529 32.0088 48.4759 35.9154 48.6085 40.6901C48.741 45.4648 52.6505 49.2267 57.4214 49.1544H57.4876C57.2226 48.0692 57.0238 46.8394 57.0238 45.6095Z" fill="#0E80A4"/>
<path d="M94.8598 30.9961C93.0045 31.0684 91.2817 31.6472 89.8902 32.7323C93.3358 35.7708 95.4562 40.0391 95.5887 44.7414C95.5887 45.9713 95.5225 47.1288 95.2574 48.2863C99.9621 48.1416 103.739 44.235 103.606 39.4603C103.474 34.6856 99.5645 30.9237 94.8598 30.9961Z" fill="#0E80A4"/>
<path d="M99.4319 54.0015C99.6307 61.5976 90.5527 72.3045 76.7038 72.5939C62.855 72.9556 53.3794 63.1168 53.1806 55.5207C53.1144 51.9758 53.8432 47.6352 57.8853 47.0564C62.4574 46.4777 68.6861 49.1544 76.1075 49.0097C83.9927 48.7927 89.7575 45.0308 94.3959 45.6096C97.8416 46.116 99.2994 50.6736 99.4319 54.0015Z" fill="#0E80A4"/>
<path d="M93.4019 54.6526C93.6007 61.8147 87.3058 70.496 77.3664 70.713C67.427 70.93 59.0779 63.1169 58.8791 55.9548C58.7466 51.7589 60.1381 49.0098 65.0416 48.6481C68.4872 48.3587 72.6618 48.5757 76.77 48.5034C80.4807 48.431 83.8601 47.997 86.7094 47.9246C91.6128 47.7076 93.2694 50.095 93.4019 54.6526Z" fill="white"/>
<path d="M59.2106 53.7844C62.855 53.8568 71.8005 49.2991 76.0413 49.1544C80.3483 49.0821 89.0287 51.6141 92.6732 51.3971C93.402 50.2396 89.2938 46.0436 89.4263 44.5244C89.8901 40.0391 86.842 36.0601 82.7338 35.6984C79.9507 35.4814 77.3665 36.8559 75.8425 39.1709C74.1859 36.9283 71.5354 35.6261 68.8186 36.0601C64.7104 36.7112 61.8611 40.7625 62.59 45.2478C62.7887 46.6947 58.4154 52.6993 59.2106 53.7844Z" fill="white"/>
<path d="M75.9748 51.1076C75.0471 51.18 74.2519 51.1076 73.5231 51.0353C73.7881 51.2523 74.6495 51.9758 75.9748 51.9034C77.3 51.8311 78.1614 51.1076 78.3602 50.8183C77.6976 50.963 76.9025 51.1076 75.9748 51.1076Z" fill="#0E80A4"/>
<path d="M73.4568 45.5372C73.3243 47.2735 72.0653 48.5757 70.6738 48.431C69.216 48.2863 68.2221 46.7671 68.3546 45.1031C68.4872 43.3669 69.7461 42.0647 71.1377 42.2094C72.5292 42.3541 73.5894 43.8009 73.4568 45.5372Z" fill="#0E80A4"/>
<path d="M71.0051 43.4392C70.9388 44.1627 70.4087 44.7414 69.8124 44.6691C69.216 44.5967 68.7522 44.018 68.8184 43.2222C68.8847 42.4987 69.4148 41.92 70.0112 41.9923C70.6075 42.0647 71.0051 42.7158 71.0051 43.4392Z" fill="white"/>
<path d="M84.3239 45.6819C84.1914 47.4181 82.9324 48.7203 81.5409 48.5756C80.0831 48.4309 79.0892 46.9117 79.2217 45.1755C79.3542 43.4392 80.6132 42.137 82.0047 42.2817C83.3962 42.4264 84.4564 43.9456 84.3239 45.6819Z" fill="#0E80A4"/>
<path d="M82.0711 43.2945C82.0048 44.0179 81.4747 44.5967 80.8784 44.5244C80.282 44.452 79.8182 43.8733 79.8844 43.0775C79.9507 42.354 80.4808 41.7753 81.0772 41.8476C81.6735 41.92 82.1373 42.4987 82.0711 43.2945Z" fill="white"/>
<path d="M66.5657 56.8952C66.5657 56.8952 68.7523 62.8998 76.8363 62.8998C84.9204 62.7551 85.6493 56.0994 85.6493 56.0994" stroke="#0E80A4" stroke-miterlimit="10"/>
<path d="M40.8556 28.7534C40.8556 27.9576 40.5243 27.2342 39.9942 26.7278C39.0666 25.7873 37.2775 24.9915 37.7413 23.3276C37.8738 22.8212 38.0726 22.3871 37.9401 21.8084C37.8076 21.302 37.4762 21.0849 37.0124 21.0126C36.0185 20.8679 35.0908 21.6637 34.5607 22.5318C33.5668 24.1957 33.4342 26.6554 33.5668 27.0172C33.5005 26.9448 31.8439 25.8596 30.5849 26.0767C29.9886 26.149 29.2597 26.5831 29.0609 27.2342C28.8621 27.6683 29.0609 28.3917 29.326 28.7534C28.6633 28.8981 28.2658 29.7662 28.1332 30.4897C28.0007 31.4301 28.332 31.7919 28.7959 32.5153C28.2658 33.0217 28.332 34.4686 28.5971 35.1197C28.8621 35.6984 29.591 36.2048 30.1211 36.4942C31.4464 37.2177 32.6391 37.2177 34.2956 37.4347C35.6872 37.5794 38.669 36.6389 39.9942 35.7708C42.2472 34.0345 40.7894 29.2598 40.8556 28.7534Z" fill="#0E80A4"/>
<path d="M38.6027 34.6132C38.6027 34.6132 37.0124 36.1325 36.4161 36.6389C36.0185 36.9283 35.2233 37.7964 34.892 37.9411C33.8318 38.3028 32.9704 38.8815 30.6512 37.7964C28.7959 36.9283 28.2658 34.6132 28.2658 34.6132L37.8076 33.8898L38.6027 34.6132Z" fill="#0E80A4"/>
<path d="M28.7296 35.8431C28.7296 35.9878 28.9284 36.0601 28.9947 36.1324C29.0609 36.2771 29.1272 36.4218 29.2597 36.4942C29.3923 36.6389 29.3923 37.0006 31.0488 37.724C31.2476 37.7964 31.4464 37.8687 31.5789 37.941C31.9765 38.0857 32.1753 38.0857 32.6391 38.1581C33.0367 38.1581 33.368 38.1581 33.7656 38.0857C34.0969 38.0134 34.4945 37.941 34.7595 37.7964C34.8921 37.724 35.0246 37.6517 35.1571 37.5793C35.2234 37.507 35.2896 37.507 35.2896 37.4346C35.3559 37.29 35.2896 36.9282 35.2234 36.7835C35.0908 36.3495 35.2234 36.2771 35.2896 36.4218C35.3559 36.5665 35.4884 36.7112 35.4884 36.8559C35.5547 37.0006 35.5547 37.1453 35.5547 37.3623C35.5547 37.4346 35.4884 37.5793 35.4884 37.5793C35.4222 37.6517 35.4222 37.724 35.3559 37.7964C35.2234 37.8687 35.0908 38.0134 34.9583 38.0857C34.627 38.2304 34.2957 38.3028 33.9644 38.3751C33.5668 38.4475 33.2355 38.5198 32.8379 38.5198C32.4403 38.5198 31.9765 38.3751 31.5789 38.2304C31.3801 38.1581 31.1814 38.0857 30.9826 38.0134C30.7838 37.941 30.585 37.8687 30.4525 37.724C30.1212 37.507 29.7898 37.29 29.4585 37.0729C29.326 36.9282 29.1935 36.7835 29.061 36.7112C28.9284 36.5665 28.8622 36.4218 28.7959 36.2771C28.7296 36.1324 28.6634 35.9878 28.5971 35.8431C28.5971 35.6984 28.6634 35.7707 28.7296 35.8431Z" fill="white"/>
<path d="M33.3678 26.6554L33.5666 27.0895C33.5666 27.0895 33.169 26.9448 33.169 26.8724C33.1027 26.8724 32.8377 26.6554 32.7714 26.6554C32.1088 26.2937 31.7112 26.2213 31.645 26.2213C30.7836 26.0767 30.4522 26.149 30.2535 26.2213C29.6571 26.5107 29.4583 26.6554 29.392 26.8001C29.1933 27.0171 29.0607 27.3065 29.0607 27.4512C29.0607 27.6682 28.9945 27.9576 29.127 28.464C29.2595 28.8257 29.3258 28.8981 29.392 28.9704C29.392 28.9704 29.4583 29.1151 29.8559 29.4045C30.1872 29.6215 30.3197 29.6939 30.386 29.7662C30.651 29.9109 30.9161 30.0556 31.1149 30.1279C31.3799 30.2003 32.1751 30.6343 33.5003 30.9237C33.7654 30.996 34.0304 30.996 34.2955 30.996C34.5605 30.996 34.8256 30.996 35.0244 30.9237C35.0906 30.9237 35.1569 30.8514 35.2231 30.8514C35.2894 30.8514 35.4882 30.779 35.6207 30.4896C35.687 30.4173 35.7532 30.2726 35.7532 30.1279C35.7532 29.9832 35.8195 29.9109 35.8195 29.7662C35.8195 29.5492 35.7532 29.3321 35.687 29.1151C35.6207 28.8981 35.4882 28.7534 35.3557 28.6087C35.1569 28.3917 34.7593 28.1746 34.693 28.1746C34.6268 28.1023 34.3617 28.0299 34.2955 27.9576C34.2955 27.9576 33.6328 27.6682 33.5666 27.6682C33.4341 27.5959 33.3678 27.5959 33.3678 27.5959C33.0365 27.5235 33.0365 27.4512 33.3678 27.5235C33.3678 27.5235 33.6328 27.5959 34.4943 27.9576C34.5605 27.9576 34.6268 28.0299 34.693 28.0299C34.7593 28.1023 34.8256 28.1023 34.8918 28.1746C35.0244 28.247 35.2231 28.3917 35.3557 28.5364C35.4882 28.681 35.6207 28.8257 35.7532 29.0428C35.8858 29.2598 35.952 29.4768 35.952 29.7662C35.952 29.9109 35.952 30.0556 35.8858 30.1279C35.8858 30.2726 35.8195 30.4173 35.7532 30.4896C35.4882 30.779 35.3557 30.8514 35.2894 30.8514C35.2231 30.8514 35.1569 30.9237 35.0906 30.9237C34.8256 30.996 34.5605 30.996 34.2955 30.996C34.0304 30.996 33.7654 30.9237 33.5003 30.9237C33.2353 30.8514 32.9702 30.779 32.7052 30.7067C32.6389 30.7067 31.91 30.4896 30.3197 29.7662C29.6571 29.3321 29.5246 29.2598 29.5246 29.1874L29.3258 28.9704C29.2595 28.8257 29.127 28.7534 29.0607 28.6087C29.0607 28.5364 28.9282 28.247 28.9282 28.247C28.9282 28.247 28.8619 27.8853 28.8619 27.7406C28.8619 27.5959 28.8619 27.4512 28.8619 27.3065C28.8619 27.2342 28.9282 27.0171 28.9945 26.8724C29.0607 26.7278 29.127 26.6554 29.2595 26.5107C29.3258 26.4384 29.8559 25.8596 30.8498 25.7873C30.8498 25.7873 31.2474 25.7873 32.0425 26.0043C32.3739 26.149 32.6389 26.2213 32.904 26.366C32.904 26.4384 33.3678 26.6554 33.3678 26.6554Z" fill="white" stroke="white" stroke-width="0.25" stroke-miterlimit="10"/>
<path d="M29.1933 28.6087L29.2596 28.9704C29.2596 28.9704 29.0608 28.9704 28.862 29.1874C28.7295 29.3321 28.5969 29.4768 28.5307 29.6938C28.4644 29.8385 28.4644 29.9109 28.3981 30.0555C28.3319 30.2002 28.3319 30.3449 28.3319 30.4896C28.3319 30.5619 28.3319 30.6343 28.3319 30.7066C28.3319 30.779 28.3319 30.8513 28.3319 30.996C28.3319 31.1407 28.3981 31.3577 28.4644 31.5024C28.5307 31.6471 28.5969 31.8641 28.7295 32.0088C29.2596 32.5876 29.7897 32.877 30.1872 33.0216C30.386 33.094 30.5848 33.1663 30.7836 33.2387C30.9161 33.2387 31.3137 33.311 31.38 33.3834C31.7775 33.4557 32.2414 33.5281 32.6389 33.5281C32.7052 33.5281 33.2353 33.5281 33.2353 33.5281C33.4341 33.5281 33.6329 33.5281 33.8317 33.5281C33.8979 33.5281 34.6268 33.4557 34.6931 33.3834C34.7593 33.3834 35.0244 33.311 35.422 33.094C35.5545 33.0216 35.687 32.877 35.7533 32.7323C35.8195 32.6599 35.8195 32.5876 35.8858 32.5152C35.9521 32.3705 36.0183 32.0088 36.0183 31.8641C36.0183 31.7195 36.0183 31.5748 35.9521 31.5024C35.9521 31.3577 35.8858 31.2854 35.8195 31.213C35.7533 31.1407 35.7533 31.0684 35.687 30.996C35.422 30.8513 35.2894 30.8513 35.2894 30.8513C35.3557 30.8513 35.422 30.779 35.422 30.779C35.422 30.779 35.5545 30.779 35.7533 30.9237C35.8195 30.996 35.8858 31.0684 35.9521 31.1407C36.0846 31.3577 36.0846 31.5748 36.0846 31.8641C36.0846 32.0088 36.0846 32.2982 35.9521 32.5876C35.9521 32.6599 35.8858 32.7323 35.8195 32.8046C35.7533 32.9493 35.6208 33.094 35.422 33.1663C34.9581 33.4557 34.7593 33.4557 34.6268 33.4557C34.5606 33.4557 34.3618 33.5281 34.3618 33.5281C34.2955 33.5281 33.8317 33.6004 33.7654 33.6004C33.5666 33.6004 33.3678 33.6004 33.169 33.6727H32.5727C32.1751 33.6727 31.7113 33.6004 31.3137 33.5281C31.1812 33.5281 30.7836 33.4557 30.6511 33.3834C30.4523 33.311 30.2535 33.2387 30.0547 33.1663C28.5307 32.5152 28.5969 32.2982 28.4644 32.0812C28.3319 31.9365 28.2656 31.7195 28.1994 31.5024C28.1331 31.2854 28.0668 31.0684 28.0668 30.9237C28.0668 30.8513 28.0668 30.7066 28.0668 30.6343C28.0668 30.5619 28.0668 30.4173 28.0668 30.3449C28.1331 29.9832 28.1994 29.6215 28.3319 29.4044C28.4644 29.1151 28.5969 28.898 28.7295 28.7533C28.9282 28.6087 29.1933 28.6087 29.1933 28.6087Z" fill="white" stroke="white" stroke-width="0.25" stroke-miterlimit="10"/>
<path d="M28.2659 34.3239C28.2659 34.4686 28.3984 34.6856 28.4647 34.9026C28.531 35.0473 28.5972 35.2644 28.7298 35.409C28.8623 35.5537 28.8623 36.0601 30.7176 36.8559C30.9164 36.9283 31.1152 37.0006 31.314 37.0006C31.7778 37.073 32.1091 37.1453 32.6392 37.1453C33.1031 37.1453 33.5669 37.073 33.9645 36.9283C34.3621 36.7836 34.8259 36.6389 35.1572 36.4219C35.356 36.2772 35.4885 36.2048 35.6873 36.0601C35.7536 35.9878 35.8198 35.9155 35.8861 35.8431C36.0186 35.6261 36.0186 35.1197 36.0186 34.975C36.0186 34.758 35.9524 34.6133 35.8198 34.4686C35.6211 34.0345 35.2897 33.9622 34.6934 33.8175C34.5609 33.8175 34.4946 33.8175 34.3621 33.7451C34.1633 33.7451 34.0308 33.7451 33.8982 33.7451C33.7657 33.7451 33.5669 33.7451 33.5669 33.7451C33.5669 33.7451 33.7657 33.6728 33.8982 33.6728C34.0308 33.6728 34.1633 33.6728 34.3621 33.6728C34.4946 33.6728 34.5609 33.6728 34.6934 33.6728C34.7596 33.6728 35.1572 33.7451 35.2897 33.8175C35.6211 33.9622 35.7536 34.1792 35.8198 34.3239C35.8861 34.4686 35.9524 34.6856 36.0186 34.9026C36.0186 35.1197 36.0186 35.3367 36.0186 35.5537C36.0186 35.6984 35.9524 35.8431 35.8861 35.8431C35.8198 35.9155 35.7536 36.0601 35.6873 36.1325C35.5548 36.2772 35.356 36.4219 35.1572 36.5666C34.7596 36.7836 34.3621 37.0006 33.8982 37.1453C33.4344 37.29 32.9706 37.3623 32.5067 37.3623C32.0429 37.3623 31.579 37.3623 31.1152 37.2177C30.9164 37.1453 30.6514 37.073 30.4526 37.0006C30.2538 36.9283 30.055 36.8559 29.8562 36.7112C29.4586 36.4942 29.1273 36.2772 28.796 35.9878C28.6635 35.8431 28.531 35.6984 28.3984 35.5537C28.2659 35.409 28.1997 35.192 28.1334 35.0473C28.0671 34.9026 28.0009 34.6856 28.0009 34.5409C28.1334 34.2515 28.1997 34.1792 28.2659 34.3239Z" fill="white" stroke="white" stroke-width="0.25" stroke-miterlimit="10"/>
</svg>
