<svg width="18" height="18" viewBox="0 0 18 18" fill="none" xmlns="http://www.w3.org/2000/svg">
<path fill-rule="evenodd" clip-rule="evenodd" d="M12.6122 1.29184H5.38807C2.87057 1.29184 1.29224 3.07434 1.29224 5.59684V12.4035C1.29224 14.926 2.86224 16.7085 5.38807 16.7085H12.6114C15.1372 16.7085 16.7089 14.926 16.7089 12.4035V5.59684C16.7089 3.07434 15.1372 1.29184 12.6122 1.29184Z" stroke="#979797" stroke-linecap="round" stroke-linejoin="round"/>
<path d="M5.26738 9.99785C4.71654 9.99785 4.26904 9.55035 4.26904 9.00035C4.26904 8.45035 4.71654 8.00201 5.26738 8.00201C5.81821 8.00201 6.26571 8.45035 6.26571 9.00035C6.26571 9.55035 5.81821 9.99785 5.26738 9.99785" fill="#979797"/>
<path d="M9.00016 9.99785C8.44933 9.99785 8.00183 9.55035 8.00183 9.00035C8.00183 8.45035 8.44933 8.00201 9.00016 8.00201C9.551 8.00201 9.9985 8.45035 9.9985 9.00035C9.9985 9.55035 9.551 9.99785 9.00016 9.99785" fill="#979797"/>
<path d="M12.7327 9.99785C12.1819 9.99785 11.7344 9.55035 11.7344 9.00035C11.7344 8.45035 12.1819 8.00201 12.7327 8.00201C13.2835 8.00201 13.731 8.45035 13.731 9.00035C13.731 9.55035 13.2835 9.99785 12.7327 9.99785" fill="#979797"/>
</svg>
