<svg width="29" height="29" viewBox="0 0 29 29" fill="none" xmlns="http://www.w3.org/2000/svg">
<circle cx="14.5" cy="14.5" r="14" stroke="#CFCFCF"/>
<path d="M22.185 10.8025C21.6775 11.02 21.0975 11.165 20.5175 11.2375C21.0975 10.875 21.605 10.295 21.8225 9.64249C21.2425 10.005 20.6625 10.2225 19.9375 10.3675C19.43 9.78749 18.6325 9.42499 17.835 9.42499C16.24 9.42499 14.935 10.73 14.935 12.325C14.935 12.5425 14.935 12.76 15.0075 12.9775C12.615 12.8325 10.44 11.6725 8.98997 9.93249C8.77247 10.3675 8.62747 10.875 8.62747 11.3825C8.62747 12.3975 9.13497 13.2675 9.93247 13.775C9.42497 13.775 8.98997 13.63 8.62747 13.4125C8.62747 14.79 9.64247 16.0225 10.9475 16.24C10.73 16.3125 10.44 16.3125 10.15 16.3125C9.93248 16.3125 9.78747 16.3125 9.56997 16.24C9.93247 17.4 11.02 18.27 12.325 18.27C11.31 19.0675 10.0775 19.5025 8.69998 19.5025C8.48248 19.5025 8.26498 19.5025 7.97498 19.43C9.27998 20.2275 10.8025 20.735 12.47 20.735C17.835 20.735 20.735 16.3125 20.735 12.47V12.1075C21.315 11.89 21.8225 11.3825 22.185 10.8025Z" fill="#CFCFCF"/>
</svg>
