<svg width="55" height="56" fill="none" xmlns="http://www.w3.org/2000/svg"><path d="M54.5 28c0 15.196-12.097 27.5-27 27.5S.5 43.196.5 28 12.597.5 27.5.5s27 12.304 27 27.5z" fill="#F2929E" stroke="#fff"/><path d="M27.02 9.457c-.688 0-1.383.04-2.062.121-4.47.524-8.576 2.28-11.56 4.93a18.22 18.22 0 00-2.311 2.49c-1.6 2.087-2.74 4.238-3.403 6.398a20.94 20.94 0 00-.897 5.986c0 4.052 1.374 8.387 3.686 11.602 3.063 4.27 7.55 7.066 12.626 7.863 1.681.266 3.064.387 4.341.387 1.512 0 2.87-.17 4.171-.524 2.651-.725 5.093-1.853 7.049-3.279a20.18 20.18 0 003.29-2.989 18.426 18.426 0 002.32-3.368c.808-1.498 1.43-2.997 1.794-4.342.388-1.426.615-2.812.68-4.11.193-4.382-.865-8.508-3.072-11.94a19.243 19.243 0 00-2.053-2.659c-3.824-4.108-9.28-6.566-14.6-6.566zm-.081 27.337c-.518 0-1.043-.04-1.56-.12-1.9-.299-3.581-1.346-4.73-2.95a7.518 7.518 0 01-.896-1.716 7.688 7.688 0 01-.494-2.642c0-.161.008-.314.017-.476.008-.064.008-.137.016-.201.008-.089.016-.177.032-.266.016-.105.024-.21.049-.314a8.15 8.15 0 01.226-1c.25-.805.679-1.619 1.285-2.408.25-.33.55-.653.865-.927 1.116-.999 2.668-1.651 4.357-1.853.25-.032.51-.048.768-.048 1.997 0 4.05.926 5.489 2.473.275.298.533.637.768 1 .824 1.288 1.228 2.843 1.148 4.495a7.335 7.335 0 01-.251 1.539 7.916 7.916 0 01-.679 1.636c-.242.459-.55.894-.865 1.256a7.83 7.83 0 01-1.237 1.12c-.735.532-1.657.96-2.66 1.233a5.216 5.216 0 01-.339.08 10.02 10.02 0 01-1.31.09zm.08-29.125c5.813 0 11.762 2.674 15.917 7.146a20.783 20.783 0 012.247 2.909c2.41 3.746 3.565 8.234 3.355 12.987-.065 1.426-.315 2.933-.744 4.488-.404 1.474-1.075 3.102-1.948 4.713-.72 1.338-1.6 2.61-2.546 3.69a22.456 22.456 0 01-3.59 3.263c-2.133 1.547-4.769 2.78-7.63 3.553-1.455.395-2.975.589-4.64.589-1.374 0-2.846-.13-4.624-.411-5.553-.87-10.452-3.924-13.798-8.589C6.504 38.502 5 33.773 5 29.366c0-2.135.348-4.448.978-6.51.72-2.369 1.964-4.706 3.694-6.961.76-.991 1.617-1.91 2.547-2.74 3.25-2.876 7.695-4.786 12.53-5.35a19.422 19.422 0 012.27-.136zm.93 27.272c.065-.016.113-.024.17-.04.8-.218 1.52-.548 2.077-.959.348-.258.68-.548.946-.854.235-.266.453-.588.639-.935.242-.443.428-.886.525-1.256.113-.411.178-.798.194-1.153.057-1.28-.242-2.473-.873-3.456a5.457 5.457 0 00-.574-.741c-1.107-1.193-2.667-1.902-4.17-1.902-.187 0-.373.008-.559.033-1.325.153-2.53.66-3.379 1.41a5.011 5.011 0 00-.63.676c-.477.62-.808 1.241-.994 1.845-.073.226-.13.484-.178.766-.016.072-.024.16-.033.25l-.024.2c-.008.057-.008.114-.016.162a4.556 4.556 0 00-.016.355c0 .652.13 1.353.38 2.022.186.491.404.926.67 1.297.874 1.209 2.135 1.998 3.558 2.224.428.064.856.104 1.277.104.331.017.67-.008 1.01-.048z" fill="#DBD7D6"/><path d="M8.46 22.823c.695-2.288 1.9-4.399 3.346-6.292a17.594 17.594 0 012.272-2.441c3.136-2.788 7.227-4.359 11.373-4.842 6.104-.725 12.239 1.893 16.378 6.34a18.572 18.572 0 012.013 2.61c2.239 3.481 3.2 7.63 3.015 11.748-.065 1.361-.307 2.715-.663 4.028-.396 1.459-1.051 2.941-1.77 4.27a18.21 18.21 0 01-2.28 3.304 20.029 20.029 0 01-3.242 2.94c-2.053 1.491-4.494 2.563-6.943 3.223-2.773.758-5.57.572-8.375.13-5.02-.79-9.45-3.618-12.4-7.727-2.28-3.183-3.621-7.477-3.621-11.4.008-1.95.323-4.03.897-5.89zm12.36 10.418c1.18 1.644 2.95 2.772 4.955 3.086 1.123.177 2.239.25 3.346-.048.979-.266 1.957-.693 2.773-1.29a7.777 7.777 0 001.293-1.176c.348-.403.655-.854.914-1.321.283-.532.55-1.12.703-1.708a7.216 7.216 0 00.267-1.612c.073-1.643-.307-3.295-1.205-4.689a6.76 6.76 0 00-.808-1.04c-1.649-1.78-4.106-2.819-6.54-2.537-1.657.193-3.29.822-4.543 1.934-.33.29-.638.628-.905.974-.582.758-1.059 1.604-1.334 2.514a8.3 8.3 0 00-.355 2.353c-.008 1.579.533 3.295 1.439 4.56z" fill="#E7A576" stroke="#BB7B5D" stroke-miterlimit="10" stroke-linecap="round" stroke-linejoin="round"/><path opacity=".3" d="M8.775 22.92c.639-2.087 1.746-4.166 3.298-6.188a17.423 17.423 0 012.223-2.401c2.886-2.562 6.855-4.254 11.188-4.762a18.02 18.02 0 011.98-.112c2.377 0 4.786.507 7.049 1.45-5.31-.895-10.484-.403-13.305.548-6.419 2.167-10.897 8.032-11.568 14.559-.226 2.183-.154 5.204.202 7.38.364 2.191 1.366 4.205 2.465 6.107.93 1.62 2.159 3.85 3.727 4.947a18.858 18.858 0 01-4.567-4.528C9.236 36.818 7.91 32.628 7.91 28.712c0-1.9.307-3.955.865-5.792z" fill="#A7A9AC"/><path d="M36.42 43.506c4.22-3.698 7.025-6.76 8.327-12.206.275-1.177 1.43-6.462 1.115-7.654.526 1.99.752 4.109.655 6.284-.057 1.249-.275 2.578-.655 3.956-.355 1.297-.954 2.747-1.738 4.197a18.064 18.064 0 01-2.239 3.247 19.219 19.219 0 01-3.185 2.893c-1.891 1.378-4.252 2.473-6.83 3.174-1.237.339-2.547.5-3.994.5-1.196 0-2.49-.113-4.058-.355 8.1-.765 10.687-2.368 12.603-4.036zM23.083 19.06c3.411-1.28 7.688-1.547 10.945.339 3.403 1.965 3.84 5.527 3.476 9.128-.21 2.055-.679 4.359-2.231 5.857-1.245 1.2-3.54 2.474-5.36 1.998a8.766 8.766 0 002.175-1.12 8.182 8.182 0 001.35-1.224c.356-.403.68-.878.954-1.378a8.802 8.802 0 00.735-1.772 7.646 7.646 0 00.275-1.684c.081-1.789-.355-3.48-1.26-4.883a7.494 7.494 0 00-.841-1.087c-1.569-1.684-3.8-2.691-5.982-2.691a7.55 7.55 0 00-.849.048c-1.827.218-3.5.935-4.729 2.014-.347.306-.67.653-.954 1.023-.654.855-1.123 1.733-1.39 2.619-.016.048-.024.097-.04.137-.825-.935-1.27-2.151-.825-3.424.687-1.918 2.724-3.223 4.551-3.9z" fill="#E7E5E5"/><path d="M9.025 31.396c.906-1.829 1.9-3.496 1.835-5.607-.048-1.539-.76-3.489.42-4.69 1.617-1.643 3.921-1.828 5.263-3.77.857-1.24 1.366-3.593 2.91-4.15 2.086-.748 5.473 1.306 7.494.508 1.374-.54 2.481-1.442 3.904-1.837 1.592-.45 3.516-.74 4.89.436 1.82 1.555.93 5.3 4.285 4.882 4.454-.548 5.133 3.779 4.494 7.243-.29 1.58-.727 3.013-.444 4.625.347 1.998.953 3.843.517 5.905-.469 2.224-1.932 3.916-4.018 4.802-1.398.597-2.74.734-3.661 2.047-1.035 1.458-1.536 3.198-3.21 4.133-1.85 1.031-3.864.33-5.698-.355-2.224-.821-4.382-1.297-6.726-1.651-1.948-.29-4.47-.572-5.675-2.353-.816-1.192-.436-2.82-1.301-3.956-1.027-1.345-3.169-1.41-4.575-2.183-1.811-.991-1.512-2.377-.704-4.029zm11.794 1.846c1.18 1.643 2.95 2.771 4.956 3.085 4.81.758 9.312-1.91 10.605-6.663.808-2.989-.493-5.752-2.61-7.904-.753-.757-1.658-1.426-2.733-1.627-.873-.17-1.754-.097-2.635-.105-1.245-.016-2.514-.233-3.751-.008-1.35.25-2.7.862-3.476 2.047-.639.966-.97 2.11-1.237 3.23-.267 1.112-.566 2.248-.566 3.4 0 1.563.534 3.28 1.447 4.545z" fill="#F599B5" stroke="#E381A1" stroke-miterlimit="10" stroke-linecap="round" stroke-linejoin="round"/><path opacity=".3" d="M41.877 18.634c-.897-.338-1.932-.25-2.805-.693a2.284 2.284 0 01-.849-.717c.34.193.768.314 1.302.314.17 0 .347-.008.525-.032a5.26 5.26 0 01.695-.04c1.108 0 1.973.37 2.579 1.095.3.363.542.814.711 1.338-.598-.604-1.616-1.064-2.158-1.265zm-10.985-6.011c-1.512.677-2.975 1.636-4.503 1.547a2.97 2.97 0 00.68-.17c.605-.24 1.163-.547 1.697-.837.72-.395 1.39-.765 2.166-.983.922-.258 1.657-.379 2.32-.379.816 0 1.487.186 2.029.572-1.471-.274-2.975-.378-4.39.25zM19.518 23.652c.517-1.41 1.018-3.03 2.635-3.505a6.205 6.205 0 011.52-.233c-.986.314-2.07.886-2.78 1.966-.664 1.007-.93 2.207-1.213 3.36-.291 1.152-.639 2.247-.639 3.448 0 1.66.566 3.432 1.512 4.745 1.26 1.749 3.096 2.893 5.173 3.223a10.532 10.532 0 002.328.105c-2.239.556-4.801.04-6.628-1.33-2.183-1.627-3.953-4.72-3.581-7.517.21-1.555 1.131-2.82 1.673-4.262zM9.066 32.121c.113.806.412 1.555 1.027 2.014 1.447 1.072 3.621 1.523 4.373 3.159-.72-.846-1.827-1.185-2.894-1.515-.614-.193-1.204-.37-1.681-.637-1.342-.74-1.383-1.692-.825-3.02zm29.44 7.549c.784-.757 1.932-.83 2.837-1.386.8-.491 1.722-1.088 2.353-1.805-.671 1.314-1.787 2.337-3.25 2.965-.34.145-.679.266-1.01.379-.623.218-1.229.427-1.77.79.258-.339.55-.653.84-.943z" fill="#A7A9AC"/><path d="M31.918 40.056c-.453-.225-1.358-.725-1.73-1.071" stroke="#8AD1CB" stroke-miterlimit="10" stroke-linecap="round" stroke-linejoin="round"/><path d="M24.934 39.823c.25-.444.792-1.314 1.156-1.676" stroke="#E7E3DE" stroke-miterlimit="10" stroke-linecap="round" stroke-linejoin="round"/><path d="M27.262 42.28c.25-.443.792-1.313 1.156-1.675m7.041-21.472c-.501.065-1.536.145-2.037.073M15.97 27.512c-.51.008-1.545-.016-2.03-.153" stroke="#F37C89" stroke-miterlimit="10" stroke-linecap="round" stroke-linejoin="round"/><path d="M18.467 24.08c-.46.217-1.414.604-1.915.685" stroke="#E7E3DE" stroke-miterlimit="10" stroke-linecap="round" stroke-linejoin="round"/><path d="M18.888 21.502c-.057-.5-.138-1.53-.057-2.03" stroke="#8AD1CB" stroke-miterlimit="10" stroke-linecap="round" stroke-linejoin="round"/><path d="M38.41 35.094c-.308.403-.97 1.192-1.375 1.498m-3.136 2.281c-.049-.508-.097-1.53 0-2.03" stroke="#F37C89" stroke-miterlimit="10" stroke-linecap="round" stroke-linejoin="round"/><path d="M39.42 21.97c-.493.112-1.512.29-2.021.265" stroke="#F7CE6D" stroke-miterlimit="10" stroke-linecap="round" stroke-linejoin="round"/><path d="M38.765 26.329c-.13.491-.445 1.466-.712 1.901" stroke="#E7E3DE" stroke-miterlimit="10" stroke-linecap="round" stroke-linejoin="round"/><path d="M38.385 32.177c-.477.169-1.463.475-1.972.507" stroke="#8AD1CB" stroke-miterlimit="10" stroke-linecap="round" stroke-linejoin="round"/><path d="M22.541 37.592c-.509.008-1.544-.024-2.029-.153" stroke="#F7CE6D" stroke-miterlimit="10" stroke-linecap="round" stroke-linejoin="round"/><path d="M20.076 34.53c-.396.314-1.229.926-1.698 1.12" stroke="#8AD1CB" stroke-miterlimit="10" stroke-linecap="round" stroke-linejoin="round"/><path d="M15.711 30.993c.234.452.679 1.378.784 1.878m25.14-2.756c-.502-.096-1.504-.338-1.957-.564" stroke="#F7CE6D" stroke-miterlimit="10" stroke-linecap="round" stroke-linejoin="round"/><path d="M20.625 15.613c0 .588.477 1.063 1.067 1.063a1.064 1.064 0 100-2.127c-.59 0-1.067.476-1.067 1.064z" fill="#7C615B"/><path d="M21.62 15.081c0 .21.17.379.38.379a.379.379 0 100-.758.38.38 0 00-.38.379z" fill="#F1F2F2"/><path d="M31.498 15.613c0 .588.477 1.063 1.067 1.063a1.064 1.064 0 100-2.127c-.59 0-1.067.476-1.067 1.064z" fill="#7C615B"/><path d="M32.493 15.08c0 .21.17.38.38.38a.379.379 0 100-.758.38.38 0 00-.38.379z" fill="#F1F2F2"/><path d="M26.325 16.17a1.026 1.026 0 002.053 0" stroke="#7C615B" stroke-miterlimit="10" stroke-linecap="round" stroke-linejoin="round"/><path d="M11.289 22.832c-.008.024.032.032.049.048.056.04.105.097.145.153.032.048.048.097.073.145.008.024.016.056.032.08.016.033.032.073.057.017.016-.032.016-.073.032-.113a.63.63 0 01.089-.161c.024-.04.065-.073.097-.105.024-.024.097-.056.048-.097a.658.658 0 01-.153-.145.998.998 0 01-.081-.16c-.016-.033-.024-.146-.057-.146-.04 0-.056.113-.072.137-.025.049-.04.097-.065.137-.024.04-.04.073-.073.105-.024.024-.113.088-.121.105zm2.304-1.322c-.008.056.073.072.105.097.105.088.21.193.283.306.056.096.105.193.145.29.025.056.04.113.057.169.024.073.073.145.121.04.033-.072.04-.153.073-.217.048-.113.105-.226.17-.33.056-.081.121-.154.194-.218.048-.048.202-.121.097-.201-.113-.09-.227-.178-.307-.299a2.03 2.03 0 01-.17-.322c-.033-.064-.049-.298-.113-.298-.073 0-.122.226-.146.282-.04.097-.089.193-.137.282a.821.821 0 01-.154.217c-.032.049-.21.162-.218.202zm-.76 3.182c-.008.056.073.072.105.096.105.089.21.194.283.315.057.096.105.193.146.29.024.056.04.112.056.169.025.072.073.145.122.04.032-.072.04-.153.072-.217a2.55 2.55 0 01.17-.33 1.25 1.25 0 01.194-.218c.057-.049.202-.121.097-.202a1.348 1.348 0 01-.307-.298 2.037 2.037 0 01-.17-.322c-.024-.065-.048-.298-.113-.298-.073 0-.121.225-.146.282a3.03 3.03 0 01-.137.282.819.819 0 01-.153.217c-.033.032-.21.153-.219.194zM36.93 37.817c-.008.032.049.049.065.065a.878.878 0 01.186.201c.04.065.064.129.097.194.016.032.024.072.04.112.016.049.049.097.08.024.025-.048.025-.096.05-.145.032-.072.064-.145.113-.217.04-.056.08-.097.129-.145.032-.032.13-.08.065-.13a1.15 1.15 0 01-.203-.192 1.73 1.73 0 01-.113-.21c-.016-.04-.032-.193-.08-.193-.049 0-.081.145-.098.185l-.088.185a.91.91 0 01-.097.145c-.017.017-.138.089-.146.121 0-.008 0 0 0 0zm2.304-1.37c-.008.048.065.064.089.088.097.073.186.17.25.274.049.08.09.17.13.258l.048.145c.025.065.065.13.105.032.025-.064.033-.129.065-.193a1.43 1.43 0 01.154-.29c.048-.073.113-.129.17-.193.048-.049.177-.105.088-.178-.097-.08-.202-.16-.266-.266a1.857 1.857 0 01-.146-.282c-.024-.056-.04-.257-.105-.257s-.105.201-.13.25c-.04.08-.072.169-.12.25a1.054 1.054 0 01-.13.193c-.032.024-.194.129-.202.169 0-.008 0 0 0 0zm-2.87 5.093c-.008.048.065.064.09.088.096.072.185.17.25.274.048.08.089.169.13.258l.048.145c.024.064.064.129.105.032.024-.065.032-.129.064-.194.04-.096.09-.2.154-.29.049-.072.105-.128.17-.193.048-.04.178-.105.089-.177-.097-.08-.202-.161-.275-.266a1.866 1.866 0 01-.146-.282c-.024-.056-.04-.266-.105-.266-.064 0-.105.202-.13.25-.04.08-.072.17-.12.25a.975.975 0 01-.13.193c-.024.032-.186.137-.194.177 0-.008 0 0 0 0zm2.596-1.274c-.009.073.096.097.137.129.137.113.283.258.371.41.073.122.138.25.194.388.033.072.049.145.073.217.033.097.097.194.162.049.04-.097.048-.194.097-.29.065-.146.13-.299.226-.428.073-.104.162-.201.259-.29.073-.064.267-.153.13-.266a1.876 1.876 0 01-.405-.394 2.579 2.579 0 01-.218-.42c-.04-.08-.065-.394-.154-.394-.097 0-.161.298-.194.37-.056.121-.113.25-.178.371-.064.113-.105.194-.202.29-.048.049-.283.202-.299.258 0-.008 0 0 0 0zm-3.04-19.57c-.008.048.064.064.089.088.097.073.186.17.25.274.049.081.097.17.13.258l.048.145c.024.065.065.13.105.033.024-.065.032-.13.065-.194a1.263 1.263 0 01.323-.483c.049-.049.178-.105.09-.178-.098-.08-.203-.16-.276-.265a1.866 1.866 0 01-.145-.282c-.024-.057-.04-.266-.105-.266s-.105.201-.13.25c-.04.08-.072.169-.12.25a1.01 1.01 0 01-.13.193c-.033.04-.186.145-.194.177zm2.586-1.264c-.008.072.097.096.138.129.137.112.283.257.372.41.072.121.137.25.194.387.032.073.048.145.072.218.033.096.097.193.162.048.04-.097.048-.201.089-.29.065-.145.137-.298.226-.427a1.77 1.77 0 01.259-.29c.073-.065.267-.153.13-.266-.146-.12-.3-.242-.405-.395-.089-.129-.153-.274-.218-.419-.04-.08-.065-.394-.154-.394-.097 0-.161.298-.194.37-.056.121-.113.25-.178.37-.064.114-.105.194-.202.29-.032.05-.274.202-.29.259.007-.008.007-.008 0 0z" fill="#F1F2F2"/><path d="M27.465 8.789c-.687 0-1.382.04-2.061.12-4.47.524-8.577 2.28-11.56 4.931a18.213 18.213 0 00-2.312 2.49c-1.6 2.087-2.74 4.238-3.403 6.397a20.94 20.94 0 00-.897 5.986c0 4.053 1.374 8.387 3.686 11.602 3.064 4.279 7.55 7.066 12.626 7.864 1.682.266 3.064.386 4.341.386 1.504 0 2.87-.169 4.171-.523 2.652-.725 5.093-1.853 7.05-3.28a20.17 20.17 0 003.29-2.989 18.422 18.422 0 002.32-3.367c.807-1.499 1.43-2.997 1.794-4.343a19.46 19.46 0 00.679-4.109c.194-4.383-.865-8.508-3.072-11.94a19.892 19.892 0 00-2.053-2.659c-3.816-4.109-9.28-6.566-14.6-6.566zm-.08 27.337c-.518 0-1.044-.04-1.561-.121-1.9-.298-3.581-1.346-4.729-2.949a7.524 7.524 0 01-.897-1.716 7.688 7.688 0 01-.493-2.643c0-.153.008-.314.016-.475.008-.065.008-.137.016-.202.008-.088.016-.177.032-.265.017-.105.025-.21.04-.315a8.15 8.15 0 01.227-.999c.25-.813.68-1.62 1.285-2.409.251-.33.55-.652.865-.926 1.116-1 2.668-1.652 4.357-1.853a5.92 5.92 0 01.768-.049c1.997 0 4.05.927 5.489 2.474.275.298.534.636.768.999.825 1.289 1.229 2.844 1.148 4.496a7.333 7.333 0 01-.25 1.538 7.921 7.921 0 01-.68 1.636c-.25.46-.55.894-.865 1.257a7.8 7.8 0 01-1.236 1.12c-.736.532-1.658.959-2.66 1.233a5.135 5.135 0 01-.34.08c-.42.056-.856.089-1.3.089zM27.464 7c5.812 0 11.761 2.675 15.924 7.146a20.777 20.777 0 012.248 2.909c2.4 3.747 3.556 8.234 3.346 12.98-.064 1.426-.315 2.94-.735 4.495-.404 1.475-1.075 3.102-1.948 4.714a20.243 20.243 0 01-2.547 3.69 22.456 22.456 0 01-3.589 3.263c-2.134 1.547-4.77 2.78-7.63 3.553-1.456.395-2.975.588-4.64.588-1.375 0-2.846-.129-4.624-.41-5.554-.871-10.452-3.925-13.799-8.59-2.514-3.504-4.018-8.234-4.018-12.64 0-2.136.348-4.448.979-6.51.727-2.37 1.964-4.706 3.694-6.962.76-.99 1.617-1.91 2.546-2.74 3.242-2.876 7.696-4.785 12.53-5.357A21.32 21.32 0 0127.464 7zm.93 27.273c.064-.017.113-.025.17-.04.8-.218 1.519-.549 2.077-.96a6.02 6.02 0 00.945-.854 5.01 5.01 0 00.64-.934c.242-.443.428-.886.525-1.257.113-.41.177-.798.194-1.144.056-1.281-.243-2.474-.873-3.456a5.457 5.457 0 00-.574-.742c-1.108-1.192-2.668-1.901-4.171-1.901a4.35 4.35 0 00-.558.032c-1.326.153-2.53.66-3.371 1.41a5.01 5.01 0 00-.63.677c-.477.62-.809 1.24-.995 1.845-.073.225-.13.483-.178.765-.008.073-.024.161-.032.25l-.024.202c-.008.056-.008.112-.017.16a4.558 4.558 0 00-.016.355c0 .653.13 1.354.38 2.022.178.492.404.927.671 1.298.873 1.208 2.134 1.998 3.557 2.223.428.065.857.105 1.277.105.323.008.663-.016 1.003-.056z" fill="#F1F2F2"/></svg>