<svg width="56" height="56" fill="none" xmlns="http://www.w3.org/2000/svg"><circle cx="28" cy="28" r="27.5" fill="#B3A2CE" stroke="#fff"/><g clip-path="url(#clip0)"><path opacity=".64" d="M24.418 47.932l-.271-.068h-.011a1.04 1.04 0 01-.147-.045 3.12 3.12 0 01-.531-.227c-.701-.374-1.266-.964-1.661-1.747-.08.023-.159.046-.226.057a3.53 3.53 0 01-.678.102c-.294.023-.577 0-.848-.057a3.01 3.01 0 01-1.412-.692c-.08-.068-.147-.136-.226-.204a3.935 3.935 0 01-.283-.329c-1.378-1.815-.361-4.038.192-5.15l-.44.17a4.658 4.658 0 01-2.396.16c-1.152-.227-2.056-.897-2.542-1.872a4.224 4.224 0 01-.305-.873 3.12 3.12 0 01-.068-.556 4.133 4.133 0 01.248-1.588c-.87-.5-1.446-1.27-1.627-2.223-.022-.125-.045-.25-.045-.375a2.998 2.998 0 01.011-.635c.159-1.452 1.266-2.745 2.825-3.3.249-.091.498-.16.757-.227-.78-.375-1.525-.851-2.135-1.509-.814-.873-1.187-1.985-1.017-3.051.158-1.021.768-1.872 1.74-2.416a3.924 3.924 0 011.31-.454 3.63 3.63 0 01.227-1.656c.576-1.531 2.034-2.257 3.796-1.905a6.017 6.017 0 011.594.59c.553.306 1.05.669 1.514 1.054-.09-.42-.159-.85-.226-1.27-.136-.84-.531-3.38 1.197-4.65.192-.148.418-.262.644-.364a3.76 3.76 0 011.323-.26 4.015 4.015 0 012.113.567c.203.124.395.26.576.408.079.068.17.147.248.227.181-.204.373-.386.577-.545.192-.159.395-.295.61-.408a3.866 3.866 0 011.232-.42 3.693 3.693 0 011.276.012 3.308 3.308 0 011.164.465c.802.521 1.39 1.383 1.65 2.404.802-.6 1.785-.85 2.723-.669.791.159 1.458.601 1.944 1.282.146.215.305.465.418.76a3.426 3.426 0 011.514-.023c.43.09.836.25 1.22.488a3.502 3.502 0 011.616 2.325c.248 1.214-.09 2.677-.893 3.834.769-.09 1.447-.068 2.045.045.678.136 1.255.409 1.707.806.226.204.429.43.587.692.17.283.305.6.384.941a3.24 3.24 0 010 1.61 2.758 2.758 0 01-.203.556c.056.069.113.125.158.193.34.454.543.987.61 1.588.034.318.023.636-.033.93v.012a2.54 2.54 0 01-.34.896c-.723 1.259-2.214 1.735-3.491 1.996.384.318.7.68.938 1.078.113.193.215.408.294.624.406 1.145.214 2.404-.543 3.46-.124.17-.26.34-.407.487-.452.476-.994.84-1.582 1.066a3.508 3.508 0 01-.576 1.588 3.537 3.537 0 01-2.135 1.452 3.944 3.944 0 01-.904.113 4.796 4.796 0 01-1.062-.09c-.147-.034-.306-.069-.452-.114.158 1.44-.362 2.95-1.842 3.664a3.2 3.2 0 01-2.045.272c-.023 0-.046-.011-.068-.011a3.28 3.28 0 01-1.91 1.01 3.404 3.404 0 01-1.175-.023c-1.13-.227-1.977-.987-2.531-1.838a4.568 4.568 0 01-.802.987c-.814.783-1.853 1.089-2.893.873z" fill="#A3B0B2"/><path d="M23.288 46.798l-.271-.068h-.011a1.076 1.076 0 01-.147-.045 3.113 3.113 0 01-.531-.227c-.7-.374-1.266-.964-1.661-1.747-.08.023-.159.045-.226.057a3.61 3.61 0 01-.678.102c-.294.023-.577 0-.848-.057a3.009 3.009 0 01-1.412-.692c-.08-.068-.147-.136-.226-.204-.102-.102-.192-.215-.283-.329-1.378-1.815-.361-4.038.192-5.15l-.44.17a4.66 4.66 0 01-2.396.16c-1.152-.227-2.056-.897-2.542-1.872a4.224 4.224 0 01-.305-.873 3.112 3.112 0 01-.068-.556 4.132 4.132 0 01.249-1.588c-.87-.5-1.447-1.27-1.627-2.223a2.117 2.117 0 01-.046-.375 3 3 0 01.012-.635c.158-1.452 1.265-2.745 2.825-3.3a7.88 7.88 0 01.757-.227c-.78-.375-1.526-.851-2.136-1.51-.814-.873-1.186-1.984-1.017-3.05.158-1.021.768-1.872 1.74-2.416a3.92 3.92 0 011.31-.454 3.63 3.63 0 01.227-1.656c.576-1.531 2.034-2.257 3.797-1.906a6.018 6.018 0 011.593.59 9.73 9.73 0 011.514 1.055c-.09-.42-.158-.85-.226-1.27-.136-.84-.531-3.38 1.198-4.65.192-.148.418-.262.644-.364.395-.159.836-.25 1.322-.26a4.013 4.013 0 012.113.567c.203.124.395.26.576.408.079.068.17.147.248.227.181-.204.373-.386.577-.545.192-.159.395-.295.61-.408.384-.204.79-.352 1.232-.42a3.71 3.71 0 011.276.011 3.308 3.308 0 011.164.465c.802.522 1.39 1.384 1.65 2.405.802-.601 1.785-.85 2.723-.669.791.159 1.458.601 1.944 1.282.147.215.305.465.418.76a3.427 3.427 0 011.514-.023c.43.09.836.25 1.22.488a3.502 3.502 0 011.616 2.325c.249 1.214-.09 2.677-.893 3.834.769-.09 1.447-.068 2.046.045.678.136 1.254.409 1.706.805.226.205.43.432.587.692.17.284.305.602.384.942a3.24 3.24 0 010 1.61 2.76 2.76 0 01-.203.556c.057.068.113.125.158.193.34.454.543.987.61 1.588.034.318.023.635-.033.93v.012c-.057.317-.17.623-.34.896-.722 1.259-2.214 1.735-3.49 1.996.383.318.7.68.937 1.078.113.192.215.408.294.623.406 1.146.214 2.405-.543 3.46-.124.17-.26.34-.406.488-.452.476-.995.84-1.582 1.066a3.508 3.508 0 01-.577 1.588 3.537 3.537 0 01-2.135 1.452 3.95 3.95 0 01-.904.113 4.803 4.803 0 01-1.062-.09c-.147-.035-.305-.069-.452-.114.158 1.44-.362 2.95-1.842 3.664a3.199 3.199 0 01-2.045.272c-.023 0-.046-.011-.068-.011a3.279 3.279 0 01-1.91 1.01 3.404 3.404 0 01-1.175-.024c-1.13-.226-1.977-.986-2.53-1.837a4.565 4.565 0 01-.803.987c-.814.782-1.853 1.089-2.893.873z" fill="#fff"/><path d="M40.068 17.023c-1.198-.737-2.396-.181-3.334.692.26-.771.271-1.6-.237-2.303-.746-1.032-2.068-.907-2.904-.068-.655.658-.972 1.61-1.333 2.45a84.268 84.268 0 00-1.47 3.641c-.7 1.86-1.4 3.743-2.022 5.638-.101.294-.192.59-.294.884-.18.295.283.658.588.386.192-.17.395-.34.599-.488 3.344-2.53 8.203-3.13 10.7-6.703.848-1.214 1.187-3.21-.293-4.129z" fill="#73004E"/><path d="M34.95 41.297c-.679-1.815-2.114-3.517-3.154-5.139-1.062-1.644-2.09-3.312-3.186-4.945a18.49 18.49 0 00-.52-.76.247.247 0 00-.056-.09c-.011-.012-.023-.035-.034-.046-.26-.375-.814 0-.576.385.011.012.022.034.034.046l-.068.6c-.192 1.827-.226 3.665-.17 5.502.057 2.02-.056 4.39.543 6.34.361 1.169 1.378 2.405 2.734 2.19.825-.125 1.424-.76 1.503-1.52.52.556 1.322.76 2.102.386 1.118-.522 1.243-1.906.847-2.95z" fill="#E29C40"/><path d="M26.768 28.592a.4.4 0 00-.101-.26c-.215-.216-.43-.454-.633-.681-2.644-3.108-3.944-7.6-7.627-9.664-1.085-.612-2.791-.896-3.334.567-.429 1.157.204 2.155.882 3.097-.96-.545-2.046-.806-3.074-.227-1.288.726-1.322 2.189-.373 3.21 1.424 1.508 3.83 1.905 5.74 2.382 2.419.601 4.837 1.214 7.266 1.792.249.057.509.125.757.181.034.012.08.023.113.023.113.023.203 0 .26-.057.124-.079.17-.238.124-.363z" fill="#CF4A57"/><path d="M16.735 19.462c.18.16.463.205.655.046a.355.355 0 00.102-.125c.192-.17.27-.465.113-.703a.598.598 0 00-.543-.25.556.556 0 00-.474.42.566.566 0 00.147.612zm.825 1.622c-.272.34-.068.93.406.907a.312.312 0 00.147-.034c.283-.079.509-.396.396-.703-.136-.385-.678-.51-.95-.17zm2.18-.954a.552.552 0 000-.192.49.49 0 00-.271-.488c-.43-.204-.915.261-.723.704.09.204.294.351.52.34.214 0 .429-.148.474-.363zm.927 1.68c.045-.34-.328-.612-.644-.487-.317.124-.396.59-.136.805a.39.39 0 00.362.08.493.493 0 00.418-.398zm-6.701-.023c-.294-.215-.768.012-.746.386.023.397.543.635.814.295a.373.373 0 00.079-.182c.056-.17.023-.385-.147-.499zm1.854.533c-.193.318.056.851.474.727a.337.337 0 00.192-.137c.158-.113.26-.329.17-.533-.17-.34-.645-.374-.837-.056zm-.566.772c-.158-.08-.327-.023-.452.08a.406.406 0 00-.135.442c.09.272.463.374.678.181a.433.433 0 00-.09-.703zm3.536 2.495a.437.437 0 00-.451.08.406.406 0 00-.136.442c.09.272.463.374.678.181.226-.181.17-.578-.09-.703zm-1.547-2.212c-.26.114-.43.534-.215.738a.45.45 0 00.125.125c.282.192.712.022.757-.318.056-.363-.317-.703-.667-.545zm-.915 1.611a.474.474 0 00-.125.17c-.01.012-.01.023-.022.034-.147.318.056.703.407.726.361.023.655-.317.542-.67-.09-.328-.52-.498-.802-.26zM13.05 23.24c-.316.08-.474.476-.27.737a.38.38 0 00.339.148c.214.034.452-.091.508-.318.102-.352-.226-.647-.576-.567zm1.571 1.213c-.248.034-.44.306-.293.544.056.091.17.16.282.182a.39.39 0 00.249-.057.315.315 0 00.147-.17c.101-.25-.102-.545-.385-.5zm5.029-1.395a.387.387 0 00-.418-.239.431.431 0 00-.34.295c-.112.34.25.67.577.533.158-.068.271-.25.215-.42a.38.38 0 00-.034-.17zm2.361.624a.402.402 0 00-.034-.16.387.387 0 00-.418-.237.431.431 0 00-.339.295c-.113.34.249.669.577.533.158-.08.27-.261.214-.431zm-1.48 1.043c-.26-.114-.542.022-.655.272-.124.26.011.613.294.692.124.034.27 0 .372-.09a.485.485 0 00.26-.239c.113-.238-.034-.522-.27-.635zm2.271.477c-.282.023-.463.352-.316.59a.371.371 0 00.124.17c.238.181.588.023.644-.261.057-.272-.192-.522-.452-.5zm-1.48 1.191a.382.382 0 00-.18.295c-.08.159-.023.34.101.453.271.25.757.08.802-.294.046-.375-.384-.681-.723-.454zm2.858.522a.418.418 0 00-.293.703s0 .011.011.011a.43.43 0 00.724-.068c.146-.295-.102-.658-.441-.646zm3.854 5.545a.367.367 0 00.271.205.343.343 0 00.407-.295c.023-.215-.136-.43-.373-.43a.372.372 0 00-.271.135.338.338 0 00-.057.34c.012.023.023.035.023.046zm.463 1.555c-.056-.284-.395-.477-.666-.352a.442.442 0 00-.25.477c.012.204.16.397.363.43.316.057.621-.249.553-.555zm1.774.465c-.056-.408-.633-.556-.836-.182a.78.78 0 00-.034.091.406.406 0 00.113.454c.283.227.825.045.757-.363zm-1.74 2.348c.011-.42-.508-.658-.814-.363a.46.46 0 00-.101.488.481.481 0 00.067.158c.272.352.837.148.848-.283zm2.734-.714c.113-.375-.248-.738-.62-.602a.464.464 0 00-.317.397.43.43 0 00.09.352c.226.317.735.227.848-.148zm-2.214 2.143c.158.034.316-.056.395-.193.068-.124.057-.294-.045-.385a.373.373 0 00-.486-.09c-.293.158-.17.6.136.668zm2.169 4.98a.373.373 0 00-.486-.09c-.282.158-.158.611.136.668.158.034.317-.056.396-.193.068-.124.056-.295-.045-.385zm-2.621-4.322c-.09-.238-.407-.352-.61-.204a.483.483 0 00-.125.136.247.247 0 00-.034.057c-.112.26.114.578.396.567.271-.023.475-.306.373-.556zm3.548-.375a.36.36 0 00.215-.034.4.4 0 00.147-.567c-.136-.193-.441-.204-.6-.034-.203.216-.078.647.238.636zm-2.622 5.525a.37.37 0 00-.17.363c0 .113.046.226.136.306.238.204.633.045.667-.261.034-.34-.328-.601-.633-.408zM28.407 40.4a.399.399 0 00-.34.307.44.44 0 00.035.238.426.426 0 00.101.17c.204.193.565.091.656-.17a.428.428 0 00-.452-.544zm1.74 1.85c.18.022.35-.057.452-.204.079-.125.09-.307 0-.42a.41.41 0 00-.362-.25.444.444 0 00-.406.205.453.453 0 00.316.669zm1.277-2.303c-.023.295.271.533.553.43a.42.42 0 00.159-.691.408.408 0 00-.622.068c-.056.045-.079.114-.09.193zm.271 2.167a.43.43 0 00-.102.147.37.37 0 00-.045.159.437.437 0 00.576.442.458.458 0 00.249-.646.448.448 0 00-.678-.102zm2.961.249a.395.395 0 00-.453-.08.405.405 0 00-.214.409c.011.113.079.238.215.272h.033a.369.369 0 00.441-.102.382.382 0 00-.022-.499zm-5.492.363c-.011-.023-.034-.045-.056-.068-.159-.148-.407-.114-.554.023a.505.505 0 00-.136.238c-.034.125-.022.25.08.34a.5.5 0 00.553.09c.192-.101.283-.328.18-.521a.269.269 0 00-.067-.102zm4.158.59a.402.402 0 00-.294.159.307.307 0 00-.079.102.387.387 0 00.124.476.44.44 0 00.509.012.41.41 0 00.147-.488.404.404 0 00-.407-.261zm.904-26.769l.034.136c.17.33.633.397.881.125.26-.284.159-.76-.203-.885a.59.59 0 00-.531.057.508.508 0 00-.192.556c.011 0 .011.011.011.011zm1.684 2.677a.57.57 0 00.079-.953c-.237-.17-.565-.09-.735.113a.532.532 0 00-.18.33c-.046.442.474.703.836.51zm2.644-.884a.462.462 0 00.237.249.52.52 0 00.746-.465.513.513 0 00-.735-.465.51.51 0 00-.305.465.298.298 0 00.057.216zm-.26 1.814c0 .023-.011.057-.011.08a.518.518 0 00.44.476c.463.046.836-.59.554-.975-.305-.409-.972-.012-.983.42zm-1.582.612c.011.012.011.012.023.012.01.01.022.034.045.045.248.26.712.136.836-.182.136-.351-.17-.771-.554-.714-.373.068-.644.544-.35.84zm-4.125-2.086c0 .068.023.124.057.181a.51.51 0 00.814.09c.214-.26.135-.668-.181-.793a.538.538 0 00-.475.034.428.428 0 00-.215.488zm1.447 1.44a.48.48 0 00-.102.488.454.454 0 00.26.261c.305.136.7-.113.655-.476-.056-.397-.542-.568-.813-.273zm-2.305.896c.023.023.045.034.056.045.012.012.034.023.046.034.248.17.61.023.655-.283.045-.318-.226-.59-.542-.51-.294.079-.464.476-.215.714zm3.729.477a.434.434 0 00-.08.51.301.301 0 00.08.09c0 .012.011.012.011.024.271.306.78.09.78-.307.022-.397-.498-.6-.791-.317zm-1.028.862c-.125-.431-.678-.488-.916-.114a.462.462 0 00.057.567l.045.046c.034.034.08.068.136.09.384.16.802-.192.678-.59zm-2.532.396c.305.17.701-.08.656-.43a.449.449 0 00-.78-.25.448.448 0 00-.056.51.298.298 0 00.056.068.48.48 0 00.124.102zm2.136 1.839c.136-.319-.09-.693-.452-.659a.487.487 0 00-.373.238c-.023.023-.034.046-.056.08-.08.159-.023.352.09.476.237.216.667.17.791-.136zm2.124-1.476c-.294-.08-.599.204-.497.5.011.09.045.17.113.226.203.204.553.125.678-.125.135-.25-.034-.533-.294-.6zm1.762-.555a.384.384 0 00.441-.08.427.427 0 00-.135-.68c-.271-.125-.61.045-.633.352-.023.192.147.374.328.408zm-6.225 1.259c-.396.068-.588.578-.271.862a.404.404 0 00.237.102.49.49 0 00.621-.284c.147-.374-.192-.76-.587-.68zm-1.401 2.155c.248-.148.26-.51.034-.692a.372.372 0 00-.441-.023c-.023.012-.045.023-.056.046a.353.353 0 00-.159.363c.023.306.362.465.622.306zm.847.068c0 .011.012.011.012.023.124.215.44.227.599.045.192-.215.056-.578-.215-.635a.393.393 0 00-.362.125c-.079.09-.135.25-.079.374.011.023.034.046.045.068zm-1.22.759a.182.182 0 00-.102-.033c-.045-.012-.09-.034-.135-.023a.253.253 0 00-.17.09.3.3 0 00-.068.239.316.316 0 00.159.238.28.28 0 00.282-.011.36.36 0 00.124-.136.37.37 0 00.046-.148c0-.045-.012-.102-.046-.136a.151.151 0 00-.09-.08zm.419-3.39v.023c0 .022 0 .045.01.068.012.022.046.079.012.022a.315.315 0 00.214.182c.08.011.17 0 .238-.046.158-.113.158-.363.011-.487a.302.302 0 00-.294-.046c-.101.046-.214.159-.192.284zm10.123-4.742a.411.411 0 00-.339.556c.057.148.204.25.362.25.135 0 .271-.08.305-.205a.238.238 0 00.045-.068c.124-.25-.102-.544-.373-.533zM29.718 36.159c.158-.386-.204-.806-.61-.692a.692.692 0 00-.136.057.392.392 0 00-.26.204.503.503 0 00.079.556c.26.328.768.272.927-.125zm.87 4.015c.226-.454-.26-.987-.724-.749-.01 0-.01.012-.01.012a.528.528 0 00-.362.635c.135.499.87.567 1.096.102zm3.276.998c.057-.487-.53-.873-.949-.578a.345.345 0 00-.09.09.56.56 0 00-.18.284.607.607 0 00.191.601c.373.318.972.102 1.028-.397zm-3.536-2.642c.011.01.022.022.045.022.384.227.87-.17.757-.59a.536.536 0 00-.927-.204.517.517 0 00.125.771z" fill="#fff"/><path d="M31.672 14.64c-.113-.782-.497-1.496-1.096-1.882a2.03 2.03 0 00-.384-.193 2.055 2.055 0 00-1.028-.09 2.258 2.258 0 00-.791.272 2.966 2.966 0 00-.396.26c-.644.51-1.062 1.316-1.356 2.11 0 0 0-.011-.011-.022a7.458 7.458 0 00-.418-.783 4.106 4.106 0 00-.859-1.01 3.535 3.535 0 00-.395-.283 2.44 2.44 0 00-1.345-.363 2.356 2.356 0 00-.802.147 1.254 1.254 0 00-.34.193c-.88.647-.813 2.099-.632 3.267.599 3.845 2.147 7.894 4.61 11.002.294.363.588.726.904 1.066.068.08.158.091.237.057.159.136.475.114.565-.159.125-.43.249-.85.385-1.281.587-1.974 1.163-3.936 1.751-5.91.576-1.94 1.706-4.321 1.401-6.397z" fill="#78BDB1"/><path d="M29.616 21.628c.44-2.246.621-4.537.78-6.817.045-.692.112-1.373.169-2.064-.113-.08-.249-.136-.384-.193-.08.93-.113 1.871-.181 2.801a77.309 77.309 0 01-.407 4.254c-.18 1.35-.418 2.688-.78 4.004-.293 1.078-.677 2.087-1.118 3.096.135-1.032.237-2.075.35-3.107.136-1.339.26-2.666.328-4.004.079-1.373.09-2.757.068-4.13-.023-.895-.023-1.825-.08-2.733-.135.08-.27.16-.395.261.045.828.102 1.668.124 2.495a52.285 52.285 0 01-.056 3.993c-.068 1.35-.181 2.7-.328 4.05-.068.635-.147 1.27-.215 1.905-.067-.488-.135-.964-.18-1.452-.136-1.27-.26-2.54-.362-3.81a144.01 144.01 0 01-.282-3.812l-.068-1.27a7.456 7.456 0 00-.418-.783c.034.692.09 1.395.135 2.087.08 1.293.181 2.586.294 3.88.113 1.27.237 2.54.373 3.81.056.5.102 1.021.158 1.532-.18-.613-.373-1.225-.52-1.85a42.782 42.782 0 01-.79-3.947 45.514 45.514 0 01-.43-3.913 50.268 50.268 0 01-.079-2.609 3.535 3.535 0 00-.395-.283c-.023 1.69.146 3.403.338 5.059a46.336 46.336 0 001.176 6.216c.158.59.305 1.202.486 1.803a78.206 78.206 0 01-2.023-4.696c-.802-2.053-1.514-4.151-1.876-6.318a19.056 19.056 0 01-.237-2.268 1.25 1.25 0 00-.34.193c.16 3.867 1.764 7.656 3.289 11.138.418.941.836 1.883 1.277 2.813.09.181.18.374.271.556 0 .045-.011.09-.011.125v.045c0 .068.056.113.113.125.011 0 .022.011.045.011l.034.068c.079.159.339.08.282-.08.023-.033.046-.079.023-.135-.011-.057-.034-.114-.045-.16 0-.033 0-.067-.012-.101.102-.182.193-.375.283-.556.79-1.645 1.265-3.47 1.616-5.229z" fill="#BCDFDC"/><path d="M26.316 29.477c-.023-.136-.17-.283-.554-.385-.067-.023-.135-.034-.203-.057-.011 0-.034-.011-.045-.011-2.08-.5-4.294-.624-6.418-.68-1.82-.046-4-.262-5.763.362-.915.33-1.774 1.112-1.876 2.099a1.947 1.947 0 000 .363.7.7 0 00.034.215c.192.987 1.062 1.44 1.966 1.61.124.023.237.046.362.057-.068.091-.147.193-.204.295-.429.624-.757 1.339-.712 2.065 0 .113.023.215.046.329.034.17.09.351.18.521.577 1.157 2.08 1.373 3.187.987 1.672-.567 3.152-2.132 4.508-3.21 1.65-1.304 3.277-2.643 4.927-3.947l.475-.374a.3.3 0 00.09-.239z" fill="#872361"/><path d="M26.723 28.956h-.056c-.125.01-.249.022-.385.022-.248.023-.497.034-.734.057h-.045c-2.531.204-5.062.5-7.593.726-1.345.125-2.69.227-4.034.442-.814.136-1.65.306-2.43.59a1.947 1.947 0 000 .363c.882-.295 1.774-.51 2.7-.646 1.323-.205 2.668-.295 3.99-.432 1.819-.181 3.638-.328 5.468-.499a30.31 30.31 0 00-2.429.772c-1.887.669-3.729 1.463-5.638 2.087-.69.227-1.39.397-2.09.567.123.023.237.045.36.057-.067.09-.146.193-.203.295a22.49 22.49 0 001.56-.443 48.181 48.181 0 002.802-.987c1.83-.692 3.65-1.451 5.537-1.973a21.936 21.936 0 011.66-.386c.035-.011.069-.011.102-.011-.463.215-.915.476-1.344.714-.927.51-1.808 1.078-2.7 1.645-1.707 1.089-3.447 2.178-5.357 2.87-.972.351-1.955.556-2.983.646 0 .114.023.216.045.33 1.808-.046 3.582-.75 5.176-1.566 1.864-.964 3.57-2.2 5.378-3.267a27.76 27.76 0 011.616-.873c.17-.08.35-.159.52-.238l.712-.307a4.18 4.18 0 00.327-.147c.046-.011.08-.023.125-.023.056-.011.079-.068.079-.113.045-.125 0-.284-.136-.272z" fill="#E29C40"/><path d="M42.859 34.434a1.891 1.891 0 00-.181-.375 2.555 2.555 0 00-.622-.703c-1.4-1.146-3.796-.964-5.48-1.27a37.725 37.725 0 01-6.78-1.951c-.305-.114-.598-.239-.904-.363-.418-.17-.734.453-.316.635l.102.034c.101.193.214.386.328.578 1.028 1.793 2.248 3.483 3.491 5.127 1.085 1.43 2.35 3.426 4.034 4.197a3.59 3.59 0 001.514.318c.203 0 .407-.034.599-.08.508-.125.96-.385 1.277-.85a1.966 1.966 0 00.294-1.588 1.997 1.997 0 00-.136-.363c.836.045 1.616-.33 2.158-.897.102-.102.192-.204.271-.328.441-.613.61-1.384.35-2.121z" fill="#CE4239"/><path d="M38.666 35.443a32.452 32.452 0 01-6.124-3.04c-.43-.273-.847-.556-1.254-.85.452.192.915.385 1.367.577a37.81 37.81 0 003.492 1.282c2.17.67 4.43 1.09 6.712 1.032a1.894 1.894 0 00-.181-.374c-3.266.034-6.497-.885-9.548-2.121-1.062-.431-2.102-.93-3.153-1.384l-.294-.227c-.124-.102-.248-.193-.372-.294-.068-.057-.136-.046-.193 0-.079-.08-.226.022-.18.124.09.227.214.443.35.647.158.227.328.453.486.669.328.465.678.919 1.028 1.372a47.544 47.544 0 002.08 2.473c1.468 1.645 2.982 3.29 4.587 4.81.18.17.384.351.587.521.204 0 .407-.034.6-.08a11.25 11.25 0 01-.826-.668c-.768-.704-1.48-1.475-2.203-2.224-1.514-1.553-3.006-3.142-4.373-4.832-.373-.465-.734-.93-1.085-1.406-.011-.011-.011-.023-.022-.034 2.768 2.779 5.864 5.388 9.48 6.919.215.09.44.181.655.272a2.18 2.18 0 00-.056-.465 19.363 19.363 0 01-3.006-1.463c-1.91-1.134-3.638-2.54-5.277-4.027a38.526 38.526 0 01-.994-.93c1.265.919 2.621 1.724 4 2.439a32.34 32.34 0 006.474 2.518c.272.068.554.147.825.215.102-.102.193-.204.272-.328-1.311-.307-2.588-.658-3.854-1.123z" fill="#E29C40"/><path d="M26.757 36.6c.124-1.769.271-3.538.395-5.308.034-.476.057-.964.09-1.44.023-.34-.451-.431-.643-.227a.33.33 0 00-.238.09c-.18.17-.372.34-.553.511-2.757 2.552-5.48 5.331-7.22 8.689-.566 1.089-1.289 2.677-.43 3.8.045.067.102.124.158.192.046.046.08.08.125.114.373.329.802.43 1.242.408.147-.011.283-.034.43-.068.384-.09.757-.261 1.107-.465.113-.068.215-.136.328-.204.011.09.034.181.056.283.193.896.61 1.781 1.413 2.2.102.058.203.103.328.137.034.011.056.023.09.023 1.379.397 2.44-.84 2.768-2.042.531-2.065.396-4.549.554-6.692z" fill="#D4629F"/><path d="M26.079 34.23c.18-1.055.373-2.121.486-3.188l.034-.363a.641.641 0 01.045-.136c.034-.068.079-.124.113-.192.034-.057.011-.114-.023-.16.012-.101-.09-.158-.18-.136-.068-.022-.17.012-.193.091 0 .023-.01.046-.01.068a8.04 8.04 0 00-.34.33c-1.56 1.53-2.904 3.277-4.124 5.08a38.516 38.516 0 00-3.401 6.262c-.113.272-.238.544-.34.828.046.068.102.125.159.193.045.045.079.08.124.113.497-1.27 1.04-2.53 1.684-3.754a37.96 37.96 0 013.83-5.876 46.195 46.195 0 011.932-2.257 55.253 55.253 0 00-1.457 2.496 74.43 74.43 0 00-1.932 3.63 86.369 86.369 0 00-1.752 3.73c-.35.806-.723 1.623-1.05 2.44a2.92 2.92 0 00.429-.068c.316-.783.621-1.588.96-2.36a74.564 74.564 0 011.695-3.607 80.406 80.406 0 011.876-3.516 63.66 63.66 0 011.119-1.883c-.249.692-.486 1.384-.746 2.076a155.78 155.78 0 01-1.514 3.788 156.001 156.001 0 01-1.65 3.732c-.203.442-.418.873-.633 1.316.113-.068.215-.136.328-.204.011.09.034.181.056.283.192-.408.373-.828.565-1.236a113.3 113.3 0 001.661-3.8c.531-1.27 1.051-2.552 1.537-3.845.215-.579.452-1.157.667-1.747-.068.465-.136.942-.215 1.407a76.953 76.953 0 01-.69 3.584 82.765 82.765 0 01-1.864 7.044c-.079.26-.17.533-.26.794.102.056.204.102.328.136a3.98 3.98 0 01.113-.34c.384-1.18.735-2.371 1.062-3.562a86.669 86.669 0 001.57-7.191z" fill="#DE969B"/><path d="M45.412 28.57c-.045-.363-.158-.658-.339-.885a1.95 1.95 0 00-.305-.306c-.248-.205-.553-.33-.892-.42.361-.25.666-.556.858-.919.057-.113.102-.227.136-.351a1.79 1.79 0 000-.885 1.752 1.752 0 00-.52-.907c-.836-.738-2.35-.59-3.367-.386-3.966.771-7.639 2.7-11.119 4.73-.226.136-.452.26-.678.397-.124.068-.248.147-.361.215-.011 0-.011.012-.023.012a.302.302 0 00-.135.204c-.068.159-.023.374.203.43.35.091.7.194 1.062.284C34 30.85 38.34 31.666 42.497 30.861c.893-.17 2.237-.5 2.735-1.35.079-.136.135-.283.169-.442a1.8 1.8 0 00.011-.5z" fill="#F1D3C7"/><path d="M44.102 29.273c-1.153.147-2.317.25-3.48.306a42.393 42.393 0 01-6.995-.238 30.483 30.483 0 01-1.469-.204c.237 0 .475 0 .712-.012a50.716 50.716 0 003.469-.136c2.26-.159 4.52-.454 6.746-.896a41.84 41.84 0 002-.42 1.955 1.955 0 00-.305-.306 47.44 47.44 0 01-1.334.295 56.907 56.907 0 01-3.378.59 53.464 53.464 0 01-6.723.533c-.35.011-.712.011-1.063.011 1.063-.159 2.113-.408 3.13-.68 2.125-.567 4.204-1.282 6.362-1.724.983-.205 1.966-.295 2.96-.363.057-.114.102-.227.136-.352-1.92-.011-3.887.51-5.717 1.02-2.09.59-4.159 1.294-6.306 1.68-.452.079-.904.147-1.356.192 3.684-.816 7.085-2.87 10.724-3.856a16.358 16.358 0 012.429-.454 2.003 2.003 0 00-.305-.374c-1.65.215-3.288.771-4.802 1.338-2.226.84-4.373 1.872-6.644 2.598a19.98 19.98 0 01-2.95.703c-.26.045-.52.08-.78.102l-.293.034c-.113.012-.136.125-.09.193.022.034.056.057.113.057.079 0 .158-.012.237-.012a.086.086 0 00.056.023c.09.011.17.011.26.023a.085.085 0 00.08.056c.101.012.203.034.305.046.056.011.113.034.18.045 2.136.545 4.407.76 6.6.862 2.372.114 4.756.023 7.107-.26.485-.057.982-.114 1.48-.182.079-.136.135-.284.17-.442a19.08 19.08 0 01-1.266.204z" fill="#E29C40"/><path d="M27.774 31.383a2.264 2.264 0 002.26-2.269 2.264 2.264 0 00-2.26-2.268 2.264 2.264 0 00-2.26 2.268 2.264 2.264 0 002.26 2.269z" fill="#F1D3C7"/></g><defs><clipPath id="clip0"><path fill="#fff" transform="translate(10 11)" d="M0 0h38v37H0z"/></clipPath></defs></svg>