<svg width="55" height="56" fill="none" xmlns="http://www.w3.org/2000/svg"><path d="M54.5 28c0 15.196-12.097 27.5-27 27.5S.5 43.196.5 28 12.597.5 27.5.5s27 12.304 27 27.5z" fill="#9BBADA" stroke="#fff"/><g clip-path="url(#clip0)"><path opacity=".64" d="M42.99 18.277c0-.05-.01-.109-.02-.158-.225-1.456-1.618-2.733-4.15-3.812-2.099-.901-4.885-1.604-7.838-1.99a35.858 35.858 0 00-4.738-.327c-3.07 0-8.31.456-8.859 3.495a2.41 2.41 0 00-.039.466c-1.01 3.96-.363 8.514 1.678 11.693.117.188.255.376.382.554a4.173 4.173 0 00-1.717-.376c-1.05 0-2.02.445-2.815 1.297-.697.752-1 1.673-.864 2.663.334 2.446 3.336 4.426 4.239 4.97 1.736 1.05 3.678 1.97 5.768 2.743.02.159.04.327.069.485a22.92 22.92 0 003.482 9.159c.344.534.972.861 1.629.861.334 0 .657-.09.942-.248l.834-.475a1.91 1.91 0 00.922-1.218 1.84 1.84 0 00-.265-1.445 18.636 18.636 0 01-1.766-3.287c1.6-1.05 2.953-2.297 4.042-3.723 1.148-1.505 2.61-3.723 2.139-5.663-.157-.644-.59-1.515-1.747-2.06a4.756 4.756 0 00-.98-.326c2.01-.793 3.835-2.09 5.375-3.862 2.718-3.109 3.777-6.653 4.13-8.188a2.46 2.46 0 00.148-.525c.029-.227.039-.465.02-.703zM24.508 31.901c-.098.386-.187.772-.265 1.158-.177-.277-.353-.554-.54-.821a16.52 16.52 0 00-.716-.97c.48.247.981.455 1.52.633zm4.65 1.495a6.363 6.363 0 00-.51.792c.088-.584.196-1.168.343-1.733.392-.02.775-.049 1.157-.099a5.59 5.59 0 00-.99 1.04z" fill="#A3B0B2"/><path d="M42.01 17.287c0-.05-.01-.109-.02-.158-.225-1.456-1.618-2.733-4.15-3.812-2.099-.901-4.885-1.604-7.838-1.99A35.859 35.859 0 0025.264 11c-3.07 0-8.31.455-8.859 3.495a2.42 2.42 0 00-.04.465c-1.01 3.96-.362 8.515 1.678 11.694.118.188.255.376.383.554a4.173 4.173 0 00-1.717-.376c-1.05 0-2.02.445-2.815 1.297-.697.752-1.001 1.673-.864 2.663.334 2.446 3.336 4.426 4.238 4.97 1.737 1.05 3.68 1.97 5.769 2.743.02.158.04.327.069.485a22.921 22.921 0 003.482 9.158c.343.535.971.862 1.629.862.333 0 .657-.09.942-.248l.833-.475a1.91 1.91 0 00.922-1.218 1.84 1.84 0 00-.264-1.445 18.645 18.645 0 01-1.766-3.287c1.599-1.05 2.953-2.297 4.042-3.723 1.148-1.505 2.61-3.723 2.138-5.663-.157-.644-.588-1.515-1.746-2.06a4.756 4.756 0 00-.981-.327c2.011-.792 3.836-2.089 5.376-3.861 2.718-3.109 3.777-6.654 4.13-8.188.069-.169.118-.347.147-.525.03-.228.04-.465.02-.703zM23.527 30.911c-.098.386-.186.772-.265 1.158a22.813 22.813 0 00-.54-.822 16.52 16.52 0 00-.715-.97c.48.248.98.456 1.52.634zm4.65 1.495a6.37 6.37 0 00-.51.792c.089-.584.196-1.168.344-1.733.392-.02.775-.05 1.157-.099a5.593 5.593 0 00-.99 1.04z" fill="#fff"/><path d="M29.403 46.475c-3.61-5.356-4.503-12.089-1.982-17.93.147-.347-.353-.555-.647-.386-.069-.198-.452-.297-.57-.07-3.05 6.07-2.05 13.545 1.659 19.218a.462.462 0 00.559.129c.274-.159.559-.317.834-.475.176-.11.255-.307.147-.486z" fill="#829C69"/><path d="M40.155 17.138c-7.456.396-14.529-.446-21.543-2.644-.098-.178-.461-.217-.55.03-1.795 5.386-.127 14.505 7.907 15.347 9.389.98 13.646-7.555 14.51-12.307v-.03c.069-.198-.04-.416-.324-.396z" fill="#4674B7"/><path d="M19.16 19.356c-.5 1.663-.225 3.436.727 4.99.814 1.337 1.991 2.267 3.286 3.159-2.364-2.248-3.796-5.139-4.012-8.149zm4.798 7.504c-1.02-1.92-1.776-4.019-2.403-6.049-.785 2.307.735 4.258 2.403 6.05zm2.816.902c.324-2.158.392-4.317.147-6.475-.863 2.138-1 4.317-.147 6.475zm1.176.049c1.875-1.812 3.091-3.881 3.317-6.287-1.285 2.02-2.011 4.267-3.316 6.287zm2.326.723c3.267-1.505 6.063-3.564 6.975-6.713-2.246 2.277-4.512 4.604-6.975 6.713zm1.697-2.762c.932-1.06 1.442-2.188 1.746-3.406-1.196 2.03-2.835 3.841-4.6 5.544 1.079-.564 2.05-1.218 2.854-2.138zm-6.632 1.327c-.412-2.168-.97-4.297-1.55-6.446-.068 2.307.305 4.416 1.55 6.446zm4.464-14.268c-6.24-.821-11.576.05-11.91 1.931-.107.604.314 1.238 1.139 1.852 1.746 1.297 5.317 2.485 9.555 3.04 4.444.583 8.427.306 10.477-.575.834-.357 1.344-.812 1.432-1.357.334-1.89-4.453-4.079-10.693-4.89z" fill="#78BDB1"/><path d="M38.88 18.762c-5.828-3.208-13.264-4.336-19.856-2.148 1.746 1.297 5.317 2.485 9.555 3.04 4.444.584 8.427.306 10.477-.575.01-.109-.029-.228-.176-.317z" fill="#CE4239"/><path d="M22.546 16.682c-.098-.267-.432-.425-.746-.366a.655.655 0 00-.51.426c-.157.505.53.871 1.02.604.245-.139.344-.406.245-.634 0-.01 0-.02-.01-.03zm2.217-1.009a.632.632 0 00-.52.188.6.6 0 00-.187.257c-.088.248.069.505.314.644.52.297 1.138-.159 1.02-.644-.058-.257-.333-.425-.627-.445zm-1.178 1.98c.01.169.138.297.334.317.324.04.648-.198.569-.515-.078-.297-.952-.406-.902.198zm3.395-.218s-.01-.01-.01-.02c-.373-.356-1.01-.168-1.187.248-.186.445.343.841.844.782a.689.689 0 00.55-.436c.068-.198.009-.455-.197-.574zm.598-1.455a.666.666 0 00-.735-.07c-.265.14-.354.446-.206.684.137.208.441.297.706.237a.499.499 0 00.392-.475.441.441 0 00-.157-.376zm2.051.445c-.471-.208-1.07 0-1.187.456-.167.673.892 1.188 1.432.613a.667.667 0 00-.245-1.069zm1.599 1.752c-.088-.317-.5-.425-.824-.307-.638.228-.471 1.169.392.96.314-.059.51-.375.432-.653z" fill="#fff"/><path d="M14.992 29.168c-1.678 1.802 1.393 4.287 3.05 5.287 1.845 1.119 3.866 2.04 5.955 2.782-.274-2.109-5.601-11.723-9.005-8.07zm17.678 3.109c-2.502-1.168-3.925 1.792-4.396 3.307-.598 1.96-.833 3.97-1.04 5.98 1.786-1.04 3.297-2.327 4.474-3.871.952-1.238 3.218-4.377.962-5.416z" fill="#78BDB1"/><path d="M16.61 30.109c1.334 2.168 2.992 4.02 5.327 5.346-1.766-1.792-3.483-3.623-5.327-5.346zm11.44 10.01c1.677-1.97 3.03-4.12 3.943-6.436-2.413 1.505-3.238 4.02-3.944 6.436z" fill="#FFCF30"/></g><defs><clipPath id="clip0"><path fill="#fff" transform="translate(13 11)" d="M0 0h30v39H0z"/></clipPath></defs></svg>