<svg width="55" height="56" fill="none" xmlns="http://www.w3.org/2000/svg"><path d="M54.5 28c0 15.196-12.097 27.5-27 27.5S.5 43.196.5 28 12.597.5 27.5.5s27 12.304 27 27.5z" fill="#FEA04C" stroke="#fff"/><path opacity=".64" d="M29.86 52a2.39 2.39 0 01-2.402-2.126 76.727 76.727 0 01-.343-3.57c-.461.18-.955.34-1.501.436a6.9 6.9 0 01-1.233.106c-1.94 0-3.688-.807-4.771-2.22-1.2-1.563-1.394-3.433-1.555-4.931v-.021c-.268-2.572-.386-5.324.644-8.82 1.565 3.167 3.323 4.612 6.647 5.95.353.15.847.373 1.404.66-.01-1.276 0-2.54.043-3.794a2.518 2.518 0 01-.568.064c-1.008 0-1.909-.627-2.23-1.551a9.423 9.423 0 01-.45-2.03c-.419.106-.847.18-1.276.234-.097.01-.193.021-.29.021a2.37 2.37 0 01-1.683-.701 2.336 2.336 0 01-.665-1.7 7.902 7.902 0 01.858-3.337 12.338 12.338 0 01-3.463-1.796 2.346 2.346 0 01-.943-1.816c-.01-.723.3-1.392.868-1.839a9.661 9.661 0 012.305-1.36 7.756 7.756 0 01-.718-2.688 2.305 2.305 0 011.898-2.487 7.994 7.994 0 011.425-.127c.461 0 .922.042 1.383.117a7.483 7.483 0 011.287-2.986 2.384 2.384 0 011.919-.978c.354 0 .707.085 1.018.234.611.298 1.169.68 1.673 1.126.697-.743 1.522-1.37 2.434-1.795.31-.15.653-.223.997-.223.76 0 1.479.36 1.897.977.493.723.88 1.498 1.147 2.317a7.192 7.192 0 012.08-.309c.322 0 .654.022.965.075a2.346 2.346 0 011.608.999 2.36 2.36 0 01.322 1.88 15.714 15.714 0 01-.676 2.072 9.11 9.11 0 013.099 1.414 2.32 2.32 0 01.257 3.58c-.686.66-1.758 1.584-3.11 2.285.548.86.966 1.806 1.19 2.784.162.69 0 1.392-.45 1.944a2.436 2.436 0 01-1.865.893h-.032a30.152 30.152 0 01-1.694-.064l3.463-.998c-.01 1.455-.075 4.75-.225 6.152v.021c-.161 1.509-.354 3.379-1.555 4.93-1.093 1.414-2.83 2.221-4.77 2.221a7.94 7.94 0 01-1.233-.106 8.2 8.2 0 01-1.223-.33c.097 2.487.29 5.186.6 8.48a2.468 2.468 0 01-.642 1.902 2.499 2.499 0 01-1.866.829z" fill="#A3B0B2"/><path d="M28.787 50.937a2.39 2.39 0 01-2.401-2.125 76.59 76.59 0 01-.343-3.57c-.461.18-.955.34-1.501.436a6.9 6.9 0 01-1.233.106c-1.94 0-3.688-.808-4.771-2.22-1.2-1.563-1.394-3.433-1.555-4.931v-.021c-.268-2.572-.386-5.324.644-8.82 1.565 3.167 3.323 4.612 6.647 5.95.353.15.847.373 1.404.66-.01-1.276 0-2.54.043-3.794a2.517 2.517 0 01-.568.064c-1.008 0-1.909-.627-2.23-1.552a9.417 9.417 0 01-.45-2.03c-.419.107-.847.181-1.276.235-.097.01-.193.02-.29.02a2.37 2.37 0 01-1.683-.7 2.336 2.336 0 01-.665-1.7 7.9 7.9 0 01.858-3.337 12.338 12.338 0 01-3.463-1.796 2.346 2.346 0 01-.943-1.817c-.011-.722.3-1.392.868-1.838a9.66 9.66 0 012.305-1.36 7.76 7.76 0 01-.718-2.688 2.305 2.305 0 011.897-2.487 7.996 7.996 0 011.426-.127c.461 0 .922.042 1.383.117a7.483 7.483 0 011.287-2.986 2.374 2.374 0 012.937-.733 7.43 7.43 0 011.673 1.126 8.032 8.032 0 012.433-1.796c.311-.149.654-.223.998-.223.76 0 1.479.361 1.897.978.493.722.88 1.498 1.147 2.316a7.192 7.192 0 012.08-.308c.322 0 .654.021.965.074a2.346 2.346 0 011.608.999c.365.542.482 1.233.322 1.88a15.729 15.729 0 01-.676 2.073 9.11 9.11 0 013.099 1.413 2.319 2.319 0 01.257 3.58c-.686.66-1.758 1.584-3.11 2.285a8.96 8.96 0 011.19 2.784c.162.691 0 1.392-.45 1.945a2.437 2.437 0 01-1.865.893h-.032c-.547-.011-1.115-.022-1.694-.064l3.463-1c-.01 1.457-.075 4.75-.225 6.153v.021c-.161 1.51-.354 3.38-1.555 4.93-1.093 1.414-2.83 2.222-4.77 2.222-.419 0-.826-.043-1.233-.107a8.2 8.2 0 01-1.223-.33c.097 2.487.29 5.186.6 8.48a2.468 2.468 0 01-.643 1.902 2.527 2.527 0 01-1.865.818z" fill="#fff"/><path d="M33.14 32.11c-1.866.807-4.3 2.092-4.621 4.25-.021-3.167.086-6.334.31-9.49.151-2.082.376-4.154.57-6.226.042-.436-.612-.457-.676-.032-.569 3.677-.815 7.417-.944 11.136a121.38 121.38 0 00.086 10.264c-.386-2.082-2.766-3.325-4.6-4.122-1.79-.776-3.784-1.658-4.716-3.432a46.11 46.11 0 00.225 4.207c.14 1.371.3 2.89 1.168 4.017.954 1.232 2.595 1.636 4.085 1.36.783-.138 1.48-.468 2.187-.797.547-.255 1.094-.457 1.694-.446v.032c.118 2.093.268 4.186.525 6.258.065.51.837.33.794-.17-.354-3.676-.622-7.353-.697-11.04 0-.287-.011-.563-.011-.85.59 0 1.126.191 1.662.446.707.33 1.404.659 2.187.797 1.49.266 3.13-.138 4.084-1.36.869-1.126 1.03-2.646 1.169-4.017.15-1.402.215-2.805.225-4.207-.911 1.764-2.916 2.646-4.706 3.421z" fill="#73004E"/><path d="M41.041 17.817c-1.63-1.158-3.763-1.593-5.736-1.211 1.266-1.148 1.973-2.848 2.423-4.612.043-.159-.032-.308-.203-.329-1.662-.244-3.506.425-4.6 1.71a6.83 6.83 0 00-1.157-4.738c-.065-.085-.194-.107-.29-.064-1.555.733-2.787 2.21-3.27 3.868a5.7 5.7 0 00-2.83-3.199c-.107-.053-.257 0-.322.096a5.502 5.502 0 00-.772 4.973c-1.383-.935-3.13-1.339-4.792-1.041-.14.02-.214.148-.204.286a5.948 5.948 0 002.391 4.293c-1.726.021-3.441.595-4.803 1.69a.26.26 0 00.01.403c1.834 1.36 4.107 2.115 6.38 1.998-1.673 1.095-2.777 3.05-2.841 5.037 0 .17.128.297.3.276a8.941 8.941 0 004.127-1.605 7.158 7.158 0 00-.075 4.867c.043.138.258.213.376.138a9.091 9.091 0 003.677-4.09 9.703 9.703 0 002.112 4.749c.14.17.375.138.504-.021a7.012 7.012 0 001.672-4.134 7.344 7.344 0 00-.257-2.38c1.544.893 3.656.967 5.35.988.16 0 .332-.127.29-.308-.397-1.7-1.523-3.347-3.035-4.378 2.07-.074 4.128-1.392 5.596-2.815.119-.139.14-.34-.02-.447z" fill="#FF7A03"/><path d="M33.29 17.424c-1.608-3.347-7.687-3.687-8.791 1.137-.472 2.072.193 4.25 2.24 5.165 1.79.796 4.02.414 5.468-.893 1.48-1.339 1.951-3.613 1.083-5.409z" fill="#CE4239"/><path d="M31.403 17.233c-.954-1.435-3.999-1.562-4.889.35-.504 1.084-.107 2.466.869 3.156 1.05.755 2.583.67 3.538-.201.932-.85 1.2-2.232.482-3.305z" fill="#9F2529"/><path d="M30.063 17.435c-.429-.531-1.265-.585-1.78-.17-.3.202-.493.574-.44.956.119.786.987 1.19 1.705.914.719-.266 1.008-1.095.515-1.7zm-.59 1.062c-.278.192-.75.16-.954-.138-.14-.202-.118-.414 0-.563.29-.106.59-.255.89-.095.31.18.375.573.064.796z" fill="#78BDB1"/><path d="M34.212 16.84c-1.383-2.37-4.385-3.326-6.958-2.486-.021.01-.043.02-.054.032-2.015.69-3.473 2.624-3.827 4.675-.397 2.327.557 4.718 2.852 5.631 2.444.967 5.478.479 7.29-1.455 1.651-1.753 1.898-4.335.697-6.397zm-6.894 7.895c-1.233-.266-2.38-.871-3.055-1.955-.558-.882-.772-1.945-.718-2.986.117-2.263 1.608-4.42 3.763-5.196 2.133-.648 4.62-.106 6.11 1.604 1.48 1.7 1.716 4.25.462 6.132-1.416 2.125-4.128 2.922-6.562 2.401z" fill="#73004E"/><path d="M30.824 13.078c.01-.01.022-.01.032-.02.375-.16.375-.692.065-.925-.333-.234-.837-.022-.869.393-.043.404.397.754.772.552zm3.774 2.115a.56.56 0 00-.676-.893.52.52 0 00-.118.723c.011.02.022.042.043.063a.535.535 0 00.75.107zm1.393 3.156c-.042-.01-.085 0-.128 0-.29.01-.547.244-.558.531a.602.602 0 00.547.595c.3.01.579-.223.611-.51.032-.297-.171-.584-.472-.616zm-1.393 4.484a.776.776 0 00-.215.096.429.429 0 00-.171.138c-.161.191-.118.478.064.648.397.383 1.083-.032.9-.563a.51.51 0 00-.578-.319zm-3.86 2.603a.546.546 0 00-.225.18.52.52 0 00-.15.575c.118.329.482.467.804.35a.595.595 0 00.354-.786.584.584 0 00-.783-.319zm-4.009-.191a.584.584 0 00-.504.19.478.478 0 00-.15.203c-.118.308.053.69.375.786.332.106.718-.106.783-.446a.603.603 0 00-.504-.733zm-3.345-1.615c-.28.095-.408.457-.247.701.15.234.515.297.729.106a.497.497 0 00.15-.297.217.217 0 000-.117c-.021-.287-.354-.489-.632-.393zm-1.19-4.304a.53.53 0 00-.354.244.418.418 0 00-.086.107c-.193.33.01.722.365.818.353.095.686-.17.729-.52.053-.362-.268-.713-.654-.649zm1.072-2.762c.482.18.91-.361.654-.797-.268-.468-1.051-.287-1.008.276 0 .032.01.075.021.106.011.181.14.351.333.415zm3.774-3.05a.616.616 0 00-.472-.67.564.564 0 00-.611.277.543.543 0 00-.107.318c0 .287.235.553.525.585a.615.615 0 00.665-.51z" fill="#4674B7"/><path d="M30.47 36.614c1.362.755 3.12.808 4.47 0 1.298-.775 2.07-2.21 2.091-3.687-1.072 2.55-3.784 4.091-6.56 3.687zm-.493-1.53a21.646 21.646 0 005.103-2.922c-1.758.914-3.774 1.456-5.103 2.922z" fill="#DE969B"/><path d="M34.416 34.787a5.376 5.376 0 002.058-2.7 16.857 16.857 0 01-5.703 3.571c1.286.117 2.562-.138 3.645-.871zM21.454 41.46a5.726 5.726 0 01-2.155-3.124c.16 1.509.493 3.007 1.715 4.048 1.426 1.212 3.152.786 4.696.085-1.48.213-3.045-.127-4.256-1.01z" fill="#DE969B"/><path d="M25.313 41.428a14.407 14.407 0 01-5.188-3.475c.675 2.242 2.83 3.74 5.188 3.475zm-.803-2.136c-.58-.266-1.158-.5-1.748-.744 1.04.914 2.23 1.615 3.538 2.072-.44-.616-1.094-1.01-1.79-1.328z" fill="#DE969B"/></svg>