<svg width="55" height="56" fill="none" xmlns="http://www.w3.org/2000/svg"><path d="M54.5 28c0 15.196-12.097 27.5-27 27.5S.5 43.196.5 28 12.597.5 27.5.5s27 12.304 27 27.5z" fill="#B3A2CE" stroke="#fff"/><path d="M42.023 27.796a1.907 1.907 0 00-.456-.163c-.04-.065-.073-.138-.114-.203.586-.827.928-2.142.366-4.17a5.72 5.72 0 00-1.57-2.646c.471-1.932-.229-4.033-1.36-5.153a5.094 5.094 0 00-1.034-.804c.244-1.428.04-3.051-.611-4.544-.985-2.28-3.029-4.074-5.902-5.17-1.034-.389-2.32-.616-3.534-.616-1.913 0-3.452.544-4.437 1.566a1.65 1.65 0 00-.325 1.826 1.685 1.685 0 001.538 1.006h.066c.74 0 1.302.43 1.595.795a4.02 4.02 0 01-.708-.089 12.51 12.51 0 00-2.418-.235c-2.744 0-4.982.966-6.489 2.8-1.384 1.68-1.872 3.952-1.375 6.045a4.954 4.954 0 00-1.311 1.891c-.595 1.518-.4 3.222.48 4.61-.464.714-1.132 1.955-.66 3.36.041.113.082.226.139.332a8.598 8.598 0 00-.277.714 1.79 1.79 0 00-.928 1.323c-.179 1.217.138 2.532.39 3.587.082.34.164.665.213.949 1.09 5.924 1.546 8.375 3.093 14.104.122.454.407.828.814 1.071 2.394 1.404 5.764 2.118 10.03 2.118 1.026 0 2.109-.04 3.216-.122 1.376-.105 2.841-.235 4.282-.56 2.915-.665 4.047-1.33 4.34-2.548a309.643 309.643 0 003.232-15.264l.049-.26c.537-2.824.643-3.587.643-3.96a1.817 1.817 0 00-.977-1.59z" fill="#DBD7D6"/><path d="M41.396 27.375a1.916 1.916 0 00-.456-.163c-.04-.065-.073-.13-.114-.203.586-.827.928-2.142.366-4.17a5.721 5.721 0 00-1.571-2.646c.464-1.932-.228-4.033-1.36-5.153a5.09 5.09 0 00-1.034-.804c.245-1.428.041-3.05-.602-4.536-1.001-2.288-3.045-4.074-5.919-5.177-1.025-.39-2.312-.617-3.533-.617-1.913 0-3.452.544-4.437 1.566a1.651 1.651 0 00-.326 1.826 1.685 1.685 0 001.54 1.006h.065c.74 0 1.302.43 1.595.796a4.022 4.022 0 01-.708-.09 12.509 12.509 0 00-2.418-.235c-2.744 0-4.983.966-6.489 2.791-1.384 1.68-1.872 3.952-1.376 6.046a4.955 4.955 0 00-1.31 1.891c-.595 1.517-.4 3.222.48 4.61-.464.713-1.132 1.955-.66 3.35.041.114.082.228.139.334a8.563 8.563 0 00-.277.714 1.791 1.791 0 00-.928 1.323c-.18 1.217.138 2.531.39 3.586.082.341.164.666.212.95 1.091 5.924 1.547 8.375 3.094 14.104.122.446.407.828.814 1.07 2.394 1.405 5.764 2.119 10.03 2.119 1.026 0 2.109-.04 3.216-.122 1.376-.105 2.841-.235 4.282-.56 2.915-.665 4.047-1.33 4.34-2.548a309.53 309.53 0 003.232-15.264l.048-.26c.538-2.824.644-3.587.644-3.96a1.788 1.788 0 00-.97-1.574z" fill="#F1F2F2"/><path d="M40.094 30.76c0-4.537-5.748-8.205-12.839-8.205-7.09 0-12.838 3.677-12.838 8.205 0 4.536 5.747 8.204 12.838 8.204 7.083.008 12.839-3.668 12.839-8.204z" fill="#D28D5C" stroke="#B07445" stroke-miterlimit="10" stroke-linecap="round" stroke-linejoin="round"/><path d="M39.516 29.161c-.61.552-1.23.479-1.986-.032-.13-.09-.285-.211-.448-.309a6.807 6.807 0 01-.61-.235c-.603-.049-.79.325-1.116.65-.244.235-.513.486-.863.535-.448.057-.79-.138-1.107-.438-.733-.69-1.254-.86-2.06-.252a1.99 1.99 0 01-.773.528.368.368 0 01-.09.137.436.436 0 01-.61 0 .442.442 0 01-.058-.073c-.903-.235-1.555-1.468-2.45-.519-.497.528-1.132.925-1.8.406-.317-.244-.936-1.096-1.391-.917-.546.21-.912.746-1.352 1.104-.195.162-.545.186-.676-.09-.179-.373-.44-.787-.822-.982-.252-.13-.496-.065-.724.073-.228.26-.44.544-.774.682-.016.008-.032.008-.049.016a.514.514 0 01-.179.057c-.496.114-.92-.073-1.416-.252-.75-.26-1.563-.113-2.142.463-.154.146-.276.3-.464.406-.228.13-.504.073-.773-.033a4.796 4.796 0 00-.049.682c0 4.35 5.618 7.896 12.53 7.896 6.903 0 12.529-3.538 12.529-7.896a5.64 5.64 0 00-.277-1.607z" fill="#E7E5E5"/><path d="M14.726 26.945c-.318-.941.48-1.898.773-2.353a4.883 4.883 0 012.907-2.037c1.807-.438 3.924-.113 5.755-.008.985.057 1.995.179 2.98.17 1.808-.016 3.566-.121 5.21-.884 1.71-.787 3.566-1.647 5.178-1.014 1.059.422 1.734 1.395 2.036 2.458.399 1.42.423 3.02-1.221 3.506-1.197.349-2.313 1.347-4.063 1.445-1.547.089-2.377-.771-4.315-.666-1.457.081-2.735.982-4.2 1.006-2.069.041-3.51-1.176-5.57-1.063-1.79.114-5.014.812-5.47-.56z" fill="#F2929E" stroke="#D77889" stroke-miterlimit="10" stroke-linecap="round" stroke-linejoin="round"/><path d="M26.164 24.672c1.913.333 4.34.236 6.244-.195 1.93-.438 2.996-.714 4.584-1.907.358-.267 1.042-.624 1.465-.779a2.734 2.734 0 00-1.026-.706 3.006 3.006 0 00-1.123-.202c-1.221 0-2.54.608-3.81 1.193l-.033.016c-1.775.82-3.68.9-5.324.909h-.098c-.79 0-1.652-.065-2.564-.138-.977-.073-1.987-.154-2.98-.154-.472 0-.96.016-1.457.064 2.068.536 4.021 1.526 6.122 1.9z" fill="#EFE7ED"/><path d="M17.29 12.63c1.742-2.118 4.584-2.5 7.295-1.98 4.958.958 2.816-4.082-.635-4.025 1.375-1.428 4.47-1.193 6.163-.544 2.084.796 4.038 2.135 4.958 4.269.863 1.988.96 4.877-1.108 6.119-2.605 1.558-4.33 2.19-7.131 2.418-1.938.154-3.843.568-5.773.82-1.31.17-3.175.486-4.062-.796-1.343-1.94-1.083-4.61.293-6.28z" fill="#F2929E" stroke="#D77889" stroke-miterlimit="10" stroke-linecap="round" stroke-linejoin="round"/><path d="M27.133 18.431a19.318 19.318 0 01-4.901-.884c-1.897-.601-3.819-1.015-5.683-.309.139.544.358 1.063.676 1.526.399.576 1.05.836 2.06.836.52 0 1.066-.074 1.538-.138l.204-.025a64.8 64.8 0 002.247-.34c1.156-.187 2.344-.382 3.533-.48a21.439 21.439 0 001.612-.194c-.431.024-.863.024-1.286.008z" fill="#EFE7ED"/><path d="M15.857 24.008c-2.491-2.289-1.074-6.533 3.403-6.127 1.922.178 5.626 1.404 7.8 1.006 2.776-.511 5.072-1.266 6.342-2.297 1.237-1.006 2.206-1.81 3.671-.365 1.05 1.039 1.417 3.222.464 4.593-2.14 3.108-6.716 3.133-9.932 3.198-2.866.057-5.731-1.388-8.589-1.437-1.465-.016-3.159 1.429-3.159 1.429z" fill="#F2929E" stroke="#D77889" stroke-miterlimit="10" stroke-linecap="round" stroke-linejoin="round"/><path opacity=".3" d="M18.975 18.685c1.336.105 2.663.332 3.998.495.903.105 1.905.251 2.809.048-1.287-.048-2.777-.357-4.112-.64-.92-.196-1.79-.382-2.434-.439-1.97-.178-3.542.617-4.111 2.061-.082.203-.13.406-.171.609.627-1.469 2.369-2.264 4.021-2.134zm18.065-1.648c.367.438.611.934.758 1.445-.09-.812-.424-1.583-.912-2.061-.48-.48-.92-.715-1.343-.715-.407 0-.814.22-1.246.528.977-.211 2.125.065 2.744.803zm-18.431-4.342c1.392-.746 2.662-.876 4.193-.77 1.278.088 3.24.494 4.396-.228.594-.373.692-1.112.521-1.761a1.355 1.355 0 01-.464.682c-.554.438-1.482.543-2.72.308-.7-.138-1.391-.203-2.05-.203-1.49 0-3.567.365-4.983 2.086a4.838 4.838 0 00-.969 2.029c.537-.917 1.384-1.778 2.076-2.143z" fill="#808285"/><path d="M23.054 16.777c.008.032-.04.04-.065.057a.742.742 0 00-.171.186 1.248 1.248 0 00-.09.179c-.016.032-.024.065-.032.097-.016.049-.04.09-.073.025-.017-.041-.025-.09-.041-.138-.033-.065-.065-.138-.106-.195a.867.867 0 00-.114-.13c-.032-.032-.122-.073-.057-.122.065-.056.139-.113.187-.178a.871.871 0 00.098-.195c.016-.04.033-.178.073-.178.05 0 .074.138.09.17.024.057.049.113.081.17.033.049.05.09.09.13.016.024.122.098.13.122zm-2.809-1.615c.008.065-.09.09-.13.122a1.57 1.57 0 00-.35.381c-.073.114-.13.236-.18.357l-.072.203c-.033.09-.09.179-.147.049-.04-.09-.049-.187-.09-.268-.065-.138-.122-.276-.211-.398a1.868 1.868 0 00-.236-.267c-.065-.065-.245-.146-.122-.244.13-.105.276-.219.374-.365.082-.122.147-.26.204-.39.032-.08.057-.365.146-.365.09 0 .147.276.18.35.056.113.105.235.17.34a.995.995 0 00.188.268c.04.032.26.178.276.227zm.928 3.887c.008.065-.09.09-.122.122-.13.105-.26.235-.35.38-.073.115-.13.236-.179.358l-.073.203c-.033.09-.09.178-.147.049-.04-.09-.049-.187-.09-.268-.064-.138-.122-.276-.211-.398-.065-.097-.155-.187-.236-.268-.065-.065-.244-.146-.122-.243.13-.106.276-.22.374-.365.082-.122.147-.26.204-.39.032-.081.057-.365.138-.365.09 0 .147.276.18.349.056.114.105.235.17.34a.995.995 0 00.188.269c.04.032.26.178.276.227z" fill="#F1F2F2"/><path d="M36.699 48.02c-.139.576-2.516 1.12-3.004 1.234-1.311.3-2.679.422-4.014.52-3.883.291-8.93.178-12.196-1.754-1.522-5.632-1.978-8.074-3.06-13.966-.22-1.2-.766-2.75-.587-3.96.456.106 1.433.722 1.816 1.014.496-.462.912-1.955 1.262-1.955.268 0 1.522 1.209 2.14 1.469.465-.495.848-1.096 1.393-1.518.415.349 1.237 1.704 1.807 1.72.416.009 1.303-1.744 1.653-1.712.399-.016 1.238 1.656 1.889 1.615.374-.024 1.482-1.542 2.043-1.582.44-.033 1.523 1.274 1.93 1.671.96-.738 1.872-2.101 2.434-2.101.383.186 1.433 1.29 1.905 1.81.724-.674 1.677-1.827 2.157-1.81.578.024 1.4 1.736 1.881 1.744.61.008 1.726-1.014 2.442-1.517 0 .479-.578 3.44-.659 3.895-1.01 5.291-2.035 10.16-3.232 15.183z" fill="#B3A2CE" stroke="#A283AF" stroke-miterlimit="10" stroke-linecap="round" stroke-linejoin="round"/><path opacity=".3" d="M19.269 47.136c-1.075-1.687-1.54-3.66-1.922-5.599-.382-1.956-.895-3.838-1.36-5.77-.252-1.03-.382-2.142-.097-3.18.269-.99 1.123-1.721 1.303-2.727.008-.057.032-.098.048-.138-.122-.09-.227-.17-.309-.22-.106.139-.26.455-.366.674-.212.446-.44.9-.708 1.16a.321.321 0 01-.408.025 9.891 9.891 0 00-1.343-.82c-.016.747.196 1.623.383 2.41.09.374.17.723.236 1.055 1.074 5.819 1.522 8.253 3.028 13.812 1.108.633 2.492 1.096 4.12 1.388-1.042-.455-1.995-1.104-2.605-2.07z" fill="#A7A9AC"/><path d="M17.127 33.43s.261.811.579 2.053c.162.616.333 1.339.504 2.118.082.39.18.787.26 1.2l.245 1.242c.073.422.155.836.228 1.25.081.414.138.82.203 1.21.13.786.237 1.525.31 2.158.163 1.266.22 2.118.22 2.118s-.269-.812-.578-2.053a52.976 52.976 0 01-.505-2.118c-.081-.39-.18-.787-.26-1.201l-.245-1.242c-.073-.422-.155-.836-.228-1.25-.073-.413-.138-.82-.203-1.209a45.741 45.741 0 01-.31-2.158c-.163-1.266-.22-2.118-.22-2.118zm5.52 5.08s.147.535.277 1.347c.065.405.13.876.187 1.387.024.252.057.52.081.788.025.267.041.535.066.811.016.276.032.544.04.811.017.268.017.536.025.788.008.511.008.99-.008 1.395-.025.82-.098 1.372-.098 1.372s-.147-.536-.277-1.347a29.3 29.3 0 01-.187-1.388c-.024-.251-.065-.52-.081-.787-.025-.268-.041-.536-.066-.811-.016-.276-.024-.544-.04-.812-.017-.268-.017-.536-.025-.787a25.88 25.88 0 01.008-1.396c.033-.82.098-1.371.098-1.371zm4.283 1.144s.113.47.186 1.184c.041.357.082.771.106 1.21.025.446.04.916.05 1.387 0 .47-.01.95-.034 1.388-.016.446-.048.86-.089 1.217-.073.714-.18 1.185-.18 1.185s-.113-.47-.186-1.185c-.041-.357-.082-.77-.106-1.21a40.31 40.31 0 01-.05-1.387c0-.47.01-.95.034-1.387.024-.447.048-.86.089-1.218.073-.714.18-1.184.18-1.184zm4.249-1.916s.081.6.122 1.485c.025.446.033.965.033 1.525-.008.276 0 .568-.008.86l-.025.885-.049.885a40.32 40.32 0 01-.228 2.37 15.807 15.807 0 01-.252 1.468s-.081-.6-.122-1.485a28.747 28.747 0 01-.033-1.526c0-.276 0-.568.008-.86l.025-.884.049-.885a40.1 40.1 0 01.228-2.37c.122-.884.252-1.468.252-1.468zm5.895-4.308s-.017.876-.13 2.174c-.058.65-.131 1.412-.22 2.216-.05.406-.09.82-.155 1.25-.057.422-.114.852-.18 1.282-.064.43-.13.86-.195 1.282-.065.422-.138.836-.211 1.242-.139.803-.285 1.55-.416 2.19-.26 1.283-.496 2.127-.496 2.127s.016-.877.13-2.175a64.9 64.9 0 01.22-2.215c.049-.406.09-.82.155-1.25.056-.422.114-.852.179-1.282l.195-1.283c.065-.422.139-.835.212-1.241.138-.804.285-1.55.415-2.191.26-1.282.497-2.126.497-2.126z" fill="#A27DAB"/><path d="M33.32 35.1a.999.999 0 01-1.001.998 1 1 0 110-1.996.999.999 0 011.001.998z" fill="#7C615B"/><path d="M32.384 34.607a.36.36 0 01-.358.357.36.36 0 01-.358-.357.36.36 0 01.358-.358.36.36 0 01.358.358z" fill="#F1F2F2"/><path d="M23.128 35.1a1 1 0 01-1.002.998.999.999 0 110-1.996.999.999 0 011.002.998z" fill="#7C615B"/><path d="M22.191 34.606a.36.36 0 01-.358.357.36.36 0 01-.358-.357.36.36 0 01.358-.358c.204 0 .358.163.358.358z" fill="#F1F2F2"/><path d="M27.972 35.629a.96.96 0 01-1.922 0" stroke="#7C615B" stroke-miterlimit="10" stroke-linecap="round" stroke-linejoin="round"/><path d="M40.15 29.657c-.707.552-1.448 1.12-2.01 1.12-.399-.009-.717-.422-1.124-.942-.211-.276-.618-.787-.781-.803-.228.008-.953.738-1.335 1.136-.204.211-.4.414-.587.584a.335.335 0 01-.227.09.3.3 0 01-.22-.106c-.774-.836-1.287-1.33-1.572-1.566.611 2.45 1.531 4.853 1.433 7.417-.097 2.435-.537 4.91-1.034 7.287-.39 1.85-1.017 3.887-2.613 5.072a14.36 14.36 0 01-.773.536l.358-.024c1.294-.098 2.67-.22 3.973-.512 2.548-.584 2.76-.99 2.768-1.006a302.977 302.977 0 003.208-15.15l.048-.277a110.8 110.8 0 00.521-2.872c-.016.008-.024.016-.032.016z" fill="#F0DFE6"/><path d="M36.838 41.268c.008.033-.041.04-.057.057a.852.852 0 00-.163.178 1.013 1.013 0 00-.082.163c-.016.032-.024.065-.032.097-.017.04-.041.081-.065.025-.017-.041-.025-.082-.041-.122a.816.816 0 00-.098-.187c-.032-.04-.073-.081-.106-.121-.032-.025-.114-.066-.057-.114a.68.68 0 00.171-.17c.041-.057.066-.122.098-.18.016-.032.025-.17.065-.17s.065.13.082.163a1.519 1.519 0 00.162.284.463.463 0 01.123.097c0-.008 0 0 0 0zm-3.241-.649c.008.057-.081.081-.114.114a1.468 1.468 0 00-.325.348 1.8 1.8 0 00-.163.333c-.025.065-.04.13-.065.187-.033.08-.082.17-.139.04-.032-.08-.04-.17-.081-.251-.057-.13-.114-.26-.196-.373a2.117 2.117 0 00-.22-.252c-.056-.057-.227-.138-.113-.227.122-.098.26-.203.35-.341a2.21 2.21 0 00.187-.365c.033-.073.057-.341.13-.341.09 0 .139.252.171.325.05.105.098.219.155.316.057.097.09.162.17.243.033.057.237.195.253.244 0-.008 0-.008 0 0zm1.759 2.841c.008.056-.081.08-.114.113a1.479 1.479 0 00-.326.349 2.426 2.426 0 00-.17.333c-.025.064-.041.13-.066.186-.032.081-.081.17-.138.04-.033-.08-.04-.17-.082-.25a2.03 2.03 0 00-.195-.374 2.117 2.117 0 00-.22-.252c-.057-.057-.228-.138-.114-.227.122-.097.26-.203.35-.34.074-.114.139-.244.188-.366.032-.073.056-.34.13-.34.09 0 .138.25.17.324.05.105.098.219.155.316.057.098.09.163.171.244.041.065.245.203.26.243zm-3.029-.341c.008.04-.057.056-.081.073a1.075 1.075 0 00-.228.243c-.05.073-.082.154-.114.235-.017.041-.033.09-.049.13-.016.057-.057.114-.098.033-.024-.057-.032-.122-.057-.17a1.586 1.586 0 00-.138-.26.773.773 0 00-.155-.17c-.04-.041-.154-.09-.081-.155a1.33 1.33 0 00.244-.235 1.04 1.04 0 00.13-.252c.025-.049.041-.235.09-.235.057 0 .098.178.114.219.032.073.065.154.106.22.04.064.065.113.122.17.049.032.187.121.195.154z" fill="#F1F2F2"/></svg>