<svg width="56" height="56" fill="none" xmlns="http://www.w3.org/2000/svg"><circle cx="28" cy="28" r="27.5" fill="#83C379" stroke="#fff"/><g clip-path="url(#clip0)"><path d="M43.369 17.718c-.457-1.435-1.84-2.316-3.417-2.022-1.312.241-2.303 1.553-1.853 3.36.129.509.502.822.863 1.18.418.425.643.751.707 1.37.039.373.116 1.09-.444 1.678-.843-2.525-2.136-5.03-4.008-6.89.29-.952.772-2.166 1.557-3.158 1.19-1.507 3.423-1.963 3.423-1.963s-1.918-1.697-3.822-1.886c-1.91-.183-2.65-.078-2.65-.078s.025-.861.063-2.381c.033-1.123-.81-3.263-.81-3.263s-1.776.483-2.677 1.11c-.514.358-1.338 1.207-2.31 2.792 0 0-.353-1.037-1.042-2.264C26.325 4.193 24.66 3 24.66 3s-1.081 1.435-1.538 2.91a26.247 26.247 0 00-.714 3.027s-1.113-.685-3.43-.196c-1.801.379-4.31 2.153-4.31 2.153s1.788.3 3.403 2.173c.824.952 1.519 2.72 1.937 3.96-1.82 1.977-3.21 4.632-3.996 7.607-.604-.502-.617-1.213-.624-1.585-.013-.62.168-.972.534-1.449.31-.404.644-.763.708-1.278.232-1.853-.914-3.028-2.252-3.1-1.596-.09-2.863.96-3.14 2.44-.257 1.41-.354 3.06-.045 4.47.187.848 1.287 4.332 4.092 6.002v.183c0 5.878.978 11.221 5.47 13.883.134.81.392 1.807.418 2.023.05.339.044.417-.2.613-.746.593-2.098 1.487-1.73 2.616.199.607 2.927.574 3.577.529.958-.066 2.708.123 2.876-1.038.083-.554.019-2.061-.013-3.145.99.131 2.078.196 3.262.177a22.147 22.147 0 002.284-.15c.006 1.083-.007 2.603.09 3.15.212 1.155 1.95.908 2.908.94.65.02 3.384-.039 3.558-.652.328-1.142-1.049-1.99-1.814-2.551-.251-.183-.258-.261-.22-.607.02-.196.207-1.057.323-1.82 4.934-2.988 4.497-9.304 4.433-13.707a20.454 20.454 0 00-.11-1.788c2.773-1.964 3.475-5.754 3.558-6.642.148-1.441-.154-3.072-.585-4.43z" fill="#fff"/><path d="M18.341 28.007c-1.77-.026-3.526-.633-4.478-2.238-.74-1.24-.907-2.766-.708-4.175.071-.483.805-.366.734.117-.167 1.2-.045 2.466.54 3.556.753 1.403 2.316 1.964 3.822 1.983.206 0 .386.105.412.333.026.19-.122.424-.322.424z" fill="#231F20"/><path d="M12.493 19.956c-.013-.345-.007-.639.264-.88.199-.177.489-.261.746-.137.502.235.733 1.017.566 1.513.142-.156.412-.248.573-.085.225.235.019.464-.148.64-.367.378-.753.79-.772 1.344l-.065.496c-.122-.17-.27-.464-.392-.672-.135-.235-.277-.464-.393-.712a3.803 3.803 0 01-.38-1.507zm24.494 7.21c1.756-.229 3.43-1.038 4.195-2.747.592-1.311.585-2.845.232-4.221-.123-.47-.843-.268-.721.202.302 1.174.322 2.447-.135 3.595-.592 1.48-2.078 2.218-3.571 2.414-.2.026-.373.15-.373.378 0 .183.174.405.373.379zm-14.65 15.331l.56 4.965s-1.287 1.07-1.19 1.272c.096.203 2.116.033 2.212-.234.097-.268-.598-5.833-.598-5.833l-.984-.17zm12.121-.104l-.128 4.998s1.377.952 1.293 1.16c-.084.21-2.104.223-2.226-.038-.122-.261.09-5.865.09-5.865l.971-.255z" fill="#231F20"/><path d="M26.75 15.363c-5.848.62-10.05 7.392-10.05 14.862s1.79 13.955 12.058 13.812c10.938-.15 10.269-8.377 10.192-13.584-.071-5.206-2.973-16.069-12.2-15.09z" fill="#FCBB29"/><path d="M18.785 28.464l2.645 1.644 2.747-1.54 2.252 1.142s2.747-1.612 2.844-1.579c.096.033 2.445 1.677 2.445 1.677l2.515-1.814 2.284 1.272 2.207-1.422a22.65 22.65 0 00-.43-2.166l-1.815.737-2.316-1.774-2.613 2.414-2.445-2.245-2.908 2.447-1.95-2.245-2.907 2.049-2.677-2.114-1.531 1.148a20.01 20.01 0 00-.425 3.432l2.078-1.063zm17.958 7.444l-2.317-1.775-2.612 2.414-2.445-2.244-2.908 2.446-1.95-2.244-2.908 2.049-2.69-2.12-1.736 1.317c.238 1.135.579 2.192 1.061 3.151l1.204-.62 2.644 1.645 2.747-1.54 2.252 1.142s2.747-1.612 2.844-1.58c.097.033 2.445 1.678 2.445 1.678l2.516-1.814 2.284 1.272 1.1-.705c.36-1.07.547-2.218.637-3.36l-2.168.888z" fill="#FCD323"/><path d="M18.65 24.001l2.645 1.644 2.747-1.54 2.252 1.142s2.747-1.611 2.843-1.579c.097.033 2.445 1.677 2.445 1.677l2.516-1.814 2.284 1.273 1.39-.894a19.345 19.345 0 00-.76-1.912l-.63.255-2.316-1.775-2.612 2.414-2.445-2.244-2.915 2.446-1.95-2.244-2.914 2.048-2.245-1.774a17.06 17.06 0 00-1.46 3.458l1.125-.58zm.264 9.492l2.644 1.645 2.748-1.54 2.252 1.142s2.747-1.612 2.843-1.58c.097.033 2.445 1.677 2.445 1.677l2.516-1.813 2.284 1.272 2.335-1.5c0-.823-.019-1.612-.032-2.343 0-.17-.006-.339-.019-.515l-2.323.94-2.316-1.775-2.612 2.414-2.445-2.245-2.908 2.447-1.95-2.244-2.908 2.048-2.683-2.12-2.078 1.579a28.04 28.04 0 00.257 3.516l1.95-1.005zm16.046 5.435l-2.612 2.414-2.445-2.244-2.908 2.447-1.95-2.245-2.908 2.049-2.676-2.114-.714.542c1.705 2.661 4.741 4.338 10.024 4.266 4.433-.058 6.961-1.448 8.396-3.425l-2.207-1.69z" fill="#FCD323"/><path d="M21.198 21.49l2.747-1.54 2.252 1.141s2.748-1.611 2.844-1.579c.096.033 2.445 1.677 2.445 1.677l2.516-1.814 2.284 1.273.025-.013c-1.885-3.269-4.922-5.761-9.56-5.272-2.98.32-5.534 2.231-7.316 5.024l1.763 1.102z" fill="#FCD323"/><path d="M21.72 17.66s-.67-3.242-1.938-4.378c-1.267-1.135-2.676-2.492-2.676-2.492s1.917-1.05 3.423-1.057c1.705-.006 2.902.679 2.902.679s.115-1.794.489-3.001c.373-1.207 1.254-2.382 1.254-2.382s1.145 1.233 1.654 2.147c.56 1.004.958 2.583.958 2.583.464-1.174.63-1.676 1.815-2.818.65-.626 2.38-1.357 2.38-1.357s.689 1.755.663 2.668c-.032 1.24-.463 2.649-.463 2.649s1.016-.79 2.58-.64c1.563.15 2.876.901 2.876.901s-1.486.078-2.529 1.814c-1.042 1.735-1.589 4.306-1.589 4.306s-1.087 1.05-5.108 1.122c-4.009.085-6.692-.744-6.692-.744z" fill="#61BC53"/><path d="M25.213 7.919s-.863 2.316-.431 4.593c.43 2.283 1.621 4.932 1.621 4.828 0-.098.463-1.41.528-5.063.038-1.879-1.718-4.358-1.718-4.358zm5.61.301s-1.66 1.807-2.117 4.083c-.457 2.277-.347 5.187-.309 5.09.039-.092.96-1.123 2.387-4.483.734-1.729.039-4.69.039-4.69zm.257 8.86s.284-2.61 1.043-3.876c1.094-1.814 3.275-1.964 3.275-1.964s-1.19 1.11-2.233 2.916c-1.042 1.814-2.084 2.923-2.084 2.923zm-7.064-.249s-.425-2.59-1.255-3.81c-1.19-1.749-3.378-1.775-3.378-1.775s1.248 1.038 2.387 2.786c1.146 1.749 2.246 2.799 2.246 2.799z" fill="#AEF998"/><path d="M28.32 30.65c-2.432 0-3.667-.914-4.272-1.677-.67-.842-.746-1.683-.746-1.716a.22.22 0 01.206-.242.22.22 0 01.238.21c0 .006.07.756.662 1.487.785.972 2.136 1.487 3.906 1.487 1.435 0 2.593-.522 3.448-1.546a4.73 4.73 0 00.869-1.572.225.225 0 01.277-.157.23.23 0 01.154.28c-.013.033-.244.881-.946 1.73-.643.782-1.827 1.715-3.796 1.715zm-3.88-6.29c-.064-.574-.54-1.63-1.859-1.507a2.29 2.29 0 00-.952.294l-.367-.535a.218.218 0 00-.309-.059c-.096.072-.128.215-.058.313l.386.555a1.774 1.774 0 00-.257.358l-.656-.247a.222.222 0 00-.29.13.227.227 0 00.129.294l.65.248a1.132 1.132 0 00-.032.156.226.226 0 00.2.248.224.224 0 00.244-.202c.006-.04.115-.992 1.35-1.103.509-.045.895.118 1.14.49.192.293.238.613.238.62a.222.222 0 00.218.202h.026a.227.227 0 00.2-.255zm6.82-.052c.04-.58.451-1.657 1.783-1.605.405.013.714.11.965.241l.34-.554a.225.225 0 01.31-.072.232.232 0 01.07.313l-.353.574c.115.111.206.229.276.346l.644-.287a.22.22 0 01.296.117.226.226 0 01-.116.3l-.63.281a.722.722 0 01.038.157.222.222 0 01-.187.254.216.216 0 01-.25-.19c-.007-.038-.168-.984-1.41-1.03-.514-.02-.888.17-1.113.555-.18.306-.206.626-.206.633a.214.214 0 01-.212.208h-.026a.227.227 0 01-.218-.241zm1.673 2.198a.537.537 0 01.36.366c.046.156.284.09.239-.066a.8.8 0 00-.534-.541c-.148-.046-.219.195-.065.241zm-9.554.17a.541.541 0 00-.341.379c-.039.156-.277.104-.244-.06a.793.793 0 01.508-.56c.154-.046.225.189.077.241zm18.511-8.188c-.026-.345-.065-.632-.36-.841-.22-.157-.516-.202-.754-.052-.47.293-.617 1.096-.392 1.572-.154-.137-.438-.202-.58-.013-.199.26.033.463.22.62.405.332.836.698.92 1.246l.116.483c.102-.183.212-.49.315-.712.11-.247.225-.495.309-.75a3.98 3.98 0 00.206-1.553z" fill="#231F20"/></g><defs><clipPath id="clip0"><path fill="#fff" transform="translate(11 3)" d="M0 0h33v47H0z"/></clipPath></defs></svg>