<svg width="56" height="56" fill="none" xmlns="http://www.w3.org/2000/svg"><circle cx="28" cy="28" r="27.5" fill="#F37C7C" stroke="#fff"/><g clip-path="url(#clip0)"><path d="M53 27.053C52.755 26.125 24.627 8.41 21.944 9.01c-2.896.656-12.627 33.697-11.909 35.314.37.826 8.968 3.7 23.01-.724C46.322 39.416 53.203 27.821 53 27.053z" fill="#fff"/><path d="M51.249 27.45c-.191-.51-26.523-17.602-28.936-16.889-2.413.713-11.034 32.792-11.034 32.792s8.306 2.862 21.147-1.165c12.133-3.812 18.823-14.739 18.823-14.739z" fill="#AEF998"/><path d="M11.616 42.086c2.772.611 10.326 1.98 20.248-1.131 9.89-3.11 16.377-11.492 18.363-14.286.898.61.988.7 1.022.78 0 0-6.69 10.916-18.823 14.728-12.84 4.027-21.147 1.165-21.147 1.165s.034-.147.337-1.256z" fill="#61BC53"/><path d="M47.646 24.938c-.157-.441-23.268-14.988-25.355-14.365-2.088.61-9.698 27.996-9.698 27.996s7.33 2.861 18.441-.623c10.517-3.302 16.612-13.008 16.612-13.008z" fill="#FA4862"/><path d="M40.53 24.983c.359-.554 3.48 1.312 2.514 2.308-.965.995-2.85-1.776-2.514-2.308zm-10.461 7.975c.55-.362 2.683 2.59 1.403 3.122-1.269.52-1.92-2.783-1.403-3.122zm-13.391.961c.662-.057 1.1 3.574-.258 3.416-1.37-.159-.359-3.36.258-3.416zm19.25-4.898c.46-.475 3.165 1.946 2.043 2.737-1.134.804-2.48-2.273-2.043-2.737zm-.977-5.893c.438-.498 3.255 1.787 2.166 2.636-1.088.86-2.581-2.16-2.166-2.636zm-4.557 3.541c.55-.362 2.627 2.635 1.347 3.144-1.268.51-1.863-2.805-1.347-3.144zm-.797-6.889c.494-.44 2.997 2.206 1.796 2.907-1.19.702-2.267-2.488-1.796-2.907zm-3.591 2.193c.595-.294 2.323 2.907.998 3.27-1.324.361-1.56-2.998-.998-3.27zm-3.918 1.143c.64-.18 1.751 3.303.37 3.405-1.369.102-.965-3.235-.37-3.405zm3.008 5.871c.606-.271 2.211 2.998.876 3.315-1.347.305-1.448-3.054-.876-3.315zm-4.871.238c.651-.09 1.268 3.518-.112 3.428-1.37-.09-.505-3.348.112-3.428zm2.469 4.774c.64-.159 1.628 3.36.247 3.416-1.369.056-.853-3.27-.247-3.416z" fill="#6A200F"/><path d="M23.424 12.077c.483-.34 1.729.701 2.065.95.898.69 1.751 1.324 2.728 1.878.909.532 1.886.995 2.75 1.595.27.181.909.61.82 1.018-.113.532-.876.396-1.224.294-.943-.271-1.594-1.03-2.402-1.538-.764-.487-1.527-.95-2.279-1.47-.65-.453-1.134-1.166-1.818-1.573-.258-.158-.898-.192-1.033-.51-.134-.305.113-.542.393-.644zm9.136 6.04l-.044-.023c.09-.034.19-.056.27-.068a.691.691 0 01.37.023c.594.147 1.043.78 1.537 1.165.292.215.887.452.82.916-.079.52-.775.51-1.168.385-.55-.181-1.74-.803-2.043-1.301-.291-.498-.078-.916.259-1.097z" fill="#FF698D"/></g><defs><clipPath id="clip0"><path fill="#fff" transform="matrix(-1 0 0 1 53 9)" d="M0 0h43v37H0z"/></clipPath></defs></svg>