<svg width="55" height="56" fill="none" xmlns="http://www.w3.org/2000/svg"><path d="M54.5 28c0 15.196-12.097 27.5-27 27.5S.5 43.196.5 28 12.597.5 27.5.5s27 12.304 27 27.5z" fill="#F2929E" stroke="#fff"/><path d="M46.897 27.188c-.114-.36-.26-.751-.4-1.127-.227-.623-.544-1.479-.601-1.91-.293-2.44-.847-6.973-5.29-8.436-.79-.256-1.66-.408-2.636-.456a5.783 5.783 0 00-1.758-1.087c.334-.2.724-.4 1.172-.623l.342-.168c1.277-.648 1.88-1.8 1.7-3.254-.13-1.04-.83-2.343-2.083-2.75a2.509 2.509 0 00-1.904.135c-.855.408-1.611.888-2.254 1.431a8.77 8.77 0 00-.79.76c-.268.296-.496.575-.7.855a9.807 9.807 0 00-1.065 1.92 6.543 6.543 0 00-.944-.4 5.711 5.711 0 00-1.693-.296 8.856 8.856 0 00-1.676-.76c-4.443-1.463-7.658 1.839-9.39 3.606-.31.312-1.083.807-1.653 1.167-.366.232-.708.448-1.009.664a2.202 2.202 0 00-.928 1.655c-.04.663.228 1.303.725 1.75.065.065.138.12.211.185-.992 1.39-1.733 3.118-2.221 5.149-1.555 6.508.504 12.512 1.871 15.51 1.636 3.59 4.46 7.596 7.096 8.467 2.067.68 6.258-.423 10.197-2.678 4.898-2.806 8.65-6.9 10.57-11.53.757-1.822 1.237-3.445 1.457-4.916.57.032 1.14.024 1.717-.024a2.239 2.239 0 001.652-.968 2.1 2.1 0 00.285-1.87z" fill="#DBD7D6"/><path d="M46.4 26.556c-.114-.351-.26-.751-.398-1.127-.228-.623-.546-1.479-.603-1.91-.293-2.44-.846-6.973-5.289-8.436-.79-.256-1.66-.408-2.637-.456a5.784 5.784 0 00-1.757-1.087c.333-.2.724-.4 1.172-.623l.341-.168c1.278-.648 1.88-1.8 1.701-3.254-.122-1.032-.83-2.335-2.083-2.743a2.51 2.51 0 00-1.904.136 10.48 10.48 0 00-2.255 1.431 8.77 8.77 0 00-.789.76c-.268.296-.496.575-.7.855a9.807 9.807 0 00-1.066 1.92 6.53 6.53 0 00-.944-.4 5.711 5.711 0 00-1.692-.296 8.86 8.86 0 00-1.677-.76c-4.443-1.471-7.657 1.823-9.39 3.598-.31.312-1.083.807-1.652 1.167-.366.232-.708.448-1.01.664a2.201 2.201 0 00-.927 1.655c-.04.663.228 1.303.724 1.75.065.065.139.12.212.185-.985 1.39-1.733 3.118-2.222 5.149-1.554 6.508.505 12.512 1.872 15.51 1.636 3.59 4.46 7.596 7.096 8.467 2.067.68 6.258-.423 10.196-2.678 4.899-2.806 8.65-6.9 10.57-11.53.758-1.822 1.238-3.445 1.457-4.916.57.032 1.14.024 1.718-.024a2.239 2.239 0 001.651-.968 2.126 2.126 0 00.285-1.87z" fill="#F1F2F2"/><path d="M39.223 33.512c-3.963 9.563-15.412 13.8-17.992 12.953-2.97-.976-9.912-11.306-7.495-21.396 2.368-9.914 10.44-8.147 16.845-6.036 8.276 2.734 12.5 5.189 8.642 14.48z" fill="#F16562" stroke="#C9544D" stroke-miterlimit="10" stroke-linecap="round" stroke-linejoin="round"/><path d="M21.427 21.543c-.025.96-.424 2.375-.546 3.326-.236 1.831.79 1.791 2.425 1.192 2.303-.84 4.346-2.04 5.819-3.742.504-.592 1.342-.376 1.684.096.195.048.383.144.545.288.033.032.074.064.106.088.326-.832 1.742-.984 1.831.064.033.431.065.855.082 1.279a.873.873 0 01.016 1c-.008 1.438-.228 2.837-.887 4.18.008 0 .008 0 .008-.007 1.392-.424 2.148-2.735 3.182-3.654.317-.28.455-.304.805-.056 1.017.72 2.4 2.15 3.483 2.694.098-1.215-.057-2.262-.472-3.15-1.147-2.462-4.223-3.886-9.138-5.5l-.073-.025c-4.037-1.327-8.602-2.446-11.865-.655a6.704 6.704 0 00-1.953 1.623c.968.248 1.945.44 2.954.544.545.055 2.002-.128 1.994.415zm8.853 20.028c-2.18 1.727-5.55 3.47-8.284 4.366 3.1.08 13.06-4.054 16.633-12.665.196-.48.366-.935.521-1.375-2.254 3.758-5.647 7.116-8.87 9.674z" fill="#E7E5E5"/><path d="M30.996 15.163s.008-.128.016-.351c0-.104.025-.28.057-.464.025-.192.065-.384.114-.6a8.054 8.054 0 011.319-2.934c.17-.248.366-.48.577-.704.204-.224.423-.431.651-.623a8.985 8.985 0 011.92-1.208c.953-.455 1.628.672 1.718 1.408.097.791-.163 1.335-.855 1.687-1.432.727-2.937 1.375-3.482 2.902-.057.16-.114.304-.139.424-.032.12-.073.215-.09.335-.04.224-.065.344-.065.344l-1.74-.216z" fill="#99A95D"/><path d="M16.6 26.028c-.178.52-.634.84-1.024.72-.391-.128-.562-.656-.383-1.175.18-.52.635-.84 1.025-.712.391.12.562.648.383 1.167zm7.056 2.32c-.179.52-.635.847-1.025.72-.39-.129-.562-.656-.383-1.176.18-.52.635-.84 1.026-.712.39.112.561.648.382 1.168zm7.047 2.318c-.179.52-.634.84-1.025.72-.39-.128-.562-.656-.383-1.176.18-.52.635-.84 1.026-.712.39.112.561.64.382 1.168zm7.047 2.319c-.179.52-.634.84-1.025.712-.39-.128-.562-.656-.383-1.175.18-.52.635-.84 1.026-.712.39.12.561.648.382 1.175zm-18.838-1.767c-.18.52-.635.84-1.026.72-.39-.128-.561-.656-.382-1.175.179-.52.635-.84 1.025-.712.39.112.562.64.383 1.167zm2.75-8.075c-.179.52-.634.84-1.025.712-.39-.128-.562-.656-.383-1.176.18-.52.635-.84 1.026-.72.39.137.553.665.382 1.184zm14.094 4.637c-.179.52-.634.84-1.025.711-.39-.127-.561-.655-.382-1.175.179-.52.634-.84 1.025-.711.39.128.561.647.382 1.175zm-7.185-2.367c-.179.52-.634.84-1.025.712-.39-.128-.561-.656-.382-1.175.179-.52.634-.848 1.025-.72.39.136.561.664.382 1.183zm-5.346 16.151c-.18.52-.635.84-1.026.711-.39-.128-.561-.655-.382-1.175.179-.52.635-.84 1.025-.712.39.128.562.656.383 1.176zm9.781-5.717c-.179.52-.635.84-1.025.72-.39-.128-.562-.656-.383-1.176.18-.52.635-.84 1.026-.711.39.12.561.647.382 1.167zm-12.174.776c-.179.52-.634.839-1.025.72-.39-.129-.561-.657-.382-1.176.179-.52.634-.848 1.025-.72.39.128.561.656.382 1.175zm7.055 2.317c-.178.52-.634.84-1.025.712-.39-.128-.561-.655-.382-1.175.179-.52.634-.84 1.025-.72.383.136.553.664.383 1.184z" fill="#C75851"/><path opacity=".3" d="M16.308 35.135c-2.124-5.972-1.041-11.033 2.311-16.27-.057.032-.122.056-.179.088-1.994 1.095-3.328 3.142-4.069 6.26-2.335 9.746 4.46 19.788 7.064 20.644.366.12.992.104 1.79-.048-3.727-2.67-5.298-6.116-6.917-10.674z" fill="#A58D9A"/><path d="M27.96 14.155c-4.215-3.486-6.835-1.798-9.919 1.352-.708.727-2.14 1.51-2.97 2.094 3.353 2.998 8.3 2.967 10.994-.751.789-1.072 1.188-1.52 1.896-2.695zm8.13 2.68c5.501-.296 6.56 2.606 7.088 6.947.122 1 .781 2.471 1.083 3.43-4.509.408-8.44-2.542-8.325-7.1.049-1.335 0-1.926.154-3.277z" fill="#B1BE67" stroke="#99A95D" stroke-miterlimit="10" stroke-linecap="round" stroke-linejoin="round"/><path d="M26.406 13.524c-1.863.872-3.1 2.599-3.629 4.47-.431 1.526-.024 2.614-.334 4.173-.146.76-.179 1.919-.537 2.982 1.18-.232 2.336-.8 3.296-1.24a33.77 33.77 0 003.458-1.846c1.742-1.047 3.003-3.766 2.946-5.709-.032-.943-1.196-1.679-2.075-2.302-.879-.624-2.221-.944-3.125-.528z" fill="#B1BE67" stroke="#99A95D" stroke-miterlimit="10" stroke-linecap="round" stroke-linejoin="round"/><path d="M36.432 16.866c.87 1.84.7 3.942-.106 5.717-.659 1.447-1.676 2.023-2.457 3.422-.374.671-1.115 1.59-1.522 2.63-.757-.92-1.277-2.087-1.733-3.022a32.458 32.458 0 01-1.457-3.59c-.659-1.903.13-4.781 1.44-6.236.635-.712 2.01-.544 3.093-.472 1.074.064 2.319.664 2.742 1.551z" fill="#B1BE67" stroke="#99A95D" stroke-miterlimit="10" stroke-linecap="round" stroke-linejoin="round"/><path opacity=".3" d="M20.434 15.227c.634-.616 2.058-1.639 3.1-1.551m1.392 3.518c.48-.736 1.644-2.047 2.677-2.183m13.492 6.525c-.285-.832-1.082-2.375-2.05-2.759" stroke="#A58D9A" stroke-miterlimit="10" stroke-linecap="round" stroke-linejoin="round"/><path d="M33.446 34.359a1.331 1.331 0 01-1.685.823 1.297 1.297 0 01-.838-1.654 1.331 1.331 0 011.684-.824 1.3 1.3 0 01.839 1.655z" fill="#7C615B"/><path d="M32.477 33.351a.475.475 0 01-.903-.295.475.475 0 01.602-.296c.252.08.383.343.301.591z" fill="#F1F2F2"/><path d="M20.596 30.13a1.331 1.331 0 01-1.684.824 1.297 1.297 0 01-.838-1.655 1.331 1.331 0 011.684-.824c.692.232 1.066.976.838 1.655z" fill="#7C615B"/><path d="M19.628 29.122a.482.482 0 01-.602.296.47.47 0 01-.301-.591.475.475 0 01.602-.296.47.47 0 01.301.591z" fill="#F1F2F2"/><path d="M26.488 32.792a1.286 1.286 0 01-1.62.792 1.247 1.247 0 01-.805-1.591" stroke="#7C615B" stroke-miterlimit="10" stroke-linecap="round" stroke-linejoin="round"/></svg>