<svg width="55" height="56" fill="none" xmlns="http://www.w3.org/2000/svg"><path d="M54.5 28c0 15.196-12.097 27.5-27 27.5S.5 43.196.5 28 12.597.5 27.5.5s27 12.304 27 27.5z" fill="#B3A2CE" stroke="#fff"/><path d="M42.138 22.9c.585-3.677-.629-7.485-3.42-10.72a9.99 9.99 0 00-1.192-1.162c-.717-.589-1.542-1.083-2.595-1.555-.329-.146-.6-.27-.862-.37a13.85 13.85 0 00-1.214-.43c-1.74-.508-3.8.008-4.392 1.955-.147 0-.286.008-.432.015-3.947.203-6.264 2.623-7.667 4.433a11.33 11.33 0 00-1.915 10.182c.439 1.453 1.323 3.016 2.368 4.178.738.822 1.681 1.563 2.77 2.174l-7.09 17.282a2.262 2.262 0 001.25 2.95 2.284 2.284 0 002.968-1.243l7.14-17.42c3.02.589 6.038.197 8.224-1.104 3.135-1.868 5.46-5.378 6.059-9.165z" fill="#DBD7D6"/><path d="M41.809 22.42c.585-3.677-.629-7.485-3.42-10.719a9.445 9.445 0 00-1.192-1.163c-.716-.588-1.542-1.083-2.602-1.555-.329-.145-.6-.269-.862-.37a12.13 12.13 0 00-1.214-.43c-1.74-.508-3.8.008-4.393 1.956-.146 0-.285.007-.43.014-3.948.204-6.265 2.624-7.668 4.433a11.355 11.355 0 00-1.922 10.182c.438 1.453 1.323 3.016 2.368 4.179.738.82 1.68 1.562 2.77 2.173l-7.075 17.274a2.262 2.262 0 001.25 2.951 2.284 2.284 0 002.967-1.243l7.141-17.42c3.019.589 6.037.196 8.223-1.105 3.135-1.867 5.46-5.377 6.059-9.157z" fill="#F1F2F2"/><path d="M17.945 50.073a.883.883 0 01-.49-1.163L25.4 29.528a.895.895 0 011.17-.487c.46.19.68.705.49 1.163l-7.953 19.382a.886.886 0 01-1.162.487z" fill="#E8BC96" stroke="#C29475" stroke-miterlimit="10" stroke-linecap="round" stroke-linejoin="round"/><path d="M24.852 30.466c-1.33-.604-2.515-1.41-3.392-2.391-.899-1.003-1.695-2.384-2.083-3.685a10.023 10.023 0 011.696-9.004c1.352-1.737 3.326-3.75 6.695-3.925 2.478-.123 4.853.45 6.359 1.534 1.864 1.344 3.136 3.117 3.691 5.138.578 2.085.526 4.47-.504 6.548-1.579 3.176-4.583 4.847-7.806 4.535-2.047-.204-4.364-.953-5.906-2.268-1.433-1.22-2.178-3.096-2.317-4.818-.073-.93.007-1.991.329-2.885.22-.61.767-1.825 1.286-2.457 2.47-3.052 5.935-3.873 9.45-2.202 1.916.909 2.91 2.755 3.231 4.426.286 1.46.08 2.842-.46 3.932-.577 1.17-1.191 2.093-2.207 2.747-.622.4-1.513.669-2.178.77-2.573.378-5.446-.952-6.403-3.14-.775-1.78.234-4.789 1.652-5.879 1.761-1.351 3.274-.974 4.363-.523 1.608.676 3.121 2.398 2.865 4.113-.117.793-.555 1.883-1.418 2.508-.482.341-1.476.82-2.514.64-.987-.175-2.397-.902-2.726-1.861-.19-.56-.293-2.05 1.25-3.133.519-.363 1.608-.254 1.973.262.227.327.27.741.117 1.105-.11.254-.92.697-.826.995.19.567 1.06.022 1.301-.145.57-.392.724-.857.27-1.432-.285-.363-.767-.617-1.19-.792-.57-.24-.958-.4-1.96.276-.81.553-1.235 2.173-.928 2.871.534 1.228 2.332 2.1 3.845 1.882.336-.05.73-.203 1.074-.428.658-.422 1.038-.873 1.425-1.665.315-.64.505-1.678.117-2.58-.54-1.257-1.198-1.831-2.06-2.296-1.887-1.018-4.313-1.221-5.877 1.344-.344.56-.512 1.032-.68 1.497-.241.669-.3 1.243-.314 1.934-.022 1.104.504 2.114 1.418 2.892 1.191 1.017 2.558 1.628 4.159 1.628 2.258 0 4.063-.8 5.204-3.081 1.578-3.17.899-6.425-2.084-8.583-1.286-.93-3.369-1.178-4.89-1.105-1.892.421-3.413 1.01-4.991 3.038a7.74 7.74 0 00-1.316 6.947c.672 2.246 2.288 3.91 4.553 4.688.914.313 1.762.538 2.588.683 1.454.255 3.516.204 5.153-.77 2.207-1.316 3.808-3.663 4.232-6.374.416-2.616-.497-5.334-2.588-7.754-1.089-1.265-2.638-1.912-4.89-2.573-.606-.181-1.44-.494-1.257-1.097.366-1.228 1.703-1.41 2.763-1.098.65.19 1.287.458 1.908.734.819.371 1.608.807 2.302 1.374.366.298.716.64 1.023 1.003 2.53 2.943 3.64 6.373 3.122 9.666-.541 3.408-2.624 6.562-5.431 8.234-2.829 1.671-6.973 1.468-10.218 0z" fill="#AEA6D2" stroke="#988DB9" stroke-miterlimit="10" stroke-linecap="round" stroke-linejoin="round"/><path d="M31.006 9.964c5.942 2.703 9.743 7.463 8.018 13.88-.41 1.52-1.074 3.177-2.23 4.288-1.322 1.272-3.317 1.984-5.086 2.152-1.477.138-2.39-.138-3.874-.16-2.821-.044-5.343-1.366-6.724-4.135-.424-.85-.98-1.832-.877-2.748.11-.988.021-1.976.095-2.957.285-3.808 2.945-7.115 6.753-7.95 3.077-.677 6.169.58 8.2 2.906 1.872 2.137 2.142 4.651 1.382 7.296-.467 1.628-.98 3.285-2.368 4.368-1.476 1.148-3.318 1.73-5.175 1.425-2.594-.43-5.401-1.926-6.212-4.564-.775-2.515-.037-7.362 2.945-8.256 1.79-.538 4.817.218 6.418.988 2.229 1.069 2.623 4.71 1.322 6.737-1.293 2.02-3.106 2.79-5.262 2.079-2.777-.916-3.925-4.455-1.835-6.686 1.71-1.825 4.51-.756 5.036 1.366.293 1.17-1.162 3.67-2.66 2.769-.797-.48-1.33-1.468-.972-2.348" stroke="#F7A8B5" stroke-miterlimit="10" stroke-linecap="round" stroke-linejoin="round"/><g opacity=".3" fill="#A7A9AC"><path opacity=".3" d="M20.445 25.523c-.497-1.148-.68-2.209-.717-3.466-.029-1.12.373-3.118.819-4.143 1.696-3.902 5.701-6.271 10.086-6.083a12.395 12.395 0 00-2.857-.174c-3.29.167-5.234 2.151-6.557 3.852a9.842 9.842 0 00-1.666 8.844c.373 1.25 1.14 2.602 2.046 3.612.3.334.65.654 1.031.96-.811-1.01-1.666-2.203-2.185-3.402z"/><path opacity=".3" d="M24.727 23.685c.227.378.512.734.87 1.053l.015.015c.066.058.132.109.197.16a8.313 8.313 0 01-1.082-1.228zm2.471-.755c.088.094.183.18.293.26.197.153.43.291.68.415a5.385 5.385 0 01-.973-.676z"/><path opacity=".3" d="M31.986 23.627a4.952 4.952 0 01-.41.298c-.365.232-.782.4-1.147.45a3.642 3.642 0 01-1.053 0c-.036-.007-.073-.007-.11-.014a4.464 4.464 0 01-1.995-.88c-.343-.261-.599-.545-.76-.843.11.458.241.916.6 1.207.482.392 1.037.61 1.63.785 1.257.363 2.667.087 3.742-.69 1.155-.844 1.49-2.399 1.206-3.605-.147-.618-.446-1.098-.819-1.512.044.073.08.145.124.218.08.145.154.305.212.458.059.145.11.298.146.465.088.37.103.741.052 1.105-.008.065-.022.123-.037.189-.058.32-.153.64-.285.915-.27.596-.65 1.105-1.096 1.454z"/><path opacity=".3" d="M31.13 26.57c-.124.03-.248.051-.372.066a7.24 7.24 0 01-1.133.065 6.09 6.09 0 01-3.209-.916 5.817 5.817 0 01-1.067-.777c-.534-.458-.928-.981-1.17-1.548.264.617.351 1.315.812 1.838.767.88 2.054 1.345 3.15 1.657 1.637.458 3.64.415 5-.734.416-.349.906-.828 1.176-1.3a8.15 8.15 0 00.504-1.047c-.847 1.504-2.053 2.384-3.69 2.696zm-.906-9.491c-.797-.32-1.564-.443-2.266-.349-.599.102-1.206.37-1.798.814-.044.036-.087.08-.131.123a.43.43 0 01-.095.131.456.456 0 01-.132.102c-.204.225-.395.48-.57.77-.336.553-.504 1.018-.665 1.461a5.002 5.002 0 00-.197.734c-.022.298-.022.589.007.887.102-.356.146-.727.256-1.069.175-.58.41-1.184.745-1.693.65-.98 1.564-1.562 2.712-1.81.819-.174 1.93-.13 2.74.182-.204-.101-.408-.203-.606-.283z"/><path opacity=".3" d="M26.46 14.993c2.127-.915 4.458-.886 6.351.117a1.127 1.127 0 01-.146-.117 4.208 4.208 0 00-.402-.254 9.451 9.451 0 00-1.564-.574 9.905 9.905 0 00-2.127-.247 6.57 6.57 0 00-1.462.21c-.233.066-.46.139-.687.218-1.257.473-2.404 1.338-3.391 2.559-.044.058-.095.123-.139.188-.475.67-.936 1.716-1.111 2.217a7.662 7.662 0 00-.329 2.696c0 .037.007.073.007.117l.022.181c.293-1.424.585-2.725 1.33-4.077.856-1.57 2.12-2.572 3.648-3.234zm9.4-3.234c1.33 1.243 2.47 2.689 3.281 4.324.614 1.228 1.096 2.565 1.28 3.932-.147-2.544-1.236-5.088-3.18-7.34-1.06-1.236-2.42-2.006-4.16-2.711-.525-.211-1.008-.32-1.636-.502-.402.022-.936.102-1.243.27 1.257-.168 4.108.573 5.657 2.027zm1.797 13.488c.256-.625.27-1.177.278-1.62a8.198 8.198 0 01-.46 1.147c-.819 1.636-2.032 2.93-3.509 3.736a6.44 6.44 0 01-2.01.756 7.975 7.975 0 01-2.463.145 13.076 13.076 0 01-3.223-.741c-.059-.022-.117-.037-.183-.066-.051-.014-.102-.036-.153-.058 1.55 1.047 2.967 1.345 4.151 1.396 1.674.072 2.829-.422 4.305-1.178 1.718-.88 2.368-1.766 3.267-3.517z"/></g><path d="M36.05 16.294a.777.777 0 01-1.01.421.77.77 0 11.585-1.424.77.77 0 01.424 1.003z" fill="#7C615B"/><path d="M35.523 15.669a.275.275 0 01-.512-.204.278.278 0 01.359-.152c.146.05.212.21.153.356z" fill="#F1F2F2"/><path d="M28.733 13.329a.777.777 0 01-1.009.421.77.77 0 11.585-1.424.77.77 0 01.424 1.003z" fill="#7C615B"/><path d="M28.207 12.704a.278.278 0 01-.358.152.275.275 0 01-.154-.356.278.278 0 01.358-.153.266.266 0 01.154.357z" fill="#F1F2F2"/><path d="M32.059 15.116a.75.75 0 01-.973.407.743.743 0 01-.409-.966" stroke="#7C615B" stroke-miterlimit="10" stroke-linecap="round" stroke-linejoin="round"/><path d="M38.995 22.479c-.007.021-.037.014-.051.021a.603.603 0 00-.14.066.871.871 0 00-.087.08c-.014.014-.03.029-.044.05-.022.023-.044.037-.044 0 0-.028.008-.057.008-.08 0-.043 0-.086-.015-.13-.007-.036-.022-.065-.036-.102-.008-.022-.051-.065-.008-.08a.513.513 0 00.146-.058.546.546 0 00.103-.087c.022-.015.058-.095.08-.087.022.007.008.094.008.116 0 .036 0 .073.007.116.007.037.007.059.022.095.007 0 .05.065.05.08zm-1.192-1.512c-.007.037-.065.03-.094.037a.97.97 0 00-.278.13c-.066.044-.124.102-.183.16-.03.03-.058.066-.088.095-.036.043-.087.08-.095-.008 0-.058.015-.109.015-.167a1.12 1.12 0 00-.03-.269.898.898 0 00-.072-.196c-.022-.05-.103-.13-.015-.16.095-.029.205-.058.292-.116.073-.05.14-.109.198-.167.036-.037.117-.19.16-.167.052.021.022.181.022.232 0 .073.008.153.015.226a.55.55 0 00.044.188c.03.022.117.153.11.182 0-.007 0 0 0 0zm-.358 2.34c-.007.036-.066.03-.095.036a.972.972 0 00-.278.131 1.296 1.296 0 00-.182.16c-.03.03-.059.066-.088.095-.036.043-.088.08-.095-.008 0-.058.015-.109.015-.167 0-.087-.008-.181-.03-.269a.903.903 0 00-.073-.196c-.022-.05-.102-.13-.014-.16.095-.029.204-.058.292-.116.073-.05.139-.11.205-.167.036-.037.117-.19.16-.167.052.021.023.181.023.232 0 .073.007.153.014.226a.548.548 0 00.044.188.882.882 0 01.102.182zM23.39 21.585c-.007.022-.037.014-.051.022a.485.485 0 00-.14.065 1.04 1.04 0 00-.087.08c-.014.015-.029.03-.044.05-.022.023-.044.037-.044 0 0-.028.008-.057.008-.086 0-.044 0-.088-.015-.131-.007-.037-.022-.066-.036-.102-.008-.022-.052-.065-.008-.08a.512.512 0 00.146-.058.54.54 0 00.103-.087c.014-.015.058-.095.08-.08.022.007.008.094.008.116 0 .037 0 .073.007.11.007.035.007.057.022.094.014.007.058.072.051.087zm-1.55.828c-.007.037-.065.03-.094.037a.973.973 0 00-.278.13c-.066.044-.124.102-.183.16-.03.03-.058.066-.088.095-.036.043-.087.08-.095-.008 0-.058.015-.109.015-.167a1.12 1.12 0 00-.03-.269.898.898 0 00-.072-.196c-.022-.05-.103-.138-.015-.16.095-.029.205-.058.292-.116.073-.05.14-.109.198-.167.036-.037.117-.19.16-.167.052.021.023.181.023.232 0 .073.007.153.014.226a.55.55 0 00.044.189c.03.029.117.152.11.181zm2.193 1.337c-.014.05-.088.036-.124.05a1.34 1.34 0 00-.358.168c-.08.058-.16.13-.234.204-.037.036-.073.08-.11.123-.05.058-.117.102-.117-.007 0-.073.022-.146.015-.218-.007-.117-.007-.233-.037-.342a1.492 1.492 0 00-.087-.254c-.03-.066-.132-.175-.015-.21.124-.037.263-.073.373-.154a1.84 1.84 0 00.256-.218c.044-.043.146-.24.204-.218.066.03.022.233.03.298.007.095.007.197.021.291.015.095.022.153.052.24.022.036.139.203.131.247 0-.007 0-.007 0 0z" fill="#F1F2F2"/></svg>