<svg width="55" height="56" fill="none" xmlns="http://www.w3.org/2000/svg"><path d="M54.5 28c0 15.196-12.097 27.5-27 27.5S.5 43.196.5 28 12.597.5 27.5.5s27 12.304 27 27.5z" fill="#83C379" stroke="#fff"/><g clip-path="url(#clip0)"><path d="M27.318 7.246c-1.476.504-2.75 1.814-3.481 3.573-.61 1.46-1.03 3.124-1.273 5.129l-.014.163c0 .055-.013.11-.013.15-.041.314-.068.641-.082.969 0 .095-.013.177-.013.273-.027.354-.027.722-.04 1.077-.028-.027-.055-.04-.096-.068a3.737 3.737 0 00-.785-.982c-.867-.819-1.95-1.228-2.967-1.146a2.403 2.403 0 00-.704.15c-1.057.341-1.775 1.282-1.91 2.36l-.244.122a2.63 2.63 0 00-1.219 1.487c-.176.491-.27 1.173-.014 2.073.366 1.228 1.233 2.21 2.303 2.62l.122.04a9.351 9.351 0 00-.84.205c-.081.027-.176.04-.257.068a18.1 18.1 0 00-.921.273c-.054.013-.095.027-.15.04l-.162.055c-.108.041-.216.068-.325.11-1.747.6-3.197 1.295-4.416 2.127-2.357 1.637-3.359 4.133-2.52 6.356.516 1.391 1.6 2.21 2.358 2.7.162.11.325.205.474.3.488.314.907.573 1.26.873.284.246.582.532.88.832.908.873 1.937 1.883 3.346 2.51 1.666.75 3.59.887 5.39.382a6.05 6.05 0 00.462-.15l.528-.205c.555 1.269 1.26 2.278 2.126 3.083 1.775 1.65 4.403 2.264 6.556 1.514 1.165-.396 2.114-1.16 2.777-2.21.8-1.268 1.07-2.864.813-4.746-.23-1.719-.853-3.328-1.355-4.542-.19-.464-.406-.928-.623-1.391a2.454 2.454 0 00.99-1.487c.527.136 1.029.26 1.543.368 1.287.273 2.98.573 4.687.464.84-.055 1.612-.191 2.29-.437a5.797 5.797 0 002.167-1.295c1.178-1.119 1.76-2.646 1.666-4.31-.122-1.937-1.192-3.874-2.777-5.047-.948-.695-2.086-1.2-3.414-1.514.068-.34.122-.695.15-1.05.135-1.882-.366-3.75-1.41-5.251-.88-1.269-2.058-2.087-3.088-2.824a23.197 23.197 0 01-.975-.709c-.366-.286-.704-.655-1.097-1.077-.136-.137-.258-.273-.393-.41-.637-.613-1.639-1.527-3.088-1.773a4.384 4.384 0 00-2.222.178z" fill="#fff"/><path d="M26.221 26.736c-.027.082.244.369.285.396 2.844 1.227 5.73 2.387 8.764 3.028 1.34.286 2.736.505 4.104.423 1.097-.068 2.262-.341 3.088-1.119 1.815-1.718.894-4.637-.907-5.96-1.138-.832-2.547-1.2-3.915-1.364a16.435 16.435 0 00-4.172.04c-2.804.424-6.204 1.76-7.247 4.556z" fill="#61BC53"/><path d="M25.869 11.679c-.596 1.418-.921 3-1.11 4.528 0 .055-.014.095-.014.15 0 .055-.014.096-.014.15l-.081.873c0 .082-.014.15-.014.232a20.339 20.339 0 001.179 8.156c.108.3.5 1.487.799 1.364a215.64 215.64 0 005.16-2.114c.678-.286 1.355-.587 2.005-.955.068-.04.136-.082.217-.122.244-.15.488-.3.718-.464.054-.041.122-.082.176-.123.271-.205.529-.423.772-.668 1.003-.996 1.626-2.278 1.734-3.697.095-1.336-.244-2.714-1.016-3.805-.92-1.323-2.384-2.087-3.616-3.055-.65-.505-1.165-1.119-1.72-1.705-.515-.546-1.111-1.037-1.87-1.173-1.585-.273-2.763 1.118-3.305 2.428z" fill="#61BC53"/><path d="M24.623 17.598c.636.178 1.273.355 1.896.587.772.3 1.517.668 2.235 1.09a16.212 16.212 0 013.752 3.124c.46.519.88 1.078 1.26 1.65.068-.04.136-.081.217-.122a15.48 15.48 0 00-7.057-5.824c-.732-.3-1.504-.587-2.29-.75 0 .095 0 .177-.013.245z" fill="#FCD323"/><path d="M32.1 39.667c-.19-1.364-.664-2.715-1.206-3.97-1.219-2.877-2.885-5.496-4.632-8.06a.961.961 0 00-.407-.232c-2.302 1.868-3.223 5.183-3.074 8.033.067 1.392.338 2.796.758 4.133.42 1.323 1.043 2.646 2.086 3.615 1.64 1.514 4.646 1.868 5.974-.246.61-.968.65-2.169.5-3.273z" fill="#61BC53"/><path d="M16.617 27.596c-.08.014-.149.041-.23.055-.284.082-.555.163-.84.245-.04.014-.095.028-.135.041-.04.014-.095.027-.136.041-1.463.478-2.925 1.105-4.199 1.978-1.165.791-2.289 2.223-1.72 3.723.27.723.867 1.214 1.504 1.61.677.436 1.381.832 1.99 1.377 1.18 1.037 2.209 2.333 3.672 2.988 1.219.545 2.627.627 3.914.272a5.748 5.748 0 003.278-2.414c.19-.286.352-.586.501-.886a.83.83 0 01.095-.191c.122-.26.217-.532.312-.805.027-.082.054-.15.081-.232.23-.71.393-1.446.542-2.169.38-1.827.731-3.669 1.07-5.51.054-.314-1.178-.477-1.49-.532a20.055 20.055 0 00-8.209.41z" fill="#61BC53"/><path d="M27.264 12.402c-.203 1.296-.122 3.587.163 3.246.61-.682 1.26-1.35 1.815-2.073.433-.573.785-1.31.582-2.046-.176-.6-.786-1.091-1.422-.941-.813.19-1.03 1.105-1.138 1.814zm5.906 5.865c-.244.163-.542.368-.69.627-.069.136 1.07.546 2.099.41.487-.07 1.151-.451.907-1.051-.23-.573-.934-.546-1.422-.396a3.339 3.339 0 00-.894.41zm-1.802-3.533c-.23.164-.447.355-.65.56-.447.463-1.26 1.65-.907 1.65a5.485 5.485 0 002.221-.491c.555-.26 1.165-.737 1.002-1.446a.747.747 0 00-.149-.314c-.054-.204-.243-.34-.447-.395-.338-.096-.65.082-.907.286-.054.055-.109.096-.163.15zM10.508 32.67c-.027.655.583 1.173 1.192 1.228.759.068 1.409-.423 1.883-.969.596-.695 1.124-1.46 1.666-2.182.271-.355-1.978.014-3.197.464-.663.232-1.517.627-1.544 1.46zm4.606 2.141c-.04.068-.068.123-.109.191-.149.287-.257.641-.094.955.094.19.27.355.474.368a.824.824 0 00.338.082c.718.027 1.07-.668 1.206-1.268.176-.75.19-1.528.054-2.278-.068-.355-1.07.682-1.436 1.227a3.52 3.52 0 00-.433.723zm3.806 1.091c-.122.3-.203.628-.244.955-.054.518.054 1.2.664 1.337.637.136.88-.6.853-1.105-.068-1.037-.69-2.087-.799-1.991-.23.204-.366.545-.474.804z" fill="#99D0D6"/><path d="M24.718 16.493c.216.069.42.123.636.191.407.123.8.26 1.192.41.813.3 1.626.64 2.384 1.063 1.517.819 2.899 1.924 4.077 3.178.339.355.65.737.962 1.119.258.34.501.695.759 1.023.054-.041.122-.082.176-.123-.38-.71-.948-1.35-1.477-1.937a16.83 16.83 0 00-1.883-1.8c-1.354-1.105-2.898-2.087-4.524-2.728a12.86 12.86 0 00-1.395-.464 6.446 6.446 0 00-.853-.204c0 .054-.014.095-.014.15-.027.027-.027.082-.04.122zm8.845.505s-.014-.014 1.07.014c.298 0 .61.027.894-.028.406-.081.812-.504.555-.94-.257-.41-.786-.369-1.165-.205-.664.272-1.3 1.05-1.355 1.16zm-2.831-4.488c-.46.41-.908.97-1.03 1.597v.013c0 .041.04.096.108.082.624-.095 1.314-.259 1.87-.573.42-.245.69-.75.352-1.186-.352-.464-.921-.26-1.3.068zM15.276 27.991c.108.273.244.546.366.805.217.436.46.873.718 1.282.934 1.487 2.194 2.823 3.535 3.942a17.672 17.672 0 002.113 1.514c.678.409 1.409.845 2.181 1.09.027-.067.054-.136.095-.19-.38-.191-.772-.355-1.151-.56a16.307 16.307 0 01-5.16-4.133c-.557-.667-1.044-1.404-1.491-2.14a21.325 21.325 0 01-.637-1.105c-.108-.191-.203-.396-.298-.587-.04.014-.095.028-.135.041-.041.014-.082.028-.136.041zm2.479 8.552c-.108.068-.731.846-.88 1.569-.082.409-.027.94.42 1.118.474.177.799-.3.812-.723 0-.3-.081-.6-.135-.886-.23-1.092-.217-1.078-.217-1.078zm-3.657-1.213c.203-.615.23-1.324.203-1.965 0-.068-.054-.095-.108-.082h-.014c-.582.232-1.043.791-1.355 1.323-.243.437-.338 1.037.177 1.296.5.26.948-.11 1.097-.573z" fill="#F9EDE1"/><path d="M16.387 27.65c.311.737.731 1.446 1.165 2.114 1.72 2.619 4.158 4.665 7.044 5.851.027-.081.054-.15.08-.232a13.835 13.835 0 01-1.855-.927c-1.395-.846-2.682-1.882-3.766-3.11a16.297 16.297 0 01-1.503-1.991c-.352-.573-.65-1.16-.935-1.76-.081.014-.149.041-.23.055z" fill="#FCD323"/><path d="M18.134 19.385c.095.49.61.763 1.043.886.23.068.57.137.827.068.095 0 .19-.027.27-.081a15.362 15.362 0 014.863 5.442 1.81 1.81 0 00-.216.34c-.04.096-.081.205-.109.314A21.344 21.344 0 0118.5 22.59c.04-.41-.23-.818-.474-1.119-.257-.3-.772-.79-1.205-.531-.136.081-.204.177-.217.286-.108.205-.054.491.013.71.15.49.502 1.009.99 1.2.27.109.568.054.744-.15a21.809 21.809 0 006.448 3.791.75.75 0 00.19.437.57.57 0 00.541.19h.109c1.03 2.238 3.25 3.083 5.269 4.215.122.068.298-.082.23-.204-1.056-2.033-2.357-4.12-4.51-5.074-.014 0-.014 0-.028-.014 0-.082 0-.164-.013-.232-.068-.368-.366-.682-.745-.709a.713.713 0 00-.352.055 15.62 15.62 0 00-4.985-5.538c0-.286-.257-.586-.447-.764-.325-.313-.826-.6-1.287-.559-.447.027-.704.396-.637.805z" fill="#282143"/></g><defs><clipPath id="clip0"><path fill="#fff" transform="translate(7 7)" d="M0 0h40v41H0z"/></clipPath></defs></svg>