<svg width="56" height="56" fill="none" xmlns="http://www.w3.org/2000/svg"><circle cx="28" cy="28" r="27.5" fill="#F37C7C" stroke="#fff"/><g clip-path="url(#clip0)"><path d="M21.367 19.066c.474-2.413 1.195-5.164 2.995-7.218 1.491-1.703 3.8-2.627 6.342-2.544.296.007.598.034.9.069 2.529.317 4.81 1.585 6.26 3.488 1.195 1.572 1.786 3.75 1.758 6.467-.02 2.137-.446 4.592-1.195 6.915a3.382 3.382 0 01-4.253 2.179 3.368 3.368 0 01-1.965-1.683 3.382 3.382 0 01-.206-2.585c1.257-3.875.94-6.584.487-7.177-.336-.448-1.03-.793-1.758-.882a1.777 1.777 0 00-.275-.021c-.584-.02-.942.138-1.03.241-.4.455-.66 1.145-.84 1.703-1.057 3.192-1.38 6.77-1.69 10.231a150.853 150.853 0 01-.343 3.496 445.587 445.587 0 01-.604 4.963c-.46 3.661-.928 7.44-1.203 11.156a3.393 3.393 0 01-1.161 2.316 3.322 3.322 0 01-2.453.813c-.055 0-.117-.006-.172-.013a3.374 3.374 0 01-2.947-3.613c.09-1.2.2-2.475.343-3.902.282-2.8.633-5.633.976-8.377v-.02c.268-2.165.543-4.406.783-6.605.035-.345.076-.69.11-1.034l.014-.117c.289-2.71.59-5.502 1.127-8.246z" fill="#DBD7D6"/><path d="M21.745 18.77c.467-2.42 1.195-5.164 2.988-7.219 1.491-1.703 3.8-2.627 6.342-2.544.296.007.598.035.893.07 2.536.316 4.823 1.592 6.266 3.495 1.196 1.571 1.787 3.75 1.766 6.466-.02 2.137-.447 4.592-1.195 6.915a3.382 3.382 0 01-4.253 2.179 3.37 3.37 0 01-1.965-1.682 3.383 3.383 0 01-.207-2.586c1.258-3.874.942-6.584.495-7.177-.337-.448-1.03-.793-1.759-.882a1.842 1.842 0 00-.274-.02c-.585-.021-.942.137-1.031.24-.399.456-.66 1.145-.838 1.703-1.058 3.192-1.381 6.77-1.69 10.231a150.197 150.197 0 01-.344 3.496 468.718 468.718 0 01-.605 4.964c-.46 3.66-.934 7.439-1.202 11.155a3.393 3.393 0 01-1.161 2.316 3.316 3.316 0 01-2.446.814c-.055-.007-.117-.007-.172-.014a3.378 3.378 0 01-2.948-3.613c.09-1.2.2-2.475.344-3.902.282-2.799.632-5.632.976-8.376v-.014c.268-2.165.542-4.406.783-6.612.034-.345.076-.69.11-1.034l.014-.117c.274-2.71.577-5.509 1.113-8.253z" fill="#F1F2F2"/><path d="M21.752 49.484c-.055 0-.104 0-.159-.007a.599.599 0 01-.11-.014 2.113 2.113 0 01-1.84-2.254c.089-1.193.198-2.462.343-3.868.281-2.785.632-5.612.968-8.35.268-2.17.55-4.418.79-6.638l.124-1.138c.289-2.682.584-5.46 1.113-8.156.44-2.247 1.107-4.798 2.7-6.625 1.175-1.345 3.024-2.117 5.064-2.117.096 0 .186 0 .282.007 2.487.083 4.803 1.234 6.204 3.068 2.233 2.937 1.656 8.239.364 12.217a2.104 2.104 0 01-2.659 1.358 2.095 2.095 0 01-1.23-1.055 2.091 2.091 0 01-.123-1.613c1.285-3.978 1.113-7.26.295-8.342-.618-.814-1.793-1.358-2.988-1.4h-.145c-.824 0-1.504.248-1.882.676-.55.627-.873 1.468-1.093 2.137-1.099 3.33-1.436 6.984-1.752 10.514a147.869 147.869 0 01-.343 3.468 491.794 491.794 0 01-.605 4.964c-.46 3.667-.934 7.46-1.21 11.21a2.132 2.132 0 01-2.108 1.958z" fill="#F16562"/><path d="M30.745 10.572c.09 0 .186 0 .275.007 2.412.083 4.659 1.193 6.012 2.965 2.178 2.86 1.594 8.066.323 11.982a1.86 1.86 0 01-2.336 1.2 1.87 1.87 0 01-1.196-2.351c1.327-4.102 1.134-7.419.255-8.57-.66-.869-1.91-1.461-3.182-1.503h-.15c-.894 0-1.65.276-2.076.765-.55.628-.886 1.448-1.14 2.227-1.477 4.454-1.574 9.404-2.103 14.03-.618 5.391-1.415 10.769-1.814 16.188a1.86 1.86 0 01-1.848 1.724c-.048 0-.089 0-.137-.007-.034 0-.062-.007-.096-.007a1.862 1.862 0 01-1.622-1.986 146.2 146.2 0 01.344-3.86c.501-5.006 1.216-9.99 1.759-14.989.336-3.095.632-6.212 1.23-9.273.426-2.261 1.078-4.736 2.631-6.508 1.134-1.303 2.9-2.034 4.871-2.034zm0-.51c-2.116 0-4.026.8-5.249 2.206-1.642 1.876-2.315 4.46-2.762 6.743-.529 2.71-.824 5.488-1.113 8.177l-.124 1.137c-.24 2.213-.522 4.46-.79 6.632-.336 2.737-.687 5.564-.969 8.356a140.606 140.606 0 00-.343 3.875 2.366 2.366 0 002.061 2.53c.035.007.076.007.124.014.055.007.117.007.172.007 1.23 0 2.267-.965 2.356-2.2.275-3.743.75-7.535 1.21-11.196.206-1.627.412-3.31.604-4.964.13-1.144.24-2.33.344-3.474.316-3.517.646-7.157 1.738-10.46.213-.647.522-1.46 1.037-2.047.33-.372.942-.586 1.69-.586h.138c1.127.042 2.226.552 2.796 1.303.777 1.028.928 4.213-.33 8.108-.192.6-.144 1.248.145 1.813a2.35 2.35 0 001.374 1.18 2.4 2.4 0 00.728.116 2.363 2.363 0 002.247-1.64c1.306-4.04 1.89-9.432-.405-12.452-1.443-1.896-3.834-3.075-6.397-3.164a3.668 3.668 0 00-.282-.014z" fill="#BD5251"/><path d="M22.734 22.106c1.457-1.013 2.865-2.089 4.301-3.137.096-.372.2-.744.31-1.11.054-.193.116-.379.178-.572.02-.069.048-.138.069-.2.247-.717.57-1.454 1.072-2.027.446-.517 1.264-.792 2.226-.758a4.836 4.836 0 011.594.338c.158.062.309.138.453.214 1.148-.724 2.336-1.386 3.58-1.91a9.7 9.7 0 00-.399-.386 6.679 6.679 0 00-.419-.352 7.908 7.908 0 00-2.542-1.29c-.694.456-1.43.828-2.178 1.194-1.106.537-2.144 1.179-3.209 1.806a48.553 48.553 0 01-3.167 1.737c-.186.097-.378.18-.563.27-.358 1.047-.612 2.136-.818 3.178-.082.427-.158.861-.234 1.296l-.123.765c-.041.317-.09.627-.13.944zm11.103 2.214c.598-.297 3.484-1.793 4.356-2.2.041-.248.083-.496.11-.744.028-.193.048-.386.069-.58.069-.675.11-1.35.103-2.012-.667.275-1.347.496-2.02.765-.612.248-1.203.565-1.78.903a19.52 19.52 0 01-.364 2.13 12.56 12.56 0 01-.165.655 13.55 13.55 0 01-.309 1.083zm-11.996 5.418a351.37 351.37 0 01-.344 2.868c-.02.207-.048.428-.075.648l-.096.8c.158-.138 2.79-1.551 4.06-2.516.028-.22.048-.435.069-.655l.062-.62c.096-1.021.185-2.055.282-3.09-1.354 1-2.639 1.51-3.958 2.565zm-1.264 10.494c-.124 1.048-.234 2.096-.344 3.143-.007.042-.007.083-.014.124-.02.207-.04.407-.062.614-.02.2-.04.407-.055.607 1.244-.786 2.866-1.558 3.944-2.069l.062-.572c.02-.2.041-.4.069-.6.11-.985.233-1.964.35-2.943-1.024.51-3.696 1.565-3.95 1.696z" fill="#FBD0CF"/><path d="M34.153 23.244c1.051-.572 3.05-1.413 4.15-1.868.028-.193.048-.386.069-.58-.914.373-2.817 1.166-4.054 1.786-.048.22-.103.441-.165.662zm-12.649 9.369c-.02.207-.048.428-.075.648 1.058-.661 2.906-1.73 4.033-2.371l.062-.62c-.97.544-2.804 1.592-4.02 2.343zm-1.278 10.879l-.061.614c1.058-.607 2.858-1.503 3.95-2.034.02-.2.041-.4.069-.6-.955.47-2.748 1.352-3.958 2.02zM35.7 12.22c-.736.407-2.158 1.2-3.862 2.22.22.055.44.124.646.207 1.67-.993 3.023-1.744 3.634-2.082a10.108 10.108 0 00-.419-.345zm-12.828 8.95c1.25-1.076 2.83-2.214 4.472-3.31.055-.193.117-.38.179-.572.02-.07.048-.138.069-.2-1.65 1.082-3.27 2.227-4.597 3.316-.048.255-.09.51-.123.765z" fill="#E9929D"/><path opacity=".3" d="M23.167 47.016c.096-.793.405-5.088.536-6.033.55-3.799.852-6.777 1.134-10.603.274-3.75.7-7.57 1.649-11.217.35-1.352 1.202-4.564 2.981-4.633-.322.13-.604.31-.803.537-.55.628-.887 1.448-1.141 2.227-1.477 4.454-1.573 9.404-2.102 14.03-.619 5.391-1.416 10.769-1.814 16.188a1.87 1.87 0 01-1.601 1.71c.584-.62 1.058-1.372 1.161-2.206zm14.648-29.88c-.13-1.214-.37-2.455-.803-3.613l.02.02c2.178 2.862 1.594 8.067.323 11.983a1.856 1.856 0 01-1.182 1.193c1.237-3.096 1.993-6.226 1.642-9.583z" fill="#808285"/><path d="M31.343 13.992c1.8.117 3.223 1.516 3.731 3.212.618 2.083-.096 4.213-.57 6.24-.2.855-.474 1.985-.165 2.882a1.875 1.875 0 01-.515-1.951c1.326-4.103 1.133-7.419.254-8.57-.66-.869-1.91-1.462-3.181-1.503a3.548 3.548 0 00-1.368.2c.488-.359 1.093-.559 1.814-.51zm-8.114 5.115a25.68 25.68 0 01.721-2.91c-.027.111-.055.221-.075.332-.406 2.013-.64 4.081-.962 6.108-.687 4.33-.832 8.721-1.278 13.078-.323 3.103-.831 6.185-1.154 9.28-.097.917-.385 3.165.467 4.04a1.855 1.855 0 01-1.044-1.813c.096-1.29.212-2.572.343-3.86.502-5.006 1.216-9.99 1.759-14.989.33-3.089.625-6.205 1.223-9.266z" fill="#D6CCD0"/><path d="M34.661 15.095c-.013.048.055.076.083.103.09.09.172.2.227.318.04.09.075.186.103.282.013.055.02.104.034.159.014.069.048.145.103.048.035-.062.055-.13.09-.193.054-.096.116-.193.192-.276a1.62 1.62 0 01.2-.179c.054-.041.191-.083.109-.172-.09-.097-.185-.193-.247-.31-.048-.097-.083-.207-.117-.31-.02-.063-.007-.277-.076-.284-.068-.006-.137.194-.165.242a2.947 2.947 0 01-.158.241c-.055.076-.089.124-.158.18-.027.027-.206.116-.22.151.007 0 0 0 0 0zm.763 2.145c-.007.034.041.048.055.068a.858.858 0 01.158.22c.027.063.048.132.069.2l.02.111c.007.048.035.097.076.035.027-.042.034-.09.062-.131a.967.967 0 01.137-.194c.041-.048.09-.082.138-.124.034-.027.137-.062.075-.117a.868.868 0 01-.172-.213 1.36 1.36 0 01-.082-.214c-.014-.042-.007-.193-.048-.2-.048-.007-.096.13-.117.165a2.29 2.29 0 01-.11.166.623.623 0 01-.11.124c-.014.014-.137.076-.151.103 0-.007 0 0 0 0zM23.51 22.83c-.007.02.021.028.035.042a.44.44 0 01.089.13c.02.035.027.076.041.118.007.02.007.041.014.062.007.027.02.062.041.02.014-.027.02-.055.035-.082a.454.454 0 01.082-.117c.027-.028.055-.049.082-.076.021-.014.083-.035.049-.07-.035-.04-.076-.075-.104-.123a.742.742 0 01-.048-.131c-.006-.028-.006-.118-.027-.118-.028-.006-.055.076-.069.097-.02.034-.041.069-.062.097-.02.027-.034.048-.068.075-.014.028-.083.062-.09.076zm.976 1.544c-.007.042.048.062.069.083a1.2 1.2 0 01.185.262c.035.076.062.152.083.234.014.042.02.09.027.131.014.056.042.118.09.042.027-.048.04-.11.075-.159.048-.075.096-.158.158-.227.048-.055.11-.104.165-.145.041-.034.158-.069.096-.145a1.022 1.022 0 01-.199-.255c-.041-.083-.069-.172-.096-.255-.014-.048-.007-.228-.062-.234-.055-.007-.11.158-.137.2-.042.069-.083.138-.13.2a.692.692 0 01-.131.151c-.035.014-.18.09-.193.117.007 0 0 0 0 0z" fill="#F1F2F2"/></g><defs><clipPath id="clip0"><path fill="#fff" transform="translate(18 9)" d="M0 0h22v42H0z"/></clipPath></defs></svg>